G04*
G04 #@! TF.GenerationSoftware,Altium Limited,Altium Designer,25.7.1 (20)*
G04*
G04 Layer_Physical_Order=1*
G04 Layer_Color=255*
%FSLAX25Y25*%
%MOIN*%
G70*
G04*
G04 #@! TF.SameCoordinates,4004DD4F-5307-4C4F-B8C3-9824D0AE2BA4*
G04*
G04*
G04 #@! TF.FilePolarity,Positive*
G04*
G01*
G75*
%ADD12C,0.00787*%
%ADD18R,0.04724X0.05906*%
%ADD19R,0.06693X0.02559*%
G04:AMPARAMS|DCode=20|XSize=39.37mil|YSize=110.24mil|CornerRadius=3.94mil|HoleSize=0mil|Usage=FLASHONLY|Rotation=0.000|XOffset=0mil|YOffset=0mil|HoleType=Round|Shape=RoundedRectangle|*
%AMROUNDEDRECTD20*
21,1,0.03937,0.10236,0,0,0.0*
21,1,0.03150,0.11024,0,0,0.0*
1,1,0.00787,0.01575,-0.05118*
1,1,0.00787,-0.01575,-0.05118*
1,1,0.00787,-0.01575,0.05118*
1,1,0.00787,0.01575,0.05118*
%
%ADD20ROUNDEDRECTD20*%
G04:AMPARAMS|DCode=21|XSize=23.62mil|YSize=66.93mil|CornerRadius=3.54mil|HoleSize=0mil|Usage=FLASHONLY|Rotation=0.000|XOffset=0mil|YOffset=0mil|HoleType=Round|Shape=RoundedRectangle|*
%AMROUNDEDRECTD21*
21,1,0.02362,0.05984,0,0,0.0*
21,1,0.01654,0.06693,0,0,0.0*
1,1,0.00709,0.00827,-0.02992*
1,1,0.00709,-0.00827,-0.02992*
1,1,0.00709,-0.00827,0.02992*
1,1,0.00709,0.00827,0.02992*
%
%ADD21ROUNDEDRECTD21*%
%ADD22R,0.05906X0.04724*%
%ADD23R,0.03150X0.04134*%
%ADD24R,0.07900X0.04100*%
G04:AMPARAMS|DCode=25|XSize=21.65mil|YSize=19.68mil|CornerRadius=2.46mil|HoleSize=0mil|Usage=FLASHONLY|Rotation=180.000|XOffset=0mil|YOffset=0mil|HoleType=Round|Shape=RoundedRectangle|*
%AMROUNDEDRECTD25*
21,1,0.02165,0.01476,0,0,180.0*
21,1,0.01673,0.01968,0,0,180.0*
1,1,0.00492,-0.00837,0.00738*
1,1,0.00492,0.00837,0.00738*
1,1,0.00492,0.00837,-0.00738*
1,1,0.00492,-0.00837,-0.00738*
%
%ADD25ROUNDEDRECTD25*%
G04:AMPARAMS|DCode=26|XSize=21.65mil|YSize=19.68mil|CornerRadius=2.46mil|HoleSize=0mil|Usage=FLASHONLY|Rotation=90.000|XOffset=0mil|YOffset=0mil|HoleType=Round|Shape=RoundedRectangle|*
%AMROUNDEDRECTD26*
21,1,0.02165,0.01476,0,0,90.0*
21,1,0.01673,0.01968,0,0,90.0*
1,1,0.00492,0.00738,0.00837*
1,1,0.00492,0.00738,-0.00837*
1,1,0.00492,-0.00738,-0.00837*
1,1,0.00492,-0.00738,0.00837*
%
%ADD26ROUNDEDRECTD26*%
%ADD27R,0.01100X0.05800*%
%ADD28R,0.05800X0.01100*%
%ADD29R,0.04134X0.03150*%
G04:AMPARAMS|DCode=30|XSize=29.92mil|YSize=26mil|CornerRadius=3.25mil|HoleSize=0mil|Usage=FLASHONLY|Rotation=270.000|XOffset=0mil|YOffset=0mil|HoleType=Round|Shape=RoundedRectangle|*
%AMROUNDEDRECTD30*
21,1,0.02992,0.01950,0,0,270.0*
21,1,0.02342,0.02600,0,0,270.0*
1,1,0.00650,-0.00975,-0.01171*
1,1,0.00650,-0.00975,0.01171*
1,1,0.00650,0.00975,0.01171*
1,1,0.00650,0.00975,-0.01171*
%
%ADD30ROUNDEDRECTD30*%
%ADD43C,0.06200*%
%ADD44C,0.09700*%
%ADD50R,0.11417X0.04331*%
G04:AMPARAMS|DCode=51|XSize=64.96mil|YSize=64.96mil|CornerRadius=16.24mil|HoleSize=0mil|Usage=FLASHONLY|Rotation=270.000|XOffset=0mil|YOffset=0mil|HoleType=Round|Shape=RoundedRectangle|*
%AMROUNDEDRECTD51*
21,1,0.06496,0.03248,0,0,270.0*
21,1,0.03248,0.06496,0,0,270.0*
1,1,0.03248,-0.01624,-0.01624*
1,1,0.03248,-0.01624,0.01624*
1,1,0.03248,0.01624,0.01624*
1,1,0.03248,0.01624,-0.01624*
%
%ADD51ROUNDEDRECTD51*%
%ADD52C,0.06496*%
%ADD53C,0.17323*%
%ADD54R,0.23622X0.23622*%
%ADD55C,0.23622*%
%ADD56C,0.06000*%
%ADD57C,0.12598*%
%ADD58C,0.02362*%
G36*
X587396Y141744D02*
X448500D01*
Y181000D01*
X468146D01*
Y154650D01*
X468146Y154650D01*
X468238Y154189D01*
X468499Y153798D01*
X475531Y146765D01*
Y146108D01*
X475831Y145385D01*
X476385Y144831D01*
X477108Y144532D01*
X477892D01*
X478615Y144831D01*
X479169Y145385D01*
X479468Y146108D01*
Y146892D01*
X479169Y147615D01*
X478615Y148169D01*
X477892Y148468D01*
X477235D01*
X470555Y155148D01*
Y157285D01*
X470878Y157419D01*
X481531Y146765D01*
Y146108D01*
X481831Y145385D01*
X482385Y144831D01*
X483108Y144532D01*
X483892D01*
X484615Y144831D01*
X485169Y145385D01*
X485468Y146108D01*
Y146834D01*
X485628Y146948D01*
X485792Y147005D01*
X489648Y143149D01*
X490039Y142887D01*
X490500Y142796D01*
X490500Y142796D01*
X513500D01*
X513500Y142796D01*
X513961Y142887D01*
X514352Y143149D01*
X515351Y144149D01*
X515351Y144149D01*
X515613Y144539D01*
X515704Y145000D01*
Y145217D01*
X518240D01*
Y146981D01*
X518590Y147126D01*
X518885Y146831D01*
X519608Y146531D01*
X520392D01*
X521115Y146831D01*
X521669Y147385D01*
X521969Y148108D01*
Y148892D01*
X521669Y149615D01*
X521115Y150169D01*
X520392Y150469D01*
X519608D01*
X518885Y150169D01*
X518590Y149874D01*
X518240Y150019D01*
Y151516D01*
X510760D01*
Y145217D01*
X510415Y145204D01*
X490999D01*
X473704Y162499D01*
Y181000D01*
X504297D01*
X519559Y165738D01*
X519613Y165702D01*
X519649Y165648D01*
X519723Y165574D01*
X519723Y165574D01*
X520114Y165313D01*
X520575Y165221D01*
X531425D01*
X531425Y165221D01*
X531886Y165313D01*
X532277Y165574D01*
X533735Y167032D01*
X534392D01*
X535115Y167331D01*
X535669Y167885D01*
X535968Y168608D01*
Y169392D01*
X535669Y170115D01*
X535115Y170669D01*
X534392Y170968D01*
X533608D01*
X532885Y170669D01*
X532331Y170115D01*
X532031Y169392D01*
Y168735D01*
X531152Y167855D01*
X531043Y167874D01*
X530827Y168268D01*
X530969Y168608D01*
Y169392D01*
X530669Y170115D01*
X530115Y170669D01*
X529392Y170968D01*
X528608D01*
X527885Y170669D01*
X527420Y170204D01*
X520999D01*
X519231Y171972D01*
X519365Y172296D01*
X541920D01*
X542385Y171831D01*
X543108Y171531D01*
X543892D01*
X544615Y171831D01*
X545169Y172385D01*
X545469Y173108D01*
Y173892D01*
X545169Y174615D01*
X544615Y175169D01*
X543892Y175469D01*
X543108D01*
X542875Y175372D01*
X538283Y179963D01*
Y185740D01*
X531984D01*
Y178260D01*
X536580D01*
X539813Y175028D01*
X539679Y174704D01*
X518499D01*
X508000Y185203D01*
Y208185D01*
X508323Y208320D01*
X517293Y199504D01*
X517299Y199500D01*
X517303Y199494D01*
X518876Y197982D01*
X519064Y197862D01*
X519250Y197738D01*
X519262Y197736D01*
X519272Y197729D01*
X519492Y197690D01*
X519711Y197646D01*
X519942Y197646D01*
X531350D01*
X531350Y197646D01*
X531811Y197738D01*
X532202Y197999D01*
X533660Y199457D01*
X534392D01*
X535115Y199756D01*
X535669Y200310D01*
X535968Y201034D01*
Y201817D01*
X535708Y202446D01*
X535871Y202796D01*
X541500D01*
X541500Y202796D01*
X541946Y202884D01*
X542008Y202890D01*
X542296Y202707D01*
Y201500D01*
X542296Y201500D01*
X542387Y201039D01*
X542649Y200648D01*
X544648Y198649D01*
X544649Y198649D01*
X545039Y198387D01*
X545500Y198296D01*
X545716Y198052D01*
Y195760D01*
X552016D01*
Y203240D01*
X545716D01*
Y201444D01*
X545393Y201310D01*
X544704Y201999D01*
Y204420D01*
X545169Y204885D01*
X545469Y205608D01*
Y206392D01*
X545169Y207115D01*
X544615Y207669D01*
X543892Y207968D01*
X543108D01*
X542385Y207669D01*
X541831Y207115D01*
X541532Y206392D01*
Y205735D01*
X541001Y205204D01*
X518499D01*
X508000Y215703D01*
Y241840D01*
X508323Y241974D01*
X519717Y230580D01*
X519717Y230580D01*
X520108Y230319D01*
X520568Y230227D01*
X531431D01*
X531432Y230227D01*
X531892Y230319D01*
X532283Y230580D01*
X533735Y232031D01*
X534392D01*
X535115Y232331D01*
X535669Y232885D01*
X535968Y233608D01*
Y234392D01*
X535669Y235115D01*
X535115Y235669D01*
X534392Y235968D01*
X533608D01*
X532885Y235669D01*
X532331Y235115D01*
X532031Y234392D01*
Y233734D01*
X531154Y232857D01*
X531042Y232877D01*
X530826Y233270D01*
X530969Y233615D01*
Y234398D01*
X530669Y235121D01*
X530115Y235675D01*
X529392Y235975D01*
X528608D01*
X527885Y235675D01*
X527420Y235211D01*
X520101D01*
X518339Y236972D01*
X518473Y237296D01*
X541920D01*
X542296Y236920D01*
Y234000D01*
X542296Y234000D01*
X542387Y233539D01*
X542649Y233149D01*
X544398Y231399D01*
X544398Y231399D01*
X544789Y231137D01*
X545250Y231046D01*
X545716D01*
Y228510D01*
X552016D01*
Y235990D01*
X545716D01*
Y233944D01*
X545393Y233810D01*
X544704Y234499D01*
Y236920D01*
X545169Y237385D01*
X545469Y238108D01*
Y238892D01*
X545169Y239615D01*
X544615Y240169D01*
X543892Y240469D01*
X543108D01*
X542385Y240169D01*
X541920Y239704D01*
X517216D01*
X508000Y248920D01*
Y273123D01*
X508323Y273257D01*
X517899Y263681D01*
X517684Y263401D01*
X517462Y263529D01*
X516499Y263787D01*
X515501D01*
X514538Y263529D01*
X513674Y263031D01*
X512969Y262326D01*
X512471Y261462D01*
X512213Y260499D01*
Y259501D01*
X512471Y258538D01*
X512969Y257675D01*
X513674Y256969D01*
X514538Y256471D01*
X515208Y256291D01*
Y255929D01*
X514456Y255727D01*
X513544Y255201D01*
X512799Y254456D01*
X512273Y253544D01*
X512127Y253000D01*
X516000D01*
X519873D01*
X519727Y253544D01*
X519201Y254456D01*
X518456Y255201D01*
X517544Y255727D01*
X516792Y255929D01*
Y256291D01*
X517462Y256471D01*
X518326Y256969D01*
X519031Y257675D01*
X519529Y258538D01*
X519787Y259501D01*
Y260499D01*
X519529Y261462D01*
X519031Y262326D01*
X518905Y262451D01*
X519078Y262773D01*
X519362Y262717D01*
X531425D01*
X531425Y262717D01*
X531886Y262809D01*
X532277Y263070D01*
X533735Y264528D01*
X534392D01*
X535115Y264827D01*
X535669Y265381D01*
X535968Y266105D01*
Y266888D01*
X535669Y267611D01*
X535115Y268165D01*
X534392Y268465D01*
X533608D01*
X532885Y268165D01*
X532331Y267611D01*
X532031Y266888D01*
Y266231D01*
X531152Y265351D01*
X531043Y265370D01*
X530827Y265764D01*
X530969Y266105D01*
Y266888D01*
X530669Y267611D01*
X530115Y268165D01*
X529392Y268465D01*
X528608D01*
X527885Y268165D01*
X527420Y267700D01*
X524204D01*
X523996Y267700D01*
X523996Y267700D01*
X523996Y267700D01*
X518894D01*
X517122Y269472D01*
X517256Y269796D01*
X541920D01*
X542296Y269420D01*
Y266500D01*
X542296Y266500D01*
X542387Y266039D01*
X542649Y265649D01*
X544148Y264148D01*
X544539Y263887D01*
X545000Y263796D01*
X545000Y263796D01*
X545716D01*
Y261260D01*
X552016D01*
Y268740D01*
X545716D01*
Y266481D01*
X545366Y266336D01*
X544704Y266999D01*
Y269420D01*
X545169Y269885D01*
X545469Y270608D01*
Y271392D01*
X545169Y272115D01*
X544615Y272669D01*
X543892Y272969D01*
X543108D01*
X542385Y272669D01*
X541920Y272204D01*
X515999D01*
X508000Y280203D01*
Y306340D01*
X508323Y306474D01*
X519238Y295560D01*
X519628Y295298D01*
X520089Y295207D01*
X520089Y295207D01*
X531911D01*
X531911Y295207D01*
X532372Y295298D01*
X532762Y295560D01*
X534220Y297017D01*
X534392D01*
X535115Y297317D01*
X535669Y297871D01*
X535968Y298594D01*
Y299377D01*
X535708Y300006D01*
X535871Y300356D01*
X541561D01*
X541561Y300356D01*
X541946Y300433D01*
X542296Y300242D01*
Y299000D01*
X542296Y299000D01*
X542387Y298539D01*
X542649Y298148D01*
X543898Y296899D01*
X543898Y296899D01*
X544289Y296637D01*
X544750Y296546D01*
X544750Y296546D01*
X545716D01*
Y294010D01*
X552016D01*
Y301490D01*
X545716D01*
Y298954D01*
X545249D01*
X544704Y299499D01*
Y301920D01*
X545169Y302385D01*
X545469Y303108D01*
Y303892D01*
X545169Y304615D01*
X544615Y305169D01*
X543892Y305469D01*
X543108D01*
X542385Y305169D01*
X541831Y304615D01*
X541532Y303892D01*
Y303235D01*
X541062Y302765D01*
X518655D01*
X508000Y313420D01*
Y339340D01*
X508323Y339474D01*
X519748Y328049D01*
X520139Y327788D01*
X520599Y327696D01*
X531901D01*
X531901Y327696D01*
X532362Y327788D01*
X532752Y328049D01*
X533651Y328948D01*
X533651Y328948D01*
X533651Y328948D01*
X534210Y329507D01*
X534392D01*
X535115Y329807D01*
X535669Y330360D01*
X535968Y331084D01*
Y331867D01*
X535708Y332496D01*
X535871Y332846D01*
X541302D01*
X541302Y332846D01*
X541762Y332938D01*
X541946Y333060D01*
X542296Y332873D01*
Y331500D01*
X542296Y331500D01*
X542387Y331039D01*
X542649Y330648D01*
X543648Y329648D01*
X543648Y329648D01*
X544039Y329387D01*
X544500Y329296D01*
X545716D01*
Y326760D01*
X552016D01*
Y334240D01*
X545716D01*
Y331704D01*
X544999D01*
X544704Y331999D01*
Y334420D01*
X545169Y334885D01*
X545469Y335608D01*
Y336392D01*
X545169Y337115D01*
X544615Y337669D01*
X543892Y337968D01*
X543108D01*
X542385Y337669D01*
X541831Y337115D01*
X541532Y336392D01*
Y335983D01*
X540803Y335255D01*
X520949D01*
X508000Y348203D01*
Y360477D01*
X513163D01*
X513297Y360154D01*
X512969Y359825D01*
X512471Y358962D01*
X512213Y357999D01*
Y357001D01*
X512471Y356038D01*
X512969Y355174D01*
X513674Y354469D01*
X514538Y353971D01*
X515208Y353791D01*
Y353429D01*
X514456Y353227D01*
X513544Y352701D01*
X512799Y351956D01*
X512273Y351044D01*
X512127Y350500D01*
X516000D01*
X519873D01*
X519727Y351044D01*
X519201Y351956D01*
X518456Y352701D01*
X517544Y353227D01*
X516792Y353429D01*
Y353791D01*
X517462Y353971D01*
X518326Y354469D01*
X519031Y355174D01*
X519529Y356038D01*
X519787Y357001D01*
Y357999D01*
X519529Y358962D01*
X519031Y359825D01*
X518703Y360154D01*
X518837Y360477D01*
X521320D01*
X521649Y360149D01*
X522039Y359887D01*
X522500Y359796D01*
X531500D01*
X531500Y359796D01*
X531961Y359887D01*
X532351Y360149D01*
X534200Y361997D01*
X534392D01*
X535115Y362296D01*
X535669Y362850D01*
X535968Y363574D01*
Y364357D01*
X535669Y365080D01*
X535115Y365634D01*
X534392Y365934D01*
X533608D01*
X532885Y365634D01*
X532331Y365080D01*
X532031Y364357D01*
Y363574D01*
X532131Y363334D01*
X531001Y362204D01*
X530518D01*
X530373Y362554D01*
X530669Y362850D01*
X530969Y363574D01*
Y364357D01*
X530669Y365080D01*
X530115Y365634D01*
X529392Y365934D01*
X528608D01*
X527885Y365634D01*
X527585Y365334D01*
X508000D01*
Y367296D01*
X541920D01*
X542296Y366920D01*
Y364000D01*
X542296Y364000D01*
X542387Y363539D01*
X542649Y363148D01*
X543399Y362399D01*
X543789Y362137D01*
X544250Y362046D01*
X544250Y362046D01*
X545716D01*
Y359510D01*
X552016D01*
Y366990D01*
X545716D01*
Y364454D01*
X544749D01*
X544704Y364499D01*
Y366920D01*
X545169Y367385D01*
X545469Y368108D01*
Y368892D01*
X545169Y369615D01*
X544615Y370169D01*
X543892Y370468D01*
X543108D01*
X542385Y370169D01*
X541920Y369704D01*
X508000D01*
Y393796D01*
X514300D01*
X514393Y393446D01*
X513674Y393031D01*
X512969Y392325D01*
X512471Y391462D01*
X512213Y390499D01*
Y389501D01*
X512471Y388538D01*
X512969Y387674D01*
X513674Y386969D01*
X514538Y386471D01*
X515208Y386291D01*
Y385929D01*
X514456Y385727D01*
X513544Y385201D01*
X512799Y384456D01*
X512273Y383544D01*
X512127Y383000D01*
X516000D01*
X519873D01*
X519727Y383544D01*
X519201Y384456D01*
X518456Y385201D01*
X517544Y385727D01*
X516792Y385929D01*
Y386291D01*
X517462Y386471D01*
X518326Y386969D01*
X519031Y387674D01*
X519529Y388538D01*
X519787Y389501D01*
Y390499D01*
X519529Y391462D01*
X519031Y392325D01*
X518326Y393031D01*
X517607Y393446D01*
X517700Y393796D01*
X520501D01*
X521268Y393029D01*
X521268Y393028D01*
X521659Y392768D01*
X522120Y392676D01*
X522120Y392676D01*
X531880D01*
X531880Y392676D01*
X532341Y392768D01*
X532732Y393028D01*
X534189Y394486D01*
X534392D01*
X535115Y394786D01*
X535669Y395340D01*
X535968Y396063D01*
Y396846D01*
X535669Y397570D01*
X535610Y397629D01*
X535744Y397952D01*
X541156D01*
X541156Y397952D01*
X541446Y398010D01*
X541796Y397774D01*
Y397000D01*
X541796Y397000D01*
X541887Y396539D01*
X542148Y396148D01*
X543148Y395148D01*
X543149Y395148D01*
X543539Y394887D01*
X544000Y394796D01*
X545716D01*
Y392260D01*
X552016D01*
Y399740D01*
X545716D01*
Y397204D01*
X544499D01*
X544204Y397499D01*
Y399420D01*
X544669Y399885D01*
X544969Y400608D01*
Y401392D01*
X544669Y402115D01*
X544115Y402669D01*
X543392Y402969D01*
X542608D01*
X541885Y402669D01*
X541331Y402115D01*
X541032Y401392D01*
Y400735D01*
X540658Y400361D01*
X508000D01*
Y421000D01*
X508310Y421097D01*
X510301D01*
X510301Y421097D01*
X510762Y421189D01*
X511153Y421450D01*
X514852Y425148D01*
X514852Y425148D01*
X515113Y425539D01*
X515204Y426000D01*
Y426217D01*
X517740D01*
Y432516D01*
X510260D01*
Y426217D01*
X512056D01*
X512190Y425893D01*
X509802Y423506D01*
X506278D01*
X506204Y423580D01*
Y424000D01*
X506113Y424461D01*
X505852Y424852D01*
X505852Y424852D01*
X501852Y428852D01*
X501461Y429113D01*
X501000Y429204D01*
X501000Y429204D01*
X475500D01*
Y454296D01*
X587396D01*
Y141744D01*
D02*
G37*
G36*
X503757Y423540D02*
X503331Y423115D01*
X503031Y422392D01*
Y421608D01*
X503163Y421291D01*
X502969Y421000D01*
X501269D01*
X501179Y421350D01*
X501669Y421840D01*
X501968Y422563D01*
Y423347D01*
X501669Y424070D01*
X501115Y424624D01*
X500392Y424923D01*
X499608D01*
X498885Y424624D01*
X498331Y424070D01*
X498032Y423347D01*
Y422689D01*
X497529Y422187D01*
X497267Y421796D01*
X497226Y421584D01*
X496871D01*
X496708Y421934D01*
X496969Y422563D01*
Y423347D01*
X496669Y424070D01*
X496115Y424624D01*
X495392Y424923D01*
X494608D01*
X493885Y424624D01*
X493420Y424159D01*
X475500D01*
Y426796D01*
X500501D01*
X503757Y423540D01*
D02*
G37*
G36*
X434500Y449110D02*
X423153D01*
Y436299D01*
Y423488D01*
X434500D01*
Y397500D01*
X438931D01*
X439065Y397177D01*
X432093Y390204D01*
X426080D01*
X425615Y390669D01*
X424892Y390968D01*
X424108D01*
X423385Y390669D01*
X422831Y390115D01*
X422532Y389392D01*
Y388608D01*
X422831Y387885D01*
X423385Y387331D01*
X424108Y387032D01*
X424892D01*
X425615Y387331D01*
X426080Y387796D01*
X431454D01*
X431588Y387472D01*
X413960Y369844D01*
X413698Y369453D01*
X413607Y368992D01*
X413607Y368992D01*
Y359554D01*
X413283Y359420D01*
X354351Y418352D01*
X353961Y418613D01*
X353500Y418704D01*
X353500Y418704D01*
X324267D01*
Y419673D01*
X316000D01*
Y415539D01*
X324267D01*
Y416296D01*
X353001D01*
X355243Y414054D01*
X355098Y413704D01*
X324267D01*
Y414752D01*
X316000D01*
Y410618D01*
X324267D01*
Y411296D01*
X355001D01*
X357269Y409028D01*
X357135Y408704D01*
X324267D01*
Y409831D01*
X316000D01*
Y405697D01*
X324267D01*
Y406296D01*
X357818D01*
X360086Y404028D01*
X359952Y403704D01*
X324267D01*
Y404909D01*
X316000D01*
Y400776D01*
X324267D01*
Y401296D01*
X360591D01*
X362359Y399528D01*
X362225Y399204D01*
X324267D01*
Y399988D01*
X316000D01*
Y395854D01*
X324267D01*
Y396796D01*
X362864D01*
X365191Y394468D01*
X365057Y394145D01*
X324267D01*
Y395067D01*
X316000D01*
Y390933D01*
X324267D01*
Y391737D01*
X365696D01*
X367905Y389528D01*
X367771Y389204D01*
X324267D01*
Y390146D01*
X316000D01*
Y386012D01*
X324267D01*
Y386796D01*
X368410D01*
X370520Y384685D01*
X370386Y384362D01*
X324267D01*
Y385224D01*
X316000D01*
Y381091D01*
X324267D01*
Y381953D01*
X371025D01*
X373451Y379528D01*
X373317Y379204D01*
X324267D01*
Y380303D01*
X316000D01*
Y376169D01*
X324267D01*
Y376796D01*
X373955D01*
X375724Y375028D01*
X375590Y374704D01*
X324267D01*
Y375382D01*
X316000D01*
Y371248D01*
X324267D01*
Y372296D01*
X376228D01*
X378496Y370028D01*
X378362Y369704D01*
X363000D01*
X362539Y369613D01*
X362148Y369352D01*
X362148Y369352D01*
X338001Y345204D01*
X324267D01*
Y345673D01*
X316000D01*
Y341539D01*
X324267D01*
Y342796D01*
X338500D01*
X338500Y342796D01*
X338796Y342855D01*
X338969Y342532D01*
X336641Y340204D01*
X324267D01*
Y340752D01*
X316000D01*
Y336618D01*
X324267D01*
Y337796D01*
X337140D01*
X337140Y337796D01*
X337600Y337887D01*
X337991Y338148D01*
X360449Y360606D01*
X360745Y360408D01*
X360531Y359892D01*
Y359108D01*
X360831Y358385D01*
X361385Y357831D01*
X362108Y357531D01*
X362892D01*
X363615Y357831D01*
X364080Y358296D01*
X368501D01*
X368796Y358001D01*
Y352009D01*
X368796Y352009D01*
X368887Y351548D01*
X369045Y351312D01*
X369032Y351280D01*
Y350497D01*
X369331Y349773D01*
X369885Y349219D01*
X370318Y349040D01*
X370441Y348856D01*
X371649Y347649D01*
X371649Y347649D01*
X372039Y347387D01*
X372500Y347296D01*
X372500Y347296D01*
X377141D01*
X377221Y346895D01*
X377467Y346527D01*
X377835Y346281D01*
X378032Y346242D01*
Y345273D01*
X377745Y345082D01*
X377517Y344740D01*
X377436Y344337D01*
Y342663D01*
X377517Y342260D01*
X377745Y341918D01*
X378087Y341690D01*
X378099Y341687D01*
Y340087D01*
X378041D01*
Y332713D01*
X378174D01*
Y332122D01*
X378174Y332122D01*
X378265Y331661D01*
X378526Y331271D01*
X379031Y330765D01*
Y330108D01*
X379331Y329385D01*
X379885Y328831D01*
X380608Y328532D01*
X381392D01*
X382115Y328831D01*
X382669Y329385D01*
X382968Y330108D01*
X383296Y330053D01*
Y326227D01*
X383296Y326227D01*
X383387Y325766D01*
X383648Y325376D01*
X397296Y311728D01*
Y287999D01*
X397028Y287731D01*
X396704Y287865D01*
Y310500D01*
X396613Y310961D01*
X396352Y311351D01*
X396352Y311351D01*
X377229Y330474D01*
X376839Y330735D01*
X376567Y330789D01*
X376287Y330960D01*
X376287Y330960D01*
X376287Y330960D01*
X369204D01*
Y333667D01*
X369113Y334128D01*
X368851Y334518D01*
X368518Y334852D01*
X368128Y335113D01*
X367667Y335204D01*
X367667Y335204D01*
X324267D01*
Y335831D01*
X316000D01*
Y331697D01*
X324267D01*
Y332796D01*
X366796D01*
Y330226D01*
X366446Y330039D01*
X366336Y330113D01*
X365875Y330204D01*
X365875Y330204D01*
X324267D01*
Y330909D01*
X316000D01*
Y326776D01*
X324267D01*
Y327796D01*
X365376D01*
X367901Y325271D01*
X367756Y324921D01*
X324267D01*
Y325988D01*
X316000D01*
Y321854D01*
X324267D01*
Y322512D01*
X363400D01*
X363446Y322451D01*
X363365Y321976D01*
X363288Y321925D01*
X361567Y320204D01*
X324267D01*
Y321067D01*
X316000D01*
Y316933D01*
X324267D01*
Y317796D01*
X360310D01*
X360444Y317472D01*
X358176Y315204D01*
X324267D01*
Y316146D01*
X316000D01*
Y312012D01*
X324267D01*
Y312796D01*
X356918D01*
X357052Y312472D01*
X354784Y310204D01*
X324267D01*
Y311224D01*
X316000D01*
Y307091D01*
X324267D01*
Y307796D01*
X353527D01*
X353661Y307472D01*
X351736Y305547D01*
X324267D01*
Y306303D01*
X316000D01*
Y302169D01*
X324267D01*
Y303139D01*
X350479D01*
X350612Y302816D01*
X348501Y300704D01*
X324267D01*
Y301382D01*
X316000D01*
Y297248D01*
X324267D01*
Y298296D01*
X349000D01*
X349000Y298296D01*
X349461Y298387D01*
X349851Y298649D01*
X363198Y311995D01*
X368913D01*
Y308600D01*
Y305236D01*
X363032D01*
X363032Y305236D01*
X362571Y305144D01*
X362180Y304883D01*
X357265Y299969D01*
X356608D01*
X355885Y299669D01*
X355331Y299115D01*
X355031Y298392D01*
Y297608D01*
X355331Y296885D01*
X355885Y296331D01*
X356608Y296031D01*
X357392D01*
X358115Y296331D01*
X358669Y296885D01*
X358968Y297608D01*
Y298265D01*
X360583Y299880D01*
X360933Y299735D01*
Y298445D01*
X363000D01*
Y300020D01*
X361218D01*
X361073Y300370D01*
X363530Y302827D01*
X368913D01*
Y300726D01*
Y295739D01*
X368700D01*
Y295189D01*
X368912D01*
Y294820D01*
X372600D01*
Y293558D01*
X368912D01*
Y293189D01*
X368700D01*
Y292639D01*
X368913D01*
Y289285D01*
X368563Y289141D01*
X367329Y290374D01*
X366938Y290635D01*
X366854Y290652D01*
Y292917D01*
X361146D01*
Y288193D01*
X366104D01*
X368677Y285620D01*
X368700Y285605D01*
Y283582D01*
X361849D01*
X358890Y286541D01*
Y287467D01*
X358810Y287870D01*
X358582Y288212D01*
Y288533D01*
X358735Y288635D01*
X359010Y289047D01*
X359055Y289272D01*
X357000D01*
Y290272D01*
X356000D01*
Y292248D01*
X355677Y292184D01*
X355554Y292101D01*
X355204Y292288D01*
Y293667D01*
X355204Y293667D01*
X355113Y294128D01*
X354852Y294518D01*
X353239Y296131D01*
X352848Y296392D01*
X352387Y296484D01*
X352387Y296484D01*
X322780D01*
X322779Y296484D01*
X322663Y296461D01*
X316000D01*
Y292327D01*
X324267D01*
Y294075D01*
X351888D01*
X352796Y293168D01*
Y289630D01*
X352796Y289630D01*
X352887Y289169D01*
X353149Y288778D01*
X355110Y286817D01*
Y285990D01*
X355190Y285587D01*
X355418Y285245D01*
X355760Y285017D01*
X356163Y284936D01*
X357089D01*
X359998Y282028D01*
X359864Y281704D01*
X356000D01*
X356000Y281704D01*
X355539Y281613D01*
X355149Y281351D01*
X353648Y279852D01*
X353387Y279461D01*
X353296Y279000D01*
X353296Y279000D01*
Y277580D01*
X352831Y277115D01*
X352532Y276392D01*
Y275608D01*
X352831Y274885D01*
X353385Y274331D01*
X354108Y274031D01*
X354892D01*
X355615Y274331D01*
X356169Y274885D01*
X356469Y275608D01*
Y276392D01*
X356169Y277115D01*
X355704Y277580D01*
Y278501D01*
X356499Y279296D01*
X376620D01*
X376907Y278946D01*
X376880Y278808D01*
X376880Y278808D01*
Y278083D01*
X376001Y277204D01*
X360574D01*
X360113Y277113D01*
X359722Y276852D01*
X359722Y276852D01*
X358683Y275813D01*
X358493D01*
X357770Y275513D01*
X357216Y274959D01*
X356916Y274236D01*
Y273452D01*
X357216Y272729D01*
X357770Y272175D01*
X358493Y271876D01*
X359276D01*
X360000Y272175D01*
X360554Y272729D01*
X360853Y273452D01*
Y274236D01*
X360753Y274477D01*
X361073Y274796D01*
X376500D01*
X376500Y274796D01*
X376961Y274887D01*
X377351Y275149D01*
X377717Y275514D01*
X378041Y275380D01*
Y271913D01*
X391953D01*
Y270656D01*
X391266Y269969D01*
X390608D01*
X389885Y269669D01*
X389331Y269115D01*
X389032Y268392D01*
Y267608D01*
X389331Y266885D01*
X389885Y266331D01*
X390608Y266032D01*
X391392D01*
X392115Y266331D01*
X392669Y266885D01*
X392969Y267608D01*
Y268266D01*
X393598Y268895D01*
X393922Y268761D01*
Y266355D01*
X391035Y263469D01*
X390608D01*
X389885Y263169D01*
X389331Y262615D01*
X389032Y261892D01*
Y261108D01*
X389331Y260385D01*
X389885Y259831D01*
X390608Y259531D01*
X390553Y259204D01*
X360499D01*
X342592Y277111D01*
X342201Y277372D01*
X341740Y277464D01*
X341740Y277464D01*
X335624D01*
X335582Y277527D01*
X335240Y277755D01*
X334837Y277835D01*
X333163D01*
X332760Y277755D01*
X332418Y277527D01*
X332232Y277248D01*
X327237D01*
Y279097D01*
X322984D01*
X322961Y279113D01*
X322500Y279204D01*
X322039Y279113D01*
X322016Y279097D01*
X317763D01*
Y273422D01*
X326796D01*
Y261790D01*
X323500D01*
Y258740D01*
Y255690D01*
X325757D01*
X325891Y255367D01*
X325719Y255195D01*
X325458Y254804D01*
X325367Y254343D01*
X325367Y254343D01*
Y248469D01*
X325017Y248423D01*
X324958Y248640D01*
X324399Y249608D01*
X323608Y250399D01*
X322640Y250958D01*
X322000Y251130D01*
Y247000D01*
Y242870D01*
X322640Y243041D01*
X323608Y243601D01*
X324399Y244392D01*
X324958Y245360D01*
X325017Y245577D01*
X325367Y245531D01*
Y237648D01*
X325017Y237601D01*
X324760Y238558D01*
X324229Y239478D01*
X323478Y240229D01*
X322558Y240760D01*
X321531Y241035D01*
X320469D01*
X319442Y240760D01*
X318522Y240229D01*
X317771Y239478D01*
X317240Y238558D01*
X316965Y237531D01*
Y236469D01*
X317240Y235442D01*
X317423Y235126D01*
X315719Y233422D01*
X315458Y233032D01*
X315367Y232571D01*
X315367Y232571D01*
Y218429D01*
X315367Y218429D01*
X315458Y217968D01*
X315719Y217578D01*
X324031Y209265D01*
Y208608D01*
X324331Y207885D01*
X324885Y207331D01*
X325608Y207031D01*
X326392D01*
X327115Y207331D01*
X327669Y207885D01*
X327969Y208608D01*
Y209392D01*
X327669Y210115D01*
X327115Y210669D01*
X326392Y210968D01*
X325734D01*
X317775Y218928D01*
Y224061D01*
X318098Y224195D01*
X318522Y223771D01*
X319442Y223240D01*
X320469Y222965D01*
X321531D01*
X322558Y223240D01*
X323478Y223771D01*
X324229Y224522D01*
X324760Y225442D01*
X325035Y226469D01*
Y227531D01*
X324760Y228558D01*
X324577Y228874D01*
X327422Y231719D01*
X327683Y232110D01*
X327775Y232571D01*
X327775Y232571D01*
Y234061D01*
X328099Y234195D01*
X328522Y233771D01*
X329442Y233240D01*
X330469Y232965D01*
X331531D01*
X332558Y233240D01*
X333478Y233771D01*
X334229Y234522D01*
X334760Y235442D01*
X335035Y236469D01*
Y237531D01*
X334760Y238558D01*
X334229Y239478D01*
X333478Y240229D01*
X332558Y240760D01*
X331531Y241035D01*
X330469D01*
X329442Y240760D01*
X328522Y240229D01*
X328099Y239805D01*
X327775Y239939D01*
Y244061D01*
X328099Y244195D01*
X328522Y243771D01*
X329442Y243240D01*
X330469Y242965D01*
X331531D01*
X332558Y243240D01*
X333478Y243771D01*
X334229Y244522D01*
X334760Y245442D01*
X335035Y246469D01*
Y247531D01*
X334760Y248558D01*
X334229Y249478D01*
X333478Y250229D01*
X332558Y250760D01*
X331531Y251035D01*
X330469D01*
X329442Y250760D01*
X328522Y250229D01*
X328099Y249805D01*
X327775Y249939D01*
Y253844D01*
X328852Y254921D01*
X328852Y254921D01*
X329113Y255311D01*
X329204Y255772D01*
X329204Y255772D01*
Y274839D01*
X332232D01*
X332418Y274560D01*
Y274239D01*
X332265Y274136D01*
X331990Y273724D01*
X331945Y273500D01*
X334000D01*
X336055D01*
X336010Y273724D01*
X335735Y274136D01*
X335582Y274239D01*
Y274560D01*
X335810Y274902D01*
X335841Y275056D01*
X341241D01*
X359149Y257149D01*
X359149Y257149D01*
X359539Y256887D01*
X360000Y256796D01*
X364397D01*
X364465Y256713D01*
Y246476D01*
X364557Y246016D01*
X364818Y245625D01*
X365209Y245364D01*
X365669Y245272D01*
X367840D01*
X367974Y244949D01*
X362730Y239704D01*
X361951D01*
Y241398D01*
X361863Y241843D01*
X361611Y242221D01*
X361233Y242473D01*
X360787Y242562D01*
X359134D01*
X358688Y242473D01*
X358311Y242221D01*
X358058Y241843D01*
X357970Y241398D01*
Y235413D01*
X358058Y234968D01*
X358311Y234590D01*
X358688Y234338D01*
X359134Y234249D01*
X360787D01*
X361233Y234338D01*
X361611Y234590D01*
X361863Y234968D01*
X361951Y235413D01*
Y237296D01*
X363228D01*
X363228Y237296D01*
X363689Y237387D01*
X364080Y237649D01*
X378541Y252110D01*
X379467D01*
X379870Y252190D01*
X380212Y252418D01*
X380290Y252535D01*
X380711D01*
X380788Y252418D01*
X381130Y252190D01*
X381534Y252110D01*
X383010D01*
X383413Y252190D01*
X383755Y252418D01*
X383983Y252760D01*
X383990Y252796D01*
X389075D01*
X390722Y251149D01*
X390722Y251149D01*
X390863Y251054D01*
X390757Y250704D01*
X381130D01*
X380669Y250613D01*
X380278Y250352D01*
X380278Y250352D01*
X378817Y248890D01*
X377990D01*
X377587Y248810D01*
X377245Y248582D01*
X377017Y248240D01*
X376937Y247837D01*
Y246813D01*
X359149Y229025D01*
X358887Y228634D01*
X358796Y228173D01*
X358796Y228173D01*
Y211995D01*
X358688Y211973D01*
X358311Y211721D01*
X358058Y211343D01*
X357970Y210898D01*
Y204913D01*
X358058Y204468D01*
X358311Y204090D01*
X358688Y203838D01*
X359134Y203749D01*
X360787D01*
X361233Y203838D01*
X361611Y204090D01*
X361863Y204468D01*
X361951Y204913D01*
Y210898D01*
X361863Y211343D01*
X361611Y211721D01*
X361233Y211973D01*
X361204Y211979D01*
Y227674D01*
X378640Y245110D01*
X379467D01*
X379870Y245190D01*
X380212Y245418D01*
X380290Y245535D01*
X380711D01*
X380788Y245418D01*
X381130Y245190D01*
X381534Y245110D01*
X383010D01*
X383413Y245190D01*
X383755Y245418D01*
X383840Y245546D01*
X385265D01*
X385331Y245385D01*
X385885Y244831D01*
X386608Y244531D01*
X387392D01*
X388115Y244831D01*
X388669Y245385D01*
X388968Y246108D01*
Y246892D01*
X388669Y247615D01*
X388338Y247946D01*
X388483Y248296D01*
X402098D01*
X402243Y247946D01*
X398001Y243704D01*
X381130D01*
X380669Y243613D01*
X380278Y243352D01*
X380278Y243352D01*
X378817Y241890D01*
X377990D01*
X377587Y241810D01*
X377245Y241582D01*
X377017Y241240D01*
X376937Y240837D01*
Y239813D01*
X370148Y233025D01*
X369887Y232634D01*
X369796Y232173D01*
X369796Y232173D01*
Y227401D01*
X369446Y227214D01*
X369280Y227325D01*
X368819Y227417D01*
X365669D01*
X365209Y227325D01*
X364818Y227064D01*
X364557Y226673D01*
X364465Y226213D01*
Y215976D01*
X364557Y215515D01*
X364818Y215125D01*
X365209Y214864D01*
X365669Y214772D01*
X368819D01*
X369280Y214864D01*
X369446Y214975D01*
X369796Y214788D01*
Y209499D01*
X359149Y198852D01*
X358887Y198461D01*
X358796Y198000D01*
X358796Y198000D01*
Y181245D01*
X358688Y181223D01*
X358311Y180971D01*
X358058Y180593D01*
X357970Y180148D01*
Y174163D01*
X358058Y173718D01*
X358311Y173340D01*
X358688Y173088D01*
X359134Y172999D01*
X360787D01*
X361233Y173088D01*
X361611Y173340D01*
X361863Y173718D01*
X361951Y174163D01*
Y180148D01*
X361863Y180593D01*
X361611Y180971D01*
X361233Y181223D01*
X361204Y181229D01*
Y197501D01*
X371851Y208149D01*
X371946Y208290D01*
X372296Y208183D01*
Y181499D01*
X359149Y168351D01*
X358887Y167961D01*
X358796Y167500D01*
X358796Y167500D01*
Y150495D01*
X358688Y150473D01*
X358311Y150221D01*
X358058Y149843D01*
X357970Y149398D01*
Y143413D01*
X358058Y142968D01*
X358311Y142590D01*
X358688Y142338D01*
X359134Y142249D01*
X360787D01*
X361233Y142338D01*
X361611Y142590D01*
X361863Y142968D01*
X361951Y143413D01*
Y149398D01*
X361863Y149843D01*
X361611Y150221D01*
X361233Y150473D01*
X361204Y150479D01*
Y167001D01*
X374352Y180148D01*
X374352Y180148D01*
X374613Y180539D01*
X374704Y181000D01*
Y227273D01*
X378541Y231110D01*
X379467D01*
X379870Y231190D01*
X380212Y231418D01*
X380290Y231535D01*
X380711D01*
X380788Y231418D01*
X381130Y231190D01*
X381534Y231110D01*
X383010D01*
X383413Y231190D01*
X383755Y231418D01*
X383983Y231760D01*
X384035Y232022D01*
X384647D01*
X384885Y231784D01*
X385608Y231484D01*
X386392D01*
X387115Y231784D01*
X387669Y232338D01*
X387968Y233061D01*
Y233844D01*
X387669Y234568D01*
X387662Y234575D01*
X387796Y234898D01*
X395064D01*
X395198Y234575D01*
X391109Y230485D01*
X390848Y230095D01*
X390756Y229634D01*
X390756Y229634D01*
Y211987D01*
X390688Y211973D01*
X390311Y211721D01*
X390058Y211343D01*
X389970Y210898D01*
Y204913D01*
X390058Y204468D01*
X390311Y204090D01*
X390688Y203838D01*
X391134Y203749D01*
X392787D01*
X393233Y203838D01*
X393446Y203980D01*
X393796Y203793D01*
Y182859D01*
X392248Y181312D01*
X391134D01*
X390688Y181223D01*
X390311Y180971D01*
X390058Y180593D01*
X389970Y180148D01*
Y174163D01*
X390058Y173718D01*
X390311Y173340D01*
X390688Y173088D01*
X391134Y172999D01*
X392787D01*
X393233Y173088D01*
X393611Y173340D01*
X393863Y173718D01*
X393952Y174163D01*
Y179609D01*
X395851Y181509D01*
X395851Y181509D01*
X396113Y181899D01*
X396204Y182360D01*
Y184744D01*
X396554Y184778D01*
X396557Y184766D01*
X396818Y184375D01*
X397208Y184114D01*
X397669Y184022D01*
X400819D01*
X401280Y184114D01*
X401670Y184375D01*
X401931Y184766D01*
X402023Y185226D01*
Y195463D01*
X401931Y195923D01*
X401670Y196314D01*
X401280Y196575D01*
X400819Y196667D01*
X397669D01*
X397208Y196575D01*
X396818Y196314D01*
X396557Y195923D01*
X396554Y195911D01*
X396204Y195945D01*
Y204501D01*
X405194Y213491D01*
X405455Y213882D01*
X405547Y214342D01*
X405547Y214343D01*
Y234517D01*
X408698Y237668D01*
X408990Y237610D01*
X410466D01*
X410870Y237690D01*
X411212Y237918D01*
X411290Y238035D01*
X411711D01*
X411788Y237918D01*
X412130Y237690D01*
X412534Y237610D01*
X414010D01*
X414413Y237690D01*
X414755Y237918D01*
X414983Y238260D01*
X414990Y238296D01*
X415879D01*
X415879Y238296D01*
X416340Y238387D01*
X416576Y238545D01*
X416608Y238531D01*
X417392D01*
X418115Y238831D01*
X418669Y239385D01*
X418968Y240108D01*
Y240892D01*
X418669Y241615D01*
X418115Y242169D01*
X417392Y242469D01*
X416608D01*
X415885Y242169D01*
X415331Y241615D01*
X415135Y241142D01*
X414763Y241083D01*
X414737Y241094D01*
X414413Y241310D01*
X414010Y241390D01*
X413681D01*
X413547Y241714D01*
X423351Y251519D01*
X423613Y251909D01*
X423704Y252370D01*
Y255787D01*
X434549Y266631D01*
X434871Y266459D01*
X434859Y266396D01*
X434859Y266396D01*
Y244562D01*
X427501Y237204D01*
X412130D01*
X411669Y237113D01*
X411278Y236852D01*
X411278Y236852D01*
X409817Y235390D01*
X408990D01*
X408587Y235310D01*
X408245Y235082D01*
X408017Y234740D01*
X407936Y234337D01*
Y232663D01*
X408017Y232260D01*
X408245Y231918D01*
X408524Y231732D01*
Y183227D01*
X391109Y165812D01*
X390848Y165421D01*
X390756Y164961D01*
X390756Y164961D01*
Y150487D01*
X390688Y150473D01*
X390311Y150221D01*
X390058Y149843D01*
X389970Y149398D01*
Y143413D01*
X390058Y142968D01*
X390311Y142590D01*
X390688Y142338D01*
X391134Y142249D01*
X392787D01*
X393233Y142338D01*
X393611Y142590D01*
X393863Y142968D01*
X393952Y143413D01*
Y149398D01*
X393863Y149843D01*
X393611Y150221D01*
X393233Y150473D01*
X393165Y150487D01*
Y164462D01*
X410580Y181877D01*
X410580Y181877D01*
X410841Y182267D01*
X410933Y182728D01*
X410933Y182728D01*
Y231732D01*
X411212Y231918D01*
X411290Y232035D01*
X411711D01*
X411788Y231918D01*
X412130Y231690D01*
X412534Y231610D01*
X414010D01*
X414413Y231690D01*
X414755Y231918D01*
X414840Y232046D01*
X416265D01*
X416331Y231885D01*
X416885Y231331D01*
X417608Y231031D01*
X418392D01*
X419115Y231331D01*
X419669Y231885D01*
X419969Y232608D01*
Y233392D01*
X419669Y234115D01*
X419338Y234446D01*
X419483Y234796D01*
X428000D01*
X428000Y234796D01*
X428461Y234887D01*
X428852Y235149D01*
X429972Y236269D01*
X430296Y236135D01*
Y230499D01*
X428149Y228351D01*
X427887Y227961D01*
X427796Y227500D01*
X427796Y227500D01*
Y213109D01*
X426748Y212062D01*
X425634D01*
X425188Y211973D01*
X424811Y211721D01*
X424558Y211343D01*
X424470Y210898D01*
Y204913D01*
X424558Y204468D01*
X424811Y204090D01*
X425188Y203838D01*
X425634Y203749D01*
X427287D01*
X427733Y203838D01*
X428111Y204090D01*
X428363Y204468D01*
X428451Y204913D01*
Y210359D01*
X429851Y211759D01*
X429851Y211759D01*
X430113Y212149D01*
X430204Y212610D01*
X430204Y212610D01*
Y227001D01*
X432351Y229149D01*
X432351Y229149D01*
X432613Y229539D01*
X432638Y229664D01*
X433017Y229780D01*
X435030Y227767D01*
X434885Y227417D01*
X432169D01*
X431708Y227325D01*
X431318Y227064D01*
X431057Y226673D01*
X430965Y226213D01*
Y215976D01*
X431057Y215515D01*
X431318Y215125D01*
X431708Y214864D01*
X432169Y214772D01*
X435319D01*
X435780Y214864D01*
X435946Y214975D01*
X436296Y214788D01*
Y207499D01*
X425609Y196812D01*
X425348Y196422D01*
X425256Y195961D01*
X425256Y195961D01*
Y181237D01*
X425188Y181223D01*
X424811Y180971D01*
X424558Y180593D01*
X424470Y180148D01*
Y174163D01*
X424558Y173718D01*
X424811Y173340D01*
X425188Y173088D01*
X425634Y172999D01*
X427287D01*
X427733Y173088D01*
X428111Y173340D01*
X428363Y173718D01*
X428451Y174163D01*
Y180148D01*
X428363Y180593D01*
X428111Y180971D01*
X427733Y181223D01*
X427665Y181237D01*
Y195462D01*
X438351Y206149D01*
X438351Y206149D01*
X438446Y206290D01*
X438796Y206183D01*
Y181999D01*
X425609Y168812D01*
X425348Y168421D01*
X425256Y167961D01*
X425256Y167961D01*
Y150487D01*
X425188Y150473D01*
X424811Y150221D01*
X424558Y149843D01*
X424470Y149398D01*
Y143413D01*
X424558Y142968D01*
X424811Y142590D01*
X425188Y142338D01*
X425634Y142249D01*
X427287D01*
X427733Y142338D01*
X428111Y142590D01*
X428363Y142968D01*
X428451Y143413D01*
Y149398D01*
X428363Y149843D01*
X428111Y150221D01*
X427733Y150473D01*
X427665Y150487D01*
Y167462D01*
X440851Y180649D01*
X440851Y180649D01*
X441113Y181039D01*
X441204Y181500D01*
X441204Y181500D01*
Y230500D01*
X441539Y230610D01*
X442194D01*
X442494Y230409D01*
Y229278D01*
X442331Y229115D01*
X442031Y228392D01*
Y227608D01*
X442331Y226885D01*
X442885Y226331D01*
X443608Y226031D01*
X444392D01*
X445115Y226331D01*
X445669Y226885D01*
X445968Y227608D01*
Y228392D01*
X445669Y229115D01*
X445115Y229669D01*
X444903Y229757D01*
Y231474D01*
X444811Y231935D01*
X444550Y232326D01*
X444160Y232587D01*
X443699Y232679D01*
X443564D01*
Y233169D01*
X443787Y233214D01*
X444178Y233475D01*
X446363Y235660D01*
X446363Y235660D01*
X446624Y236051D01*
X446716Y236512D01*
Y289805D01*
X447039Y289939D01*
X447500Y289478D01*
Y141744D01*
X422707D01*
X422673Y142094D01*
X422895Y142138D01*
X423343Y142437D01*
X423642Y142885D01*
X423747Y143413D01*
Y145405D01*
X419332D01*
Y143413D01*
X419437Y142885D01*
X419736Y142437D01*
X420184Y142138D01*
X420406Y142094D01*
X420371Y141744D01*
X388208D01*
X388173Y142094D01*
X388395Y142138D01*
X388843Y142437D01*
X389142Y142885D01*
X389247Y143413D01*
Y145405D01*
X384832D01*
Y143413D01*
X384937Y142885D01*
X385236Y142437D01*
X385684Y142138D01*
X385906Y142094D01*
X385871Y141744D01*
X356207D01*
X356173Y142094D01*
X356395Y142138D01*
X356843Y142437D01*
X357142Y142885D01*
X357247Y143413D01*
Y145405D01*
X352832D01*
Y143413D01*
X352937Y142885D01*
X353236Y142437D01*
X353684Y142138D01*
X353906Y142094D01*
X353871Y141744D01*
X314212D01*
X314204Y454048D01*
X314452Y454296D01*
X434500D01*
Y449110D01*
D02*
G37*
G36*
X447500Y397261D02*
Y381704D01*
X437080D01*
X436615Y382169D01*
X435892Y382469D01*
X435108D01*
X434385Y382169D01*
X433831Y381615D01*
X433532Y380892D01*
Y380108D01*
X433831Y379385D01*
X434385Y378831D01*
X435108Y378532D01*
X435892D01*
X436615Y378831D01*
X437080Y379296D01*
X440635D01*
X440769Y378972D01*
X418334Y356537D01*
X417984Y356682D01*
Y368235D01*
X447150Y397401D01*
X447500Y397261D01*
D02*
G37*
G36*
Y369704D02*
X446080D01*
X445615Y370169D01*
X444892Y370468D01*
X444108D01*
X443385Y370169D01*
X442831Y369615D01*
X442531Y368892D01*
Y368108D01*
X442831Y367385D01*
X443385Y366831D01*
X444108Y366531D01*
X444892D01*
X445615Y366831D01*
X446080Y367296D01*
X447500D01*
Y365334D01*
X433495D01*
X433361Y365657D01*
X442999Y375296D01*
X447500D01*
Y369704D01*
D02*
G37*
G36*
Y354204D02*
X440580D01*
X440115Y354669D01*
X439392Y354969D01*
X438608D01*
X437885Y354669D01*
X437331Y354115D01*
X437032Y353392D01*
Y352608D01*
X437331Y351885D01*
X437885Y351331D01*
X438608Y351031D01*
X438553Y350704D01*
X435000D01*
X434539Y350613D01*
X434149Y350352D01*
X426337Y342541D01*
X426014Y342674D01*
Y353811D01*
X432680Y360477D01*
X447500D01*
Y354204D01*
D02*
G37*
G36*
X391797Y354500D02*
Y347277D01*
X391474Y347143D01*
X375690Y362926D01*
X375299Y363187D01*
X374838Y363279D01*
X374838Y363279D01*
X360214D01*
X360214Y363279D01*
X359918Y363220D01*
X359746Y363543D01*
X363499Y367296D01*
X379001D01*
X391797Y354500D01*
D02*
G37*
G36*
X383878Y351332D02*
X383708Y351008D01*
X383264Y350919D01*
X382826Y350626D01*
X382533Y350188D01*
X382430Y349671D01*
Y349500D01*
X384756D01*
Y348500D01*
X385756D01*
Y345983D01*
X386248Y346081D01*
X386686Y346374D01*
X386979Y346812D01*
X387082Y347329D01*
Y347671D01*
X387405Y347805D01*
X389985Y345226D01*
Y340087D01*
X382896D01*
Y340300D01*
X380507D01*
Y341782D01*
X380712Y341918D01*
X381033D01*
X381135Y341765D01*
X381547Y341490D01*
X381772Y341445D01*
Y343500D01*
Y345555D01*
X381547Y345510D01*
X381135Y345235D01*
X381033Y345082D01*
X380712D01*
X380440Y345263D01*
Y346239D01*
X380653Y346281D01*
X381021Y346527D01*
X381267Y346895D01*
X381353Y347329D01*
Y349671D01*
X381267Y350105D01*
X381021Y350473D01*
X380653Y350719D01*
X380219Y350805D01*
X378269D01*
X377835Y350719D01*
X377467Y350473D01*
X377221Y350105D01*
X377141Y349704D01*
X372999D01*
X372745Y349958D01*
X372969Y350497D01*
Y351280D01*
X372669Y352003D01*
X372115Y352557D01*
X371392Y352857D01*
X371204D01*
Y358500D01*
X371113Y358961D01*
X370851Y359351D01*
X370851Y359351D01*
X369851Y360351D01*
X369599Y360521D01*
X369705Y360871D01*
X374340D01*
X383878Y351332D01*
D02*
G37*
G36*
X442269Y347972D02*
X436630Y342333D01*
X436369Y341942D01*
X436277Y341481D01*
X436277Y341481D01*
Y330960D01*
X429713D01*
Y330826D01*
X425622D01*
X425622Y330826D01*
X425161Y330735D01*
X424770Y330474D01*
X420648Y326351D01*
X420387Y325961D01*
X420296Y325500D01*
X420296Y325500D01*
Y324438D01*
X420062Y324204D01*
X418499D01*
X414468Y328235D01*
Y328892D01*
X414169Y329615D01*
X413615Y330169D01*
X412892Y330469D01*
X412108D01*
X411385Y330169D01*
X410831Y329615D01*
X410532Y328892D01*
Y328108D01*
X410831Y327385D01*
X411385Y326831D01*
X412108Y326532D01*
X412765D01*
X417148Y322148D01*
X417148Y322148D01*
X417539Y321887D01*
X418000Y321796D01*
X419920D01*
X420456Y321260D01*
X421179Y320961D01*
X421836D01*
X422966Y319831D01*
Y318909D01*
X422502Y318445D01*
X422202Y317721D01*
Y316938D01*
X422502Y316215D01*
X423055Y315661D01*
X423779Y315361D01*
X424163D01*
X424308Y315011D01*
X400028Y290731D01*
X399704Y290865D01*
Y312227D01*
X399704Y312227D01*
X399613Y312688D01*
X399352Y313079D01*
X385704Y326726D01*
Y328264D01*
X385952Y328355D01*
X386054Y328364D01*
X386587Y327831D01*
X387310Y327532D01*
X388093D01*
X388817Y327831D01*
X389371Y328385D01*
X389670Y329108D01*
Y329631D01*
X390020Y329777D01*
X393296Y326501D01*
Y325580D01*
X392831Y325115D01*
X392531Y324392D01*
Y323608D01*
X392831Y322885D01*
X393385Y322331D01*
X394108Y322031D01*
X394892D01*
X395615Y322331D01*
X396169Y322885D01*
X396468Y323608D01*
Y324392D01*
X396169Y325115D01*
X395704Y325580D01*
Y327000D01*
X395613Y327461D01*
X395352Y327852D01*
X395352Y327852D01*
X390814Y332389D01*
X390948Y332713D01*
X427959D01*
Y340087D01*
X427826D01*
Y340623D01*
X435499Y348296D01*
X442135D01*
X442269Y347972D01*
D02*
G37*
G36*
X429500Y326527D02*
X429159Y326299D01*
X428467Y325607D01*
X428206Y325217D01*
X428115Y324756D01*
X428115Y324756D01*
Y318818D01*
X426489Y317192D01*
X426139Y317337D01*
Y317721D01*
X425839Y318445D01*
X425375Y318909D01*
Y320330D01*
X425375Y320330D01*
X425283Y320791D01*
X425022Y321181D01*
X423539Y322664D01*
Y323321D01*
X423240Y324044D01*
X422704Y324580D01*
Y325001D01*
X426121Y328418D01*
X429500D01*
Y326527D01*
D02*
G37*
G36*
X394296Y310001D02*
Y287499D01*
X391639Y284842D01*
X381779D01*
X381739Y284834D01*
X381469Y285056D01*
Y285392D01*
X381169Y286115D01*
X380838Y286446D01*
X380983Y286796D01*
X387420D01*
X387885Y286331D01*
X388608Y286032D01*
X389392D01*
X390115Y286331D01*
X390669Y286885D01*
X390968Y287608D01*
Y288392D01*
X390669Y289115D01*
X390115Y289669D01*
X389392Y289968D01*
X388608D01*
X387885Y289669D01*
X387420Y289204D01*
X383483D01*
X383338Y289554D01*
X383669Y289885D01*
X383968Y290608D01*
Y291392D01*
X383669Y292115D01*
X383115Y292669D01*
X382392Y292969D01*
X381608D01*
X380885Y292669D01*
X380420Y292204D01*
X379718D01*
X378850Y293072D01*
X378459Y293333D01*
X378369Y293351D01*
X378433Y293693D01*
X385954D01*
X385966Y293666D01*
X386520Y293112D01*
X387243Y292812D01*
X388026D01*
X388750Y293112D01*
X389303Y293666D01*
X389603Y294389D01*
Y295172D01*
X389303Y295896D01*
X388750Y296450D01*
X388026Y296749D01*
X387243D01*
X386520Y296450D01*
X386172Y296102D01*
X381371D01*
X381208Y296452D01*
X381469Y297081D01*
Y297864D01*
X381208Y298493D01*
X381371Y298843D01*
X386873D01*
X387385Y298331D01*
X388108Y298031D01*
X388892D01*
X389615Y298331D01*
X390169Y298885D01*
X390469Y299608D01*
Y300392D01*
X390169Y301115D01*
X389615Y301669D01*
X388892Y301969D01*
X388108D01*
X387385Y301669D01*
X386968Y301252D01*
X381530D01*
X381385Y301602D01*
X381669Y301885D01*
X381968Y302608D01*
Y303392D01*
X381669Y304115D01*
X381338Y304446D01*
X381483Y304796D01*
X387661D01*
X387831Y304385D01*
X388385Y303831D01*
X389108Y303532D01*
X389892D01*
X390615Y303831D01*
X391169Y304385D01*
X391469Y305108D01*
Y305892D01*
X391169Y306615D01*
X390615Y307169D01*
X389892Y307469D01*
X389108D01*
X389020Y307792D01*
X389115Y307831D01*
X389669Y308385D01*
X389968Y309108D01*
Y309892D01*
X389669Y310615D01*
X389115Y311169D01*
X388392Y311469D01*
X387608D01*
X386885Y311169D01*
X386331Y310615D01*
X386032Y309892D01*
Y309235D01*
X385970Y309173D01*
X381833D01*
X381699Y309496D01*
X382734Y310531D01*
X383392D01*
X384115Y310831D01*
X384669Y311385D01*
X384968Y312108D01*
Y312892D01*
X384669Y313615D01*
X384115Y314169D01*
X383392Y314469D01*
X382608D01*
X381885Y314169D01*
X381331Y313615D01*
X381031Y312892D01*
X380704Y312947D01*
Y314420D01*
X381169Y314885D01*
X381469Y315608D01*
Y316392D01*
X381169Y317115D01*
X380615Y317669D01*
X379892Y317969D01*
X379108D01*
X378385Y317669D01*
X377831Y317115D01*
X377532Y316392D01*
Y315608D01*
X377831Y314885D01*
X378296Y314420D01*
Y313425D01*
X377980Y313110D01*
X376287D01*
Y316474D01*
Y320411D01*
Y324348D01*
Y327552D01*
X376611Y327686D01*
X394296Y310001D01*
D02*
G37*
G36*
X429713Y311283D02*
Y306631D01*
Y302694D01*
Y298757D01*
Y294820D01*
Y290883D01*
Y287519D01*
X427204D01*
Y295385D01*
X428351Y296533D01*
X428613Y296923D01*
X428704Y297384D01*
X428704Y297384D01*
Y310420D01*
X429169Y310885D01*
X429363Y311353D01*
X429713Y311283D01*
D02*
G37*
G36*
X425372Y312448D02*
X425531Y312333D01*
Y311608D01*
X425831Y310885D01*
X426296Y310420D01*
Y297883D01*
X425148Y296736D01*
X424887Y296345D01*
X424796Y295884D01*
X424796Y295884D01*
Y286499D01*
X424439Y286142D01*
X424208Y286096D01*
X423817Y285835D01*
X423491Y285509D01*
X423230Y285118D01*
X423185Y284891D01*
X422958Y284846D01*
X422567Y284585D01*
X420186Y282204D01*
X411580D01*
X411115Y282669D01*
X410392Y282968D01*
X409608D01*
X408885Y282669D01*
X408420Y282204D01*
X401080D01*
X400615Y282669D01*
X399892Y282968D01*
X399108D01*
X398385Y282669D01*
X397920Y282204D01*
X395365D01*
X395231Y282528D01*
X397779Y285076D01*
X398140Y284942D01*
X398402Y284310D01*
X398956Y283756D01*
X399679Y283457D01*
X400462D01*
X401186Y283756D01*
X401740Y284310D01*
X402039Y285034D01*
Y285817D01*
X401740Y286540D01*
X401204Y287075D01*
Y288501D01*
X425208Y312505D01*
X425372Y312448D01*
D02*
G37*
G36*
X433296Y273999D02*
X411741Y252444D01*
X410605D01*
X410471Y252768D01*
X427317Y269614D01*
X427317Y269614D01*
X427578Y270005D01*
X427670Y270466D01*
Y271913D01*
X427959D01*
Y277868D01*
X428309Y277937D01*
X428331Y277885D01*
X428885Y277331D01*
X429608Y277031D01*
X430392D01*
X431115Y277331D01*
X431669Y277885D01*
X431968Y278608D01*
Y279392D01*
X431669Y280115D01*
X431115Y280669D01*
X431063Y280691D01*
X431132Y281041D01*
X433296D01*
Y273999D01*
D02*
G37*
G36*
X417410Y271912D02*
X417779D01*
Y271700D01*
X418329D01*
Y271913D01*
X420035D01*
X420169Y271589D01*
X406284Y257704D01*
X402865D01*
X402731Y258028D01*
X409351Y264649D01*
X409613Y265039D01*
X409704Y265500D01*
Y268917D01*
X409613Y269377D01*
X409351Y269768D01*
X409351Y269768D01*
X407530Y271589D01*
X407664Y271913D01*
X413261D01*
Y271700D01*
X413811D01*
Y271912D01*
X414180D01*
Y275600D01*
X417410D01*
Y271912D01*
D02*
G37*
G36*
X399812Y270317D02*
X399770Y270276D01*
X399510Y269886D01*
X399418Y269425D01*
X399418Y269425D01*
Y269182D01*
X399385Y269169D01*
X398831Y268615D01*
X398532Y267892D01*
Y267108D01*
X398831Y266385D01*
X399385Y265831D01*
X400108Y265531D01*
X400892D01*
X401615Y265831D01*
X402169Y266385D01*
X402468Y267108D01*
Y267833D01*
X402628Y267948D01*
X402792Y268005D01*
X403031Y267765D01*
Y267108D01*
X403331Y266385D01*
X403885Y265831D01*
X404608Y265531D01*
X405392D01*
X406115Y265831D01*
X406669Y266385D01*
X406968Y267108D01*
X407296Y267054D01*
Y265999D01*
X400501Y259204D01*
X391446D01*
X391392Y259531D01*
X392115Y259831D01*
X392669Y260385D01*
X392969Y261108D01*
Y261892D01*
X392938Y261965D01*
X395977Y265005D01*
X395977Y265005D01*
X396238Y265396D01*
X396330Y265857D01*
X396330Y265857D01*
Y271700D01*
X398644D01*
Y271913D01*
X399812D01*
Y270317D01*
D02*
G37*
G36*
X441001Y269174D02*
Y259704D01*
X437591Y256294D01*
X437267Y256428D01*
Y265898D01*
X440678Y269308D01*
X441001Y269174D01*
D02*
G37*
G36*
X406269Y254972D02*
X402001Y250704D01*
X393983D01*
X393838Y251054D01*
X394169Y251385D01*
X394468Y252108D01*
Y252892D01*
X394169Y253615D01*
X393615Y254169D01*
X392892Y254468D01*
X392108D01*
X391385Y254169D01*
X391247Y254030D01*
X390425Y254852D01*
X390284Y254946D01*
X390390Y255296D01*
X406135D01*
X406269Y254972D01*
D02*
G37*
G36*
X379399Y256472D02*
X378817Y255890D01*
X377990D01*
X377587Y255810D01*
X377245Y255582D01*
X377017Y255240D01*
X376937Y254837D01*
Y253911D01*
X370346Y247321D01*
X370023Y247455D01*
Y256713D01*
X370091Y256796D01*
X379265D01*
X379399Y256472D01*
D02*
G37*
G36*
X406249Y248050D02*
X406272Y247875D01*
X395703Y237307D01*
X387763D01*
X387694Y237657D01*
X388115Y237831D01*
X388669Y238385D01*
X388968Y239108D01*
Y239892D01*
X388669Y240615D01*
X388338Y240946D01*
X388483Y241296D01*
X398500D01*
X398500Y241296D01*
X398961Y241387D01*
X399352Y241649D01*
X405879Y248176D01*
X406249Y248050D01*
D02*
G37*
G36*
X385331Y238385D02*
X385885Y237831D01*
X386306Y237657D01*
X386237Y237307D01*
X381732D01*
X381732Y237307D01*
X381271Y237215D01*
X380881Y236954D01*
X378817Y234890D01*
X377990D01*
X377587Y234810D01*
X377245Y234582D01*
X377017Y234240D01*
X376937Y233837D01*
Y232911D01*
X372649Y228623D01*
X372554Y228482D01*
X372204Y228588D01*
Y231674D01*
X378640Y238110D01*
X379467D01*
X379870Y238190D01*
X380212Y238418D01*
X380290Y238535D01*
X380711D01*
X380788Y238418D01*
X381130Y238190D01*
X381534Y238110D01*
X383010D01*
X383413Y238190D01*
X383755Y238418D01*
X383840Y238546D01*
X385265D01*
X385331Y238385D01*
D02*
G37*
G36*
X407526Y243001D02*
Y242614D01*
X407826Y241891D01*
X408226Y241490D01*
X408245Y241090D01*
X408218Y241041D01*
X408017Y240740D01*
X407936Y240337D01*
Y240313D01*
X403491Y235867D01*
X403230Y235477D01*
X403138Y235016D01*
X403138Y235016D01*
Y214841D01*
X394302Y206005D01*
X393952Y206150D01*
Y210898D01*
X393863Y211343D01*
X393611Y211721D01*
X393233Y211973D01*
X393165Y211987D01*
Y229135D01*
X407176Y243146D01*
X407526Y243001D01*
D02*
G37*
%LPC*%
G36*
X571752Y449404D02*
X569934Y449042D01*
X568176Y448314D01*
X566593Y447257D01*
X565247Y445911D01*
X564190Y444328D01*
X563462Y442570D01*
X563263Y441570D01*
X562913Y441605D01*
Y441742D01*
X562529Y443176D01*
X561787Y444461D01*
X560737Y445511D01*
X559451Y446253D01*
X558018Y446637D01*
X556533D01*
X555100Y446253D01*
X553814Y445511D01*
X552765Y444461D01*
X552218Y443515D01*
X551806Y443502D01*
X551198Y444111D01*
X550312Y444623D01*
X549323Y444887D01*
X548299D01*
X547310Y444623D01*
X546424Y444111D01*
X545700Y443387D01*
X545189Y442500D01*
X544924Y441512D01*
Y440488D01*
X545189Y439500D01*
X545700Y438613D01*
X546424Y437889D01*
X547310Y437378D01*
X548299Y437113D01*
X549323D01*
X550312Y437378D01*
X551198Y437889D01*
X551806Y438498D01*
X552218Y438484D01*
X552765Y437539D01*
X553814Y436489D01*
X555100Y435747D01*
X556533Y435363D01*
X558018D01*
X559451Y435747D01*
X560737Y436489D01*
X561787Y437539D01*
X562529Y438824D01*
X562741Y439614D01*
X563091Y439568D01*
Y438800D01*
X563462Y436934D01*
X564190Y435176D01*
X565247Y433593D01*
X566593Y432247D01*
X568176Y431190D01*
X569934Y430462D01*
X571752Y430100D01*
Y439752D01*
Y449404D01*
D02*
G37*
G36*
X482999Y452287D02*
X482001D01*
X481038Y452029D01*
X480174Y451531D01*
X479469Y450826D01*
X478971Y449962D01*
X478713Y448999D01*
Y448001D01*
X478971Y447038D01*
X479469Y446174D01*
X480174Y445469D01*
X481038Y444971D01*
X481708Y444791D01*
Y444429D01*
X480956Y444227D01*
X480044Y443701D01*
X479299Y442956D01*
X478773Y442044D01*
X478627Y441500D01*
X482500D01*
X486373D01*
X486227Y442044D01*
X485701Y442956D01*
X484956Y443701D01*
X484044Y444227D01*
X483292Y444429D01*
Y444791D01*
X483962Y444971D01*
X484826Y445469D01*
X485531Y446174D01*
X486029Y447038D01*
X486287Y448001D01*
Y448999D01*
X486029Y449962D01*
X485531Y450826D01*
X484826Y451531D01*
X483962Y452029D01*
X482999Y452287D01*
D02*
G37*
G36*
X573752Y449404D02*
Y440752D01*
X582404D01*
X582042Y442570D01*
X581314Y444328D01*
X580257Y445911D01*
X578911Y447257D01*
X577328Y448314D01*
X575570Y449042D01*
X573752Y449404D01*
D02*
G37*
G36*
X517953Y440996D02*
X515000D01*
Y438634D01*
X517953D01*
Y440996D01*
D02*
G37*
G36*
X513000D02*
X510047D01*
Y438634D01*
X513000D01*
Y440996D01*
D02*
G37*
G36*
X529278Y446637D02*
X527793D01*
X526360Y446253D01*
X525074Y445511D01*
X524024Y444461D01*
X523282Y443176D01*
X522898Y441742D01*
Y440258D01*
X523282Y438824D01*
X524024Y437539D01*
X525074Y436489D01*
X526360Y435747D01*
X527793Y435363D01*
X529278D01*
X530711Y435747D01*
X531997Y436489D01*
X533046Y437539D01*
X533593Y438484D01*
X534004Y438498D01*
X534613Y437889D01*
X535499Y437378D01*
X536488Y437113D01*
X537512D01*
X538500Y437378D01*
X539387Y437889D01*
X540111Y438613D01*
X540623Y439500D01*
X540887Y440488D01*
Y441512D01*
X540623Y442500D01*
X540111Y443387D01*
X539387Y444111D01*
X538500Y444623D01*
X537512Y444887D01*
X536488D01*
X535499Y444623D01*
X534613Y444111D01*
X534004Y443502D01*
X533593Y443515D01*
X533046Y444461D01*
X531997Y445511D01*
X530711Y446253D01*
X529278Y446637D01*
D02*
G37*
G36*
X486373Y439500D02*
X483500D01*
Y436627D01*
X484044Y436773D01*
X484956Y437299D01*
X485701Y438044D01*
X486227Y438956D01*
X486373Y439500D01*
D02*
G37*
G36*
X481500D02*
X478627D01*
X478773Y438956D01*
X479299Y438044D01*
X480044Y437299D01*
X480956Y436773D01*
X481500Y436627D01*
Y439500D01*
D02*
G37*
G36*
X517953Y436634D02*
X515000D01*
Y434272D01*
X517953D01*
Y436634D01*
D02*
G37*
G36*
X513000D02*
X510047D01*
Y434272D01*
X513000D01*
Y436634D01*
D02*
G37*
G36*
X582404Y438752D02*
X573752D01*
Y430100D01*
X575570Y430462D01*
X577328Y431190D01*
X578911Y432247D01*
X580257Y433593D01*
X581314Y435176D01*
X582042Y436934D01*
X582404Y438752D01*
D02*
G37*
G36*
X581207Y419137D02*
X579722D01*
X578289Y418753D01*
X577003Y418011D01*
X575953Y416961D01*
X575407Y416015D01*
X574996Y416002D01*
X574387Y416611D01*
X573500Y417122D01*
X572512Y417387D01*
X571488D01*
X570500Y417122D01*
X569613Y416611D01*
X568889Y415887D01*
X568377Y415000D01*
X568113Y414012D01*
Y412988D01*
X568377Y412000D01*
X568889Y411113D01*
X569613Y410389D01*
X570500Y409877D01*
X571488Y409613D01*
X572512D01*
X573500Y409877D01*
X574387Y410389D01*
X574996Y410998D01*
X575407Y410984D01*
X575953Y410039D01*
X577003Y408989D01*
X578289Y408247D01*
X579722Y407863D01*
X581207D01*
X582641Y408247D01*
X583926Y408989D01*
X584976Y410039D01*
X585718Y411324D01*
X586102Y412758D01*
Y414242D01*
X585718Y415676D01*
X584976Y416961D01*
X583926Y418011D01*
X582641Y418753D01*
X581207Y419137D01*
D02*
G37*
G36*
X552467D02*
X550982D01*
X549548Y418753D01*
X548263Y418011D01*
X547213Y416961D01*
X546471Y415676D01*
X546087Y414242D01*
Y412758D01*
X546471Y411324D01*
X547213Y410039D01*
X548263Y408989D01*
X549548Y408247D01*
X550982Y407863D01*
X552467D01*
X553900Y408247D01*
X555186Y408989D01*
X556236Y410039D01*
X556782Y410984D01*
X557194Y410998D01*
X557802Y410389D01*
X558688Y409877D01*
X559677Y409613D01*
X560701D01*
X561690Y409877D01*
X562576Y410389D01*
X563300Y411113D01*
X563811Y412000D01*
X564076Y412988D01*
Y414012D01*
X563811Y415000D01*
X563300Y415887D01*
X562576Y416611D01*
X561690Y417122D01*
X560701Y417387D01*
X559677D01*
X558688Y417122D01*
X557802Y416611D01*
X557194Y416002D01*
X556782Y416015D01*
X556236Y416961D01*
X555186Y418011D01*
X553900Y418753D01*
X552467Y419137D01*
D02*
G37*
G36*
X516499Y418787D02*
X515501D01*
X514538Y418529D01*
X513674Y418031D01*
X512969Y417325D01*
X512471Y416462D01*
X512213Y415499D01*
Y414501D01*
X512471Y413538D01*
X512969Y412675D01*
X513674Y411969D01*
X514538Y411471D01*
X515208Y411291D01*
Y410929D01*
X514456Y410727D01*
X513544Y410201D01*
X512799Y409456D01*
X512273Y408544D01*
X512127Y408000D01*
X516000D01*
X519873D01*
X519727Y408544D01*
X519201Y409456D01*
X518456Y410201D01*
X517544Y410727D01*
X516792Y410929D01*
Y411291D01*
X517462Y411471D01*
X518326Y411969D01*
X519031Y412675D01*
X519529Y413538D01*
X519787Y414501D01*
Y415499D01*
X519529Y416462D01*
X519031Y417325D01*
X518326Y418031D01*
X517462Y418529D01*
X516499Y418787D01*
D02*
G37*
G36*
X519873Y406000D02*
X517000D01*
Y403127D01*
X517544Y403273D01*
X518456Y403799D01*
X519201Y404544D01*
X519727Y405456D01*
X519873Y406000D01*
D02*
G37*
G36*
X515000D02*
X512127D01*
X512273Y405456D01*
X512799Y404544D01*
X513544Y403799D01*
X514456Y403273D01*
X515000Y403127D01*
Y406000D01*
D02*
G37*
G36*
X560496Y399953D02*
X558134D01*
Y397000D01*
X560496D01*
Y399953D01*
D02*
G37*
G36*
X556134D02*
X553772D01*
Y397000D01*
X556134D01*
Y399953D01*
D02*
G37*
G36*
X560496Y395000D02*
X558134D01*
Y392047D01*
X560496D01*
Y395000D01*
D02*
G37*
G36*
X556134D02*
X553772D01*
Y392047D01*
X556134D01*
Y395000D01*
D02*
G37*
G36*
X581207Y386423D02*
X579722D01*
X578289Y386039D01*
X577003Y385297D01*
X575953Y384247D01*
X575407Y383301D01*
X574996Y383288D01*
X574387Y383896D01*
X573500Y384408D01*
X572512Y384673D01*
X571488D01*
X570500Y384408D01*
X569613Y383896D01*
X568889Y383173D01*
X568377Y382286D01*
X568113Y381297D01*
Y380274D01*
X568377Y379285D01*
X568889Y378399D01*
X569613Y377675D01*
X570500Y377163D01*
X571488Y376898D01*
X572512D01*
X573500Y377163D01*
X574387Y377675D01*
X574996Y378284D01*
X575407Y378270D01*
X575953Y377324D01*
X577003Y376275D01*
X578289Y375533D01*
X579722Y375148D01*
X581207D01*
X582641Y375533D01*
X583926Y376275D01*
X584976Y377324D01*
X585718Y378610D01*
X586102Y380044D01*
Y381528D01*
X585718Y382962D01*
X584976Y384247D01*
X583926Y385297D01*
X582641Y386039D01*
X581207Y386423D01*
D02*
G37*
G36*
X519873Y381000D02*
X517000D01*
Y378127D01*
X517544Y378273D01*
X518456Y378799D01*
X519201Y379544D01*
X519727Y380456D01*
X519873Y381000D01*
D02*
G37*
G36*
X515000D02*
X512127D01*
X512273Y380456D01*
X512799Y379544D01*
X513544Y378799D01*
X514456Y378273D01*
X515000Y378127D01*
Y381000D01*
D02*
G37*
G36*
X552467Y386423D02*
X550982D01*
X549548Y386039D01*
X548263Y385297D01*
X547213Y384247D01*
X546471Y382962D01*
X546087Y381528D01*
Y380044D01*
X546471Y378610D01*
X547213Y377324D01*
X548263Y376275D01*
X549548Y375533D01*
X550982Y375148D01*
X552467D01*
X553900Y375533D01*
X555186Y376275D01*
X556236Y377324D01*
X556782Y378270D01*
X557194Y378284D01*
X557802Y377675D01*
X558688Y377163D01*
X559677Y376898D01*
X560701D01*
X561690Y377163D01*
X562576Y377675D01*
X563300Y378399D01*
X563811Y379285D01*
X564076Y380274D01*
Y381297D01*
X563811Y382286D01*
X563300Y383173D01*
X562576Y383896D01*
X561690Y384408D01*
X560701Y384673D01*
X559677D01*
X558688Y384408D01*
X557802Y383896D01*
X557194Y383288D01*
X556782Y383301D01*
X556236Y384247D01*
X555186Y385297D01*
X553900Y386039D01*
X552467Y386423D01*
D02*
G37*
G36*
X560496Y367203D02*
X558134D01*
Y364250D01*
X560496D01*
Y367203D01*
D02*
G37*
G36*
X556134D02*
X553772D01*
Y364250D01*
X556134D01*
Y367203D01*
D02*
G37*
G36*
X560496Y362250D02*
X558134D01*
Y359297D01*
X560496D01*
Y362250D01*
D02*
G37*
G36*
X556134D02*
X553772D01*
Y359297D01*
X556134D01*
Y362250D01*
D02*
G37*
G36*
X581207Y353709D02*
X579722D01*
X578289Y353325D01*
X577003Y352582D01*
X575953Y351533D01*
X575407Y350587D01*
X574996Y350573D01*
X574387Y351182D01*
X573500Y351694D01*
X572512Y351959D01*
X571488D01*
X570500Y351694D01*
X569613Y351182D01*
X568889Y350458D01*
X568377Y349572D01*
X568113Y348583D01*
Y347560D01*
X568377Y346571D01*
X568889Y345685D01*
X569613Y344961D01*
X570500Y344449D01*
X571488Y344184D01*
X572512D01*
X573500Y344449D01*
X574387Y344961D01*
X574996Y345569D01*
X575407Y345556D01*
X575953Y344610D01*
X577003Y343560D01*
X578289Y342818D01*
X579722Y342434D01*
X581207D01*
X582641Y342818D01*
X583926Y343560D01*
X584976Y344610D01*
X585718Y345895D01*
X586102Y347329D01*
Y348814D01*
X585718Y350247D01*
X584976Y351533D01*
X583926Y352582D01*
X582641Y353325D01*
X581207Y353709D01*
D02*
G37*
G36*
X519873Y348500D02*
X517000D01*
Y345627D01*
X517544Y345773D01*
X518456Y346299D01*
X519201Y347044D01*
X519727Y347956D01*
X519873Y348500D01*
D02*
G37*
G36*
X515000D02*
X512127D01*
X512273Y347956D01*
X512799Y347044D01*
X513544Y346299D01*
X514456Y345773D01*
X515000Y345627D01*
Y348500D01*
D02*
G37*
G36*
X552467Y353709D02*
X550982D01*
X549548Y353325D01*
X548263Y352582D01*
X547213Y351533D01*
X546471Y350247D01*
X546087Y348814D01*
Y347329D01*
X546471Y345895D01*
X547213Y344610D01*
X548263Y343560D01*
X549548Y342818D01*
X550982Y342434D01*
X552467D01*
X553900Y342818D01*
X555186Y343560D01*
X556236Y344610D01*
X556782Y345556D01*
X557194Y345569D01*
X557802Y344961D01*
X558688Y344449D01*
X559677Y344184D01*
X560701D01*
X561690Y344449D01*
X562576Y344961D01*
X563300Y345685D01*
X563811Y346571D01*
X564076Y347560D01*
Y348583D01*
X563811Y349572D01*
X563300Y350458D01*
X562576Y351182D01*
X561690Y351694D01*
X560701Y351959D01*
X559677D01*
X558688Y351694D01*
X557802Y351182D01*
X557194Y350573D01*
X556782Y350587D01*
X556236Y351533D01*
X555186Y352582D01*
X553900Y353325D01*
X552467Y353709D01*
D02*
G37*
G36*
X560496Y334453D02*
X558134D01*
Y331500D01*
X560496D01*
Y334453D01*
D02*
G37*
G36*
X556134D02*
X553772D01*
Y331500D01*
X556134D01*
Y334453D01*
D02*
G37*
G36*
X560496Y329500D02*
X558134D01*
Y326547D01*
X560496D01*
Y329500D01*
D02*
G37*
G36*
X556134D02*
X553772D01*
Y326547D01*
X556134D01*
Y329500D01*
D02*
G37*
G36*
X516499Y328787D02*
X515501D01*
X514538Y328529D01*
X513674Y328031D01*
X512969Y327326D01*
X512471Y326462D01*
X512213Y325499D01*
Y324501D01*
X512471Y323538D01*
X512969Y322674D01*
X513674Y321969D01*
X514538Y321471D01*
X515208Y321291D01*
Y320929D01*
X514456Y320727D01*
X513544Y320201D01*
X512799Y319456D01*
X512273Y318544D01*
X512127Y318000D01*
X516000D01*
X519873D01*
X519727Y318544D01*
X519201Y319456D01*
X518456Y320201D01*
X517544Y320727D01*
X516792Y320929D01*
Y321291D01*
X517462Y321471D01*
X518326Y321969D01*
X519031Y322674D01*
X519529Y323538D01*
X519787Y324501D01*
Y325499D01*
X519529Y326462D01*
X519031Y327326D01*
X518326Y328031D01*
X517462Y328529D01*
X516499Y328787D01*
D02*
G37*
G36*
X581207Y320994D02*
X579722D01*
X578289Y320610D01*
X577003Y319868D01*
X575953Y318819D01*
X575407Y317873D01*
X574996Y317859D01*
X574387Y318468D01*
X573500Y318980D01*
X572512Y319245D01*
X571488D01*
X570500Y318980D01*
X569613Y318468D01*
X568889Y317744D01*
X568377Y316858D01*
X568113Y315869D01*
Y314845D01*
X568377Y313857D01*
X568889Y312970D01*
X569613Y312246D01*
X570500Y311735D01*
X571488Y311470D01*
X572512D01*
X573500Y311735D01*
X574387Y312246D01*
X574996Y312855D01*
X575407Y312842D01*
X575953Y311896D01*
X577003Y310846D01*
X578289Y310104D01*
X579722Y309720D01*
X581207D01*
X582641Y310104D01*
X583926Y310846D01*
X584976Y311896D01*
X585718Y313181D01*
X586102Y314615D01*
Y316099D01*
X585718Y317533D01*
X584976Y318819D01*
X583926Y319868D01*
X582641Y320610D01*
X581207Y320994D01*
D02*
G37*
G36*
X519873Y316000D02*
X517000D01*
Y313127D01*
X517544Y313273D01*
X518456Y313799D01*
X519201Y314544D01*
X519727Y315456D01*
X519873Y316000D01*
D02*
G37*
G36*
X515000D02*
X512127D01*
X512273Y315456D01*
X512799Y314544D01*
X513544Y313799D01*
X514456Y313273D01*
X515000Y313127D01*
Y316000D01*
D02*
G37*
G36*
X552467Y320994D02*
X550982D01*
X549548Y320610D01*
X548263Y319868D01*
X547213Y318819D01*
X546471Y317533D01*
X546087Y316099D01*
Y314615D01*
X546471Y313181D01*
X547213Y311896D01*
X548263Y310846D01*
X549548Y310104D01*
X550982Y309720D01*
X552467D01*
X553900Y310104D01*
X555186Y310846D01*
X556236Y311896D01*
X556782Y312842D01*
X557194Y312855D01*
X557802Y312246D01*
X558688Y311735D01*
X559677Y311470D01*
X560701D01*
X561690Y311735D01*
X562576Y312246D01*
X563300Y312970D01*
X563811Y313857D01*
X564076Y314845D01*
Y315869D01*
X563811Y316858D01*
X563300Y317744D01*
X562576Y318468D01*
X561690Y318980D01*
X560701Y319245D01*
X559677D01*
X558688Y318980D01*
X557802Y318468D01*
X557194Y317859D01*
X556782Y317873D01*
X556236Y318819D01*
X555186Y319868D01*
X553900Y320610D01*
X552467Y320994D01*
D02*
G37*
G36*
X560496Y301703D02*
X558134D01*
Y298750D01*
X560496D01*
Y301703D01*
D02*
G37*
G36*
X556134D02*
X553772D01*
Y298750D01*
X556134D01*
Y301703D01*
D02*
G37*
G36*
X560496Y296750D02*
X558134D01*
Y293797D01*
X560496D01*
Y296750D01*
D02*
G37*
G36*
X556134D02*
X553772D01*
Y293797D01*
X556134D01*
Y296750D01*
D02*
G37*
G36*
X516499Y296287D02*
X515501D01*
X514538Y296029D01*
X513674Y295531D01*
X512969Y294826D01*
X512471Y293962D01*
X512213Y292999D01*
Y292001D01*
X512471Y291038D01*
X512969Y290175D01*
X513674Y289469D01*
X514538Y288971D01*
X515208Y288791D01*
Y288429D01*
X514456Y288227D01*
X513544Y287701D01*
X512799Y286956D01*
X512273Y286044D01*
X512127Y285500D01*
X516000D01*
X519873D01*
X519727Y286044D01*
X519201Y286956D01*
X518456Y287701D01*
X517544Y288227D01*
X516792Y288429D01*
Y288791D01*
X517462Y288971D01*
X518326Y289469D01*
X519031Y290175D01*
X519529Y291038D01*
X519787Y292001D01*
Y292999D01*
X519529Y293962D01*
X519031Y294826D01*
X518326Y295531D01*
X517462Y296029D01*
X516499Y296287D01*
D02*
G37*
G36*
X581207Y288280D02*
X579722D01*
X578289Y287896D01*
X577003Y287154D01*
X575953Y286104D01*
X575407Y285158D01*
X574996Y285145D01*
X574387Y285753D01*
X573500Y286265D01*
X572512Y286530D01*
X571488D01*
X570500Y286265D01*
X569613Y285753D01*
X568889Y285030D01*
X568377Y284143D01*
X568113Y283155D01*
Y282131D01*
X568377Y281142D01*
X568889Y280256D01*
X569613Y279532D01*
X570500Y279020D01*
X571488Y278755D01*
X572512D01*
X573500Y279020D01*
X574387Y279532D01*
X574996Y280141D01*
X575407Y280127D01*
X575953Y279181D01*
X577003Y278132D01*
X578289Y277390D01*
X579722Y277005D01*
X581207D01*
X582641Y277390D01*
X583926Y278132D01*
X584976Y279181D01*
X585718Y280467D01*
X586102Y281901D01*
Y283385D01*
X585718Y284819D01*
X584976Y286104D01*
X583926Y287154D01*
X582641Y287896D01*
X581207Y288280D01*
D02*
G37*
G36*
X519873Y283500D02*
X517000D01*
Y280627D01*
X517544Y280773D01*
X518456Y281299D01*
X519201Y282044D01*
X519727Y282956D01*
X519873Y283500D01*
D02*
G37*
G36*
X515000D02*
X512127D01*
X512273Y282956D01*
X512799Y282044D01*
X513544Y281299D01*
X514456Y280773D01*
X515000Y280627D01*
Y283500D01*
D02*
G37*
G36*
X552467Y288280D02*
X550982D01*
X549548Y287896D01*
X548263Y287154D01*
X547213Y286104D01*
X546471Y284819D01*
X546087Y283385D01*
Y281901D01*
X546471Y280467D01*
X547213Y279181D01*
X548263Y278132D01*
X549548Y277390D01*
X550982Y277005D01*
X552467D01*
X553900Y277390D01*
X555186Y278132D01*
X556236Y279181D01*
X556782Y280127D01*
X557194Y280141D01*
X557802Y279532D01*
X558688Y279020D01*
X559677Y278755D01*
X560701D01*
X561690Y279020D01*
X562576Y279532D01*
X563300Y280256D01*
X563811Y281142D01*
X564076Y282131D01*
Y283155D01*
X563811Y284143D01*
X563300Y285030D01*
X562576Y285753D01*
X561690Y286265D01*
X560701Y286530D01*
X559677D01*
X558688Y286265D01*
X557802Y285753D01*
X557194Y285145D01*
X556782Y285158D01*
X556236Y286104D01*
X555186Y287154D01*
X553900Y287896D01*
X552467Y288280D01*
D02*
G37*
G36*
X560496Y268953D02*
X558134D01*
Y266000D01*
X560496D01*
Y268953D01*
D02*
G37*
G36*
X556134D02*
X553772D01*
Y266000D01*
X556134D01*
Y268953D01*
D02*
G37*
G36*
X560496Y264000D02*
X558134D01*
Y261047D01*
X560496D01*
Y264000D01*
D02*
G37*
G36*
X556134D02*
X553772D01*
Y261047D01*
X556134D01*
Y264000D01*
D02*
G37*
G36*
X581207Y255566D02*
X579722D01*
X578289Y255182D01*
X577003Y254440D01*
X575953Y253390D01*
X575407Y252444D01*
X574996Y252431D01*
X574387Y253039D01*
X573500Y253551D01*
X572512Y253816D01*
X571488D01*
X570500Y253551D01*
X569613Y253039D01*
X568889Y252315D01*
X568377Y251429D01*
X568113Y250440D01*
Y249417D01*
X568377Y248428D01*
X568889Y247542D01*
X569613Y246818D01*
X570500Y246306D01*
X571488Y246041D01*
X572512D01*
X573500Y246306D01*
X574387Y246818D01*
X574996Y247427D01*
X575407Y247413D01*
X575953Y246467D01*
X577003Y245417D01*
X578289Y244675D01*
X579722Y244291D01*
X581207D01*
X582641Y244675D01*
X583926Y245417D01*
X584976Y246467D01*
X585718Y247753D01*
X586102Y249186D01*
Y250671D01*
X585718Y252104D01*
X584976Y253390D01*
X583926Y254440D01*
X582641Y255182D01*
X581207Y255566D01*
D02*
G37*
G36*
X519873Y251000D02*
X517000D01*
Y248127D01*
X517544Y248273D01*
X518456Y248799D01*
X519201Y249544D01*
X519727Y250456D01*
X519873Y251000D01*
D02*
G37*
G36*
X515000D02*
X512127D01*
X512273Y250456D01*
X512799Y249544D01*
X513544Y248799D01*
X514456Y248273D01*
X515000Y248127D01*
Y251000D01*
D02*
G37*
G36*
X552467Y255566D02*
X550982D01*
X549548Y255182D01*
X548263Y254440D01*
X547213Y253390D01*
X546471Y252104D01*
X546087Y250671D01*
Y249186D01*
X546471Y247753D01*
X547213Y246467D01*
X548263Y245417D01*
X549548Y244675D01*
X550982Y244291D01*
X552467D01*
X553900Y244675D01*
X555186Y245417D01*
X556236Y246467D01*
X556782Y247413D01*
X557194Y247427D01*
X557802Y246818D01*
X558688Y246306D01*
X559677Y246041D01*
X560701D01*
X561690Y246306D01*
X562576Y246818D01*
X563300Y247542D01*
X563811Y248428D01*
X564076Y249417D01*
Y250440D01*
X563811Y251429D01*
X563300Y252315D01*
X562576Y253039D01*
X561690Y253551D01*
X560701Y253816D01*
X559677D01*
X558688Y253551D01*
X557802Y253039D01*
X557194Y252431D01*
X556782Y252444D01*
X556236Y253390D01*
X555186Y254440D01*
X553900Y255182D01*
X552467Y255566D01*
D02*
G37*
G36*
X560496Y236203D02*
X558134D01*
Y233250D01*
X560496D01*
Y236203D01*
D02*
G37*
G36*
X556134D02*
X553772D01*
Y233250D01*
X556134D01*
Y236203D01*
D02*
G37*
G36*
X560496Y231250D02*
X558134D01*
Y228297D01*
X560496D01*
Y231250D01*
D02*
G37*
G36*
X556134D02*
X553772D01*
Y228297D01*
X556134D01*
Y231250D01*
D02*
G37*
G36*
X516499Y231287D02*
X515501D01*
X514538Y231029D01*
X513674Y230531D01*
X512969Y229825D01*
X512471Y228962D01*
X512213Y227999D01*
Y227001D01*
X512471Y226038D01*
X512969Y225174D01*
X513674Y224469D01*
X514538Y223971D01*
X515208Y223791D01*
Y223429D01*
X514456Y223227D01*
X513544Y222701D01*
X512799Y221956D01*
X512273Y221044D01*
X512127Y220500D01*
X516000D01*
X519873D01*
X519727Y221044D01*
X519201Y221956D01*
X518456Y222701D01*
X517544Y223227D01*
X516792Y223429D01*
Y223791D01*
X517462Y223971D01*
X518326Y224469D01*
X519031Y225174D01*
X519529Y226038D01*
X519787Y227001D01*
Y227999D01*
X519529Y228962D01*
X519031Y229825D01*
X518326Y230531D01*
X517462Y231029D01*
X516499Y231287D01*
D02*
G37*
G36*
X581207Y222852D02*
X579722D01*
X578289Y222467D01*
X577003Y221725D01*
X575953Y220676D01*
X575407Y219730D01*
X574996Y219716D01*
X574387Y220325D01*
X573500Y220837D01*
X572512Y221102D01*
X571488D01*
X570500Y220837D01*
X569613Y220325D01*
X568889Y219601D01*
X568377Y218715D01*
X568113Y217726D01*
Y216703D01*
X568377Y215714D01*
X568889Y214827D01*
X569613Y214104D01*
X570500Y213592D01*
X571488Y213327D01*
X572512D01*
X573500Y213592D01*
X574387Y214104D01*
X574996Y214712D01*
X575407Y214699D01*
X575953Y213753D01*
X577003Y212703D01*
X578289Y211961D01*
X579722Y211577D01*
X581207D01*
X582641Y211961D01*
X583926Y212703D01*
X584976Y213753D01*
X585718Y215038D01*
X586102Y216472D01*
Y217956D01*
X585718Y219390D01*
X584976Y220676D01*
X583926Y221725D01*
X582641Y222467D01*
X581207Y222852D01*
D02*
G37*
G36*
X519873Y218500D02*
X517000D01*
Y215627D01*
X517544Y215773D01*
X518456Y216299D01*
X519201Y217044D01*
X519727Y217956D01*
X519873Y218500D01*
D02*
G37*
G36*
X515000D02*
X512127D01*
X512273Y217956D01*
X512799Y217044D01*
X513544Y216299D01*
X514456Y215773D01*
X515000Y215627D01*
Y218500D01*
D02*
G37*
G36*
X552467Y222852D02*
X550982D01*
X549548Y222467D01*
X548263Y221725D01*
X547213Y220676D01*
X546471Y219390D01*
X546087Y217956D01*
Y216472D01*
X546471Y215038D01*
X547213Y213753D01*
X548263Y212703D01*
X549548Y211961D01*
X550982Y211577D01*
X552467D01*
X553900Y211961D01*
X555186Y212703D01*
X556236Y213753D01*
X556782Y214699D01*
X557194Y214712D01*
X557802Y214104D01*
X558688Y213592D01*
X559677Y213327D01*
X560701D01*
X561690Y213592D01*
X562576Y214104D01*
X563300Y214827D01*
X563811Y215714D01*
X564076Y216703D01*
Y217726D01*
X563811Y218715D01*
X563300Y219601D01*
X562576Y220325D01*
X561690Y220837D01*
X560701Y221102D01*
X559677D01*
X558688Y220837D01*
X557802Y220325D01*
X557194Y219716D01*
X556782Y219730D01*
X556236Y220676D01*
X555186Y221725D01*
X553900Y222467D01*
X552467Y222852D01*
D02*
G37*
G36*
X560496Y203453D02*
X558134D01*
Y200500D01*
X560496D01*
Y203453D01*
D02*
G37*
G36*
X556134D02*
X553772D01*
Y200500D01*
X556134D01*
Y203453D01*
D02*
G37*
G36*
X560496Y198500D02*
X558134D01*
Y195547D01*
X560496D01*
Y198500D01*
D02*
G37*
G36*
X556134D02*
X553772D01*
Y195547D01*
X556134D01*
Y198500D01*
D02*
G37*
G36*
X516499Y198287D02*
X515501D01*
X514538Y198029D01*
X513674Y197531D01*
X512969Y196826D01*
X512471Y195962D01*
X512213Y194999D01*
Y194001D01*
X512471Y193038D01*
X512969Y192174D01*
X513674Y191469D01*
X514538Y190971D01*
X515208Y190791D01*
Y190429D01*
X514456Y190227D01*
X513544Y189701D01*
X512799Y188956D01*
X512273Y188044D01*
X512127Y187500D01*
X516000D01*
X519873D01*
X519727Y188044D01*
X519201Y188956D01*
X518456Y189701D01*
X517544Y190227D01*
X516792Y190429D01*
Y190791D01*
X517462Y190971D01*
X518326Y191469D01*
X519031Y192174D01*
X519529Y193038D01*
X519787Y194001D01*
Y194999D01*
X519529Y195962D01*
X519031Y196826D01*
X518326Y197531D01*
X517462Y198029D01*
X516499Y198287D01*
D02*
G37*
G36*
X581207Y190137D02*
X579722D01*
X578289Y189753D01*
X577003Y189011D01*
X575953Y187961D01*
X575407Y187016D01*
X574996Y187002D01*
X574387Y187611D01*
X573500Y188122D01*
X572512Y188387D01*
X571488D01*
X570500Y188122D01*
X569613Y187611D01*
X568889Y186887D01*
X568377Y186001D01*
X568113Y185012D01*
Y183988D01*
X568377Y183000D01*
X568889Y182113D01*
X569613Y181389D01*
X570500Y180877D01*
X571488Y180613D01*
X572512D01*
X573500Y180877D01*
X574387Y181389D01*
X574996Y181998D01*
X575407Y181984D01*
X575953Y181039D01*
X577003Y179989D01*
X578289Y179247D01*
X579722Y178863D01*
X581207D01*
X582641Y179247D01*
X583926Y179989D01*
X584976Y181039D01*
X585718Y182324D01*
X586102Y183758D01*
Y185242D01*
X585718Y186676D01*
X584976Y187961D01*
X583926Y189011D01*
X582641Y189753D01*
X581207Y190137D01*
D02*
G37*
G36*
X530228Y185953D02*
X527866D01*
Y183000D01*
X530228D01*
Y185953D01*
D02*
G37*
G36*
X525866D02*
X523504D01*
Y183000D01*
X525866D01*
Y185953D01*
D02*
G37*
G36*
X519873Y185500D02*
X517000D01*
Y182627D01*
X517544Y182773D01*
X518456Y183299D01*
X519201Y184044D01*
X519727Y184956D01*
X519873Y185500D01*
D02*
G37*
G36*
X515000D02*
X512127D01*
X512273Y184956D01*
X512799Y184044D01*
X513544Y183299D01*
X514456Y182773D01*
X515000Y182627D01*
Y185500D01*
D02*
G37*
G36*
X552467Y190137D02*
X550982D01*
X549548Y189753D01*
X548263Y189011D01*
X547213Y187961D01*
X546471Y186676D01*
X546087Y185242D01*
Y183758D01*
X546471Y182324D01*
X547213Y181039D01*
X548263Y179989D01*
X549548Y179247D01*
X550982Y178863D01*
X552467D01*
X553900Y179247D01*
X555186Y179989D01*
X556236Y181039D01*
X556782Y181984D01*
X557194Y181998D01*
X557802Y181389D01*
X558688Y180877D01*
X559677Y180613D01*
X560701D01*
X561690Y180877D01*
X562576Y181389D01*
X563300Y182113D01*
X563811Y183000D01*
X564076Y183988D01*
Y185012D01*
X563811Y186001D01*
X563300Y186887D01*
X562576Y187611D01*
X561690Y188122D01*
X560701Y188387D01*
X559677D01*
X558688Y188122D01*
X557802Y187611D01*
X557194Y187002D01*
X556782Y187016D01*
X556236Y187961D01*
X555186Y189011D01*
X553900Y189753D01*
X552467Y190137D01*
D02*
G37*
G36*
X530228Y181000D02*
X527866D01*
Y178047D01*
X530228D01*
Y181000D01*
D02*
G37*
G36*
X525866D02*
X523504D01*
Y178047D01*
X525866D01*
Y181000D01*
D02*
G37*
G36*
X461000Y175743D02*
Y169500D01*
X467243D01*
X467019Y170629D01*
X466468Y171958D01*
X465670Y173153D01*
X464653Y174170D01*
X463457Y174969D01*
X462129Y175519D01*
X461000Y175743D01*
D02*
G37*
G36*
X459000D02*
X457871Y175519D01*
X456542Y174969D01*
X455347Y174170D01*
X454330Y173153D01*
X453532Y171958D01*
X452981Y170629D01*
X452757Y169500D01*
X459000D01*
Y175743D01*
D02*
G37*
G36*
X483499Y172787D02*
X482501D01*
X481538Y172529D01*
X480675Y172031D01*
X479969Y171326D01*
X479471Y170462D01*
X479213Y169499D01*
Y168501D01*
X479471Y167538D01*
X479969Y166674D01*
X480675Y165969D01*
X481538Y165471D01*
X482208Y165291D01*
Y164929D01*
X481456Y164727D01*
X480544Y164201D01*
X479799Y163456D01*
X479273Y162544D01*
X479127Y162000D01*
X483000D01*
X486873D01*
X486727Y162544D01*
X486201Y163456D01*
X485456Y164201D01*
X484544Y164727D01*
X483792Y164929D01*
Y165291D01*
X484462Y165471D01*
X485325Y165969D01*
X486031Y166674D01*
X486529Y167538D01*
X486787Y168501D01*
Y169499D01*
X486529Y170462D01*
X486031Y171326D01*
X485325Y172031D01*
X484462Y172529D01*
X483499Y172787D01*
D02*
G37*
G36*
X467243Y167500D02*
X461000D01*
Y161257D01*
X462129Y161481D01*
X463457Y162031D01*
X464653Y162830D01*
X465670Y163847D01*
X466468Y165042D01*
X467019Y166371D01*
X467243Y167500D01*
D02*
G37*
G36*
X459000D02*
X452757D01*
X452981Y166371D01*
X453532Y165042D01*
X454330Y163847D01*
X455347Y162830D01*
X456542Y162031D01*
X457871Y161481D01*
X459000Y161257D01*
Y167500D01*
D02*
G37*
G36*
X518453Y159996D02*
X515500D01*
Y157634D01*
X518453D01*
Y159996D01*
D02*
G37*
G36*
X513500D02*
X510547D01*
Y157634D01*
X513500D01*
Y159996D01*
D02*
G37*
G36*
X573752Y165900D02*
Y157248D01*
X582404D01*
X582042Y159066D01*
X581314Y160824D01*
X580257Y162407D01*
X578911Y163752D01*
X577328Y164810D01*
X575570Y165538D01*
X573752Y165900D01*
D02*
G37*
G36*
X486873Y160000D02*
X484000D01*
Y157127D01*
X484544Y157273D01*
X485456Y157799D01*
X486201Y158544D01*
X486727Y159456D01*
X486873Y160000D01*
D02*
G37*
G36*
X482000D02*
X479127D01*
X479273Y159456D01*
X479799Y158544D01*
X480544Y157799D01*
X481456Y157273D01*
X482000Y157127D01*
Y160000D01*
D02*
G37*
G36*
X571752Y165900D02*
X569934Y165538D01*
X568176Y164810D01*
X566593Y163752D01*
X565247Y162407D01*
X564190Y160824D01*
X563462Y159066D01*
X563091Y157200D01*
Y157039D01*
X562741Y156993D01*
X562623Y157431D01*
X561881Y158716D01*
X560831Y159766D01*
X559546Y160508D01*
X558112Y160892D01*
X556628D01*
X555194Y160508D01*
X553909Y159766D01*
X552859Y158716D01*
X552313Y157770D01*
X551901Y157757D01*
X551292Y158365D01*
X550406Y158877D01*
X549417Y159142D01*
X548394D01*
X547405Y158877D01*
X546519Y158365D01*
X545795Y157642D01*
X545283Y156755D01*
X545018Y155766D01*
Y154743D01*
X545283Y153754D01*
X545795Y152868D01*
X546519Y152144D01*
X547405Y151632D01*
X548394Y151367D01*
X549417D01*
X550406Y151632D01*
X551292Y152144D01*
X551901Y152753D01*
X552313Y152739D01*
X552859Y151793D01*
X553909Y150744D01*
X555194Y150002D01*
X556628Y149617D01*
X558112D01*
X559546Y150002D01*
X560831Y150744D01*
X561881Y151793D01*
X562623Y153079D01*
X562940Y154260D01*
X563299Y154248D01*
X563462Y153430D01*
X564190Y151672D01*
X565247Y150089D01*
X566593Y148743D01*
X568176Y147686D01*
X569934Y146958D01*
X571752Y146596D01*
Y156248D01*
Y165900D01*
D02*
G37*
G36*
X518453Y155634D02*
X515500D01*
Y153272D01*
X518453D01*
Y155634D01*
D02*
G37*
G36*
X513500D02*
X510547D01*
Y153272D01*
X513500D01*
Y155634D01*
D02*
G37*
G36*
X461000Y158743D02*
Y152500D01*
X467243D01*
X467019Y153629D01*
X466468Y154957D01*
X465670Y156153D01*
X464653Y157170D01*
X463457Y157968D01*
X462129Y158519D01*
X461000Y158743D01*
D02*
G37*
G36*
X459000D02*
X457871Y158519D01*
X456542Y157968D01*
X455347Y157170D01*
X454330Y156153D01*
X453532Y154957D01*
X452981Y153629D01*
X452757Y152500D01*
X459000D01*
Y158743D01*
D02*
G37*
G36*
X529372Y160892D02*
X527888D01*
X526454Y160508D01*
X525169Y159766D01*
X524119Y158716D01*
X523377Y157431D01*
X522993Y155997D01*
Y154513D01*
X523377Y153079D01*
X524119Y151793D01*
X525169Y150744D01*
X526454Y150002D01*
X527888Y149617D01*
X529372D01*
X530806Y150002D01*
X532091Y150744D01*
X533141Y151793D01*
X533687Y152739D01*
X534099Y152753D01*
X534708Y152144D01*
X535594Y151632D01*
X536583Y151367D01*
X537606D01*
X538595Y151632D01*
X539481Y152144D01*
X540205Y152868D01*
X540717Y153754D01*
X540982Y154743D01*
Y155766D01*
X540717Y156755D01*
X540205Y157642D01*
X539481Y158365D01*
X538595Y158877D01*
X537606Y159142D01*
X536583D01*
X535594Y158877D01*
X534708Y158365D01*
X534099Y157757D01*
X533687Y157770D01*
X533141Y158716D01*
X532091Y159766D01*
X530806Y160508D01*
X529372Y160892D01*
D02*
G37*
G36*
X582404Y155248D02*
X573752D01*
Y146596D01*
X575570Y146958D01*
X577328Y147686D01*
X578911Y148743D01*
X580257Y150089D01*
X581314Y151672D01*
X582042Y153430D01*
X582404Y155248D01*
D02*
G37*
G36*
X467243Y150500D02*
X461000D01*
Y144257D01*
X462129Y144481D01*
X463457Y145031D01*
X464653Y145830D01*
X465670Y146847D01*
X466468Y148043D01*
X467019Y149371D01*
X467243Y150500D01*
D02*
G37*
G36*
X459000D02*
X452757D01*
X452981Y149371D01*
X453532Y148043D01*
X454330Y146847D01*
X455347Y145830D01*
X456542Y145031D01*
X457871Y144481D01*
X459000Y144257D01*
Y150500D01*
D02*
G37*
G36*
X383207Y444637D02*
X381722D01*
X380289Y444253D01*
X379003Y443511D01*
X377954Y442461D01*
X377407Y441515D01*
X376995Y441502D01*
X376387Y442111D01*
X375500Y442623D01*
X374512Y442887D01*
X373488D01*
X372499Y442623D01*
X371613Y442111D01*
X370889Y441387D01*
X370377Y440500D01*
X370113Y439512D01*
Y438488D01*
X370377Y437500D01*
X370889Y436613D01*
X371613Y435889D01*
X372499Y435378D01*
X373488Y435113D01*
X374512D01*
X375500Y435378D01*
X376387Y435889D01*
X376995Y436498D01*
X377407Y436484D01*
X377954Y435539D01*
X379003Y434489D01*
X380289Y433747D01*
X381722Y433363D01*
X383207D01*
X384641Y433747D01*
X385926Y434489D01*
X386976Y435539D01*
X387718Y436824D01*
X388102Y438258D01*
Y439742D01*
X387718Y441176D01*
X386976Y442461D01*
X385926Y443511D01*
X384641Y444253D01*
X383207Y444637D01*
D02*
G37*
G36*
X329748Y449404D02*
Y440752D01*
X338400D01*
X338038Y442570D01*
X337310Y444328D01*
X336252Y445911D01*
X334907Y447257D01*
X333324Y448314D01*
X331566Y449042D01*
X329748Y449404D01*
D02*
G37*
G36*
X327748D02*
X325930Y449042D01*
X324172Y448314D01*
X322589Y447257D01*
X321244Y445911D01*
X320186Y444328D01*
X319458Y442570D01*
X319096Y440752D01*
X327748D01*
Y449404D01*
D02*
G37*
G36*
X363189Y442977D02*
Y440000D01*
X366166D01*
X366010Y440583D01*
X365470Y441517D01*
X364706Y442281D01*
X363772Y442821D01*
X363189Y442977D01*
D02*
G37*
G36*
X421153Y449110D02*
X409342D01*
Y437299D01*
X421153D01*
Y449110D01*
D02*
G37*
G36*
X366166Y438000D02*
X363189D01*
Y435023D01*
X363772Y435179D01*
X364706Y435719D01*
X365470Y436482D01*
X366010Y437418D01*
X366166Y438000D01*
D02*
G37*
G36*
X354467Y444637D02*
X352982D01*
X351549Y444253D01*
X350263Y443511D01*
X349213Y442461D01*
X348471Y441176D01*
X348087Y439742D01*
Y438258D01*
X348471Y436824D01*
X349213Y435539D01*
X350263Y434489D01*
X351549Y433747D01*
X352982Y433363D01*
X354467D01*
X355900Y433747D01*
X357186Y434489D01*
X358235Y435539D01*
X358651Y436258D01*
X359083Y436307D01*
X359671Y435719D01*
X360606Y435179D01*
X361189Y435023D01*
Y439000D01*
Y442977D01*
X360606Y442821D01*
X359671Y442281D01*
X359083Y441693D01*
X358651Y441742D01*
X358235Y442461D01*
X357186Y443511D01*
X355900Y444253D01*
X354467Y444637D01*
D02*
G37*
G36*
X338400Y438752D02*
X329748D01*
Y430100D01*
X331566Y430462D01*
X333324Y431190D01*
X334907Y432247D01*
X336252Y433593D01*
X337310Y435176D01*
X338038Y436934D01*
X338400Y438752D01*
D02*
G37*
G36*
X327748D02*
X319096D01*
X319458Y436934D01*
X320186Y435176D01*
X321244Y433593D01*
X322589Y432247D01*
X324172Y431190D01*
X325930Y430462D01*
X327748Y430100D01*
Y438752D01*
D02*
G37*
G36*
X421153Y435299D02*
X409342D01*
Y423488D01*
X421153D01*
Y435299D01*
D02*
G37*
G36*
X339819Y427843D02*
X326826D01*
Y421937D01*
X339819D01*
Y427843D01*
D02*
G37*
G36*
X427000Y414243D02*
Y408000D01*
X433243D01*
X433019Y409129D01*
X432469Y410458D01*
X431670Y411653D01*
X430653Y412670D01*
X429458Y413469D01*
X428129Y414019D01*
X427000Y414243D01*
D02*
G37*
G36*
X425000D02*
X423871Y414019D01*
X422542Y413469D01*
X421347Y412670D01*
X420330Y411653D01*
X419531Y410458D01*
X418981Y409129D01*
X418757Y408000D01*
X425000D01*
Y414243D01*
D02*
G37*
G36*
X411000D02*
Y408000D01*
X417243D01*
X417019Y409129D01*
X416468Y410458D01*
X415670Y411653D01*
X414653Y412670D01*
X413457Y413469D01*
X412129Y414019D01*
X411000Y414243D01*
D02*
G37*
G36*
X409000D02*
X407871Y414019D01*
X406542Y413469D01*
X405347Y412670D01*
X404330Y411653D01*
X403532Y410458D01*
X402981Y409129D01*
X402757Y408000D01*
X409000D01*
Y414243D01*
D02*
G37*
G36*
X433243Y406000D02*
X427000D01*
Y399757D01*
X428129Y399981D01*
X429458Y400531D01*
X430653Y401330D01*
X431670Y402347D01*
X432469Y403543D01*
X433019Y404871D01*
X433243Y406000D01*
D02*
G37*
G36*
X425000D02*
X418757D01*
X418981Y404871D01*
X419531Y403543D01*
X420330Y402347D01*
X421347Y401330D01*
X422542Y400531D01*
X423871Y399981D01*
X425000Y399757D01*
Y406000D01*
D02*
G37*
G36*
X417243D02*
X411000D01*
Y399757D01*
X412129Y399981D01*
X413457Y400531D01*
X414653Y401330D01*
X415670Y402347D01*
X416468Y403543D01*
X417019Y404871D01*
X417243Y406000D01*
D02*
G37*
G36*
X409000D02*
X402757D01*
X402981Y404871D01*
X403532Y403543D01*
X404330Y402347D01*
X405347Y401330D01*
X406542Y400531D01*
X407871Y399981D01*
X409000Y399757D01*
Y406000D01*
D02*
G37*
G36*
X329392Y370468D02*
X328608D01*
X327885Y370169D01*
X327420Y369704D01*
X324267D01*
Y370461D01*
X316000D01*
Y366327D01*
X324267D01*
Y367296D01*
X327420D01*
X327885Y366831D01*
X328608Y366531D01*
X329392D01*
X330115Y366831D01*
X330669Y367385D01*
X330968Y368108D01*
Y368892D01*
X330669Y369615D01*
X330115Y370169D01*
X329392Y370468D01*
D02*
G37*
G36*
X339819Y364063D02*
X326826D01*
Y358157D01*
X339819D01*
Y364063D01*
D02*
G37*
G36*
Y353842D02*
X326826D01*
Y347937D01*
X339819D01*
Y353842D01*
D02*
G37*
G36*
X367067Y300020D02*
X365000D01*
Y298445D01*
X367067D01*
Y300020D01*
D02*
G37*
G36*
Y296445D02*
X365000D01*
Y294870D01*
X367067D01*
Y296445D01*
D02*
G37*
G36*
X363000D02*
X360933D01*
Y294870D01*
X363000D01*
Y296445D01*
D02*
G37*
G36*
X358000Y292248D02*
Y291272D01*
X359055D01*
X359010Y291496D01*
X358735Y291908D01*
X358323Y292184D01*
X358000Y292248D01*
D02*
G37*
G36*
X344130Y284067D02*
X342555D01*
Y282000D01*
X344130D01*
Y284067D01*
D02*
G37*
G36*
X339819Y290063D02*
X326826D01*
Y284157D01*
X338668D01*
X338980Y284067D01*
X338980Y283807D01*
Y282000D01*
X340555D01*
Y284067D01*
X340131D01*
X339819Y284157D01*
X339819Y284417D01*
Y290063D01*
D02*
G37*
G36*
X344130Y280000D02*
X342555D01*
Y277933D01*
X344130D01*
Y280000D01*
D02*
G37*
G36*
X340555D02*
X338980D01*
Y277933D01*
X340555D01*
Y280000D01*
D02*
G37*
G36*
X336055Y271500D02*
X335000D01*
Y270524D01*
X335323Y270588D01*
X335735Y270864D01*
X336010Y271276D01*
X336055Y271500D01*
D02*
G37*
G36*
X333000D02*
X331945D01*
X331990Y271276D01*
X332265Y270864D01*
X332677Y270588D01*
X333000Y270524D01*
Y271500D01*
D02*
G37*
G36*
X350807Y283854D02*
X346083D01*
Y278146D01*
X347241D01*
Y277055D01*
X347241Y277055D01*
X347332Y276594D01*
X347593Y276204D01*
X356648Y267148D01*
X356648Y267148D01*
X357039Y266887D01*
X357500Y266796D01*
X369420D01*
X369885Y266331D01*
X370608Y266032D01*
X371392D01*
X372115Y266331D01*
X372669Y266885D01*
X372969Y267608D01*
Y268392D01*
X372669Y269115D01*
X372115Y269669D01*
X371392Y269969D01*
X370608D01*
X369885Y269669D01*
X369420Y269204D01*
X357999D01*
X349649Y277554D01*
Y278146D01*
X350807D01*
Y283854D01*
D02*
G37*
G36*
X321500Y261790D02*
X317550D01*
Y259740D01*
X321500D01*
Y261790D01*
D02*
G37*
G36*
Y257740D02*
X317550D01*
Y255690D01*
X321500D01*
Y257740D01*
D02*
G37*
G36*
X320000Y251130D02*
X319360Y250958D01*
X318392Y250399D01*
X317601Y249608D01*
X317041Y248640D01*
X316870Y248000D01*
X320000D01*
Y251130D01*
D02*
G37*
G36*
X349331Y257917D02*
X346181D01*
X345720Y257825D01*
X345330Y257564D01*
X345069Y257173D01*
X344977Y256713D01*
Y246476D01*
X345069Y246016D01*
X345330Y245625D01*
X345720Y245364D01*
X346181Y245272D01*
X349331D01*
X349792Y245364D01*
X350182Y245625D01*
X350443Y246016D01*
X350535Y246476D01*
Y256713D01*
X350443Y257173D01*
X350182Y257564D01*
X349792Y257825D01*
X349331Y257917D01*
D02*
G37*
G36*
X320000Y246000D02*
X316870D01*
X317041Y245360D01*
X317601Y244392D01*
X318392Y243601D01*
X319360Y243041D01*
X320000Y242870D01*
Y246000D01*
D02*
G37*
G36*
X356039Y242744D02*
Y239405D01*
X357247D01*
Y241398D01*
X357142Y241926D01*
X356843Y242374D01*
X356395Y242673D01*
X356039Y242744D01*
D02*
G37*
G36*
X354039D02*
X353684Y242673D01*
X353236Y242374D01*
X352937Y241926D01*
X352832Y241398D01*
Y239405D01*
X354039D01*
Y242744D01*
D02*
G37*
G36*
X357247Y237405D02*
X356039D01*
Y234067D01*
X356395Y234138D01*
X356843Y234437D01*
X357142Y234885D01*
X357247Y235413D01*
Y237405D01*
D02*
G37*
G36*
X354039D02*
X352832D01*
Y235413D01*
X352937Y234885D01*
X353236Y234437D01*
X353684Y234138D01*
X354039Y234067D01*
Y237405D01*
D02*
G37*
G36*
X332624Y231083D02*
X329376D01*
X328435Y230895D01*
X327637Y230363D01*
X327104Y229565D01*
X326917Y228624D01*
Y225376D01*
X327104Y224435D01*
X327637Y223637D01*
X328435Y223105D01*
X329376Y222917D01*
X332624D01*
X333565Y223105D01*
X334363Y223637D01*
X334895Y224435D01*
X335083Y225376D01*
Y228624D01*
X334895Y229565D01*
X334363Y230363D01*
X333565Y230895D01*
X332624Y231083D01*
D02*
G37*
G36*
X415831Y227417D02*
X412681D01*
X412220Y227325D01*
X411830Y227064D01*
X411568Y226673D01*
X411477Y226213D01*
Y215976D01*
X411568Y215515D01*
X411830Y215125D01*
X412220Y214864D01*
X412681Y214772D01*
X415831D01*
X416292Y214864D01*
X416682Y215125D01*
X416943Y215515D01*
X417035Y215976D01*
Y226213D01*
X416943Y226673D01*
X416682Y227064D01*
X416292Y227325D01*
X415831Y227417D01*
D02*
G37*
G36*
X381331D02*
X378181D01*
X377720Y227325D01*
X377330Y227064D01*
X377069Y226673D01*
X376977Y226213D01*
Y215976D01*
X377069Y215515D01*
X377330Y215125D01*
X377720Y214864D01*
X378181Y214772D01*
X381331D01*
X381792Y214864D01*
X382182Y215125D01*
X382443Y215515D01*
X382535Y215976D01*
Y226213D01*
X382443Y226673D01*
X382182Y227064D01*
X381792Y227325D01*
X381331Y227417D01*
D02*
G37*
G36*
X349331D02*
X346181D01*
X345720Y227325D01*
X345330Y227064D01*
X345069Y226673D01*
X344977Y226213D01*
Y215976D01*
X345069Y215515D01*
X345330Y215125D01*
X345720Y214864D01*
X346181Y214772D01*
X349331D01*
X349792Y214864D01*
X350182Y215125D01*
X350443Y215515D01*
X350535Y215976D01*
Y226213D01*
X350443Y226673D01*
X350182Y227064D01*
X349792Y227325D01*
X349331Y227417D01*
D02*
G37*
G36*
X422539Y212244D02*
Y208906D01*
X423747D01*
Y210898D01*
X423642Y211426D01*
X423343Y211874D01*
X422895Y212173D01*
X422539Y212244D01*
D02*
G37*
G36*
X420539D02*
X420184Y212173D01*
X419736Y211874D01*
X419437Y211426D01*
X419332Y210898D01*
Y208906D01*
X420539D01*
Y212244D01*
D02*
G37*
G36*
X388039D02*
Y208906D01*
X389247D01*
Y210898D01*
X389142Y211426D01*
X388843Y211874D01*
X388395Y212173D01*
X388039Y212244D01*
D02*
G37*
G36*
X386039D02*
X385684Y212173D01*
X385236Y211874D01*
X384937Y211426D01*
X384832Y210898D01*
Y208906D01*
X386039D01*
Y212244D01*
D02*
G37*
G36*
X356039D02*
Y208906D01*
X357247D01*
Y210898D01*
X357142Y211426D01*
X356843Y211874D01*
X356395Y212173D01*
X356039Y212244D01*
D02*
G37*
G36*
X354039D02*
X353684Y212173D01*
X353236Y211874D01*
X352937Y211426D01*
X352832Y210898D01*
Y208906D01*
X354039D01*
Y212244D01*
D02*
G37*
G36*
X423747Y206906D02*
X422539D01*
Y203567D01*
X422895Y203638D01*
X423343Y203937D01*
X423642Y204385D01*
X423747Y204913D01*
Y206906D01*
D02*
G37*
G36*
X420539D02*
X419332D01*
Y204913D01*
X419437Y204385D01*
X419736Y203937D01*
X420184Y203638D01*
X420539Y203567D01*
Y206906D01*
D02*
G37*
G36*
X389247D02*
X388039D01*
Y203567D01*
X388395Y203638D01*
X388843Y203937D01*
X389142Y204385D01*
X389247Y204913D01*
Y206906D01*
D02*
G37*
G36*
X386039D02*
X384832D01*
Y204913D01*
X384937Y204385D01*
X385236Y203937D01*
X385684Y203638D01*
X386039Y203567D01*
Y206906D01*
D02*
G37*
G36*
X357247D02*
X356039D01*
Y203567D01*
X356395Y203638D01*
X356843Y203937D01*
X357142Y204385D01*
X357247Y204913D01*
Y206906D01*
D02*
G37*
G36*
X354039D02*
X352832D01*
Y204913D01*
X352937Y204385D01*
X353236Y203937D01*
X353684Y203638D01*
X354039Y203567D01*
Y206906D01*
D02*
G37*
G36*
X338216Y201780D02*
X337154D01*
X336127Y201504D01*
X335207Y200973D01*
X334456Y200222D01*
X333925Y199302D01*
X333650Y198275D01*
Y197213D01*
X333925Y196186D01*
X334456Y195266D01*
X335207Y194515D01*
X336127Y193984D01*
X337154Y193709D01*
X338216D01*
X339243Y193984D01*
X340163Y194515D01*
X340914Y195266D01*
X341445Y196186D01*
X341721Y197213D01*
Y198275D01*
X341445Y199302D01*
X340914Y200222D01*
X340163Y200973D01*
X339243Y201504D01*
X338216Y201780D01*
D02*
G37*
G36*
X329309Y201827D02*
X326061D01*
X325120Y201640D01*
X324323Y201107D01*
X323790Y200309D01*
X323602Y199368D01*
Y196120D01*
X323790Y195179D01*
X324323Y194381D01*
X325120Y193849D01*
X326061Y193661D01*
X329309D01*
X330250Y193849D01*
X331048Y194381D01*
X331581Y195179D01*
X331768Y196120D01*
Y199368D01*
X331581Y200309D01*
X331048Y201107D01*
X330250Y201640D01*
X329309Y201827D01*
D02*
G37*
G36*
X435319Y196667D02*
X432169D01*
X431708Y196575D01*
X431318Y196314D01*
X431057Y195923D01*
X430965Y195463D01*
Y185226D01*
X431057Y184766D01*
X431318Y184375D01*
X431708Y184114D01*
X432169Y184022D01*
X435319D01*
X435780Y184114D01*
X436170Y184375D01*
X436432Y184766D01*
X436523Y185226D01*
Y195463D01*
X436432Y195923D01*
X436170Y196314D01*
X435780Y196575D01*
X435319Y196667D01*
D02*
G37*
G36*
X415831D02*
X412681D01*
X412220Y196575D01*
X411830Y196314D01*
X411568Y195923D01*
X411477Y195463D01*
Y185226D01*
X411568Y184766D01*
X411830Y184375D01*
X412220Y184114D01*
X412681Y184022D01*
X415831D01*
X416292Y184114D01*
X416682Y184375D01*
X416943Y184766D01*
X417035Y185226D01*
Y195463D01*
X416943Y195923D01*
X416682Y196314D01*
X416292Y196575D01*
X415831Y196667D01*
D02*
G37*
G36*
X381331D02*
X378181D01*
X377720Y196575D01*
X377330Y196314D01*
X377069Y195923D01*
X376977Y195463D01*
Y185226D01*
X377069Y184766D01*
X377330Y184375D01*
X377720Y184114D01*
X378181Y184022D01*
X381331D01*
X381792Y184114D01*
X382182Y184375D01*
X382443Y184766D01*
X382535Y185226D01*
Y195463D01*
X382443Y195923D01*
X382182Y196314D01*
X381792Y196575D01*
X381331Y196667D01*
D02*
G37*
G36*
X368819D02*
X365669D01*
X365209Y196575D01*
X364818Y196314D01*
X364557Y195923D01*
X364465Y195463D01*
Y185226D01*
X364557Y184766D01*
X364818Y184375D01*
X365209Y184114D01*
X365669Y184022D01*
X368819D01*
X369280Y184114D01*
X369670Y184375D01*
X369932Y184766D01*
X370023Y185226D01*
Y195463D01*
X369932Y195923D01*
X369670Y196314D01*
X369280Y196575D01*
X368819Y196667D01*
D02*
G37*
G36*
X349331D02*
X346181D01*
X345720Y196575D01*
X345330Y196314D01*
X345069Y195923D01*
X344977Y195463D01*
Y185226D01*
X345069Y184766D01*
X345330Y184375D01*
X345720Y184114D01*
X346181Y184022D01*
X349331D01*
X349792Y184114D01*
X350182Y184375D01*
X350443Y184766D01*
X350535Y185226D01*
Y195463D01*
X350443Y195923D01*
X350182Y196314D01*
X349792Y196575D01*
X349331Y196667D01*
D02*
G37*
G36*
X338216Y191779D02*
X337154D01*
X336127Y191505D01*
X335207Y190973D01*
X334456Y190222D01*
X333925Y189302D01*
X333650Y188275D01*
Y187213D01*
X333925Y186187D01*
X334456Y185266D01*
X335207Y184515D01*
X336127Y183984D01*
X337154Y183709D01*
X338216D01*
X339243Y183984D01*
X340163Y184515D01*
X340914Y185266D01*
X341445Y186187D01*
X341721Y187213D01*
Y188275D01*
X341445Y189302D01*
X340914Y190222D01*
X340163Y190973D01*
X339243Y191505D01*
X338216Y191779D01*
D02*
G37*
G36*
X328216D02*
X327154D01*
X326127Y191505D01*
X325207Y190973D01*
X324456Y190222D01*
X323925Y189302D01*
X323650Y188275D01*
Y187213D01*
X323925Y186187D01*
X324456Y185266D01*
X325207Y184515D01*
X326127Y183984D01*
X327154Y183709D01*
X328216D01*
X329243Y183984D01*
X330163Y184515D01*
X330914Y185266D01*
X331446Y186187D01*
X331720Y187213D01*
Y188275D01*
X331446Y189302D01*
X330914Y190222D01*
X330163Y190973D01*
X329243Y191505D01*
X328216Y191779D01*
D02*
G37*
G36*
X338685Y181874D02*
Y178744D01*
X341815D01*
X341644Y179384D01*
X341084Y180352D01*
X340293Y181143D01*
X339325Y181703D01*
X338685Y181874D01*
D02*
G37*
G36*
X336685Y181874D02*
X336045Y181703D01*
X335077Y181143D01*
X334286Y180352D01*
X333727Y179384D01*
X333555Y178744D01*
X336685D01*
Y181874D01*
D02*
G37*
G36*
X422539Y181494D02*
Y178156D01*
X423747D01*
Y180148D01*
X423642Y180676D01*
X423343Y181124D01*
X422895Y181423D01*
X422539Y181494D01*
D02*
G37*
G36*
X420539D02*
X420184Y181423D01*
X419736Y181124D01*
X419437Y180676D01*
X419332Y180148D01*
Y178156D01*
X420539D01*
Y181494D01*
D02*
G37*
G36*
X388039D02*
Y178156D01*
X389247D01*
Y180148D01*
X389142Y180676D01*
X388843Y181124D01*
X388395Y181423D01*
X388039Y181494D01*
D02*
G37*
G36*
X386039D02*
X385684Y181423D01*
X385236Y181124D01*
X384937Y180676D01*
X384832Y180148D01*
Y178156D01*
X386039D01*
Y181494D01*
D02*
G37*
G36*
X356039D02*
Y178156D01*
X357247D01*
Y180148D01*
X357142Y180676D01*
X356843Y181124D01*
X356395Y181423D01*
X356039Y181494D01*
D02*
G37*
G36*
X354039D02*
X353684Y181423D01*
X353236Y181124D01*
X352937Y180676D01*
X352832Y180148D01*
Y178156D01*
X354039D01*
Y181494D01*
D02*
G37*
G36*
X328216Y181780D02*
X327154D01*
X326127Y181504D01*
X325207Y180973D01*
X324456Y180222D01*
X323925Y179302D01*
X323650Y178275D01*
Y177213D01*
X323925Y176187D01*
X324456Y175266D01*
X325207Y174515D01*
X326127Y173984D01*
X327154Y173709D01*
X328216D01*
X329243Y173984D01*
X330163Y174515D01*
X330914Y175266D01*
X331446Y176187D01*
X331720Y177213D01*
Y178275D01*
X331446Y179302D01*
X330914Y180222D01*
X330163Y180973D01*
X329243Y181504D01*
X328216Y181780D01*
D02*
G37*
G36*
X341815Y176744D02*
X338685D01*
Y173614D01*
X339325Y173785D01*
X340293Y174345D01*
X341084Y175136D01*
X341644Y176104D01*
X341815Y176744D01*
D02*
G37*
G36*
X336685D02*
X333555D01*
X333727Y176104D01*
X334286Y175136D01*
X335077Y174345D01*
X336045Y173785D01*
X336685Y173614D01*
Y176744D01*
D02*
G37*
G36*
X423747Y176155D02*
X422539D01*
Y172817D01*
X422895Y172888D01*
X423343Y173187D01*
X423642Y173635D01*
X423747Y174163D01*
Y176155D01*
D02*
G37*
G36*
X420539D02*
X419332D01*
Y174163D01*
X419437Y173635D01*
X419736Y173187D01*
X420184Y172888D01*
X420539Y172817D01*
Y176155D01*
D02*
G37*
G36*
X389247D02*
X388039D01*
Y172817D01*
X388395Y172888D01*
X388843Y173187D01*
X389142Y173635D01*
X389247Y174163D01*
Y176155D01*
D02*
G37*
G36*
X386039D02*
X384832D01*
Y174163D01*
X384937Y173635D01*
X385236Y173187D01*
X385684Y172888D01*
X386039Y172817D01*
Y176155D01*
D02*
G37*
G36*
X357247D02*
X356039D01*
Y172817D01*
X356395Y172888D01*
X356843Y173187D01*
X357142Y173635D01*
X357247Y174163D01*
Y176155D01*
D02*
G37*
G36*
X354039D02*
X352832D01*
Y174163D01*
X352937Y173635D01*
X353236Y173187D01*
X353684Y172888D01*
X354039Y172817D01*
Y176155D01*
D02*
G37*
G36*
X329748Y165939D02*
Y157287D01*
X338400D01*
X338038Y159106D01*
X337310Y160864D01*
X336252Y162446D01*
X334907Y163792D01*
X333324Y164849D01*
X331566Y165577D01*
X329748Y165939D01*
D02*
G37*
G36*
X327748D02*
X325930Y165577D01*
X324172Y164849D01*
X322589Y163792D01*
X321244Y162446D01*
X320186Y160864D01*
X319458Y159106D01*
X319096Y157287D01*
X327748D01*
Y165939D01*
D02*
G37*
G36*
X435319Y165917D02*
X432169D01*
X431708Y165825D01*
X431318Y165564D01*
X431057Y165173D01*
X430965Y164713D01*
Y154476D01*
X431057Y154016D01*
X431318Y153625D01*
X431708Y153364D01*
X432169Y153272D01*
X435319D01*
X435780Y153364D01*
X436170Y153625D01*
X436432Y154016D01*
X436523Y154476D01*
Y164713D01*
X436432Y165173D01*
X436170Y165564D01*
X435780Y165825D01*
X435319Y165917D01*
D02*
G37*
G36*
X415831D02*
X412681D01*
X412220Y165825D01*
X411830Y165564D01*
X411568Y165173D01*
X411477Y164713D01*
Y154476D01*
X411568Y154016D01*
X411830Y153625D01*
X412220Y153364D01*
X412681Y153272D01*
X415831D01*
X416292Y153364D01*
X416682Y153625D01*
X416943Y154016D01*
X417035Y154476D01*
Y164713D01*
X416943Y165173D01*
X416682Y165564D01*
X416292Y165825D01*
X415831Y165917D01*
D02*
G37*
G36*
X400819D02*
X397669D01*
X397208Y165825D01*
X396818Y165564D01*
X396557Y165173D01*
X396465Y164713D01*
Y154476D01*
X396557Y154016D01*
X396818Y153625D01*
X397208Y153364D01*
X397669Y153272D01*
X400819D01*
X401280Y153364D01*
X401670Y153625D01*
X401931Y154016D01*
X402023Y154476D01*
Y164713D01*
X401931Y165173D01*
X401670Y165564D01*
X401280Y165825D01*
X400819Y165917D01*
D02*
G37*
G36*
X381331D02*
X378181D01*
X377720Y165825D01*
X377330Y165564D01*
X377069Y165173D01*
X376977Y164713D01*
Y154476D01*
X377069Y154016D01*
X377330Y153625D01*
X377720Y153364D01*
X378181Y153272D01*
X381331D01*
X381792Y153364D01*
X382182Y153625D01*
X382443Y154016D01*
X382535Y154476D01*
Y164713D01*
X382443Y165173D01*
X382182Y165564D01*
X381792Y165825D01*
X381331Y165917D01*
D02*
G37*
G36*
X368819D02*
X365669D01*
X365209Y165825D01*
X364818Y165564D01*
X364557Y165173D01*
X364465Y164713D01*
Y154476D01*
X364557Y154016D01*
X364818Y153625D01*
X365209Y153364D01*
X365669Y153272D01*
X368819D01*
X369280Y153364D01*
X369670Y153625D01*
X369932Y154016D01*
X370023Y154476D01*
Y164713D01*
X369932Y165173D01*
X369670Y165564D01*
X369280Y165825D01*
X368819Y165917D01*
D02*
G37*
G36*
X349331D02*
X346181D01*
X345720Y165825D01*
X345330Y165564D01*
X345069Y165173D01*
X344977Y164713D01*
Y154476D01*
X345069Y154016D01*
X345330Y153625D01*
X345720Y153364D01*
X346181Y153272D01*
X349331D01*
X349792Y153364D01*
X350182Y153625D01*
X350443Y154016D01*
X350535Y154476D01*
Y164713D01*
X350443Y165173D01*
X350182Y165564D01*
X349792Y165825D01*
X349331Y165917D01*
D02*
G37*
G36*
X422539Y150744D02*
Y147406D01*
X423747D01*
Y149398D01*
X423642Y149926D01*
X423343Y150374D01*
X422895Y150673D01*
X422539Y150744D01*
D02*
G37*
G36*
X420539D02*
X420184Y150673D01*
X419736Y150374D01*
X419437Y149926D01*
X419332Y149398D01*
Y147406D01*
X420539D01*
Y150744D01*
D02*
G37*
G36*
X388039D02*
Y147406D01*
X389247D01*
Y149398D01*
X389142Y149926D01*
X388843Y150374D01*
X388395Y150673D01*
X388039Y150744D01*
D02*
G37*
G36*
X386039D02*
X385684Y150673D01*
X385236Y150374D01*
X384937Y149926D01*
X384832Y149398D01*
Y147406D01*
X386039D01*
Y150744D01*
D02*
G37*
G36*
X356039D02*
Y147406D01*
X357247D01*
Y149398D01*
X357142Y149926D01*
X356843Y150374D01*
X356395Y150673D01*
X356039Y150744D01*
D02*
G37*
G36*
X354039D02*
X353684Y150673D01*
X353236Y150374D01*
X352937Y149926D01*
X352832Y149398D01*
Y147406D01*
X354039D01*
Y150744D01*
D02*
G37*
G36*
X338400Y155287D02*
X329748D01*
Y146636D01*
X331566Y146997D01*
X333324Y147726D01*
X334907Y148783D01*
X336252Y150129D01*
X337310Y151711D01*
X338038Y153469D01*
X338400Y155287D01*
D02*
G37*
G36*
X327748D02*
X319096D01*
X319458Y153469D01*
X320186Y151711D01*
X321244Y150129D01*
X322589Y148783D01*
X324172Y147726D01*
X325930Y146997D01*
X327748Y146636D01*
Y155287D01*
D02*
G37*
G36*
X383756Y347500D02*
X382430D01*
Y347329D01*
X382533Y346812D01*
X382826Y346374D01*
X383264Y346081D01*
X383756Y345983D01*
Y347500D01*
D02*
G37*
G36*
X383772Y345555D02*
Y344500D01*
X384748D01*
X384684Y344823D01*
X384408Y345235D01*
X383996Y345510D01*
X383772Y345555D01*
D02*
G37*
G36*
X384748Y342500D02*
X383772D01*
Y341445D01*
X383996Y341490D01*
X384408Y341765D01*
X384684Y342177D01*
X384748Y342500D01*
D02*
G37*
G36*
X400819Y227417D02*
X397669D01*
X397208Y227325D01*
X396818Y227064D01*
X396557Y226673D01*
X396465Y226213D01*
Y215976D01*
X396557Y215515D01*
X396818Y215125D01*
X397208Y214864D01*
X397669Y214772D01*
X400819D01*
X401280Y214864D01*
X401670Y215125D01*
X401931Y215515D01*
X402023Y215976D01*
Y226213D01*
X401931Y226673D01*
X401670Y227064D01*
X401280Y227325D01*
X400819Y227417D01*
D02*
G37*
%LPD*%
D12*
X442000Y232173D02*
Y232500D01*
X379114Y343614D02*
X379236Y343736D01*
X320000Y236000D02*
Y237000D01*
X535500Y181043D02*
Y182500D01*
Y181043D02*
X542742Y173801D01*
X543199D01*
X543500Y173500D01*
X360000Y167500D02*
X373500Y181000D01*
X360000Y146983D02*
Y167500D01*
X373500Y181000D02*
Y227772D01*
X360000Y176448D02*
Y198000D01*
X371000Y209000D01*
Y232173D01*
X378728Y239902D01*
X360000Y207848D02*
Y228173D01*
X378728Y246902D01*
X316571Y218429D02*
X326000Y209000D01*
X316571Y218429D02*
Y232571D01*
X321000Y368500D02*
X329000D01*
X359444Y274870D02*
X360574Y276000D01*
X358885Y273844D02*
Y274270D01*
X359444Y274829D02*
Y274870D01*
X360574Y276000D02*
X376500D01*
X358885Y274270D02*
X359444Y274829D01*
X316571Y232571D02*
X320000Y236000D01*
X399500Y281000D02*
X410000D01*
X328000Y255772D02*
Y276000D01*
X326571Y254343D02*
X328000Y255772D01*
X326571Y232571D02*
Y254343D01*
X321000Y227000D02*
X326571Y232571D01*
X324957Y276043D02*
X334000D01*
X333740Y276260D02*
X341740D01*
X324000Y277000D02*
X324957Y276043D01*
X322779Y295280D02*
X352387D01*
X354000Y293667D01*
X321500Y294000D02*
X322779Y295280D01*
X321000Y339000D02*
X337140D01*
X360214Y362075D01*
X374838D01*
X391189Y345724D01*
Y336400D02*
Y345724D01*
X369000Y359500D02*
X370000Y358500D01*
Y352009D02*
Y358500D01*
X362500Y359500D02*
X369000D01*
X371000Y350888D02*
Y351009D01*
X370000Y352009D02*
X371000Y351009D01*
X320500Y417500D02*
X353500D01*
X412843Y358157D01*
X320000Y373500D02*
X376727D01*
X371524Y383157D02*
X398907Y355775D01*
X320133Y383157D02*
X371524D01*
X320000Y398000D02*
X363363D01*
X319500Y402500D02*
X361090D01*
X320761Y407500D02*
X358317D01*
X321000Y412500D02*
X355500D01*
X355283Y309000D02*
X363419Y317136D01*
X321000Y309000D02*
X355283D01*
X320783Y323716D02*
X372600D01*
X365875Y329000D02*
X369033Y325841D01*
X320906Y329000D02*
X365875D01*
X320000Y304343D02*
X352235D01*
X320500Y319000D02*
X362066D01*
X364139Y321073D01*
X320500Y343500D02*
X321000Y344000D01*
X338500D01*
X363000Y368500D01*
X379500D01*
X320500Y334000D02*
X367667D01*
X368000Y329102D02*
Y333667D01*
X367667Y334000D02*
X368000Y333667D01*
X369033Y325841D02*
X372444D01*
X364139Y321073D02*
X369761D01*
X370094Y321592D02*
X370250Y321748D01*
X370094Y321406D02*
Y321592D01*
X369761Y321073D02*
X370094Y321406D01*
X370250Y321748D02*
X372600D01*
X320500Y314000D02*
X358674D01*
X370094Y319623D02*
X370250Y319779D01*
X363779Y319105D02*
X369761D01*
X358674Y314000D02*
X363779Y319105D01*
X369761D02*
X370094Y319438D01*
Y319623D01*
X370250Y319779D02*
X372600D01*
X369761Y317136D02*
X370094Y317469D01*
X363419Y317136D02*
X369761D01*
X370094Y317469D02*
Y317655D01*
X370250Y317811D02*
X372600D01*
X370094Y317655D02*
X370250Y317811D01*
X352235Y304343D02*
X363059Y315168D01*
X369761D01*
X370094Y315501D02*
Y315686D01*
X369761Y315168D02*
X370094Y315501D01*
Y315686D02*
X370250Y315843D01*
X372600D01*
X349000Y299500D02*
X362699Y313199D01*
X320500Y299500D02*
X349000D01*
X370094Y313532D02*
Y313718D01*
X362699Y313199D02*
X369392D01*
X369392Y313199D01*
X369761D02*
X370094Y313532D01*
X369392Y313199D02*
X369761D01*
X370094Y313718D02*
X370250Y313874D01*
X372600D01*
X357000Y298000D02*
X363032Y304031D01*
X372600D01*
X354000Y289630D02*
Y293667D01*
X379500Y368500D02*
X393001Y354999D01*
X320500Y378000D02*
X374454D01*
X396938Y355516D01*
X376727Y373500D02*
X395126Y355101D01*
X320500Y388000D02*
X368908D01*
X400875Y356033D01*
X412843Y336400D02*
Y358157D01*
X408906Y336400D02*
Y356911D01*
X355500Y412500D02*
X360083Y407917D01*
X410874Y336400D02*
Y357170D01*
X358317Y407500D02*
X408906Y356911D01*
X360127Y407917D02*
X410874Y357170D01*
X360083Y407917D02*
X360127D01*
X363363Y398000D02*
X404969Y356394D01*
X406937Y336400D02*
Y356653D01*
X400875Y336556D02*
Y356033D01*
X404969Y336400D02*
Y356394D01*
X361090Y402500D02*
X406937Y356653D01*
X402844Y336556D02*
Y356292D01*
X366195Y392941D02*
X402844Y356292D01*
X320500Y392941D02*
X366195D01*
X400000Y285500D02*
Y289000D01*
Y285496D02*
Y285500D01*
X399785Y285285D02*
X400000Y285500D01*
X348445Y277055D02*
Y281000D01*
X341740Y276260D02*
X360000Y258000D01*
X322500Y278000D02*
X322957Y277543D01*
X426461Y167961D02*
X440000Y181500D01*
X426461Y146405D02*
Y167961D01*
X440000Y181500D02*
Y230500D01*
X437500Y207000D02*
Y227000D01*
X426461Y195961D02*
X437500Y207000D01*
X426461Y177155D02*
Y195961D01*
X433500Y231000D02*
X437500Y227000D01*
X433500Y231000D02*
Y235772D01*
X429000Y227500D02*
X431500Y230000D01*
X429000Y212610D02*
Y227500D01*
X426461Y210071D02*
X429000Y212610D01*
X426461Y207906D02*
Y210071D01*
X438500Y232130D02*
X440000Y230630D01*
X391961Y164961D02*
X409728Y182728D01*
X391961Y146405D02*
Y164961D01*
X409728Y182728D02*
Y233500D01*
X404343Y214342D02*
Y235016D01*
X395000Y182360D02*
Y205000D01*
X404343Y214342D01*
X391961Y179321D02*
X395000Y182360D01*
X409728Y233500D02*
Y233598D01*
X391961Y177155D02*
Y179321D01*
Y207906D02*
Y229634D01*
X409728Y247402D01*
X378728Y246902D02*
Y247000D01*
X360000Y238500D02*
X363228D01*
X378039Y253311D01*
X378138D01*
X378728Y253902D01*
Y254000D01*
X399500Y281000D02*
X399785Y281285D01*
X379408Y285000D02*
X379500D01*
X398833Y281000D02*
X399219D01*
X381000Y330500D02*
X383315Y332815D01*
Y336400D01*
X384500Y326227D02*
Y333083D01*
X384609Y333561D02*
X384942Y333894D01*
X384500Y333083D02*
X384609Y333192D01*
X385283Y334050D02*
Y336400D01*
X384609Y333192D02*
Y333561D01*
X385127Y333894D02*
X385283Y334050D01*
X384942Y333894D02*
X385127D01*
X500000Y422955D02*
Y423000D01*
X498380Y420380D02*
Y421335D01*
X500000Y422955D01*
X468426Y420380D02*
X498380D01*
X414811Y368992D02*
X468774Y422955D01*
X495000D01*
X416780Y368734D02*
X468426Y420380D01*
X354500Y276000D02*
Y279000D01*
X356000Y280500D01*
X378641D01*
X437925Y247205D02*
Y254925D01*
Y247205D02*
X438228Y246902D01*
X437925Y254925D02*
X442205Y259206D01*
Y289794D01*
X436063Y266396D02*
X440631Y270964D01*
X436063Y244063D02*
Y266396D01*
X409728Y239598D02*
X422500Y252370D01*
Y256286D01*
X441000Y237000D02*
X441301Y237301D01*
Y239931D01*
X378728Y254098D02*
X381130Y256500D01*
X391574Y252000D02*
X392074Y252500D01*
X381130Y256500D02*
X406783D01*
X392074Y252500D02*
X392500D01*
X406783Y256500D02*
X422529Y272246D01*
X389574Y254000D02*
X391574Y252000D01*
X471592Y428000D02*
X501000D01*
X505000Y424000D01*
Y422301D02*
Y424000D01*
X476500Y395000D02*
X521000D01*
X458000Y376500D02*
X476500Y395000D01*
X521000D02*
X522120Y393880D01*
X475000Y396500D02*
X528955D01*
X457000Y378500D02*
X475000Y396500D01*
X514634Y148500D02*
X520000D01*
X534000Y396029D02*
Y396455D01*
X531880Y393880D02*
X533435Y395435D01*
Y395464D01*
X534000Y396029D01*
X456500Y380500D02*
X475156Y399156D01*
X541156D01*
X543000Y401000D01*
X522120Y393880D02*
X531880D01*
X528955Y396500D02*
X529000Y396455D01*
X522500Y361000D02*
X531500D01*
X521819Y361681D02*
X522500Y361000D01*
X432181Y361681D02*
X521819D01*
X520500Y166500D02*
X520575Y166425D01*
X531425D01*
X534000Y169000D01*
X432592Y389000D02*
X471592Y428000D01*
X424500Y389000D02*
X432592D01*
X414811Y336400D02*
Y368992D01*
X490500Y144000D02*
X513500D01*
X472500Y162000D02*
X490500Y144000D01*
X513500D02*
X514500Y145000D01*
X481000Y210500D02*
Y273273D01*
X518000Y173500D02*
X543500D01*
X481000Y210500D02*
X518000Y173500D01*
X479212Y210288D02*
X520500Y169000D01*
X479212Y210288D02*
Y271396D01*
X520500Y169000D02*
X529000D01*
X478075Y208925D02*
X520410Y166590D01*
X478075Y208925D02*
Y270925D01*
X448879Y303167D02*
X479212Y271396D01*
X484374Y236017D02*
X518966Y201425D01*
X484374Y236017D02*
Y274626D01*
X518966Y201425D02*
X529000D01*
X485949Y236051D02*
X518000Y204000D01*
X541500D01*
X485949Y236051D02*
Y275278D01*
X483132Y234766D02*
X518137Y200363D01*
X482799Y235099D02*
X483132Y234766D01*
X518137Y200363D02*
X519711Y198850D01*
X519943Y198850D01*
X482799Y235170D02*
X482799Y235099D01*
X482799Y235170D02*
Y273701D01*
X519943Y198850D02*
X531350D01*
X448000Y311000D02*
X484374Y274626D01*
X541500Y204000D02*
X543500Y206000D01*
X531350Y198850D02*
X533925Y201425D01*
X534000D01*
X500425Y251575D02*
X520568Y231432D01*
X502000Y251608D02*
Y263773D01*
X503575Y251642D02*
Y265846D01*
X516717Y238500D02*
X543500D01*
X520568Y231432D02*
X531432D01*
X500425Y251575D02*
Y263121D01*
X519602Y234006D02*
X529000D01*
X503575Y251642D02*
X516717Y238500D01*
X502000Y251608D02*
X519602Y234006D01*
X518395Y266496D02*
X523996D01*
X444483Y325403D02*
X457880D01*
X519362Y263921D02*
X531425D01*
X457892Y327000D02*
X518395Y266496D01*
X453500Y333000D02*
X515500Y271000D01*
X543500D01*
X457880Y325403D02*
X519362Y263921D01*
X442908Y327000D02*
X457892D01*
X444500Y333000D02*
X453500D01*
X480500Y336000D02*
X520089Y296411D01*
X441500Y338000D02*
X480108D01*
X442000Y342000D02*
X477717D01*
X480108Y338000D02*
X519123Y298986D01*
X529000D01*
X442500Y336000D02*
X480500D01*
X477717Y342000D02*
X518156Y301561D01*
X520089Y296411D02*
X531911D01*
X518156Y301561D02*
X541561D01*
X520599Y328901D02*
X531901D01*
X502000Y347500D02*
X520599Y328901D01*
X443500Y347500D02*
X502000D01*
X520500Y331500D02*
X528975D01*
X502500Y349500D02*
X520500Y331500D01*
X435000Y349500D02*
X502500D01*
X520450Y334050D02*
X541302D01*
X439000Y353000D02*
X501500D01*
X520450Y334050D01*
X534000Y363539D02*
Y363965D01*
X533440Y362979D02*
X534000Y363539D01*
X432130Y364130D02*
X528835D01*
X422841Y354841D02*
X432130Y364130D01*
X444500Y368500D02*
X543500D01*
X531500Y361000D02*
X533440Y362940D01*
X528835Y364130D02*
X529000Y363965D01*
X531425Y263921D02*
X534000Y266496D01*
X531432Y231432D02*
X534000Y234000D01*
X447005Y322417D02*
X503575Y265846D01*
X447773Y306500D02*
X481000Y273273D01*
X447000Y309500D02*
X482799Y273701D01*
X447000Y302000D02*
X478075Y270925D01*
X444500Y306500D02*
X447773D01*
X444150Y322406D02*
Y325070D01*
X444483Y325403D01*
X442575Y326667D02*
X442908Y327000D01*
X442575Y323058D02*
Y326667D01*
X523996Y266496D02*
X524204Y266496D01*
X529000D01*
X533451Y297951D02*
Y298010D01*
X534000Y298560D02*
Y298986D01*
X531911Y296411D02*
X533451Y297951D01*
Y298010D02*
X534000Y298560D01*
X533445Y330445D02*
Y330495D01*
X532800Y329800D02*
X533445Y330445D01*
X534000Y331049D02*
Y331475D01*
X532800Y329800D02*
Y329800D01*
X533445Y330495D02*
X534000Y331049D01*
X531901Y328901D02*
X532800Y329800D01*
X533440Y362940D02*
Y362979D01*
X442000Y303500D02*
X448546D01*
X448879Y303167D01*
X541561Y301561D02*
X543500Y303500D01*
X528975Y331500D02*
X529000Y331475D01*
X541302Y334050D02*
X543251Y336000D01*
X424810Y354310D02*
X432181Y361681D01*
X382870Y343500D02*
X383000D01*
X381347Y341976D02*
X382870Y343500D01*
X381347Y336400D02*
Y341976D01*
X514500Y148366D02*
X514634Y148500D01*
X372500Y348500D02*
X379244D01*
X371292Y349708D02*
X372500Y348500D01*
X371292Y349708D02*
Y350708D01*
X416780Y273250D02*
Y275600D01*
X415000Y270000D02*
Y272362D01*
X422841Y336556D02*
Y354841D01*
X442500Y376500D02*
X458000D01*
X420873Y354873D02*
X442500Y376500D01*
X420873Y336556D02*
Y354873D01*
X418904Y336556D02*
Y355404D01*
X442000Y378500D02*
X457000D01*
X418904Y355404D02*
X442000Y378500D01*
X505301Y422301D02*
X510301D01*
X514000Y426000D01*
Y429366D01*
X505000Y422000D02*
X505301Y422301D01*
X373500Y290000D02*
X375500D01*
X372600Y290252D02*
X373500D01*
X514500Y145000D02*
Y148366D01*
X472500Y162000D02*
Y272000D01*
X438796Y302063D02*
X470925Y269934D01*
Y159075D02*
Y269934D01*
X445500Y299000D02*
X472500Y272000D01*
X433400Y302063D02*
X438796D01*
X433400Y300095D02*
X438587D01*
X469350Y154650D02*
Y269331D01*
X438587Y300095D02*
X469350Y269331D01*
X439241Y304031D02*
X441273Y302000D01*
X447000D01*
X439656Y305844D02*
X442000Y303500D01*
X437553Y311000D02*
X448000D01*
X436646Y310093D02*
X437553Y311000D01*
X436286Y308125D02*
X437662Y309500D01*
X447000D01*
X433556Y310093D02*
X436646D01*
X433556Y308125D02*
X436286D01*
X433400Y307968D02*
X433556Y308125D01*
X433400Y309937D02*
X433556Y310093D01*
X444500Y314000D02*
X447227D01*
X485949Y275278D01*
X426622Y341122D02*
X435000Y349500D01*
X428876Y284347D02*
X433400D01*
X427500Y283000D02*
X427529D01*
X428876Y284347D01*
X428879Y280000D02*
X429880Y279000D01*
X423576Y280924D02*
X424500Y280000D01*
X429880Y279000D02*
X430000D01*
X424500Y280000D02*
X428879D01*
X398500Y281000D02*
X398833Y280667D01*
X420685Y281000D02*
X423419Y283734D01*
X423576Y280924D02*
Y283576D01*
X380437Y309937D02*
X383000Y312500D01*
X372600Y309937D02*
X380437D01*
X382272Y233000D02*
X382498Y233226D01*
X385774D02*
X386000Y233453D01*
X382498Y233226D02*
X385774D01*
X379378Y332122D02*
X381000Y330500D01*
X379378Y332122D02*
Y336400D01*
X384500Y326227D02*
X398500Y312227D01*
X387702Y329500D02*
Y331492D01*
X387376Y331819D02*
X387702Y331492D01*
X387376Y331819D02*
Y336276D01*
X387252Y336400D02*
X387376Y336276D01*
X389220Y332279D02*
Y336400D01*
Y332279D02*
X394500Y327000D01*
Y324000D02*
Y327000D01*
X378433Y294898D02*
X387518D01*
X387635Y294781D01*
X388453Y300047D02*
X388500Y300000D01*
X372600Y300095D02*
X372647Y300047D01*
X388453D01*
X373000Y290500D02*
X373500Y290000D01*
X375500D02*
X377500Y288000D01*
X389000D01*
X379219Y291000D02*
X382000D01*
X377998Y292220D02*
X379219Y291000D01*
X372600Y292220D02*
X377998D01*
X426000Y295884D02*
X427500Y297384D01*
Y312000D01*
X378641Y280500D02*
X381779Y283637D01*
X392137D01*
X373034Y282534D02*
X377034D01*
X379500Y285000D01*
X379744Y279244D02*
X383000Y282500D01*
X378084Y278808D02*
X378520Y279244D01*
X383000Y282500D02*
X393500D01*
X378520Y279244D02*
X379744D01*
X376500Y276000D02*
X378084Y277584D01*
Y278808D01*
X392137Y283637D02*
X395500Y287000D01*
Y310500D01*
X393500Y282500D02*
X398500Y287500D01*
Y312227D01*
X389220Y275600D02*
X389377Y275756D01*
Y278908D01*
X391469Y281000D01*
X398500D01*
X372600Y298126D02*
X377182D01*
X372600Y296158D02*
X377174D01*
X379240Y297732D02*
X379500Y297472D01*
X377174Y296158D02*
X378433Y294898D01*
X377182Y298126D02*
X377575Y297732D01*
X379240D01*
X376681Y302101D02*
X377580Y303000D01*
X380000D01*
X372600Y306000D02*
X388574D01*
X389074Y305500D01*
X372600Y302063D02*
X372638Y302101D01*
X376681D01*
X389074Y305500D02*
X389500D01*
X421571Y322929D02*
X424170Y320330D01*
X418000Y323000D02*
X421500D01*
X421571Y322929D01*
X424170Y317330D02*
Y320330D01*
X372600Y307968D02*
X386469D01*
X388000Y309500D01*
X379500Y312926D02*
Y316000D01*
X378479Y311906D02*
X379500Y312926D01*
X372600Y311906D02*
X378479D01*
X376378Y329622D02*
X395500Y310500D01*
X366500Y285500D02*
X366915D01*
X368069Y284347D01*
X372600D01*
X365033Y289523D02*
X366477D01*
X369529Y286471D02*
X372444D01*
X364000Y290555D02*
X365033Y289523D01*
X366477D02*
X369529Y286471D01*
X361350Y282378D02*
X372600D01*
X399219Y280719D02*
X399500Y281000D01*
X399219Y275756D02*
Y280719D01*
X399063Y275600D02*
X399219Y275756D01*
X410000Y281000D02*
X420685D01*
X424342Y284658D02*
X424669Y284984D01*
X397251Y264749D02*
X397500Y264500D01*
X397251Y264749D02*
Y275444D01*
X397094Y275600D02*
X397251Y275444D01*
X415000Y275000D02*
X416623D01*
X416780Y275156D01*
Y275600D01*
X400500Y267500D02*
X400622Y267622D01*
Y269425D01*
X401016Y269818D01*
Y275584D01*
X403000Y269500D02*
Y275600D01*
Y269500D02*
X405000Y267500D01*
X374950Y290252D02*
X375106Y290096D01*
X402500Y249500D02*
X424000Y271000D01*
X381130Y249500D02*
X402500D01*
X382272Y254000D02*
X389574D01*
X378728Y247098D02*
X381130Y249500D01*
X409796Y243307D02*
Y243827D01*
X413272Y247303D01*
X409494Y243006D02*
X409796Y243307D01*
X413272Y247303D02*
Y247402D01*
X409728D02*
Y247500D01*
Y239500D02*
Y239598D01*
X416880Y240500D02*
X417000D01*
X413398Y239500D02*
X415879D01*
X416880Y240500D01*
X441772Y246902D02*
Y249550D01*
X440500Y250821D02*
Y251000D01*
Y250821D02*
X441772Y249550D01*
X438500Y232130D02*
Y233000D01*
X439956Y234326D02*
X443326D01*
X445512Y236512D01*
X438630Y233000D02*
X439956Y234326D01*
X441301Y239931D02*
X441772Y240402D01*
X442000Y232173D02*
X442362Y231811D01*
X442689D01*
X443025Y231474D01*
X443699D01*
Y228301D02*
Y231474D01*
Y228301D02*
X444000Y228000D01*
X446698Y319075D02*
X502000Y263773D01*
X441000Y334500D02*
X442500Y336000D01*
X393158Y270158D02*
Y275600D01*
X391000Y268000D02*
X393158Y270158D01*
X391000Y261731D02*
X395126Y265857D01*
X391000Y261500D02*
Y261731D01*
X395126Y265857D02*
Y275600D01*
X422529Y272246D02*
Y275444D01*
X401000Y258000D02*
X408500Y265500D01*
X360000Y258000D02*
X401000D01*
X427000Y326500D02*
X427426D01*
X428580Y327654D01*
X433400D01*
X421500Y323000D02*
Y325500D01*
X425622Y329622D02*
X433400D01*
X421500Y325500D02*
X425622Y329622D01*
X429319Y318319D02*
Y324756D01*
X400000Y289000D02*
X429319Y318319D01*
X412500Y328500D02*
X418000Y323000D01*
X470925Y159075D02*
X483500Y146500D01*
X469350Y154650D02*
X477500Y146500D01*
X424163Y408837D02*
X426000Y407000D01*
X372444Y286471D02*
X372600Y286315D01*
X423576Y283576D02*
X424500Y284500D01*
X424826Y284826D02*
X426000Y286000D01*
Y286315D01*
X420873Y275756D02*
Y280873D01*
X420746Y281000D02*
X420873Y280873D01*
X426000Y286315D02*
X433400D01*
X426000D02*
Y295884D01*
X415000Y270000D02*
X415301Y270301D01*
X414967Y272395D02*
X415000Y272362D01*
X414967Y272395D02*
Y275000D01*
X401016Y275584D02*
X401031Y275600D01*
X408500Y265500D02*
Y268917D01*
X405125Y272292D02*
X408500Y268917D01*
X434500Y273500D02*
Y282222D01*
X413165Y249665D02*
X437481Y273981D01*
X410319Y248091D02*
X410367D01*
X422500Y256286D02*
X439056Y272841D01*
X411942Y249665D02*
X413165D01*
X433400Y282378D02*
X434344D01*
X437481Y273981D02*
Y287354D01*
X434344Y282378D02*
X434500Y282222D01*
X409728Y247500D02*
X410319Y248091D01*
X439056Y272841D02*
Y288006D01*
X412240Y251240D02*
X434500Y273500D01*
X410367Y248091D02*
X411942Y249665D01*
X445512Y236512D02*
Y290942D01*
X443937Y243937D02*
Y290290D01*
X436967Y290096D02*
X439056Y288006D01*
X437225Y292064D02*
X440631Y288659D01*
Y270964D02*
Y288659D01*
X438819Y240992D02*
Y242039D01*
X437638Y239811D02*
X438819Y240992D01*
X433500Y235772D02*
X437539Y239811D01*
X437638D01*
X407563Y247463D02*
Y248829D01*
X396202Y236102D02*
X407563Y247463D01*
X413522Y233250D02*
X417750D01*
X418000Y233000D01*
X413272Y233500D02*
X413522Y233250D01*
X428000Y236000D02*
X436063Y244063D01*
X439780Y243000D02*
X443000D01*
X431500Y230000D02*
Y237266D01*
X438819Y242039D02*
X439780Y243000D01*
X431500Y237266D02*
X438228Y243995D01*
X412130Y236000D02*
X428000D01*
X438228Y243995D02*
Y246902D01*
X409728Y233598D02*
X412130Y236000D01*
X437811Y294189D02*
X442205Y289794D01*
X438070Y296158D02*
X443937Y290290D01*
X438328Y298126D02*
X445512Y290942D01*
X443000Y243000D02*
X443937Y243937D01*
X382522Y246750D02*
X386750D01*
X387000Y246500D01*
X381130Y242500D02*
X398500D01*
X382272Y247000D02*
X382522Y246750D01*
X386750Y239750D02*
X387000Y239500D01*
X382522Y239750D02*
X386750D01*
X382272Y240000D02*
X382522Y239750D01*
X378728Y240098D02*
X381130Y242500D01*
X398500D02*
X426466Y270466D01*
X381732Y236102D02*
X396202D01*
X378728Y233098D02*
X381732Y236102D01*
X543251Y336000D02*
X543500D01*
X354000Y289630D02*
X356902Y286728D01*
X357000D01*
X368000Y329102D02*
X369292Y327810D01*
X379236Y343736D02*
Y348492D01*
X379244Y348500D01*
X373000Y282500D02*
X373034Y282534D01*
X357689Y286039D02*
X361350Y282378D01*
X357689Y286039D02*
Y286138D01*
X357098Y286728D02*
X357689Y286138D01*
X379303Y337197D02*
X379500Y337000D01*
X379303Y337197D02*
Y343425D01*
X379228Y343500D02*
X379303Y343425D01*
X426466Y270466D02*
Y275444D01*
X409974Y251240D02*
X412240D01*
X407563Y248829D02*
X409974Y251240D01*
X436708Y288127D02*
X437481Y287354D01*
X424000Y271000D02*
X424000D01*
X424497Y271497D01*
Y275444D01*
X429319Y324756D02*
X430011Y325448D01*
X430432D01*
X430514Y325529D01*
X433244D01*
X433400Y325685D01*
X372600Y329622D02*
X376378D01*
X420400Y275600D02*
X420500Y275500D01*
X418748Y275600D02*
X420400D01*
X420716D02*
X420873Y275756D01*
X357500Y268000D02*
X371000D01*
X348445Y277055D02*
X357500Y268000D01*
X404969Y275600D02*
X405125Y275444D01*
Y272292D02*
Y275444D01*
X369292Y327810D02*
X372444D01*
X372600Y327654D01*
X435500Y380500D02*
X456500D01*
X426622Y336400D02*
Y341122D01*
X424810Y336556D02*
Y354310D01*
X437481Y341481D02*
X443500Y347500D01*
X437481Y324646D02*
Y341481D01*
X443046Y319075D02*
X446698D01*
X446046Y317500D02*
X500425Y263121D01*
X438082Y314111D02*
X443046Y319075D01*
X443698Y317500D02*
X446046D01*
X437824Y316080D02*
X444150Y322406D01*
X438341Y312143D02*
X443698Y317500D01*
X437565Y318048D02*
X442575Y323058D01*
X436368Y312143D02*
X438341D01*
X436368Y316080D02*
X437824D01*
X439056Y335556D02*
X441500Y338000D01*
X439056Y323993D02*
Y335556D01*
X441000Y323710D02*
Y334500D01*
X437306Y320017D02*
X441000Y323710D01*
X436708Y323873D02*
X437481Y324646D01*
X437048Y321985D02*
X439056Y323993D01*
X433556Y305844D02*
X439656D01*
X433400Y298126D02*
X438328D01*
X433400Y294189D02*
X437811D01*
X433400Y296158D02*
X438070D01*
X543500Y234000D02*
Y238500D01*
X433556Y315999D02*
X436286D01*
X436368Y316080D01*
Y314111D02*
X438082D01*
X433400Y304031D02*
X439241D01*
X433556Y312062D02*
X436286D01*
X436368Y312143D01*
X433400Y311906D02*
X433556Y312062D01*
X436286Y314030D02*
X436368Y314111D01*
X433556Y314030D02*
X436286D01*
X433400Y313874D02*
X433556Y314030D01*
X433400Y315843D02*
X433556Y315999D01*
X436286Y317967D02*
X436368Y318048D01*
X433400Y317811D02*
X433556Y317967D01*
X436286D01*
X436368Y318048D02*
X437565D01*
X416780Y336400D02*
Y368734D01*
X436368Y320017D02*
X437306D01*
X436286Y319936D02*
X436368Y320017D01*
X433556Y319936D02*
X436286D01*
X433400Y319779D02*
X433556Y319936D01*
X436368Y321985D02*
X437048D01*
X436286Y321904D02*
X436368Y321985D01*
X433400Y321748D02*
X433556Y321904D01*
X436286D01*
X433556Y323873D02*
X436708D01*
X433400Y323716D02*
X433556Y323873D01*
X433400Y306000D02*
X433556Y305844D01*
X424653Y336400D02*
X424810Y336556D01*
X422685Y336400D02*
X422841Y336556D01*
X420716Y336400D02*
X420873Y336556D01*
X418748Y336400D02*
X418904Y336556D01*
X543500Y201500D02*
Y206000D01*
Y201500D02*
X545500Y199500D01*
X543500Y234000D02*
X545250Y232250D01*
X548866D01*
X543500Y266500D02*
Y271000D01*
Y266500D02*
X545000Y265000D01*
X543500Y299000D02*
Y303500D01*
Y299000D02*
X544750Y297750D01*
X543500Y331500D02*
Y336000D01*
Y331500D02*
X544500Y330500D01*
X543500Y364000D02*
Y368500D01*
Y364000D02*
X544250Y363250D01*
X543000Y397000D02*
Y401000D01*
Y397000D02*
X544000Y396000D01*
X396938Y336556D02*
Y355516D01*
X398907Y336556D02*
Y355775D01*
X393001Y336556D02*
Y354999D01*
X395126Y336400D02*
Y355101D01*
X372444Y325841D02*
X372600Y325685D01*
X393001Y336556D02*
X393158Y336400D01*
X396938Y336556D02*
X397094Y336400D01*
X398907Y336556D02*
X399063Y336400D01*
X400875Y336556D02*
X401031Y336400D01*
X402844Y336556D02*
X403000Y336400D01*
X545500Y199500D02*
X548866D01*
X545000Y265000D02*
X548866D01*
X544750Y297750D02*
X548866D01*
X544500Y330500D02*
X548866D01*
X544250Y363250D02*
X548866D01*
X544000Y396000D02*
X548866D01*
X378728Y239902D02*
Y240000D01*
Y240098D01*
X373500Y227772D02*
X378728Y233000D01*
Y233098D01*
X433556Y292064D02*
X437225D01*
X433556Y288127D02*
X436708D01*
X433556Y290096D02*
X436967D01*
X433400Y292220D02*
X433556Y292064D01*
X433400Y290252D02*
X433556Y290096D01*
X433400Y288283D02*
X433556Y288127D01*
X426466Y275444D02*
X426622Y275600D01*
X424497Y275444D02*
X424653Y275600D01*
X422529Y275444D02*
X422685Y275600D01*
X404343Y235016D02*
X409327Y240000D01*
D18*
X535134Y182000D02*
D03*
X526866D02*
D03*
X557134Y199500D02*
D03*
X548866D02*
D03*
X557134Y232250D02*
D03*
X548866D02*
D03*
X557134Y265000D02*
D03*
X548866D02*
D03*
X557134Y297750D02*
D03*
X548866D02*
D03*
X557134Y330500D02*
D03*
X548866D02*
D03*
Y363250D02*
D03*
X557134D02*
D03*
X548866Y396000D02*
D03*
X557134D02*
D03*
D19*
X320133Y343606D02*
D03*
Y338685D02*
D03*
Y333764D02*
D03*
Y328842D02*
D03*
Y323921D02*
D03*
Y319000D02*
D03*
Y314079D02*
D03*
Y309157D02*
D03*
Y304236D02*
D03*
Y299315D02*
D03*
Y294394D02*
D03*
Y417606D02*
D03*
Y412685D02*
D03*
Y407764D02*
D03*
Y402843D02*
D03*
Y397921D02*
D03*
Y393000D02*
D03*
Y388079D02*
D03*
Y383157D02*
D03*
Y378236D02*
D03*
Y373315D02*
D03*
Y368394D02*
D03*
D20*
X347756Y251594D02*
D03*
X367244D02*
D03*
X347756Y190345D02*
D03*
X367244D02*
D03*
X347756Y159595D02*
D03*
X367244D02*
D03*
X347756Y221094D02*
D03*
X367244D02*
D03*
X379756Y190345D02*
D03*
X399244D02*
D03*
X379756Y159595D02*
D03*
X399244D02*
D03*
X379756Y221094D02*
D03*
X399244D02*
D03*
X414256Y159595D02*
D03*
X433744D02*
D03*
X414256Y190345D02*
D03*
X433744D02*
D03*
X414256Y221094D02*
D03*
X433744D02*
D03*
D21*
X359961Y238405D02*
D03*
X355039D02*
D03*
X359961Y177155D02*
D03*
X355039D02*
D03*
X359961Y146405D02*
D03*
X355039D02*
D03*
X359961Y207906D02*
D03*
X355039D02*
D03*
X391961Y177155D02*
D03*
X387039D02*
D03*
X391961Y146405D02*
D03*
X387039D02*
D03*
X391961Y207906D02*
D03*
X387039D02*
D03*
X426461Y146405D02*
D03*
X421539D02*
D03*
X426461Y177155D02*
D03*
X421539D02*
D03*
X426461Y207906D02*
D03*
X421539D02*
D03*
D22*
X514500Y148366D02*
D03*
Y156634D02*
D03*
X514000Y437634D02*
D03*
Y429366D02*
D03*
D23*
X348445Y281000D02*
D03*
X341555D02*
D03*
D24*
X322500Y276260D02*
D03*
Y258740D02*
D03*
D25*
X334000Y276043D02*
D03*
Y272500D02*
D03*
X357000Y290272D02*
D03*
Y286728D02*
D03*
D26*
X382272Y233000D02*
D03*
X378728D02*
D03*
X409728Y239500D02*
D03*
X413272D02*
D03*
X438228Y232500D02*
D03*
X441772D02*
D03*
X438228Y246902D02*
D03*
X441772D02*
D03*
X438228Y240402D02*
D03*
X441772D02*
D03*
X378728Y240000D02*
D03*
X382272D02*
D03*
X409728Y247402D02*
D03*
X413272D02*
D03*
X378728Y247000D02*
D03*
X382272D02*
D03*
Y254000D02*
D03*
X378728D02*
D03*
X409728Y233500D02*
D03*
X413272D02*
D03*
X379228Y343500D02*
D03*
X382772D02*
D03*
D27*
X379378Y275600D02*
D03*
X381347D02*
D03*
X383315D02*
D03*
X385283D02*
D03*
X387252D02*
D03*
X389220D02*
D03*
X391189D02*
D03*
X393158D02*
D03*
X395126D02*
D03*
X397094D02*
D03*
X399063D02*
D03*
X401031D02*
D03*
X403000D02*
D03*
X404969D02*
D03*
X406937D02*
D03*
X408906D02*
D03*
X410874D02*
D03*
X412843D02*
D03*
X414811D02*
D03*
X416780D02*
D03*
X418748D02*
D03*
X420716D02*
D03*
X422685D02*
D03*
X424653D02*
D03*
X426622D02*
D03*
Y336400D02*
D03*
X424653D02*
D03*
X422685D02*
D03*
X420716D02*
D03*
X418748D02*
D03*
X416780D02*
D03*
X414811D02*
D03*
X412843D02*
D03*
X410874D02*
D03*
X408906D02*
D03*
X406937D02*
D03*
X404969D02*
D03*
X403000D02*
D03*
X401031D02*
D03*
X399063D02*
D03*
X397094D02*
D03*
X395126D02*
D03*
X393158D02*
D03*
X391189D02*
D03*
X389220D02*
D03*
X387252D02*
D03*
X385283D02*
D03*
X383315D02*
D03*
X381347D02*
D03*
X379378D02*
D03*
D28*
X433400Y282378D02*
D03*
Y284347D02*
D03*
Y286315D02*
D03*
Y288283D02*
D03*
Y290252D02*
D03*
Y292220D02*
D03*
Y294189D02*
D03*
Y296158D02*
D03*
Y298126D02*
D03*
Y300095D02*
D03*
Y302063D02*
D03*
Y304031D02*
D03*
Y306000D02*
D03*
Y307968D02*
D03*
Y309937D02*
D03*
Y311906D02*
D03*
Y313874D02*
D03*
Y315843D02*
D03*
Y317811D02*
D03*
Y319779D02*
D03*
Y321748D02*
D03*
Y323716D02*
D03*
Y325685D02*
D03*
Y327654D02*
D03*
Y329622D02*
D03*
X372600D02*
D03*
Y327654D02*
D03*
Y325685D02*
D03*
Y323716D02*
D03*
Y321748D02*
D03*
Y319779D02*
D03*
Y317811D02*
D03*
Y315843D02*
D03*
Y313874D02*
D03*
Y311906D02*
D03*
Y309937D02*
D03*
Y307968D02*
D03*
Y306000D02*
D03*
Y304031D02*
D03*
Y302063D02*
D03*
Y300095D02*
D03*
Y298126D02*
D03*
Y296158D02*
D03*
Y294189D02*
D03*
Y292220D02*
D03*
Y290252D02*
D03*
Y288283D02*
D03*
Y286315D02*
D03*
Y284347D02*
D03*
Y282378D02*
D03*
D29*
X364000Y290555D02*
D03*
Y297445D02*
D03*
D30*
X384756Y348500D02*
D03*
X379244D02*
D03*
D43*
X560189Y184500D02*
D03*
X572000D02*
D03*
X560189Y217214D02*
D03*
X572000D02*
D03*
X537094Y155255D02*
D03*
X548906D02*
D03*
X560189Y249929D02*
D03*
X572000D02*
D03*
Y282643D02*
D03*
X560189D02*
D03*
Y315357D02*
D03*
X572000D02*
D03*
X560189Y380786D02*
D03*
X572000D02*
D03*
Y413500D02*
D03*
X560189D02*
D03*
X572000Y348071D02*
D03*
X560189D02*
D03*
X537000Y441000D02*
D03*
X548811D02*
D03*
X362189Y439000D02*
D03*
X374000D02*
D03*
D44*
X580465Y184500D02*
D03*
X551724D02*
D03*
X580465Y217214D02*
D03*
X551724D02*
D03*
X557370Y155255D02*
D03*
X528630D02*
D03*
X580465Y249929D02*
D03*
X551724D02*
D03*
Y282643D02*
D03*
X580465D02*
D03*
Y315357D02*
D03*
X551724D02*
D03*
X580465Y380786D02*
D03*
X551724D02*
D03*
Y413500D02*
D03*
X580465D02*
D03*
X551724Y348071D02*
D03*
X580465D02*
D03*
X557276Y441000D02*
D03*
X528535D02*
D03*
X382465Y439000D02*
D03*
X353724D02*
D03*
D50*
X333323Y350890D02*
D03*
Y287110D02*
D03*
Y424890D02*
D03*
Y361110D02*
D03*
D51*
X327685Y197744D02*
D03*
X331000Y227000D02*
D03*
D52*
X337685Y197744D02*
D03*
X327685Y187744D02*
D03*
Y177744D02*
D03*
X337685Y187744D02*
D03*
Y177744D02*
D03*
X321000Y227000D02*
D03*
X331000Y237000D02*
D03*
Y247000D02*
D03*
X321000Y237000D02*
D03*
Y247000D02*
D03*
D53*
X328748Y156287D02*
D03*
Y439752D02*
D03*
X572752D02*
D03*
Y156248D02*
D03*
D54*
X422154Y436299D02*
D03*
D55*
X450500Y437500D02*
D03*
D56*
X516000Y415000D02*
D03*
Y407000D02*
D03*
Y186500D02*
D03*
Y194500D02*
D03*
Y252000D02*
D03*
Y260000D02*
D03*
Y317000D02*
D03*
Y325000D02*
D03*
Y382000D02*
D03*
Y390000D02*
D03*
X482500Y440500D02*
D03*
Y448500D02*
D03*
X516000Y349500D02*
D03*
Y357500D02*
D03*
Y284500D02*
D03*
Y292500D02*
D03*
Y219500D02*
D03*
Y227500D02*
D03*
X483000Y161000D02*
D03*
Y169000D02*
D03*
D57*
X410000Y407000D02*
D03*
X460000Y168500D02*
D03*
X426000Y407000D02*
D03*
X460000Y151500D02*
D03*
D58*
X483500Y410000D02*
D03*
X496000Y336500D02*
D03*
X462000Y241000D02*
D03*
X497000Y240500D02*
D03*
X493500Y208000D02*
D03*
X479500Y194000D02*
D03*
X459000Y197000D02*
D03*
X459500Y219500D02*
D03*
X460500Y265500D02*
D03*
X480000Y297500D02*
D03*
X463000Y313500D02*
D03*
X493500Y307000D02*
D03*
X473000Y328500D02*
D03*
X485500Y357000D02*
D03*
X458000Y358000D02*
D03*
X485500Y373500D02*
D03*
X457500Y372500D02*
D03*
X484500Y391500D02*
D03*
X457000Y392500D02*
D03*
X326000Y209000D02*
D03*
X358885Y273844D02*
D03*
X329000Y368500D02*
D03*
X373000Y356000D02*
D03*
X371000Y350888D02*
D03*
X359000Y305000D02*
D03*
X500000Y422955D02*
D03*
X495000D02*
D03*
X354500Y276000D02*
D03*
X357000Y298000D02*
D03*
X441000Y237000D02*
D03*
X392500Y252500D02*
D03*
X520000Y148500D02*
D03*
X534000Y396455D02*
D03*
X529000D02*
D03*
X429000Y395000D02*
D03*
X529000Y201425D02*
D03*
X534000D02*
D03*
Y363965D02*
D03*
X444500Y368500D02*
D03*
X529000Y363965D02*
D03*
X447005Y322417D02*
D03*
X529000Y169000D02*
D03*
X534000D02*
D03*
X529000Y234006D02*
D03*
X534000Y234000D02*
D03*
X529000Y266496D02*
D03*
X534000D02*
D03*
X529000Y298986D02*
D03*
X534000D02*
D03*
X529000Y331475D02*
D03*
X534000D02*
D03*
X424000Y307000D02*
D03*
X419500Y312500D02*
D03*
X406500Y285000D02*
D03*
X362500Y359500D02*
D03*
X505000Y422000D02*
D03*
X445500Y299000D02*
D03*
X444500Y306500D02*
D03*
Y314000D02*
D03*
Y333000D02*
D03*
X439000Y353000D02*
D03*
X442000Y342000D02*
D03*
X427500Y283000D02*
D03*
X383000Y312500D02*
D03*
X386000Y233453D02*
D03*
X381000Y330500D02*
D03*
X387702Y329500D02*
D03*
X394500Y324000D02*
D03*
X387635Y294781D02*
D03*
X388500Y300000D02*
D03*
X382000Y291000D02*
D03*
X400071Y285425D02*
D03*
X389000Y288000D02*
D03*
X427500Y312000D02*
D03*
X379500Y285000D02*
D03*
Y297472D02*
D03*
X380000Y303000D02*
D03*
X389500Y305500D02*
D03*
X421571Y322929D02*
D03*
X388000Y309500D02*
D03*
X379500Y316000D02*
D03*
X366500Y285500D02*
D03*
X399500Y281000D02*
D03*
X397469Y264559D02*
D03*
X400500Y267500D02*
D03*
X409494Y243006D02*
D03*
X440500Y251000D02*
D03*
X444000Y228000D02*
D03*
X431429Y356571D02*
D03*
X391000Y268000D02*
D03*
Y261500D02*
D03*
X406321Y259679D02*
D03*
X427000Y326500D02*
D03*
X424170Y317330D02*
D03*
X440500Y385000D02*
D03*
X424500Y389000D02*
D03*
X433500Y374000D02*
D03*
X439000Y368000D02*
D03*
X444000Y356000D02*
D03*
X372000Y336500D02*
D03*
X367000Y271500D02*
D03*
X378500Y322000D02*
D03*
X405000Y267500D02*
D03*
X415000Y270000D02*
D03*
X410000Y281000D02*
D03*
X399000Y330500D02*
D03*
X430000Y279000D02*
D03*
X417000Y240500D02*
D03*
X418000Y233000D02*
D03*
X387000Y246500D02*
D03*
Y239500D02*
D03*
X412500Y328500D02*
D03*
X371000Y268000D02*
D03*
X435500Y380500D02*
D03*
X477500Y146500D02*
D03*
X483500D02*
D03*
X543500Y173500D02*
D03*
Y206000D02*
D03*
Y238500D02*
D03*
Y271000D02*
D03*
Y303500D02*
D03*
Y336000D02*
D03*
Y368500D02*
D03*
X543000Y401000D02*
D03*
M02*
