G04*
G04 #@! TF.GenerationSoftware,Altium Limited,Altium Designer,25.7.1 (20)*
G04*
G04 Layer_Color=16711935*
%FSLAX25Y25*%
%MOIN*%
G70*
G04*
G04 #@! TF.SameCoordinates,4004DD4F-5307-4C4F-B8C3-9824D0AE2BA4*
G04*
G04*
G04 #@! TF.FilePolarity,Positive*
G04*
G01*
G75*
%ADD11C,0.02000*%
%ADD12C,0.00787*%
%ADD15C,0.00500*%
%ADD16C,0.00300*%
%ADD71C,0.00394*%
%ADD72C,0.00000*%
%ADD73C,0.00100*%
D11*
X329134Y343606D02*
G03*
X329134Y343606I-1500J0D01*
G01*
X561689Y177000D02*
G03*
X561689Y177000I-1500J0D01*
G01*
Y209714D02*
G03*
X561689Y209714I-1500J0D01*
G01*
X538594Y147755D02*
G03*
X538594Y147755I-1500J0D01*
G01*
X561689Y242429D02*
G03*
X561689Y242429I-1500J0D01*
G01*
Y275143D02*
G03*
X561689Y275143I-1500J0D01*
G01*
Y307857D02*
G03*
X561689Y307857I-1500J0D01*
G01*
X329134Y417606D02*
G03*
X329134Y417606I-1500J0D01*
G01*
X324000Y276260D02*
G03*
X324000Y276260I-1500J0D01*
G01*
X561689Y373286D02*
G03*
X561689Y373286I-1500J0D01*
G01*
Y406000D02*
G03*
X561689Y406000I-1500J0D01*
G01*
Y340571D02*
G03*
X561689Y340571I-1500J0D01*
G01*
X538500Y433500D02*
G03*
X538500Y433500I-1500J0D01*
G01*
X375500Y446500D02*
G03*
X375500Y446500I-1500J0D01*
G01*
D12*
X426721Y427549D02*
G03*
X426721Y427549I-394J0D01*
G01*
X403453Y436299D02*
G03*
X403453Y436299I-394J0D01*
G01*
D15*
X406012Y452047D02*
X466642D01*
Y420551D02*
Y452047D01*
X406012Y420551D02*
X466642D01*
X406012D02*
Y452047D01*
D16*
X317634Y327750D02*
X322632D01*
Y325251D01*
X321799Y324418D01*
X320133D01*
X319300Y325251D01*
Y327750D01*
Y326084D02*
X317634Y324418D01*
Y320252D02*
Y321919D01*
X318467Y322752D01*
X320133D01*
X320966Y321919D01*
Y320252D01*
X320133Y319419D01*
X319300D01*
Y322752D01*
X317634Y316920D02*
X321799D01*
X320133D01*
Y317753D01*
Y316087D01*
Y316920D01*
X321799D01*
X322632Y316087D01*
Y313588D02*
X317634D01*
Y311089D01*
X318467Y310256D01*
X321799D01*
X322632Y311089D01*
Y313588D01*
X317634Y306090D02*
Y307756D01*
X318467Y308590D01*
X320133D01*
X320966Y307756D01*
Y306090D01*
X320133Y305257D01*
X319300D01*
Y308590D01*
X317634Y303591D02*
Y301092D01*
X318467Y300259D01*
X319300Y301092D01*
Y302758D01*
X320133Y303591D01*
X320966Y302758D01*
Y300259D01*
X317634Y295261D02*
Y298593D01*
X320966Y295261D01*
X321799D01*
X322632Y296094D01*
Y297760D01*
X321799Y298593D01*
X574845Y187000D02*
Y182002D01*
X572345D01*
X571512Y182835D01*
Y184501D01*
X572345Y185334D01*
X574845D01*
X573178D02*
X571512Y187000D01*
X567347D02*
X569013D01*
X569846Y186167D01*
Y184501D01*
X569013Y183668D01*
X567347D01*
X566514Y184501D01*
Y185334D01*
X569846D01*
X564015Y187000D02*
Y182835D01*
Y184501D01*
X564848D01*
X563182D01*
X564015D01*
Y182835D01*
X563182Y182002D01*
X560682D02*
Y187000D01*
X558183D01*
X557350Y186167D01*
Y182835D01*
X558183Y182002D01*
X560682D01*
X553185Y187000D02*
X554851D01*
X555684Y186167D01*
Y184501D01*
X554851Y183668D01*
X553185D01*
X552352Y184501D01*
Y185334D01*
X555684D01*
X550686Y187000D02*
X548186D01*
X547353Y186167D01*
X548186Y185334D01*
X549853D01*
X550686Y184501D01*
X549853Y183668D01*
X547353D01*
X542355Y187000D02*
X545687D01*
X542355Y183668D01*
Y182835D01*
X543188Y182002D01*
X544854D01*
X545687Y182835D01*
X574845Y219714D02*
Y214716D01*
X572345D01*
X571512Y215549D01*
Y217215D01*
X572345Y218048D01*
X574845D01*
X573178D02*
X571512Y219714D01*
X567347D02*
X569013D01*
X569846Y218881D01*
Y217215D01*
X569013Y216382D01*
X567347D01*
X566514Y217215D01*
Y218048D01*
X569846D01*
X564015Y219714D02*
Y215549D01*
Y217215D01*
X564848D01*
X563182D01*
X564015D01*
Y215549D01*
X563182Y214716D01*
X560682D02*
Y219714D01*
X558183D01*
X557350Y218881D01*
Y215549D01*
X558183Y214716D01*
X560682D01*
X553185Y219714D02*
X554851D01*
X555684Y218881D01*
Y217215D01*
X554851Y216382D01*
X553185D01*
X552352Y217215D01*
Y218048D01*
X555684D01*
X550686Y219714D02*
X548186D01*
X547353Y218881D01*
X548186Y218048D01*
X549853D01*
X550686Y217215D01*
X549853Y216382D01*
X547353D01*
X542355Y219714D02*
X545687D01*
X542355Y216382D01*
Y215549D01*
X543188Y214716D01*
X544854D01*
X545687Y215549D01*
X551750Y157755D02*
Y152756D01*
X549251D01*
X548418Y153589D01*
Y155255D01*
X549251Y156089D01*
X551750D01*
X550084D02*
X548418Y157755D01*
X544252D02*
X545919D01*
X546752Y156922D01*
Y155255D01*
X545919Y154422D01*
X544252D01*
X543419Y155255D01*
Y156089D01*
X546752D01*
X540920Y157755D02*
Y153589D01*
Y155255D01*
X541753D01*
X540087D01*
X540920D01*
Y153589D01*
X540087Y152756D01*
X537588D02*
Y157755D01*
X535089D01*
X534256Y156922D01*
Y153589D01*
X535089Y152756D01*
X537588D01*
X530090Y157755D02*
X531756D01*
X532589Y156922D01*
Y155255D01*
X531756Y154422D01*
X530090D01*
X529257Y155255D01*
Y156089D01*
X532589D01*
X527591Y157755D02*
X525092D01*
X524259Y156922D01*
X525092Y156089D01*
X526758D01*
X527591Y155255D01*
X526758Y154422D01*
X524259D01*
X519261Y157755D02*
X522593D01*
X519261Y154422D01*
Y153589D01*
X520094Y152756D01*
X521760D01*
X522593Y153589D01*
X574845Y252429D02*
Y247430D01*
X572345D01*
X571512Y248263D01*
Y249929D01*
X572345Y250762D01*
X574845D01*
X573178D02*
X571512Y252429D01*
X567347D02*
X569013D01*
X569846Y251595D01*
Y249929D01*
X569013Y249096D01*
X567347D01*
X566514Y249929D01*
Y250762D01*
X569846D01*
X564015Y252429D02*
Y248263D01*
Y249929D01*
X564848D01*
X563182D01*
X564015D01*
Y248263D01*
X563182Y247430D01*
X560682D02*
Y252429D01*
X558183D01*
X557350Y251595D01*
Y248263D01*
X558183Y247430D01*
X560682D01*
X553185Y252429D02*
X554851D01*
X555684Y251595D01*
Y249929D01*
X554851Y249096D01*
X553185D01*
X552352Y249929D01*
Y250762D01*
X555684D01*
X550686Y252429D02*
X548186D01*
X547353Y251595D01*
X548186Y250762D01*
X549853D01*
X550686Y249929D01*
X549853Y249096D01*
X547353D01*
X542355Y252429D02*
X545687D01*
X542355Y249096D01*
Y248263D01*
X543188Y247430D01*
X544854D01*
X545687Y248263D01*
X574845Y285143D02*
Y280145D01*
X572345D01*
X571512Y280978D01*
Y282644D01*
X572345Y283477D01*
X574845D01*
X573178D02*
X571512Y285143D01*
X567347D02*
X569013D01*
X569846Y284310D01*
Y282644D01*
X569013Y281811D01*
X567347D01*
X566514Y282644D01*
Y283477D01*
X569846D01*
X564015Y285143D02*
Y280978D01*
Y282644D01*
X564848D01*
X563182D01*
X564015D01*
Y280978D01*
X563182Y280145D01*
X560682D02*
Y285143D01*
X558183D01*
X557350Y284310D01*
Y280978D01*
X558183Y280145D01*
X560682D01*
X553185Y285143D02*
X554851D01*
X555684Y284310D01*
Y282644D01*
X554851Y281811D01*
X553185D01*
X552352Y282644D01*
Y283477D01*
X555684D01*
X550686Y285143D02*
X548186D01*
X547353Y284310D01*
X548186Y283477D01*
X549853D01*
X550686Y282644D01*
X549853Y281811D01*
X547353D01*
X542355Y285143D02*
X545687D01*
X542355Y281811D01*
Y280978D01*
X543188Y280145D01*
X544854D01*
X545687Y280978D01*
X574845Y317857D02*
Y312859D01*
X572345D01*
X571512Y313692D01*
Y315358D01*
X572345Y316191D01*
X574845D01*
X573178D02*
X571512Y317857D01*
X567347D02*
X569013D01*
X569846Y317024D01*
Y315358D01*
X569013Y314525D01*
X567347D01*
X566514Y315358D01*
Y316191D01*
X569846D01*
X564015Y317857D02*
Y313692D01*
Y315358D01*
X564848D01*
X563182D01*
X564015D01*
Y313692D01*
X563182Y312859D01*
X560682D02*
Y317857D01*
X558183D01*
X557350Y317024D01*
Y313692D01*
X558183Y312859D01*
X560682D01*
X553185Y317857D02*
X554851D01*
X555684Y317024D01*
Y315358D01*
X554851Y314525D01*
X553185D01*
X552352Y315358D01*
Y316191D01*
X555684D01*
X550686Y317857D02*
X548186D01*
X547353Y317024D01*
X548186Y316191D01*
X549853D01*
X550686Y315358D01*
X549853Y314525D01*
X547353D01*
X542355Y317857D02*
X545687D01*
X542355Y314525D01*
Y313692D01*
X543188Y312859D01*
X544854D01*
X545687Y313692D01*
X317634Y401750D02*
X322632D01*
Y399251D01*
X321799Y398418D01*
X320133D01*
X319300Y399251D01*
Y401750D01*
Y400084D02*
X317634Y398418D01*
Y394252D02*
Y395919D01*
X318467Y396752D01*
X320133D01*
X320966Y395919D01*
Y394252D01*
X320133Y393419D01*
X319300D01*
Y396752D01*
X317634Y390920D02*
X321799D01*
X320133D01*
Y391753D01*
Y390087D01*
Y390920D01*
X321799D01*
X322632Y390087D01*
Y387588D02*
X317634D01*
Y385089D01*
X318467Y384256D01*
X321799D01*
X322632Y385089D01*
Y387588D01*
X317634Y380090D02*
Y381756D01*
X318467Y382590D01*
X320133D01*
X320966Y381756D01*
Y380090D01*
X320133Y379257D01*
X319300D01*
Y382590D01*
X317634Y377591D02*
Y375092D01*
X318467Y374259D01*
X319300Y375092D01*
Y376758D01*
X320133Y377591D01*
X320966Y376758D01*
Y374259D01*
X317634Y369261D02*
Y372593D01*
X320966Y369261D01*
X321799D01*
X322632Y370094D01*
Y371760D01*
X321799Y372593D01*
X320000Y276250D02*
X324998D01*
Y273751D01*
X324165Y272918D01*
X322499D01*
X321666Y273751D01*
Y276250D01*
Y274584D02*
X320000Y272918D01*
Y268752D02*
Y270419D01*
X320833Y271252D01*
X322499D01*
X323332Y270419D01*
Y268752D01*
X322499Y267919D01*
X321666D01*
Y271252D01*
X320000Y265420D02*
X324165D01*
X322499D01*
Y266253D01*
Y264587D01*
Y265420D01*
X324165D01*
X324998Y264587D01*
Y262088D02*
X320000D01*
Y259589D01*
X320833Y258756D01*
X324165D01*
X324998Y259589D01*
Y262088D01*
X320000Y254590D02*
Y256257D01*
X320833Y257089D01*
X322499D01*
X323332Y256257D01*
Y254590D01*
X322499Y253757D01*
X321666D01*
Y257089D01*
X320000Y252091D02*
Y249592D01*
X320833Y248759D01*
X321666Y249592D01*
Y251258D01*
X322499Y252091D01*
X323332Y251258D01*
Y248759D01*
X320000Y243760D02*
Y247093D01*
X323332Y243760D01*
X324165D01*
X324998Y244594D01*
Y246260D01*
X324165Y247093D01*
X398689Y251189D02*
X395357Y247857D01*
X398689D02*
X395357Y251189D01*
X398689Y249523D02*
X395357D01*
X397023Y247857D02*
Y251189D01*
X375228Y268950D02*
X378561Y272282D01*
Y268950D02*
X375228Y272282D01*
X376894Y268950D02*
Y272282D01*
X378561Y270616D02*
X375228D01*
X405500Y297250D02*
X400502D01*
Y299749D01*
X401335Y300582D01*
X403001D01*
X403834Y299749D01*
Y297250D01*
Y298916D02*
X405500Y300582D01*
Y304748D02*
Y303081D01*
X404667Y302248D01*
X403001D01*
X402168Y303081D01*
Y304748D01*
X403001Y305581D01*
X403834D01*
Y302248D01*
X405500Y308080D02*
X401335D01*
X403001D01*
Y307247D01*
Y308913D01*
Y308080D01*
X401335D01*
X400502Y308913D01*
Y311412D02*
X405500D01*
Y313911D01*
X404667Y314744D01*
X401335D01*
X400502Y313911D01*
Y311412D01*
X405500Y318910D02*
Y317244D01*
X404667Y316410D01*
X403001D01*
X402168Y317244D01*
Y318910D01*
X403001Y319743D01*
X403834D01*
Y316410D01*
X405500Y321409D02*
Y323908D01*
X404667Y324741D01*
X403834Y323908D01*
Y322242D01*
X403001Y321409D01*
X402168Y322242D01*
Y324741D01*
X405500Y329739D02*
Y326407D01*
X402168Y329739D01*
X401335D01*
X400502Y328906D01*
Y327240D01*
X401335Y326407D01*
X574845Y383286D02*
Y378287D01*
X572345D01*
X571512Y379120D01*
Y380786D01*
X572345Y381620D01*
X574845D01*
X573178D02*
X571512Y383286D01*
X567347D02*
X569013D01*
X569846Y382453D01*
Y380786D01*
X569013Y379953D01*
X567347D01*
X566514Y380786D01*
Y381620D01*
X569846D01*
X564015Y383286D02*
Y379120D01*
Y380786D01*
X564848D01*
X563182D01*
X564015D01*
Y379120D01*
X563182Y378287D01*
X560682D02*
Y383286D01*
X558183D01*
X557350Y382453D01*
Y379120D01*
X558183Y378287D01*
X560682D01*
X553185Y383286D02*
X554851D01*
X555684Y382453D01*
Y380786D01*
X554851Y379953D01*
X553185D01*
X552352Y380786D01*
Y381620D01*
X555684D01*
X550686Y383286D02*
X548186D01*
X547353Y382453D01*
X548186Y381620D01*
X549853D01*
X550686Y380786D01*
X549853Y379953D01*
X547353D01*
X542355Y383286D02*
X545687D01*
X542355Y379953D01*
Y379120D01*
X543188Y378287D01*
X544854D01*
X545687Y379120D01*
X506215Y430614D02*
X502883Y433946D01*
Y430614D02*
X506215Y433946D01*
X504549Y430614D02*
Y433946D01*
X502883Y432280D02*
X506215D01*
X574845Y416000D02*
Y411002D01*
X572345D01*
X571512Y411835D01*
Y413501D01*
X572345Y414334D01*
X574845D01*
X573178D02*
X571512Y416000D01*
X567347D02*
X569013D01*
X569846Y415167D01*
Y413501D01*
X569013Y412668D01*
X567347D01*
X566514Y413501D01*
Y414334D01*
X569846D01*
X564015Y416000D02*
Y411835D01*
Y413501D01*
X564848D01*
X563182D01*
X564015D01*
Y411835D01*
X563182Y411002D01*
X560682D02*
Y416000D01*
X558183D01*
X557350Y415167D01*
Y411835D01*
X558183Y411002D01*
X560682D01*
X553185Y416000D02*
X554851D01*
X555684Y415167D01*
Y413501D01*
X554851Y412668D01*
X553185D01*
X552352Y413501D01*
Y414334D01*
X555684D01*
X550686Y416000D02*
X548186D01*
X547353Y415167D01*
X548186Y414334D01*
X549853D01*
X550686Y413501D01*
X549853Y412668D01*
X547353D01*
X542355Y416000D02*
X545687D01*
X542355Y412668D01*
Y411835D01*
X543188Y411002D01*
X544854D01*
X545687Y411835D01*
X574845Y350571D02*
Y345573D01*
X572345D01*
X571512Y346406D01*
Y348072D01*
X572345Y348905D01*
X574845D01*
X573178D02*
X571512Y350571D01*
X567347D02*
X569013D01*
X569846Y349738D01*
Y348072D01*
X569013Y347239D01*
X567347D01*
X566514Y348072D01*
Y348905D01*
X569846D01*
X564015Y350571D02*
Y346406D01*
Y348072D01*
X564848D01*
X563182D01*
X564015D01*
Y346406D01*
X563182Y345573D01*
X560682D02*
Y350571D01*
X558183D01*
X557350Y349738D01*
Y346406D01*
X558183Y345573D01*
X560682D01*
X553185Y350571D02*
X554851D01*
X555684Y349738D01*
Y348072D01*
X554851Y347239D01*
X553185D01*
X552352Y348072D01*
Y348905D01*
X555684D01*
X550686Y350571D02*
X548186D01*
X547353Y349738D01*
X548186Y348905D01*
X549853D01*
X550686Y348072D01*
X549853Y347239D01*
X547353D01*
X542355Y350571D02*
X545687D01*
X542355Y347239D01*
Y346406D01*
X543188Y345573D01*
X544854D01*
X545687Y346406D01*
X540215Y404114D02*
X536883Y407446D01*
Y404114D02*
X540215Y407446D01*
X538549Y404114D02*
Y407446D01*
X536883Y405780D02*
X540215D01*
Y274155D02*
X536883Y277487D01*
Y274155D02*
X540215Y277487D01*
X538549Y274155D02*
Y277487D01*
X536883Y275821D02*
X540215D01*
X509215Y151114D02*
X505883Y154446D01*
Y151114D02*
X509215Y154446D01*
X507549Y151114D02*
Y154446D01*
X505883Y152780D02*
X509215D01*
X540215Y176686D02*
X536883Y180018D01*
Y176686D02*
X540215Y180018D01*
X538549Y176686D02*
Y180018D01*
X536883Y178352D02*
X540215D01*
Y209176D02*
X536883Y212508D01*
Y209176D02*
X540215Y212508D01*
X538549Y209176D02*
Y212508D01*
X536883Y210842D02*
X540215D01*
Y241665D02*
X536883Y244998D01*
Y241665D02*
X540215Y244998D01*
X538549Y241665D02*
Y244998D01*
X536883Y243332D02*
X540215D01*
Y306645D02*
X536883Y309977D01*
Y306645D02*
X540215Y309977D01*
X538549Y306645D02*
Y309977D01*
X536883Y308311D02*
X540215D01*
Y339135D02*
X536883Y342467D01*
Y339135D02*
X540215Y342467D01*
X538549Y339135D02*
Y342467D01*
X536883Y340801D02*
X540215D01*
Y371624D02*
X536883Y374956D01*
Y371624D02*
X540215Y374956D01*
X538549Y371624D02*
Y374956D01*
X536883Y373290D02*
X540215D01*
X551655Y443500D02*
Y438502D01*
X549156D01*
X548323Y439335D01*
Y441001D01*
X549156Y441834D01*
X551655D01*
X549989D02*
X548323Y443500D01*
X544158D02*
X545824D01*
X546657Y442667D01*
Y441001D01*
X545824Y440168D01*
X544158D01*
X543325Y441001D01*
Y441834D01*
X546657D01*
X540826Y443500D02*
Y439335D01*
Y441001D01*
X541659D01*
X539993D01*
X540826D01*
Y439335D01*
X539993Y438502D01*
X537493D02*
Y443500D01*
X534994D01*
X534161Y442667D01*
Y439335D01*
X534994Y438502D01*
X537493D01*
X529996Y443500D02*
X531662D01*
X532495Y442667D01*
Y441001D01*
X531662Y440168D01*
X529996D01*
X529163Y441001D01*
Y441834D01*
X532495D01*
X527497Y443500D02*
X524998D01*
X524164Y442667D01*
X524998Y441834D01*
X526664D01*
X527497Y441001D01*
X526664Y440168D01*
X524164D01*
X519166Y443500D02*
X522498D01*
X519166Y440168D01*
Y439335D01*
X519999Y438502D01*
X521665D01*
X522498Y439335D01*
X359345Y436500D02*
Y441498D01*
X361844D01*
X362677Y440665D01*
Y438999D01*
X361844Y438166D01*
X359345D01*
X361011D02*
X362677Y436500D01*
X366842D02*
X365176D01*
X364343Y437333D01*
Y438999D01*
X365176Y439832D01*
X366842D01*
X367675Y438999D01*
Y438166D01*
X364343D01*
X370174Y436500D02*
Y440665D01*
Y438999D01*
X369341D01*
X371007D01*
X370174D01*
Y440665D01*
X371007Y441498D01*
X373507D02*
Y436500D01*
X376006D01*
X376839Y437333D01*
Y440665D01*
X376006Y441498D01*
X373507D01*
X381004Y436500D02*
X379338D01*
X378505Y437333D01*
Y438999D01*
X379338Y439832D01*
X381004D01*
X381837Y438999D01*
Y438166D01*
X378505D01*
X383503Y436500D02*
X386002D01*
X386836Y437333D01*
X386002Y438166D01*
X384336D01*
X383503Y438999D01*
X384336Y439832D01*
X386836D01*
X391834Y436500D02*
X388502D01*
X391834Y439832D01*
Y440665D01*
X391001Y441498D01*
X389335D01*
X388502Y440665D01*
D71*
X526669Y179244D02*
X535331D01*
X526669Y184756D02*
X535331D01*
Y179244D02*
Y184756D01*
X526669Y179244D02*
Y184756D01*
X557331Y196744D02*
Y202256D01*
X548669Y196744D02*
Y202256D01*
Y196744D02*
X557331D01*
X548669Y202256D02*
X557331D01*
Y229494D02*
Y235006D01*
X548669Y229494D02*
Y235006D01*
Y229494D02*
X557331D01*
X548669Y235006D02*
X557331D01*
X511744Y148169D02*
Y156831D01*
X517256Y148169D02*
Y156831D01*
X511744Y148169D02*
X517256D01*
X511744Y156831D02*
X517256D01*
X557331Y262244D02*
Y267756D01*
X548669Y262244D02*
Y267756D01*
Y262244D02*
X557331D01*
X548669Y267756D02*
X557331D01*
Y294994D02*
Y300506D01*
X548669Y294994D02*
Y300506D01*
Y294994D02*
X557331D01*
X548669Y300506D02*
X557331D01*
Y327744D02*
Y333256D01*
X548669Y327744D02*
Y333256D01*
Y327744D02*
X557331D01*
X548669Y333256D02*
X557331D01*
X348543Y279031D02*
Y282968D01*
X341457Y279031D02*
Y282968D01*
Y279031D02*
X348543D01*
X341457Y282968D02*
X348543D01*
X378433Y231917D02*
X382567D01*
X378433Y234083D02*
X382567D01*
Y231917D02*
Y234083D01*
X378433Y231917D02*
Y234083D01*
X409433Y238417D02*
Y240583D01*
X413567Y238417D02*
Y240583D01*
X409433D02*
X413567D01*
X409433Y238417D02*
X413567D01*
X429957Y254031D02*
Y257968D01*
X437043Y254031D02*
Y257968D01*
X429957Y254031D02*
X437043D01*
X429957Y257968D02*
X437043D01*
X416457D02*
X423543D01*
X416457Y254031D02*
X423543D01*
Y257968D01*
X416457Y254031D02*
Y257968D01*
X437933Y231417D02*
Y233583D01*
X442067Y231417D02*
Y233583D01*
X437933D02*
X442067D01*
X437933Y231417D02*
X442067D01*
X437933Y245819D02*
Y247984D01*
X442067Y245819D02*
Y247984D01*
X437933D02*
X442067D01*
X437933Y245819D02*
X442067D01*
X362032Y290457D02*
X365968D01*
X362032Y297543D02*
X365968D01*
X362032Y290457D02*
Y297543D01*
X365968Y290457D02*
Y297543D01*
X392032Y395945D02*
X395969D01*
X392032Y388858D02*
X395969D01*
X392032D02*
Y395945D01*
X395969Y388858D02*
Y395945D01*
X376031Y388858D02*
X379969D01*
X376031Y395945D02*
X379969D01*
Y388858D02*
Y395945D01*
X376031Y388858D02*
Y395945D01*
X384032Y395957D02*
X387968D01*
X384032Y403043D02*
X387968D01*
Y395957D02*
Y403043D01*
X384032Y395957D02*
Y403043D01*
X437933Y239319D02*
Y241484D01*
X442067Y239319D02*
Y241484D01*
X437933D02*
X442067D01*
X437933Y239319D02*
X442067D01*
X378433Y238917D02*
Y241083D01*
X382567Y238917D02*
Y241083D01*
X378433D02*
X382567D01*
X378433Y238917D02*
X382567D01*
X409433Y246319D02*
Y248484D01*
X413567Y246319D02*
Y248484D01*
X409433D02*
X413567D01*
X409433Y246319D02*
X413567D01*
X378433Y245917D02*
Y248083D01*
X382567Y245917D02*
Y248083D01*
X378433D02*
X382567D01*
X378433Y245917D02*
X382567D01*
X378433Y252917D02*
X382567D01*
X378433Y255083D02*
X382567D01*
Y252917D02*
Y255083D01*
X378433Y252917D02*
Y255083D01*
X409433Y232417D02*
Y234583D01*
X413567Y232417D02*
Y234583D01*
X409433D02*
X413567D01*
X409433Y232417D02*
X413567D01*
X548669Y366006D02*
X557331D01*
X548669Y360494D02*
X557331D01*
X548669D02*
Y366006D01*
X557331Y360494D02*
Y366006D01*
X548669Y398756D02*
X557331D01*
X548669Y393244D02*
X557331D01*
X548669D02*
Y398756D01*
X557331Y393244D02*
Y398756D01*
X386543Y266032D02*
Y269969D01*
X379457Y266032D02*
Y269969D01*
X386543D01*
X379457Y266032D02*
X386543D01*
Y259531D02*
Y263469D01*
X379457Y259531D02*
Y263469D01*
X386543D01*
X379457Y259531D02*
X386543D01*
X511244Y437831D02*
X516756D01*
X511244Y429169D02*
X516756D01*
Y437831D01*
X511244Y429169D02*
Y437831D01*
D72*
X423804Y248500D02*
G03*
X423804Y248500I-300J0D01*
G01*
X391800Y254750D02*
G03*
X394200Y254750I1200J0D01*
G01*
X507350Y439414D02*
G03*
X507350Y437014I0J-1200D01*
G01*
X541350Y412914D02*
G03*
X541350Y410514I0J-1200D01*
G01*
Y282955D02*
G03*
X541350Y280555I0J-1200D01*
G01*
X510350Y159914D02*
G03*
X510350Y157514I0J-1200D01*
G01*
X541350Y185486D02*
G03*
X541350Y183086I0J-1200D01*
G01*
Y217976D02*
G03*
X541350Y215576I0J-1200D01*
G01*
Y250465D02*
G03*
X541350Y248065I0J-1200D01*
G01*
Y315445D02*
G03*
X541350Y313045I0J-1200D01*
G01*
Y347935D02*
G03*
X541350Y345534I0J-1200D01*
G01*
Y380424D02*
G03*
X541350Y378024I0J-1200D01*
G01*
D73*
X424902Y246261D02*
X428602D01*
X424902D02*
Y250361D01*
X428602D01*
Y246261D02*
Y250361D01*
X424902Y241461D02*
X428602D01*
Y237361D02*
Y241461D01*
X424902Y237361D02*
X428602D01*
X424902D02*
Y241461D01*
X431852Y237361D02*
Y250361D01*
X421652Y237361D02*
X431852D01*
X421652D02*
Y250361D01*
X431852D01*
X321150Y285550D02*
Y352450D01*
Y285550D02*
X337850D01*
Y352450D01*
X321150D02*
X337850D01*
X547094Y194195D02*
X585094D01*
X547094Y172295D02*
Y194195D01*
Y172295D02*
X585094D01*
Y194195D01*
X547094Y226910D02*
X585094D01*
X547094Y205010D02*
Y226910D01*
Y205010D02*
X585094D01*
Y226910D01*
X524000Y164950D02*
X562000D01*
X524000Y143050D02*
Y164950D01*
Y143050D02*
X562000D01*
Y164950D01*
X547094Y259624D02*
X585094D01*
X547094Y237724D02*
Y259624D01*
Y237724D02*
X585094D01*
Y259624D01*
Y270438D02*
Y292338D01*
X547094Y270438D02*
X585094D01*
X547094D02*
Y292338D01*
X585094D01*
X547094Y325052D02*
X585094D01*
X547094Y303152D02*
Y325052D01*
Y303152D02*
X585094D01*
Y325052D01*
X321150Y359550D02*
Y426450D01*
Y359550D02*
X337850D01*
Y426450D01*
X321150D02*
X337850D01*
X316650Y259700D02*
Y275300D01*
Y259700D02*
X328350D01*
Y275300D01*
X316650D02*
X328350D01*
X400500Y223250D02*
Y254750D01*
X385500D02*
X400500D01*
X385500Y223250D02*
Y254750D01*
Y223250D02*
X400500D01*
X385500Y248827D02*
Y250827D01*
Y248827D02*
Y250827D01*
Y227173D02*
Y229173D01*
Y227173D02*
Y229173D01*
X400500Y227173D02*
Y229173D01*
Y227173D02*
Y229173D01*
Y248827D02*
Y250827D01*
Y248827D02*
Y250827D01*
X375050Y329072D02*
Y330172D01*
X371100D02*
X375050D01*
X371100Y329072D02*
Y330172D01*
Y329072D02*
X375050D01*
Y327103D02*
Y328204D01*
X371100D02*
X375050D01*
X371100Y327103D02*
Y328204D01*
Y327103D02*
X375050D01*
Y325135D02*
Y326235D01*
X371100D02*
X375050D01*
X371100Y325135D02*
Y326235D01*
Y325135D02*
X375050D01*
Y323166D02*
Y324267D01*
X371100D02*
X375050D01*
X371100Y323166D02*
Y324267D01*
Y323166D02*
X375050D01*
Y321198D02*
Y322298D01*
X371100D02*
X375050D01*
X371100Y321198D02*
Y322298D01*
Y321198D02*
X375050D01*
Y319230D02*
Y320329D01*
X371100D02*
X375050D01*
X371100Y319230D02*
Y320329D01*
Y319230D02*
X375050D01*
Y317261D02*
Y318361D01*
X371100D02*
X375050D01*
X371100Y317261D02*
Y318361D01*
Y317261D02*
X375050D01*
Y315293D02*
Y316392D01*
X371100D02*
X375050D01*
X371100Y315293D02*
Y316392D01*
Y315293D02*
X375050D01*
Y313324D02*
Y314424D01*
X371100D02*
X375050D01*
X371100Y313324D02*
Y314424D01*
Y313324D02*
X375050D01*
Y311355D02*
Y312456D01*
X371100D02*
X375050D01*
X371100Y311355D02*
Y312456D01*
Y311355D02*
X375050D01*
Y309387D02*
Y310487D01*
X371100D02*
X375050D01*
X371100Y309387D02*
Y310487D01*
Y309387D02*
X375050D01*
Y307418D02*
Y308519D01*
X371100D02*
X375050D01*
X371100Y307418D02*
Y308519D01*
Y307418D02*
X375050D01*
Y305450D02*
Y306550D01*
X371100D02*
X375050D01*
X371100Y305450D02*
Y306550D01*
Y305450D02*
X375050D01*
Y303482D02*
Y304581D01*
X371100D02*
X375050D01*
X371100Y303482D02*
Y304581D01*
Y303482D02*
X375050D01*
Y301513D02*
Y302613D01*
X371100D02*
X375050D01*
X371100Y301513D02*
Y302613D01*
Y301513D02*
X375050D01*
Y299545D02*
Y300644D01*
X371100D02*
X375050D01*
X371100Y299545D02*
Y300644D01*
Y299545D02*
X375050D01*
Y297576D02*
Y298676D01*
X371100D02*
X375050D01*
X371100Y297576D02*
Y298676D01*
Y297576D02*
X375050D01*
Y295607D02*
Y296708D01*
X371100D02*
X375050D01*
X371100Y295607D02*
Y296708D01*
Y295607D02*
X375050D01*
Y293639D02*
Y294739D01*
X371100D02*
X375050D01*
X371100Y293639D02*
Y294739D01*
Y293639D02*
X375050D01*
Y291670D02*
Y292771D01*
X371100D02*
X375050D01*
X371100Y291670D02*
Y292771D01*
Y291670D02*
X375050D01*
Y289702D02*
Y290802D01*
X371100D02*
X375050D01*
X371100Y289702D02*
Y290802D01*
Y289702D02*
X375050D01*
Y287734D02*
Y288833D01*
X371100D02*
X375050D01*
X371100Y287734D02*
Y288833D01*
Y287734D02*
X375050D01*
Y285765D02*
Y286865D01*
X371100D02*
X375050D01*
X371100Y285765D02*
Y286865D01*
Y285765D02*
X375050D01*
Y283797D02*
Y284896D01*
X371100D02*
X375050D01*
X371100Y283797D02*
Y284896D01*
Y283797D02*
X375050D01*
Y281828D02*
Y282928D01*
X371100D02*
X375050D01*
X371100Y281828D02*
Y282928D01*
Y281828D02*
X375050D01*
X378828Y278050D02*
X379928D01*
X378828Y274100D02*
Y278050D01*
Y274100D02*
X379928D01*
Y278050D01*
X380797D02*
X381896D01*
X380797Y274100D02*
Y278050D01*
Y274100D02*
X381896D01*
Y278050D01*
X382765D02*
X383865D01*
X382765Y274100D02*
Y278050D01*
Y274100D02*
X383865D01*
Y278050D01*
X384734D02*
X385834D01*
X384734Y274100D02*
Y278050D01*
Y274100D02*
X385834D01*
Y278050D01*
X386702D02*
X387802D01*
X386702Y274100D02*
Y278050D01*
Y274100D02*
X387802D01*
Y278050D01*
X388670D02*
X389771D01*
X388670Y274100D02*
Y278050D01*
Y274100D02*
X389771D01*
Y278050D01*
X390639D02*
X391739D01*
X390639Y274100D02*
Y278050D01*
Y274100D02*
X391739D01*
Y278050D01*
X392607D02*
X393707D01*
X392607Y274100D02*
Y278050D01*
Y274100D02*
X393707D01*
Y278050D01*
X394576D02*
X395676D01*
X394576Y274100D02*
Y278050D01*
Y274100D02*
X395676D01*
Y278050D01*
X396545D02*
X397644D01*
X396545Y274100D02*
Y278050D01*
Y274100D02*
X397644D01*
Y278050D01*
X398513D02*
X399613D01*
X398513Y274100D02*
Y278050D01*
Y274100D02*
X399613D01*
Y278050D01*
X400482D02*
X401581D01*
X400482Y274100D02*
Y278050D01*
Y274100D02*
X401581D01*
Y278050D01*
X402450D02*
X403550D01*
X402450Y274100D02*
Y278050D01*
Y274100D02*
X403550D01*
Y278050D01*
X404419D02*
X405518D01*
X404419Y274100D02*
Y278050D01*
Y274100D02*
X405518D01*
Y278050D01*
X406387D02*
X407487D01*
X406387Y274100D02*
Y278050D01*
Y274100D02*
X407487D01*
Y278050D01*
X408356D02*
X409455D01*
X408356Y274100D02*
Y278050D01*
Y274100D02*
X409455D01*
Y278050D01*
X410324D02*
X411424D01*
X410324Y274100D02*
Y278050D01*
Y274100D02*
X411424D01*
Y278050D01*
X412292D02*
X413392D01*
X412292Y274100D02*
Y278050D01*
Y274100D02*
X413392D01*
Y278050D01*
X414261D02*
X415361D01*
X414261Y274100D02*
Y278050D01*
Y274100D02*
X415361D01*
Y278050D01*
X416229D02*
X417330D01*
X416229Y274100D02*
Y278050D01*
Y274100D02*
X417330D01*
Y278050D01*
X418198D02*
X419298D01*
X418198Y274100D02*
Y278050D01*
Y274100D02*
X419298D01*
Y278050D01*
X420166D02*
X421267D01*
X420166Y274100D02*
Y278050D01*
Y274100D02*
X421267D01*
Y278050D01*
X422135D02*
X423235D01*
X422135Y274100D02*
Y278050D01*
Y274100D02*
X423235D01*
Y278050D01*
X424103D02*
X425204D01*
X424103Y274100D02*
Y278050D01*
Y274100D02*
X425204D01*
Y278050D01*
X426072D02*
X427172D01*
X426072Y274100D02*
Y278050D01*
Y274100D02*
X427172D01*
Y278050D01*
X430950Y281828D02*
Y282928D01*
Y281828D02*
X434900D01*
Y282928D01*
X430950D02*
X434900D01*
X430950Y283797D02*
Y284896D01*
Y283797D02*
X434900D01*
Y284896D01*
X430950D02*
X434900D01*
X430950Y285765D02*
Y286865D01*
Y285765D02*
X434900D01*
Y286865D01*
X430950D02*
X434900D01*
X430950Y287734D02*
Y288833D01*
Y287734D02*
X434900D01*
Y288833D01*
X430950D02*
X434900D01*
X430950Y289702D02*
Y290802D01*
Y289702D02*
X434900D01*
Y290802D01*
X430950D02*
X434900D01*
X430950Y291670D02*
Y292771D01*
Y291670D02*
X434900D01*
Y292771D01*
X430950D02*
X434900D01*
X430950Y293639D02*
Y294739D01*
Y293639D02*
X434900D01*
Y294739D01*
X430950D02*
X434900D01*
X430950Y295607D02*
Y296708D01*
Y295607D02*
X434900D01*
Y296708D01*
X430950D02*
X434900D01*
X430950Y297576D02*
Y298676D01*
Y297576D02*
X434900D01*
Y298676D01*
X430950D02*
X434900D01*
X430950Y299545D02*
Y300644D01*
Y299545D02*
X434900D01*
Y300644D01*
X430950D02*
X434900D01*
X430950Y301513D02*
Y302613D01*
Y301513D02*
X434900D01*
Y302613D01*
X430950D02*
X434900D01*
X430950Y303482D02*
Y304581D01*
Y303482D02*
X434900D01*
Y304581D01*
X430950D02*
X434900D01*
X430950Y305450D02*
Y306550D01*
Y305450D02*
X434900D01*
Y306550D01*
X430950D02*
X434900D01*
X430950Y307418D02*
Y308519D01*
Y307418D02*
X434900D01*
Y308519D01*
X430950D02*
X434900D01*
X430950Y309387D02*
Y310487D01*
Y309387D02*
X434900D01*
Y310487D01*
X430950D02*
X434900D01*
X430950Y311355D02*
Y312456D01*
Y311355D02*
X434900D01*
Y312456D01*
X430950D02*
X434900D01*
X430950Y313324D02*
Y314424D01*
Y313324D02*
X434900D01*
Y314424D01*
X430950D02*
X434900D01*
X430950Y315293D02*
Y316392D01*
Y315293D02*
X434900D01*
Y316392D01*
X430950D02*
X434900D01*
X430950Y317261D02*
Y318361D01*
Y317261D02*
X434900D01*
Y318361D01*
X430950D02*
X434900D01*
X430950Y319230D02*
Y320329D01*
Y319230D02*
X434900D01*
Y320329D01*
X430950D02*
X434900D01*
X430950Y321198D02*
Y322298D01*
Y321198D02*
X434900D01*
Y322298D01*
X430950D02*
X434900D01*
X430950Y323166D02*
Y324267D01*
Y323166D02*
X434900D01*
Y324267D01*
X430950D02*
X434900D01*
X430950Y325135D02*
Y326235D01*
Y325135D02*
X434900D01*
Y326235D01*
X430950D02*
X434900D01*
X430950Y327103D02*
Y328204D01*
Y327103D02*
X434900D01*
Y328204D01*
X430950D02*
X434900D01*
X430950Y329072D02*
Y330172D01*
Y329072D02*
X434900D01*
Y330172D01*
X430950D02*
X434900D01*
X426072Y333950D02*
X427172D01*
Y337900D01*
X426072D02*
X427172D01*
X426072Y333950D02*
Y337900D01*
X424103Y333950D02*
X425204D01*
Y337900D01*
X424103D02*
X425204D01*
X424103Y333950D02*
Y337900D01*
X422135Y333950D02*
X423235D01*
Y337900D01*
X422135D02*
X423235D01*
X422135Y333950D02*
Y337900D01*
X420166Y333950D02*
X421267D01*
Y337900D01*
X420166D02*
X421267D01*
X420166Y333950D02*
Y337900D01*
X418198Y333950D02*
X419298D01*
Y337900D01*
X418198D02*
X419298D01*
X418198Y333950D02*
Y337900D01*
X416229Y333950D02*
X417330D01*
Y337900D01*
X416229D02*
X417330D01*
X416229Y333950D02*
Y337900D01*
X414261Y333950D02*
X415361D01*
Y337900D01*
X414261D02*
X415361D01*
X414261Y333950D02*
Y337900D01*
X412292Y333950D02*
X413392D01*
Y337900D01*
X412292D02*
X413392D01*
X412292Y333950D02*
Y337900D01*
X410324Y333950D02*
X411424D01*
Y337900D01*
X410324D02*
X411424D01*
X410324Y333950D02*
Y337900D01*
X408356Y333950D02*
X409455D01*
Y337900D01*
X408356D02*
X409455D01*
X408356Y333950D02*
Y337900D01*
X406387Y333950D02*
X407487D01*
Y337900D01*
X406387D02*
X407487D01*
X406387Y333950D02*
Y337900D01*
X404419Y333950D02*
X405518D01*
Y337900D01*
X404419D02*
X405518D01*
X404419Y333950D02*
Y337900D01*
X402450Y333950D02*
X403550D01*
Y337900D01*
X402450D02*
X403550D01*
X402450Y333950D02*
Y337900D01*
X400482Y333950D02*
X401581D01*
Y337900D01*
X400482D02*
X401581D01*
X400482Y333950D02*
Y337900D01*
X398513Y333950D02*
X399613D01*
Y337900D01*
X398513D02*
X399613D01*
X398513Y333950D02*
Y337900D01*
X396545Y333950D02*
X397644D01*
Y337900D01*
X396545D02*
X397644D01*
X396545Y333950D02*
Y337900D01*
X394576Y333950D02*
X395676D01*
Y337900D01*
X394576D02*
X395676D01*
X394576Y333950D02*
Y337900D01*
X392607Y333950D02*
X393707D01*
Y337900D01*
X392607D02*
X393707D01*
X392607Y333950D02*
Y337900D01*
X390639Y333950D02*
X391739D01*
Y337900D01*
X390639D02*
X391739D01*
X390639Y333950D02*
Y337900D01*
X388670Y333950D02*
X389771D01*
Y337900D01*
X388670D02*
X389771D01*
X388670Y333950D02*
Y337900D01*
X386702Y333950D02*
X387802D01*
Y337900D01*
X386702D02*
X387802D01*
X386702Y333950D02*
Y337900D01*
X384734Y333950D02*
X385834D01*
Y337900D01*
X384734D02*
X385834D01*
X384734Y333950D02*
Y337900D01*
X382765Y333950D02*
X383865D01*
Y337900D01*
X382765D02*
X383865D01*
X382765Y333950D02*
Y337900D01*
X380797Y333950D02*
X381896D01*
Y337900D01*
X380797D02*
X381896D01*
X380797Y333950D02*
Y337900D01*
X378828Y333950D02*
X379928D01*
Y337900D01*
X378828D02*
X379928D01*
X378828Y333950D02*
Y337900D01*
X375050Y283050D02*
X380050Y278050D01*
X430950D02*
Y333950D01*
X375050D02*
X430950D01*
X375050Y278050D02*
Y333950D01*
Y278050D02*
X430950D01*
X547094Y390481D02*
X585094D01*
X547094Y368581D02*
Y390481D01*
Y368581D02*
X585094D01*
Y390481D01*
X504000Y430364D02*
X506000D01*
Y426014D02*
Y430364D01*
X504000Y426014D02*
X506000D01*
X504000D02*
Y430364D01*
X499000D02*
X501000D01*
Y426014D02*
Y430364D01*
X499000Y426014D02*
X501000D01*
X499000D02*
Y430364D01*
X494000D02*
X496000D01*
Y426014D02*
Y430364D01*
X494000Y426014D02*
X496000D01*
X494000D02*
Y430364D01*
X489000D02*
X491000D01*
Y426014D02*
Y430364D01*
X489000Y426014D02*
X491000D01*
X489000D02*
Y430364D01*
Y446064D02*
X491000D01*
X489000D02*
Y450414D01*
X491000D01*
Y446064D02*
Y450414D01*
X494000Y446064D02*
X496000D01*
X494000D02*
Y450414D01*
X496000D01*
Y446064D02*
Y450414D01*
X499000Y446064D02*
X501000D01*
X499000D02*
Y450414D01*
X501000D01*
Y446064D02*
Y450414D01*
X504000Y446064D02*
X506000D01*
X504000D02*
Y450414D01*
X506000D01*
Y446064D02*
Y450414D01*
X487650Y430364D02*
Y446064D01*
X507350D01*
Y430364D02*
Y446064D01*
X487650Y430364D02*
X507350D01*
X585094Y401295D02*
Y423195D01*
X547094Y401295D02*
X585094D01*
X547094D02*
Y423195D01*
X585094D01*
Y335867D02*
Y357767D01*
X547094Y335867D02*
X585094D01*
X547094D02*
Y357767D01*
X585094D01*
X538000Y403864D02*
X540000D01*
Y399514D02*
Y403864D01*
X538000Y399514D02*
X540000D01*
X538000D02*
Y403864D01*
X533000D02*
X535000D01*
Y399514D02*
Y403864D01*
X533000Y399514D02*
X535000D01*
X533000D02*
Y403864D01*
X528000D02*
X530000D01*
Y399514D02*
Y403864D01*
X528000Y399514D02*
X530000D01*
X528000D02*
Y403864D01*
X523000D02*
X525000D01*
Y399514D02*
Y403864D01*
X523000Y399514D02*
X525000D01*
X523000D02*
Y403864D01*
Y419564D02*
X525000D01*
X523000D02*
Y423914D01*
X525000D01*
Y419564D02*
Y423914D01*
X528000Y419564D02*
X530000D01*
X528000D02*
Y423914D01*
X530000D01*
Y419564D02*
Y423914D01*
X533000Y419564D02*
X535000D01*
X533000D02*
Y423914D01*
X535000D01*
Y419564D02*
Y423914D01*
X538000Y419564D02*
X540000D01*
X538000D02*
Y423914D01*
X540000D01*
Y419564D02*
Y423914D01*
X521650Y403864D02*
Y419564D01*
X541350D01*
Y403864D02*
Y419564D01*
X521650Y403864D02*
X541350D01*
X521650Y273905D02*
X541350D01*
Y289605D01*
X521650D02*
X541350D01*
X521650Y273905D02*
Y289605D01*
X540000D02*
Y293955D01*
X538000D02*
X540000D01*
X538000Y289605D02*
Y293955D01*
Y289605D02*
X540000D01*
X535000D02*
Y293955D01*
X533000D02*
X535000D01*
X533000Y289605D02*
Y293955D01*
Y289605D02*
X535000D01*
X530000D02*
Y293955D01*
X528000D02*
X530000D01*
X528000Y289605D02*
Y293955D01*
Y289605D02*
X530000D01*
X525000D02*
Y293955D01*
X523000D02*
X525000D01*
X523000Y289605D02*
Y293955D01*
Y289605D02*
X525000D01*
X523000Y269555D02*
Y273905D01*
Y269555D02*
X525000D01*
Y273905D01*
X523000D02*
X525000D01*
X528000Y269555D02*
Y273905D01*
Y269555D02*
X530000D01*
Y273905D01*
X528000D02*
X530000D01*
X533000Y269555D02*
Y273905D01*
Y269555D02*
X535000D01*
Y273905D01*
X533000D02*
X535000D01*
X538000Y269555D02*
Y273905D01*
Y269555D02*
X540000D01*
Y273905D01*
X538000D02*
X540000D01*
X490650Y150864D02*
X510350D01*
Y166564D01*
X490650D02*
X510350D01*
X490650Y150864D02*
Y166564D01*
X509000D02*
Y170914D01*
X507000D02*
X509000D01*
X507000Y166564D02*
Y170914D01*
Y166564D02*
X509000D01*
X504000D02*
Y170914D01*
X502000D02*
X504000D01*
X502000Y166564D02*
Y170914D01*
Y166564D02*
X504000D01*
X499000D02*
Y170914D01*
X497000D02*
X499000D01*
X497000Y166564D02*
Y170914D01*
Y166564D02*
X499000D01*
X494000D02*
Y170914D01*
X492000D02*
X494000D01*
X492000Y166564D02*
Y170914D01*
Y166564D02*
X494000D01*
X492000Y146514D02*
Y150864D01*
Y146514D02*
X494000D01*
Y150864D01*
X492000D02*
X494000D01*
X497000Y146514D02*
Y150864D01*
Y146514D02*
X499000D01*
Y150864D01*
X497000D02*
X499000D01*
X502000Y146514D02*
Y150864D01*
Y146514D02*
X504000D01*
Y150864D01*
X502000D02*
X504000D01*
X507000Y146514D02*
Y150864D01*
Y146514D02*
X509000D01*
Y150864D01*
X507000D02*
X509000D01*
X521650Y176436D02*
X541350D01*
Y192136D01*
X521650D02*
X541350D01*
X521650Y176436D02*
Y192136D01*
X540000D02*
Y196486D01*
X538000D02*
X540000D01*
X538000Y192136D02*
Y196486D01*
Y192136D02*
X540000D01*
X535000D02*
Y196486D01*
X533000D02*
X535000D01*
X533000Y192136D02*
Y196486D01*
Y192136D02*
X535000D01*
X530000D02*
Y196486D01*
X528000D02*
X530000D01*
X528000Y192136D02*
Y196486D01*
Y192136D02*
X530000D01*
X525000D02*
Y196486D01*
X523000D02*
X525000D01*
X523000Y192136D02*
Y196486D01*
Y192136D02*
X525000D01*
X523000Y172086D02*
Y176436D01*
Y172086D02*
X525000D01*
Y176436D01*
X523000D02*
X525000D01*
X528000Y172086D02*
Y176436D01*
Y172086D02*
X530000D01*
Y176436D01*
X528000D02*
X530000D01*
X533000Y172086D02*
Y176436D01*
Y172086D02*
X535000D01*
Y176436D01*
X533000D02*
X535000D01*
X538000Y172086D02*
Y176436D01*
Y172086D02*
X540000D01*
Y176436D01*
X538000D02*
X540000D01*
X521650Y208926D02*
X541350D01*
Y224626D01*
X521650D02*
X541350D01*
X521650Y208926D02*
Y224626D01*
X540000D02*
Y228976D01*
X538000D02*
X540000D01*
X538000Y224626D02*
Y228976D01*
Y224626D02*
X540000D01*
X535000D02*
Y228976D01*
X533000D02*
X535000D01*
X533000Y224626D02*
Y228976D01*
Y224626D02*
X535000D01*
X530000D02*
Y228976D01*
X528000D02*
X530000D01*
X528000Y224626D02*
Y228976D01*
Y224626D02*
X530000D01*
X525000D02*
Y228976D01*
X523000D02*
X525000D01*
X523000Y224626D02*
Y228976D01*
Y224626D02*
X525000D01*
X523000Y204576D02*
Y208926D01*
Y204576D02*
X525000D01*
Y208926D01*
X523000D02*
X525000D01*
X528000Y204576D02*
Y208926D01*
Y204576D02*
X530000D01*
Y208926D01*
X528000D02*
X530000D01*
X533000Y204576D02*
Y208926D01*
Y204576D02*
X535000D01*
Y208926D01*
X533000D02*
X535000D01*
X538000Y204576D02*
Y208926D01*
Y204576D02*
X540000D01*
Y208926D01*
X538000D02*
X540000D01*
X521650Y241415D02*
X541350D01*
Y257115D01*
X521650D02*
X541350D01*
X521650Y241415D02*
Y257115D01*
X540000D02*
Y261465D01*
X538000D02*
X540000D01*
X538000Y257115D02*
Y261465D01*
Y257115D02*
X540000D01*
X535000D02*
Y261465D01*
X533000D02*
X535000D01*
X533000Y257115D02*
Y261465D01*
Y257115D02*
X535000D01*
X530000D02*
Y261465D01*
X528000D02*
X530000D01*
X528000Y257115D02*
Y261465D01*
Y257115D02*
X530000D01*
X525000D02*
Y261465D01*
X523000D02*
X525000D01*
X523000Y257115D02*
Y261465D01*
Y257115D02*
X525000D01*
X523000Y237065D02*
Y241415D01*
Y237065D02*
X525000D01*
Y241415D01*
X523000D02*
X525000D01*
X528000Y237065D02*
Y241415D01*
Y237065D02*
X530000D01*
Y241415D01*
X528000D02*
X530000D01*
X533000Y237065D02*
Y241415D01*
Y237065D02*
X535000D01*
Y241415D01*
X533000D02*
X535000D01*
X538000Y237065D02*
Y241415D01*
Y237065D02*
X540000D01*
Y241415D01*
X538000D02*
X540000D01*
X521650Y306395D02*
X541350D01*
Y322095D01*
X521650D02*
X541350D01*
X521650Y306395D02*
Y322095D01*
X540000D02*
Y326445D01*
X538000D02*
X540000D01*
X538000Y322095D02*
Y326445D01*
Y322095D02*
X540000D01*
X535000D02*
Y326445D01*
X533000D02*
X535000D01*
X533000Y322095D02*
Y326445D01*
Y322095D02*
X535000D01*
X530000D02*
Y326445D01*
X528000D02*
X530000D01*
X528000Y322095D02*
Y326445D01*
Y322095D02*
X530000D01*
X525000D02*
Y326445D01*
X523000D02*
X525000D01*
X523000Y322095D02*
Y326445D01*
Y322095D02*
X525000D01*
X523000Y302045D02*
Y306395D01*
Y302045D02*
X525000D01*
Y306395D01*
X523000D02*
X525000D01*
X528000Y302045D02*
Y306395D01*
Y302045D02*
X530000D01*
Y306395D01*
X528000D02*
X530000D01*
X533000Y302045D02*
Y306395D01*
Y302045D02*
X535000D01*
Y306395D01*
X533000D02*
X535000D01*
X538000Y302045D02*
Y306395D01*
Y302045D02*
X540000D01*
Y306395D01*
X538000D02*
X540000D01*
X521650Y338884D02*
X541350D01*
Y354585D01*
X521650D02*
X541350D01*
X521650Y338884D02*
Y354585D01*
X540000D02*
Y358934D01*
X538000D02*
X540000D01*
X538000Y354585D02*
Y358934D01*
Y354585D02*
X540000D01*
X535000D02*
Y358934D01*
X533000D02*
X535000D01*
X533000Y354585D02*
Y358934D01*
Y354585D02*
X535000D01*
X530000D02*
Y358934D01*
X528000D02*
X530000D01*
X528000Y354585D02*
Y358934D01*
Y354585D02*
X530000D01*
X525000D02*
Y358934D01*
X523000D02*
X525000D01*
X523000Y354585D02*
Y358934D01*
Y354585D02*
X525000D01*
X523000Y334535D02*
Y338884D01*
Y334535D02*
X525000D01*
Y338884D01*
X523000D02*
X525000D01*
X528000Y334535D02*
Y338884D01*
Y334535D02*
X530000D01*
Y338884D01*
X528000D02*
X530000D01*
X533000Y334535D02*
Y338884D01*
Y334535D02*
X535000D01*
Y338884D01*
X533000D02*
X535000D01*
X538000Y334535D02*
Y338884D01*
Y334535D02*
X540000D01*
Y338884D01*
X538000D02*
X540000D01*
X521650Y371374D02*
X541350D01*
Y387074D01*
X521650D02*
X541350D01*
X521650Y371374D02*
Y387074D01*
X540000D02*
Y391424D01*
X538000D02*
X540000D01*
X538000Y387074D02*
Y391424D01*
Y387074D02*
X540000D01*
X535000D02*
Y391424D01*
X533000D02*
X535000D01*
X533000Y387074D02*
Y391424D01*
Y387074D02*
X535000D01*
X530000D02*
Y391424D01*
X528000D02*
X530000D01*
X528000Y387074D02*
Y391424D01*
Y387074D02*
X530000D01*
X525000D02*
Y391424D01*
X523000D02*
X525000D01*
X523000Y387074D02*
Y391424D01*
Y387074D02*
X525000D01*
X523000Y367024D02*
Y371374D01*
Y367024D02*
X525000D01*
Y371374D01*
X523000D02*
X525000D01*
X528000Y367024D02*
Y371374D01*
Y367024D02*
X530000D01*
Y371374D01*
X528000D02*
X530000D01*
X533000Y367024D02*
Y371374D01*
Y367024D02*
X535000D01*
Y371374D01*
X533000D02*
X535000D01*
X538000Y367024D02*
Y371374D01*
Y367024D02*
X540000D01*
Y371374D01*
X538000D02*
X540000D01*
X523906Y450695D02*
X561905D01*
X523906Y428795D02*
Y450695D01*
Y428795D02*
X561905D01*
Y450695D01*
X349095Y429305D02*
Y451205D01*
X387094D01*
Y429305D02*
Y451205D01*
X349095Y429305D02*
X387094D01*
M02*
