G04*
G04 #@! TF.GenerationSoftware,Altium Limited,Altium Designer,25.7.1 (20)*
G04*
G04 Layer_Color=32896*
%FSLAX25Y25*%
%MOIN*%
G70*
G04*
G04 #@! TF.SameCoordinates,4004DD4F-5307-4C4F-B8C3-9824D0AE2BA4*
G04*
G04*
G04 #@! TF.FilePolarity,Positive*
G04*
G01*
G75*
%ADD10C,0.00984*%
%ADD11C,0.02000*%
%ADD12C,0.00787*%
%ADD13C,0.00600*%
%ADD14C,0.00591*%
%ADD16C,0.00300*%
%ADD17C,0.01000*%
D10*
X393992Y353259D02*
G03*
X393992Y353259I-492J0D01*
G01*
D11*
X545595Y184500D02*
G03*
X545595Y184500I-1500J0D01*
G01*
Y217214D02*
G03*
X545595Y217214I-1500J0D01*
G01*
X522500Y155255D02*
G03*
X522500Y155255I-1500J0D01*
G01*
X545595Y249929D02*
G03*
X545595Y249929I-1500J0D01*
G01*
Y282643D02*
G03*
X545595Y282643I-1500J0D01*
G01*
Y315357D02*
G03*
X545595Y315357I-1500J0D01*
G01*
Y380786D02*
G03*
X545595Y380786I-1500J0D01*
G01*
Y413500D02*
G03*
X545595Y413500I-1500J0D01*
G01*
Y348071D02*
G03*
X545595Y348071I-1500J0D01*
G01*
X522405Y441000D02*
G03*
X522405Y441000I-1500J0D01*
G01*
X391595Y439000D02*
G03*
X391595Y439000I-1500J0D01*
G01*
D12*
X433106Y254327D02*
X433894D01*
X433106Y257673D02*
X433894D01*
X419606D02*
X420394D01*
X419606Y254327D02*
X420394D01*
X376344Y365933D02*
X395655D01*
X376344D02*
Y372067D01*
X395655D01*
Y365933D02*
Y372067D01*
X392425Y392008D02*
Y392795D01*
X395575Y392008D02*
Y392795D01*
X379575Y392008D02*
Y392795D01*
X376425Y392008D02*
Y392795D01*
X387673Y399106D02*
Y399894D01*
X384327Y399106D02*
Y399894D01*
X382606Y269673D02*
X383394D01*
X382606Y266327D02*
X383394D01*
X382606Y263173D02*
X383394D01*
X382606Y259827D02*
X383394D01*
D13*
X427052Y255039D02*
G03*
X427052Y255039I-300J0D01*
G01*
X432352Y242671D02*
Y245051D01*
X421152Y242671D02*
Y245051D01*
X385000Y252235D02*
Y255250D01*
Y230582D02*
Y247418D01*
X401000Y222750D02*
Y225765D01*
Y230582D02*
Y247418D01*
Y252235D02*
Y255250D01*
X385000D02*
X401000D01*
X385000Y222750D02*
Y225765D01*
Y222750D02*
X401000D01*
X487150Y429864D02*
Y446564D01*
X507850Y429864D02*
Y446564D01*
X521150Y403364D02*
Y420064D01*
X541850Y403364D02*
Y420064D01*
Y273405D02*
Y290105D01*
X521150Y273405D02*
Y290105D01*
X510850Y150364D02*
Y167064D01*
X490150Y150364D02*
Y167064D01*
X541850Y175936D02*
Y192636D01*
X521150Y175936D02*
Y192636D01*
X541850Y208426D02*
Y225126D01*
X521150Y208426D02*
Y225126D01*
X541850Y240915D02*
Y257615D01*
X521150Y240915D02*
Y257615D01*
X541850Y305895D02*
Y322595D01*
X521150Y305895D02*
Y322595D01*
X541850Y338385D02*
Y355084D01*
X521150Y338385D02*
Y355084D01*
X541850Y370874D02*
Y387574D01*
X521150Y370874D02*
Y387574D01*
D14*
X508713Y413000D02*
X510287D01*
X508713Y387500D02*
X510287D01*
X414213Y284500D02*
X415787D01*
X418713D02*
X420287D01*
X432500Y320213D02*
Y321787D01*
X393000Y282213D02*
Y283787D01*
X508713Y355000D02*
X510287D01*
X508713Y322500D02*
X510287D01*
X508713Y290000D02*
X510287D01*
X508713Y225000D02*
X510287D01*
X508713Y192500D02*
X510287D01*
X508713Y257500D02*
X510287D01*
X385000Y342713D02*
Y344287D01*
X385819Y347335D02*
X388181D01*
X385819Y351665D02*
X388181D01*
X475713Y167500D02*
X477287D01*
X475713Y446500D02*
X477287D01*
D16*
X407000Y255665D02*
X403668Y252333D01*
X407000D02*
X403668Y255665D01*
X407000Y253999D02*
X403668D01*
X405334Y252333D02*
Y255665D01*
X510862Y425250D02*
X507530Y428582D01*
Y425250D02*
X510862Y428582D01*
X509196Y425250D02*
Y428582D01*
X507530Y426916D02*
X510862D01*
X544665Y394500D02*
X541333Y397832D01*
Y394500D02*
X544665Y397832D01*
X542999Y394500D02*
Y397832D01*
X541333Y396166D02*
X544665D01*
X544862Y268791D02*
X541530Y272123D01*
Y268791D02*
X544862Y272123D01*
X543196Y268791D02*
Y272123D01*
X541530Y270457D02*
X544862D01*
X513862Y145750D02*
X510530Y149082D01*
Y145750D02*
X513862Y149082D01*
X512196Y145750D02*
Y149082D01*
X510530Y147416D02*
X513862D01*
X544862Y171322D02*
X541530Y174654D01*
Y171322D02*
X544862Y174654D01*
X543196Y171322D02*
Y174654D01*
X541530Y172988D02*
X544862D01*
Y203812D02*
X541530Y207144D01*
Y203812D02*
X544862Y207144D01*
X543196Y203812D02*
Y207144D01*
X541530Y205478D02*
X544862D01*
Y236301D02*
X541530Y239634D01*
Y236301D02*
X544862Y239634D01*
X543196Y236301D02*
Y239634D01*
X541530Y237968D02*
X544862D01*
Y301281D02*
X541530Y304613D01*
Y301281D02*
X544862Y304613D01*
X543196Y301281D02*
Y304613D01*
X541530Y302947D02*
X544862D01*
Y333771D02*
X541530Y337103D01*
Y333771D02*
X544862Y337103D01*
X543196Y333771D02*
Y337103D01*
X541530Y335437D02*
X544862D01*
Y366260D02*
X541530Y369592D01*
Y366260D02*
X544862Y369592D01*
X543196Y366260D02*
Y369592D01*
X541530Y367926D02*
X544862D01*
D17*
X501999Y187999D02*
X502998Y188999D01*
X504998D01*
X505997Y187999D01*
Y184001D01*
X504998Y183001D01*
X502998D01*
X501999Y184001D01*
X499999Y187999D02*
X499000Y188999D01*
X497000D01*
X496001Y187999D01*
Y187000D01*
X497000Y186000D01*
X498000D01*
X497000D01*
X496001Y185000D01*
Y184001D01*
X497000Y183001D01*
X499000D01*
X499999Y184001D01*
X490003Y188999D02*
X492002Y187999D01*
X494001Y186000D01*
Y184001D01*
X493002Y183001D01*
X491002D01*
X490003Y184001D01*
Y185000D01*
X491002Y186000D01*
X494001D01*
X501999Y252999D02*
X502998Y253999D01*
X504998D01*
X505997Y252999D01*
Y249001D01*
X504998Y248001D01*
X502998D01*
X501999Y249001D01*
X499999Y252999D02*
X499000Y253999D01*
X497000D01*
X496001Y252999D01*
Y252000D01*
X497000Y251000D01*
X498000D01*
X497000D01*
X496001Y250000D01*
Y249001D01*
X497000Y248001D01*
X499000D01*
X499999Y249001D01*
X491002Y248001D02*
Y253999D01*
X494001Y251000D01*
X490003D01*
X501999Y318499D02*
X502998Y319499D01*
X504998D01*
X505997Y318499D01*
Y314501D01*
X504998Y313501D01*
X502998D01*
X501999Y314501D01*
X499999Y318499D02*
X499000Y319499D01*
X497000D01*
X496001Y318499D01*
Y317500D01*
X497000Y316500D01*
X498000D01*
X497000D01*
X496001Y315500D01*
Y314501D01*
X497000Y313501D01*
X499000D01*
X499999Y314501D01*
X490003Y313501D02*
X494001D01*
X490003Y317500D01*
Y318499D01*
X491002Y319499D01*
X493002D01*
X494001Y318499D01*
Y379501D02*
X493002Y378501D01*
X491002D01*
X490003Y379501D01*
Y383499D01*
X491002Y384499D01*
X493002D01*
X494001Y383499D01*
X496001Y379501D02*
X497000Y378501D01*
X499000D01*
X499999Y379501D01*
Y380500D01*
X499000Y381500D01*
X498000D01*
X499000D01*
X499999Y382500D01*
Y383499D01*
X499000Y384499D01*
X497000D01*
X496001Y383499D01*
X501999Y379501D02*
X502998Y378501D01*
X504998D01*
X505997Y379501D01*
Y383499D01*
X504998Y384499D01*
X502998D01*
X501999Y383499D01*
Y379501D01*
X481499Y426499D02*
X482498Y427499D01*
X484498D01*
X485497Y426499D01*
Y422501D01*
X484498Y421501D01*
X482498D01*
X481499Y422501D01*
X475501Y421501D02*
X479499D01*
X475501Y425500D01*
Y426499D01*
X476500Y427499D01*
X478500D01*
X479499Y426499D01*
X473501D02*
X472502Y427499D01*
X470502D01*
X469503Y426499D01*
Y425500D01*
X470502Y424500D01*
X469503Y423500D01*
Y422501D01*
X470502Y421501D01*
X472502D01*
X473501Y422501D01*
Y423500D01*
X472502Y424500D01*
X473501Y425500D01*
Y426499D01*
X472502Y424500D02*
X470502D01*
X501999Y408499D02*
X502998Y409499D01*
X504998D01*
X505997Y408499D01*
Y404501D01*
X504998Y403501D01*
X502998D01*
X501999Y404501D01*
X496001Y403501D02*
X499999D01*
X496001Y407500D01*
Y408499D01*
X497000Y409499D01*
X499000D01*
X499999Y408499D01*
X490003Y409499D02*
X492002Y408499D01*
X494001Y406500D01*
Y404501D01*
X493002Y403501D01*
X491002D01*
X490003Y404501D01*
Y405500D01*
X491002Y406500D01*
X494001D01*
X501999Y350999D02*
X502998Y351999D01*
X504998D01*
X505997Y350999D01*
Y347001D01*
X504998Y346001D01*
X502998D01*
X501999Y347001D01*
X496001Y346001D02*
X499999D01*
X496001Y350000D01*
Y350999D01*
X497000Y351999D01*
X499000D01*
X499999Y350999D01*
X491002Y346001D02*
Y351999D01*
X494001Y349000D01*
X490003D01*
X501999Y286999D02*
X502998Y287999D01*
X504998D01*
X505997Y286999D01*
Y283001D01*
X504998Y282001D01*
X502998D01*
X501999Y283001D01*
X496001Y282001D02*
X499999D01*
X496001Y286000D01*
Y286999D01*
X497000Y287999D01*
X499000D01*
X499999Y286999D01*
X490003Y282001D02*
X494001D01*
X490003Y286000D01*
Y286999D01*
X491002Y287999D01*
X493002D01*
X494001Y286999D01*
X501999Y223999D02*
X502998Y224999D01*
X504998D01*
X505997Y223999D01*
Y220001D01*
X504998Y219001D01*
X502998D01*
X501999Y220001D01*
X496001Y219001D02*
X499999D01*
X496001Y223000D01*
Y223999D01*
X497000Y224999D01*
X499000D01*
X499999Y223999D01*
X494001D02*
X493002Y224999D01*
X491002D01*
X490003Y223999D01*
Y220001D01*
X491002Y219001D01*
X493002D01*
X494001Y220001D01*
Y223999D01*
X440001Y150501D02*
X439002Y149501D01*
X437002D01*
X436002Y150501D01*
Y154499D01*
X437002Y155499D01*
X439002D01*
X440001Y154499D01*
X442000Y155499D02*
X444000D01*
X443000D01*
Y149501D01*
X442000Y150501D01*
X446999D02*
X447999Y149501D01*
X449998D01*
X450998Y150501D01*
Y151500D01*
X449998Y152500D01*
X450998Y153500D01*
Y154499D01*
X449998Y155499D01*
X447999D01*
X446999Y154499D01*
Y153500D01*
X447999Y152500D01*
X446999Y151500D01*
Y150501D01*
X447999Y152500D02*
X449998D01*
X431995Y229999D02*
X427997Y224001D01*
Y229999D02*
X431995Y224001D01*
X425997Y229999D02*
X421999D01*
X423998D01*
Y224001D01*
X419999D02*
Y228000D01*
X418000Y229999D01*
X416001Y228000D01*
Y224001D01*
Y227000D01*
X419999D01*
X414001Y229999D02*
Y224001D01*
X410003D01*
X404004D02*
X408003D01*
X404004Y228000D01*
Y228999D01*
X405004Y229999D01*
X407003D01*
X408003Y228999D01*
X382996Y235499D02*
X378997Y229501D01*
Y235499D02*
X382996Y229501D01*
X376998Y235499D02*
X372999D01*
X374998D01*
Y229501D01*
X371000D02*
Y233500D01*
X369000Y235499D01*
X367001Y233500D01*
Y229501D01*
Y232500D01*
X371000D01*
X365002Y235499D02*
Y229501D01*
X361003D01*
X359003D02*
X357004D01*
X358004D01*
Y235499D01*
X359003Y234499D01*
X404999Y363502D02*
X400001D01*
X399001Y364501D01*
Y366501D01*
X400001Y367500D01*
X404999D01*
X399001Y373498D02*
Y369500D01*
X403000Y373498D01*
X403999D01*
X404999Y372499D01*
Y370499D01*
X403999Y369500D01*
X505997Y227001D02*
Y232999D01*
X503998Y231000D01*
X501999Y232999D01*
Y227001D01*
X499999Y232999D02*
Y227001D01*
X497000D01*
X496001Y228001D01*
Y231999D01*
X497000Y232999D01*
X499999D01*
X494001Y231999D02*
X493002Y232999D01*
X491002D01*
X490003Y231999D01*
Y231000D01*
X491002Y230000D01*
X492002D01*
X491002D01*
X490003Y229000D01*
Y228001D01*
X491002Y227001D01*
X493002D01*
X494001Y228001D01*
X373998Y389501D02*
Y395499D01*
X370999D01*
X369999Y394499D01*
Y392500D01*
X370999Y391500D01*
X373998D01*
X371998D02*
X369999Y389501D01*
X368000D02*
X366000D01*
X367000D01*
Y395499D01*
X368000Y394499D01*
X359002Y389501D02*
X363001D01*
X359002Y393500D01*
Y394499D01*
X360002Y395499D01*
X362001D01*
X363001Y394499D01*
X411998Y389001D02*
Y394999D01*
X408999D01*
X407999Y393999D01*
Y392000D01*
X408999Y391000D01*
X411998D01*
X409999D02*
X407999Y389001D01*
X406000D02*
X404001D01*
X405000D01*
Y394999D01*
X406000Y393999D01*
X401002Y389001D02*
X399002D01*
X400002D01*
Y394999D01*
X401002Y393999D01*
X485497Y429501D02*
Y435499D01*
X483497Y433500D01*
X481498Y435499D01*
Y429501D01*
X479498Y435499D02*
Y429501D01*
X476500D01*
X475500Y430501D01*
Y434499D01*
X476500Y435499D01*
X479498D01*
X473500Y429501D02*
X471501D01*
X472501D01*
Y435499D01*
X473500Y434499D01*
X468502D02*
X467502Y435499D01*
X465503D01*
X464503Y434499D01*
Y430501D01*
X465503Y429501D01*
X467502D01*
X468502Y430501D01*
Y434499D01*
X505997Y412501D02*
Y418499D01*
X503998Y416500D01*
X501999Y418499D01*
Y412501D01*
X499999Y418499D02*
Y412501D01*
X497000D01*
X496001Y413501D01*
Y417499D01*
X497000Y418499D01*
X499999D01*
X494001Y413501D02*
X493002Y412501D01*
X491002D01*
X490003Y413501D01*
Y417499D01*
X491002Y418499D01*
X493002D01*
X494001Y417499D01*
Y416500D01*
X493002Y415500D01*
X490003D01*
X505997Y387001D02*
Y392999D01*
X503998Y391000D01*
X501999Y392999D01*
Y387001D01*
X499999Y392999D02*
Y387001D01*
X497000D01*
X496001Y388001D01*
Y391999D01*
X497000Y392999D01*
X499999D01*
X494001Y391999D02*
X493002Y392999D01*
X491002D01*
X490003Y391999D01*
Y391000D01*
X491002Y390000D01*
X490003Y389000D01*
Y388001D01*
X491002Y387001D01*
X493002D01*
X494001Y388001D01*
Y389000D01*
X493002Y390000D01*
X494001Y391000D01*
Y391999D01*
X493002Y390000D02*
X491002D01*
X505997Y354501D02*
Y360499D01*
X503998Y358500D01*
X501999Y360499D01*
Y354501D01*
X499999Y360499D02*
Y354501D01*
X497000D01*
X496001Y355501D01*
Y359499D01*
X497000Y360499D01*
X499999D01*
X494001D02*
X490003D01*
Y359499D01*
X494001Y355501D01*
Y354501D01*
X505997Y322001D02*
Y327999D01*
X503998Y326000D01*
X501999Y327999D01*
Y322001D01*
X499999Y327999D02*
Y322001D01*
X497000D01*
X496001Y323001D01*
Y326999D01*
X497000Y327999D01*
X499999D01*
X490003D02*
X492002Y326999D01*
X494001Y325000D01*
Y323001D01*
X493002Y322001D01*
X491002D01*
X490003Y323001D01*
Y324000D01*
X491002Y325000D01*
X494001D01*
X505997Y291001D02*
Y296999D01*
X503998Y295000D01*
X501999Y296999D01*
Y291001D01*
X499999Y296999D02*
Y291001D01*
X497000D01*
X496001Y292001D01*
Y295999D01*
X497000Y296999D01*
X499999D01*
X490003D02*
X494001D01*
Y294000D01*
X492002Y295000D01*
X491002D01*
X490003Y294000D01*
Y292001D01*
X491002Y291001D01*
X493002D01*
X494001Y292001D01*
X505997Y257001D02*
Y262999D01*
X503998Y261000D01*
X501999Y262999D01*
Y257001D01*
X499999Y262999D02*
Y257001D01*
X497000D01*
X496001Y258001D01*
Y261999D01*
X497000Y262999D01*
X499999D01*
X491002Y257001D02*
Y262999D01*
X494001Y260000D01*
X490003D01*
X488997Y174501D02*
Y180499D01*
X486998Y178500D01*
X484999Y180499D01*
Y174501D01*
X482999Y180499D02*
Y174501D01*
X480000D01*
X479001Y175501D01*
Y179499D01*
X480000Y180499D01*
X482999D01*
X473003Y174501D02*
X477001D01*
X473003Y178500D01*
Y179499D01*
X474002Y180499D01*
X476002D01*
X477001Y179499D01*
X505997Y192001D02*
Y197999D01*
X503998Y196000D01*
X501999Y197999D01*
Y192001D01*
X499999Y197999D02*
Y192001D01*
X497000D01*
X496001Y193001D01*
Y196999D01*
X497000Y197999D01*
X499999D01*
X494001Y192001D02*
X492002D01*
X493002D01*
Y197999D01*
X494001Y196999D01*
X420499Y265499D02*
X421498Y266499D01*
X423498D01*
X424498Y265499D01*
Y261501D01*
X423498Y260501D01*
X421498D01*
X420499Y261501D01*
X418500Y260501D02*
X416500D01*
X417500D01*
Y266499D01*
X418500Y265499D01*
X409502Y266499D02*
X413501D01*
Y263500D01*
X411502Y264500D01*
X410502D01*
X409502Y263500D01*
Y261501D01*
X410502Y260501D01*
X412501D01*
X413501Y261501D01*
X438999Y264999D02*
X439998Y265999D01*
X441998D01*
X442998Y264999D01*
Y261001D01*
X441998Y260001D01*
X439998D01*
X438999Y261001D01*
X437000Y260001D02*
X435000D01*
X436000D01*
Y265999D01*
X437000Y264999D01*
X429002Y260001D02*
Y265999D01*
X432001Y263000D01*
X428002D01*
X386499Y276999D02*
X387498Y277999D01*
X389498D01*
X390498Y276999D01*
Y273001D01*
X389498Y272001D01*
X387498D01*
X386499Y273001D01*
X384500Y272001D02*
X382500D01*
X383500D01*
Y277999D01*
X384500Y276999D01*
X379501D02*
X378502Y277999D01*
X376502D01*
X375502Y276999D01*
Y276000D01*
X376502Y275000D01*
X377502D01*
X376502D01*
X375502Y274000D01*
Y273001D01*
X376502Y272001D01*
X378502D01*
X379501Y273001D01*
X372499Y262999D02*
X373499Y263999D01*
X375498D01*
X376498Y262999D01*
Y259001D01*
X375498Y258001D01*
X373499D01*
X372499Y259001D01*
X370499Y258001D02*
X368500D01*
X369500D01*
Y263999D01*
X370499Y262999D01*
X361502Y258001D02*
X365501D01*
X361502Y262000D01*
Y262999D01*
X362502Y263999D01*
X364502D01*
X365501Y262999D01*
X397500Y292999D02*
X398499Y293999D01*
X400499D01*
X401498Y292999D01*
Y289001D01*
X400499Y288001D01*
X398499D01*
X397500Y289001D01*
X395500D02*
X394501Y288001D01*
X392501D01*
X391502Y289001D01*
Y292999D01*
X392501Y293999D01*
X394501D01*
X395500Y292999D01*
Y292000D01*
X394501Y291000D01*
X391502D01*
X411500Y294499D02*
X412499Y295499D01*
X414499D01*
X415498Y294499D01*
Y290501D01*
X414499Y289501D01*
X412499D01*
X411500Y290501D01*
X409500Y294499D02*
X408501Y295499D01*
X406501D01*
X405502Y294499D01*
Y293500D01*
X406501Y292500D01*
X405502Y291500D01*
Y290501D01*
X406501Y289501D01*
X408501D01*
X409500Y290501D01*
Y291500D01*
X408501Y292500D01*
X409500Y293500D01*
Y294499D01*
X408501Y292500D02*
X406501D01*
X425000Y293499D02*
X425999Y294499D01*
X427999D01*
X428998Y293499D01*
Y289501D01*
X427999Y288501D01*
X425999D01*
X425000Y289501D01*
X423000Y294499D02*
X419002D01*
Y293499D01*
X423000Y289501D01*
Y288501D01*
X436000Y316999D02*
X436999Y317999D01*
X438999D01*
X439998Y316999D01*
Y313001D01*
X438999Y312001D01*
X436999D01*
X436000Y313001D01*
X430002Y317999D02*
X434000D01*
Y315000D01*
X432001Y316000D01*
X431001D01*
X430002Y315000D01*
Y313001D01*
X431001Y312001D01*
X433001D01*
X434000Y313001D01*
X387000Y411999D02*
X387999Y412999D01*
X389999D01*
X390998Y411999D01*
Y408001D01*
X389999Y407001D01*
X387999D01*
X387000Y408001D01*
X385000Y411999D02*
X384001Y412999D01*
X382001D01*
X381002Y411999D01*
Y411000D01*
X382001Y410000D01*
X383001D01*
X382001D01*
X381002Y409000D01*
Y408001D01*
X382001Y407001D01*
X384001D01*
X385000Y408001D01*
X375500Y345499D02*
X376499Y346499D01*
X378499D01*
X379498Y345499D01*
Y341501D01*
X378499Y340501D01*
X376499D01*
X375500Y341501D01*
X369502Y340501D02*
X373500D01*
X369502Y344500D01*
Y345499D01*
X370501Y346499D01*
X372501D01*
X373500Y345499D01*
X399000Y351499D02*
X400000Y352499D01*
X401999D01*
X402999Y351499D01*
Y347501D01*
X401999Y346501D01*
X400000D01*
X399000Y347501D01*
X397001Y346501D02*
X395001D01*
X396001D01*
Y352499D01*
X397001Y351499D01*
M02*
