G04*
G04 #@! TF.GenerationSoftware,Altium Limited,Altium Designer,25.7.1 (20)*
G04*
G04 Layer_Color=2752767*
%FSLAX25Y25*%
%MOIN*%
G70*
G04*
G04 #@! TF.SameCoordinates,4004DD4F-5307-4C4F-B8C3-9824D0AE2BA4*
G04*
G04*
G04 #@! TF.FilePolarity,Positive*
G04*
G01*
G75*
%ADD15C,0.00500*%
%ADD74C,0.00667*%
D15*
X325685Y195744D02*
X326685D01*
X327685Y196744D01*
X328685Y195744D01*
X329685D01*
Y196744D01*
X328685Y197744D01*
X329685Y198744D01*
Y199744D01*
X328685D01*
X327685Y198744D01*
X326685Y199744D01*
X325685D01*
Y198744D01*
X326685Y197744D01*
X325685Y196744D01*
Y195744D01*
X335685D02*
X336685D01*
X337685Y196744D01*
X338685Y195744D01*
X339685D01*
Y196744D01*
X338685Y197744D01*
X339685Y198744D01*
Y199744D01*
X338685D01*
X337685Y198744D01*
X336685Y199744D01*
X335685D01*
Y198744D01*
X336685Y197744D01*
X335685Y196744D01*
Y195744D01*
X325685Y185744D02*
X326685D01*
X327685Y186744D01*
X328685Y185744D01*
X329685D01*
Y186744D01*
X328685Y187744D01*
X329685Y188744D01*
Y189744D01*
X328685D01*
X327685Y188744D01*
X326685Y189744D01*
X325685D01*
Y188744D01*
X326685Y187744D01*
X325685Y186744D01*
Y185744D01*
Y175744D02*
X326685D01*
X327685Y176744D01*
X328685Y175744D01*
X329685D01*
Y176744D01*
X328685Y177744D01*
X329685Y178744D01*
Y179744D01*
X328685D01*
X327685Y178744D01*
X326685Y179744D01*
X325685D01*
Y178744D01*
X326685Y177744D01*
X325685Y176744D01*
Y175744D01*
X335685Y185744D02*
X336685D01*
X337685Y186744D01*
X338685Y185744D01*
X339685D01*
Y186744D01*
X338685Y187744D01*
X339685Y188744D01*
Y189744D01*
X338685D01*
X337685Y188744D01*
X336685Y189744D01*
X335685D01*
Y188744D01*
X336685Y187744D01*
X335685Y186744D01*
Y185744D01*
Y175744D02*
X336685D01*
X337685Y176744D01*
X338685Y175744D01*
X339685D01*
Y176744D01*
X338685Y177744D01*
X339685Y178744D01*
Y179744D01*
X338685D01*
X337685Y178744D01*
X336685Y179744D01*
X335685D01*
Y178744D01*
X336685Y177744D01*
X335685Y176744D01*
Y175744D01*
X329000Y225000D02*
X330000D01*
X331000Y226000D01*
X332000Y225000D01*
X333000D01*
Y226000D01*
X332000Y227000D01*
X333000Y228000D01*
Y229000D01*
X332000D01*
X331000Y228000D01*
X330000Y229000D01*
X329000D01*
Y228000D01*
X330000Y227000D01*
X329000Y226000D01*
Y225000D01*
X319000D02*
X320000D01*
X321000Y226000D01*
X322000Y225000D01*
X323000D01*
Y226000D01*
X322000Y227000D01*
X323000Y228000D01*
Y229000D01*
X322000D01*
X321000Y228000D01*
X320000Y229000D01*
X319000D01*
Y228000D01*
X320000Y227000D01*
X319000Y226000D01*
Y225000D01*
X329000Y235000D02*
X330000D01*
X331000Y236000D01*
X332000Y235000D01*
X333000D01*
Y236000D01*
X332000Y237000D01*
X333000Y238000D01*
Y239000D01*
X332000D01*
X331000Y238000D01*
X330000Y239000D01*
X329000D01*
Y238000D01*
X330000Y237000D01*
X329000Y236000D01*
Y235000D01*
Y245000D02*
X330000D01*
X331000Y246000D01*
X332000Y245000D01*
X333000D01*
Y246000D01*
X332000Y247000D01*
X333000Y248000D01*
Y249000D01*
X332000D01*
X331000Y248000D01*
X330000Y249000D01*
X329000D01*
Y248000D01*
X330000Y247000D01*
X329000Y246000D01*
Y245000D01*
X319000Y235000D02*
X320000D01*
X321000Y236000D01*
X322000Y235000D01*
X323000D01*
Y236000D01*
X322000Y237000D01*
X323000Y238000D01*
Y239000D01*
X322000D01*
X321000Y238000D01*
X320000Y239000D01*
X319000D01*
Y238000D01*
X320000Y237000D01*
X319000Y236000D01*
Y235000D01*
Y245000D02*
X320000D01*
X321000Y246000D01*
X322000Y245000D01*
X323000D01*
Y246000D01*
X322000Y247000D01*
X323000Y248000D01*
Y249000D01*
X322000D01*
X321000Y248000D01*
X320000Y249000D01*
X319000D01*
Y248000D01*
X320000Y247000D01*
X319000Y246000D01*
Y245000D01*
X328748Y154287D02*
X326748Y158287D01*
X330748D01*
X328748Y154287D01*
X578465Y182500D02*
Y186500D01*
X582465D01*
Y182500D01*
X578465D01*
X549724D02*
Y186500D01*
X553724D01*
Y182500D01*
X549724D01*
X578465Y215214D02*
Y219214D01*
X582465D01*
Y215214D01*
X578465D01*
X549724D02*
Y219214D01*
X553724D01*
Y215214D01*
X549724D01*
X555370Y153255D02*
Y157255D01*
X559370D01*
Y153255D01*
X555370D01*
X526630D02*
Y157255D01*
X530630D01*
Y153255D01*
X526630D01*
X578465Y247929D02*
Y251929D01*
X582465D01*
Y247929D01*
X578465D01*
X549724D02*
Y251929D01*
X553724D01*
Y247929D01*
X549724D01*
Y280643D02*
Y284643D01*
X553724D01*
Y280643D01*
X549724D01*
X578465D02*
Y284643D01*
X582465D01*
Y280643D01*
X578465D01*
Y313357D02*
Y317357D01*
X582465D01*
Y313357D01*
X578465D01*
X549724D02*
Y317357D01*
X553724D01*
Y313357D01*
X549724D01*
X328748Y437752D02*
X326748Y441752D01*
X330748D01*
X328748Y437752D01*
X572752D02*
X570752Y441752D01*
X574752D01*
X572752Y437752D01*
Y154248D02*
X570752Y158248D01*
X574752D01*
X572752Y154248D01*
X420154Y434299D02*
X421153Y436299D01*
X420154Y438299D01*
X422154Y437299D01*
X424154Y438299D01*
X423153Y436299D01*
X424154Y434299D01*
X422154Y435299D01*
X420154Y434299D01*
X448500Y435500D02*
X449500Y437500D01*
X448500Y439500D01*
X450500Y438500D01*
X452500Y439500D01*
X451500Y437500D01*
X452500Y435500D01*
X450500Y436500D01*
X448500Y435500D01*
X515000Y414000D02*
Y413000D01*
X517000D01*
Y414000D01*
X518000D01*
Y416000D01*
X517000D01*
Y417000D01*
X515000D01*
Y416000D01*
X514000D01*
Y414000D01*
X515000D01*
Y406000D02*
Y405000D01*
X517000D01*
Y406000D01*
X518000D01*
Y408000D01*
X517000D01*
Y409000D01*
X515000D01*
Y408000D01*
X514000D01*
Y406000D01*
X515000D01*
Y185500D02*
Y184500D01*
X517000D01*
Y185500D01*
X518000D01*
Y187500D01*
X517000D01*
Y188500D01*
X515000D01*
Y187500D01*
X514000D01*
Y185500D01*
X515000D01*
Y193500D02*
Y192500D01*
X517000D01*
Y193500D01*
X518000D01*
Y195500D01*
X517000D01*
Y196500D01*
X515000D01*
Y195500D01*
X514000D01*
Y193500D01*
X515000D01*
Y251000D02*
Y250000D01*
X517000D01*
Y251000D01*
X518000D01*
Y253000D01*
X517000D01*
Y254000D01*
X515000D01*
Y253000D01*
X514000D01*
Y251000D01*
X515000D01*
Y259000D02*
Y258000D01*
X517000D01*
Y259000D01*
X518000D01*
Y261000D01*
X517000D01*
Y262000D01*
X515000D01*
Y261000D01*
X514000D01*
Y259000D01*
X515000D01*
Y316000D02*
Y315000D01*
X517000D01*
Y316000D01*
X518000D01*
Y318000D01*
X517000D01*
Y319000D01*
X515000D01*
Y318000D01*
X514000D01*
Y316000D01*
X515000D01*
Y324000D02*
Y323000D01*
X517000D01*
Y324000D01*
X518000D01*
Y326000D01*
X517000D01*
Y327000D01*
X515000D01*
Y326000D01*
X514000D01*
Y324000D01*
X515000D01*
Y381000D02*
Y380000D01*
X517000D01*
Y381000D01*
X518000D01*
Y383000D01*
X517000D01*
Y384000D01*
X515000D01*
Y383000D01*
X514000D01*
Y381000D01*
X515000D01*
Y389000D02*
Y388000D01*
X517000D01*
Y389000D01*
X518000D01*
Y391000D01*
X517000D01*
Y392000D01*
X515000D01*
Y391000D01*
X514000D01*
Y389000D01*
X515000D01*
X481500Y439500D02*
Y438500D01*
X483500D01*
Y439500D01*
X484500D01*
Y441500D01*
X483500D01*
Y442500D01*
X481500D01*
Y441500D01*
X480500D01*
Y439500D01*
X481500D01*
Y447500D02*
Y446500D01*
X483500D01*
Y447500D01*
X484500D01*
Y449500D01*
X483500D01*
Y450500D01*
X481500D01*
Y449500D01*
X480500D01*
Y447500D01*
X481500D01*
X515000Y348500D02*
Y347500D01*
X517000D01*
Y348500D01*
X518000D01*
Y350500D01*
X517000D01*
Y351500D01*
X515000D01*
Y350500D01*
X514000D01*
Y348500D01*
X515000D01*
Y356500D02*
Y355500D01*
X517000D01*
Y356500D01*
X518000D01*
Y358500D01*
X517000D01*
Y359500D01*
X515000D01*
Y358500D01*
X514000D01*
Y356500D01*
X515000D01*
Y283500D02*
Y282500D01*
X517000D01*
Y283500D01*
X518000D01*
Y285500D01*
X517000D01*
Y286500D01*
X515000D01*
Y285500D01*
X514000D01*
Y283500D01*
X515000D01*
Y291500D02*
Y290500D01*
X517000D01*
Y291500D01*
X518000D01*
Y293500D01*
X517000D01*
Y294500D01*
X515000D01*
Y293500D01*
X514000D01*
Y291500D01*
X515000D01*
Y218500D02*
Y217500D01*
X517000D01*
Y218500D01*
X518000D01*
Y220500D01*
X517000D01*
Y221500D01*
X515000D01*
Y220500D01*
X514000D01*
Y218500D01*
X515000D01*
Y226500D02*
Y225500D01*
X517000D01*
Y226500D01*
X518000D01*
Y228500D01*
X517000D01*
Y229500D01*
X515000D01*
Y228500D01*
X514000D01*
Y226500D01*
X515000D01*
X482000Y160000D02*
Y159000D01*
X484000D01*
Y160000D01*
X485000D01*
Y162000D01*
X484000D01*
Y163000D01*
X482000D01*
Y162000D01*
X481000D01*
Y160000D01*
X482000D01*
Y168000D02*
Y167000D01*
X484000D01*
Y168000D01*
X485000D01*
Y170000D01*
X484000D01*
Y171000D01*
X482000D01*
Y170000D01*
X481000D01*
Y168000D01*
X482000D01*
X408000Y407000D02*
X410000Y409000D01*
X412000Y407000D01*
X410000Y405000D01*
X408000Y407000D01*
X458000Y168500D02*
X460000Y170500D01*
X462000Y168500D01*
X460000Y166500D01*
X458000Y168500D01*
X424000Y407000D02*
X426000Y409000D01*
X428000Y407000D01*
X426000Y405000D01*
X424000Y407000D01*
X458000Y151500D02*
X460000Y153500D01*
X462000Y151500D01*
X460000Y149500D01*
X458000Y151500D01*
X578465Y378786D02*
Y382786D01*
X582465D01*
Y378786D01*
X578465D01*
X549724D02*
Y382786D01*
X553724D01*
Y378786D01*
X549724D01*
Y411500D02*
Y415500D01*
X553724D01*
Y411500D01*
X549724D01*
X578465D02*
Y415500D01*
X582465D01*
Y411500D01*
X578465D01*
X549724Y346071D02*
Y350071D01*
X553724D01*
Y346071D01*
X549724D01*
X578465D02*
Y350071D01*
X582465D01*
Y346071D01*
X578465D01*
X555276Y439000D02*
Y443000D01*
X559276D01*
Y439000D01*
X555276D01*
X526535D02*
Y443000D01*
X530535D01*
Y439000D01*
X526535D01*
X380465Y437000D02*
Y441000D01*
X384465D01*
Y437000D01*
X380465D01*
X351724D02*
Y441000D01*
X355724D01*
Y437000D01*
X351724D01*
X481500Y408000D02*
Y412000D01*
X485500D01*
Y408000D01*
X481500D01*
X482300Y408800D02*
Y411200D01*
X484700D01*
Y408800D01*
X482300D01*
X494000Y334500D02*
Y338500D01*
X498000D01*
Y334500D01*
X494000D01*
X494800Y335300D02*
Y337700D01*
X497200D01*
Y335300D01*
X494800D01*
X460000Y239000D02*
Y243000D01*
X464000D01*
Y239000D01*
X460000D01*
X460800Y239800D02*
Y242200D01*
X463200D01*
Y239800D01*
X460800D01*
X495000Y238500D02*
Y242500D01*
X499000D01*
Y238500D01*
X495000D01*
X495800Y239300D02*
Y241700D01*
X498200D01*
Y239300D01*
X495800D01*
X491500Y206000D02*
Y210000D01*
X495500D01*
Y206000D01*
X491500D01*
X492300Y206800D02*
Y209200D01*
X494700D01*
Y206800D01*
X492300D01*
X477500Y192000D02*
Y196000D01*
X481500D01*
Y192000D01*
X477500D01*
X478300Y192800D02*
Y195200D01*
X480700D01*
Y192800D01*
X478300D01*
X457000Y195000D02*
Y199000D01*
X461000D01*
Y195000D01*
X457000D01*
X457800Y195800D02*
Y198200D01*
X460200D01*
Y195800D01*
X457800D01*
X457500Y217500D02*
Y221500D01*
X461500D01*
Y217500D01*
X457500D01*
X458300Y218300D02*
Y220700D01*
X460700D01*
Y218300D01*
X458300D01*
X458500Y263500D02*
Y267500D01*
X462500D01*
Y263500D01*
X458500D01*
X459300Y264300D02*
Y266700D01*
X461700D01*
Y264300D01*
X459300D01*
X478000Y295500D02*
Y299500D01*
X482000D01*
Y295500D01*
X478000D01*
X478800Y296300D02*
Y298700D01*
X481200D01*
Y296300D01*
X478800D01*
X461000Y311500D02*
Y315500D01*
X465000D01*
Y311500D01*
X461000D01*
X461800Y312300D02*
Y314700D01*
X464200D01*
Y312300D01*
X461800D01*
X491500Y305000D02*
Y309000D01*
X495500D01*
Y305000D01*
X491500D01*
X492300Y305800D02*
Y308200D01*
X494700D01*
Y305800D01*
X492300D01*
X471000Y326500D02*
Y330500D01*
X475000D01*
Y326500D01*
X471000D01*
X471800Y327300D02*
Y329700D01*
X474200D01*
Y327300D01*
X471800D01*
X483500Y355000D02*
Y359000D01*
X487500D01*
Y355000D01*
X483500D01*
X484300Y355800D02*
Y358200D01*
X486700D01*
Y355800D01*
X484300D01*
X456000Y356000D02*
Y360000D01*
X460000D01*
Y356000D01*
X456000D01*
X456800Y356800D02*
Y359200D01*
X459200D01*
Y356800D01*
X456800D01*
X483500Y371500D02*
Y375500D01*
X487500D01*
Y371500D01*
X483500D01*
X484300Y372300D02*
Y374700D01*
X486700D01*
Y372300D01*
X484300D01*
X455500Y370500D02*
Y374500D01*
X459500D01*
Y370500D01*
X455500D01*
X456300Y371300D02*
Y373700D01*
X458700D01*
Y371300D01*
X456300D01*
X482500Y389500D02*
Y393500D01*
X486500D01*
Y389500D01*
X482500D01*
X483300Y390300D02*
Y392700D01*
X485700D01*
Y390300D01*
X483300D01*
X455000Y390500D02*
Y394500D01*
X459000D01*
Y390500D01*
X455000D01*
X455800Y391300D02*
Y393700D01*
X458200D01*
Y391300D01*
X455800D01*
X324000Y207000D02*
Y211000D01*
X328000D01*
Y207000D01*
X324000D01*
X324800Y207800D02*
Y210200D01*
X327200D01*
Y207800D01*
X324800D01*
X356885Y271844D02*
Y275844D01*
X360885D01*
Y271844D01*
X356885D01*
X357685Y272644D02*
Y275044D01*
X360085D01*
Y272644D01*
X357685D01*
X327000Y366500D02*
Y370500D01*
X331000D01*
Y366500D01*
X327000D01*
X327800Y367300D02*
Y369700D01*
X330200D01*
Y367300D01*
X327800D01*
X371000Y354000D02*
Y358000D01*
X375000D01*
Y354000D01*
X371000D01*
X371800Y354800D02*
Y357200D01*
X374200D01*
Y354800D01*
X371800D01*
X369000Y348888D02*
Y352888D01*
X373000D01*
Y348888D01*
X369000D01*
X369800Y349688D02*
Y352088D01*
X372200D01*
Y349688D01*
X369800D01*
X357000Y303000D02*
Y307000D01*
X361000D01*
Y303000D01*
X357000D01*
X357800Y303800D02*
Y306200D01*
X360200D01*
Y303800D01*
X357800D01*
X498000Y420955D02*
Y424955D01*
X502000D01*
Y420955D01*
X498000D01*
X498800Y421755D02*
Y424155D01*
X501200D01*
Y421755D01*
X498800D01*
X493000Y420955D02*
Y424955D01*
X497000D01*
Y420955D01*
X493000D01*
X493800Y421755D02*
Y424155D01*
X496200D01*
Y421755D01*
X493800D01*
X352500Y274000D02*
Y278000D01*
X356500D01*
Y274000D01*
X352500D01*
X353300Y274800D02*
Y277200D01*
X355700D01*
Y274800D01*
X353300D01*
X355000Y296000D02*
Y300000D01*
X359000D01*
Y296000D01*
X355000D01*
X355800Y296800D02*
Y299200D01*
X358200D01*
Y296800D01*
X355800D01*
X439000Y235000D02*
Y239000D01*
X443000D01*
Y235000D01*
X439000D01*
X439800Y235800D02*
Y238200D01*
X442200D01*
Y235800D01*
X439800D01*
X390500Y250500D02*
Y254500D01*
X394500D01*
Y250500D01*
X390500D01*
X391300Y251300D02*
Y253700D01*
X393700D01*
Y251300D01*
X391300D01*
X518000Y146500D02*
Y150500D01*
X522000D01*
Y146500D01*
X518000D01*
X518800Y147300D02*
Y149700D01*
X521200D01*
Y147300D01*
X518800D01*
X532000Y394455D02*
Y398455D01*
X536000D01*
Y394455D01*
X532000D01*
X532800Y395255D02*
Y397655D01*
X535200D01*
Y395255D01*
X532800D01*
X527000Y394455D02*
Y398455D01*
X531000D01*
Y394455D01*
X527000D01*
X527800Y395255D02*
Y397655D01*
X530200D01*
Y395255D01*
X527800D01*
X427000Y393000D02*
Y397000D01*
X431000D01*
Y393000D01*
X427000D01*
X427800Y393800D02*
Y396200D01*
X430200D01*
Y393800D01*
X427800D01*
X527000Y199425D02*
Y203425D01*
X531000D01*
Y199425D01*
X527000D01*
X527800Y200225D02*
Y202625D01*
X530200D01*
Y200225D01*
X527800D01*
X532000Y199425D02*
Y203425D01*
X536000D01*
Y199425D01*
X532000D01*
X532800Y200225D02*
Y202625D01*
X535200D01*
Y200225D01*
X532800D01*
X532000Y361965D02*
Y365965D01*
X536000D01*
Y361965D01*
X532000D01*
X532800Y362765D02*
Y365165D01*
X535200D01*
Y362765D01*
X532800D01*
X442500Y366500D02*
Y370500D01*
X446500D01*
Y366500D01*
X442500D01*
X443300Y367300D02*
Y369700D01*
X445700D01*
Y367300D01*
X443300D01*
X527000Y361965D02*
Y365965D01*
X531000D01*
Y361965D01*
X527000D01*
X527800Y362765D02*
Y365165D01*
X530200D01*
Y362765D01*
X527800D01*
X445005Y320417D02*
Y324417D01*
X449005D01*
Y320417D01*
X445005D01*
X445805Y321217D02*
Y323617D01*
X448205D01*
Y321217D01*
X445805D01*
X527000Y167000D02*
Y171000D01*
X531000D01*
Y167000D01*
X527000D01*
X527800Y167800D02*
Y170200D01*
X530200D01*
Y167800D01*
X527800D01*
X532000Y167000D02*
Y171000D01*
X536000D01*
Y167000D01*
X532000D01*
X532800Y167800D02*
Y170200D01*
X535200D01*
Y167800D01*
X532800D01*
X527000Y232006D02*
Y236006D01*
X531000D01*
Y232006D01*
X527000D01*
X527800Y232806D02*
Y235206D01*
X530200D01*
Y232806D01*
X527800D01*
X532000Y232000D02*
Y236000D01*
X536000D01*
Y232000D01*
X532000D01*
X532800Y232800D02*
Y235200D01*
X535200D01*
Y232800D01*
X532800D01*
X527000Y264496D02*
Y268496D01*
X531000D01*
Y264496D01*
X527000D01*
X527800Y265296D02*
Y267696D01*
X530200D01*
Y265296D01*
X527800D01*
X532000Y264496D02*
Y268496D01*
X536000D01*
Y264496D01*
X532000D01*
X532800Y265296D02*
Y267696D01*
X535200D01*
Y265296D01*
X532800D01*
X527000Y296986D02*
Y300986D01*
X531000D01*
Y296986D01*
X527000D01*
X527800Y297786D02*
Y300186D01*
X530200D01*
Y297786D01*
X527800D01*
X532000Y296986D02*
Y300986D01*
X536000D01*
Y296986D01*
X532000D01*
X532800Y297786D02*
Y300186D01*
X535200D01*
Y297786D01*
X532800D01*
X527000Y329475D02*
Y333475D01*
X531000D01*
Y329475D01*
X527000D01*
X527800Y330276D02*
Y332676D01*
X530200D01*
Y330276D01*
X527800D01*
X532000Y329475D02*
Y333475D01*
X536000D01*
Y329475D01*
X532000D01*
X532800Y330276D02*
Y332676D01*
X535200D01*
Y330276D01*
X532800D01*
X422000Y305000D02*
Y309000D01*
X426000D01*
Y305000D01*
X422000D01*
X422800Y305800D02*
Y308200D01*
X425200D01*
Y305800D01*
X422800D01*
X417500Y310500D02*
Y314500D01*
X421500D01*
Y310500D01*
X417500D01*
X418300Y311300D02*
Y313700D01*
X420700D01*
Y311300D01*
X418300D01*
X404500Y283000D02*
Y287000D01*
X408500D01*
Y283000D01*
X404500D01*
X405300Y283800D02*
Y286200D01*
X407700D01*
Y283800D01*
X405300D01*
X360500Y357500D02*
Y361500D01*
X364500D01*
Y357500D01*
X360500D01*
X361300Y358300D02*
Y360700D01*
X363700D01*
Y358300D01*
X361300D01*
X503000Y420000D02*
Y424000D01*
X507000D01*
Y420000D01*
X503000D01*
X503800Y420800D02*
Y423200D01*
X506200D01*
Y420800D01*
X503800D01*
X443500Y297000D02*
Y301000D01*
X447500D01*
Y297000D01*
X443500D01*
X444300Y297800D02*
Y300200D01*
X446700D01*
Y297800D01*
X444300D01*
X442500Y304500D02*
Y308500D01*
X446500D01*
Y304500D01*
X442500D01*
X443300Y305300D02*
Y307700D01*
X445700D01*
Y305300D01*
X443300D01*
X442500Y312000D02*
Y316000D01*
X446500D01*
Y312000D01*
X442500D01*
X443300Y312800D02*
Y315200D01*
X445700D01*
Y312800D01*
X443300D01*
X442500Y331000D02*
Y335000D01*
X446500D01*
Y331000D01*
X442500D01*
X443300Y331800D02*
Y334200D01*
X445700D01*
Y331800D01*
X443300D01*
X437000Y351000D02*
Y355000D01*
X441000D01*
Y351000D01*
X437000D01*
X437800Y351800D02*
Y354200D01*
X440200D01*
Y351800D01*
X437800D01*
X440000Y340000D02*
Y344000D01*
X444000D01*
Y340000D01*
X440000D01*
X440800Y340800D02*
Y343200D01*
X443200D01*
Y340800D01*
X440800D01*
X425500Y281000D02*
Y285000D01*
X429500D01*
Y281000D01*
X425500D01*
X426300Y281800D02*
Y284200D01*
X428700D01*
Y281800D01*
X426300D01*
X381000Y310500D02*
Y314500D01*
X385000D01*
Y310500D01*
X381000D01*
X381800Y311300D02*
Y313700D01*
X384200D01*
Y311300D01*
X381800D01*
X384000Y231453D02*
Y235453D01*
X388000D01*
Y231453D01*
X384000D01*
X384800Y232253D02*
Y234653D01*
X387200D01*
Y232253D01*
X384800D01*
X379000Y328500D02*
Y332500D01*
X383000D01*
Y328500D01*
X379000D01*
X379800Y329300D02*
Y331700D01*
X382200D01*
Y329300D01*
X379800D01*
X385702Y327500D02*
Y331500D01*
X389702D01*
Y327500D01*
X385702D01*
X386502Y328300D02*
Y330700D01*
X388902D01*
Y328300D01*
X386502D01*
X392500Y322000D02*
Y326000D01*
X396500D01*
Y322000D01*
X392500D01*
X393300Y322800D02*
Y325200D01*
X395700D01*
Y322800D01*
X393300D01*
X385635Y292781D02*
Y296781D01*
X389635D01*
Y292781D01*
X385635D01*
X386435Y293581D02*
Y295981D01*
X388835D01*
Y293581D01*
X386435D01*
X386500Y298000D02*
Y302000D01*
X390500D01*
Y298000D01*
X386500D01*
X387300Y298800D02*
Y301200D01*
X389700D01*
Y298800D01*
X387300D01*
X380000Y289000D02*
Y293000D01*
X384000D01*
Y289000D01*
X380000D01*
X380800Y289800D02*
Y292200D01*
X383200D01*
Y289800D01*
X380800D01*
X398071Y283425D02*
Y287425D01*
X402071D01*
Y283425D01*
X398071D01*
X398871Y284225D02*
Y286625D01*
X401271D01*
Y284225D01*
X398871D01*
X387000Y286000D02*
Y290000D01*
X391000D01*
Y286000D01*
X387000D01*
X387800Y286800D02*
Y289200D01*
X390200D01*
Y286800D01*
X387800D01*
X425500Y310000D02*
Y314000D01*
X429500D01*
Y310000D01*
X425500D01*
X426300Y310800D02*
Y313200D01*
X428700D01*
Y310800D01*
X426300D01*
X377500Y283000D02*
Y287000D01*
X381500D01*
Y283000D01*
X377500D01*
X378300Y283800D02*
Y286200D01*
X380700D01*
Y283800D01*
X378300D01*
X377500Y295472D02*
Y299472D01*
X381500D01*
Y295472D01*
X377500D01*
X378300Y296272D02*
Y298672D01*
X380700D01*
Y296272D01*
X378300D01*
X378000Y301000D02*
Y305000D01*
X382000D01*
Y301000D01*
X378000D01*
X378800Y301800D02*
Y304200D01*
X381200D01*
Y301800D01*
X378800D01*
X387500Y303500D02*
Y307500D01*
X391500D01*
Y303500D01*
X387500D01*
X388300Y304300D02*
Y306700D01*
X390700D01*
Y304300D01*
X388300D01*
X419571Y320929D02*
Y324929D01*
X423571D01*
Y320929D01*
X419571D01*
X420371Y321729D02*
Y324129D01*
X422771D01*
Y321729D01*
X420371D01*
X386000Y307500D02*
Y311500D01*
X390000D01*
Y307500D01*
X386000D01*
X386800Y308300D02*
Y310700D01*
X389200D01*
Y308300D01*
X386800D01*
X377500Y314000D02*
Y318000D01*
X381500D01*
Y314000D01*
X377500D01*
X378300Y314800D02*
Y317200D01*
X380700D01*
Y314800D01*
X378300D01*
X364500Y283500D02*
Y287500D01*
X368500D01*
Y283500D01*
X364500D01*
X365300Y284300D02*
Y286700D01*
X367700D01*
Y284300D01*
X365300D01*
X397500Y279000D02*
Y283000D01*
X401500D01*
Y279000D01*
X397500D01*
X398300Y279800D02*
Y282200D01*
X400700D01*
Y279800D01*
X398300D01*
X395469Y262559D02*
Y266559D01*
X399469D01*
Y262559D01*
X395469D01*
X396269Y263358D02*
Y265758D01*
X398669D01*
Y263358D01*
X396269D01*
X398500Y265500D02*
Y269500D01*
X402500D01*
Y265500D01*
X398500D01*
X399300Y266300D02*
Y268700D01*
X401700D01*
Y266300D01*
X399300D01*
X407494Y241006D02*
Y245006D01*
X411494D01*
Y241006D01*
X407494D01*
X408294Y241806D02*
Y244206D01*
X410694D01*
Y241806D01*
X408294D01*
X438500Y249000D02*
Y253000D01*
X442500D01*
Y249000D01*
X438500D01*
X439300Y249800D02*
Y252200D01*
X441700D01*
Y249800D01*
X439300D01*
X442000Y226000D02*
Y230000D01*
X446000D01*
Y226000D01*
X442000D01*
X442800Y226800D02*
Y229200D01*
X445200D01*
Y226800D01*
X442800D01*
X429429Y354571D02*
Y358571D01*
X433429D01*
Y354571D01*
X429429D01*
X430229Y355371D02*
Y357771D01*
X432629D01*
Y355371D01*
X430229D01*
X389000Y266000D02*
Y270000D01*
X393000D01*
Y266000D01*
X389000D01*
X389800Y266800D02*
Y269200D01*
X392200D01*
Y266800D01*
X389800D01*
X389000Y259500D02*
Y263500D01*
X393000D01*
Y259500D01*
X389000D01*
X389800Y260300D02*
Y262700D01*
X392200D01*
Y260300D01*
X389800D01*
X404321Y257679D02*
Y261679D01*
X408321D01*
Y257679D01*
X404321D01*
X405121Y258479D02*
Y260879D01*
X407521D01*
Y258479D01*
X405121D01*
X425000Y324500D02*
Y328500D01*
X429000D01*
Y324500D01*
X425000D01*
X425800Y325300D02*
Y327700D01*
X428200D01*
Y325300D01*
X425800D01*
X422170Y315330D02*
Y319330D01*
X426170D01*
Y315330D01*
X422170D01*
X422970Y316130D02*
Y318530D01*
X425370D01*
Y316130D01*
X422970D01*
X438500Y383000D02*
Y387000D01*
X442500D01*
Y383000D01*
X438500D01*
X439300Y383800D02*
Y386200D01*
X441700D01*
Y383800D01*
X439300D01*
X422500Y387000D02*
Y391000D01*
X426500D01*
Y387000D01*
X422500D01*
X423300Y387800D02*
Y390200D01*
X425700D01*
Y387800D01*
X423300D01*
X431500Y372000D02*
Y376000D01*
X435500D01*
Y372000D01*
X431500D01*
X432300Y372800D02*
Y375200D01*
X434700D01*
Y372800D01*
X432300D01*
X437000Y366000D02*
Y370000D01*
X441000D01*
Y366000D01*
X437000D01*
X437800Y366800D02*
Y369200D01*
X440200D01*
Y366800D01*
X437800D01*
X442000Y354000D02*
Y358000D01*
X446000D01*
Y354000D01*
X442000D01*
X442800Y354800D02*
Y357200D01*
X445200D01*
Y354800D01*
X442800D01*
X370000Y334500D02*
Y338500D01*
X374000D01*
Y334500D01*
X370000D01*
X370800Y335300D02*
Y337700D01*
X373200D01*
Y335300D01*
X370800D01*
X365000Y269500D02*
Y273500D01*
X369000D01*
Y269500D01*
X365000D01*
X365800Y270300D02*
Y272700D01*
X368200D01*
Y270300D01*
X365800D01*
X376500Y320000D02*
Y324000D01*
X380500D01*
Y320000D01*
X376500D01*
X377300Y320800D02*
Y323200D01*
X379700D01*
Y320800D01*
X377300D01*
X403000Y265500D02*
Y269500D01*
X407000D01*
Y265500D01*
X403000D01*
X403800Y266300D02*
Y268700D01*
X406200D01*
Y266300D01*
X403800D01*
X413000Y268000D02*
Y272000D01*
X417000D01*
Y268000D01*
X413000D01*
X413800Y268800D02*
Y271200D01*
X416200D01*
Y268800D01*
X413800D01*
X408000Y279000D02*
Y283000D01*
X412000D01*
Y279000D01*
X408000D01*
X408800Y279800D02*
Y282200D01*
X411200D01*
Y279800D01*
X408800D01*
X397000Y328500D02*
Y332500D01*
X401000D01*
Y328500D01*
X397000D01*
X397800Y329300D02*
Y331700D01*
X400200D01*
Y329300D01*
X397800D01*
X428000Y277000D02*
Y281000D01*
X432000D01*
Y277000D01*
X428000D01*
X428800Y277800D02*
Y280200D01*
X431200D01*
Y277800D01*
X428800D01*
X415000Y238500D02*
Y242500D01*
X419000D01*
Y238500D01*
X415000D01*
X415800Y239300D02*
Y241700D01*
X418200D01*
Y239300D01*
X415800D01*
X416000Y231000D02*
Y235000D01*
X420000D01*
Y231000D01*
X416000D01*
X416800Y231800D02*
Y234200D01*
X419200D01*
Y231800D01*
X416800D01*
X385000Y244500D02*
Y248500D01*
X389000D01*
Y244500D01*
X385000D01*
X385800Y245300D02*
Y247700D01*
X388200D01*
Y245300D01*
X385800D01*
X385000Y237500D02*
Y241500D01*
X389000D01*
Y237500D01*
X385000D01*
X385800Y238300D02*
Y240700D01*
X388200D01*
Y238300D01*
X385800D01*
X410500Y326500D02*
Y330500D01*
X414500D01*
Y326500D01*
X410500D01*
X411300Y327300D02*
Y329700D01*
X413700D01*
Y327300D01*
X411300D01*
X369000Y266000D02*
Y270000D01*
X373000D01*
Y266000D01*
X369000D01*
X369800Y266800D02*
Y269200D01*
X372200D01*
Y266800D01*
X369800D01*
X433500Y378500D02*
Y382500D01*
X437500D01*
Y378500D01*
X433500D01*
X434300Y379300D02*
Y381700D01*
X436700D01*
Y379300D01*
X434300D01*
X475500Y144500D02*
Y148500D01*
X479500D01*
Y144500D01*
X475500D01*
X476300Y145300D02*
Y147700D01*
X478700D01*
Y145300D01*
X476300D01*
X481500Y144500D02*
Y148500D01*
X485500D01*
Y144500D01*
X481500D01*
X482300Y145300D02*
Y147700D01*
X484700D01*
Y145300D01*
X482300D01*
X541500Y171500D02*
Y175500D01*
X545500D01*
Y171500D01*
X541500D01*
X542300Y172300D02*
Y174700D01*
X544700D01*
Y172300D01*
X542300D01*
X541500Y204000D02*
Y208000D01*
X545500D01*
Y204000D01*
X541500D01*
X542300Y204800D02*
Y207200D01*
X544700D01*
Y204800D01*
X542300D01*
X541500Y236500D02*
Y240500D01*
X545500D01*
Y236500D01*
X541500D01*
X542300Y237300D02*
Y239700D01*
X544700D01*
Y237300D01*
X542300D01*
X541500Y269000D02*
Y273000D01*
X545500D01*
Y269000D01*
X541500D01*
X542300Y269800D02*
Y272200D01*
X544700D01*
Y269800D01*
X542300D01*
X541500Y301500D02*
Y305500D01*
X545500D01*
Y301500D01*
X541500D01*
X542300Y302300D02*
Y304700D01*
X544700D01*
Y302300D01*
X542300D01*
X541500Y334000D02*
Y338000D01*
X545500D01*
Y334000D01*
X541500D01*
X542300Y334800D02*
Y337200D01*
X544700D01*
Y334800D01*
X542300D01*
X541500Y366500D02*
Y370500D01*
X545500D01*
Y366500D01*
X541500D01*
X542300Y367300D02*
Y369700D01*
X544700D01*
Y367300D01*
X542300D01*
X541000Y399000D02*
Y403000D01*
X545000D01*
Y399000D01*
X541000D01*
X541800Y399800D02*
Y402200D01*
X544200D01*
Y399800D01*
X541800D01*
D74*
X562189Y184500D02*
G03*
X562189Y184500I-2000J0D01*
G01*
X574000D02*
G03*
X574000Y184500I-2000J0D01*
G01*
X562189Y217214D02*
G03*
X562189Y217214I-2000J0D01*
G01*
X574000D02*
G03*
X574000Y217214I-2000J0D01*
G01*
X539094Y155255D02*
G03*
X539094Y155255I-2000J0D01*
G01*
X550906D02*
G03*
X550906Y155255I-2000J0D01*
G01*
X562189Y249929D02*
G03*
X562189Y249929I-2000J0D01*
G01*
X574000D02*
G03*
X574000Y249929I-2000J0D01*
G01*
Y282643D02*
G03*
X574000Y282643I-2000J0D01*
G01*
X562189D02*
G03*
X562189Y282643I-2000J0D01*
G01*
Y315357D02*
G03*
X562189Y315357I-2000J0D01*
G01*
X574000D02*
G03*
X574000Y315357I-2000J0D01*
G01*
X562189Y380786D02*
G03*
X562189Y380786I-2000J0D01*
G01*
X574000D02*
G03*
X574000Y380786I-2000J0D01*
G01*
Y413500D02*
G03*
X574000Y413500I-2000J0D01*
G01*
X562189D02*
G03*
X562189Y413500I-2000J0D01*
G01*
X574000Y348071D02*
G03*
X574000Y348071I-2000J0D01*
G01*
X562189D02*
G03*
X562189Y348071I-2000J0D01*
G01*
X539000Y441000D02*
G03*
X539000Y441000I-2000J0D01*
G01*
X550811D02*
G03*
X550811Y441000I-2000J0D01*
G01*
X364189Y439000D02*
G03*
X364189Y439000I-2000J0D01*
G01*
X376000D02*
G03*
X376000Y439000I-2000J0D01*
G01*
M02*
