G04*
G04 #@! TF.GenerationSoftware,Altium Limited,Altium Designer,25.7.1 (20)*
G04*
G04 Layer_Color=255*
%FSLAX25Y25*%
%MOIN*%
G70*
G04*
G04 #@! TF.SameCoordinates,4004DD4F-5307-4C4F-B8C3-9824D0AE2BA4*
G04*
G04*
G04 #@! TF.FilePolarity,Positive*
G04*
G01*
G75*
%ADD23R,0.03150X0.04134*%
G04:AMPARAMS|DCode=25|XSize=21.65mil|YSize=19.68mil|CornerRadius=2.46mil|HoleSize=0mil|Usage=FLASHONLY|Rotation=180.000|XOffset=0mil|YOffset=0mil|HoleType=Round|Shape=RoundedRectangle|*
%AMROUNDEDRECTD25*
21,1,0.02165,0.01476,0,0,180.0*
21,1,0.01673,0.01968,0,0,180.0*
1,1,0.00492,-0.00837,0.00738*
1,1,0.00492,0.00837,0.00738*
1,1,0.00492,0.00837,-0.00738*
1,1,0.00492,-0.00837,-0.00738*
%
%ADD25ROUNDEDRECTD25*%
G04:AMPARAMS|DCode=26|XSize=21.65mil|YSize=19.68mil|CornerRadius=2.46mil|HoleSize=0mil|Usage=FLASHONLY|Rotation=90.000|XOffset=0mil|YOffset=0mil|HoleType=Round|Shape=RoundedRectangle|*
%AMROUNDEDRECTD26*
21,1,0.02165,0.01476,0,0,90.0*
21,1,0.01673,0.01968,0,0,90.0*
1,1,0.00492,0.00738,0.00837*
1,1,0.00492,0.00738,-0.00837*
1,1,0.00492,-0.00738,-0.00837*
1,1,0.00492,-0.00738,0.00837*
%
%ADD26ROUNDEDRECTD26*%
%ADD29R,0.04134X0.03150*%
%ADD43C,0.06200*%
%ADD44C,0.09700*%
G04:AMPARAMS|DCode=51|XSize=64.96mil|YSize=64.96mil|CornerRadius=16.24mil|HoleSize=0mil|Usage=FLASHONLY|Rotation=270.000|XOffset=0mil|YOffset=0mil|HoleType=Round|Shape=RoundedRectangle|*
%AMROUNDEDRECTD51*
21,1,0.06496,0.03248,0,0,270.0*
21,1,0.03248,0.06496,0,0,270.0*
1,1,0.03248,-0.01624,-0.01624*
1,1,0.03248,-0.01624,0.01624*
1,1,0.03248,0.01624,0.01624*
1,1,0.03248,0.01624,-0.01624*
%
%ADD51ROUNDEDRECTD51*%
%ADD52C,0.06496*%
%ADD53C,0.17323*%
%ADD54R,0.23622X0.23622*%
%ADD55C,0.23622*%
%ADD56C,0.06000*%
%ADD57C,0.12598*%
%ADD59R,0.03700X0.05478*%
%ADD60R,0.04878X0.02197*%
G04:AMPARAMS|DCode=61|XSize=85.4mil|YSize=22.92mil|CornerRadius=11.46mil|HoleSize=0mil|Usage=FLASHONLY|Rotation=90.000|XOffset=0mil|YOffset=0mil|HoleType=Round|Shape=RoundedRectangle|*
%AMROUNDEDRECTD61*
21,1,0.08540,0.00000,0,0,90.0*
21,1,0.06248,0.02292,0,0,90.0*
1,1,0.02292,0.00000,0.03124*
1,1,0.02292,0.00000,-0.03124*
1,1,0.02292,0.00000,-0.03124*
1,1,0.02292,0.00000,0.03124*
%
%ADD61ROUNDEDRECTD61*%
%ADD62R,0.02292X0.08540*%
%ADD63R,0.03937X0.02953*%
G04:AMPARAMS|DCode=64|XSize=51.18mil|YSize=29.92mil|CornerRadius=3.74mil|HoleSize=0mil|Usage=FLASHONLY|Rotation=270.000|XOffset=0mil|YOffset=0mil|HoleType=Round|Shape=RoundedRectangle|*
%AMROUNDEDRECTD64*
21,1,0.05118,0.02244,0,0,270.0*
21,1,0.04370,0.02992,0,0,270.0*
1,1,0.00748,-0.01122,-0.02185*
1,1,0.00748,-0.01122,0.02185*
1,1,0.00748,0.01122,0.02185*
1,1,0.00748,0.01122,-0.02185*
%
%ADD64ROUNDEDRECTD64*%
%ADD65R,0.02197X0.05728*%
%ADD66R,0.13400X0.10700*%
D23*
X430055Y256000D02*
D03*
X436945D02*
D03*
X423445D02*
D03*
X416555D02*
D03*
X386445Y268000D02*
D03*
X379555D02*
D03*
X386445Y261500D02*
D03*
X379555D02*
D03*
D25*
X509500Y414772D02*
D03*
Y411228D02*
D03*
Y385728D02*
D03*
Y389272D02*
D03*
X415000Y282728D02*
D03*
Y286272D02*
D03*
X419500D02*
D03*
Y282728D02*
D03*
X509500Y356772D02*
D03*
Y353228D02*
D03*
Y324272D02*
D03*
Y320728D02*
D03*
Y291772D02*
D03*
Y288228D02*
D03*
Y226772D02*
D03*
Y223228D02*
D03*
Y190728D02*
D03*
Y194272D02*
D03*
Y259272D02*
D03*
Y255728D02*
D03*
X476500Y169272D02*
D03*
Y165728D02*
D03*
Y444728D02*
D03*
Y448272D02*
D03*
D26*
X430728Y321000D02*
D03*
X434272D02*
D03*
X394772Y283000D02*
D03*
X391228D02*
D03*
X386772Y343500D02*
D03*
X383228D02*
D03*
D29*
X386000Y396055D02*
D03*
Y402945D02*
D03*
D43*
X560189Y184500D02*
D03*
X572000D02*
D03*
X560189Y217214D02*
D03*
X572000D02*
D03*
X537094Y155255D02*
D03*
X548906D02*
D03*
X560189Y249929D02*
D03*
X572000D02*
D03*
Y282643D02*
D03*
X560189D02*
D03*
Y315357D02*
D03*
X572000D02*
D03*
X560189Y380786D02*
D03*
X572000D02*
D03*
Y413500D02*
D03*
X560189D02*
D03*
X572000Y348071D02*
D03*
X560189D02*
D03*
X537000Y441000D02*
D03*
X548811D02*
D03*
X362189Y439000D02*
D03*
X374000D02*
D03*
D44*
X580465Y184500D02*
D03*
X551724D02*
D03*
X580465Y217214D02*
D03*
X551724D02*
D03*
X557370Y155255D02*
D03*
X528630D02*
D03*
X580465Y249929D02*
D03*
X551724D02*
D03*
Y282643D02*
D03*
X580465D02*
D03*
Y315357D02*
D03*
X551724D02*
D03*
X580465Y380786D02*
D03*
X551724D02*
D03*
Y413500D02*
D03*
X580465D02*
D03*
X551724Y348071D02*
D03*
X580465D02*
D03*
X557276Y441000D02*
D03*
X528535D02*
D03*
X382465Y439000D02*
D03*
X353724D02*
D03*
D51*
X327685Y197744D02*
D03*
X331000Y227000D02*
D03*
D52*
X337685Y197744D02*
D03*
X327685Y187744D02*
D03*
Y177744D02*
D03*
X337685Y187744D02*
D03*
Y177744D02*
D03*
X321000Y227000D02*
D03*
X331000Y237000D02*
D03*
Y247000D02*
D03*
X321000Y237000D02*
D03*
Y247000D02*
D03*
D53*
X328748Y156287D02*
D03*
Y439752D02*
D03*
X572752D02*
D03*
Y156248D02*
D03*
D54*
X422154Y436299D02*
D03*
D55*
X450500Y437500D02*
D03*
D56*
X516000Y415000D02*
D03*
Y407000D02*
D03*
Y186500D02*
D03*
Y194500D02*
D03*
Y252000D02*
D03*
Y260000D02*
D03*
Y317000D02*
D03*
Y325000D02*
D03*
Y382000D02*
D03*
Y390000D02*
D03*
X482500Y440500D02*
D03*
Y448500D02*
D03*
X516000Y349500D02*
D03*
Y357500D02*
D03*
Y284500D02*
D03*
Y292500D02*
D03*
Y219500D02*
D03*
Y227500D02*
D03*
X483000Y161000D02*
D03*
Y169000D02*
D03*
D57*
X410000Y407000D02*
D03*
X460000Y168500D02*
D03*
X426000Y407000D02*
D03*
X460000Y151500D02*
D03*
D59*
X423504Y249000D02*
D03*
X430000D02*
D03*
Y238722D02*
D03*
X423504D02*
D03*
D60*
X386561Y249827D02*
D03*
Y228173D02*
D03*
X399439D02*
D03*
Y249827D02*
D03*
D61*
X393500Y378306D02*
D03*
X388500D02*
D03*
X383500D02*
D03*
X378500D02*
D03*
Y359695D02*
D03*
X383500D02*
D03*
X388500D02*
D03*
D62*
X393500D02*
D03*
D63*
X394000Y395847D02*
D03*
Y388957D02*
D03*
X378000D02*
D03*
Y395847D02*
D03*
D64*
X390504Y349500D02*
D03*
X383457D02*
D03*
D65*
X505000Y427500D02*
D03*
X500000D02*
D03*
X495000D02*
D03*
X490000D02*
D03*
Y448928D02*
D03*
X495000D02*
D03*
X500000D02*
D03*
X505000D02*
D03*
X539000Y401000D02*
D03*
X534000D02*
D03*
X529000D02*
D03*
X524000D02*
D03*
Y422428D02*
D03*
X529000D02*
D03*
X534000D02*
D03*
X539000D02*
D03*
Y292469D02*
D03*
X534000D02*
D03*
X529000D02*
D03*
X524000D02*
D03*
Y271041D02*
D03*
X529000D02*
D03*
X534000D02*
D03*
X539000D02*
D03*
X508000Y169428D02*
D03*
X503000D02*
D03*
X498000D02*
D03*
X493000D02*
D03*
Y148000D02*
D03*
X498000D02*
D03*
X503000D02*
D03*
X508000D02*
D03*
X539000Y195000D02*
D03*
X534000D02*
D03*
X529000D02*
D03*
X524000D02*
D03*
Y173572D02*
D03*
X529000D02*
D03*
X534000D02*
D03*
X539000D02*
D03*
Y227490D02*
D03*
X534000D02*
D03*
X529000D02*
D03*
X524000D02*
D03*
Y206062D02*
D03*
X529000D02*
D03*
X534000D02*
D03*
X539000D02*
D03*
Y259979D02*
D03*
X534000D02*
D03*
X529000D02*
D03*
X524000D02*
D03*
Y238551D02*
D03*
X529000D02*
D03*
X534000D02*
D03*
X539000D02*
D03*
Y324959D02*
D03*
X534000D02*
D03*
X529000D02*
D03*
X524000D02*
D03*
Y303531D02*
D03*
X529000D02*
D03*
X534000D02*
D03*
X539000D02*
D03*
Y357449D02*
D03*
X534000D02*
D03*
X529000D02*
D03*
X524000D02*
D03*
Y336021D02*
D03*
X529000D02*
D03*
X534000D02*
D03*
X539000D02*
D03*
Y389938D02*
D03*
X534000D02*
D03*
X529000D02*
D03*
X524000D02*
D03*
Y368510D02*
D03*
X529000D02*
D03*
X534000D02*
D03*
X539000D02*
D03*
D66*
X497500Y438214D02*
D03*
X531500Y411714D02*
D03*
Y281755D02*
D03*
X500500Y158714D02*
D03*
X531500Y184286D02*
D03*
Y216776D02*
D03*
Y249265D02*
D03*
Y314245D02*
D03*
Y346734D02*
D03*
Y379224D02*
D03*
M02*
