G04*
G04 #@! TF.GenerationSoftware,Altium Limited,Altium Designer,25.7.1 (20)*
G04*
G04 Layer_Color=16711935*
%FSLAX25Y25*%
%MOIN*%
G70*
G04*
G04 #@! TF.SameCoordinates,4004DD4F-5307-4C4F-B8C3-9824D0AE2BA4*
G04*
G04*
G04 #@! TF.FilePolarity,Negative*
G04*
G01*
G75*
%ADD35R,0.03950X0.04934*%
G04:AMPARAMS|DCode=36|XSize=29.65mil|YSize=27.69mil|CornerRadius=6.46mil|HoleSize=0mil|Usage=FLASHONLY|Rotation=180.000|XOffset=0mil|YOffset=0mil|HoleType=Round|Shape=RoundedRectangle|*
%AMROUNDEDRECTD36*
21,1,0.02965,0.01476,0,0,180.0*
21,1,0.01673,0.02769,0,0,180.0*
1,1,0.01292,-0.00837,0.00738*
1,1,0.01292,0.00837,0.00738*
1,1,0.01292,0.00837,-0.00738*
1,1,0.01292,-0.00837,-0.00738*
%
%ADD36ROUNDEDRECTD36*%
G04:AMPARAMS|DCode=37|XSize=29.65mil|YSize=27.69mil|CornerRadius=6.46mil|HoleSize=0mil|Usage=FLASHONLY|Rotation=90.000|XOffset=0mil|YOffset=0mil|HoleType=Round|Shape=RoundedRectangle|*
%AMROUNDEDRECTD37*
21,1,0.02965,0.01476,0,0,90.0*
21,1,0.01673,0.02769,0,0,90.0*
1,1,0.01292,0.00738,0.00837*
1,1,0.01292,0.00738,-0.00837*
1,1,0.01292,-0.00738,-0.00837*
1,1,0.01292,-0.00738,0.00837*
%
%ADD37ROUNDEDRECTD37*%
%ADD38R,0.04934X0.03950*%
G04:AMPARAMS|DCode=40|XSize=72.96mil|YSize=72.96mil|CornerRadius=20.24mil|HoleSize=0mil|Usage=FLASHONLY|Rotation=270.000|XOffset=0mil|YOffset=0mil|HoleType=Round|Shape=RoundedRectangle|*
%AMROUNDEDRECTD40*
21,1,0.07296,0.03248,0,0,270.0*
21,1,0.03248,0.07296,0,0,270.0*
1,1,0.04048,-0.01624,-0.01624*
1,1,0.04048,-0.01624,0.01624*
1,1,0.04048,0.01624,0.01624*
1,1,0.04048,0.01624,-0.01624*
%
%ADD40ROUNDEDRECTD40*%
%ADD41C,0.07296*%
%ADD42C,0.18123*%
%ADD43C,0.06200*%
%ADD44C,0.09700*%
%ADD45R,0.24422X0.24422*%
%ADD46C,0.24422*%
%ADD47C,0.06800*%
%ADD48C,0.13398*%
%ADD49C,0.03162*%
%ADD59R,0.03700X0.05478*%
%ADD60R,0.04878X0.02197*%
G04:AMPARAMS|DCode=61|XSize=85.4mil|YSize=22.92mil|CornerRadius=11.46mil|HoleSize=0mil|Usage=FLASHONLY|Rotation=90.000|XOffset=0mil|YOffset=0mil|HoleType=Round|Shape=RoundedRectangle|*
%AMROUNDEDRECTD61*
21,1,0.08540,0.00000,0,0,90.0*
21,1,0.06248,0.02292,0,0,90.0*
1,1,0.02292,0.00000,0.03124*
1,1,0.02292,0.00000,-0.03124*
1,1,0.02292,0.00000,-0.03124*
1,1,0.02292,0.00000,0.03124*
%
%ADD61ROUNDEDRECTD61*%
%ADD62R,0.02292X0.08540*%
%ADD65R,0.02197X0.05728*%
%ADD66R,0.13400X0.10700*%
%ADD68R,0.04737X0.03753*%
G04:AMPARAMS|DCode=69|XSize=59.18mil|YSize=37.92mil|CornerRadius=7.74mil|HoleSize=0mil|Usage=FLASHONLY|Rotation=270.000|XOffset=0mil|YOffset=0mil|HoleType=Round|Shape=RoundedRectangle|*
%AMROUNDEDRECTD69*
21,1,0.05918,0.02244,0,0,270.0*
21,1,0.04370,0.03792,0,0,270.0*
1,1,0.01548,-0.01122,-0.02185*
1,1,0.01548,-0.01122,0.02185*
1,1,0.01548,0.01122,0.02185*
1,1,0.01548,0.01122,-0.02185*
%
%ADD69ROUNDEDRECTD69*%
D35*
X430055Y256000D02*
D03*
X436945D02*
D03*
X423445D02*
D03*
X416555D02*
D03*
X386445Y268000D02*
D03*
X379555D02*
D03*
X386445Y261500D02*
D03*
X379555D02*
D03*
D36*
X509500Y414772D02*
D03*
Y411228D02*
D03*
Y385728D02*
D03*
Y389272D02*
D03*
X415000Y282728D02*
D03*
Y286272D02*
D03*
X419500D02*
D03*
Y282728D02*
D03*
X509500Y356772D02*
D03*
Y353228D02*
D03*
Y324272D02*
D03*
Y320728D02*
D03*
Y291772D02*
D03*
Y288228D02*
D03*
Y226772D02*
D03*
Y223228D02*
D03*
Y190728D02*
D03*
Y194272D02*
D03*
Y259272D02*
D03*
Y255728D02*
D03*
X476500Y169272D02*
D03*
Y165728D02*
D03*
Y444728D02*
D03*
Y448272D02*
D03*
D37*
X430728Y321000D02*
D03*
X434272D02*
D03*
X394772Y283000D02*
D03*
X391228D02*
D03*
X386772Y343500D02*
D03*
X383228D02*
D03*
D38*
X386000Y396055D02*
D03*
Y402945D02*
D03*
D40*
X327685Y197744D02*
D03*
X331000Y227000D02*
D03*
D41*
X337685Y197744D02*
D03*
X327685Y187744D02*
D03*
Y177744D02*
D03*
X337685Y187744D02*
D03*
Y177744D02*
D03*
X321000Y227000D02*
D03*
X331000Y237000D02*
D03*
Y247000D02*
D03*
X321000Y237000D02*
D03*
Y247000D02*
D03*
D42*
X328748Y156287D02*
D03*
Y439752D02*
D03*
X572752D02*
D03*
Y156248D02*
D03*
D43*
X560189Y184500D02*
D03*
X572000D02*
D03*
X560189Y217214D02*
D03*
X572000D02*
D03*
X537094Y155255D02*
D03*
X548906D02*
D03*
X560189Y249929D02*
D03*
X572000D02*
D03*
Y282643D02*
D03*
X560189D02*
D03*
Y315357D02*
D03*
X572000D02*
D03*
X560189Y380786D02*
D03*
X572000D02*
D03*
Y413500D02*
D03*
X560189D02*
D03*
X572000Y348071D02*
D03*
X560189D02*
D03*
X537000Y441000D02*
D03*
X548811D02*
D03*
X362189Y439000D02*
D03*
X374000D02*
D03*
D44*
X580465Y184500D02*
D03*
X551724D02*
D03*
X580465Y217214D02*
D03*
X551724D02*
D03*
X557370Y155255D02*
D03*
X528630D02*
D03*
X580465Y249929D02*
D03*
X551724D02*
D03*
Y282643D02*
D03*
X580465D02*
D03*
Y315357D02*
D03*
X551724D02*
D03*
X580465Y380786D02*
D03*
X551724D02*
D03*
Y413500D02*
D03*
X580465D02*
D03*
X551724Y348071D02*
D03*
X580465D02*
D03*
X557276Y441000D02*
D03*
X528535D02*
D03*
X382465Y439000D02*
D03*
X353724D02*
D03*
D45*
X422154Y436299D02*
D03*
D46*
X450500Y437500D02*
D03*
D47*
X516000Y415000D02*
D03*
Y407000D02*
D03*
Y186500D02*
D03*
Y194500D02*
D03*
Y252000D02*
D03*
Y260000D02*
D03*
Y317000D02*
D03*
Y325000D02*
D03*
Y382000D02*
D03*
Y390000D02*
D03*
X482500Y440500D02*
D03*
Y448500D02*
D03*
X516000Y349500D02*
D03*
Y357500D02*
D03*
Y284500D02*
D03*
Y292500D02*
D03*
Y219500D02*
D03*
Y227500D02*
D03*
X483000Y161000D02*
D03*
Y169000D02*
D03*
D48*
X410000Y407000D02*
D03*
X460000Y168500D02*
D03*
X426000Y407000D02*
D03*
X460000Y151500D02*
D03*
D49*
X483500Y410000D02*
D03*
X496000Y336500D02*
D03*
X462000Y241000D02*
D03*
X497000Y240500D02*
D03*
X493500Y208000D02*
D03*
X479500Y194000D02*
D03*
X459000Y197000D02*
D03*
X459500Y219500D02*
D03*
X460500Y265500D02*
D03*
X480000Y297500D02*
D03*
X463000Y313500D02*
D03*
X493500Y307000D02*
D03*
X473000Y328500D02*
D03*
X485500Y357000D02*
D03*
X458000Y358000D02*
D03*
X485500Y373500D02*
D03*
X457500Y372500D02*
D03*
X484500Y391500D02*
D03*
X457000Y392500D02*
D03*
X326000Y209000D02*
D03*
X358885Y273844D02*
D03*
X329000Y368500D02*
D03*
X373000Y356000D02*
D03*
X371000Y350888D02*
D03*
X359000Y305000D02*
D03*
X500000Y422955D02*
D03*
X495000D02*
D03*
X354500Y276000D02*
D03*
X357000Y298000D02*
D03*
X441000Y237000D02*
D03*
X392500Y252500D02*
D03*
X520000Y148500D02*
D03*
X534000Y396455D02*
D03*
X529000D02*
D03*
X429000Y395000D02*
D03*
X529000Y201425D02*
D03*
X534000D02*
D03*
Y363965D02*
D03*
X444500Y368500D02*
D03*
X529000Y363965D02*
D03*
X447005Y322417D02*
D03*
X529000Y169000D02*
D03*
X534000D02*
D03*
X529000Y234006D02*
D03*
X534000Y234000D02*
D03*
X529000Y266496D02*
D03*
X534000D02*
D03*
X529000Y298986D02*
D03*
X534000D02*
D03*
X529000Y331475D02*
D03*
X534000D02*
D03*
X424000Y307000D02*
D03*
X419500Y312500D02*
D03*
X406500Y285000D02*
D03*
X362500Y359500D02*
D03*
X505000Y422000D02*
D03*
X445500Y299000D02*
D03*
X444500Y306500D02*
D03*
Y314000D02*
D03*
Y333000D02*
D03*
X439000Y353000D02*
D03*
X442000Y342000D02*
D03*
X427500Y283000D02*
D03*
X383000Y312500D02*
D03*
X386000Y233453D02*
D03*
X381000Y330500D02*
D03*
X387702Y329500D02*
D03*
X394500Y324000D02*
D03*
X387635Y294781D02*
D03*
X388500Y300000D02*
D03*
X382000Y291000D02*
D03*
X400071Y285425D02*
D03*
X389000Y288000D02*
D03*
X427500Y312000D02*
D03*
X379500Y285000D02*
D03*
Y297472D02*
D03*
X380000Y303000D02*
D03*
X389500Y305500D02*
D03*
X421571Y322929D02*
D03*
X388000Y309500D02*
D03*
X379500Y316000D02*
D03*
X366500Y285500D02*
D03*
X399500Y281000D02*
D03*
X397469Y264559D02*
D03*
X400500Y267500D02*
D03*
X409494Y243006D02*
D03*
X440500Y251000D02*
D03*
X444000Y228000D02*
D03*
X431429Y356571D02*
D03*
X391000Y268000D02*
D03*
Y261500D02*
D03*
X406321Y259679D02*
D03*
X427000Y326500D02*
D03*
X424170Y317330D02*
D03*
X440500Y385000D02*
D03*
X424500Y389000D02*
D03*
X433500Y374000D02*
D03*
X439000Y368000D02*
D03*
X444000Y356000D02*
D03*
X372000Y336500D02*
D03*
X367000Y271500D02*
D03*
X378500Y322000D02*
D03*
X405000Y267500D02*
D03*
X415000Y270000D02*
D03*
X410000Y281000D02*
D03*
X399000Y330500D02*
D03*
X430000Y279000D02*
D03*
X417000Y240500D02*
D03*
X418000Y233000D02*
D03*
X387000Y246500D02*
D03*
Y239500D02*
D03*
X412500Y328500D02*
D03*
X371000Y268000D02*
D03*
X435500Y380500D02*
D03*
X477500Y146500D02*
D03*
X483500D02*
D03*
X543500Y173500D02*
D03*
Y206000D02*
D03*
Y238500D02*
D03*
Y271000D02*
D03*
Y303500D02*
D03*
Y336000D02*
D03*
Y368500D02*
D03*
X543000Y401000D02*
D03*
D59*
X423504Y249000D02*
D03*
X430000D02*
D03*
Y238722D02*
D03*
X423504D02*
D03*
D60*
X386561Y249827D02*
D03*
Y228173D02*
D03*
X399439D02*
D03*
Y249827D02*
D03*
D61*
X393500Y378306D02*
D03*
X388500D02*
D03*
X383500D02*
D03*
X378500D02*
D03*
Y359695D02*
D03*
X383500D02*
D03*
X388500D02*
D03*
D62*
X393500D02*
D03*
D65*
X505000Y427500D02*
D03*
X500000D02*
D03*
X495000D02*
D03*
X490000D02*
D03*
Y448928D02*
D03*
X495000D02*
D03*
X500000D02*
D03*
X505000D02*
D03*
X539000Y401000D02*
D03*
X534000D02*
D03*
X529000D02*
D03*
X524000D02*
D03*
Y422428D02*
D03*
X529000D02*
D03*
X534000D02*
D03*
X539000D02*
D03*
Y292469D02*
D03*
X534000D02*
D03*
X529000D02*
D03*
X524000D02*
D03*
Y271041D02*
D03*
X529000D02*
D03*
X534000D02*
D03*
X539000D02*
D03*
X508000Y169428D02*
D03*
X503000D02*
D03*
X498000D02*
D03*
X493000D02*
D03*
Y148000D02*
D03*
X498000D02*
D03*
X503000D02*
D03*
X508000D02*
D03*
X539000Y195000D02*
D03*
X534000D02*
D03*
X529000D02*
D03*
X524000D02*
D03*
Y173572D02*
D03*
X529000D02*
D03*
X534000D02*
D03*
X539000D02*
D03*
Y227490D02*
D03*
X534000D02*
D03*
X529000D02*
D03*
X524000D02*
D03*
Y206062D02*
D03*
X529000D02*
D03*
X534000D02*
D03*
X539000D02*
D03*
Y259979D02*
D03*
X534000D02*
D03*
X529000D02*
D03*
X524000D02*
D03*
Y238551D02*
D03*
X529000D02*
D03*
X534000D02*
D03*
X539000D02*
D03*
Y324959D02*
D03*
X534000D02*
D03*
X529000D02*
D03*
X524000D02*
D03*
Y303531D02*
D03*
X529000D02*
D03*
X534000D02*
D03*
X539000D02*
D03*
Y357449D02*
D03*
X534000D02*
D03*
X529000D02*
D03*
X524000D02*
D03*
Y336021D02*
D03*
X529000D02*
D03*
X534000D02*
D03*
X539000D02*
D03*
Y389938D02*
D03*
X534000D02*
D03*
X529000D02*
D03*
X524000D02*
D03*
Y368510D02*
D03*
X529000D02*
D03*
X534000D02*
D03*
X539000D02*
D03*
D66*
X497500Y438214D02*
D03*
X531500Y411714D02*
D03*
Y281755D02*
D03*
X500500Y158714D02*
D03*
X531500Y184286D02*
D03*
Y216776D02*
D03*
Y249265D02*
D03*
Y314245D02*
D03*
Y346734D02*
D03*
Y379224D02*
D03*
D68*
X394000Y395847D02*
D03*
Y388957D02*
D03*
X378000D02*
D03*
Y395847D02*
D03*
D69*
X390504Y349500D02*
D03*
X383457D02*
D03*
M02*
