G04*
G04 #@! TF.GenerationSoftware,Altium Limited,Altium Designer,25.7.1 (20)*
G04*
G04 Layer_Physical_Order=2*
G04 Layer_Color=16711680*
%FSLAX25Y25*%
%MOIN*%
G70*
G04*
G04 #@! TF.SameCoordinates,4004DD4F-5307-4C4F-B8C3-9824D0AE2BA4*
G04*
G04*
G04 #@! TF.FilePolarity,Positive*
G04*
G01*
G75*
%ADD12C,0.00787*%
%ADD17C,0.01000*%
%ADD23R,0.03150X0.04134*%
G04:AMPARAMS|DCode=25|XSize=21.65mil|YSize=19.68mil|CornerRadius=2.46mil|HoleSize=0mil|Usage=FLASHONLY|Rotation=180.000|XOffset=0mil|YOffset=0mil|HoleType=Round|Shape=RoundedRectangle|*
%AMROUNDEDRECTD25*
21,1,0.02165,0.01476,0,0,180.0*
21,1,0.01673,0.01968,0,0,180.0*
1,1,0.00492,-0.00837,0.00738*
1,1,0.00492,0.00837,0.00738*
1,1,0.00492,0.00837,-0.00738*
1,1,0.00492,-0.00837,-0.00738*
%
%ADD25ROUNDEDRECTD25*%
G04:AMPARAMS|DCode=26|XSize=21.65mil|YSize=19.68mil|CornerRadius=2.46mil|HoleSize=0mil|Usage=FLASHONLY|Rotation=90.000|XOffset=0mil|YOffset=0mil|HoleType=Round|Shape=RoundedRectangle|*
%AMROUNDEDRECTD26*
21,1,0.02165,0.01476,0,0,90.0*
21,1,0.01673,0.01968,0,0,90.0*
1,1,0.00492,0.00738,0.00837*
1,1,0.00492,0.00738,-0.00837*
1,1,0.00492,-0.00738,-0.00837*
1,1,0.00492,-0.00738,0.00837*
%
%ADD26ROUNDEDRECTD26*%
%ADD29R,0.04134X0.03150*%
%ADD43C,0.06200*%
%ADD44C,0.09700*%
G04:AMPARAMS|DCode=51|XSize=64.96mil|YSize=64.96mil|CornerRadius=16.24mil|HoleSize=0mil|Usage=FLASHONLY|Rotation=270.000|XOffset=0mil|YOffset=0mil|HoleType=Round|Shape=RoundedRectangle|*
%AMROUNDEDRECTD51*
21,1,0.06496,0.03248,0,0,270.0*
21,1,0.03248,0.06496,0,0,270.0*
1,1,0.03248,-0.01624,-0.01624*
1,1,0.03248,-0.01624,0.01624*
1,1,0.03248,0.01624,0.01624*
1,1,0.03248,0.01624,-0.01624*
%
%ADD51ROUNDEDRECTD51*%
%ADD52C,0.06496*%
%ADD53C,0.17323*%
%ADD54R,0.23622X0.23622*%
%ADD55C,0.23622*%
%ADD56C,0.06000*%
%ADD57C,0.12598*%
%ADD58C,0.02362*%
%ADD59R,0.03700X0.05478*%
%ADD60R,0.04878X0.02197*%
G04:AMPARAMS|DCode=61|XSize=85.4mil|YSize=22.92mil|CornerRadius=11.46mil|HoleSize=0mil|Usage=FLASHONLY|Rotation=90.000|XOffset=0mil|YOffset=0mil|HoleType=Round|Shape=RoundedRectangle|*
%AMROUNDEDRECTD61*
21,1,0.08540,0.00000,0,0,90.0*
21,1,0.06248,0.02292,0,0,90.0*
1,1,0.02292,0.00000,0.03124*
1,1,0.02292,0.00000,-0.03124*
1,1,0.02292,0.00000,-0.03124*
1,1,0.02292,0.00000,0.03124*
%
%ADD61ROUNDEDRECTD61*%
%ADD62R,0.02292X0.08540*%
%ADD63R,0.03937X0.02953*%
G04:AMPARAMS|DCode=64|XSize=51.18mil|YSize=29.92mil|CornerRadius=3.74mil|HoleSize=0mil|Usage=FLASHONLY|Rotation=270.000|XOffset=0mil|YOffset=0mil|HoleType=Round|Shape=RoundedRectangle|*
%AMROUNDEDRECTD64*
21,1,0.05118,0.02244,0,0,270.0*
21,1,0.04370,0.02992,0,0,270.0*
1,1,0.00748,-0.01122,-0.02185*
1,1,0.00748,-0.01122,0.02185*
1,1,0.00748,0.01122,0.02185*
1,1,0.00748,0.01122,-0.02185*
%
%ADD64ROUNDEDRECTD64*%
%ADD65R,0.02197X0.05728*%
%ADD66R,0.13400X0.10700*%
%ADD67C,0.03937*%
G36*
X495096Y453946D02*
X494955Y453852D01*
X494955Y453852D01*
X494509Y453405D01*
X494482Y453387D01*
X494148Y453054D01*
X493887Y452663D01*
X493871Y452579D01*
X493114D01*
Y449069D01*
X492764Y449046D01*
X492685Y449647D01*
X492407Y450318D01*
X491965Y450893D01*
X491886Y450955D01*
Y452579D01*
X488114D01*
Y451280D01*
X485077D01*
X484826Y451531D01*
X483962Y452029D01*
X482999Y452287D01*
X482001D01*
X481038Y452029D01*
X480174Y451531D01*
X479809Y451165D01*
X477266D01*
X477219Y451185D01*
X476500Y451280D01*
X475850Y451194D01*
X475500Y451387D01*
Y454296D01*
X494990D01*
X495096Y453946D01*
D02*
G37*
G36*
X529441Y446921D02*
X529433Y446906D01*
X529229Y446637D01*
X527793D01*
X526360Y446253D01*
X525074Y445511D01*
X524024Y444461D01*
X523282Y443176D01*
X522898Y441742D01*
Y440306D01*
X522629Y440103D01*
X522615Y440094D01*
X511430Y451279D01*
X511181Y451446D01*
X511287Y451796D01*
X524566D01*
X529441Y446921D01*
D02*
G37*
G36*
X587396Y141744D02*
X498519D01*
X498485Y142094D01*
X498730Y142142D01*
X499121Y142403D01*
X501043Y144325D01*
X502295D01*
X502295Y144325D01*
X502412Y144349D01*
X504886D01*
Y151651D01*
X501114D01*
Y146734D01*
X500544D01*
X500236Y146673D01*
X499886Y146899D01*
Y151651D01*
X496114D01*
Y146734D01*
X495544D01*
X495544Y146734D01*
X495236Y146673D01*
X494886Y146899D01*
Y151651D01*
X494204D01*
Y152364D01*
X499500D01*
Y158714D01*
X500500D01*
Y159714D01*
X508200D01*
Y162222D01*
X508523Y162356D01*
X520061Y150819D01*
X519916Y150469D01*
X519608D01*
X518885Y150169D01*
X518420Y149704D01*
X509886D01*
Y151651D01*
X506114D01*
Y144349D01*
X509886D01*
Y147296D01*
X518420D01*
X518885Y146831D01*
X519608Y146531D01*
X520392D01*
X521115Y146831D01*
X521669Y147385D01*
X521969Y148108D01*
Y148416D01*
X522319Y148561D01*
X523262Y147617D01*
X523653Y147356D01*
X524114Y147265D01*
X524114Y147265D01*
X531034D01*
X531034Y147265D01*
X531494Y147356D01*
X531885Y147617D01*
X535835Y151568D01*
X536583Y151367D01*
X537606D01*
X538595Y151632D01*
X539481Y152144D01*
X540205Y152868D01*
X540717Y153754D01*
X540982Y154743D01*
Y155766D01*
X540956Y155863D01*
X541259Y156038D01*
X543648Y153648D01*
X543648Y153648D01*
X544039Y153387D01*
X544500Y153296D01*
X545548D01*
X545795Y152868D01*
X546519Y152144D01*
X547405Y151632D01*
X548394Y151367D01*
X549417D01*
X550406Y151632D01*
X551292Y152144D01*
X551901Y152753D01*
X552313Y152739D01*
X552859Y151793D01*
X553909Y150744D01*
X555194Y150002D01*
X556628Y149617D01*
X558112D01*
X559546Y150002D01*
X560831Y150744D01*
X561881Y151793D01*
X562623Y153079D01*
X562940Y154260D01*
X563299Y154248D01*
X563462Y153430D01*
X564190Y151672D01*
X565247Y150089D01*
X566593Y148743D01*
X568176Y147686D01*
X569934Y146958D01*
X571752Y146596D01*
Y156248D01*
Y165900D01*
X569934Y165538D01*
X568176Y164810D01*
X566593Y163752D01*
X565247Y162407D01*
X564190Y160824D01*
X563462Y159066D01*
X563091Y157200D01*
Y157039D01*
X562741Y156993D01*
X562623Y157431D01*
X561881Y158716D01*
X560831Y159766D01*
X559546Y160508D01*
X558112Y160892D01*
X556628D01*
X555194Y160508D01*
X553909Y159766D01*
X552859Y158716D01*
X552313Y157770D01*
X551901Y157757D01*
X551292Y158365D01*
X550406Y158877D01*
X549417Y159142D01*
X548394D01*
X547405Y158877D01*
X546519Y158365D01*
X545795Y157642D01*
X545283Y156755D01*
X545106Y156093D01*
X544715Y155988D01*
X534852Y165851D01*
X534461Y166113D01*
X534000Y166204D01*
X534000Y166204D01*
X511161D01*
X509886Y167480D01*
Y173079D01*
X506114D01*
Y166012D01*
X505098D01*
Y168428D01*
X503000D01*
X500902D01*
Y168349D01*
X500631Y168127D01*
X500456Y168162D01*
X500456Y168162D01*
X499886D01*
Y173079D01*
X498798D01*
X498664Y173403D01*
X501057Y175796D01*
X520156D01*
X522114Y173838D01*
Y169921D01*
X525886D01*
Y177223D01*
X525204D01*
Y177936D01*
X530500D01*
Y184286D01*
X531500D01*
Y185286D01*
X539200D01*
Y188146D01*
X539523Y188280D01*
X542754Y185050D01*
Y183738D01*
X542754Y183737D01*
X542845Y183277D01*
X543106Y182886D01*
X548375Y177617D01*
X548765Y177356D01*
X549226Y177265D01*
X549226Y177265D01*
X554222D01*
X554223Y177265D01*
X554683Y177356D01*
X555074Y177617D01*
X558464Y181007D01*
X558688Y180877D01*
X559677Y180613D01*
X560701D01*
X561690Y180877D01*
X562576Y181389D01*
X563300Y182113D01*
X563811Y183000D01*
X564076Y183988D01*
Y185012D01*
X563811Y186001D01*
X563300Y186887D01*
X562576Y187611D01*
X561690Y188122D01*
X560701Y188387D01*
X559677D01*
X558688Y188122D01*
X557802Y187611D01*
X557194Y187002D01*
X556782Y187016D01*
X556236Y187961D01*
X555186Y189011D01*
X553900Y189753D01*
X552467Y190137D01*
X550982D01*
X549548Y189753D01*
X548263Y189011D01*
X547213Y187961D01*
X546471Y186676D01*
X546087Y185242D01*
Y183806D01*
X545818Y183603D01*
X545804Y183594D01*
X545162Y184236D01*
Y185549D01*
X545070Y186009D01*
X544809Y186400D01*
X544809Y186400D01*
X540184Y191025D01*
X540318Y191349D01*
X540886D01*
Y193796D01*
X561001D01*
X568531Y186266D01*
X568377Y186001D01*
X568113Y185012D01*
Y183988D01*
X568377Y183000D01*
X568889Y182113D01*
X569613Y181389D01*
X570500Y180877D01*
X571488Y180613D01*
X572512D01*
X573500Y180877D01*
X574387Y181389D01*
X574996Y181998D01*
X575407Y181984D01*
X575953Y181039D01*
X577003Y179989D01*
X578289Y179247D01*
X579722Y178863D01*
X581207D01*
X582641Y179247D01*
X583926Y179989D01*
X584976Y181039D01*
X585718Y182324D01*
X586102Y183758D01*
Y185242D01*
X585718Y186676D01*
X584976Y187961D01*
X583926Y189011D01*
X582641Y189753D01*
X581207Y190137D01*
X579722D01*
X578289Y189753D01*
X577003Y189011D01*
X575953Y187961D01*
X575407Y187016D01*
X574996Y187002D01*
X574387Y187611D01*
X573500Y188122D01*
X572512Y188387D01*
X571488D01*
X570500Y188122D01*
X570234Y187969D01*
X562352Y195852D01*
X561961Y196113D01*
X561500Y196204D01*
X561500Y196204D01*
X540886D01*
Y198651D01*
X537114D01*
Y192021D01*
X536098D01*
Y194000D01*
X534000D01*
X531902D01*
Y192493D01*
X531578Y192359D01*
X530886Y193052D01*
Y198651D01*
X527114D01*
X527114Y198651D01*
Y198651D01*
X526861Y198856D01*
X525204Y200513D01*
Y202410D01*
X525886D01*
Y209713D01*
X525204D01*
Y210426D01*
X530500D01*
Y216776D01*
X531500D01*
Y217776D01*
X539200D01*
Y220636D01*
X539523Y220770D01*
X542754Y217540D01*
Y216452D01*
X542754Y216452D01*
X542845Y215991D01*
X543106Y215600D01*
X548375Y210332D01*
X548765Y210071D01*
X549226Y209979D01*
X549226Y209979D01*
X554222D01*
X554223Y209979D01*
X554683Y210071D01*
X555074Y210332D01*
X558464Y213721D01*
X558688Y213592D01*
X559677Y213327D01*
X560701D01*
X561690Y213592D01*
X562576Y214104D01*
X563300Y214827D01*
X563811Y215714D01*
X564076Y216703D01*
Y217726D01*
X563811Y218715D01*
X563300Y219601D01*
X562576Y220325D01*
X561690Y220837D01*
X560701Y221102D01*
X559677D01*
X558688Y220837D01*
X557802Y220325D01*
X557194Y219716D01*
X556782Y219730D01*
X556236Y220676D01*
X555186Y221725D01*
X553900Y222467D01*
X552467Y222852D01*
X550982D01*
X549548Y222467D01*
X548263Y221725D01*
X547213Y220676D01*
X546471Y219390D01*
X546087Y217956D01*
Y216521D01*
X545818Y216317D01*
X545804Y216309D01*
X545162Y216950D01*
Y218038D01*
X545070Y218499D01*
X544809Y218890D01*
X544809Y218890D01*
X540184Y223515D01*
X540318Y223838D01*
X540886D01*
Y226286D01*
X561226D01*
X568531Y218980D01*
X568377Y218715D01*
X568113Y217726D01*
Y216703D01*
X568377Y215714D01*
X568889Y214827D01*
X569613Y214104D01*
X570500Y213592D01*
X571488Y213327D01*
X572512D01*
X573500Y213592D01*
X574387Y214104D01*
X574996Y214712D01*
X575407Y214699D01*
X575953Y213753D01*
X577003Y212703D01*
X578289Y211961D01*
X579722Y211577D01*
X581207D01*
X582641Y211961D01*
X583926Y212703D01*
X584976Y213753D01*
X585718Y215038D01*
X586102Y216472D01*
Y217956D01*
X585718Y219390D01*
X584976Y220676D01*
X583926Y221725D01*
X582641Y222467D01*
X581207Y222852D01*
X579722D01*
X578289Y222467D01*
X577003Y221725D01*
X575953Y220676D01*
X575407Y219730D01*
X574996Y219716D01*
X574387Y220325D01*
X573500Y220837D01*
X572512Y221102D01*
X571488D01*
X570500Y220837D01*
X570234Y220683D01*
X562576Y228341D01*
X562185Y228602D01*
X561725Y228694D01*
X561725Y228694D01*
X540886D01*
Y231141D01*
X537114D01*
Y224511D01*
X536098D01*
Y226490D01*
X534000D01*
X531902D01*
Y224983D01*
X531578Y224849D01*
X530886Y225541D01*
Y231141D01*
X527846D01*
X527825Y231249D01*
X527564Y231639D01*
X527564Y231639D01*
X525204Y233999D01*
Y234900D01*
X525886D01*
Y242203D01*
X525204D01*
Y242915D01*
X530500D01*
Y249265D01*
X531500D01*
Y250265D01*
X539200D01*
Y253125D01*
X539523Y253259D01*
X542754Y250029D01*
Y249166D01*
X542754Y249166D01*
X542845Y248705D01*
X543106Y248314D01*
X548375Y243046D01*
X548765Y242785D01*
X549226Y242693D01*
X549226Y242693D01*
X554222D01*
X554223Y242693D01*
X554683Y242785D01*
X555074Y243046D01*
X558464Y246436D01*
X558688Y246306D01*
X559677Y246041D01*
X560701D01*
X561690Y246306D01*
X562576Y246818D01*
X563300Y247542D01*
X563811Y248428D01*
X564076Y249417D01*
Y250440D01*
X563811Y251429D01*
X563300Y252315D01*
X562576Y253039D01*
X561690Y253551D01*
X560701Y253816D01*
X559677D01*
X558688Y253551D01*
X557802Y253039D01*
X557194Y252431D01*
X556782Y252444D01*
X556236Y253390D01*
X555186Y254440D01*
X553900Y255182D01*
X552467Y255566D01*
X550982D01*
X549548Y255182D01*
X548263Y254440D01*
X547213Y253390D01*
X546471Y252104D01*
X546087Y250671D01*
Y249235D01*
X545818Y249031D01*
X545804Y249023D01*
X545162Y249665D01*
Y250528D01*
X545070Y250989D01*
X544809Y251379D01*
X544809Y251380D01*
X540184Y256005D01*
X540318Y256328D01*
X540886D01*
Y258775D01*
X561450D01*
X568531Y251695D01*
X568377Y251429D01*
X568113Y250440D01*
Y249417D01*
X568377Y248428D01*
X568889Y247542D01*
X569613Y246818D01*
X570500Y246306D01*
X571488Y246041D01*
X572512D01*
X573500Y246306D01*
X574387Y246818D01*
X574996Y247427D01*
X575407Y247413D01*
X575953Y246467D01*
X577003Y245417D01*
X578289Y244675D01*
X579722Y244291D01*
X581207D01*
X582641Y244675D01*
X583926Y245417D01*
X584976Y246467D01*
X585718Y247753D01*
X586102Y249186D01*
Y250671D01*
X585718Y252104D01*
X584976Y253390D01*
X583926Y254440D01*
X582641Y255182D01*
X581207Y255566D01*
X579722D01*
X578289Y255182D01*
X577003Y254440D01*
X575953Y253390D01*
X575407Y252444D01*
X574996Y252431D01*
X574387Y253039D01*
X573500Y253551D01*
X572512Y253816D01*
X571488D01*
X570500Y253551D01*
X570234Y253398D01*
X562801Y260831D01*
X562410Y261092D01*
X561949Y261184D01*
X561949Y261184D01*
X540886D01*
Y263631D01*
X537114D01*
Y257001D01*
X536098D01*
Y258979D01*
X534000D01*
X531902D01*
Y257001D01*
X530886D01*
Y263631D01*
X527114D01*
X527114Y263631D01*
Y263631D01*
X526861Y263836D01*
X525204Y265492D01*
Y267390D01*
X525886D01*
Y274693D01*
X525204D01*
Y275405D01*
X530500D01*
Y281755D01*
X531500D01*
Y282755D01*
X539200D01*
Y285615D01*
X539523Y285749D01*
X542685Y282588D01*
Y281949D01*
X542685Y281949D01*
X542776Y281488D01*
X543037Y281098D01*
X548375Y275760D01*
X548375Y275760D01*
X548765Y275499D01*
X549226Y275408D01*
X549226Y275408D01*
X554222D01*
X554223Y275408D01*
X554683Y275499D01*
X555074Y275760D01*
X558464Y279150D01*
X558688Y279020D01*
X559677Y278755D01*
X560701D01*
X561690Y279020D01*
X562576Y279532D01*
X563300Y280256D01*
X563811Y281142D01*
X564076Y282131D01*
Y283155D01*
X563811Y284143D01*
X563300Y285030D01*
X562576Y285753D01*
X561690Y286265D01*
X560701Y286530D01*
X559677D01*
X558688Y286265D01*
X557802Y285753D01*
X557194Y285145D01*
X556782Y285158D01*
X556236Y286104D01*
X555186Y287154D01*
X553900Y287896D01*
X552467Y288280D01*
X550982D01*
X549548Y287896D01*
X548263Y287154D01*
X547213Y286104D01*
X546471Y284819D01*
X546087Y283385D01*
Y281949D01*
X545818Y281746D01*
X545804Y281737D01*
X545093Y282448D01*
Y283087D01*
X545093Y283087D01*
X545001Y283547D01*
X544740Y283938D01*
X544740Y283938D01*
X540184Y288494D01*
X540318Y288818D01*
X540886D01*
Y291265D01*
X561675D01*
X568531Y284409D01*
X568377Y284143D01*
X568113Y283155D01*
Y282131D01*
X568377Y281142D01*
X568889Y280256D01*
X569613Y279532D01*
X570500Y279020D01*
X571488Y278755D01*
X572512D01*
X573500Y279020D01*
X574387Y279532D01*
X574996Y280141D01*
X575407Y280127D01*
X575953Y279181D01*
X577003Y278132D01*
X578289Y277390D01*
X579722Y277005D01*
X581207D01*
X582641Y277390D01*
X583926Y278132D01*
X584976Y279181D01*
X585718Y280467D01*
X586102Y281901D01*
Y283385D01*
X585718Y284819D01*
X584976Y286104D01*
X583926Y287154D01*
X582641Y287896D01*
X581207Y288280D01*
X579722D01*
X578289Y287896D01*
X577003Y287154D01*
X575953Y286104D01*
X575407Y285158D01*
X574996Y285145D01*
X574387Y285753D01*
X573500Y286265D01*
X572512Y286530D01*
X571488D01*
X570500Y286265D01*
X570234Y286112D01*
X563025Y293321D01*
X562635Y293582D01*
X562174Y293673D01*
X562174Y293673D01*
X540886D01*
Y296121D01*
X537114D01*
Y289628D01*
X536098D01*
Y291469D01*
X534000D01*
X531902D01*
Y290000D01*
X531552Y289855D01*
X530886Y290521D01*
Y296121D01*
X527416D01*
Y296788D01*
X527417Y296788D01*
X527325Y297249D01*
X527064Y297639D01*
X527064Y297639D01*
X525204Y299499D01*
Y299880D01*
X525886D01*
Y307182D01*
X525204D01*
Y307895D01*
X530500D01*
Y314245D01*
X531500D01*
Y315245D01*
X539200D01*
Y318105D01*
X539523Y318239D01*
X542754Y315009D01*
Y314595D01*
X542754Y314595D01*
X542845Y314134D01*
X543106Y313743D01*
X548375Y308474D01*
X548765Y308213D01*
X549226Y308122D01*
X549226Y308122D01*
X554222D01*
X554223Y308122D01*
X554683Y308213D01*
X555074Y308474D01*
X558464Y311864D01*
X558688Y311735D01*
X559677Y311470D01*
X560701D01*
X561690Y311735D01*
X562576Y312246D01*
X563300Y312970D01*
X563811Y313857D01*
X564076Y314845D01*
Y315869D01*
X563811Y316858D01*
X563300Y317744D01*
X562576Y318468D01*
X561690Y318980D01*
X560701Y319245D01*
X559677D01*
X558688Y318980D01*
X557802Y318468D01*
X557194Y317859D01*
X556782Y317873D01*
X556236Y318819D01*
X555186Y319868D01*
X553900Y320610D01*
X552467Y320994D01*
X550982D01*
X549548Y320610D01*
X548263Y319868D01*
X547213Y318819D01*
X546471Y317533D01*
X546087Y316099D01*
Y314663D01*
X545818Y314460D01*
X545804Y314452D01*
X545162Y315093D01*
Y315507D01*
X545070Y315968D01*
X544809Y316359D01*
X544809Y316359D01*
X540184Y320984D01*
X540318Y321307D01*
X540886D01*
Y323755D01*
X561900D01*
X568531Y317123D01*
X568377Y316858D01*
X568113Y315869D01*
Y314845D01*
X568377Y313857D01*
X568889Y312970D01*
X569613Y312246D01*
X570500Y311735D01*
X571488Y311470D01*
X572512D01*
X573500Y311735D01*
X574387Y312246D01*
X574996Y312855D01*
X575407Y312842D01*
X575953Y311896D01*
X577003Y310846D01*
X578289Y310104D01*
X579722Y309720D01*
X581207D01*
X582641Y310104D01*
X583926Y310846D01*
X584976Y311896D01*
X585718Y313181D01*
X586102Y314615D01*
Y316099D01*
X585718Y317533D01*
X584976Y318819D01*
X583926Y319868D01*
X582641Y320610D01*
X581207Y320994D01*
X579722D01*
X578289Y320610D01*
X577003Y319868D01*
X575953Y318819D01*
X575407Y317873D01*
X574996Y317859D01*
X574387Y318468D01*
X573500Y318980D01*
X572512Y319245D01*
X571488D01*
X570500Y318980D01*
X570234Y318826D01*
X563250Y325810D01*
X562859Y326071D01*
X562398Y326163D01*
X562398Y326163D01*
X540886D01*
Y328610D01*
X537114D01*
Y321980D01*
X536098D01*
Y323959D01*
X534000D01*
X531902D01*
Y322452D01*
X531578Y322318D01*
X530886Y323010D01*
Y328610D01*
X527114D01*
X526853Y328823D01*
X525204Y330472D01*
Y332369D01*
X525886D01*
Y339672D01*
X525204D01*
Y340385D01*
X530500D01*
Y346734D01*
X531500D01*
Y347734D01*
X539200D01*
Y350594D01*
X539523Y350728D01*
X542754Y347498D01*
Y347309D01*
X542754Y347309D01*
X542845Y346848D01*
X543106Y346457D01*
X548375Y341189D01*
X548765Y340928D01*
X549226Y340836D01*
X549226Y340836D01*
X554222D01*
X554223Y340836D01*
X554683Y340928D01*
X555074Y341189D01*
X558464Y344579D01*
X558688Y344449D01*
X559677Y344184D01*
X560701D01*
X561690Y344449D01*
X562576Y344961D01*
X563300Y345685D01*
X563811Y346571D01*
X564076Y347560D01*
Y348583D01*
X563811Y349572D01*
X563300Y350458D01*
X562576Y351182D01*
X561690Y351694D01*
X560701Y351959D01*
X559677D01*
X558688Y351694D01*
X557802Y351182D01*
X557194Y350573D01*
X556782Y350587D01*
X556236Y351533D01*
X555186Y352582D01*
X553900Y353325D01*
X552467Y353709D01*
X550982D01*
X549548Y353325D01*
X548263Y352582D01*
X547213Y351533D01*
X546471Y350247D01*
X546087Y348814D01*
Y347378D01*
X545818Y347174D01*
X545804Y347166D01*
X545162Y347808D01*
Y347997D01*
X545070Y348458D01*
X544809Y348849D01*
X544809Y348849D01*
X540184Y353474D01*
X540318Y353797D01*
X540886D01*
Y356244D01*
X562124D01*
X568531Y349837D01*
X568377Y349572D01*
X568113Y348583D01*
Y347560D01*
X568377Y346571D01*
X568889Y345685D01*
X569613Y344961D01*
X570500Y344449D01*
X571488Y344184D01*
X572512D01*
X573500Y344449D01*
X574387Y344961D01*
X574996Y345569D01*
X575407Y345556D01*
X575953Y344610D01*
X577003Y343560D01*
X578289Y342818D01*
X579722Y342434D01*
X581207D01*
X582641Y342818D01*
X583926Y343560D01*
X584976Y344610D01*
X585718Y345895D01*
X586102Y347329D01*
Y348814D01*
X585718Y350247D01*
X584976Y351533D01*
X583926Y352582D01*
X582641Y353325D01*
X581207Y353709D01*
X579722D01*
X578289Y353325D01*
X577003Y352582D01*
X575953Y351533D01*
X575407Y350587D01*
X574996Y350573D01*
X574387Y351182D01*
X573500Y351694D01*
X572512Y351959D01*
X571488D01*
X570500Y351694D01*
X570234Y351540D01*
X563474Y358300D01*
X563084Y358561D01*
X562623Y358653D01*
X562623Y358653D01*
X540886D01*
Y361100D01*
X537114D01*
Y354470D01*
X536098D01*
Y356449D01*
X534000D01*
X531902D01*
Y354942D01*
X531578Y354808D01*
X530886Y355500D01*
Y361100D01*
X527114D01*
X527114Y361100D01*
Y361100D01*
X526861Y361305D01*
X525327Y362839D01*
Y364859D01*
X525886D01*
Y372162D01*
X525204D01*
Y372874D01*
X530500D01*
Y379224D01*
X531500D01*
Y380224D01*
X539200D01*
Y383084D01*
X539523Y383218D01*
X542693Y380048D01*
X542776Y379631D01*
X543037Y379240D01*
X548375Y373903D01*
X548375Y373903D01*
X548765Y373642D01*
X549226Y373550D01*
X549226Y373550D01*
X554222D01*
X554223Y373550D01*
X554683Y373642D01*
X555074Y373903D01*
X558464Y377293D01*
X558688Y377163D01*
X559677Y376898D01*
X560701D01*
X561690Y377163D01*
X562576Y377675D01*
X563300Y378399D01*
X563811Y379285D01*
X564076Y380274D01*
Y381297D01*
X563811Y382286D01*
X563300Y383173D01*
X562576Y383896D01*
X561690Y384408D01*
X560701Y384673D01*
X559677D01*
X558688Y384408D01*
X557802Y383896D01*
X557194Y383288D01*
X556782Y383301D01*
X556236Y384247D01*
X555186Y385297D01*
X553900Y386039D01*
X552467Y386423D01*
X550982D01*
X549548Y386039D01*
X548263Y385297D01*
X547213Y384247D01*
X546471Y382962D01*
X546087Y381528D01*
Y380092D01*
X545818Y379888D01*
X545804Y379880D01*
X545084Y380599D01*
X545001Y381017D01*
X544740Y381407D01*
X544740Y381407D01*
X540184Y385964D01*
X540318Y386287D01*
X540886D01*
Y388734D01*
X562349D01*
X568531Y382552D01*
X568377Y382286D01*
X568113Y381297D01*
Y380274D01*
X568377Y379285D01*
X568889Y378399D01*
X569613Y377675D01*
X570500Y377163D01*
X571488Y376898D01*
X572512D01*
X573500Y377163D01*
X574387Y377675D01*
X574996Y378284D01*
X575407Y378270D01*
X575953Y377324D01*
X577003Y376275D01*
X578289Y375533D01*
X579722Y375148D01*
X581207D01*
X582641Y375533D01*
X583926Y376275D01*
X584976Y377324D01*
X585718Y378610D01*
X586102Y380044D01*
Y381528D01*
X585718Y382962D01*
X584976Y384247D01*
X583926Y385297D01*
X582641Y386039D01*
X581207Y386423D01*
X579722D01*
X578289Y386039D01*
X577003Y385297D01*
X575953Y384247D01*
X575407Y383301D01*
X574996Y383288D01*
X574387Y383896D01*
X573500Y384408D01*
X572512Y384673D01*
X571488D01*
X570500Y384408D01*
X570234Y384255D01*
X563699Y390790D01*
X563308Y391051D01*
X562848Y391143D01*
X562847Y391142D01*
X540886D01*
Y393590D01*
X537114D01*
Y387097D01*
X536098D01*
Y388938D01*
X534000D01*
X531902D01*
Y387469D01*
X531552Y387324D01*
X530886Y387990D01*
Y393590D01*
X527114D01*
X527114Y393590D01*
Y393590D01*
X526861Y393795D01*
X525204Y395451D01*
Y397349D01*
X525886D01*
Y404651D01*
X525204D01*
Y405364D01*
X530500D01*
Y411714D01*
X531500D01*
Y412714D01*
X539200D01*
Y415574D01*
X539523Y415708D01*
X542818Y412413D01*
X542845Y412277D01*
X543106Y411886D01*
X548375Y406617D01*
X548765Y406356D01*
X549226Y406265D01*
X549226Y406265D01*
X554222D01*
X554223Y406265D01*
X554683Y406356D01*
X555074Y406617D01*
X558464Y410007D01*
X558688Y409877D01*
X559677Y409613D01*
X560701D01*
X561690Y409877D01*
X562576Y410389D01*
X563300Y411113D01*
X563811Y412000D01*
X564076Y412988D01*
Y414012D01*
X563811Y415000D01*
X563300Y415887D01*
X562576Y416611D01*
X561690Y417122D01*
X560701Y417387D01*
X559677D01*
X558688Y417122D01*
X557802Y416611D01*
X557194Y416002D01*
X556782Y416015D01*
X556236Y416961D01*
X555186Y418011D01*
X553900Y418753D01*
X552467Y419137D01*
X550982D01*
X549548Y418753D01*
X548263Y418011D01*
X547213Y416961D01*
X546471Y415676D01*
X546087Y414242D01*
Y412806D01*
X545818Y412603D01*
X545804Y412594D01*
X545097Y413301D01*
X545070Y413437D01*
X544809Y413828D01*
X544809Y413828D01*
X540184Y418453D01*
X540318Y418777D01*
X540886D01*
Y421224D01*
X562573D01*
X568531Y415266D01*
X568377Y415000D01*
X568113Y414012D01*
Y412988D01*
X568377Y412000D01*
X568889Y411113D01*
X569613Y410389D01*
X570500Y409877D01*
X571488Y409613D01*
X572512D01*
X573500Y409877D01*
X574387Y410389D01*
X574996Y410998D01*
X575407Y410984D01*
X575953Y410039D01*
X577003Y408989D01*
X578289Y408247D01*
X579722Y407863D01*
X581207D01*
X582641Y408247D01*
X583926Y408989D01*
X584976Y410039D01*
X585718Y411324D01*
X586102Y412758D01*
Y414242D01*
X585718Y415676D01*
X584976Y416961D01*
X583926Y418011D01*
X582641Y418753D01*
X581207Y419137D01*
X579722D01*
X578289Y418753D01*
X577003Y418011D01*
X575953Y416961D01*
X575407Y416015D01*
X574996Y416002D01*
X574387Y416611D01*
X573500Y417122D01*
X572512Y417387D01*
X571488D01*
X570500Y417122D01*
X570234Y416969D01*
X563924Y423279D01*
X563533Y423540D01*
X563072Y423632D01*
X563072Y423632D01*
X540886D01*
Y426079D01*
X537114D01*
Y419449D01*
X536098D01*
Y421428D01*
X534000D01*
X531902D01*
Y419921D01*
X531578Y419787D01*
X530886Y420480D01*
Y426079D01*
X527114D01*
X527114Y426079D01*
Y426079D01*
X526861Y426284D01*
X521186Y431959D01*
X520795Y432220D01*
X520334Y432312D01*
X520334Y432312D01*
X505200D01*
Y437214D01*
X497500D01*
X489800D01*
Y431864D01*
X490438D01*
X490572Y431541D01*
X490183Y431151D01*
X488114D01*
Y423849D01*
X491886D01*
Y429448D01*
X492341Y429903D01*
X493114D01*
Y423849D01*
X493114D01*
X493191Y423733D01*
X493032Y423347D01*
Y422563D01*
X493331Y421840D01*
X493821Y421350D01*
X493731Y421000D01*
X475500D01*
Y422500D01*
Y442586D01*
D01*
Y444728D01*
X477500D01*
Y442752D01*
X477823Y442816D01*
X478235Y443092D01*
X478510Y443504D01*
X478607Y443990D01*
Y445467D01*
X478722Y445606D01*
X480038D01*
X480174Y445469D01*
X481038Y444971D01*
X481708Y444791D01*
Y444429D01*
X480956Y444227D01*
X480044Y443701D01*
X479299Y442956D01*
X478773Y442044D01*
X478627Y441500D01*
X482500D01*
X486373D01*
X486227Y442044D01*
X485701Y442956D01*
X484956Y443701D01*
X484044Y444227D01*
X483292Y444429D01*
Y444791D01*
X483962Y444971D01*
X484826Y445469D01*
X485077Y445720D01*
X488114D01*
Y445277D01*
X491886D01*
Y446883D01*
X491965Y446962D01*
X492407Y447538D01*
X492685Y448209D01*
X492764Y448810D01*
X493114Y448787D01*
Y445277D01*
X496886D01*
Y451796D01*
X497902D01*
Y449928D01*
X500000D01*
Y448928D01*
D01*
Y449928D01*
X502098D01*
Y451796D01*
X503114D01*
Y445277D01*
X506886D01*
Y449224D01*
X510079D01*
X525186Y434117D01*
X525186Y434117D01*
X525576Y433856D01*
X526037Y433765D01*
X542780D01*
X542780Y433765D01*
X543241Y433856D01*
X543632Y434117D01*
X547045Y437531D01*
X547310Y437378D01*
X548299Y437113D01*
X549323D01*
X550312Y437378D01*
X551198Y437889D01*
X551806Y438498D01*
X552218Y438484D01*
X552765Y437539D01*
X553814Y436489D01*
X555100Y435747D01*
X556533Y435363D01*
X558018D01*
X559451Y435747D01*
X560737Y436489D01*
X561787Y437539D01*
X562529Y438824D01*
X562741Y439614D01*
X563091Y439568D01*
Y438800D01*
X563462Y436934D01*
X564190Y435176D01*
X565247Y433593D01*
X566593Y432247D01*
X568176Y431190D01*
X569934Y430462D01*
X571752Y430100D01*
Y439752D01*
Y449404D01*
X569934Y449042D01*
X568176Y448314D01*
X566593Y447257D01*
X565247Y445911D01*
X564190Y444328D01*
X563462Y442570D01*
X563263Y441570D01*
X562913Y441605D01*
Y441742D01*
X562529Y443176D01*
X561787Y444461D01*
X560737Y445511D01*
X559451Y446253D01*
X558018Y446637D01*
X556533D01*
X555100Y446253D01*
X553814Y445511D01*
X552765Y444461D01*
X552218Y443515D01*
X551806Y443502D01*
X551198Y444111D01*
X550312Y444623D01*
X549323Y444887D01*
X548299D01*
X547310Y444623D01*
X546424Y444111D01*
X545700Y443387D01*
X545189Y442500D01*
X544924Y441512D01*
Y440488D01*
X545189Y439500D01*
X545342Y439234D01*
X542281Y436173D01*
X532082D01*
X532077Y436189D01*
X532031Y436523D01*
X533046Y437539D01*
X533593Y438484D01*
X534004Y438498D01*
X534613Y437889D01*
X535499Y437378D01*
X536488Y437113D01*
X537512D01*
X538500Y437378D01*
X539387Y437889D01*
X540111Y438613D01*
X540623Y439500D01*
X540887Y440488D01*
Y441512D01*
X540623Y442500D01*
X540111Y443387D01*
X539387Y444111D01*
X538500Y444623D01*
X537512Y444887D01*
X536488D01*
X535499Y444623D01*
X535275Y444493D01*
X525916Y453852D01*
X525775Y453946D01*
X525881Y454296D01*
X587396D01*
Y141744D01*
D02*
G37*
G36*
X523336Y426403D02*
X523202Y426079D01*
X522114D01*
Y424455D01*
X522035Y424393D01*
X521164Y423523D01*
X521153Y423509D01*
X521139Y423498D01*
X516428Y418787D01*
X515501D01*
X514538Y418529D01*
X513674Y418031D01*
X513309Y417665D01*
X510266D01*
X510219Y417685D01*
X509500Y417780D01*
X508781Y417685D01*
X508458Y417551D01*
X508000D01*
Y421000D01*
X507031D01*
X506837Y421291D01*
X506968Y421608D01*
Y422392D01*
X506669Y423115D01*
X506285Y423499D01*
X506400Y423849D01*
X506886D01*
Y429903D01*
X519836D01*
X523336Y426403D01*
D02*
G37*
G36*
X522796Y416835D02*
Y404651D01*
X522114D01*
Y397349D01*
X522796D01*
Y394952D01*
X522796Y394952D01*
X522887Y394492D01*
X523148Y394101D01*
X523336Y393913D01*
X523202Y393590D01*
X522114D01*
Y392780D01*
X518576D01*
X518326Y393031D01*
X517462Y393529D01*
X516499Y393787D01*
X515501D01*
X514538Y393529D01*
X513674Y393031D01*
X513423Y392780D01*
X508000D01*
Y409046D01*
X508350Y409282D01*
X508500Y409252D01*
Y411228D01*
X510500D01*
Y409252D01*
X510823Y409316D01*
X511235Y409592D01*
X511510Y410004D01*
X511607Y410490D01*
Y411967D01*
X511722Y412106D01*
X513538D01*
X513674Y411969D01*
X514538Y411471D01*
X515208Y411291D01*
Y410929D01*
X514456Y410727D01*
X513544Y410201D01*
X512799Y409456D01*
X512273Y408544D01*
X512127Y408000D01*
X516000D01*
X519873D01*
X519727Y408544D01*
X519201Y409456D01*
X518456Y410201D01*
X517544Y410727D01*
X516792Y410929D01*
Y411291D01*
X517462Y411471D01*
X518326Y411969D01*
X519031Y412675D01*
X519529Y413538D01*
X519708Y414205D01*
X522472Y416969D01*
X522796Y416835D01*
D02*
G37*
G36*
X522114Y386287D02*
X523301D01*
X523434Y385964D01*
X523148Y385678D01*
X522887Y385287D01*
X522796Y384826D01*
X522796Y384826D01*
Y372162D01*
X522114D01*
Y364859D01*
X522918D01*
Y362340D01*
X522918Y362340D01*
X523010Y361879D01*
X523271Y361489D01*
X523336Y361423D01*
X523202Y361100D01*
X522114D01*
Y360280D01*
X518576D01*
X518326Y360531D01*
X517462Y361029D01*
X516499Y361287D01*
X515501D01*
X514538Y361029D01*
X513674Y360531D01*
X513423Y360280D01*
X508000D01*
Y383546D01*
X508350Y383782D01*
X508500Y383752D01*
Y385728D01*
X509500D01*
Y386728D01*
X511555D01*
X511527Y386870D01*
X511721Y387220D01*
X513423D01*
X513674Y386969D01*
X514538Y386471D01*
X515208Y386291D01*
Y385929D01*
X514456Y385727D01*
X513544Y385201D01*
X512799Y384456D01*
X512273Y383544D01*
X512127Y383000D01*
X516000D01*
X519873D01*
X519727Y383544D01*
X519201Y384456D01*
X518456Y385201D01*
X517544Y385727D01*
X516792Y385929D01*
Y386291D01*
X517462Y386471D01*
X518326Y386969D01*
X518576Y387220D01*
X522114D01*
Y386287D01*
D02*
G37*
G36*
Y353797D02*
X523301D01*
X523434Y353474D01*
X523148Y353188D01*
X522887Y352797D01*
X522796Y352336D01*
X522796Y352336D01*
Y339672D01*
X522114D01*
Y332369D01*
X522796D01*
Y329973D01*
X522796Y329973D01*
X522887Y329512D01*
X523148Y329121D01*
X523336Y328934D01*
X523202Y328610D01*
X522114D01*
Y327780D01*
X518576D01*
X518326Y328031D01*
X517462Y328529D01*
X516499Y328787D01*
X515501D01*
X514538Y328529D01*
X513674Y328031D01*
X513423Y327780D01*
X508000D01*
Y351046D01*
X508350Y351282D01*
X508500Y351252D01*
Y353228D01*
X509500D01*
Y354228D01*
X511555D01*
X511527Y354370D01*
X511721Y354720D01*
X513423D01*
X513674Y354469D01*
X514538Y353971D01*
X515208Y353791D01*
Y353429D01*
X514456Y353227D01*
X513544Y352701D01*
X512799Y351956D01*
X512273Y351044D01*
X512127Y350500D01*
X516000D01*
X519873D01*
X519727Y351044D01*
X519201Y351956D01*
X518456Y352701D01*
X517544Y353227D01*
X516792Y353429D01*
Y353791D01*
X517462Y353971D01*
X518326Y354469D01*
X518576Y354720D01*
X522114D01*
Y353797D01*
D02*
G37*
G36*
X434500Y449110D02*
X423153D01*
Y436299D01*
Y423488D01*
X434500D01*
Y397500D01*
X434887D01*
X434932Y397432D01*
X435193Y397258D01*
X435500Y397197D01*
X447500D01*
Y324454D01*
X447396Y324385D01*
X446613D01*
X445890Y324085D01*
X445336Y323532D01*
X445036Y322808D01*
X444704Y322852D01*
Y331031D01*
X444892D01*
X445615Y331331D01*
X446169Y331885D01*
X446468Y332608D01*
Y333392D01*
X446169Y334115D01*
X445615Y334669D01*
X444892Y334968D01*
X444108D01*
X443385Y334669D01*
X442831Y334115D01*
X442531Y333392D01*
X442204Y333447D01*
Y340032D01*
X442392D01*
X443115Y340331D01*
X443669Y340885D01*
X443968Y341608D01*
Y342392D01*
X443669Y343115D01*
X443115Y343669D01*
X442392Y343969D01*
X441608D01*
X440885Y343669D01*
X440331Y343115D01*
X440031Y342392D01*
Y341608D01*
X440045Y341576D01*
X439887Y341340D01*
X439796Y340880D01*
X439796Y340879D01*
Y319999D01*
X423501Y303704D01*
X408317D01*
X408211Y304054D01*
X408352Y304149D01*
X421852Y317649D01*
X422202Y317504D01*
Y316938D01*
X422502Y316215D01*
X423055Y315661D01*
X423779Y315361D01*
X424436D01*
X426257Y313540D01*
X425831Y313115D01*
X425531Y312392D01*
Y311608D01*
X425831Y310885D01*
X426385Y310331D01*
X427108Y310032D01*
X427892D01*
X428615Y310331D01*
X429169Y310885D01*
X429468Y311608D01*
Y312392D01*
X429169Y313115D01*
X428704Y313580D01*
Y314000D01*
X428704Y314000D01*
X428613Y314461D01*
X428351Y314851D01*
X426139Y317064D01*
Y317721D01*
X426076Y317873D01*
X427999Y319796D01*
X429010D01*
X429017Y319760D01*
X429245Y319418D01*
X429587Y319190D01*
X429990Y319110D01*
X431466D01*
X431870Y319190D01*
X432212Y319418D01*
X432533D01*
X432635Y319265D01*
X433047Y318990D01*
X433272Y318945D01*
Y321000D01*
Y323055D01*
X433047Y323010D01*
X432635Y322735D01*
X432533Y322582D01*
X432212D01*
X432185Y322599D01*
X432151Y322948D01*
X434351Y325149D01*
X434613Y325539D01*
X434704Y326000D01*
X434704Y326000D01*
Y347001D01*
X438735Y351031D01*
X439392D01*
X440115Y351331D01*
X440669Y351885D01*
X440969Y352608D01*
Y353392D01*
X440669Y354115D01*
X440115Y354669D01*
X439392Y354969D01*
X438608D01*
X437885Y354669D01*
X437331Y354115D01*
X437032Y353392D01*
Y352734D01*
X432649Y348352D01*
X432387Y347961D01*
X432296Y347500D01*
X432296Y347500D01*
Y326499D01*
X430265Y324468D01*
X429399D01*
X428938Y324376D01*
X428681Y324204D01*
X425500D01*
X425039Y324113D01*
X424649Y323851D01*
X424648Y323851D01*
X423863Y323066D01*
X423539Y323200D01*
Y323321D01*
X423240Y324044D01*
X422686Y324598D01*
X422057Y324859D01*
X421924Y325221D01*
X430535Y333832D01*
X430796Y334222D01*
X430887Y334683D01*
X430887Y334683D01*
Y350684D01*
X445352Y365148D01*
X445352Y365148D01*
X445613Y365539D01*
X445704Y366000D01*
Y366920D01*
X446169Y367385D01*
X446468Y368108D01*
Y368892D01*
X446169Y369615D01*
X445615Y370169D01*
X444892Y370468D01*
X444108D01*
X443385Y370169D01*
X442831Y369615D01*
X442531Y368892D01*
Y368108D01*
X442831Y367385D01*
X443296Y366920D01*
Y366499D01*
X428831Y352035D01*
X428571Y351644D01*
X428479Y351183D01*
X428479Y351183D01*
Y335182D01*
X427528Y334231D01*
X427204Y334365D01*
Y370501D01*
X435235Y378532D01*
X435892D01*
X436615Y378831D01*
X437169Y379385D01*
X437468Y380108D01*
Y380892D01*
X437169Y381615D01*
X436615Y382169D01*
X435892Y382469D01*
X435108D01*
X434385Y382169D01*
X433831Y381615D01*
X433532Y380892D01*
Y380235D01*
X425953Y372656D01*
X425629Y372790D01*
Y387346D01*
X426169Y387885D01*
X426469Y388608D01*
Y389392D01*
X426169Y390115D01*
X425615Y390669D01*
X424892Y390968D01*
X424108D01*
X423385Y390669D01*
X422831Y390115D01*
X422532Y389392D01*
Y388608D01*
X422831Y387885D01*
X423221Y387495D01*
Y334924D01*
X405501Y317204D01*
X381080D01*
X380615Y317669D01*
X379892Y317969D01*
X379108D01*
X378385Y317669D01*
X377831Y317115D01*
X377532Y316392D01*
Y315608D01*
X377831Y314885D01*
X378385Y314331D01*
X379108Y314032D01*
X379892D01*
X380615Y314331D01*
X381080Y314796D01*
X382554D01*
X382608Y314469D01*
X381885Y314169D01*
X381331Y313615D01*
X381031Y312892D01*
Y312108D01*
X381331Y311385D01*
X381885Y310831D01*
X382608Y310531D01*
X383392D01*
X384115Y310831D01*
X384580Y311296D01*
X386517D01*
X386662Y310946D01*
X386331Y310615D01*
X386032Y309892D01*
Y309108D01*
X386331Y308385D01*
X386885Y307831D01*
X387608Y307531D01*
X388392D01*
X388480Y307208D01*
X388385Y307169D01*
X387831Y306615D01*
X387531Y305892D01*
Y305108D01*
X387792Y304479D01*
X387629Y304129D01*
X381654D01*
X381115Y304669D01*
X380392Y304969D01*
X379608D01*
X378885Y304669D01*
X378331Y304115D01*
X378031Y303392D01*
Y302608D01*
X378331Y301885D01*
X378885Y301331D01*
X379608Y301031D01*
X380392D01*
X381115Y301331D01*
X381505Y301721D01*
X386942D01*
X387087Y301371D01*
X386831Y301115D01*
X386531Y300392D01*
Y299608D01*
X386792Y298979D01*
X386629Y298629D01*
X385921D01*
X385740Y298750D01*
X385279Y298842D01*
X385279Y298842D01*
X380914D01*
X380615Y299141D01*
X379892Y299441D01*
X379108D01*
X378385Y299141D01*
X377831Y298587D01*
X377532Y297864D01*
Y297081D01*
X377831Y296357D01*
X378385Y295804D01*
X379108Y295504D01*
X379892D01*
X380615Y295804D01*
X381169Y296357D01*
X381200Y296434D01*
X384850D01*
X385031Y296313D01*
X385492Y296221D01*
X385834D01*
X385968Y295898D01*
X385966Y295896D01*
X385666Y295172D01*
Y294389D01*
X385966Y293666D01*
X386520Y293112D01*
X387243Y292812D01*
X388026D01*
X388750Y293112D01*
X389284Y293646D01*
X428350D01*
X428350Y293646D01*
X428811Y293738D01*
X429202Y293999D01*
X442208Y307005D01*
X442372Y306948D01*
X442531Y306834D01*
Y306235D01*
X428501Y292204D01*
X384943D01*
X384566Y292279D01*
X384566Y292279D01*
X383505D01*
X383115Y292669D01*
X382392Y292969D01*
X381608D01*
X380885Y292669D01*
X380331Y292115D01*
X380031Y291392D01*
Y290608D01*
X380331Y289885D01*
X380885Y289331D01*
X381608Y289032D01*
X382392D01*
X383115Y289331D01*
X383654Y289871D01*
X384265D01*
X384641Y289796D01*
X387517D01*
X387662Y289446D01*
X387331Y289115D01*
X387032Y288392D01*
Y287608D01*
X387331Y286885D01*
X387425Y286791D01*
X387291Y286468D01*
X380816D01*
X380615Y286669D01*
X379892Y286968D01*
X379108D01*
X378385Y286669D01*
X377831Y286115D01*
X377532Y285392D01*
Y284608D01*
X377831Y283885D01*
X378385Y283331D01*
X379108Y283032D01*
X379892D01*
X380615Y283331D01*
X381169Y283885D01*
X381241Y284060D01*
X389037D01*
X389086Y284000D01*
X391228D01*
Y283000D01*
X392228D01*
Y280945D01*
X392453Y280990D01*
X392865Y281265D01*
X392967Y281418D01*
X393288D01*
X393630Y281190D01*
X394034Y281110D01*
X395510D01*
X395913Y281190D01*
X396255Y281418D01*
X396483Y281760D01*
X396490Y281796D01*
X397001D01*
X397532Y281265D01*
Y280608D01*
X397831Y279885D01*
X398385Y279331D01*
X399108Y279031D01*
X399550D01*
X399694Y278681D01*
X396379Y275366D01*
X377161D01*
X376701Y275274D01*
X376310Y275013D01*
X371265Y269969D01*
X370608D01*
X369885Y269669D01*
X369331Y269115D01*
X369032Y268392D01*
Y267608D01*
X369331Y266885D01*
X369885Y266331D01*
X370608Y266032D01*
X371392D01*
X372115Y266331D01*
X372669Y266885D01*
X372969Y267608D01*
Y268265D01*
X377660Y272957D01*
X396878D01*
X396878Y272957D01*
X397338Y273049D01*
X397729Y273310D01*
X403501Y279082D01*
X403501Y279082D01*
X403762Y279473D01*
X403854Y279934D01*
X403854Y279934D01*
Y282850D01*
X403854Y282850D01*
X403762Y283311D01*
X403501Y283702D01*
X403501Y283702D01*
X402039Y285164D01*
Y285817D01*
X401740Y286540D01*
X401186Y287094D01*
X400462Y287394D01*
X399679D01*
X398956Y287094D01*
X398402Y286540D01*
X398102Y285817D01*
Y285034D01*
X398402Y284310D01*
X398956Y283756D01*
X399679Y283457D01*
X400340D01*
X401209Y282588D01*
X401206Y282573D01*
X400818Y282466D01*
X400615Y282669D01*
X399892Y282968D01*
X399235D01*
X398352Y283852D01*
X397961Y284113D01*
X397500Y284204D01*
X397500Y284204D01*
X396490D01*
X396483Y284240D01*
X396255Y284582D01*
X395913Y284810D01*
X395510Y284890D01*
X394683D01*
X393458Y286115D01*
X393067Y286376D01*
X392606Y286468D01*
X392606Y286468D01*
X390709D01*
X390575Y286791D01*
X390669Y286885D01*
X390968Y287608D01*
Y287796D01*
X412829D01*
X412868Y287724D01*
X412980Y287446D01*
X412945Y287272D01*
X415000D01*
Y285272D01*
X412945D01*
X412990Y285047D01*
X413265Y284635D01*
X413418Y284533D01*
Y284212D01*
X413232Y283933D01*
X411728D01*
X411728Y283933D01*
X411268Y283841D01*
X410877Y283580D01*
X410877Y283580D01*
X410265Y282968D01*
X409608D01*
X408885Y282669D01*
X408331Y282115D01*
X408032Y281392D01*
Y280608D01*
X408331Y279885D01*
X408885Y279331D01*
X409608Y279031D01*
X410392D01*
X411115Y279331D01*
X411669Y279885D01*
X411969Y280608D01*
Y281265D01*
X412227Y281524D01*
X413232D01*
X413418Y281245D01*
X413760Y281017D01*
X414163Y280937D01*
X415837D01*
X416240Y281017D01*
X416582Y281245D01*
X416768Y281524D01*
X417732D01*
X417918Y281245D01*
X418260Y281017D01*
X418663Y280937D01*
X420337D01*
X420740Y281017D01*
X421082Y281245D01*
X421310Y281587D01*
X421390Y281990D01*
Y283467D01*
X421310Y283870D01*
X421082Y284212D01*
Y284533D01*
X421235Y284635D01*
X421510Y285047D01*
X421555Y285272D01*
X419500D01*
Y287272D01*
X421555D01*
X421520Y287446D01*
X421632Y287724D01*
X421671Y287796D01*
X436000D01*
X436000Y287796D01*
X436461Y287887D01*
X436852Y288148D01*
X440951Y292248D01*
X440951Y292248D01*
X441212Y292638D01*
X441304Y293099D01*
Y293101D01*
X445235Y297031D01*
X445892D01*
X446615Y297331D01*
X447150Y297866D01*
X447243Y297859D01*
X447500Y297770D01*
Y163160D01*
X447177Y163026D01*
X445204Y164999D01*
Y226420D01*
X445669Y226885D01*
X445968Y227608D01*
Y228392D01*
X445669Y229115D01*
X445204Y229580D01*
Y234000D01*
X445113Y234461D01*
X444851Y234852D01*
X442969Y236735D01*
Y237392D01*
X442669Y238115D01*
X442115Y238669D01*
X441954Y238735D01*
Y249670D01*
X442169Y249885D01*
X442469Y250608D01*
Y251392D01*
X442169Y252115D01*
X441704Y252580D01*
Y268500D01*
X441613Y268961D01*
X441352Y269352D01*
X441352Y269352D01*
X431968Y278735D01*
Y279392D01*
X431669Y280115D01*
X431115Y280669D01*
X430392Y280968D01*
X429608D01*
X428885Y280669D01*
X428331Y280115D01*
X428031Y279392D01*
Y278608D01*
X428331Y277885D01*
X428885Y277331D01*
X429608Y277031D01*
X430265D01*
X439296Y268001D01*
Y259067D01*
X437945D01*
Y256000D01*
Y252933D01*
X439296D01*
Y252580D01*
X438831Y252115D01*
X438531Y251392D01*
Y250608D01*
X438831Y249885D01*
X439385Y249331D01*
X439546Y249265D01*
Y238330D01*
X439331Y238115D01*
X439032Y237392D01*
Y236608D01*
X439331Y235885D01*
X439885Y235331D01*
X440608Y235032D01*
X441265D01*
X442796Y233501D01*
Y229580D01*
X442420Y229204D01*
X423499D01*
X419969Y232735D01*
Y233392D01*
X419669Y234115D01*
X419204Y234580D01*
Y239074D01*
X419113Y239535D01*
X418877Y239887D01*
X418968Y240108D01*
Y240892D01*
X418669Y241615D01*
X418115Y242169D01*
X417392Y242469D01*
X416608D01*
X415885Y242169D01*
X415420Y241704D01*
X412499D01*
X411463Y242740D01*
Y243397D01*
X411163Y244121D01*
X410609Y244674D01*
X409886Y244974D01*
X409103D01*
X408379Y244674D01*
X407915Y244210D01*
X401493D01*
X398085Y247618D01*
X398219Y247941D01*
X402665D01*
Y251713D01*
X400838D01*
X400591Y252063D01*
X400643Y252327D01*
X400552Y252788D01*
X400290Y253178D01*
X399900Y253439D01*
X399439Y253531D01*
X398597D01*
X394501Y257627D01*
Y259203D01*
X394501Y259203D01*
X394410Y259664D01*
X394149Y260054D01*
X394149Y260054D01*
X392969Y261235D01*
Y261892D01*
X392669Y262615D01*
X392115Y263169D01*
X391392Y263469D01*
X390608D01*
X389885Y263169D01*
X389420Y262704D01*
X388807D01*
Y264354D01*
X385452D01*
X385318Y264678D01*
X385786Y265146D01*
X388807D01*
Y266796D01*
X389420D01*
X389885Y266331D01*
X390608Y266032D01*
X391392D01*
X392115Y266331D01*
X392669Y266885D01*
X392969Y267608D01*
Y268392D01*
X392669Y269115D01*
X392115Y269669D01*
X391392Y269969D01*
X390608D01*
X389885Y269669D01*
X389420Y269204D01*
X388807D01*
Y270854D01*
X384083D01*
Y266849D01*
X382480Y265246D01*
X382130Y265391D01*
Y267000D01*
X380555D01*
Y264933D01*
X381350D01*
X381548Y264583D01*
X381539Y264567D01*
X380555D01*
Y261500D01*
Y258433D01*
X381809D01*
X381887Y258039D01*
X382149Y257648D01*
X385357Y254440D01*
Y251713D01*
X383335D01*
Y247941D01*
X385200D01*
X385334Y247618D01*
X385331Y247615D01*
X385032Y246892D01*
Y246108D01*
X385331Y245385D01*
X385796Y244920D01*
Y241080D01*
X385331Y240615D01*
X385032Y239892D01*
Y239108D01*
X385123Y238887D01*
X384887Y238535D01*
X384796Y238074D01*
X384796Y238074D01*
Y235032D01*
X384331Y234568D01*
X384032Y233844D01*
Y233061D01*
X384331Y232338D01*
X384885Y231784D01*
X385608Y231484D01*
X386392D01*
X387115Y231784D01*
X387669Y232338D01*
X387968Y233061D01*
Y233844D01*
X387669Y234568D01*
X387204Y235032D01*
Y237531D01*
X387392D01*
X388115Y237831D01*
X388669Y238385D01*
X388968Y239108D01*
Y239892D01*
X388669Y240615D01*
X388204Y241080D01*
Y244920D01*
X388642Y245358D01*
X389003Y245430D01*
X389394Y245691D01*
X393000Y249297D01*
X400143Y242154D01*
X400533Y241893D01*
X400994Y241801D01*
X400994Y241802D01*
X407915D01*
X408379Y241337D01*
X409103Y241037D01*
X409760D01*
X411148Y239649D01*
X411149Y239649D01*
X411539Y239387D01*
X412000Y239296D01*
X415420D01*
X415885Y238831D01*
X416608Y238531D01*
X416796D01*
Y234580D01*
X416331Y234115D01*
X416032Y233392D01*
Y232608D01*
X416331Y231885D01*
X416885Y231331D01*
X417608Y231031D01*
X418265D01*
X422148Y227149D01*
X422149Y227149D01*
X422539Y226887D01*
X423000Y226796D01*
X423000Y226796D01*
X442420D01*
X442796Y226420D01*
Y164500D01*
X442796Y164500D01*
X442887Y164039D01*
X443149Y163648D01*
X447500Y159297D01*
Y142500D01*
X447499Y141744D01*
X314212D01*
X314204Y454048D01*
X314452Y454296D01*
X434500D01*
Y449110D01*
D02*
G37*
G36*
X522114Y321307D02*
X523301D01*
X523434Y320984D01*
X523148Y320698D01*
X522887Y320307D01*
X522796Y319847D01*
X522796Y319847D01*
Y307182D01*
X522114D01*
Y299880D01*
X522796D01*
Y299000D01*
X522796Y299000D01*
X522887Y298539D01*
X523148Y298148D01*
X524826Y296470D01*
X524682Y296121D01*
X522114D01*
Y295280D01*
X518576D01*
X518326Y295531D01*
X517462Y296029D01*
X516499Y296287D01*
X515501D01*
X514538Y296029D01*
X513674Y295531D01*
X513423Y295280D01*
X508000D01*
Y318546D01*
X508350Y318782D01*
X508500Y318752D01*
Y320728D01*
X509500D01*
Y321728D01*
X511555D01*
X511527Y321870D01*
X511721Y322220D01*
X513423D01*
X513674Y321969D01*
X514538Y321471D01*
X515208Y321291D01*
Y320929D01*
X514456Y320727D01*
X513544Y320201D01*
X512799Y319456D01*
X512273Y318544D01*
X512127Y318000D01*
X516000D01*
X519873D01*
X519727Y318544D01*
X519201Y319456D01*
X518456Y320201D01*
X517544Y320727D01*
X516792Y320929D01*
Y321291D01*
X517462Y321471D01*
X518326Y321969D01*
X518576Y322220D01*
X522114D01*
Y321307D01*
D02*
G37*
G36*
X419641Y322443D02*
X419902Y321814D01*
X420456Y321260D01*
X421179Y320961D01*
X421301D01*
X421434Y320637D01*
X407001Y306204D01*
X399462D01*
X399315Y306351D01*
X398924Y306613D01*
X398463Y306704D01*
X398463Y306704D01*
X391080D01*
X390615Y307169D01*
X389892Y307469D01*
X389108D01*
X389020Y307792D01*
X389115Y307831D01*
X389580Y308296D01*
X404500D01*
X404500Y308296D01*
X404961Y308387D01*
X405351Y308648D01*
X419279Y322576D01*
X419641Y322443D01*
D02*
G37*
G36*
X447500Y318613D02*
Y300230D01*
X447243Y300141D01*
X447150Y300134D01*
X446615Y300669D01*
X445892Y300969D01*
X445108D01*
X444385Y300669D01*
X443831Y300115D01*
X443532Y299392D01*
Y298734D01*
X439248Y294451D01*
X438987Y294060D01*
X438895Y293599D01*
X438895Y293599D01*
Y293598D01*
X435501Y290204D01*
X430365D01*
X430231Y290528D01*
X444235Y304532D01*
X444892D01*
X445615Y304831D01*
X446169Y305385D01*
X446468Y306108D01*
Y306892D01*
X446169Y307615D01*
X445615Y308169D01*
X444892Y308469D01*
X444167D01*
X444053Y308628D01*
X443995Y308792D01*
X445352Y310149D01*
X445352Y310149D01*
X445613Y310539D01*
X445704Y311000D01*
Y312420D01*
X446169Y312885D01*
X446468Y313608D01*
Y314392D01*
X446169Y315115D01*
X445615Y315669D01*
X444892Y315968D01*
X444856D01*
X444722Y316292D01*
X447177Y318746D01*
X447500Y318613D01*
D02*
G37*
G36*
X442531Y313644D02*
Y313608D01*
X442831Y312885D01*
X443296Y312420D01*
Y311499D01*
X427852Y296055D01*
X424857D01*
X424751Y296405D01*
X425004Y296574D01*
X442208Y313778D01*
X442531Y313644D01*
D02*
G37*
G36*
X522114Y288818D02*
X523301D01*
X523434Y288494D01*
X523148Y288208D01*
X522887Y287818D01*
X522796Y287357D01*
X522796Y287357D01*
Y274693D01*
X522114D01*
Y267390D01*
X522796D01*
Y264994D01*
X522796Y264994D01*
X522887Y264533D01*
X523148Y264142D01*
X523336Y263954D01*
X523202Y263631D01*
X522114D01*
Y262780D01*
X518576D01*
X518326Y263031D01*
X517462Y263529D01*
X516499Y263787D01*
X515501D01*
X514538Y263529D01*
X513674Y263031D01*
X513423Y262780D01*
X508000D01*
Y286046D01*
X508350Y286282D01*
X508500Y286252D01*
Y288228D01*
X509500D01*
Y289228D01*
X511555D01*
X511527Y289370D01*
X511721Y289720D01*
X513423D01*
X513674Y289469D01*
X514538Y288971D01*
X515208Y288791D01*
Y288429D01*
X514456Y288227D01*
X513544Y287701D01*
X512799Y286956D01*
X512273Y286044D01*
X512127Y285500D01*
X516000D01*
X519873D01*
X519727Y286044D01*
X519201Y286956D01*
X518456Y287701D01*
X517544Y288227D01*
X516792Y288429D01*
Y288791D01*
X517462Y288971D01*
X518326Y289469D01*
X518576Y289720D01*
X522114D01*
Y288818D01*
D02*
G37*
G36*
Y256328D02*
X523301D01*
X523434Y256005D01*
X523148Y255719D01*
X522887Y255328D01*
X522796Y254867D01*
X522796Y254867D01*
Y242203D01*
X522114D01*
Y237963D01*
X522091Y237847D01*
X522114Y237730D01*
Y234900D01*
X522796D01*
Y233500D01*
X522796Y233500D01*
X522887Y233039D01*
X523148Y232648D01*
X524333Y231464D01*
X524199Y231141D01*
X522114D01*
Y230280D01*
X518576D01*
X518326Y230531D01*
X517462Y231029D01*
X516499Y231287D01*
X515501D01*
X514538Y231029D01*
X513674Y230531D01*
X513423Y230280D01*
X508000D01*
Y253546D01*
X508350Y253782D01*
X508500Y253752D01*
Y255728D01*
X509500D01*
Y256728D01*
X511555D01*
X511527Y256870D01*
X511721Y257220D01*
X513423D01*
X513674Y256969D01*
X514538Y256471D01*
X515208Y256291D01*
Y255929D01*
X514456Y255727D01*
X513544Y255201D01*
X512799Y254456D01*
X512273Y253544D01*
X512127Y253000D01*
X516000D01*
X519873D01*
X519727Y253544D01*
X519201Y254456D01*
X518456Y255201D01*
X517544Y255727D01*
X516792Y255929D01*
Y256291D01*
X517462Y256471D01*
X518326Y256969D01*
X518576Y257220D01*
X522114D01*
Y256328D01*
D02*
G37*
G36*
X389885Y259831D02*
X390608Y259531D01*
X391265D01*
X392093Y258704D01*
Y257128D01*
X392093Y257128D01*
X392185Y256667D01*
X392446Y256276D01*
X396686Y252036D01*
X396552Y251713D01*
X396213D01*
Y249948D01*
X395889Y249814D01*
X394213Y251490D01*
X394468Y252108D01*
Y252892D01*
X394169Y253615D01*
X393615Y254169D01*
X392892Y254468D01*
X392108D01*
X391385Y254169D01*
X390831Y253615D01*
X390531Y252892D01*
Y252108D01*
X390831Y251385D01*
X391256Y250960D01*
X390111Y249814D01*
X389787Y249948D01*
Y251713D01*
X387765D01*
Y254939D01*
X387765Y254939D01*
X387674Y255400D01*
X387413Y255790D01*
X387413Y255790D01*
X384881Y258322D01*
X385015Y258646D01*
X388807D01*
Y260296D01*
X389420D01*
X389885Y259831D01*
D02*
G37*
G36*
X522114Y223838D02*
X523301D01*
X523434Y223515D01*
X523148Y223229D01*
X522887Y222838D01*
X522796Y222377D01*
X522796Y222377D01*
Y209713D01*
X522114D01*
Y202410D01*
X522796D01*
Y200014D01*
X522796Y200014D01*
X522887Y199553D01*
X523148Y199163D01*
X523336Y198975D01*
X523202Y198651D01*
X522114D01*
Y197780D01*
X517894D01*
X517462Y198029D01*
X516499Y198287D01*
X515501D01*
X514538Y198029D01*
X514106Y197780D01*
X508000D01*
Y221046D01*
X508350Y221282D01*
X508500Y221252D01*
Y223228D01*
X509500D01*
Y224228D01*
X511555D01*
X511527Y224370D01*
X511721Y224720D01*
X513423D01*
X513674Y224469D01*
X514538Y223971D01*
X515208Y223791D01*
Y223429D01*
X514456Y223227D01*
X513544Y222701D01*
X512799Y221956D01*
X512273Y221044D01*
X512127Y220500D01*
X516000D01*
X519873D01*
X519727Y221044D01*
X519201Y221956D01*
X518456Y222701D01*
X517544Y223227D01*
X516792Y223429D01*
Y223791D01*
X517462Y223971D01*
X518326Y224469D01*
X518576Y224720D01*
X522114D01*
Y223838D01*
D02*
G37*
G36*
Y191349D02*
X523301D01*
X523434Y191025D01*
X523148Y190739D01*
X522887Y190349D01*
X522796Y189888D01*
X522796Y189888D01*
Y177223D01*
X522135D01*
X521507Y177851D01*
X521116Y178113D01*
X520655Y178204D01*
X520655Y178204D01*
X500558D01*
X500558Y178204D01*
X500097Y178113D01*
X499706Y177851D01*
X499706Y177851D01*
X495138Y173283D01*
X494886Y173079D01*
Y173079D01*
X494886Y173079D01*
X491114D01*
Y171780D01*
X485780D01*
Y181000D01*
X504500D01*
X504697Y181197D01*
X506500D01*
X506807Y181258D01*
X507068Y181432D01*
X507242Y181693D01*
X507303Y182000D01*
Y183803D01*
X508000Y184500D01*
Y188546D01*
X508350Y188782D01*
X508500Y188752D01*
Y190728D01*
X509500D01*
Y191728D01*
X511555D01*
X511527Y191870D01*
X511721Y192220D01*
X512943D01*
X512969Y192174D01*
X513674Y191469D01*
X514538Y190971D01*
X515208Y190791D01*
Y190429D01*
X514456Y190227D01*
X513544Y189701D01*
X512799Y188956D01*
X512273Y188044D01*
X512127Y187500D01*
X516000D01*
X519873D01*
X519727Y188044D01*
X519201Y188956D01*
X518456Y189701D01*
X517544Y190227D01*
X516792Y190429D01*
Y190791D01*
X517462Y190971D01*
X518326Y191469D01*
X519031Y192174D01*
X519057Y192220D01*
X522114D01*
Y191349D01*
D02*
G37*
G36*
X474500Y449511D02*
X474490Y449496D01*
X474393Y449010D01*
Y447534D01*
X474490Y447047D01*
X474500Y447032D01*
Y420000D01*
X506500D01*
Y182000D01*
X448500D01*
Y321128D01*
X448673Y321302D01*
X448973Y322025D01*
Y322808D01*
X448673Y323532D01*
X448500Y323705D01*
Y398000D01*
X435500D01*
Y454296D01*
X474500D01*
Y449511D01*
D02*
G37*
G36*
X537878Y159420D02*
X537703Y159116D01*
X537606Y159142D01*
X536583D01*
X535594Y158877D01*
X534708Y158365D01*
X534099Y157757D01*
X533687Y157770D01*
X533141Y158716D01*
X532091Y159766D01*
X530806Y160508D01*
X529372Y160892D01*
X527888D01*
X526454Y160508D01*
X525169Y159766D01*
X524119Y158716D01*
X523377Y157431D01*
X522993Y155997D01*
Y154513D01*
X523377Y153079D01*
X524119Y151793D01*
X525169Y150744D01*
X526114Y150198D01*
X526225Y149730D01*
X526187Y149673D01*
X524612D01*
X510840Y163446D01*
X510985Y163796D01*
X533501D01*
X537878Y159420D01*
D02*
G37*
G36*
X473061Y149619D02*
X473452Y149358D01*
X473912Y149266D01*
X473912Y149266D01*
X491114D01*
Y145597D01*
X486106D01*
X485468Y146235D01*
Y146892D01*
X485169Y147615D01*
X484615Y148169D01*
X483892Y148468D01*
X483108D01*
X482385Y148169D01*
X481831Y147615D01*
X481531Y146892D01*
Y146108D01*
X481831Y145385D01*
X482385Y144831D01*
X482438Y144809D01*
X482369Y144459D01*
X481244D01*
X479468Y146235D01*
Y146892D01*
X479169Y147615D01*
X478615Y148169D01*
X477892Y148468D01*
X477108D01*
X476385Y148169D01*
X475831Y147615D01*
X475531Y146892D01*
Y146108D01*
X475831Y145385D01*
X476385Y144831D01*
X477108Y144532D01*
X477765D01*
X479893Y142403D01*
X479893Y142403D01*
X480284Y142142D01*
X480529Y142094D01*
X480495Y141744D01*
X448500D01*
Y158796D01*
X448500Y158796D01*
X448500Y158796D01*
X457625D01*
X457695Y158446D01*
X456542Y157968D01*
X455347Y157170D01*
X454330Y156153D01*
X453532Y154957D01*
X452981Y153629D01*
X452757Y152500D01*
X467243D01*
X467019Y153629D01*
X466468Y154957D01*
X465670Y156153D01*
X464653Y157170D01*
X463457Y157968D01*
X462305Y158446D01*
X462375Y158796D01*
X463884D01*
X473061Y149619D01*
D02*
G37*
G36*
X473720Y169272D02*
X473815Y168552D01*
X474093Y167882D01*
X474535Y167306D01*
X474661Y167209D01*
X474490Y166953D01*
X474445Y166728D01*
X475438D01*
X475780Y166586D01*
X476500Y166492D01*
X477219Y166586D01*
X477562Y166728D01*
X478555D01*
X478510Y166953D01*
X478339Y167209D01*
X478466Y167306D01*
X478907Y167882D01*
X478973Y168042D01*
X479342Y168017D01*
X479471Y167538D01*
X479969Y166674D01*
X480675Y165969D01*
X481538Y165471D01*
X482208Y165291D01*
Y164929D01*
X481456Y164727D01*
X480544Y164201D01*
X479799Y163456D01*
X479273Y162544D01*
X479127Y162000D01*
X483000D01*
X486873D01*
X486727Y162544D01*
X486201Y163456D01*
X485456Y164201D01*
X484544Y164727D01*
X483792Y164929D01*
Y165291D01*
X484462Y165471D01*
X485325Y165969D01*
X485576Y166220D01*
X491114D01*
Y165777D01*
X492202D01*
X492336Y165453D01*
X492148Y165265D01*
X491887Y164875D01*
X491796Y164414D01*
X491796Y164414D01*
Y151674D01*
X474411D01*
X465234Y160852D01*
X464844Y161113D01*
X464383Y161204D01*
X464383Y161204D01*
X462375D01*
X462305Y161554D01*
X463457Y162031D01*
X464653Y162830D01*
X465670Y163847D01*
X466468Y165042D01*
X467019Y166371D01*
X467243Y167500D01*
X452757D01*
X452981Y166371D01*
X453532Y165042D01*
X454330Y163847D01*
X455347Y162830D01*
X456542Y162031D01*
X457695Y161554D01*
X457625Y161204D01*
X448999D01*
X448500Y161703D01*
Y181000D01*
X473720D01*
Y169272D01*
D02*
G37*
%LPC*%
G36*
X502098Y447928D02*
X501000D01*
Y445064D01*
X502098D01*
Y447928D01*
D02*
G37*
G36*
X499000D02*
X497902D01*
Y445064D01*
X499000D01*
Y447928D01*
D02*
G37*
G36*
X573752Y449404D02*
Y440752D01*
X582404D01*
X582042Y442570D01*
X581314Y444328D01*
X580257Y445911D01*
X578911Y447257D01*
X577328Y448314D01*
X575570Y449042D01*
X573752Y449404D01*
D02*
G37*
G36*
X505200Y444564D02*
X498500D01*
Y439214D01*
X505200D01*
Y444564D01*
D02*
G37*
G36*
X496500D02*
X489800D01*
Y439214D01*
X496500D01*
Y444564D01*
D02*
G37*
G36*
X486373Y439500D02*
X483500D01*
Y436627D01*
X484044Y436773D01*
X484956Y437299D01*
X485701Y438044D01*
X486227Y438956D01*
X486373Y439500D01*
D02*
G37*
G36*
X481500D02*
X478627D01*
X478773Y438956D01*
X479299Y438044D01*
X480044Y437299D01*
X480956Y436773D01*
X481500Y436627D01*
Y439500D01*
D02*
G37*
G36*
X582404Y438752D02*
X573752D01*
Y430100D01*
X575570Y430462D01*
X577328Y431190D01*
X578911Y432247D01*
X580257Y433593D01*
X581314Y435176D01*
X582042Y436934D01*
X582404Y438752D01*
D02*
G37*
G36*
X536098Y426292D02*
X535000D01*
Y423428D01*
X536098D01*
Y426292D01*
D02*
G37*
G36*
X533000D02*
X531902D01*
Y423428D01*
X533000D01*
Y426292D01*
D02*
G37*
G36*
X539200Y410714D02*
X532500D01*
Y405364D01*
X539200D01*
Y410714D01*
D02*
G37*
G36*
X540886Y404651D02*
X537114D01*
Y397349D01*
X540886D01*
Y399796D01*
X541420D01*
X541885Y399331D01*
X542608Y399031D01*
X543392D01*
X544115Y399331D01*
X544669Y399885D01*
X544969Y400608D01*
Y401392D01*
X544669Y402115D01*
X544115Y402669D01*
X543392Y402969D01*
X542608D01*
X541885Y402669D01*
X541420Y402204D01*
X540886D01*
Y404651D01*
D02*
G37*
G36*
X535886D02*
X532114D01*
Y397349D01*
X532114D01*
X532192Y397233D01*
X532031Y396846D01*
Y396063D01*
X532331Y395340D01*
X532885Y394786D01*
X533608Y394486D01*
X534392D01*
X535115Y394786D01*
X535669Y395340D01*
X535968Y396063D01*
Y396846D01*
X535809Y397233D01*
X535886Y397349D01*
X535886D01*
Y404651D01*
D02*
G37*
G36*
X530886D02*
X527114D01*
Y397349D01*
X527114D01*
X527191Y397233D01*
X527032Y396846D01*
Y396063D01*
X527331Y395340D01*
X527885Y394786D01*
X528608Y394486D01*
X529392D01*
X530115Y394786D01*
X530669Y395340D01*
X530969Y396063D01*
Y396846D01*
X530808Y397233D01*
X530886Y397349D01*
X530886D01*
Y404651D01*
D02*
G37*
G36*
X536098Y393802D02*
X535000D01*
Y390938D01*
X536098D01*
Y393802D01*
D02*
G37*
G36*
X533000D02*
X531902D01*
Y390938D01*
X533000D01*
Y393802D01*
D02*
G37*
G36*
X539200Y378224D02*
X532500D01*
Y372874D01*
X539200D01*
Y378224D01*
D02*
G37*
G36*
X540886Y372162D02*
X537114D01*
Y364859D01*
X540886D01*
Y367296D01*
X541920D01*
X542385Y366831D01*
X543108Y366531D01*
X543892D01*
X544615Y366831D01*
X545169Y367385D01*
X545469Y368108D01*
Y368892D01*
X545169Y369615D01*
X544615Y370169D01*
X543892Y370468D01*
X543108D01*
X542385Y370169D01*
X541920Y369704D01*
X540886D01*
Y372162D01*
D02*
G37*
G36*
X535886D02*
X532114D01*
Y364859D01*
X532114D01*
X532192Y364743D01*
X532031Y364357D01*
Y363574D01*
X532331Y362850D01*
X532885Y362296D01*
X533608Y361997D01*
X534392D01*
X535115Y362296D01*
X535669Y362850D01*
X535968Y363574D01*
Y364357D01*
X535809Y364743D01*
X535886Y364859D01*
X535886D01*
Y372162D01*
D02*
G37*
G36*
X530886D02*
X527114D01*
Y364859D01*
X527114D01*
X527191Y364743D01*
X527032Y364357D01*
Y363574D01*
X527331Y362850D01*
X527885Y362296D01*
X528608Y361997D01*
X529392D01*
X530115Y362296D01*
X530669Y362850D01*
X530969Y363574D01*
Y364357D01*
X530808Y364743D01*
X530886Y364859D01*
X530886D01*
Y372162D01*
D02*
G37*
G36*
X536098Y361313D02*
X535000D01*
Y358449D01*
X536098D01*
Y361313D01*
D02*
G37*
G36*
X533000D02*
X531902D01*
Y358449D01*
X533000D01*
Y361313D01*
D02*
G37*
G36*
X539200Y345735D02*
X532500D01*
Y340385D01*
X539200D01*
Y345735D01*
D02*
G37*
G36*
X540886Y339672D02*
X537114D01*
Y332369D01*
X540886D01*
Y334796D01*
X541920D01*
X542385Y334331D01*
X543108Y334032D01*
X543892D01*
X544615Y334331D01*
X545169Y334885D01*
X545469Y335608D01*
Y336392D01*
X545169Y337115D01*
X544615Y337669D01*
X543892Y337968D01*
X543108D01*
X542385Y337669D01*
X541920Y337204D01*
X540886D01*
Y339672D01*
D02*
G37*
G36*
X535886D02*
X532114D01*
Y332369D01*
X532114D01*
X532192Y332253D01*
X532031Y331867D01*
Y331084D01*
X532331Y330360D01*
X532885Y329807D01*
X533608Y329507D01*
X534392D01*
X535115Y329807D01*
X535669Y330360D01*
X535968Y331084D01*
Y331867D01*
X535809Y332253D01*
X535886Y332369D01*
X535886D01*
Y339672D01*
D02*
G37*
G36*
X530886D02*
X527114D01*
Y332369D01*
X527114D01*
X527191Y332253D01*
X527032Y331867D01*
Y331084D01*
X527331Y330360D01*
X527885Y329807D01*
X528608Y329507D01*
X529392D01*
X530115Y329807D01*
X530669Y330360D01*
X530969Y331084D01*
Y331867D01*
X530808Y332253D01*
X530886Y332369D01*
X530886D01*
Y339672D01*
D02*
G37*
G36*
X536098Y328823D02*
X535000D01*
Y325959D01*
X536098D01*
Y328823D01*
D02*
G37*
G36*
X533000D02*
X531902D01*
Y325959D01*
X533000D01*
Y328823D01*
D02*
G37*
G36*
X539200Y313245D02*
X532500D01*
Y307895D01*
X539200D01*
Y313245D01*
D02*
G37*
G36*
X540886Y307182D02*
X537114D01*
Y299880D01*
X540886D01*
Y302296D01*
X541920D01*
X542385Y301831D01*
X543108Y301532D01*
X543892D01*
X544615Y301831D01*
X545169Y302385D01*
X545469Y303108D01*
Y303892D01*
X545169Y304615D01*
X544615Y305169D01*
X543892Y305469D01*
X543108D01*
X542385Y305169D01*
X541920Y304704D01*
X540886D01*
Y307182D01*
D02*
G37*
G36*
X535886D02*
X532114D01*
Y299880D01*
X532114D01*
X532192Y299764D01*
X532031Y299377D01*
Y298594D01*
X532331Y297871D01*
X532885Y297317D01*
X533608Y297017D01*
X534392D01*
X535115Y297317D01*
X535669Y297871D01*
X535968Y298594D01*
Y299377D01*
X535809Y299764D01*
X535886Y299880D01*
X535886D01*
Y307182D01*
D02*
G37*
G36*
X530886D02*
X527114D01*
Y299880D01*
X527114D01*
X527191Y299764D01*
X527032Y299377D01*
Y298594D01*
X527331Y297871D01*
X527885Y297317D01*
X528608Y297017D01*
X529392D01*
X530115Y297317D01*
X530669Y297871D01*
X530969Y298594D01*
Y299377D01*
X530808Y299764D01*
X530886Y299880D01*
X530886D01*
Y307182D01*
D02*
G37*
G36*
X536098Y296333D02*
X535000D01*
Y293469D01*
X536098D01*
Y296333D01*
D02*
G37*
G36*
X533000D02*
X531902D01*
Y293469D01*
X533000D01*
Y296333D01*
D02*
G37*
G36*
X539200Y280755D02*
X532500D01*
Y275405D01*
X539200D01*
Y280755D01*
D02*
G37*
G36*
X540886Y274693D02*
X537114D01*
Y267390D01*
X540886D01*
Y269796D01*
X541920D01*
X542385Y269331D01*
X543108Y269032D01*
X543892D01*
X544615Y269331D01*
X545169Y269885D01*
X545469Y270608D01*
Y271392D01*
X545169Y272115D01*
X544615Y272669D01*
X543892Y272969D01*
X543108D01*
X542385Y272669D01*
X541920Y272204D01*
X540886D01*
Y274693D01*
D02*
G37*
G36*
X535886D02*
X532114D01*
Y267390D01*
X532114D01*
X532192Y267274D01*
X532031Y266888D01*
Y266105D01*
X532331Y265381D01*
X532885Y264827D01*
X533608Y264528D01*
X534392D01*
X535115Y264827D01*
X535669Y265381D01*
X535968Y266105D01*
Y266888D01*
X535809Y267274D01*
X535886Y267390D01*
X535886D01*
Y274693D01*
D02*
G37*
G36*
X530886D02*
X527114D01*
Y267390D01*
X527114D01*
X527191Y267274D01*
X527032Y266888D01*
Y266105D01*
X527331Y265381D01*
X527885Y264827D01*
X528608Y264528D01*
X529392D01*
X530115Y264827D01*
X530669Y265381D01*
X530969Y266105D01*
Y266888D01*
X530808Y267274D01*
X530886Y267390D01*
X530886D01*
Y274693D01*
D02*
G37*
G36*
X536098Y263843D02*
X535000D01*
Y260979D01*
X536098D01*
Y263843D01*
D02*
G37*
G36*
X533000D02*
X531902D01*
Y260979D01*
X533000D01*
Y263843D01*
D02*
G37*
G36*
X539200Y248265D02*
X532500D01*
Y242915D01*
X539200D01*
Y248265D01*
D02*
G37*
G36*
X540886Y242203D02*
X537114D01*
Y234900D01*
X540886D01*
Y237296D01*
X541920D01*
X542385Y236831D01*
X543108Y236531D01*
X543892D01*
X544615Y236831D01*
X545169Y237385D01*
X545469Y238108D01*
Y238892D01*
X545169Y239615D01*
X544615Y240169D01*
X543892Y240469D01*
X543108D01*
X542385Y240169D01*
X541920Y239704D01*
X540886D01*
Y242203D01*
D02*
G37*
G36*
X530886D02*
X527114D01*
Y234900D01*
X527114D01*
X527191Y234784D01*
X527032Y234398D01*
Y233615D01*
X527331Y232891D01*
X527885Y232338D01*
X528608Y232038D01*
X529392D01*
X530115Y232338D01*
X530669Y232891D01*
X530969Y233615D01*
Y234398D01*
X530808Y234784D01*
X530886Y234900D01*
X530886D01*
Y242203D01*
D02*
G37*
G36*
X535886D02*
X532114D01*
Y234900D01*
X532114D01*
X532193Y234782D01*
X532031Y234392D01*
Y233608D01*
X532331Y232885D01*
X532885Y232331D01*
X533608Y232031D01*
X534392D01*
X535115Y232331D01*
X535669Y232885D01*
X535968Y233608D01*
Y234392D01*
X535807Y234782D01*
X535886Y234900D01*
X535886D01*
Y242203D01*
D02*
G37*
G36*
X536098Y231354D02*
X535000D01*
Y228490D01*
X536098D01*
Y231354D01*
D02*
G37*
G36*
X533000D02*
X531902D01*
Y228490D01*
X533000D01*
Y231354D01*
D02*
G37*
G36*
X539200Y215776D02*
X532500D01*
Y210426D01*
X539200D01*
Y215776D01*
D02*
G37*
G36*
X540886Y209713D02*
X537114D01*
Y202410D01*
X540886D01*
Y204796D01*
X541920D01*
X542385Y204331D01*
X543108Y204031D01*
X543892D01*
X544615Y204331D01*
X545169Y204885D01*
X545469Y205608D01*
Y206392D01*
X545169Y207115D01*
X544615Y207669D01*
X543892Y207968D01*
X543108D01*
X542385Y207669D01*
X541920Y207204D01*
X540886D01*
Y209713D01*
D02*
G37*
G36*
X535886D02*
X532114D01*
Y202410D01*
X532114D01*
X532215Y202260D01*
X532031Y201817D01*
Y201034D01*
X532331Y200310D01*
X532885Y199756D01*
X533608Y199457D01*
X534392D01*
X535115Y199756D01*
X535669Y200310D01*
X535968Y201034D01*
Y201817D01*
X535785Y202260D01*
X535886Y202410D01*
X535886D01*
Y209713D01*
D02*
G37*
G36*
X530886D02*
X527114D01*
Y202410D01*
X527114D01*
X527215Y202260D01*
X527032Y201817D01*
Y201034D01*
X527331Y200310D01*
X527885Y199756D01*
X528608Y199457D01*
X529392D01*
X530115Y199756D01*
X530669Y200310D01*
X530969Y201034D01*
Y201817D01*
X530785Y202260D01*
X530886Y202410D01*
X530886D01*
Y209713D01*
D02*
G37*
G36*
X536098Y198864D02*
X535000D01*
Y196000D01*
X536098D01*
Y198864D01*
D02*
G37*
G36*
X533000D02*
X531902D01*
Y196000D01*
X533000D01*
Y198864D01*
D02*
G37*
G36*
X539200Y183286D02*
X532500D01*
Y177936D01*
X539200D01*
Y183286D01*
D02*
G37*
G36*
X540886Y177223D02*
X537114D01*
Y169921D01*
X540886D01*
Y172296D01*
X541920D01*
X542385Y171831D01*
X543108Y171531D01*
X543892D01*
X544615Y171831D01*
X545169Y172385D01*
X545469Y173108D01*
Y173892D01*
X545169Y174615D01*
X544615Y175169D01*
X543892Y175469D01*
X543108D01*
X542385Y175169D01*
X541920Y174704D01*
X540886D01*
Y177223D01*
D02*
G37*
G36*
X505098Y173292D02*
X504000D01*
Y170428D01*
X505098D01*
Y173292D01*
D02*
G37*
G36*
X502000D02*
X500902D01*
Y170428D01*
X502000D01*
Y173292D01*
D02*
G37*
G36*
X535886Y177223D02*
X532114D01*
Y169921D01*
X532114D01*
X532198Y169795D01*
X532031Y169392D01*
Y168608D01*
X532331Y167885D01*
X532885Y167331D01*
X533608Y167032D01*
X534392D01*
X535115Y167331D01*
X535669Y167885D01*
X535968Y168608D01*
Y169392D01*
X535802Y169795D01*
X535886Y169921D01*
X535886D01*
Y177223D01*
D02*
G37*
G36*
X530886D02*
X527114D01*
Y169921D01*
X527114D01*
X527198Y169795D01*
X527032Y169392D01*
Y168608D01*
X527331Y167885D01*
X527885Y167331D01*
X528608Y167032D01*
X529392D01*
X530115Y167331D01*
X530669Y167885D01*
X530969Y168608D01*
Y169392D01*
X530802Y169795D01*
X530886Y169921D01*
X530886D01*
Y177223D01*
D02*
G37*
G36*
X573752Y165900D02*
Y157248D01*
X582404D01*
X582042Y159066D01*
X581314Y160824D01*
X580257Y162407D01*
X578911Y163752D01*
X577328Y164810D01*
X575570Y165538D01*
X573752Y165900D01*
D02*
G37*
G36*
X508200Y157714D02*
X501500D01*
Y152364D01*
X508200D01*
Y157714D01*
D02*
G37*
G36*
X582404Y155248D02*
X573752D01*
Y146596D01*
X575570Y146958D01*
X577328Y147686D01*
X578911Y148743D01*
X580257Y150089D01*
X581314Y151672D01*
X582042Y153430D01*
X582404Y155248D01*
D02*
G37*
G36*
X519873Y406000D02*
X517000D01*
Y403127D01*
X517544Y403273D01*
X518456Y403799D01*
X519201Y404544D01*
X519727Y405456D01*
X519873Y406000D01*
D02*
G37*
G36*
X515000D02*
X512127D01*
X512273Y405456D01*
X512799Y404544D01*
X513544Y403799D01*
X514456Y403273D01*
X515000Y403127D01*
Y406000D01*
D02*
G37*
G36*
X511555Y384728D02*
X510500D01*
Y383752D01*
X510823Y383816D01*
X511235Y384092D01*
X511510Y384504D01*
X511555Y384728D01*
D02*
G37*
G36*
X519873Y381000D02*
X517000D01*
Y378127D01*
X517544Y378273D01*
X518456Y378799D01*
X519201Y379544D01*
X519727Y380456D01*
X519873Y381000D01*
D02*
G37*
G36*
X515000D02*
X512127D01*
X512273Y380456D01*
X512799Y379544D01*
X513544Y378799D01*
X514456Y378273D01*
X515000Y378127D01*
Y381000D01*
D02*
G37*
G36*
X511555Y352228D02*
X510500D01*
Y351252D01*
X510823Y351316D01*
X511235Y351592D01*
X511510Y352004D01*
X511555Y352228D01*
D02*
G37*
G36*
X519873Y348500D02*
X517000D01*
Y345627D01*
X517544Y345773D01*
X518456Y346299D01*
X519201Y347044D01*
X519727Y347956D01*
X519873Y348500D01*
D02*
G37*
G36*
X515000D02*
X512127D01*
X512273Y347956D01*
X512799Y347044D01*
X513544Y346299D01*
X514456Y345773D01*
X515000Y345627D01*
Y348500D01*
D02*
G37*
G36*
X383207Y444637D02*
X381722D01*
X380289Y444253D01*
X379003Y443511D01*
X377954Y442461D01*
X377407Y441515D01*
X376995Y441502D01*
X376387Y442111D01*
X375500Y442623D01*
X374512Y442887D01*
X373488D01*
X372499Y442623D01*
X371613Y442111D01*
X370889Y441387D01*
X370377Y440500D01*
X370113Y439512D01*
Y438488D01*
X370377Y437500D01*
X370889Y436613D01*
X371613Y435889D01*
X372296Y435495D01*
Y428492D01*
X361149Y417345D01*
X360887Y416954D01*
X360796Y416493D01*
X360796Y416493D01*
Y388460D01*
X360796Y388460D01*
X360887Y387999D01*
X361149Y387608D01*
X361296Y387461D01*
Y362865D01*
X360972Y362731D01*
X354351Y369352D01*
X353961Y369613D01*
X353500Y369704D01*
X353500Y369704D01*
X330580D01*
X330115Y370169D01*
X329392Y370468D01*
X328608D01*
X327885Y370169D01*
X327331Y369615D01*
X327031Y368892D01*
Y368108D01*
X327331Y367385D01*
X327885Y366831D01*
X328608Y366531D01*
X329392D01*
X330115Y366831D01*
X330580Y367296D01*
X353001D01*
X360531Y359766D01*
Y359235D01*
X326149Y324851D01*
X325887Y324461D01*
X325796Y324000D01*
X325796Y324000D01*
Y318259D01*
X315719Y308182D01*
X315458Y307792D01*
X315367Y307331D01*
X315367Y307331D01*
Y241429D01*
X315367Y241429D01*
X315458Y240968D01*
X315719Y240578D01*
X317423Y238874D01*
X317240Y238558D01*
X316965Y237531D01*
Y236469D01*
X317240Y235442D01*
X317771Y234522D01*
X318522Y233771D01*
X319442Y233240D01*
X320469Y232965D01*
X321531D01*
X322558Y233240D01*
X323478Y233771D01*
X324229Y234522D01*
X324760Y235442D01*
X325035Y236469D01*
Y237531D01*
X324760Y238558D01*
X324229Y239478D01*
X323478Y240229D01*
X322558Y240760D01*
X321531Y241035D01*
X320469D01*
X319442Y240760D01*
X319126Y240578D01*
X317775Y241928D01*
Y243760D01*
X318098Y243894D01*
X318392Y243601D01*
X319360Y243041D01*
X320000Y242870D01*
Y247000D01*
Y251130D01*
X319360Y250958D01*
X318392Y250399D01*
X318098Y250106D01*
X317775Y250240D01*
Y306832D01*
X327852Y316908D01*
X327852Y316908D01*
X328113Y317299D01*
X328204Y317760D01*
X328204Y317760D01*
Y323501D01*
X362235Y357531D01*
X362892D01*
X363615Y357831D01*
X364169Y358385D01*
X364469Y359108D01*
Y359892D01*
X364169Y360615D01*
X363704Y361080D01*
Y387960D01*
X363704Y387960D01*
X363613Y388421D01*
X363351Y388811D01*
X363351Y388811D01*
X363204Y388959D01*
Y415995D01*
X374352Y427142D01*
X374352Y427142D01*
X374613Y427532D01*
X374704Y427993D01*
X374704Y427993D01*
Y435164D01*
X375500Y435378D01*
X376387Y435889D01*
X376995Y436498D01*
X377407Y436484D01*
X377954Y435539D01*
X379003Y434489D01*
X380289Y433747D01*
X381722Y433363D01*
X383207D01*
X384641Y433747D01*
X385926Y434489D01*
X386976Y435539D01*
X387718Y436824D01*
X388102Y438258D01*
Y439742D01*
X387718Y441176D01*
X386976Y442461D01*
X385926Y443511D01*
X384641Y444253D01*
X383207Y444637D01*
D02*
G37*
G36*
X329748Y449404D02*
Y440752D01*
X338400D01*
X338038Y442570D01*
X337310Y444328D01*
X336252Y445911D01*
X334907Y447257D01*
X333324Y448314D01*
X331566Y449042D01*
X329748Y449404D01*
D02*
G37*
G36*
X327748D02*
X325930Y449042D01*
X324172Y448314D01*
X322589Y447257D01*
X321244Y445911D01*
X320186Y444328D01*
X319458Y442570D01*
X319096Y440752D01*
X327748D01*
Y449404D01*
D02*
G37*
G36*
X363189Y442977D02*
Y440000D01*
X366166D01*
X366010Y440583D01*
X365470Y441517D01*
X364706Y442281D01*
X363772Y442821D01*
X363189Y442977D01*
D02*
G37*
G36*
X421153Y449110D02*
X409342D01*
Y437299D01*
X421153D01*
Y449110D01*
D02*
G37*
G36*
X366166Y438000D02*
X363189D01*
Y435023D01*
X363772Y435179D01*
X364706Y435719D01*
X365470Y436482D01*
X366010Y437418D01*
X366166Y438000D01*
D02*
G37*
G36*
X354467Y444637D02*
X352982D01*
X351549Y444253D01*
X350263Y443511D01*
X349213Y442461D01*
X348471Y441176D01*
X348087Y439742D01*
Y438258D01*
X348471Y436824D01*
X349213Y435539D01*
X350263Y434489D01*
X351549Y433747D01*
X352982Y433363D01*
X354467D01*
X355900Y433747D01*
X357186Y434489D01*
X358235Y435539D01*
X358651Y436258D01*
X359083Y436307D01*
X359671Y435719D01*
X360606Y435179D01*
X361189Y435023D01*
Y439000D01*
Y442977D01*
X360606Y442821D01*
X359671Y442281D01*
X359083Y441693D01*
X358651Y441742D01*
X358235Y442461D01*
X357186Y443511D01*
X355900Y444253D01*
X354467Y444637D01*
D02*
G37*
G36*
X338400Y438752D02*
X329748D01*
Y430100D01*
X331566Y430462D01*
X333324Y431190D01*
X334907Y432247D01*
X336252Y433593D01*
X337310Y435176D01*
X338038Y436934D01*
X338400Y438752D01*
D02*
G37*
G36*
X327748D02*
X319096D01*
X319458Y436934D01*
X320186Y435176D01*
X321244Y433593D01*
X322589Y432247D01*
X324172Y431190D01*
X325930Y430462D01*
X327748Y430100D01*
Y438752D01*
D02*
G37*
G36*
X421153Y435299D02*
X409342D01*
Y423488D01*
X421153D01*
Y435299D01*
D02*
G37*
G36*
X427000Y414243D02*
Y408000D01*
X433243D01*
X433019Y409129D01*
X432469Y410458D01*
X431670Y411653D01*
X430653Y412670D01*
X429458Y413469D01*
X428129Y414019D01*
X427000Y414243D01*
D02*
G37*
G36*
X425000D02*
X423871Y414019D01*
X422542Y413469D01*
X421347Y412670D01*
X420330Y411653D01*
X419531Y410458D01*
X418981Y409129D01*
X418757Y408000D01*
X425000D01*
Y414243D01*
D02*
G37*
G36*
X411000D02*
Y408000D01*
X417243D01*
X417019Y409129D01*
X416468Y410458D01*
X415670Y411653D01*
X414653Y412670D01*
X413457Y413469D01*
X412129Y414019D01*
X411000Y414243D01*
D02*
G37*
G36*
X409000D02*
X407871Y414019D01*
X406542Y413469D01*
X405347Y412670D01*
X404330Y411653D01*
X403532Y410458D01*
X402981Y409129D01*
X402757Y408000D01*
X409000D01*
Y414243D01*
D02*
G37*
G36*
X389067Y405520D02*
X387000D01*
Y403945D01*
X389067D01*
Y405520D01*
D02*
G37*
G36*
X385000D02*
X382933D01*
Y403945D01*
X385000D01*
Y405520D01*
D02*
G37*
G36*
X389067Y401945D02*
X387000D01*
Y400370D01*
X389067D01*
Y401945D01*
D02*
G37*
G36*
X385000D02*
X382933D01*
Y400370D01*
X385000D01*
Y401945D01*
D02*
G37*
G36*
X433243Y406000D02*
X427000D01*
Y399757D01*
X428129Y399981D01*
X429458Y400531D01*
X430653Y401330D01*
X431670Y402347D01*
X432469Y403543D01*
X433019Y404871D01*
X433243Y406000D01*
D02*
G37*
G36*
X425000D02*
X418757D01*
X418981Y404871D01*
X419531Y403543D01*
X420330Y402347D01*
X421347Y401330D01*
X422542Y400531D01*
X423871Y399981D01*
X425000Y399757D01*
Y406000D01*
D02*
G37*
G36*
X417243D02*
X411000D01*
Y399757D01*
X412129Y399981D01*
X413457Y400531D01*
X414653Y401330D01*
X415670Y402347D01*
X416468Y403543D01*
X417019Y404871D01*
X417243Y406000D01*
D02*
G37*
G36*
X409000D02*
X402757D01*
X402981Y404871D01*
X403532Y403543D01*
X404330Y402347D01*
X405347Y401330D01*
X406542Y400531D01*
X407871Y399981D01*
X409000Y399757D01*
Y406000D01*
D02*
G37*
G36*
X388854Y398417D02*
X383146D01*
Y397051D01*
X380756D01*
Y398110D01*
X375244D01*
Y393583D01*
X380756D01*
Y394642D01*
X383146D01*
Y393693D01*
X388854D01*
Y394642D01*
X391244D01*
Y393583D01*
X396756D01*
Y398110D01*
X391244D01*
Y397051D01*
X388854D01*
Y398417D01*
D02*
G37*
G36*
X394500Y383342D02*
Y379306D01*
X395688D01*
Y381430D01*
X395521Y382267D01*
X395047Y382977D01*
X394500Y383342D01*
D02*
G37*
G36*
X379500D02*
Y379306D01*
X380688D01*
Y381430D01*
X380521Y382267D01*
X380047Y382977D01*
X379500Y383342D01*
D02*
G37*
G36*
X392500Y383342D02*
X391953Y382977D01*
X391479Y382267D01*
X391312Y381430D01*
Y379306D01*
X392500D01*
Y383342D01*
D02*
G37*
G36*
X377500D02*
X376953Y382977D01*
X376479Y382267D01*
X376312Y381430D01*
Y379306D01*
X377500D01*
Y383342D01*
D02*
G37*
G36*
X396756Y391220D02*
X391244D01*
Y388396D01*
X387649Y384800D01*
X387387Y384410D01*
X387296Y383949D01*
X387296Y383949D01*
Y382950D01*
X387106Y382823D01*
X386679Y382184D01*
X386529Y381430D01*
Y375809D01*
X386433Y375745D01*
X385788Y375100D01*
X385471Y375279D01*
Y381430D01*
X385321Y382184D01*
X384894Y382823D01*
X384704Y382950D01*
Y383949D01*
X384704Y383949D01*
X384613Y384410D01*
X384351Y384800D01*
X384351Y384800D01*
X380756Y388396D01*
Y391220D01*
X375244D01*
Y386693D01*
X379053D01*
X382296Y383450D01*
Y382950D01*
X382106Y382823D01*
X381679Y382184D01*
X381529Y381430D01*
Y375232D01*
X380937Y374640D01*
X380615Y374813D01*
X380688Y375181D01*
Y377306D01*
X378500D01*
X376312D01*
Y375181D01*
X376479Y374344D01*
X376953Y373634D01*
X377663Y373160D01*
X378500Y372993D01*
X378869Y373067D01*
X379041Y372744D01*
X361045Y354748D01*
X360784Y354357D01*
X360692Y353896D01*
X360692Y353896D01*
Y275316D01*
X360342Y275171D01*
X360000Y275513D01*
X359276Y275813D01*
X358493D01*
X357770Y275513D01*
X357216Y274959D01*
X357193Y274903D01*
X356699D01*
X356542Y274872D01*
X356291Y275179D01*
X356469Y275608D01*
Y276392D01*
X356169Y277115D01*
X355615Y277669D01*
X354892Y277969D01*
X354108D01*
X353385Y277669D01*
X352920Y277204D01*
X352500D01*
X352213Y277147D01*
X351925Y277204D01*
X351464Y277113D01*
X351074Y276852D01*
X336374Y262152D01*
X336113Y261761D01*
X336021Y261300D01*
X336021Y261300D01*
Y243724D01*
X332874Y240578D01*
X332558Y240760D01*
X331531Y241035D01*
X330469D01*
X329442Y240760D01*
X328522Y240229D01*
X327771Y239478D01*
X327240Y238558D01*
X326965Y237531D01*
Y236469D01*
X327240Y235442D01*
X327771Y234522D01*
X328522Y233771D01*
X329442Y233240D01*
X330469Y232965D01*
X331531D01*
X332558Y233240D01*
X333478Y233771D01*
X334229Y234522D01*
X334760Y235442D01*
X335035Y236469D01*
Y237531D01*
X334760Y238558D01*
X334577Y238874D01*
X336835Y241132D01*
X337158Y240998D01*
Y234861D01*
X333254Y230957D01*
X332624Y231083D01*
X329376D01*
X328435Y230895D01*
X327637Y230363D01*
X327104Y229565D01*
X326917Y228624D01*
Y225376D01*
X327104Y224435D01*
X327637Y223637D01*
X328435Y223105D01*
X329376Y222917D01*
X332219D01*
X332364Y222567D01*
X320148Y210351D01*
X319887Y209961D01*
X319796Y209500D01*
X319796Y209500D01*
Y205000D01*
X319796Y205000D01*
X319887Y204539D01*
X320148Y204149D01*
X323869Y200428D01*
X323790Y200309D01*
X323602Y199368D01*
Y196120D01*
X323790Y195179D01*
X324323Y194381D01*
X325120Y193849D01*
X326061Y193661D01*
X329309D01*
X330250Y193849D01*
X330946Y194314D01*
X331296Y194171D01*
Y193000D01*
X331296Y193000D01*
X331387Y192539D01*
X331648Y192148D01*
X334134Y189664D01*
X333925Y189302D01*
X333650Y188275D01*
Y187213D01*
X333925Y186187D01*
X334456Y185266D01*
X335207Y184515D01*
X336127Y183984D01*
X337154Y183709D01*
X338216D01*
X339243Y183984D01*
X340163Y184515D01*
X340914Y185266D01*
X341445Y186187D01*
X341721Y187213D01*
Y188275D01*
X341445Y189302D01*
X340914Y190222D01*
X340163Y190973D01*
X339243Y191505D01*
X338216Y191779D01*
X337154D01*
X336127Y191505D01*
X335856Y191348D01*
X333704Y193499D01*
Y195868D01*
X334054Y195962D01*
X334456Y195266D01*
X335207Y194515D01*
X336127Y193984D01*
X337154Y193709D01*
X338216D01*
X339243Y193984D01*
X340163Y194515D01*
X340914Y195266D01*
X341445Y196186D01*
X341721Y197213D01*
Y198275D01*
X341445Y199302D01*
X340914Y200222D01*
X340163Y200973D01*
X339243Y201504D01*
X339204Y201515D01*
Y223001D01*
X341926Y225723D01*
X341926Y225723D01*
X342187Y226114D01*
X342279Y226575D01*
Y244576D01*
X364277Y266574D01*
X364538Y266964D01*
X364629Y267425D01*
X364629Y267425D01*
Y350536D01*
X375083Y360989D01*
X375406Y360855D01*
Y356468D01*
X371677Y352739D01*
X371392Y352857D01*
X370608D01*
X369885Y352557D01*
X369331Y352003D01*
X369032Y351280D01*
Y350497D01*
X369331Y349773D01*
X369885Y349219D01*
X370608Y348920D01*
X371392D01*
X372115Y349219D01*
X372669Y349773D01*
X372969Y350497D01*
Y350624D01*
X374972Y352628D01*
X375296Y352494D01*
Y329000D01*
X375296Y329000D01*
X375387Y328539D01*
X375648Y328149D01*
X380648Y323148D01*
X380648Y323148D01*
X381039Y322887D01*
X381500Y322796D01*
X381500Y322796D01*
X392920D01*
X393385Y322331D01*
X394108Y322031D01*
X394892D01*
X395615Y322331D01*
X396169Y322885D01*
X396468Y323608D01*
Y324392D01*
X396169Y325115D01*
X395913Y325371D01*
X396058Y325721D01*
X410925D01*
X410925Y325721D01*
X411386Y325813D01*
X411777Y326074D01*
X412235Y326532D01*
X412892D01*
X413615Y326831D01*
X414169Y327385D01*
X414468Y328108D01*
Y328892D01*
X414169Y329615D01*
X413615Y330169D01*
X412892Y330469D01*
X412108D01*
X411385Y330169D01*
X410831Y329615D01*
X410532Y328892D01*
Y328235D01*
X410426Y328129D01*
X391205D01*
X391098Y328479D01*
X391352Y328648D01*
X397352Y334648D01*
X397613Y335039D01*
X397704Y335500D01*
Y356695D01*
X397613Y357155D01*
X397352Y357546D01*
X395433Y359464D01*
Y364752D01*
X391567D01*
Y354637D01*
X395296D01*
Y335999D01*
X390001Y330704D01*
X389282D01*
X388817Y331169D01*
X388093Y331469D01*
X387310D01*
X386587Y331169D01*
X386033Y330615D01*
X385734Y329892D01*
Y329108D01*
X385994Y328479D01*
X385831Y328129D01*
X384074D01*
X383642Y328561D01*
Y329062D01*
X383642Y329062D01*
X383551Y329523D01*
X383290Y329913D01*
X383290Y329913D01*
X382968Y330235D01*
Y330892D01*
X382669Y331615D01*
X382115Y332169D01*
X381392Y332469D01*
X380608D01*
X379885Y332169D01*
X379331Y331615D01*
X379031Y330892D01*
Y330108D01*
X379331Y329385D01*
X379885Y328831D01*
X380608Y328532D01*
X381234D01*
Y328062D01*
X381234Y328062D01*
X381326Y327601D01*
X381587Y327210D01*
X382723Y326074D01*
X383114Y325813D01*
X383575Y325721D01*
X383575Y325721D01*
X392752D01*
X392924Y325371D01*
X392796Y325204D01*
X381999D01*
X377704Y329499D01*
Y353751D01*
X378565Y354612D01*
X379254Y354749D01*
X379894Y355177D01*
X380321Y355816D01*
X380471Y356570D01*
Y361510D01*
X380593Y361593D01*
X380821Y361665D01*
X381150Y361445D01*
X381529Y361370D01*
Y356570D01*
X381679Y355816D01*
X382106Y355177D01*
X382274Y355064D01*
Y352857D01*
X381881Y352779D01*
X381497Y352522D01*
X381241Y352138D01*
X381151Y351685D01*
Y347315D01*
X381241Y346862D01*
X381497Y346478D01*
X381881Y346221D01*
X382138Y346170D01*
Y345320D01*
X382087Y345310D01*
X381745Y345082D01*
X381517Y344740D01*
X381436Y344337D01*
Y342663D01*
X381517Y342260D01*
X381745Y341918D01*
X382087Y341690D01*
X382490Y341610D01*
X383966D01*
X384370Y341690D01*
X384712Y341918D01*
X385033D01*
X385135Y341765D01*
X385547Y341490D01*
X385772Y341445D01*
Y343500D01*
Y345555D01*
X385547Y345510D01*
X385135Y345235D01*
X385033Y345082D01*
X384712D01*
X384547Y345192D01*
Y346131D01*
X384579D01*
X385032Y346221D01*
X385416Y346478D01*
X385673Y346862D01*
X385763Y347315D01*
Y351685D01*
X385673Y352138D01*
X385416Y352522D01*
X385032Y352779D01*
X384683Y352849D01*
Y355035D01*
X384894Y355177D01*
X385321Y355816D01*
X385471Y356570D01*
Y362819D01*
X385321Y363573D01*
X384894Y364212D01*
X384254Y364640D01*
X383500Y364790D01*
X382746Y364640D01*
X382106Y364212D01*
X382080Y364174D01*
X381732Y364140D01*
X380312Y365560D01*
X380214Y365625D01*
X380169Y366076D01*
X387571Y373477D01*
X387746Y373360D01*
X388500Y373210D01*
X389254Y373360D01*
X389894Y373788D01*
X390321Y374427D01*
X390471Y375181D01*
Y381430D01*
X390321Y382184D01*
X389894Y382823D01*
X389704Y382950D01*
Y383450D01*
X392947Y386693D01*
X396756D01*
Y391220D01*
D02*
G37*
G36*
X395688Y377306D02*
X394500D01*
Y373269D01*
X395047Y373634D01*
X395521Y374344D01*
X395688Y375181D01*
Y377306D01*
D02*
G37*
G36*
X392500D02*
X391312D01*
Y375181D01*
X391479Y374344D01*
X391953Y373634D01*
X392500Y373269D01*
Y377306D01*
D02*
G37*
G36*
X389500Y364731D02*
Y360695D01*
X390688D01*
Y362819D01*
X390521Y363656D01*
X390047Y364366D01*
X389500Y364731D01*
D02*
G37*
G36*
X387500Y364731D02*
X386953Y364366D01*
X386479Y363656D01*
X386312Y362819D01*
Y360695D01*
X387500D01*
Y364731D01*
D02*
G37*
G36*
Y358695D02*
X386312D01*
Y356570D01*
X386479Y355733D01*
X386953Y355023D01*
X387500Y354658D01*
Y358695D01*
D02*
G37*
G36*
X390688D02*
X389500D01*
Y354658D01*
X390047Y355023D01*
X390521Y355733D01*
X390688Y356570D01*
Y358695D01*
D02*
G37*
G36*
X391626Y353086D02*
X391504D01*
Y350500D01*
X393027D01*
Y351685D01*
X392920Y352221D01*
X392617Y352676D01*
X392162Y352979D01*
X391626Y353086D01*
D02*
G37*
G36*
X389504D02*
X389382D01*
X388846Y352979D01*
X388391Y352676D01*
X388088Y352221D01*
X387981Y351685D01*
Y350500D01*
X389504D01*
Y353086D01*
D02*
G37*
G36*
X393027Y348500D02*
X391504D01*
Y345914D01*
X391626D01*
X392162Y346021D01*
X392617Y346324D01*
X392920Y346779D01*
X393027Y347315D01*
Y348500D01*
D02*
G37*
G36*
X389504D02*
X387981D01*
Y347315D01*
X388088Y346779D01*
X388391Y346324D01*
X388846Y346021D01*
X389382Y345914D01*
X389504D01*
Y348500D01*
D02*
G37*
G36*
X387772Y345555D02*
Y344500D01*
X388748D01*
X388684Y344823D01*
X388408Y345235D01*
X387996Y345510D01*
X387772Y345555D01*
D02*
G37*
G36*
X388748Y342500D02*
X387772D01*
Y341445D01*
X387996Y341490D01*
X388408Y341765D01*
X388684Y342177D01*
X388748Y342500D01*
D02*
G37*
G36*
X435272Y323055D02*
Y322000D01*
X436248D01*
X436184Y322323D01*
X435908Y322735D01*
X435496Y323010D01*
X435272Y323055D01*
D02*
G37*
G36*
X436248Y320000D02*
X435272D01*
Y318945D01*
X435496Y318990D01*
X435908Y319265D01*
X436184Y319677D01*
X436248Y320000D01*
D02*
G37*
G36*
X390228Y282000D02*
X389252D01*
X389316Y281677D01*
X389592Y281265D01*
X390004Y280990D01*
X390228Y280945D01*
Y282000D01*
D02*
G37*
G36*
X382130Y271067D02*
X380555D01*
Y269000D01*
X382130D01*
Y271067D01*
D02*
G37*
G36*
X378555D02*
X376980D01*
Y269000D01*
X378555D01*
Y271067D01*
D02*
G37*
G36*
Y267000D02*
X376980D01*
Y264933D01*
X378555D01*
Y267000D01*
D02*
G37*
G36*
Y264567D02*
X376980D01*
Y262500D01*
X378555D01*
Y264567D01*
D02*
G37*
G36*
Y260500D02*
X376980D01*
Y258433D01*
X378555D01*
Y260500D01*
D02*
G37*
G36*
X435945Y259067D02*
X434370D01*
Y257000D01*
X435945D01*
Y259067D01*
D02*
G37*
G36*
X415555D02*
X413980D01*
Y257000D01*
X415555D01*
Y259067D01*
D02*
G37*
G36*
X435945Y255000D02*
X434370D01*
Y252933D01*
X435945D01*
Y255000D01*
D02*
G37*
G36*
X415555D02*
X413980D01*
Y252933D01*
X415555D01*
Y255000D01*
D02*
G37*
G36*
X322000Y251130D02*
Y248000D01*
X325130D01*
X324958Y248640D01*
X324399Y249608D01*
X323608Y250399D01*
X322640Y250958D01*
X322000Y251130D01*
D02*
G37*
G36*
X405392Y269468D02*
X404608D01*
X403885Y269169D01*
X403331Y268615D01*
X403031Y267892D01*
Y267108D01*
X403331Y266385D01*
X403885Y265831D01*
X404608Y265531D01*
X405392D01*
X406115Y265831D01*
X406505Y266221D01*
X425076D01*
X428851Y262446D01*
Y258854D01*
X427693D01*
Y253146D01*
X428796D01*
Y252526D01*
X427363D01*
Y245474D01*
X432637D01*
Y252526D01*
X431204D01*
Y253146D01*
X432417D01*
Y258854D01*
X431259D01*
Y262945D01*
X431259Y262945D01*
X431168Y263406D01*
X430907Y263796D01*
X426426Y268277D01*
X426036Y268538D01*
X425575Y268629D01*
X425575Y268629D01*
X419376D01*
X419000Y268704D01*
X418624Y268629D01*
X406654D01*
X406115Y269169D01*
X405392Y269468D01*
D02*
G37*
G36*
X426354Y248000D02*
X424504D01*
Y245261D01*
X426354D01*
Y248000D01*
D02*
G37*
G36*
X357392Y299969D02*
X356608D01*
X355885Y299669D01*
X355331Y299115D01*
X355031Y298392D01*
Y297734D01*
X330149Y272851D01*
X329887Y272461D01*
X329796Y272000D01*
X329796Y272000D01*
Y250855D01*
X329442Y250760D01*
X328522Y250229D01*
X327771Y249478D01*
X327240Y248558D01*
X326965Y247531D01*
Y246469D01*
X327240Y245442D01*
X327771Y244522D01*
X328522Y243771D01*
X329442Y243240D01*
X330469Y242965D01*
X331531D01*
X332558Y243240D01*
X333478Y243771D01*
X334229Y244522D01*
X334760Y245442D01*
X335035Y246469D01*
Y247531D01*
X334760Y248558D01*
X334229Y249478D01*
X333478Y250229D01*
X332558Y250760D01*
X332204Y250855D01*
Y271501D01*
X356734Y296031D01*
X357392D01*
X358115Y296331D01*
X358669Y296885D01*
X358968Y297608D01*
Y298392D01*
X358669Y299115D01*
X358115Y299669D01*
X357392Y299969D01*
D02*
G37*
G36*
X325130Y246000D02*
X322000D01*
Y242870D01*
X322640Y243041D01*
X323608Y243601D01*
X324399Y244392D01*
X324958Y245360D01*
X325130Y246000D01*
D02*
G37*
G36*
X432850Y242461D02*
X431000D01*
Y239722D01*
X432850D01*
Y242461D01*
D02*
G37*
G36*
X429000D02*
X427150D01*
Y239722D01*
X429000D01*
Y242461D01*
D02*
G37*
G36*
X400892Y269468D02*
X400108D01*
X399385Y269169D01*
X398831Y268615D01*
X398532Y267892D01*
Y267108D01*
X398831Y266385D01*
X399296Y265920D01*
Y265500D01*
X399296Y265500D01*
X399387Y265039D01*
X399648Y264649D01*
X401649Y262649D01*
X401649Y262649D01*
X402039Y262387D01*
X402500Y262296D01*
X402500Y262296D01*
X415446D01*
X418352Y259390D01*
X418218Y259067D01*
X417555D01*
Y256000D01*
Y252933D01*
X418989D01*
X419290Y252649D01*
X419267Y252534D01*
X419267Y252534D01*
Y241172D01*
X419267Y241172D01*
X419358Y240711D01*
X419619Y240320D01*
X420311Y239628D01*
X420311Y239628D01*
X420702Y239367D01*
X420866Y239335D01*
Y235196D01*
X426141D01*
Y242248D01*
X421675D01*
Y245261D01*
X422504D01*
Y249000D01*
X423504D01*
Y250000D01*
X426354D01*
Y252739D01*
X423196D01*
X423009Y253089D01*
X423047Y253146D01*
X425807D01*
Y258854D01*
X422380D01*
X422272Y258876D01*
X416796Y264352D01*
X416406Y264613D01*
X415945Y264704D01*
X415945Y264704D01*
X402999D01*
X401744Y265960D01*
X402169Y266385D01*
X402468Y267108D01*
Y267892D01*
X402169Y268615D01*
X401615Y269169D01*
X400892Y269468D01*
D02*
G37*
G36*
X432850Y237722D02*
X431000D01*
Y234983D01*
X432850D01*
Y237722D01*
D02*
G37*
G36*
X429000D02*
X427150D01*
Y234983D01*
X429000D01*
Y237722D01*
D02*
G37*
G36*
X390000Y230272D02*
X387561D01*
Y229173D01*
X390000D01*
Y230272D01*
D02*
G37*
G36*
X402878D02*
X400439D01*
Y229173D01*
X402878D01*
Y230272D01*
D02*
G37*
G36*
X398439D02*
X396000D01*
Y229173D01*
X398439D01*
Y230272D01*
D02*
G37*
G36*
X385561D02*
X383122D01*
Y229173D01*
X385561D01*
Y230272D01*
D02*
G37*
G36*
X402878Y227173D02*
X400439D01*
Y226075D01*
X402878D01*
Y227173D01*
D02*
G37*
G36*
X398439D02*
X396000D01*
Y226075D01*
X398439D01*
Y227173D01*
D02*
G37*
G36*
X390000D02*
X387561D01*
Y226075D01*
X390000D01*
Y227173D01*
D02*
G37*
G36*
X385561D02*
X383122D01*
Y226075D01*
X385561D01*
Y227173D01*
D02*
G37*
G36*
X321531Y231035D02*
X320469D01*
X319442Y230760D01*
X318522Y230229D01*
X317771Y229478D01*
X317240Y228558D01*
X316965Y227531D01*
Y226469D01*
X317240Y225442D01*
X317771Y224522D01*
X318522Y223771D01*
X319442Y223240D01*
X320469Y222965D01*
X321531D01*
X322558Y223240D01*
X323478Y223771D01*
X324229Y224522D01*
X324760Y225442D01*
X325035Y226469D01*
Y227531D01*
X324760Y228558D01*
X324229Y229478D01*
X323478Y230229D01*
X322558Y230760D01*
X321531Y231035D01*
D02*
G37*
G36*
X328216Y191779D02*
X327154D01*
X326127Y191505D01*
X325207Y190973D01*
X324456Y190222D01*
X323925Y189302D01*
X323650Y188275D01*
Y187213D01*
X323925Y186187D01*
X324456Y185266D01*
X325207Y184515D01*
X326127Y183984D01*
X327154Y183709D01*
X328216D01*
X329243Y183984D01*
X330163Y184515D01*
X330914Y185266D01*
X331446Y186187D01*
X331720Y187213D01*
Y188275D01*
X331446Y189302D01*
X330914Y190222D01*
X330163Y190973D01*
X329243Y191505D01*
X328216Y191779D01*
D02*
G37*
G36*
X338685Y181874D02*
Y178744D01*
X341815D01*
X341644Y179384D01*
X341084Y180352D01*
X340293Y181143D01*
X339325Y181703D01*
X338685Y181874D01*
D02*
G37*
G36*
X336685Y181874D02*
X336045Y181703D01*
X335077Y181143D01*
X334286Y180352D01*
X333727Y179384D01*
X333555Y178744D01*
X336685D01*
Y181874D01*
D02*
G37*
G36*
X328216Y181780D02*
X327154D01*
X326127Y181504D01*
X325207Y180973D01*
X324456Y180222D01*
X323925Y179302D01*
X323650Y178275D01*
Y177213D01*
X323925Y176187D01*
X324456Y175266D01*
X325207Y174515D01*
X326127Y173984D01*
X327154Y173709D01*
X328216D01*
X329243Y173984D01*
X330163Y174515D01*
X330914Y175266D01*
X331446Y176187D01*
X331720Y177213D01*
Y178275D01*
X331446Y179302D01*
X330914Y180222D01*
X330163Y180973D01*
X329243Y181504D01*
X328216Y181780D01*
D02*
G37*
G36*
X341815Y176744D02*
X338685D01*
Y173614D01*
X339325Y173785D01*
X340293Y174345D01*
X341084Y175136D01*
X341644Y176104D01*
X341815Y176744D01*
D02*
G37*
G36*
X336685D02*
X333555D01*
X333727Y176104D01*
X334286Y175136D01*
X335077Y174345D01*
X336045Y173785D01*
X336685Y173614D01*
Y176744D01*
D02*
G37*
G36*
X329748Y165939D02*
Y157287D01*
X338400D01*
X338038Y159106D01*
X337310Y160864D01*
X336252Y162446D01*
X334907Y163792D01*
X333324Y164849D01*
X331566Y165577D01*
X329748Y165939D01*
D02*
G37*
G36*
X327748D02*
X325930Y165577D01*
X324172Y164849D01*
X322589Y163792D01*
X321244Y162446D01*
X320186Y160864D01*
X319458Y159106D01*
X319096Y157287D01*
X327748D01*
Y165939D01*
D02*
G37*
G36*
X338400Y155287D02*
X329748D01*
Y146636D01*
X331566Y146997D01*
X333324Y147726D01*
X334907Y148783D01*
X336252Y150129D01*
X337310Y151711D01*
X338038Y153469D01*
X338400Y155287D01*
D02*
G37*
G36*
X327748D02*
X319096D01*
X319458Y153469D01*
X320186Y151711D01*
X321244Y150129D01*
X322589Y148783D01*
X324172Y147726D01*
X325930Y146997D01*
X327748Y146636D01*
Y155287D01*
D02*
G37*
%LPD*%
G36*
X360692Y272372D02*
Y269395D01*
X339890Y248593D01*
X339567Y248727D01*
Y254939D01*
X357107Y272479D01*
X357466D01*
X357770Y272175D01*
X358493Y271876D01*
X359276D01*
X360000Y272175D01*
X360342Y272517D01*
X360692Y272372D01*
D02*
G37*
G36*
X352500Y274796D02*
X352920D01*
X353385Y274331D01*
X354108Y274031D01*
X354759D01*
X354912Y273690D01*
X338753Y257531D01*
X338429Y257665D01*
Y260801D01*
X352437Y274808D01*
X352500Y274796D01*
D02*
G37*
G36*
X336796Y223098D02*
Y201684D01*
X336127Y201504D01*
X335207Y200973D01*
X334456Y200222D01*
X334054Y199526D01*
X333704Y199620D01*
Y202500D01*
X333704Y202500D01*
X333613Y202961D01*
X333351Y203351D01*
X333351Y203351D01*
X327969Y208735D01*
Y209392D01*
X327669Y210115D01*
X327115Y210669D01*
X326392Y210968D01*
X325608D01*
X324885Y210669D01*
X324331Y210115D01*
X324031Y209392D01*
Y208608D01*
X324331Y207885D01*
X324885Y207331D01*
X325608Y207031D01*
X326265D01*
X331296Y202001D01*
Y201317D01*
X330946Y201175D01*
X330250Y201640D01*
X329309Y201827D01*
X326061D01*
X325907Y201796D01*
X322204Y205499D01*
Y209001D01*
X336446Y223243D01*
X336796Y223098D01*
D02*
G37*
%LPC*%
G36*
X511555Y319728D02*
X510500D01*
Y318752D01*
X510823Y318816D01*
X511235Y319092D01*
X511510Y319504D01*
X511555Y319728D01*
D02*
G37*
G36*
X519873Y316000D02*
X517000D01*
Y313127D01*
X517544Y313273D01*
X518456Y313799D01*
X519201Y314544D01*
X519727Y315456D01*
X519873Y316000D01*
D02*
G37*
G36*
X515000D02*
X512127D01*
X512273Y315456D01*
X512799Y314544D01*
X513544Y313799D01*
X514456Y313273D01*
X515000Y313127D01*
Y316000D01*
D02*
G37*
G36*
X511555Y287228D02*
X510500D01*
Y286252D01*
X510823Y286316D01*
X511235Y286592D01*
X511510Y287004D01*
X511555Y287228D01*
D02*
G37*
G36*
X519873Y283500D02*
X517000D01*
Y280627D01*
X517544Y280773D01*
X518456Y281299D01*
X519201Y282044D01*
X519727Y282956D01*
X519873Y283500D01*
D02*
G37*
G36*
X515000D02*
X512127D01*
X512273Y282956D01*
X512799Y282044D01*
X513544Y281299D01*
X514456Y280773D01*
X515000Y280627D01*
Y283500D01*
D02*
G37*
G36*
X511555Y254728D02*
X510500D01*
Y253752D01*
X510823Y253816D01*
X511235Y254092D01*
X511510Y254504D01*
X511555Y254728D01*
D02*
G37*
G36*
X519873Y251000D02*
X517000D01*
Y248127D01*
X517544Y248273D01*
X518456Y248799D01*
X519201Y249544D01*
X519727Y250456D01*
X519873Y251000D01*
D02*
G37*
G36*
X515000D02*
X512127D01*
X512273Y250456D01*
X512799Y249544D01*
X513544Y248799D01*
X514456Y248273D01*
X515000Y248127D01*
Y251000D01*
D02*
G37*
G36*
X511555Y222228D02*
X510500D01*
Y221252D01*
X510823Y221316D01*
X511235Y221592D01*
X511510Y222004D01*
X511555Y222228D01*
D02*
G37*
G36*
X519873Y218500D02*
X517000D01*
Y215627D01*
X517544Y215773D01*
X518456Y216299D01*
X519201Y217044D01*
X519727Y217956D01*
X519873Y218500D01*
D02*
G37*
G36*
X515000D02*
X512127D01*
X512273Y217956D01*
X512799Y217044D01*
X513544Y216299D01*
X514456Y215773D01*
X515000Y215627D01*
Y218500D01*
D02*
G37*
G36*
X511555Y189728D02*
X510500D01*
Y188752D01*
X510823Y188816D01*
X511235Y189092D01*
X511510Y189504D01*
X511555Y189728D01*
D02*
G37*
G36*
X519873Y185500D02*
X517000D01*
Y182627D01*
X517544Y182773D01*
X518456Y183299D01*
X519201Y184044D01*
X519727Y184956D01*
X519873Y185500D01*
D02*
G37*
G36*
X515000D02*
X512127D01*
X512273Y184956D01*
X512799Y184044D01*
X513544Y183299D01*
X514456Y182773D01*
X515000Y182627D01*
Y185500D01*
D02*
G37*
G36*
X451508Y450311D02*
X451500D01*
Y438500D01*
X463311D01*
Y438508D01*
X462996Y440500D01*
X462372Y442418D01*
X461457Y444214D01*
X460272Y445846D01*
X458846Y447272D01*
X457214Y448457D01*
X455418Y449372D01*
X453500Y449996D01*
X451508Y450311D01*
D02*
G37*
G36*
X449500D02*
X449492D01*
X447500Y449996D01*
X445582Y449372D01*
X443786Y448457D01*
X442154Y447272D01*
X440728Y445846D01*
X439543Y444214D01*
X438628Y442418D01*
X438004Y440500D01*
X437689Y438508D01*
Y438500D01*
X449500D01*
Y450311D01*
D02*
G37*
G36*
X463311Y436500D02*
X451500D01*
Y424689D01*
X451508D01*
X453500Y425004D01*
X455418Y425628D01*
X457214Y426543D01*
X458846Y427728D01*
X460272Y429154D01*
X461457Y430786D01*
X462372Y432582D01*
X462996Y434500D01*
X463311Y436492D01*
Y436500D01*
D02*
G37*
G36*
X449500D02*
X437689D01*
Y436492D01*
X438004Y434500D01*
X438628Y432582D01*
X439543Y430786D01*
X440728Y429154D01*
X442154Y427728D01*
X443786Y426543D01*
X445582Y425628D01*
X447500Y425004D01*
X449492Y424689D01*
X449500D01*
Y436500D01*
D02*
G37*
G36*
X467243Y150500D02*
X461000D01*
Y144257D01*
X462129Y144481D01*
X463457Y145031D01*
X464653Y145830D01*
X465670Y146847D01*
X466468Y148043D01*
X467019Y149371D01*
X467243Y150500D01*
D02*
G37*
G36*
X459000D02*
X452757D01*
X452981Y149371D01*
X453532Y148043D01*
X454330Y146847D01*
X455347Y145830D01*
X456542Y145031D01*
X457871Y144481D01*
X459000Y144257D01*
Y150500D01*
D02*
G37*
G36*
X461000Y175743D02*
Y169500D01*
X467243D01*
X467019Y170629D01*
X466468Y171958D01*
X465670Y173153D01*
X464653Y174170D01*
X463457Y174969D01*
X462129Y175519D01*
X461000Y175743D01*
D02*
G37*
G36*
X459000D02*
X457871Y175519D01*
X456542Y174969D01*
X455347Y174170D01*
X454330Y173153D01*
X453532Y171958D01*
X452981Y170629D01*
X452757Y169500D01*
X459000D01*
Y175743D01*
D02*
G37*
G36*
X478555Y164728D02*
X477500D01*
Y163752D01*
X477823Y163816D01*
X478235Y164092D01*
X478510Y164504D01*
X478555Y164728D01*
D02*
G37*
G36*
X475500D02*
X474445D01*
X474490Y164504D01*
X474765Y164092D01*
X475177Y163816D01*
X475500Y163752D01*
Y164728D01*
D02*
G37*
G36*
X486873Y160000D02*
X484000D01*
Y157127D01*
X484544Y157273D01*
X485456Y157799D01*
X486201Y158544D01*
X486727Y159456D01*
X486873Y160000D01*
D02*
G37*
G36*
X482000D02*
X479127D01*
X479273Y159456D01*
X479799Y158544D01*
X480544Y157799D01*
X481456Y157273D01*
X482000Y157127D01*
Y160000D01*
D02*
G37*
%LPD*%
D12*
X414772Y282728D02*
X415000Y282500D01*
X441000Y237000D02*
X444000Y234000D01*
X440750Y237250D02*
X441000Y237000D01*
X373500Y427993D02*
Y439000D01*
X329000Y368500D02*
X353500D01*
X328500D02*
X329000D01*
X409494Y243000D02*
X409500D01*
X320000Y237000D02*
Y238000D01*
X332500Y193000D02*
X338801Y186699D01*
X448500Y160000D02*
X464383D01*
X444000Y164500D02*
Y228000D01*
Y164500D02*
X448500Y160000D01*
X332500Y193000D02*
Y202500D01*
X326000Y209000D02*
X332500Y202500D01*
X338000Y197500D02*
Y223500D01*
X341075Y226575D01*
X388500Y378306D02*
Y383949D01*
Y375588D02*
Y378306D01*
X321000Y205000D02*
Y209500D01*
Y205000D02*
X329501Y196499D01*
X356699Y273699D02*
X358739D01*
X358885Y273844D01*
X321000Y209500D02*
X339500Y228000D01*
Y246500D01*
X331000Y247000D02*
Y272000D01*
X357000Y298000D01*
X337225Y261300D02*
X351925Y276000D01*
X337225Y243225D02*
Y261300D01*
X331000Y237000D02*
X337225Y243225D01*
X352500Y276000D02*
X354500D01*
X338363Y234363D02*
Y255437D01*
X356425Y273500D01*
X331000Y227000D02*
X338363Y234363D01*
X316571Y241429D02*
X320000Y238000D01*
X316571Y241429D02*
Y307331D01*
X327000Y317760D01*
X353500Y368500D02*
X362500Y359500D01*
X327000Y324000D02*
X362500Y359500D01*
X376610Y355969D02*
Y363601D01*
X371301Y351190D02*
X371831D01*
X376500Y329000D02*
Y354250D01*
X378500Y356250D01*
X371831Y351190D02*
X376610Y355969D01*
X371000Y350888D02*
X371301Y351190D01*
X371500Y268000D02*
Y268500D01*
X500000Y422955D02*
Y429000D01*
X495000Y422955D02*
Y427235D01*
X444000Y228000D02*
Y234000D01*
X440750Y237250D02*
Y250750D01*
X392500Y251500D02*
Y252500D01*
X387042Y246542D02*
X388542D01*
X524000Y173500D02*
Y173572D01*
X387000Y246500D02*
X387042Y246542D01*
X392500Y250500D02*
Y251500D01*
X388542Y246542D02*
X392500Y250500D01*
X524000Y173572D02*
Y173655D01*
X387000Y239500D02*
Y246500D01*
Y239074D02*
Y239500D01*
X383000Y258500D02*
Y264063D01*
Y258500D02*
X386561Y254939D01*
X383000Y264063D02*
X386445Y267508D01*
X386561Y249827D02*
Y254939D01*
X508500Y148500D02*
X520000D01*
X534000Y396455D02*
Y401000D01*
X529000Y396455D02*
Y401000D01*
X534000Y201425D02*
Y206000D01*
X529000Y201425D02*
Y206062D01*
X534000Y363965D02*
Y368500D01*
X444500Y366000D02*
Y368500D01*
X429683Y351183D02*
X444500Y366000D01*
X529000Y363965D02*
Y368510D01*
X524000D02*
X524122Y368388D01*
Y362340D02*
X526712Y359751D01*
X524122Y362340D02*
Y368388D01*
X524000Y368510D02*
Y384826D01*
Y329973D02*
Y336000D01*
Y329973D02*
X526212Y327761D01*
X524000Y336021D02*
Y352336D01*
Y299000D02*
X526212Y296788D01*
X524000Y299000D02*
Y303500D01*
X526212Y289569D02*
Y296788D01*
X524000Y236500D02*
X524500Y237000D01*
X524000Y233500D02*
Y236500D01*
Y206062D02*
Y222377D01*
X526712Y225090D02*
Y230788D01*
X524000Y233500D02*
X526712Y230788D01*
X524000Y264994D02*
X526712Y262281D01*
X524000Y264994D02*
Y271000D01*
X523295Y237847D02*
X524000Y238551D01*
Y173655D02*
Y189888D01*
Y200014D02*
Y206062D01*
Y200014D02*
X526712Y197302D01*
X446825Y320098D02*
Y322237D01*
X447005Y322417D01*
X424152Y297425D02*
X446825Y320098D01*
X529000Y169000D02*
Y173572D01*
X526712Y192600D02*
Y197302D01*
X534000Y169000D02*
Y173500D01*
X529000Y234006D02*
Y238500D01*
X534000Y234000D02*
Y238551D01*
X529000Y266496D02*
Y271041D01*
X534000Y266496D02*
Y271041D01*
X529000Y298986D02*
Y303531D01*
X534000Y298986D02*
Y303531D01*
X529000Y331475D02*
Y336021D01*
X534000Y331475D02*
Y336021D01*
X383500Y360000D02*
Y361863D01*
X382805Y362558D02*
X383500Y361863D01*
X381610Y362558D02*
X382805D01*
X379460Y364708D02*
X381610Y362558D01*
X377717Y364708D02*
X379460D01*
X376610Y363601D02*
X377717Y364708D01*
X524000Y401000D02*
Y417316D01*
X377246Y365846D02*
X378236D01*
X378500Y356250D02*
Y359695D01*
X378236Y365846D02*
X387284Y374894D01*
X375473Y363082D02*
Y364072D01*
X377246Y365846D01*
X363425Y351035D02*
X375473Y363082D01*
X376500Y329000D02*
X381500Y324000D01*
X394500D01*
X383478Y349522D02*
Y359673D01*
X383343Y349386D02*
X383457Y349500D01*
X383478Y349522D01*
X495487Y171929D02*
X500558Y177000D01*
X520655D02*
X524000Y173655D01*
X500558Y177000D02*
X520655D01*
X490000Y427500D02*
Y429265D01*
X491842Y431108D01*
X520334D01*
X526712Y424730D01*
Y420028D02*
Y424730D01*
X524000Y417316D02*
X526712Y420028D01*
X524000Y394952D02*
Y401000D01*
Y394952D02*
X526712Y392240D01*
Y387538D02*
Y392240D01*
X524000Y384826D02*
X526712Y387538D01*
Y355048D02*
Y359751D01*
X524000Y352336D02*
X526712Y355048D01*
X526212Y322059D02*
Y327761D01*
X524000Y319847D02*
X526212Y322059D01*
X524000Y303531D02*
Y319847D01*
Y287357D02*
X526212Y289569D01*
X524000Y271041D02*
Y287357D01*
Y239000D02*
Y254867D01*
X526712Y257579D02*
Y262281D01*
X524000Y254867D02*
X526712Y257579D01*
X524000Y222377D02*
X526712Y225090D01*
X524000Y189888D02*
X526712Y192600D01*
X493000Y149766D02*
Y164414D01*
X495487Y166901D02*
Y171929D01*
X493000Y164414D02*
X495487Y166901D01*
X493000Y148000D02*
Y149766D01*
X492295Y150470D02*
X493000Y149766D01*
X473912Y150470D02*
X492295D01*
X464383Y160000D02*
X473912Y150470D01*
X508000Y148000D02*
X508500Y148500D01*
X502606Y164808D02*
X507775D01*
X500456Y166958D02*
X502606Y164808D01*
X389000Y288000D02*
X389121D01*
X436000Y289000D02*
X440099Y293099D01*
X389121Y288000D02*
X390121Y289000D01*
X436000D01*
X419500Y312500D02*
X424000Y308000D01*
Y307500D02*
Y308000D01*
X425575Y267425D02*
X430055Y262945D01*
X419000Y267500D02*
X419075Y267425D01*
X425575D01*
X430055Y256000D02*
Y262945D01*
X405075Y267425D02*
X419122D01*
X430000Y249400D02*
Y255500D01*
Y249000D02*
Y249400D01*
X392500Y251500D02*
X400994Y243006D01*
X362000Y388460D02*
Y416493D01*
Y388460D02*
X362500Y387960D01*
Y359500D02*
Y387960D01*
X508000Y167662D02*
X510662Y165000D01*
X534000D02*
X544500Y154500D01*
X510662Y165000D02*
X534000D01*
X508000Y167662D02*
Y169428D01*
X544500Y154500D02*
X547500D01*
X505000Y422000D02*
Y429000D01*
X495000Y452203D02*
X495333Y452536D01*
X495342D02*
X495807Y453000D01*
X495333Y452536D02*
X495342D01*
X525065Y453000D02*
X537000Y441065D01*
X495807Y453000D02*
X525065D01*
X495000Y451000D02*
Y452203D01*
X537000Y154435D02*
Y154500D01*
X531034Y148469D02*
X537000Y154435D01*
X524114Y148469D02*
X531034D01*
X507775Y164808D02*
X524114Y148469D01*
X498705Y166958D02*
X500456D01*
X498000Y167662D02*
X498705Y166958D01*
X498000Y167662D02*
Y169428D01*
X547500Y154500D02*
X548500Y155500D01*
X477500Y146500D02*
X480745Y143255D01*
X498269D01*
X500544Y145530D01*
X502295D01*
X503000Y146234D01*
Y148000D01*
X483500Y146500D02*
X485608Y144392D01*
X494407D01*
X495544Y145530D01*
X497295D01*
X498000Y146234D01*
Y148000D01*
X440099Y293099D02*
Y293599D01*
X445500Y299000D01*
X429000Y291000D02*
X444500Y306500D01*
X384641Y291000D02*
X429000D01*
X428350Y294850D02*
X444500Y311000D01*
Y314000D01*
X385492Y297425D02*
X424152D01*
X442000Y341880D02*
Y342000D01*
X424000Y302500D02*
X441000Y319500D01*
Y340880D02*
X442000Y341880D01*
X441000Y319500D02*
Y340880D01*
X443500Y319000D02*
Y331879D01*
X444500Y332879D02*
Y333000D01*
X443500Y331879D02*
X444500Y332879D01*
X424500Y300000D02*
X443500Y319000D01*
X433500Y326000D02*
Y347500D01*
X439000Y353000D01*
X383000Y312500D02*
X405000D01*
X399000Y250000D02*
Y252327D01*
X399439D01*
X386000Y233453D02*
Y238074D01*
X387000Y239074D01*
X381000Y330500D02*
X382438Y329062D01*
Y328062D02*
X383575Y326925D01*
X382438Y328062D02*
Y329062D01*
X387702Y329500D02*
X390500D01*
X410925Y326925D02*
X412500Y328500D01*
X383575Y326925D02*
X410925D01*
X390500Y329500D02*
X396500Y335500D01*
X387704Y294850D02*
X428350D01*
X387635Y294781D02*
X387704Y294850D01*
X385279Y297638D02*
X385492Y297425D01*
X379665Y297638D02*
X385279D01*
X379500Y297472D02*
X379665Y297638D01*
X388500Y300000D02*
X424500D01*
X382000Y291000D02*
X382075Y291075D01*
X384566D01*
X400075Y285425D02*
X402650Y282850D01*
X400071Y285425D02*
X400075D01*
X377161Y274161D02*
X396878D01*
X402650Y279934D01*
X371500Y268500D02*
X377161Y274161D01*
X384566Y291075D02*
X384641Y291000D01*
X427500Y312000D02*
Y314000D01*
X424170Y317330D02*
X427500Y314000D01*
X402507Y302500D02*
X424000D01*
X379500Y285000D02*
X379764Y285264D01*
X392606D01*
X402650Y279934D02*
Y282850D01*
X402082Y302925D02*
X402507Y302500D01*
X380075Y302925D02*
X402082D01*
X380000Y303000D02*
X380075Y302925D01*
X398463Y305500D02*
X398963Y305000D01*
X389500Y305500D02*
X398463D01*
X398963Y305000D02*
X407500D01*
X404500Y309500D02*
X429683Y334683D01*
X388000Y309500D02*
X404500D01*
X405000Y312500D02*
X426000Y333500D01*
X379500Y316000D02*
X406000D01*
X424425Y334425D01*
X363425Y267425D02*
Y351035D01*
X341075Y245075D02*
X363425Y267425D01*
X397500Y283000D02*
X399500Y281000D01*
X394772Y283000D02*
X397500D01*
X405000Y267500D02*
X405075Y267425D01*
X400500Y265500D02*
X402500Y263500D01*
X400500Y265500D02*
Y267500D01*
X412000Y240500D02*
X417000D01*
X409500Y243000D02*
X412000Y240500D01*
X400994Y243006D02*
X409494D01*
X440500Y251000D02*
X440750Y250750D01*
X440500Y251000D02*
Y268500D01*
X423000Y228000D02*
X444000D01*
X418000Y233000D02*
X423000Y228000D01*
X386445Y268000D02*
X391000D01*
X386445Y267508D02*
Y268000D01*
X391000Y261500D02*
X393297Y259203D01*
Y257128D02*
Y259203D01*
X386445Y261500D02*
X391000D01*
X393297Y257128D02*
X398098Y252327D01*
X430764Y323264D02*
X433500Y326000D01*
X429399Y323264D02*
X430764D01*
X407500Y305000D02*
X425500Y323000D01*
X429135D02*
X429399Y323264D01*
X425500Y323000D02*
X429135D01*
X424170Y317670D02*
X427500Y321000D01*
X424170Y317330D02*
Y317670D01*
X429683Y334683D02*
Y351183D01*
X424425Y334425D02*
Y388925D01*
X426000Y333500D02*
Y371000D01*
X427500Y321000D02*
X430728D01*
X426000Y371000D02*
X435500Y380500D01*
X424425Y388925D02*
X424500Y389000D01*
X415728Y286272D02*
X419500D01*
X411728Y282728D02*
X414772D01*
X415000D02*
X419500D01*
X410000Y281000D02*
X411728Y282728D01*
X402500Y263500D02*
X415945D01*
X414851Y269851D02*
X415000Y270000D01*
X430000Y279000D02*
X440500Y268500D01*
X417000Y240074D02*
Y240500D01*
Y240074D02*
X418000Y239074D01*
Y233000D02*
Y239074D01*
X415945Y263500D02*
X421772Y257673D01*
X422264D01*
X423445Y256492D01*
Y256000D02*
Y256492D01*
X423500Y255563D02*
Y256000D01*
X420471Y252534D02*
X423500Y255563D01*
X420471Y241172D02*
Y252534D01*
Y241172D02*
X421163Y240480D01*
X422048D01*
X423504Y239024D01*
Y238722D02*
Y239024D01*
X505000Y450500D02*
X505072Y450428D01*
X510578D01*
X361896Y268896D02*
Y353896D01*
X339500Y246500D02*
X361896Y268896D01*
X327000Y317760D02*
Y324000D01*
X362000Y416493D02*
X373500Y427993D01*
X393500Y359695D02*
X396500Y356695D01*
Y335500D02*
Y356695D01*
X361896Y353896D02*
X383500Y375500D01*
X392606Y285264D02*
X394772Y283098D01*
Y283000D02*
Y283098D01*
X383500Y378306D02*
Y383949D01*
Y375500D02*
Y378306D01*
X341075Y226575D02*
Y245075D01*
X387284Y374894D02*
X387805D01*
X388500Y375588D01*
X393508Y388957D02*
X394000D01*
X388500Y383949D02*
X393508Y388957D01*
X378000D02*
X378492D01*
X383500Y383949D01*
X378000Y395847D02*
X394000D01*
X383228Y343500D02*
X383343Y343614D01*
Y349386D01*
X383478Y359673D02*
X383500Y359695D01*
X539000Y173572D02*
X539072Y173500D01*
X543500D01*
X539000Y206062D02*
X539062Y206000D01*
X543500D01*
X539000Y238551D02*
X539051Y238500D01*
X543500D01*
X539000Y271041D02*
X539041Y271000D01*
X543500D01*
X539000Y303531D02*
X539031Y303500D01*
X543500D01*
X539000Y336021D02*
X539021Y336000D01*
X543500D01*
X539000Y368510D02*
X539010Y368500D01*
X543500D01*
X539000Y401000D02*
X539000Y401000D01*
X543000D01*
X531417Y353266D02*
X538689D01*
X543958Y347997D01*
X529000Y355683D02*
X531417Y353266D01*
X543958Y347309D02*
Y347997D01*
X531417Y223307D02*
X538689D01*
X529000Y225724D02*
X531417Y223307D01*
X529000Y225724D02*
Y227490D01*
X531417Y320776D02*
X538689D01*
X529000Y323193D02*
X531417Y320776D01*
X529000Y323193D02*
Y324959D01*
X561500Y195000D02*
X572000Y184500D01*
X539000Y195000D02*
X561500D01*
X560189Y184435D02*
Y184500D01*
X554223Y178469D02*
X560189Y184435D01*
X549226Y178469D02*
X554223D01*
X543958Y183737D02*
X549226Y178469D01*
X543958Y183737D02*
Y185549D01*
X538689Y190817D02*
X543958Y185549D01*
X531417Y190817D02*
X538689D01*
X529000Y193234D02*
X531417Y190817D01*
X529000Y193234D02*
Y195000D01*
X561725Y227490D02*
X572000Y217214D01*
X539000Y227490D02*
X561725D01*
X560189Y217150D02*
Y217214D01*
X554223Y211183D02*
X560189Y217150D01*
X549226Y211183D02*
X554223D01*
X543958Y216452D02*
X549226Y211183D01*
X543958Y216452D02*
Y218038D01*
X538689Y223307D02*
X543958Y218038D01*
X561949Y259979D02*
X572000Y249929D01*
X539000Y259979D02*
X561949D01*
X560189Y249864D02*
Y249929D01*
X554223Y243898D02*
X560189Y249864D01*
X549226Y243898D02*
X554223D01*
X543958Y249166D02*
X549226Y243898D01*
X543958Y249166D02*
Y250528D01*
X538689Y255797D02*
X543958Y250528D01*
X529461Y255797D02*
X538689D01*
X529000Y256258D02*
X529461Y255797D01*
X529000Y256258D02*
Y259979D01*
X562174Y292469D02*
X572000Y282643D01*
X539000Y292469D02*
X562174D01*
X560189Y282578D02*
Y282643D01*
X554223Y276612D02*
X560189Y282578D01*
X549226Y276612D02*
X554223D01*
X543889Y281949D02*
X549226Y276612D01*
X543889Y281949D02*
Y283087D01*
X538551Y288424D02*
X543889Y283087D01*
X531280Y288424D02*
X538551D01*
X529000Y290704D02*
X531280Y288424D01*
X529000Y290704D02*
Y292469D01*
X562398Y324959D02*
X572000Y315357D01*
X539000Y324959D02*
X562398D01*
X560189Y315292D02*
Y315357D01*
X554223Y309326D02*
X560189Y315292D01*
X549226Y309326D02*
X554223D01*
X543958Y314595D02*
X549226Y309326D01*
X543958Y314595D02*
Y315507D01*
X538689Y320776D02*
X543958Y315507D01*
X562623Y357449D02*
X572000Y348071D01*
X539000Y357449D02*
X562623D01*
X560189Y348007D02*
Y348071D01*
X554223Y342040D02*
X560189Y348007D01*
X549226Y342040D02*
X554223D01*
X543958Y347309D02*
X549226Y342040D01*
X529000Y355683D02*
Y357449D01*
X562848Y389938D02*
X572000Y380786D01*
X539000Y389938D02*
X562848D01*
X560189Y380721D02*
Y380786D01*
X554223Y374755D02*
X560189Y380721D01*
X549226Y374755D02*
X554223D01*
X543889Y380092D02*
X549226Y374755D01*
X543889Y380092D02*
Y380556D01*
X538551Y385893D02*
X543889Y380556D01*
X531280Y385893D02*
X538551D01*
X529000Y388173D02*
X531280Y385893D01*
X529000Y388173D02*
Y389938D01*
X563072Y422428D02*
X572000Y413500D01*
X539000Y422428D02*
X563072D01*
X560189Y413435D02*
Y413500D01*
X554223Y407469D02*
X560189Y413435D01*
X549226Y407469D02*
X554223D01*
X543958Y412737D02*
X549226Y407469D01*
X543958Y412737D02*
Y412977D01*
X538689Y418245D02*
X543958Y412977D01*
X531417Y418245D02*
X538689D01*
X529000Y420662D02*
X531417Y418245D01*
X529000Y420662D02*
Y422428D01*
X560189Y380786D02*
Y380850D01*
X529000Y389938D02*
Y391704D01*
X539000Y388173D02*
Y389938D01*
X542780Y434969D02*
X548811Y441000D01*
X526037Y434969D02*
X542780D01*
X510578Y450428D02*
X526037Y434969D01*
X537000Y441000D02*
Y441065D01*
X398098Y252327D02*
X399000D01*
D17*
X483000Y188500D02*
X483086Y188586D01*
Y189500D01*
X500500Y156286D02*
X503000Y158786D01*
X500500Y439714D02*
X503000Y442214D01*
X516490Y227500D02*
X516500Y227490D01*
X516479Y260000D02*
X516500Y259979D01*
X516469Y292500D02*
X516500Y292469D01*
X516459Y325000D02*
X516500Y324959D01*
X516448Y357500D02*
X516500Y357449D01*
X516438Y390000D02*
X516500Y389938D01*
X560189Y380786D02*
Y381301D01*
D23*
X430055Y256000D02*
D03*
X436945D02*
D03*
X423445D02*
D03*
X416555D02*
D03*
X386445Y268000D02*
D03*
X379555D02*
D03*
X386445Y261500D02*
D03*
X379555D02*
D03*
D25*
X509500Y414772D02*
D03*
Y411228D02*
D03*
Y385728D02*
D03*
Y389272D02*
D03*
X415000Y282728D02*
D03*
Y286272D02*
D03*
X419500D02*
D03*
Y282728D02*
D03*
X509500Y356772D02*
D03*
Y353228D02*
D03*
Y324272D02*
D03*
Y320728D02*
D03*
Y291772D02*
D03*
Y288228D02*
D03*
Y226772D02*
D03*
Y223228D02*
D03*
Y190728D02*
D03*
Y194272D02*
D03*
Y259272D02*
D03*
Y255728D02*
D03*
X476500Y169272D02*
D03*
Y165728D02*
D03*
Y444728D02*
D03*
Y448272D02*
D03*
D26*
X430728Y321000D02*
D03*
X434272D02*
D03*
X394772Y283000D02*
D03*
X391228D02*
D03*
X386772Y343500D02*
D03*
X383228D02*
D03*
D29*
X386000Y396055D02*
D03*
Y402945D02*
D03*
D43*
X560189Y184500D02*
D03*
X572000D02*
D03*
X560189Y217214D02*
D03*
X572000D02*
D03*
X537094Y155255D02*
D03*
X548906D02*
D03*
X560189Y249929D02*
D03*
X572000D02*
D03*
Y282643D02*
D03*
X560189D02*
D03*
Y315357D02*
D03*
X572000D02*
D03*
X560189Y380786D02*
D03*
X572000D02*
D03*
Y413500D02*
D03*
X560189D02*
D03*
X572000Y348071D02*
D03*
X560189D02*
D03*
X537000Y441000D02*
D03*
X548811D02*
D03*
X362189Y439000D02*
D03*
X374000D02*
D03*
D44*
X580465Y184500D02*
D03*
X551724D02*
D03*
X580465Y217214D02*
D03*
X551724D02*
D03*
X557370Y155255D02*
D03*
X528630D02*
D03*
X580465Y249929D02*
D03*
X551724D02*
D03*
Y282643D02*
D03*
X580465D02*
D03*
Y315357D02*
D03*
X551724D02*
D03*
X580465Y380786D02*
D03*
X551724D02*
D03*
Y413500D02*
D03*
X580465D02*
D03*
X551724Y348071D02*
D03*
X580465D02*
D03*
X557276Y441000D02*
D03*
X528535D02*
D03*
X382465Y439000D02*
D03*
X353724D02*
D03*
D51*
X327685Y197744D02*
D03*
X331000Y227000D02*
D03*
D52*
X337685Y197744D02*
D03*
X327685Y187744D02*
D03*
Y177744D02*
D03*
X337685Y187744D02*
D03*
Y177744D02*
D03*
X321000Y227000D02*
D03*
X331000Y237000D02*
D03*
Y247000D02*
D03*
X321000Y237000D02*
D03*
Y247000D02*
D03*
D53*
X328748Y156287D02*
D03*
Y439752D02*
D03*
X572752D02*
D03*
Y156248D02*
D03*
D54*
X422154Y436299D02*
D03*
D55*
X450500Y437500D02*
D03*
D56*
X516000Y415000D02*
D03*
Y407000D02*
D03*
Y186500D02*
D03*
Y194500D02*
D03*
Y252000D02*
D03*
Y260000D02*
D03*
Y317000D02*
D03*
Y325000D02*
D03*
Y382000D02*
D03*
Y390000D02*
D03*
X482500Y440500D02*
D03*
Y448500D02*
D03*
X516000Y349500D02*
D03*
Y357500D02*
D03*
Y284500D02*
D03*
Y292500D02*
D03*
Y219500D02*
D03*
Y227500D02*
D03*
X483000Y161000D02*
D03*
Y169000D02*
D03*
D57*
X410000Y407000D02*
D03*
X460000Y168500D02*
D03*
X426000Y407000D02*
D03*
X460000Y151500D02*
D03*
D58*
X483500Y410000D02*
D03*
X496000Y336500D02*
D03*
X462000Y241000D02*
D03*
X497000Y240500D02*
D03*
X493500Y208000D02*
D03*
X479500Y194000D02*
D03*
X459000Y197000D02*
D03*
X459500Y219500D02*
D03*
X460500Y265500D02*
D03*
X480000Y297500D02*
D03*
X463000Y313500D02*
D03*
X493500Y307000D02*
D03*
X473000Y328500D02*
D03*
X485500Y357000D02*
D03*
X458000Y358000D02*
D03*
X485500Y373500D02*
D03*
X457500Y372500D02*
D03*
X484500Y391500D02*
D03*
X457000Y392500D02*
D03*
X326000Y209000D02*
D03*
X358885Y273844D02*
D03*
X329000Y368500D02*
D03*
X373000Y356000D02*
D03*
X371000Y350888D02*
D03*
X359000Y305000D02*
D03*
X500000Y422955D02*
D03*
X495000D02*
D03*
X354500Y276000D02*
D03*
X357000Y298000D02*
D03*
X441000Y237000D02*
D03*
X392500Y252500D02*
D03*
X520000Y148500D02*
D03*
X534000Y396455D02*
D03*
X529000D02*
D03*
X429000Y395000D02*
D03*
X529000Y201425D02*
D03*
X534000D02*
D03*
Y363965D02*
D03*
X444500Y368500D02*
D03*
X529000Y363965D02*
D03*
X447005Y322417D02*
D03*
X529000Y169000D02*
D03*
X534000D02*
D03*
X529000Y234006D02*
D03*
X534000Y234000D02*
D03*
X529000Y266496D02*
D03*
X534000D02*
D03*
X529000Y298986D02*
D03*
X534000D02*
D03*
X529000Y331475D02*
D03*
X534000D02*
D03*
X424000Y307000D02*
D03*
X419500Y312500D02*
D03*
X406500Y285000D02*
D03*
X362500Y359500D02*
D03*
X505000Y422000D02*
D03*
X445500Y299000D02*
D03*
X444500Y306500D02*
D03*
Y314000D02*
D03*
Y333000D02*
D03*
X439000Y353000D02*
D03*
X442000Y342000D02*
D03*
X427500Y283000D02*
D03*
X383000Y312500D02*
D03*
X386000Y233453D02*
D03*
X381000Y330500D02*
D03*
X387702Y329500D02*
D03*
X394500Y324000D02*
D03*
X387635Y294781D02*
D03*
X388500Y300000D02*
D03*
X382000Y291000D02*
D03*
X400071Y285425D02*
D03*
X389000Y288000D02*
D03*
X427500Y312000D02*
D03*
X379500Y285000D02*
D03*
Y297472D02*
D03*
X380000Y303000D02*
D03*
X389500Y305500D02*
D03*
X421571Y322929D02*
D03*
X388000Y309500D02*
D03*
X379500Y316000D02*
D03*
X366500Y285500D02*
D03*
X399500Y281000D02*
D03*
X397469Y264559D02*
D03*
X400500Y267500D02*
D03*
X409494Y243006D02*
D03*
X440500Y251000D02*
D03*
X444000Y228000D02*
D03*
X431429Y356571D02*
D03*
X391000Y268000D02*
D03*
Y261500D02*
D03*
X406321Y259679D02*
D03*
X427000Y326500D02*
D03*
X424170Y317330D02*
D03*
X440500Y385000D02*
D03*
X424500Y389000D02*
D03*
X433500Y374000D02*
D03*
X439000Y368000D02*
D03*
X444000Y356000D02*
D03*
X372000Y336500D02*
D03*
X367000Y271500D02*
D03*
X378500Y322000D02*
D03*
X405000Y267500D02*
D03*
X415000Y270000D02*
D03*
X410000Y281000D02*
D03*
X399000Y330500D02*
D03*
X430000Y279000D02*
D03*
X417000Y240500D02*
D03*
X418000Y233000D02*
D03*
X387000Y246500D02*
D03*
Y239500D02*
D03*
X412500Y328500D02*
D03*
X371000Y268000D02*
D03*
X435500Y380500D02*
D03*
X477500Y146500D02*
D03*
X483500D02*
D03*
X543500Y173500D02*
D03*
Y206000D02*
D03*
Y238500D02*
D03*
Y271000D02*
D03*
Y303500D02*
D03*
Y336000D02*
D03*
Y368500D02*
D03*
X543000Y401000D02*
D03*
D59*
X423504Y249000D02*
D03*
X430000D02*
D03*
Y238722D02*
D03*
X423504D02*
D03*
D60*
X386561Y249827D02*
D03*
Y228173D02*
D03*
X399439D02*
D03*
Y249827D02*
D03*
D61*
X393500Y378306D02*
D03*
X388500D02*
D03*
X383500D02*
D03*
X378500D02*
D03*
Y359695D02*
D03*
X383500D02*
D03*
X388500D02*
D03*
D62*
X393500D02*
D03*
D63*
X394000Y395847D02*
D03*
Y388957D02*
D03*
X378000D02*
D03*
Y395847D02*
D03*
D64*
X390504Y349500D02*
D03*
X383457D02*
D03*
D65*
X505000Y427500D02*
D03*
X500000D02*
D03*
X495000D02*
D03*
X490000D02*
D03*
Y448928D02*
D03*
X495000D02*
D03*
X500000D02*
D03*
X505000D02*
D03*
X539000Y401000D02*
D03*
X534000D02*
D03*
X529000D02*
D03*
X524000D02*
D03*
Y422428D02*
D03*
X529000D02*
D03*
X534000D02*
D03*
X539000D02*
D03*
Y292469D02*
D03*
X534000D02*
D03*
X529000D02*
D03*
X524000D02*
D03*
Y271041D02*
D03*
X529000D02*
D03*
X534000D02*
D03*
X539000D02*
D03*
X508000Y169428D02*
D03*
X503000D02*
D03*
X498000D02*
D03*
X493000D02*
D03*
Y148000D02*
D03*
X498000D02*
D03*
X503000D02*
D03*
X508000D02*
D03*
X539000Y195000D02*
D03*
X534000D02*
D03*
X529000D02*
D03*
X524000D02*
D03*
Y173572D02*
D03*
X529000D02*
D03*
X534000D02*
D03*
X539000D02*
D03*
Y227490D02*
D03*
X534000D02*
D03*
X529000D02*
D03*
X524000D02*
D03*
Y206062D02*
D03*
X529000D02*
D03*
X534000D02*
D03*
X539000D02*
D03*
Y259979D02*
D03*
X534000D02*
D03*
X529000D02*
D03*
X524000D02*
D03*
Y238551D02*
D03*
X529000D02*
D03*
X534000D02*
D03*
X539000D02*
D03*
Y324959D02*
D03*
X534000D02*
D03*
X529000D02*
D03*
X524000D02*
D03*
Y303531D02*
D03*
X529000D02*
D03*
X534000D02*
D03*
X539000D02*
D03*
Y357449D02*
D03*
X534000D02*
D03*
X529000D02*
D03*
X524000D02*
D03*
Y336021D02*
D03*
X529000D02*
D03*
X534000D02*
D03*
X539000D02*
D03*
Y389938D02*
D03*
X534000D02*
D03*
X529000D02*
D03*
X524000D02*
D03*
Y368510D02*
D03*
X529000D02*
D03*
X534000D02*
D03*
X539000D02*
D03*
D66*
X497500Y438214D02*
D03*
X531500Y411714D02*
D03*
Y281755D02*
D03*
X500500Y158714D02*
D03*
X531500Y184286D02*
D03*
Y216776D02*
D03*
Y249265D02*
D03*
Y314245D02*
D03*
Y346734D02*
D03*
Y379224D02*
D03*
D67*
X500500Y195000D02*
X524000D01*
X472500Y448500D02*
X472728Y448272D01*
X476500D01*
Y448500D02*
X476614Y448386D01*
X482386D01*
X482500Y448500D01*
X489572D01*
X490000Y448928D01*
X516438Y390000D02*
X524000D01*
X516448Y357500D02*
X524000D01*
X516479Y260000D02*
X524000D01*
X516490Y227500D02*
X524000D01*
X509500Y415000D02*
X509614Y414886D01*
X500500Y390000D02*
X516000D01*
X501000Y357500D02*
X516000D01*
X500500Y325000D02*
X516000D01*
X501500Y292500D02*
X516000D01*
X500500Y260000D02*
X516000D01*
X500000Y227500D02*
X516000D01*
X504500Y415000D02*
X504728Y414772D01*
X509500D01*
X509614Y414886D02*
X515886D01*
X516000Y415000D01*
X516558D02*
X517590Y416032D01*
X517604D02*
X523104Y421532D01*
X517590Y416032D02*
X517604D01*
X523130Y421532D02*
Y421558D01*
X523104Y421532D02*
X523130D01*
Y421558D02*
X524000Y422428D01*
X516000Y390000D02*
X516438D01*
X516000Y357500D02*
X516448D01*
X516459Y325000D02*
X523500D01*
X516000D02*
X516459D01*
X516469Y292500D02*
X523500D01*
X516000D02*
X516469D01*
X516000Y260000D02*
X516479D01*
X516000Y227500D02*
X516490D01*
X476500Y169272D02*
Y186500D01*
X483140Y169000D02*
X492130D01*
X483000D02*
Y188500D01*
M02*
