M48
;Layer_Color=9474304
;FILE_FORMAT=2:4
INCH,TZ
;TYPE=PLATED
T01F00S00C0.0118
T02F00S00C0.0300
T03F00S00C0.0420
T04F00S00C0.0433
T05F00S00C0.0866
T06F00S00C0.0906
T07F00S00C0.1772
;TYPE=NON_PLATED
T08F00S00C0.0970
%
T01
X47750Y14650
X48350
X52000Y14850
X52900Y16900
X53400
X54350Y17350
Y20600
X53400Y20143
X52900
Y23401
X53400Y23400
X54350Y23850
Y27100
X53400Y26650
X52900
Y29899
X53400
X54350Y30350
X49350Y30700
X48000Y29750
X49700Y24050
X49350Y20800
X47950Y19400
X45900Y19700
X45950Y21950
X46200Y24100
X44100Y23700
X44400Y22800
X44050Y25100
X41700Y24050
X41800Y23300
X40949Y24301
X40632Y25968
X40500Y26750
X40050
X39747Y26456
X39100Y26150
Y26800
X39250Y25250
X38700Y24650
Y23950
X38600Y23345
X37100Y26800
X36700Y27150
X35888Y27384
X35450Y27600
X36650Y28550
X37950Y28500
X38200Y29100
X37950Y29747
X38000Y30300
X38850Y30000
X38763Y29478
X38900Y28800
X40007Y28543
X39950Y28100
X41000
X40650Y28500
X42750Y28300
X43000Y27900
X41500Y27000
X42400Y30700
X42750Y31200
X44450Y30650
X44550Y29900
X46050Y26550
X38950Y30550
X38800Y30950
X35900Y30500
X35700Y29800
X32600Y20900
X38300Y31250
X37950Y31600
X37850Y32200
X38100Y33050
X38770Y32950
X39450Y32400
X39900Y33050
X41250Y32850
X42157Y32293
X42417Y31733
X41950Y31250
X42700Y32650
X44450Y33300
X44200Y34200
X43900Y35300
X44400Y35600
X44450Y36850
X43900Y36800
X43350Y37400
X43550Y38050
X44050Y38500
X42450Y38900
X42900Y39500
X45700Y39250
X45750Y37250
X45800Y35800
X43143Y35657
X44700Y32242
X44450Y31400
X46300Y31350
X37200Y33650
X37100Y35089
X37300Y35600
X36250Y35950
X32900Y36850
X48550Y37350
Y35700
X49600Y33650
X47300Y32850
X52900Y33148
X53400
X54350Y33600
Y36850
X53400Y36397
X52900
Y39645
X53400
X54300Y40100
X50500Y42200
X50000Y42295
X49500
X48350Y41000
X48450Y39150
T02
X48300Y16100
Y16900
X51600Y18650
Y19450
Y21950
Y22750
Y25200
Y26000
Y28450
Y29250
Y31700
Y32500
Y34950
Y35750
Y38200
Y39000
Y40700
Y41500
X48250Y44050
Y44850
T03
X53709Y15525
X54891
X56019Y18450
X57200
Y21721
X56019
Y24993
X57200
Y28264
X56019
X37400Y43900
X36219
X53700Y44100
X54881
X56019Y41350
X57200
Y38079
X56019
Y34807
X57200
Y31536
X56019
T04
X32768Y17774
Y18774
Y19774
X33768
Y18774
Y17774
X33100Y22700
X32100
Y23700
X33100
Y24700
X32100
T05
X57275Y15625
X32875Y15629
Y43975
X57275
T06
X46000Y15150
Y16850
X42600Y40700
X41000
T07
X42215Y43630
X45050Y43750
T08
X52863Y15525
X55737
X55172Y18450
X58046
Y21721
X55172
Y24993
X58046
Y28264
X55172
X38246Y43900
X35372
X52854Y44100
X55728
X55172Y41350
X58046
Y38079
X55172
Y34807
X58046
Y31536
X55172
M30
