G04*
G04 #@! TF.GenerationSoftware,Altium Limited,Altium Designer,25.7.1 (20)*
G04*
G04 Layer_Color=16711935*
%FSLAX25Y25*%
%MOIN*%
G70*
G04*
G04 #@! TF.SameCoordinates,AB6F645E-259A-4F5B-B6B0-06F7F874C2CD*
G04*
G04*
G04 #@! TF.FilePolarity,Positive*
G04*
G01*
G75*
%ADD71C,0.00394*%
D71*
X368819Y239194D02*
Y255925D01*
X346181Y239193D02*
X368819D01*
X346181Y255926D02*
X368819D01*
X346181Y239194D02*
Y255925D01*
X368819Y177944D02*
Y194675D01*
X346181Y177943D02*
X368819D01*
X346181Y194676D02*
X368819D01*
X346181Y177944D02*
Y194675D01*
X368819Y147194D02*
Y163925D01*
X346181Y147193D02*
X368819D01*
X346181Y163926D02*
X368819D01*
X346181Y147194D02*
Y163925D01*
X368819Y208694D02*
Y225425D01*
X346181Y208693D02*
X368819D01*
X346181Y225426D02*
X368819D01*
X346181Y208694D02*
Y225425D01*
X400819Y177944D02*
Y194675D01*
X378181Y177943D02*
X400819D01*
X378181Y194676D02*
X400819D01*
X378181Y177944D02*
Y194675D01*
X400819Y147194D02*
Y163925D01*
X378181Y147193D02*
X400819D01*
X378181Y163926D02*
X400819D01*
X378181Y147194D02*
Y163925D01*
X335181Y272106D02*
Y276437D01*
X332819Y272106D02*
Y276437D01*
X335181D01*
X332819Y272106D02*
X335181D01*
X400819Y208694D02*
Y225425D01*
X378181Y208693D02*
X400819D01*
X378181Y225426D02*
X400819D01*
X378181Y208694D02*
Y225425D01*
X435319Y147194D02*
Y163925D01*
X412681Y147193D02*
X435319D01*
X412681Y163926D02*
X435319D01*
X412681Y147194D02*
Y163925D01*
X435319Y177944D02*
Y194675D01*
X412681Y177943D02*
X435319D01*
X412681Y194676D02*
X435319D01*
X412681Y177944D02*
Y194675D01*
X435319Y208694D02*
Y225425D01*
X412681Y208693D02*
X435319D01*
X412681Y225426D02*
X435319D01*
X412681Y208694D02*
Y225425D01*
X358181Y286335D02*
Y290665D01*
X355819Y286335D02*
Y290665D01*
X358181D01*
X355819Y286335D02*
X358181D01*
X378835Y342319D02*
Y344681D01*
X383165Y342319D02*
Y344681D01*
X378835D02*
X383165D01*
X378835Y342319D02*
X383165D01*
X378555Y350370D02*
X385445D01*
X378555Y346630D02*
X385445D01*
X378555D02*
Y350370D01*
X385445Y346630D02*
Y350370D01*
M02*
