G04*
G04 #@! TF.GenerationSoftware,Altium Limited,Altium Designer,25.7.1 (20)*
G04*
G04 Layer_Color=16711935*
%FSLAX25Y25*%
%MOIN*%
G70*
G04*
G04 #@! TF.SameCoordinates,4004DD4F-5307-4C4F-B8C3-9824D0AE2BA4*
G04*
G04*
G04 #@! TF.FilePolarity,Positive*
G04*
G01*
G75*
%ADD12C,0.00787*%
%ADD70C,0.00197*%
D12*
X375360Y354440D02*
X396640D01*
X375360D02*
Y383560D01*
X396640D01*
Y354440D02*
Y383560D01*
D70*
X511272Y409457D02*
Y416543D01*
X507728Y409457D02*
Y416543D01*
Y409457D02*
X511272D01*
X507728Y416543D02*
X511272D01*
X509500Y411917D02*
Y414083D01*
X508417Y413000D02*
X510583D01*
X508417Y387500D02*
X510583D01*
X509500Y386417D02*
Y388583D01*
X507728Y391043D02*
X511272D01*
X507728Y383957D02*
X511272D01*
X507728D02*
Y391043D01*
X511272Y383957D02*
Y391043D01*
X413228Y280957D02*
Y288043D01*
X416772Y280957D02*
Y288043D01*
X413228D02*
X416772D01*
X413228Y280957D02*
X416772D01*
X415000Y283417D02*
Y285583D01*
X413917Y284500D02*
X416083D01*
X418417D02*
X420583D01*
X419500Y283417D02*
Y285583D01*
X417728Y280957D02*
X421272D01*
X417728Y288043D02*
X421272D01*
Y280957D02*
Y288043D01*
X417728Y280957D02*
Y288043D01*
X428957Y322772D02*
X436043D01*
X428957Y319228D02*
X436043D01*
Y322772D01*
X428957Y319228D02*
Y322772D01*
X431417Y321000D02*
X433583D01*
X432500Y319917D02*
Y322083D01*
X389457Y281228D02*
X396543D01*
X389457Y284772D02*
X396543D01*
X389457Y281228D02*
Y284772D01*
X396543Y281228D02*
Y284772D01*
X391917Y283000D02*
X394083D01*
X393000Y281917D02*
Y284083D01*
X511272Y351457D02*
Y358543D01*
X507728Y351457D02*
Y358543D01*
Y351457D02*
X511272D01*
X507728Y358543D02*
X511272D01*
X509500Y353917D02*
Y356083D01*
X508417Y355000D02*
X510583D01*
X511272Y318957D02*
Y326043D01*
X507728Y318957D02*
Y326043D01*
Y318957D02*
X511272D01*
X507728Y326043D02*
X511272D01*
X509500Y321417D02*
Y323583D01*
X508417Y322500D02*
X510583D01*
X511272Y286457D02*
Y293543D01*
X507728Y286457D02*
Y293543D01*
Y286457D02*
X511272D01*
X507728Y293543D02*
X511272D01*
X509500Y288917D02*
Y291083D01*
X508417Y290000D02*
X510583D01*
X511272Y221457D02*
Y228543D01*
X507728Y221457D02*
Y228543D01*
Y221457D02*
X511272D01*
X507728Y228543D02*
X511272D01*
X509500Y223917D02*
Y226083D01*
X508417Y225000D02*
X510583D01*
X508417Y192500D02*
X510583D01*
X509500Y191417D02*
Y193583D01*
X507728Y196043D02*
X511272D01*
X507728Y188957D02*
X511272D01*
X507728D02*
Y196043D01*
X511272Y188957D02*
Y196043D01*
Y253957D02*
Y261043D01*
X507728Y253957D02*
Y261043D01*
Y253957D02*
X511272D01*
X507728Y261043D02*
X511272D01*
X509500Y256417D02*
Y258583D01*
X508417Y257500D02*
X510583D01*
X385000Y342417D02*
Y344583D01*
X383917Y343500D02*
X386083D01*
X381457Y341728D02*
Y345272D01*
X388543Y341728D02*
Y345272D01*
X381457Y341728D02*
X388543D01*
X381457Y345272D02*
X388543D01*
X381095Y346153D02*
Y352847D01*
X392905Y346153D02*
Y352847D01*
X381095Y346153D02*
X392905D01*
X381095Y352847D02*
X392905D01*
X385032Y349500D02*
X388968D01*
X387000Y347532D02*
Y351468D01*
X478272Y163957D02*
Y171043D01*
X474728Y163957D02*
Y171043D01*
Y163957D02*
X478272D01*
X474728Y171043D02*
X478272D01*
X476500Y166417D02*
Y168583D01*
X475417Y167500D02*
X477583D01*
X475417Y446500D02*
X477583D01*
X476500Y445417D02*
Y447583D01*
X474728Y450043D02*
X478272D01*
X474728Y442957D02*
X478272D01*
X474728D02*
Y450043D01*
X478272Y442957D02*
Y450043D01*
M02*
