G04*
G04 #@! TF.GenerationSoftware,Altium Limited,Altium Designer,25.7.1 (20)*
G04*
G04 Layer_Color=32896*
%FSLAX25Y25*%
%MOIN*%
G70*
G04*
G04 #@! TF.SameCoordinates,AB6F645E-259A-4F5B-B6B0-06F7F874C2CD*
G04*
G04*
G04 #@! TF.FilePolarity,Positive*
G04*
G01*
G75*
%ADD12C,0.00787*%
%ADD71C,0.00394*%
G36*
X386339Y371799D02*
X386371Y371819D01*
X386401Y371841D01*
X386428Y371863D01*
X386455Y371883D01*
X386475Y371903D01*
X386492Y371918D01*
X386504Y371927D01*
X386507Y371930D01*
X386524Y371947D01*
X386544Y371969D01*
X386568Y371994D01*
X386593Y372021D01*
X386645Y372080D01*
X386696Y372139D01*
X386745Y372198D01*
X386768Y372222D01*
X386787Y372245D01*
X386802Y372262D01*
X386814Y372277D01*
X386822Y372287D01*
X386824Y372289D01*
X386876Y372348D01*
X386922Y372405D01*
X386969Y372456D01*
X387011Y372503D01*
X387050Y372547D01*
X387087Y372584D01*
X387122Y372621D01*
X387151Y372651D01*
X387178Y372678D01*
X387200Y372702D01*
X387220Y372720D01*
X387237Y372737D01*
X387250Y372749D01*
X387260Y372756D01*
X387264Y372761D01*
X387267Y372764D01*
X387326Y372815D01*
X387383Y372857D01*
X387437Y372894D01*
X387481Y372921D01*
X387520Y372943D01*
X387535Y372951D01*
X387550Y372958D01*
X387560Y372963D01*
X387567Y372968D01*
X387572Y372970D01*
X387574D01*
X387629Y372992D01*
X387683Y373007D01*
X387734Y373020D01*
X387778Y373027D01*
X387818Y373032D01*
X387833D01*
X387847Y373034D01*
X387857D01*
X387865D01*
X387870D01*
X387872D01*
X387926Y373032D01*
X387978Y373025D01*
X388029Y373015D01*
X388076Y373002D01*
X388121Y372985D01*
X388160Y372968D01*
X388199Y372948D01*
X388234Y372929D01*
X388266Y372909D01*
X388293Y372889D01*
X388315Y372872D01*
X388334Y372855D01*
X388352Y372843D01*
X388362Y372833D01*
X388369Y372825D01*
X388371Y372823D01*
X388406Y372781D01*
X388438Y372737D01*
X388465Y372692D01*
X388487Y372643D01*
X388507Y372597D01*
X388524Y372547D01*
X388536Y372500D01*
X388548Y372456D01*
X388556Y372412D01*
X388563Y372373D01*
X388568Y372338D01*
X388571Y372309D01*
Y372282D01*
X388573Y372264D01*
Y372247D01*
X388571Y372181D01*
X388566Y372119D01*
X388556Y372060D01*
X388544Y372006D01*
X388529Y371954D01*
X388514Y371908D01*
X388497Y371866D01*
X388480Y371827D01*
X388462Y371792D01*
X388445Y371760D01*
X388430Y371735D01*
X388416Y371713D01*
X388403Y371696D01*
X388393Y371684D01*
X388389Y371676D01*
X388386Y371674D01*
X388349Y371637D01*
X388310Y371603D01*
X388268Y371573D01*
X388224Y371546D01*
X388177Y371524D01*
X388133Y371504D01*
X388088Y371487D01*
X388047Y371472D01*
X388005Y371462D01*
X387968Y371453D01*
X387933Y371445D01*
X387904Y371438D01*
X387879Y371435D01*
X387860Y371433D01*
X387850Y371430D01*
X387845D01*
X387813Y371748D01*
X387857Y371750D01*
X387897Y371753D01*
X387936Y371760D01*
X387970Y371767D01*
X388002Y371780D01*
X388034Y371790D01*
X388061Y371802D01*
X388086Y371814D01*
X388108Y371827D01*
X388128Y371839D01*
X388145Y371851D01*
X388157Y371861D01*
X388167Y371868D01*
X388177Y371876D01*
X388179Y371878D01*
X388182Y371881D01*
X388207Y371908D01*
X388226Y371935D01*
X388246Y371964D01*
X388261Y371994D01*
X388285Y372053D01*
X388300Y372112D01*
X388305Y372136D01*
X388310Y372161D01*
X388312Y372183D01*
X388315Y372203D01*
X388317Y372218D01*
Y372240D01*
X388315Y372279D01*
X388312Y372316D01*
X388298Y372382D01*
X388278Y372442D01*
X388266Y372468D01*
X388253Y372491D01*
X388241Y372513D01*
X388229Y372530D01*
X388219Y372547D01*
X388209Y372559D01*
X388202Y372569D01*
X388194Y372579D01*
X388192Y372582D01*
X388189Y372584D01*
X388165Y372609D01*
X388140Y372628D01*
X388113Y372646D01*
X388088Y372660D01*
X388037Y372685D01*
X387988Y372700D01*
X387943Y372710D01*
X387926Y372712D01*
X387911Y372714D01*
X387897Y372717D01*
X387887D01*
X387882D01*
X387879D01*
X387847Y372714D01*
X387813Y372710D01*
X387781Y372702D01*
X387747Y372695D01*
X387685Y372670D01*
X387629Y372643D01*
X387604Y372628D01*
X387579Y372616D01*
X387560Y372604D01*
X387542Y372591D01*
X387528Y372584D01*
X387518Y372577D01*
X387510Y372572D01*
X387508Y372569D01*
X387469Y372540D01*
X387429Y372503D01*
X387385Y372464D01*
X387341Y372422D01*
X387252Y372331D01*
X387166Y372237D01*
X387127Y372193D01*
X387090Y372151D01*
X387055Y372114D01*
X387028Y372080D01*
X387004Y372053D01*
X386986Y372031D01*
X386977Y372018D01*
X386972Y372013D01*
X386932Y371967D01*
X386893Y371920D01*
X386856Y371878D01*
X386822Y371839D01*
X386787Y371804D01*
X386755Y371770D01*
X386726Y371740D01*
X386701Y371713D01*
X386677Y371689D01*
X386654Y371669D01*
X386635Y371652D01*
X386620Y371637D01*
X386608Y371625D01*
X386598Y371617D01*
X386593Y371612D01*
X386590Y371610D01*
X386529Y371561D01*
X386470Y371519D01*
X386413Y371484D01*
X386362Y371455D01*
X386317Y371433D01*
X386300Y371426D01*
X386285Y371418D01*
X386273Y371413D01*
X386263Y371408D01*
X386258Y371406D01*
X386256D01*
X386216Y371393D01*
X386179Y371384D01*
X386143Y371379D01*
X386111Y371374D01*
X386081Y371371D01*
X386062D01*
X386047D01*
X386044D01*
X386042D01*
Y373037D01*
X386339D01*
Y371799D01*
D02*
G37*
G36*
X388563Y370648D02*
X387107D01*
X387021Y370646D01*
X386942Y370641D01*
X386871Y370633D01*
X386807Y370623D01*
X386748Y370611D01*
X386696Y370599D01*
X386649Y370584D01*
X386608Y370569D01*
X386573Y370555D01*
X386544Y370540D01*
X386519Y370528D01*
X386499Y370515D01*
X386485Y370505D01*
X386472Y370498D01*
X386467Y370493D01*
X386465Y370491D01*
X386435Y370459D01*
X386411Y370424D01*
X386389Y370385D01*
X386369Y370343D01*
X386354Y370299D01*
X386339Y370257D01*
X386320Y370171D01*
X386315Y370129D01*
X386310Y370092D01*
X386305Y370058D01*
X386302Y370026D01*
X386300Y370001D01*
Y369967D01*
X386302Y369890D01*
X386312Y369819D01*
X386327Y369758D01*
X386334Y369730D01*
X386342Y369704D01*
X386349Y369681D01*
X386357Y369662D01*
X386364Y369644D01*
X386371Y369630D01*
X386376Y369617D01*
X386381Y369610D01*
X386384Y369605D01*
Y369603D01*
X386418Y369551D01*
X386457Y369507D01*
X386497Y369472D01*
X386534Y369443D01*
X386568Y369421D01*
X386598Y369406D01*
X386608Y369401D01*
X386615Y369396D01*
X386620Y369393D01*
X386622D01*
X386654Y369384D01*
X386689Y369374D01*
X386726Y369367D01*
X386765Y369359D01*
X386844Y369349D01*
X386925Y369342D01*
X386962Y369339D01*
X386996Y369337D01*
X387026D01*
X387053Y369335D01*
X387075D01*
X387092D01*
X387105D01*
X387107D01*
X388563D01*
Y369000D01*
X387107D01*
X387033D01*
X386964Y369005D01*
X386900Y369010D01*
X386839Y369015D01*
X386782Y369022D01*
X386731Y369029D01*
X386684Y369039D01*
X386640Y369049D01*
X386603Y369057D01*
X386568Y369066D01*
X386541Y369074D01*
X386517Y369081D01*
X386499Y369086D01*
X386485Y369091D01*
X386477Y369096D01*
X386475D01*
X386433Y369115D01*
X386394Y369138D01*
X386357Y369162D01*
X386322Y369187D01*
X386290Y369212D01*
X386261Y369238D01*
X386234Y369266D01*
X386211Y369293D01*
X386189Y369317D01*
X386172Y369339D01*
X386155Y369361D01*
X386143Y369379D01*
X386133Y369393D01*
X386125Y369406D01*
X386123Y369413D01*
X386121Y369416D01*
X386098Y369460D01*
X386081Y369507D01*
X386064Y369553D01*
X386052Y369603D01*
X386030Y369699D01*
X386022Y369745D01*
X386015Y369792D01*
X386010Y369834D01*
X386007Y369873D01*
X386005Y369908D01*
X386002Y369937D01*
X386000Y369962D01*
Y369996D01*
X386002Y370063D01*
X386005Y370127D01*
X386012Y370186D01*
X386022Y370242D01*
X386032Y370294D01*
X386044Y370343D01*
X386056Y370387D01*
X386069Y370427D01*
X386081Y370464D01*
X386093Y370493D01*
X386106Y370520D01*
X386116Y370545D01*
X386125Y370562D01*
X386133Y370574D01*
X386135Y370582D01*
X386138Y370584D01*
X386165Y370626D01*
X386194Y370663D01*
X386224Y370697D01*
X386253Y370729D01*
X386285Y370756D01*
X386315Y370783D01*
X386344Y370806D01*
X386371Y370825D01*
X386399Y370843D01*
X386423Y370857D01*
X386445Y370869D01*
X386465Y370879D01*
X386480Y370887D01*
X386492Y370892D01*
X386499Y370897D01*
X386502D01*
X386546Y370911D01*
X386593Y370926D01*
X386691Y370946D01*
X386792Y370961D01*
X386841Y370968D01*
X386888Y370973D01*
X386932Y370975D01*
X386974Y370978D01*
X387011Y370980D01*
X387043D01*
X387070Y370983D01*
X387090D01*
X387102D01*
X387107D01*
X388563D01*
Y370648D01*
D02*
G37*
D12*
X375360Y354440D02*
X396640D01*
X375360D02*
Y383560D01*
X396640D01*
Y354440D02*
Y383560D01*
D71*
X508319Y415165D02*
X510681D01*
X508319Y410835D02*
X510681D01*
X508319D02*
Y415165D01*
X510681Y410835D02*
Y415165D01*
Y385335D02*
Y389665D01*
X508319Y385335D02*
Y389665D01*
Y385335D02*
X510681D01*
X508319Y389665D02*
X510681D01*
X413819Y282335D02*
X416181D01*
X413819Y286665D02*
X416181D01*
Y282335D02*
Y286665D01*
X413819Y282335D02*
Y286665D01*
X418319Y282335D02*
Y286665D01*
X420681Y282335D02*
Y286665D01*
X418319D02*
X420681D01*
X418319Y282335D02*
X420681D01*
X430335Y319819D02*
Y322181D01*
X434665Y319819D02*
Y322181D01*
X430335Y319819D02*
X434665D01*
X430335Y322181D02*
X434665D01*
X395165Y281819D02*
Y284181D01*
X390835Y281819D02*
Y284181D01*
X395165D01*
X390835Y281819D02*
X395165D01*
X508319Y357165D02*
X510681D01*
X508319Y352835D02*
X510681D01*
X508319D02*
Y357165D01*
X510681Y352835D02*
Y357165D01*
X508319Y324665D02*
X510681D01*
X508319Y320335D02*
X510681D01*
X508319D02*
Y324665D01*
X510681Y320335D02*
Y324665D01*
X508319Y292165D02*
X510681D01*
X508319Y287835D02*
X510681D01*
X508319D02*
Y292165D01*
X510681Y287835D02*
Y292165D01*
X508319Y227165D02*
X510681D01*
X508319Y222835D02*
X510681D01*
X508319D02*
Y227165D01*
X510681Y222835D02*
Y227165D01*
Y190335D02*
Y194665D01*
X508319Y190335D02*
Y194665D01*
Y190335D02*
X510681D01*
X508319Y194665D02*
X510681D01*
X508319Y259665D02*
X510681D01*
X508319Y255335D02*
X510681D01*
X508319D02*
Y259665D01*
X510681Y255335D02*
Y259665D01*
X382835Y344681D02*
X387165D01*
X382835Y342319D02*
X387165D01*
Y344681D01*
X382835Y342319D02*
Y344681D01*
X382669Y352354D02*
X391331D01*
X382669Y346646D02*
X391331D01*
Y352354D01*
X382669Y346646D02*
Y352354D01*
X475319Y169665D02*
X477681D01*
X475319Y165335D02*
X477681D01*
X475319D02*
Y169665D01*
X477681Y165335D02*
Y169665D01*
Y444335D02*
Y448665D01*
X475319Y444335D02*
Y448665D01*
Y444335D02*
X477681D01*
X475319Y448665D02*
X477681D01*
M02*
