G04*
G04 #@! TF.GenerationSoftware,Altium Limited,Altium Designer,25.7.1 (20)*
G04*
G04 Layer_Color=128*
%FSLAX25Y25*%
%MOIN*%
G70*
G04*
G04 #@! TF.SameCoordinates,4004DD4F-5307-4C4F-B8C3-9824D0AE2BA4*
G04*
G04*
G04 #@! TF.FilePolarity,Positive*
G04*
G01*
G75*
%ADD23R,0.03150X0.04134*%
G04:AMPARAMS|DCode=25|XSize=21.65mil|YSize=19.68mil|CornerRadius=2.46mil|HoleSize=0mil|Usage=FLASHONLY|Rotation=180.000|XOffset=0mil|YOffset=0mil|HoleType=Round|Shape=RoundedRectangle|*
%AMROUNDEDRECTD25*
21,1,0.02165,0.01476,0,0,180.0*
21,1,0.01673,0.01968,0,0,180.0*
1,1,0.00492,-0.00837,0.00738*
1,1,0.00492,0.00837,0.00738*
1,1,0.00492,0.00837,-0.00738*
1,1,0.00492,-0.00837,-0.00738*
%
%ADD25ROUNDEDRECTD25*%
G04:AMPARAMS|DCode=26|XSize=21.65mil|YSize=19.68mil|CornerRadius=2.46mil|HoleSize=0mil|Usage=FLASHONLY|Rotation=90.000|XOffset=0mil|YOffset=0mil|HoleType=Round|Shape=RoundedRectangle|*
%AMROUNDEDRECTD26*
21,1,0.02165,0.01476,0,0,90.0*
21,1,0.01673,0.01968,0,0,90.0*
1,1,0.00492,0.00738,0.00837*
1,1,0.00492,0.00738,-0.00837*
1,1,0.00492,-0.00738,-0.00837*
1,1,0.00492,-0.00738,0.00837*
%
%ADD26ROUNDEDRECTD26*%
%ADD29R,0.04134X0.03150*%
%ADD59R,0.03700X0.05478*%
%ADD60R,0.04878X0.02197*%
G04:AMPARAMS|DCode=61|XSize=85.4mil|YSize=22.92mil|CornerRadius=11.46mil|HoleSize=0mil|Usage=FLASHONLY|Rotation=90.000|XOffset=0mil|YOffset=0mil|HoleType=Round|Shape=RoundedRectangle|*
%AMROUNDEDRECTD61*
21,1,0.08540,0.00000,0,0,90.0*
21,1,0.06248,0.02292,0,0,90.0*
1,1,0.02292,0.00000,0.03124*
1,1,0.02292,0.00000,-0.03124*
1,1,0.02292,0.00000,-0.03124*
1,1,0.02292,0.00000,0.03124*
%
%ADD61ROUNDEDRECTD61*%
%ADD62R,0.02292X0.08540*%
%ADD63R,0.03937X0.02953*%
G04:AMPARAMS|DCode=64|XSize=51.18mil|YSize=29.92mil|CornerRadius=3.74mil|HoleSize=0mil|Usage=FLASHONLY|Rotation=270.000|XOffset=0mil|YOffset=0mil|HoleType=Round|Shape=RoundedRectangle|*
%AMROUNDEDRECTD64*
21,1,0.05118,0.02244,0,0,270.0*
21,1,0.04370,0.02992,0,0,270.0*
1,1,0.00748,-0.01122,-0.02185*
1,1,0.00748,-0.01122,0.02185*
1,1,0.00748,0.01122,0.02185*
1,1,0.00748,0.01122,-0.02185*
%
%ADD64ROUNDEDRECTD64*%
%ADD65R,0.02197X0.05728*%
G36*
X537806Y211819D02*
X531894D01*
Y216382D01*
X537806D01*
Y211819D01*
D02*
G37*
G36*
X531106D02*
X525194D01*
Y216382D01*
X531106D01*
Y211819D01*
D02*
G37*
G36*
X537806Y184680D02*
X531894D01*
Y189242D01*
X537806D01*
Y184680D01*
D02*
G37*
G36*
X531106D02*
X525194D01*
Y189242D01*
X531106D01*
Y184680D01*
D02*
G37*
G36*
X537806Y179330D02*
X531894D01*
Y183892D01*
X537806D01*
Y179330D01*
D02*
G37*
G36*
X531106D02*
X525194D01*
Y183892D01*
X531106D01*
Y179330D01*
D02*
G37*
G36*
X506806Y159108D02*
X500894D01*
Y163670D01*
X506806D01*
Y159108D01*
D02*
G37*
G36*
X500106D02*
X494194D01*
Y163670D01*
X500106D01*
Y159108D01*
D02*
G37*
G36*
X506806Y153758D02*
X500894D01*
Y158320D01*
X506806D01*
Y153758D01*
D02*
G37*
G36*
X500106D02*
X494194D01*
Y158320D01*
X500106D01*
Y153758D01*
D02*
G37*
G36*
X537806Y282149D02*
X531894D01*
Y286711D01*
X537806D01*
Y282149D01*
D02*
G37*
G36*
X531106D02*
X525194D01*
Y286711D01*
X531106D01*
Y282149D01*
D02*
G37*
G36*
X537806Y276799D02*
X531894D01*
Y281361D01*
X537806D01*
Y276799D01*
D02*
G37*
G36*
X531106D02*
X525194D01*
Y281361D01*
X531106D01*
Y276799D01*
D02*
G37*
G36*
X537806Y249659D02*
X531894D01*
Y254222D01*
X537806D01*
Y249659D01*
D02*
G37*
G36*
X531106D02*
X525194D01*
Y254222D01*
X531106D01*
Y249659D01*
D02*
G37*
G36*
X537806Y244309D02*
X531894D01*
Y248872D01*
X537806D01*
Y244309D01*
D02*
G37*
G36*
X531106D02*
X525194D01*
Y248872D01*
X531106D01*
Y244309D01*
D02*
G37*
G36*
X537806Y217169D02*
X531894D01*
Y221732D01*
X537806D01*
Y217169D01*
D02*
G37*
G36*
X531106D02*
X525194D01*
Y221732D01*
X531106D01*
Y217169D01*
D02*
G37*
G36*
X537806Y374268D02*
X531894D01*
Y378831D01*
X537806D01*
Y374268D01*
D02*
G37*
G36*
X531106D02*
X525194D01*
Y378831D01*
X531106D01*
Y374268D01*
D02*
G37*
G36*
X537806Y347128D02*
X531894D01*
Y351691D01*
X537806D01*
Y347128D01*
D02*
G37*
G36*
X531106D02*
X525194D01*
Y351691D01*
X531106D01*
Y347128D01*
D02*
G37*
G36*
X537806Y341778D02*
X531894D01*
Y346341D01*
X537806D01*
Y341778D01*
D02*
G37*
G36*
X531106D02*
X525194D01*
Y346341D01*
X531106D01*
Y341778D01*
D02*
G37*
G36*
X537806Y314638D02*
X531894D01*
Y319201D01*
X537806D01*
Y314638D01*
D02*
G37*
G36*
X531106D02*
X525194D01*
Y319201D01*
X531106D01*
Y314638D01*
D02*
G37*
G36*
X537806Y309289D02*
X531894D01*
Y313851D01*
X537806D01*
Y309289D01*
D02*
G37*
G36*
X531106D02*
X525194D01*
Y313851D01*
X531106D01*
Y309289D01*
D02*
G37*
G36*
X503806Y438608D02*
X497894D01*
Y443170D01*
X503806D01*
Y438608D01*
D02*
G37*
G36*
X497106D02*
X491194D01*
Y443170D01*
X497106D01*
Y438608D01*
D02*
G37*
G36*
X503806Y433258D02*
X497894D01*
Y437820D01*
X503806D01*
Y433258D01*
D02*
G37*
G36*
X497106D02*
X491194D01*
Y437820D01*
X497106D01*
Y433258D01*
D02*
G37*
G36*
X537806Y412108D02*
X531894D01*
Y416670D01*
X537806D01*
Y412108D01*
D02*
G37*
G36*
X531106D02*
X525194D01*
Y416670D01*
X531106D01*
Y412108D01*
D02*
G37*
G36*
X537806Y406758D02*
X531894D01*
Y411320D01*
X537806D01*
Y406758D01*
D02*
G37*
G36*
X531106D02*
X525194D01*
Y411320D01*
X531106D01*
Y406758D01*
D02*
G37*
G36*
X537806Y379618D02*
X531894D01*
Y384180D01*
X537806D01*
Y379618D01*
D02*
G37*
G36*
X531106D02*
X525194D01*
Y384180D01*
X531106D01*
Y379618D01*
D02*
G37*
D23*
X430055Y256000D02*
D03*
X436945D02*
D03*
X423445D02*
D03*
X416555D02*
D03*
X386445Y268000D02*
D03*
X379555D02*
D03*
X386445Y261500D02*
D03*
X379555D02*
D03*
D25*
X509500Y414772D02*
D03*
Y411228D02*
D03*
Y385728D02*
D03*
Y389272D02*
D03*
X415000Y282728D02*
D03*
Y286272D02*
D03*
X419500D02*
D03*
Y282728D02*
D03*
X509500Y356772D02*
D03*
Y353228D02*
D03*
Y324272D02*
D03*
Y320728D02*
D03*
Y291772D02*
D03*
Y288228D02*
D03*
Y226772D02*
D03*
Y223228D02*
D03*
Y190728D02*
D03*
Y194272D02*
D03*
Y259272D02*
D03*
Y255728D02*
D03*
X476500Y169272D02*
D03*
Y165728D02*
D03*
Y444728D02*
D03*
Y448272D02*
D03*
D26*
X430728Y321000D02*
D03*
X434272D02*
D03*
X394772Y283000D02*
D03*
X391228D02*
D03*
X386772Y343500D02*
D03*
X383228D02*
D03*
D29*
X386000Y396055D02*
D03*
Y402945D02*
D03*
D59*
X423504Y249000D02*
D03*
X430000D02*
D03*
Y238722D02*
D03*
X423504D02*
D03*
D60*
X386561Y249827D02*
D03*
Y228173D02*
D03*
X399439D02*
D03*
Y249827D02*
D03*
D61*
X393500Y378306D02*
D03*
X388500D02*
D03*
X383500D02*
D03*
X378500D02*
D03*
Y359695D02*
D03*
X383500D02*
D03*
X388500D02*
D03*
D62*
X393500D02*
D03*
D63*
X394000Y395847D02*
D03*
Y388957D02*
D03*
X378000D02*
D03*
Y395847D02*
D03*
D64*
X390504Y349500D02*
D03*
X383457D02*
D03*
D65*
X505000Y427500D02*
D03*
X500000D02*
D03*
X495000D02*
D03*
X490000D02*
D03*
Y448928D02*
D03*
X495000D02*
D03*
X500000D02*
D03*
X505000D02*
D03*
X539000Y401000D02*
D03*
X534000D02*
D03*
X529000D02*
D03*
X524000D02*
D03*
Y422428D02*
D03*
X529000D02*
D03*
X534000D02*
D03*
X539000D02*
D03*
Y292469D02*
D03*
X534000D02*
D03*
X529000D02*
D03*
X524000D02*
D03*
Y271041D02*
D03*
X529000D02*
D03*
X534000D02*
D03*
X539000D02*
D03*
X508000Y169428D02*
D03*
X503000D02*
D03*
X498000D02*
D03*
X493000D02*
D03*
Y148000D02*
D03*
X498000D02*
D03*
X503000D02*
D03*
X508000D02*
D03*
X539000Y195000D02*
D03*
X534000D02*
D03*
X529000D02*
D03*
X524000D02*
D03*
Y173572D02*
D03*
X529000D02*
D03*
X534000D02*
D03*
X539000D02*
D03*
Y227490D02*
D03*
X534000D02*
D03*
X529000D02*
D03*
X524000D02*
D03*
Y206062D02*
D03*
X529000D02*
D03*
X534000D02*
D03*
X539000D02*
D03*
Y259979D02*
D03*
X534000D02*
D03*
X529000D02*
D03*
X524000D02*
D03*
Y238551D02*
D03*
X529000D02*
D03*
X534000D02*
D03*
X539000D02*
D03*
Y324959D02*
D03*
X534000D02*
D03*
X529000D02*
D03*
X524000D02*
D03*
Y303531D02*
D03*
X529000D02*
D03*
X534000D02*
D03*
X539000D02*
D03*
Y357449D02*
D03*
X534000D02*
D03*
X529000D02*
D03*
X524000D02*
D03*
Y336021D02*
D03*
X529000D02*
D03*
X534000D02*
D03*
X539000D02*
D03*
Y389938D02*
D03*
X534000D02*
D03*
X529000D02*
D03*
X524000D02*
D03*
Y368510D02*
D03*
X529000D02*
D03*
X534000D02*
D03*
X539000D02*
D03*
M02*
