G04*
G04 #@! TF.GenerationSoftware,Altium Limited,Altium Designer,25.7.1 (20)*
G04*
G04 Layer_Color=32768*
%FSLAX25Y25*%
%MOIN*%
G70*
G04*
G04 #@! TF.SameCoordinates,4004DD4F-5307-4C4F-B8C3-9824D0AE2BA4*
G04*
G04*
G04 #@! TF.FilePolarity,Positive*
G04*
G01*
G75*
%ADD13C,0.00600*%
%ADD70C,0.00197*%
%ADD71C,0.00394*%
G36*
X388315Y428305D02*
X347874D01*
Y452205D01*
X388315D01*
Y428305D01*
D02*
G37*
G36*
X563126Y427795D02*
X522685D01*
Y451695D01*
X563126D01*
Y427795D01*
D02*
G37*
G36*
X507098Y447064D02*
X508350D01*
Y429364D01*
X507098D01*
Y423636D01*
X487902D01*
Y429364D01*
X486650D01*
Y447064D01*
X487902D01*
Y452792D01*
X507098D01*
Y447064D01*
D02*
G37*
G36*
X586315Y400295D02*
X545874D01*
Y424195D01*
X586315D01*
Y400295D01*
D02*
G37*
G36*
X541098Y420564D02*
X542350D01*
Y402864D01*
X541098D01*
Y397136D01*
X521902D01*
Y402864D01*
X520650D01*
Y420564D01*
X521902D01*
Y426292D01*
X541098D01*
Y420564D01*
D02*
G37*
G36*
X586315Y367581D02*
X545874D01*
Y391481D01*
X586315D01*
Y367581D01*
D02*
G37*
G36*
X541098Y388074D02*
X542350D01*
Y370374D01*
X541098D01*
Y364646D01*
X521902D01*
Y370374D01*
X520650D01*
Y388074D01*
X521902D01*
Y393802D01*
X541098D01*
Y388074D01*
D02*
G37*
G36*
X340031Y357945D02*
X315787D01*
Y428055D01*
X340031D01*
Y357945D01*
D02*
G37*
G36*
X586315Y334867D02*
X545874D01*
Y358767D01*
X586315D01*
Y334867D01*
D02*
G37*
G36*
X541098Y355585D02*
X542350D01*
Y337884D01*
X541098D01*
Y332157D01*
X521902D01*
Y337884D01*
X520650D01*
Y355585D01*
X521902D01*
Y361313D01*
X541098D01*
Y355585D01*
D02*
G37*
G36*
X586315Y302152D02*
X545874D01*
Y326052D01*
X586315D01*
Y302152D01*
D02*
G37*
G36*
X541098Y323095D02*
X542350D01*
Y305395D01*
X541098D01*
Y299667D01*
X521902D01*
Y305395D01*
X520650D01*
Y323095D01*
X521902D01*
Y328823D01*
X541098D01*
Y323095D01*
D02*
G37*
G36*
X340031Y283945D02*
X315787D01*
Y354055D01*
X340031D01*
Y283945D01*
D02*
G37*
G36*
X437300Y271700D02*
X368700D01*
Y340300D01*
X437300D01*
Y271700D01*
D02*
G37*
G36*
X586315Y269438D02*
X545874D01*
Y293338D01*
X586315D01*
Y269438D01*
D02*
G37*
G36*
X541098Y290605D02*
X542350D01*
Y272905D01*
X541098D01*
Y267177D01*
X521902D01*
Y272905D01*
X520650D01*
Y290605D01*
X521902D01*
Y296333D01*
X541098D01*
Y290605D01*
D02*
G37*
G36*
X329350Y255690D02*
X315650D01*
Y279310D01*
X329350D01*
Y255690D01*
D02*
G37*
G36*
X586315Y236724D02*
X545874D01*
Y260624D01*
X586315D01*
Y236724D01*
D02*
G37*
G36*
X432850Y234983D02*
X420654D01*
Y252739D01*
X432850D01*
Y234983D01*
D02*
G37*
G36*
X541098Y258115D02*
X542350D01*
Y240415D01*
X541098D01*
Y234687D01*
X521902D01*
Y240415D01*
X520650D01*
Y258115D01*
X521902D01*
Y263843D01*
X541098D01*
Y258115D01*
D02*
G37*
G36*
X401500Y251925D02*
X402878D01*
Y226075D01*
X401500D01*
Y222250D01*
X384500D01*
Y226075D01*
X383122D01*
Y251925D01*
X384500D01*
Y255750D01*
X401500D01*
Y251925D01*
D02*
G37*
G36*
X586315Y204010D02*
X545874D01*
Y227910D01*
X586315D01*
Y204010D01*
D02*
G37*
G36*
X541098Y225626D02*
X542350D01*
Y207926D01*
X541098D01*
Y202198D01*
X521902D01*
Y207926D01*
X520650D01*
Y225626D01*
X521902D01*
Y231354D01*
X541098D01*
Y225626D01*
D02*
G37*
G36*
X586315Y171295D02*
X545874D01*
Y195195D01*
X586315D01*
Y171295D01*
D02*
G37*
G36*
X541098Y193136D02*
X542350D01*
Y175436D01*
X541098D01*
Y169708D01*
X521902D01*
Y175436D01*
X520650D01*
Y193136D01*
X521902D01*
Y198864D01*
X541098D01*
Y193136D01*
D02*
G37*
G36*
X510098Y167564D02*
X511350D01*
Y149864D01*
X510098D01*
Y144136D01*
X490902D01*
Y149864D01*
X489650D01*
Y167564D01*
X490902D01*
Y173292D01*
X510098D01*
Y167564D01*
D02*
G37*
G36*
X563220Y142050D02*
X522780D01*
Y165950D01*
X563220D01*
Y142050D01*
D02*
G37*
D13*
X420654Y252739D02*
X432850D01*
X420654Y234983D02*
Y252739D01*
Y234983D02*
X432850D01*
Y252739D01*
X315787Y354055D02*
X340031D01*
X315787Y283945D02*
Y354055D01*
Y283945D02*
X340031D01*
Y354055D01*
X586315Y171295D02*
Y195195D01*
X545874D02*
X586315D01*
X545874Y171295D02*
Y195195D01*
Y171295D02*
X586315D01*
Y204010D02*
Y227910D01*
X545874D02*
X586315D01*
X545874Y204010D02*
Y227910D01*
Y204010D02*
X586315D01*
X563220Y142050D02*
Y165950D01*
X522780D02*
X563220D01*
X522780Y142050D02*
Y165950D01*
Y142050D02*
X563220D01*
X586315Y236724D02*
Y260624D01*
X545874D02*
X586315D01*
X545874Y236724D02*
Y260624D01*
Y236724D02*
X586315D01*
X545874Y269438D02*
X586315D01*
X545874D02*
Y293338D01*
X586315D01*
Y269438D02*
Y293338D01*
Y302152D02*
Y326052D01*
X545874D02*
X586315D01*
X545874Y302152D02*
Y326052D01*
Y302152D02*
X586315D01*
X315787Y428055D02*
X340031D01*
X315787Y357945D02*
Y428055D01*
Y357945D02*
X340031D01*
Y428055D01*
X315650Y279310D02*
X329350D01*
X315650Y255690D02*
Y279310D01*
Y255690D02*
X329350D01*
Y279310D01*
X401500Y222250D02*
Y226075D01*
X384500Y222250D02*
X401500D01*
X384500D02*
Y226075D01*
Y251925D02*
Y255750D01*
X401500D01*
Y251925D02*
Y255750D01*
Y226075D02*
X402878D01*
X383122D02*
X384500D01*
X383122D02*
Y251925D01*
X384500D01*
X401500D02*
X402878D01*
Y226075D02*
Y251925D01*
X368700Y271700D02*
X437300D01*
X368700D02*
Y340300D01*
X437300D01*
Y271700D02*
Y340300D01*
X586315Y367581D02*
Y391481D01*
X545874D02*
X586315D01*
X545874Y367581D02*
Y391481D01*
Y367581D02*
X586315D01*
X487902Y423636D02*
X507098D01*
Y429364D01*
X508350D01*
Y447064D01*
X507098D02*
X508350D01*
X507098D02*
Y452792D01*
X487902D02*
X507098D01*
X487902Y447064D02*
Y452792D01*
X486650Y447064D02*
X487902D01*
X486650Y429364D02*
Y447064D01*
Y429364D02*
X487902D01*
Y423636D02*
Y429364D01*
X545874Y400295D02*
X586315D01*
X545874D02*
Y424195D01*
X586315D01*
Y400295D02*
Y424195D01*
X545874Y334867D02*
X586315D01*
X545874D02*
Y358767D01*
X586315D01*
Y334867D02*
Y358767D01*
X521902Y397136D02*
X541098D01*
Y402864D01*
X542350D01*
Y420564D01*
X541098D02*
X542350D01*
X541098D02*
Y426292D01*
X521902D02*
X541098D01*
X521902Y420564D02*
Y426292D01*
X520650Y420564D02*
X521902D01*
X520650Y402864D02*
Y420564D01*
Y402864D02*
X521902D01*
Y397136D02*
Y402864D01*
Y267177D02*
Y272905D01*
X520650D02*
X521902D01*
X520650D02*
Y290605D01*
X521902D01*
Y296333D01*
X541098D01*
Y290605D02*
Y296333D01*
Y290605D02*
X542350D01*
Y272905D02*
Y290605D01*
X541098Y272905D02*
X542350D01*
X541098Y267177D02*
Y272905D01*
X521902Y267177D02*
X541098D01*
X490902Y144136D02*
Y149864D01*
X489650D02*
X490902D01*
X489650D02*
Y167564D01*
X490902D01*
Y173292D01*
X510098D01*
Y167564D02*
Y173292D01*
Y167564D02*
X511350D01*
Y149864D02*
Y167564D01*
X510098Y149864D02*
X511350D01*
X510098Y144136D02*
Y149864D01*
X490902Y144136D02*
X510098D01*
X521902Y169708D02*
Y175436D01*
X520650D02*
X521902D01*
X520650D02*
Y193136D01*
X521902D01*
Y198864D01*
X541098D01*
Y193136D02*
Y198864D01*
Y193136D02*
X542350D01*
Y175436D02*
Y193136D01*
X541098Y175436D02*
X542350D01*
X541098Y169708D02*
Y175436D01*
X521902Y169708D02*
X541098D01*
X521902Y202198D02*
Y207926D01*
X520650D02*
X521902D01*
X520650D02*
Y225626D01*
X521902D01*
Y231354D01*
X541098D01*
Y225626D02*
Y231354D01*
Y225626D02*
X542350D01*
Y207926D02*
Y225626D01*
X541098Y207926D02*
X542350D01*
X541098Y202198D02*
Y207926D01*
X521902Y202198D02*
X541098D01*
X521902Y234687D02*
Y240415D01*
X520650D02*
X521902D01*
X520650D02*
Y258115D01*
X521902D01*
Y263843D01*
X541098D01*
Y258115D02*
Y263843D01*
Y258115D02*
X542350D01*
Y240415D02*
Y258115D01*
X541098Y240415D02*
X542350D01*
X541098Y234687D02*
Y240415D01*
X521902Y234687D02*
X541098D01*
X521902Y299667D02*
Y305395D01*
X520650D02*
X521902D01*
X520650D02*
Y323095D01*
X521902D01*
Y328823D01*
X541098D01*
Y323095D02*
Y328823D01*
Y323095D02*
X542350D01*
Y305395D02*
Y323095D01*
X541098Y305395D02*
X542350D01*
X541098Y299667D02*
Y305395D01*
X521902Y299667D02*
X541098D01*
X521902Y332157D02*
Y337884D01*
X520650D02*
X521902D01*
X520650D02*
Y355585D01*
X521902D01*
Y361313D01*
X541098D01*
Y355585D02*
Y361313D01*
Y355585D02*
X542350D01*
Y337884D02*
Y355585D01*
X541098Y337884D02*
X542350D01*
X541098Y332157D02*
Y337884D01*
X521902Y332157D02*
X541098D01*
X521902Y364646D02*
Y370374D01*
X520650D02*
X521902D01*
X520650D02*
Y388074D01*
X521902D01*
Y393802D01*
X541098D01*
Y388074D02*
Y393802D01*
Y388074D02*
X542350D01*
Y370374D02*
Y388074D01*
X541098Y370374D02*
X542350D01*
X541098Y364646D02*
Y370374D01*
X521902Y364646D02*
X541098D01*
X563126Y427795D02*
Y451695D01*
X522685D02*
X563126D01*
X522685Y427795D02*
Y451695D01*
Y427795D02*
X563126D01*
X347874Y452205D02*
X388315D01*
Y428305D02*
Y452205D01*
X347874Y428305D02*
X388315D01*
X347874D02*
Y452205D01*
D70*
X522535Y177079D02*
X539465D01*
X522535Y186921D02*
X539465D01*
Y177079D02*
Y186921D01*
X522535Y177079D02*
Y186921D01*
X561465Y194579D02*
Y204421D01*
X544535Y194579D02*
Y204421D01*
Y194579D02*
X561465D01*
X544535Y204421D02*
X561465D01*
Y227329D02*
Y237171D01*
X544535Y227329D02*
Y237171D01*
Y227329D02*
X561465D01*
X544535Y237171D02*
X561465D01*
X509579Y144035D02*
Y160965D01*
X519421Y144035D02*
Y160965D01*
X509579Y144035D02*
X519421D01*
X509579Y160965D02*
X519421D01*
X561465Y260079D02*
Y269921D01*
X544535Y260079D02*
Y269921D01*
Y260079D02*
X561465D01*
X544535Y269921D02*
X561465D01*
Y292829D02*
Y302671D01*
X544535Y292829D02*
Y302671D01*
Y292829D02*
X561465D01*
X544535Y302671D02*
X561465D01*
Y325579D02*
Y335421D01*
X544535Y325579D02*
Y335421D01*
Y325579D02*
X561465D01*
X544535Y335421D02*
X561465D01*
X351102Y277850D02*
Y284150D01*
X338898Y277850D02*
Y284150D01*
Y277850D02*
X351102D01*
X338898Y284150D02*
X351102D01*
X380500Y231917D02*
Y234083D01*
X379417Y233000D02*
X381583D01*
X377153Y231228D02*
X383846D01*
X377153Y234772D02*
X383846D01*
Y231228D02*
Y234772D01*
X377153Y231228D02*
Y234772D01*
X408153Y237728D02*
Y241272D01*
X414847Y237728D02*
Y241272D01*
X408153D02*
X414847D01*
X408153Y237728D02*
X414847D01*
X410417Y239500D02*
X412583D01*
X411500Y238417D02*
Y240583D01*
X405028Y453031D02*
X467626D01*
Y419567D02*
Y453031D01*
X405028Y419567D02*
X467626D01*
X405028D02*
Y453031D01*
X427398Y252850D02*
Y259150D01*
X439602Y252850D02*
Y259150D01*
X427398Y252850D02*
X439602D01*
X427398Y259150D02*
X439602D01*
X413898D02*
X426102D01*
X413898Y252850D02*
X426102D01*
Y259150D01*
X413898Y252850D02*
Y259150D01*
X436654Y230728D02*
Y234272D01*
X443347Y230728D02*
Y234272D01*
X436654D02*
X443347D01*
X436654Y230728D02*
X443347D01*
X438917Y232500D02*
X441083D01*
X440000Y231417D02*
Y233583D01*
X436654Y245130D02*
Y248673D01*
X443347Y245130D02*
Y248673D01*
X436654D02*
X443347D01*
X436654Y245130D02*
X443347D01*
X438917Y246902D02*
X441083D01*
X440000Y245819D02*
Y247984D01*
X360850Y287898D02*
X367150D01*
X360850Y300102D02*
X367150D01*
X360850Y287898D02*
Y300102D01*
X367150Y287898D02*
Y300102D01*
X391047Y398307D02*
X396953D01*
X391047Y386496D02*
X396953D01*
X391047D02*
Y398307D01*
X396953Y386496D02*
Y398307D01*
X375047Y386496D02*
X380953D01*
X375047Y398307D02*
X380953D01*
Y386496D02*
Y398307D01*
X375047Y386496D02*
Y398307D01*
X382850Y393398D02*
X389150D01*
X382850Y405602D02*
X389150D01*
Y393398D02*
Y405602D01*
X382850Y393398D02*
Y405602D01*
X436654Y238630D02*
Y242173D01*
X443347Y238630D02*
Y242173D01*
X436654D02*
X443347D01*
X436654Y238630D02*
X443347D01*
X438917Y240402D02*
X441083D01*
X440000Y239319D02*
Y241484D01*
X377153Y238228D02*
Y241772D01*
X383846Y238228D02*
Y241772D01*
X377153D02*
X383846D01*
X377153Y238228D02*
X383846D01*
X379417Y240000D02*
X381583D01*
X380500Y238917D02*
Y241083D01*
X408153Y245630D02*
Y249173D01*
X414847Y245630D02*
Y249173D01*
X408153D02*
X414847D01*
X408153Y245630D02*
X414847D01*
X410417Y247402D02*
X412583D01*
X411500Y246319D02*
Y248484D01*
X377153Y245228D02*
Y248772D01*
X383846Y245228D02*
Y248772D01*
X377153D02*
X383846D01*
X377153Y245228D02*
X383846D01*
X379417Y247000D02*
X381583D01*
X380500Y245917D02*
Y248083D01*
Y252917D02*
Y255083D01*
X379417Y254000D02*
X381583D01*
X377153Y252228D02*
X383846D01*
X377153Y255772D02*
X383846D01*
Y252228D02*
Y255772D01*
X377153Y252228D02*
Y255772D01*
X408153Y231728D02*
Y235272D01*
X414847Y231728D02*
Y235272D01*
X408153D02*
X414847D01*
X408153Y231728D02*
X414847D01*
X410417Y233500D02*
X412583D01*
X411500Y232417D02*
Y234583D01*
X544535Y368171D02*
X561465D01*
X544535Y358329D02*
X561465D01*
X544535D02*
Y368171D01*
X561465Y358329D02*
Y368171D01*
X544535Y400921D02*
X561465D01*
X544535Y391079D02*
X561465D01*
X544535D02*
Y400921D01*
X561465Y391079D02*
Y400921D01*
X389102Y264850D02*
Y271150D01*
X376898Y264850D02*
Y271150D01*
X389102D01*
X376898Y264850D02*
X389102D01*
Y258350D02*
Y264650D01*
X376898Y258350D02*
Y264650D01*
X389102D01*
X376898Y258350D02*
X389102D01*
X509079Y441965D02*
X518921D01*
X509079Y425035D02*
X518921D01*
Y441965D01*
X509079Y425035D02*
Y441965D01*
D71*
X531000Y180032D02*
Y183968D01*
X529032Y182000D02*
X532969D01*
X551031Y199500D02*
X554969D01*
X553000Y197531D02*
Y201468D01*
X551031Y232250D02*
X554969D01*
X553000Y230281D02*
Y234219D01*
X512532Y152500D02*
X516468D01*
X514500Y150531D02*
Y154469D01*
X551031Y265000D02*
X554969D01*
X553000Y263032D02*
Y266968D01*
X551031Y297750D02*
X554969D01*
X553000Y295781D02*
Y299718D01*
X551031Y330500D02*
X554969D01*
X553000Y328532D02*
Y332469D01*
X343032Y281000D02*
X346969D01*
X345000Y279031D02*
Y282968D01*
X431531Y256000D02*
X435468D01*
X433500Y254031D02*
Y257968D01*
X420000Y254031D02*
Y257968D01*
X418032Y256000D02*
X421969D01*
X364000Y292032D02*
Y295969D01*
X362032Y294000D02*
X365968D01*
X394000Y390433D02*
Y394370D01*
X392032Y392402D02*
X395969D01*
X378000Y390433D02*
Y394370D01*
X376031Y392402D02*
X379969D01*
X386000Y397532D02*
Y401469D01*
X384032Y399500D02*
X387968D01*
X553000Y361281D02*
Y365218D01*
X551031Y363250D02*
X554969D01*
X553000Y394032D02*
Y397969D01*
X551031Y396000D02*
X554969D01*
X381031Y268000D02*
X384968D01*
X383000Y266032D02*
Y269969D01*
X381031Y261500D02*
X384968D01*
X383000Y259531D02*
Y263469D01*
X514000Y431531D02*
Y435468D01*
X512032Y433500D02*
X515969D01*
M02*
