G04*
G04 #@! TF.GenerationSoftware,Altium Limited,Altium Designer,25.7.1 (20)*
G04*
G04 Layer_Color=65535*
%FSLAX25Y25*%
%MOIN*%
G70*
G04*
G04 #@! TF.SameCoordinates,4004DD4F-5307-4C4F-B8C3-9824D0AE2BA4*
G04*
G04*
G04 #@! TF.FilePolarity,Positive*
G04*
G01*
G75*
%ADD70C,0.00197*%
%ADD71C,0.00394*%
D70*
X321602Y204122D02*
X343768D01*
X321602Y171366D02*
Y204122D01*
Y171366D02*
X343768D01*
Y204122D01*
X314917Y220622D02*
X337083D01*
Y253378D01*
X314917D02*
X337083D01*
X314917Y220622D02*
Y253378D01*
X345295Y234370D02*
Y257598D01*
X369705Y234370D02*
Y257598D01*
X345295Y234370D02*
X369705D01*
X345295Y257598D02*
X369705D01*
X345295Y173120D02*
Y196348D01*
X369705Y173120D02*
Y196348D01*
X345295Y173120D02*
X369705D01*
X345295Y196348D02*
X369705D01*
X345295Y142370D02*
Y165598D01*
X369705Y142370D02*
Y165598D01*
X345295Y142370D02*
X369705D01*
X345295Y165598D02*
X369705D01*
X345295Y203870D02*
Y227098D01*
X369705Y203870D02*
Y227098D01*
X345295Y203870D02*
X369705D01*
X345295Y227098D02*
X369705D01*
X377295Y173120D02*
Y196348D01*
X401705Y173120D02*
Y196348D01*
X377295Y173120D02*
X401705D01*
X377295Y196348D02*
X401705D01*
X377295Y142370D02*
Y165598D01*
X401705Y142370D02*
Y165598D01*
X377295Y142370D02*
X401705D01*
X377295Y165598D02*
X401705D01*
X332917Y274272D02*
X335083D01*
X334000Y273189D02*
Y275354D01*
X332228Y270728D02*
X335772D01*
X332228Y277815D02*
X335772D01*
X332228Y270728D02*
Y277815D01*
X335772Y270728D02*
Y277815D01*
X377295Y203870D02*
Y227098D01*
X401705Y203870D02*
Y227098D01*
X377295Y203870D02*
X401705D01*
X377295Y227098D02*
X401705D01*
X411795Y142370D02*
Y165598D01*
X436205Y142370D02*
Y165598D01*
X411795Y142370D02*
X436205D01*
X411795Y165598D02*
X436205D01*
X411795Y173120D02*
Y196348D01*
X436205Y173120D02*
Y196348D01*
X411795Y173120D02*
X436205D01*
X411795Y196348D02*
X436205D01*
X411795Y203870D02*
Y227098D01*
X436205Y203870D02*
Y227098D01*
X411795Y203870D02*
X436205D01*
X411795Y227098D02*
X436205D01*
X355917Y288500D02*
X358083D01*
X357000Y287417D02*
Y289583D01*
X355228Y284957D02*
X358772D01*
X355228Y292043D02*
X358772D01*
X355228Y284957D02*
Y292043D01*
X358772Y284957D02*
Y292043D01*
X377457Y341728D02*
X384543D01*
X377457Y345272D02*
X384543D01*
Y341728D02*
Y345272D01*
X377457Y341728D02*
Y345272D01*
X379917Y343500D02*
X382083D01*
X381000Y342417D02*
Y344583D01*
X386724Y346138D02*
Y350862D01*
X377276Y346138D02*
Y350862D01*
Y346138D02*
X386724D01*
X377276Y350862D02*
X386724D01*
X380130Y348500D02*
X383870D01*
X382000Y346630D02*
Y350370D01*
D71*
X357500Y243032D02*
Y246969D01*
X355532Y245000D02*
X359469D01*
X357500Y181781D02*
Y185719D01*
X355532Y183750D02*
X359469D01*
X357500Y151031D02*
Y154969D01*
X355532Y153000D02*
X359469D01*
X357500Y212531D02*
Y216469D01*
X355532Y214500D02*
X359469D01*
X389500Y181781D02*
Y185719D01*
X387531Y183750D02*
X391469D01*
X389500Y151031D02*
Y154969D01*
X387531Y153000D02*
X391469D01*
X389500Y212531D02*
Y216469D01*
X387531Y214500D02*
X391469D01*
X424000Y151031D02*
Y154969D01*
X422031Y153000D02*
X425969D01*
X424000Y181781D02*
Y185719D01*
X422031Y183750D02*
X425969D01*
X424000Y212531D02*
Y216469D01*
X422031Y214500D02*
X425969D01*
M02*
