G04*
G04 #@! TF.GenerationSoftware,Altium Limited,Altium Designer,25.7.1 (20)*
G04*
G04 Layer_Color=8388736*
%FSLAX25Y25*%
%MOIN*%
G70*
G04*
G04 #@! TF.SameCoordinates,4004DD4F-5307-4C4F-B8C3-9824D0AE2BA4*
G04*
G04*
G04 #@! TF.FilePolarity,Negative*
G04*
G01*
G75*
%ADD19R,0.06693X0.02559*%
%ADD24R,0.07900X0.04100*%
%ADD27R,0.01100X0.05800*%
%ADD28R,0.05800X0.01100*%
%ADD31R,0.05524X0.06706*%
G04:AMPARAMS|DCode=32|XSize=47.37mil|YSize=118.24mil|CornerRadius=7.94mil|HoleSize=0mil|Usage=FLASHONLY|Rotation=0.000|XOffset=0mil|YOffset=0mil|HoleType=Round|Shape=RoundedRectangle|*
%AMROUNDEDRECTD32*
21,1,0.04737,0.10236,0,0,0.0*
21,1,0.03150,0.11824,0,0,0.0*
1,1,0.01587,0.01575,-0.05118*
1,1,0.01587,-0.01575,-0.05118*
1,1,0.01587,-0.01575,0.05118*
1,1,0.01587,0.01575,0.05118*
%
%ADD32ROUNDEDRECTD32*%
G04:AMPARAMS|DCode=33|XSize=31.62mil|YSize=74.93mil|CornerRadius=7.54mil|HoleSize=0mil|Usage=FLASHONLY|Rotation=0.000|XOffset=0mil|YOffset=0mil|HoleType=Round|Shape=RoundedRectangle|*
%AMROUNDEDRECTD33*
21,1,0.03162,0.05984,0,0,0.0*
21,1,0.01654,0.07493,0,0,0.0*
1,1,0.01509,0.00827,-0.02992*
1,1,0.01509,-0.00827,-0.02992*
1,1,0.01509,-0.00827,0.02992*
1,1,0.01509,0.00827,0.02992*
%
%ADD33ROUNDEDRECTD33*%
%ADD34R,0.06706X0.05524*%
%ADD35R,0.03950X0.04934*%
G04:AMPARAMS|DCode=36|XSize=29.65mil|YSize=27.69mil|CornerRadius=6.46mil|HoleSize=0mil|Usage=FLASHONLY|Rotation=180.000|XOffset=0mil|YOffset=0mil|HoleType=Round|Shape=RoundedRectangle|*
%AMROUNDEDRECTD36*
21,1,0.02965,0.01476,0,0,180.0*
21,1,0.01673,0.02769,0,0,180.0*
1,1,0.01292,-0.00837,0.00738*
1,1,0.01292,0.00837,0.00738*
1,1,0.01292,0.00837,-0.00738*
1,1,0.01292,-0.00837,-0.00738*
%
%ADD36ROUNDEDRECTD36*%
G04:AMPARAMS|DCode=37|XSize=29.65mil|YSize=27.69mil|CornerRadius=6.46mil|HoleSize=0mil|Usage=FLASHONLY|Rotation=90.000|XOffset=0mil|YOffset=0mil|HoleType=Round|Shape=RoundedRectangle|*
%AMROUNDEDRECTD37*
21,1,0.02965,0.01476,0,0,90.0*
21,1,0.01673,0.02769,0,0,90.0*
1,1,0.01292,0.00738,0.00837*
1,1,0.01292,0.00738,-0.00837*
1,1,0.01292,-0.00738,-0.00837*
1,1,0.01292,-0.00738,0.00837*
%
%ADD37ROUNDEDRECTD37*%
%ADD38R,0.04934X0.03950*%
G04:AMPARAMS|DCode=39|XSize=37.92mil|YSize=34mil|CornerRadius=7.25mil|HoleSize=0mil|Usage=FLASHONLY|Rotation=270.000|XOffset=0mil|YOffset=0mil|HoleType=Round|Shape=RoundedRectangle|*
%AMROUNDEDRECTD39*
21,1,0.03792,0.01950,0,0,270.0*
21,1,0.02342,0.03400,0,0,270.0*
1,1,0.01450,-0.00975,-0.01171*
1,1,0.01450,-0.00975,0.01171*
1,1,0.01450,0.00975,0.01171*
1,1,0.01450,0.00975,-0.01171*
%
%ADD39ROUNDEDRECTD39*%
G04:AMPARAMS|DCode=40|XSize=72.96mil|YSize=72.96mil|CornerRadius=20.24mil|HoleSize=0mil|Usage=FLASHONLY|Rotation=270.000|XOffset=0mil|YOffset=0mil|HoleType=Round|Shape=RoundedRectangle|*
%AMROUNDEDRECTD40*
21,1,0.07296,0.03248,0,0,270.0*
21,1,0.03248,0.07296,0,0,270.0*
1,1,0.04048,-0.01624,-0.01624*
1,1,0.04048,-0.01624,0.01624*
1,1,0.04048,0.01624,0.01624*
1,1,0.04048,0.01624,-0.01624*
%
%ADD40ROUNDEDRECTD40*%
%ADD41C,0.07296*%
%ADD42C,0.18123*%
%ADD43C,0.06200*%
%ADD44C,0.09700*%
%ADD45R,0.24422X0.24422*%
%ADD46C,0.24422*%
%ADD47C,0.06800*%
%ADD48C,0.13398*%
%ADD49C,0.03162*%
D19*
X320133Y343606D02*
D03*
Y338685D02*
D03*
Y333764D02*
D03*
Y328842D02*
D03*
Y323921D02*
D03*
Y319000D02*
D03*
Y314079D02*
D03*
Y309157D02*
D03*
Y304236D02*
D03*
Y299315D02*
D03*
Y294394D02*
D03*
Y417606D02*
D03*
Y412685D02*
D03*
Y407764D02*
D03*
Y402843D02*
D03*
Y397921D02*
D03*
Y393000D02*
D03*
Y388079D02*
D03*
Y383157D02*
D03*
Y378236D02*
D03*
Y373315D02*
D03*
Y368394D02*
D03*
D24*
X322500Y276260D02*
D03*
Y258740D02*
D03*
D27*
X379378Y275600D02*
D03*
X381347D02*
D03*
X383315D02*
D03*
X385283D02*
D03*
X387252D02*
D03*
X389220D02*
D03*
X391189D02*
D03*
X393158D02*
D03*
X395126D02*
D03*
X397094D02*
D03*
X399063D02*
D03*
X401031D02*
D03*
X403000D02*
D03*
X404969D02*
D03*
X406937D02*
D03*
X408906D02*
D03*
X410874D02*
D03*
X412843D02*
D03*
X414811D02*
D03*
X416780D02*
D03*
X418748D02*
D03*
X420716D02*
D03*
X422685D02*
D03*
X424653D02*
D03*
X426622D02*
D03*
Y336400D02*
D03*
X424653D02*
D03*
X422685D02*
D03*
X420716D02*
D03*
X418748D02*
D03*
X416780D02*
D03*
X414811D02*
D03*
X412843D02*
D03*
X410874D02*
D03*
X408906D02*
D03*
X406937D02*
D03*
X404969D02*
D03*
X403000D02*
D03*
X401031D02*
D03*
X399063D02*
D03*
X397094D02*
D03*
X395126D02*
D03*
X393158D02*
D03*
X391189D02*
D03*
X389220D02*
D03*
X387252D02*
D03*
X385283D02*
D03*
X383315D02*
D03*
X381347D02*
D03*
X379378D02*
D03*
D28*
X433400Y282378D02*
D03*
Y284347D02*
D03*
Y286315D02*
D03*
Y288283D02*
D03*
Y290252D02*
D03*
Y292220D02*
D03*
Y294189D02*
D03*
Y296158D02*
D03*
Y298126D02*
D03*
Y300095D02*
D03*
Y302063D02*
D03*
Y304031D02*
D03*
Y306000D02*
D03*
Y307968D02*
D03*
Y309937D02*
D03*
Y311906D02*
D03*
Y313874D02*
D03*
Y315843D02*
D03*
Y317811D02*
D03*
Y319779D02*
D03*
Y321748D02*
D03*
Y323716D02*
D03*
Y325685D02*
D03*
Y327654D02*
D03*
Y329622D02*
D03*
X372600D02*
D03*
Y327654D02*
D03*
Y325685D02*
D03*
Y323716D02*
D03*
Y321748D02*
D03*
Y319779D02*
D03*
Y317811D02*
D03*
Y315843D02*
D03*
Y313874D02*
D03*
Y311906D02*
D03*
Y309937D02*
D03*
Y307968D02*
D03*
Y306000D02*
D03*
Y304031D02*
D03*
Y302063D02*
D03*
Y300095D02*
D03*
Y298126D02*
D03*
Y296158D02*
D03*
Y294189D02*
D03*
Y292220D02*
D03*
Y290252D02*
D03*
Y288283D02*
D03*
Y286315D02*
D03*
Y284347D02*
D03*
Y282378D02*
D03*
D31*
X535134Y182000D02*
D03*
X526866D02*
D03*
X557134Y199500D02*
D03*
X548866D02*
D03*
X557134Y232250D02*
D03*
X548866D02*
D03*
X557134Y265000D02*
D03*
X548866D02*
D03*
X557134Y297750D02*
D03*
X548866D02*
D03*
X557134Y330500D02*
D03*
X548866D02*
D03*
Y363250D02*
D03*
X557134D02*
D03*
X548866Y396000D02*
D03*
X557134D02*
D03*
D32*
X347756Y251594D02*
D03*
X367244D02*
D03*
X347756Y190345D02*
D03*
X367244D02*
D03*
X347756Y159595D02*
D03*
X367244D02*
D03*
X347756Y221094D02*
D03*
X367244D02*
D03*
X379756Y190345D02*
D03*
X399244D02*
D03*
X379756Y159595D02*
D03*
X399244D02*
D03*
X379756Y221094D02*
D03*
X399244D02*
D03*
X414256Y159595D02*
D03*
X433744D02*
D03*
X414256Y190345D02*
D03*
X433744D02*
D03*
X414256Y221094D02*
D03*
X433744D02*
D03*
D33*
X359961Y238405D02*
D03*
X355039D02*
D03*
X359961Y177155D02*
D03*
X355039D02*
D03*
X359961Y146405D02*
D03*
X355039D02*
D03*
X359961Y207906D02*
D03*
X355039D02*
D03*
X391961Y177155D02*
D03*
X387039D02*
D03*
X391961Y146405D02*
D03*
X387039D02*
D03*
X391961Y207906D02*
D03*
X387039D02*
D03*
X426461Y146405D02*
D03*
X421539D02*
D03*
X426461Y177155D02*
D03*
X421539D02*
D03*
X426461Y207906D02*
D03*
X421539D02*
D03*
D34*
X514500Y148366D02*
D03*
Y156634D02*
D03*
X514000Y437634D02*
D03*
Y429366D02*
D03*
D35*
X348445Y281000D02*
D03*
X341555D02*
D03*
D36*
X334000Y276043D02*
D03*
Y272500D02*
D03*
X357000Y290272D02*
D03*
Y286728D02*
D03*
D37*
X382272Y233000D02*
D03*
X378728D02*
D03*
X409728Y239500D02*
D03*
X413272D02*
D03*
X438228Y232500D02*
D03*
X441772D02*
D03*
X438228Y246902D02*
D03*
X441772D02*
D03*
X438228Y240402D02*
D03*
X441772D02*
D03*
X378728Y240000D02*
D03*
X382272D02*
D03*
X409728Y247402D02*
D03*
X413272D02*
D03*
X378728Y247000D02*
D03*
X382272D02*
D03*
Y254000D02*
D03*
X378728D02*
D03*
X409728Y233500D02*
D03*
X413272D02*
D03*
X379228Y343500D02*
D03*
X382772D02*
D03*
D38*
X364000Y290555D02*
D03*
Y297445D02*
D03*
D39*
X384756Y348500D02*
D03*
X379244D02*
D03*
D40*
X327685Y197744D02*
D03*
X331000Y227000D02*
D03*
D41*
X337685Y197744D02*
D03*
X327685Y187744D02*
D03*
Y177744D02*
D03*
X337685Y187744D02*
D03*
Y177744D02*
D03*
X321000Y227000D02*
D03*
X331000Y237000D02*
D03*
Y247000D02*
D03*
X321000Y237000D02*
D03*
Y247000D02*
D03*
D42*
X328748Y156287D02*
D03*
Y439752D02*
D03*
X572752D02*
D03*
Y156248D02*
D03*
D43*
X560189Y184500D02*
D03*
X572000D02*
D03*
X560189Y217214D02*
D03*
X572000D02*
D03*
X537094Y155255D02*
D03*
X548906D02*
D03*
X560189Y249929D02*
D03*
X572000D02*
D03*
Y282643D02*
D03*
X560189D02*
D03*
Y315357D02*
D03*
X572000D02*
D03*
X560189Y380786D02*
D03*
X572000D02*
D03*
Y413500D02*
D03*
X560189D02*
D03*
X572000Y348071D02*
D03*
X560189D02*
D03*
X537000Y441000D02*
D03*
X548811D02*
D03*
X362189Y439000D02*
D03*
X374000D02*
D03*
D44*
X580465Y184500D02*
D03*
X551724D02*
D03*
X580465Y217214D02*
D03*
X551724D02*
D03*
X557370Y155255D02*
D03*
X528630D02*
D03*
X580465Y249929D02*
D03*
X551724D02*
D03*
Y282643D02*
D03*
X580465D02*
D03*
Y315357D02*
D03*
X551724D02*
D03*
X580465Y380786D02*
D03*
X551724D02*
D03*
Y413500D02*
D03*
X580465D02*
D03*
X551724Y348071D02*
D03*
X580465D02*
D03*
X557276Y441000D02*
D03*
X528535D02*
D03*
X382465Y439000D02*
D03*
X353724D02*
D03*
D45*
X422154Y436299D02*
D03*
D46*
X450500Y437500D02*
D03*
D47*
X516000Y415000D02*
D03*
Y407000D02*
D03*
Y186500D02*
D03*
Y194500D02*
D03*
Y252000D02*
D03*
Y260000D02*
D03*
Y317000D02*
D03*
Y325000D02*
D03*
Y382000D02*
D03*
Y390000D02*
D03*
X482500Y440500D02*
D03*
Y448500D02*
D03*
X516000Y349500D02*
D03*
Y357500D02*
D03*
Y284500D02*
D03*
Y292500D02*
D03*
Y219500D02*
D03*
Y227500D02*
D03*
X483000Y161000D02*
D03*
Y169000D02*
D03*
D48*
X410000Y407000D02*
D03*
X460000Y168500D02*
D03*
X426000Y407000D02*
D03*
X460000Y151500D02*
D03*
D49*
X483500Y410000D02*
D03*
X496000Y336500D02*
D03*
X462000Y241000D02*
D03*
X497000Y240500D02*
D03*
X493500Y208000D02*
D03*
X479500Y194000D02*
D03*
X459000Y197000D02*
D03*
X459500Y219500D02*
D03*
X460500Y265500D02*
D03*
X480000Y297500D02*
D03*
X463000Y313500D02*
D03*
X493500Y307000D02*
D03*
X473000Y328500D02*
D03*
X485500Y357000D02*
D03*
X458000Y358000D02*
D03*
X485500Y373500D02*
D03*
X457500Y372500D02*
D03*
X484500Y391500D02*
D03*
X457000Y392500D02*
D03*
X326000Y209000D02*
D03*
X358885Y273844D02*
D03*
X329000Y368500D02*
D03*
X373000Y356000D02*
D03*
X371000Y350888D02*
D03*
X359000Y305000D02*
D03*
X500000Y422955D02*
D03*
X495000D02*
D03*
X354500Y276000D02*
D03*
X357000Y298000D02*
D03*
X441000Y237000D02*
D03*
X392500Y252500D02*
D03*
X520000Y148500D02*
D03*
X534000Y396455D02*
D03*
X529000D02*
D03*
X429000Y395000D02*
D03*
X529000Y201425D02*
D03*
X534000D02*
D03*
Y363965D02*
D03*
X444500Y368500D02*
D03*
X529000Y363965D02*
D03*
X447005Y322417D02*
D03*
X529000Y169000D02*
D03*
X534000D02*
D03*
X529000Y234006D02*
D03*
X534000Y234000D02*
D03*
X529000Y266496D02*
D03*
X534000D02*
D03*
X529000Y298986D02*
D03*
X534000D02*
D03*
X529000Y331475D02*
D03*
X534000D02*
D03*
X424000Y307000D02*
D03*
X419500Y312500D02*
D03*
X406500Y285000D02*
D03*
X362500Y359500D02*
D03*
X505000Y422000D02*
D03*
X445500Y299000D02*
D03*
X444500Y306500D02*
D03*
Y314000D02*
D03*
Y333000D02*
D03*
X439000Y353000D02*
D03*
X442000Y342000D02*
D03*
X427500Y283000D02*
D03*
X383000Y312500D02*
D03*
X386000Y233453D02*
D03*
X381000Y330500D02*
D03*
X387702Y329500D02*
D03*
X394500Y324000D02*
D03*
X387635Y294781D02*
D03*
X388500Y300000D02*
D03*
X382000Y291000D02*
D03*
X400071Y285425D02*
D03*
X389000Y288000D02*
D03*
X427500Y312000D02*
D03*
X379500Y285000D02*
D03*
Y297472D02*
D03*
X380000Y303000D02*
D03*
X389500Y305500D02*
D03*
X421571Y322929D02*
D03*
X388000Y309500D02*
D03*
X379500Y316000D02*
D03*
X366500Y285500D02*
D03*
X399500Y281000D02*
D03*
X397469Y264559D02*
D03*
X400500Y267500D02*
D03*
X409494Y243006D02*
D03*
X440500Y251000D02*
D03*
X444000Y228000D02*
D03*
X431429Y356571D02*
D03*
X391000Y268000D02*
D03*
Y261500D02*
D03*
X406321Y259679D02*
D03*
X427000Y326500D02*
D03*
X424170Y317330D02*
D03*
X440500Y385000D02*
D03*
X424500Y389000D02*
D03*
X433500Y374000D02*
D03*
X439000Y368000D02*
D03*
X444000Y356000D02*
D03*
X372000Y336500D02*
D03*
X367000Y271500D02*
D03*
X378500Y322000D02*
D03*
X405000Y267500D02*
D03*
X415000Y270000D02*
D03*
X410000Y281000D02*
D03*
X399000Y330500D02*
D03*
X430000Y279000D02*
D03*
X417000Y240500D02*
D03*
X418000Y233000D02*
D03*
X387000Y246500D02*
D03*
Y239500D02*
D03*
X412500Y328500D02*
D03*
X371000Y268000D02*
D03*
X435500Y380500D02*
D03*
X477500Y146500D02*
D03*
X483500D02*
D03*
X543500Y173500D02*
D03*
Y206000D02*
D03*
Y238500D02*
D03*
Y271000D02*
D03*
Y303500D02*
D03*
Y336000D02*
D03*
Y368500D02*
D03*
X543000Y401000D02*
D03*
M02*
