%TF.GenerationSoftware,KiCad,Pcbnew,9.0.3*%
%TF.CreationDate,2025-08-18T22:42:16-04:00*%
%TF.ProjectId,Distribution Board,44697374-7269-4627-9574-696f6e20426f,rev?*%
%TF.SameCoordinates,Original*%
%TF.FileFunction,Legend,Top*%
%TF.FilePolarity,Positive*%
%FSLAX46Y46*%
G04 Gerber Fmt 4.6, Leading zero omitted, Abs format (unit mm)*
G04 Created by KiCad (PCBNEW 9.0.3) date 2025-08-18 22:42:16*
%MOMM*%
%LPD*%
G01*
G04 APERTURE LIST*
%ADD10C,0.300000*%
%ADD11C,0.150000*%
%ADD12C,0.120000*%
%ADD13C,0.152400*%
G04 APERTURE END LIST*
D10*
X145744510Y-128650366D02*
X145244510Y-128650366D01*
X145244510Y-129436080D02*
X145244510Y-127936080D01*
X145244510Y-127936080D02*
X145958796Y-127936080D01*
X147315939Y-129436080D02*
X146458796Y-129436080D01*
X146887367Y-129436080D02*
X146887367Y-127936080D01*
X146887367Y-127936080D02*
X146744510Y-128150366D01*
X146744510Y-128150366D02*
X146601653Y-128293223D01*
X146601653Y-128293223D02*
X146458796Y-128364652D01*
X149958795Y-129293223D02*
X149887367Y-129364652D01*
X149887367Y-129364652D02*
X149673081Y-129436080D01*
X149673081Y-129436080D02*
X149530224Y-129436080D01*
X149530224Y-129436080D02*
X149315938Y-129364652D01*
X149315938Y-129364652D02*
X149173081Y-129221794D01*
X149173081Y-129221794D02*
X149101652Y-129078937D01*
X149101652Y-129078937D02*
X149030224Y-128793223D01*
X149030224Y-128793223D02*
X149030224Y-128578937D01*
X149030224Y-128578937D02*
X149101652Y-128293223D01*
X149101652Y-128293223D02*
X149173081Y-128150366D01*
X149173081Y-128150366D02*
X149315938Y-128007509D01*
X149315938Y-128007509D02*
X149530224Y-127936080D01*
X149530224Y-127936080D02*
X149673081Y-127936080D01*
X149673081Y-127936080D02*
X149887367Y-128007509D01*
X149887367Y-128007509D02*
X149958795Y-128078937D01*
X151244510Y-129436080D02*
X151244510Y-128650366D01*
X151244510Y-128650366D02*
X151173081Y-128507509D01*
X151173081Y-128507509D02*
X151030224Y-128436080D01*
X151030224Y-128436080D02*
X150744510Y-128436080D01*
X150744510Y-128436080D02*
X150601652Y-128507509D01*
X151244510Y-129364652D02*
X151101652Y-129436080D01*
X151101652Y-129436080D02*
X150744510Y-129436080D01*
X150744510Y-129436080D02*
X150601652Y-129364652D01*
X150601652Y-129364652D02*
X150530224Y-129221794D01*
X150530224Y-129221794D02*
X150530224Y-129078937D01*
X150530224Y-129078937D02*
X150601652Y-128936080D01*
X150601652Y-128936080D02*
X150744510Y-128864652D01*
X150744510Y-128864652D02*
X151101652Y-128864652D01*
X151101652Y-128864652D02*
X151244510Y-128793223D01*
X151958795Y-129436080D02*
X151958795Y-128436080D01*
X151958795Y-128721794D02*
X152030224Y-128578937D01*
X152030224Y-128578937D02*
X152101653Y-128507509D01*
X152101653Y-128507509D02*
X152244510Y-128436080D01*
X152244510Y-128436080D02*
X152387367Y-128436080D01*
X145244510Y-131850996D02*
X145244510Y-130350996D01*
X145244510Y-130350996D02*
X145815939Y-130350996D01*
X145815939Y-130350996D02*
X145958796Y-130422425D01*
X145958796Y-130422425D02*
X146030225Y-130493853D01*
X146030225Y-130493853D02*
X146101653Y-130636710D01*
X146101653Y-130636710D02*
X146101653Y-130850996D01*
X146101653Y-130850996D02*
X146030225Y-130993853D01*
X146030225Y-130993853D02*
X145958796Y-131065282D01*
X145958796Y-131065282D02*
X145815939Y-131136710D01*
X145815939Y-131136710D02*
X145244510Y-131136710D01*
X146958796Y-131850996D02*
X146815939Y-131779568D01*
X146815939Y-131779568D02*
X146744510Y-131708139D01*
X146744510Y-131708139D02*
X146673082Y-131565282D01*
X146673082Y-131565282D02*
X146673082Y-131136710D01*
X146673082Y-131136710D02*
X146744510Y-130993853D01*
X146744510Y-130993853D02*
X146815939Y-130922425D01*
X146815939Y-130922425D02*
X146958796Y-130850996D01*
X146958796Y-130850996D02*
X147173082Y-130850996D01*
X147173082Y-130850996D02*
X147315939Y-130922425D01*
X147315939Y-130922425D02*
X147387368Y-130993853D01*
X147387368Y-130993853D02*
X147458796Y-131136710D01*
X147458796Y-131136710D02*
X147458796Y-131565282D01*
X147458796Y-131565282D02*
X147387368Y-131708139D01*
X147387368Y-131708139D02*
X147315939Y-131779568D01*
X147315939Y-131779568D02*
X147173082Y-131850996D01*
X147173082Y-131850996D02*
X146958796Y-131850996D01*
X147958796Y-130850996D02*
X148244511Y-131850996D01*
X148244511Y-131850996D02*
X148530225Y-131136710D01*
X148530225Y-131136710D02*
X148815939Y-131850996D01*
X148815939Y-131850996D02*
X149101653Y-130850996D01*
X150244511Y-131779568D02*
X150101654Y-131850996D01*
X150101654Y-131850996D02*
X149815940Y-131850996D01*
X149815940Y-131850996D02*
X149673082Y-131779568D01*
X149673082Y-131779568D02*
X149601654Y-131636710D01*
X149601654Y-131636710D02*
X149601654Y-131065282D01*
X149601654Y-131065282D02*
X149673082Y-130922425D01*
X149673082Y-130922425D02*
X149815940Y-130850996D01*
X149815940Y-130850996D02*
X150101654Y-130850996D01*
X150101654Y-130850996D02*
X150244511Y-130922425D01*
X150244511Y-130922425D02*
X150315940Y-131065282D01*
X150315940Y-131065282D02*
X150315940Y-131208139D01*
X150315940Y-131208139D02*
X149601654Y-131350996D01*
X150958796Y-131850996D02*
X150958796Y-130850996D01*
X150958796Y-131136710D02*
X151030225Y-130993853D01*
X151030225Y-130993853D02*
X151101654Y-130922425D01*
X151101654Y-130922425D02*
X151244511Y-130850996D01*
X151244511Y-130850996D02*
X151387368Y-130850996D01*
X153030224Y-131850996D02*
X153030224Y-130350996D01*
X153030224Y-130350996D02*
X153387367Y-130350996D01*
X153387367Y-130350996D02*
X153601653Y-130422425D01*
X153601653Y-130422425D02*
X153744510Y-130565282D01*
X153744510Y-130565282D02*
X153815939Y-130708139D01*
X153815939Y-130708139D02*
X153887367Y-130993853D01*
X153887367Y-130993853D02*
X153887367Y-131208139D01*
X153887367Y-131208139D02*
X153815939Y-131493853D01*
X153815939Y-131493853D02*
X153744510Y-131636710D01*
X153744510Y-131636710D02*
X153601653Y-131779568D01*
X153601653Y-131779568D02*
X153387367Y-131850996D01*
X153387367Y-131850996D02*
X153030224Y-131850996D01*
X154530224Y-131850996D02*
X154530224Y-130850996D01*
X154530224Y-130350996D02*
X154458796Y-130422425D01*
X154458796Y-130422425D02*
X154530224Y-130493853D01*
X154530224Y-130493853D02*
X154601653Y-130422425D01*
X154601653Y-130422425D02*
X154530224Y-130350996D01*
X154530224Y-130350996D02*
X154530224Y-130493853D01*
X155173082Y-131779568D02*
X155315939Y-131850996D01*
X155315939Y-131850996D02*
X155601653Y-131850996D01*
X155601653Y-131850996D02*
X155744510Y-131779568D01*
X155744510Y-131779568D02*
X155815939Y-131636710D01*
X155815939Y-131636710D02*
X155815939Y-131565282D01*
X155815939Y-131565282D02*
X155744510Y-131422425D01*
X155744510Y-131422425D02*
X155601653Y-131350996D01*
X155601653Y-131350996D02*
X155387368Y-131350996D01*
X155387368Y-131350996D02*
X155244510Y-131279568D01*
X155244510Y-131279568D02*
X155173082Y-131136710D01*
X155173082Y-131136710D02*
X155173082Y-131065282D01*
X155173082Y-131065282D02*
X155244510Y-130922425D01*
X155244510Y-130922425D02*
X155387368Y-130850996D01*
X155387368Y-130850996D02*
X155601653Y-130850996D01*
X155601653Y-130850996D02*
X155744510Y-130922425D01*
X156244511Y-130850996D02*
X156815939Y-130850996D01*
X156458796Y-130350996D02*
X156458796Y-131636710D01*
X156458796Y-131636710D02*
X156530225Y-131779568D01*
X156530225Y-131779568D02*
X156673082Y-131850996D01*
X156673082Y-131850996D02*
X156815939Y-131850996D01*
X157315939Y-131850996D02*
X157315939Y-130850996D01*
X157315939Y-131136710D02*
X157387368Y-130993853D01*
X157387368Y-130993853D02*
X157458797Y-130922425D01*
X157458797Y-130922425D02*
X157601654Y-130850996D01*
X157601654Y-130850996D02*
X157744511Y-130850996D01*
X158244510Y-131850996D02*
X158244510Y-130850996D01*
X158244510Y-130350996D02*
X158173082Y-130422425D01*
X158173082Y-130422425D02*
X158244510Y-130493853D01*
X158244510Y-130493853D02*
X158315939Y-130422425D01*
X158315939Y-130422425D02*
X158244510Y-130350996D01*
X158244510Y-130350996D02*
X158244510Y-130493853D01*
X158958796Y-131850996D02*
X158958796Y-130350996D01*
X158958796Y-130922425D02*
X159101654Y-130850996D01*
X159101654Y-130850996D02*
X159387368Y-130850996D01*
X159387368Y-130850996D02*
X159530225Y-130922425D01*
X159530225Y-130922425D02*
X159601654Y-130993853D01*
X159601654Y-130993853D02*
X159673082Y-131136710D01*
X159673082Y-131136710D02*
X159673082Y-131565282D01*
X159673082Y-131565282D02*
X159601654Y-131708139D01*
X159601654Y-131708139D02*
X159530225Y-131779568D01*
X159530225Y-131779568D02*
X159387368Y-131850996D01*
X159387368Y-131850996D02*
X159101654Y-131850996D01*
X159101654Y-131850996D02*
X158958796Y-131779568D01*
X160958797Y-130850996D02*
X160958797Y-131850996D01*
X160315939Y-130850996D02*
X160315939Y-131636710D01*
X160315939Y-131636710D02*
X160387368Y-131779568D01*
X160387368Y-131779568D02*
X160530225Y-131850996D01*
X160530225Y-131850996D02*
X160744511Y-131850996D01*
X160744511Y-131850996D02*
X160887368Y-131779568D01*
X160887368Y-131779568D02*
X160958797Y-131708139D01*
X161458797Y-130850996D02*
X162030225Y-130850996D01*
X161673082Y-130350996D02*
X161673082Y-131636710D01*
X161673082Y-131636710D02*
X161744511Y-131779568D01*
X161744511Y-131779568D02*
X161887368Y-131850996D01*
X161887368Y-131850996D02*
X162030225Y-131850996D01*
X162530225Y-131850996D02*
X162530225Y-130850996D01*
X162530225Y-130350996D02*
X162458797Y-130422425D01*
X162458797Y-130422425D02*
X162530225Y-130493853D01*
X162530225Y-130493853D02*
X162601654Y-130422425D01*
X162601654Y-130422425D02*
X162530225Y-130350996D01*
X162530225Y-130350996D02*
X162530225Y-130493853D01*
X163458797Y-131850996D02*
X163315940Y-131779568D01*
X163315940Y-131779568D02*
X163244511Y-131708139D01*
X163244511Y-131708139D02*
X163173083Y-131565282D01*
X163173083Y-131565282D02*
X163173083Y-131136710D01*
X163173083Y-131136710D02*
X163244511Y-130993853D01*
X163244511Y-130993853D02*
X163315940Y-130922425D01*
X163315940Y-130922425D02*
X163458797Y-130850996D01*
X163458797Y-130850996D02*
X163673083Y-130850996D01*
X163673083Y-130850996D02*
X163815940Y-130922425D01*
X163815940Y-130922425D02*
X163887369Y-130993853D01*
X163887369Y-130993853D02*
X163958797Y-131136710D01*
X163958797Y-131136710D02*
X163958797Y-131565282D01*
X163958797Y-131565282D02*
X163887369Y-131708139D01*
X163887369Y-131708139D02*
X163815940Y-131779568D01*
X163815940Y-131779568D02*
X163673083Y-131850996D01*
X163673083Y-131850996D02*
X163458797Y-131850996D01*
X164601654Y-130850996D02*
X164601654Y-131850996D01*
X164601654Y-130993853D02*
X164673083Y-130922425D01*
X164673083Y-130922425D02*
X164815940Y-130850996D01*
X164815940Y-130850996D02*
X165030226Y-130850996D01*
X165030226Y-130850996D02*
X165173083Y-130922425D01*
X165173083Y-130922425D02*
X165244512Y-131065282D01*
X165244512Y-131065282D02*
X165244512Y-131850996D01*
X167601654Y-131065282D02*
X167815940Y-131136710D01*
X167815940Y-131136710D02*
X167887369Y-131208139D01*
X167887369Y-131208139D02*
X167958797Y-131350996D01*
X167958797Y-131350996D02*
X167958797Y-131565282D01*
X167958797Y-131565282D02*
X167887369Y-131708139D01*
X167887369Y-131708139D02*
X167815940Y-131779568D01*
X167815940Y-131779568D02*
X167673083Y-131850996D01*
X167673083Y-131850996D02*
X167101654Y-131850996D01*
X167101654Y-131850996D02*
X167101654Y-130350996D01*
X167101654Y-130350996D02*
X167601654Y-130350996D01*
X167601654Y-130350996D02*
X167744512Y-130422425D01*
X167744512Y-130422425D02*
X167815940Y-130493853D01*
X167815940Y-130493853D02*
X167887369Y-130636710D01*
X167887369Y-130636710D02*
X167887369Y-130779568D01*
X167887369Y-130779568D02*
X167815940Y-130922425D01*
X167815940Y-130922425D02*
X167744512Y-130993853D01*
X167744512Y-130993853D02*
X167601654Y-131065282D01*
X167601654Y-131065282D02*
X167101654Y-131065282D01*
X168815940Y-131850996D02*
X168673083Y-131779568D01*
X168673083Y-131779568D02*
X168601654Y-131708139D01*
X168601654Y-131708139D02*
X168530226Y-131565282D01*
X168530226Y-131565282D02*
X168530226Y-131136710D01*
X168530226Y-131136710D02*
X168601654Y-130993853D01*
X168601654Y-130993853D02*
X168673083Y-130922425D01*
X168673083Y-130922425D02*
X168815940Y-130850996D01*
X168815940Y-130850996D02*
X169030226Y-130850996D01*
X169030226Y-130850996D02*
X169173083Y-130922425D01*
X169173083Y-130922425D02*
X169244512Y-130993853D01*
X169244512Y-130993853D02*
X169315940Y-131136710D01*
X169315940Y-131136710D02*
X169315940Y-131565282D01*
X169315940Y-131565282D02*
X169244512Y-131708139D01*
X169244512Y-131708139D02*
X169173083Y-131779568D01*
X169173083Y-131779568D02*
X169030226Y-131850996D01*
X169030226Y-131850996D02*
X168815940Y-131850996D01*
X170601655Y-131850996D02*
X170601655Y-131065282D01*
X170601655Y-131065282D02*
X170530226Y-130922425D01*
X170530226Y-130922425D02*
X170387369Y-130850996D01*
X170387369Y-130850996D02*
X170101655Y-130850996D01*
X170101655Y-130850996D02*
X169958797Y-130922425D01*
X170601655Y-131779568D02*
X170458797Y-131850996D01*
X170458797Y-131850996D02*
X170101655Y-131850996D01*
X170101655Y-131850996D02*
X169958797Y-131779568D01*
X169958797Y-131779568D02*
X169887369Y-131636710D01*
X169887369Y-131636710D02*
X169887369Y-131493853D01*
X169887369Y-131493853D02*
X169958797Y-131350996D01*
X169958797Y-131350996D02*
X170101655Y-131279568D01*
X170101655Y-131279568D02*
X170458797Y-131279568D01*
X170458797Y-131279568D02*
X170601655Y-131208139D01*
X171315940Y-131850996D02*
X171315940Y-130850996D01*
X171315940Y-131136710D02*
X171387369Y-130993853D01*
X171387369Y-130993853D02*
X171458798Y-130922425D01*
X171458798Y-130922425D02*
X171601655Y-130850996D01*
X171601655Y-130850996D02*
X171744512Y-130850996D01*
X172887369Y-131850996D02*
X172887369Y-130350996D01*
X172887369Y-131779568D02*
X172744511Y-131850996D01*
X172744511Y-131850996D02*
X172458797Y-131850996D01*
X172458797Y-131850996D02*
X172315940Y-131779568D01*
X172315940Y-131779568D02*
X172244511Y-131708139D01*
X172244511Y-131708139D02*
X172173083Y-131565282D01*
X172173083Y-131565282D02*
X172173083Y-131136710D01*
X172173083Y-131136710D02*
X172244511Y-130993853D01*
X172244511Y-130993853D02*
X172315940Y-130922425D01*
X172315940Y-130922425D02*
X172458797Y-130850996D01*
X172458797Y-130850996D02*
X172744511Y-130850996D01*
X172744511Y-130850996D02*
X172887369Y-130922425D01*
X146101653Y-134265912D02*
X145601653Y-133551626D01*
X145244510Y-134265912D02*
X145244510Y-132765912D01*
X145244510Y-132765912D02*
X145815939Y-132765912D01*
X145815939Y-132765912D02*
X145958796Y-132837341D01*
X145958796Y-132837341D02*
X146030225Y-132908769D01*
X146030225Y-132908769D02*
X146101653Y-133051626D01*
X146101653Y-133051626D02*
X146101653Y-133265912D01*
X146101653Y-133265912D02*
X146030225Y-133408769D01*
X146030225Y-133408769D02*
X145958796Y-133480198D01*
X145958796Y-133480198D02*
X145815939Y-133551626D01*
X145815939Y-133551626D02*
X145244510Y-133551626D01*
X147315939Y-134194484D02*
X147173082Y-134265912D01*
X147173082Y-134265912D02*
X146887368Y-134265912D01*
X146887368Y-134265912D02*
X146744510Y-134194484D01*
X146744510Y-134194484D02*
X146673082Y-134051626D01*
X146673082Y-134051626D02*
X146673082Y-133480198D01*
X146673082Y-133480198D02*
X146744510Y-133337341D01*
X146744510Y-133337341D02*
X146887368Y-133265912D01*
X146887368Y-133265912D02*
X147173082Y-133265912D01*
X147173082Y-133265912D02*
X147315939Y-133337341D01*
X147315939Y-133337341D02*
X147387368Y-133480198D01*
X147387368Y-133480198D02*
X147387368Y-133623055D01*
X147387368Y-133623055D02*
X146673082Y-133765912D01*
X147887367Y-133265912D02*
X148244510Y-134265912D01*
X148244510Y-134265912D02*
X148601653Y-133265912D01*
X150244510Y-133837341D02*
X150958796Y-133837341D01*
X150101653Y-134265912D02*
X150601653Y-132765912D01*
X150601653Y-132765912D02*
X151101653Y-134265912D01*
X145030225Y-135180828D02*
X145887368Y-135180828D01*
X145458796Y-136680828D02*
X145458796Y-135180828D01*
X146244510Y-135680828D02*
X146601653Y-136680828D01*
X146958796Y-135680828D02*
X146601653Y-136680828D01*
X146601653Y-136680828D02*
X146458796Y-137037971D01*
X146458796Y-137037971D02*
X146387367Y-137109400D01*
X146387367Y-137109400D02*
X146244510Y-137180828D01*
X147744510Y-136680828D02*
X147601653Y-136609400D01*
X147601653Y-136609400D02*
X147530224Y-136466542D01*
X147530224Y-136466542D02*
X147530224Y-135180828D01*
X148887367Y-136609400D02*
X148744510Y-136680828D01*
X148744510Y-136680828D02*
X148458796Y-136680828D01*
X148458796Y-136680828D02*
X148315938Y-136609400D01*
X148315938Y-136609400D02*
X148244510Y-136466542D01*
X148244510Y-136466542D02*
X148244510Y-135895114D01*
X148244510Y-135895114D02*
X148315938Y-135752257D01*
X148315938Y-135752257D02*
X148458796Y-135680828D01*
X148458796Y-135680828D02*
X148744510Y-135680828D01*
X148744510Y-135680828D02*
X148887367Y-135752257D01*
X148887367Y-135752257D02*
X148958796Y-135895114D01*
X148958796Y-135895114D02*
X148958796Y-136037971D01*
X148958796Y-136037971D02*
X148244510Y-136180828D01*
X149601652Y-136680828D02*
X149601652Y-135680828D01*
X149601652Y-135966542D02*
X149673081Y-135823685D01*
X149673081Y-135823685D02*
X149744510Y-135752257D01*
X149744510Y-135752257D02*
X149887367Y-135680828D01*
X149887367Y-135680828D02*
X150030224Y-135680828D01*
D11*
X137743333Y-136894819D02*
X137410000Y-136418628D01*
X137171905Y-136894819D02*
X137171905Y-135894819D01*
X137171905Y-135894819D02*
X137552857Y-135894819D01*
X137552857Y-135894819D02*
X137648095Y-135942438D01*
X137648095Y-135942438D02*
X137695714Y-135990057D01*
X137695714Y-135990057D02*
X137743333Y-136085295D01*
X137743333Y-136085295D02*
X137743333Y-136228152D01*
X137743333Y-136228152D02*
X137695714Y-136323390D01*
X137695714Y-136323390D02*
X137648095Y-136371009D01*
X137648095Y-136371009D02*
X137552857Y-136418628D01*
X137552857Y-136418628D02*
X137171905Y-136418628D01*
X138124286Y-135990057D02*
X138171905Y-135942438D01*
X138171905Y-135942438D02*
X138267143Y-135894819D01*
X138267143Y-135894819D02*
X138505238Y-135894819D01*
X138505238Y-135894819D02*
X138600476Y-135942438D01*
X138600476Y-135942438D02*
X138648095Y-135990057D01*
X138648095Y-135990057D02*
X138695714Y-136085295D01*
X138695714Y-136085295D02*
X138695714Y-136180533D01*
X138695714Y-136180533D02*
X138648095Y-136323390D01*
X138648095Y-136323390D02*
X138076667Y-136894819D01*
X138076667Y-136894819D02*
X138695714Y-136894819D01*
X188209580Y-119166666D02*
X188257200Y-119214285D01*
X188257200Y-119214285D02*
X188304819Y-119357142D01*
X188304819Y-119357142D02*
X188304819Y-119452380D01*
X188304819Y-119452380D02*
X188257200Y-119595237D01*
X188257200Y-119595237D02*
X188161961Y-119690475D01*
X188161961Y-119690475D02*
X188066723Y-119738094D01*
X188066723Y-119738094D02*
X187876247Y-119785713D01*
X187876247Y-119785713D02*
X187733390Y-119785713D01*
X187733390Y-119785713D02*
X187542914Y-119738094D01*
X187542914Y-119738094D02*
X187447676Y-119690475D01*
X187447676Y-119690475D02*
X187352438Y-119595237D01*
X187352438Y-119595237D02*
X187304819Y-119452380D01*
X187304819Y-119452380D02*
X187304819Y-119357142D01*
X187304819Y-119357142D02*
X187352438Y-119214285D01*
X187352438Y-119214285D02*
X187400057Y-119166666D01*
X188304819Y-118690475D02*
X188304819Y-118499999D01*
X188304819Y-118499999D02*
X188257200Y-118404761D01*
X188257200Y-118404761D02*
X188209580Y-118357142D01*
X188209580Y-118357142D02*
X188066723Y-118261904D01*
X188066723Y-118261904D02*
X187876247Y-118214285D01*
X187876247Y-118214285D02*
X187495295Y-118214285D01*
X187495295Y-118214285D02*
X187400057Y-118261904D01*
X187400057Y-118261904D02*
X187352438Y-118309523D01*
X187352438Y-118309523D02*
X187304819Y-118404761D01*
X187304819Y-118404761D02*
X187304819Y-118595237D01*
X187304819Y-118595237D02*
X187352438Y-118690475D01*
X187352438Y-118690475D02*
X187400057Y-118738094D01*
X187400057Y-118738094D02*
X187495295Y-118785713D01*
X187495295Y-118785713D02*
X187733390Y-118785713D01*
X187733390Y-118785713D02*
X187828628Y-118738094D01*
X187828628Y-118738094D02*
X187876247Y-118690475D01*
X187876247Y-118690475D02*
X187923866Y-118595237D01*
X187923866Y-118595237D02*
X187923866Y-118404761D01*
X187923866Y-118404761D02*
X187876247Y-118309523D01*
X187876247Y-118309523D02*
X187828628Y-118261904D01*
X187828628Y-118261904D02*
X187733390Y-118214285D01*
X153357142Y-100359580D02*
X153309523Y-100407200D01*
X153309523Y-100407200D02*
X153166666Y-100454819D01*
X153166666Y-100454819D02*
X153071428Y-100454819D01*
X153071428Y-100454819D02*
X152928571Y-100407200D01*
X152928571Y-100407200D02*
X152833333Y-100311961D01*
X152833333Y-100311961D02*
X152785714Y-100216723D01*
X152785714Y-100216723D02*
X152738095Y-100026247D01*
X152738095Y-100026247D02*
X152738095Y-99883390D01*
X152738095Y-99883390D02*
X152785714Y-99692914D01*
X152785714Y-99692914D02*
X152833333Y-99597676D01*
X152833333Y-99597676D02*
X152928571Y-99502438D01*
X152928571Y-99502438D02*
X153071428Y-99454819D01*
X153071428Y-99454819D02*
X153166666Y-99454819D01*
X153166666Y-99454819D02*
X153309523Y-99502438D01*
X153309523Y-99502438D02*
X153357142Y-99550057D01*
X154309523Y-100454819D02*
X153738095Y-100454819D01*
X154023809Y-100454819D02*
X154023809Y-99454819D01*
X154023809Y-99454819D02*
X153928571Y-99597676D01*
X153928571Y-99597676D02*
X153833333Y-99692914D01*
X153833333Y-99692914D02*
X153738095Y-99740533D01*
X154928571Y-99454819D02*
X155023809Y-99454819D01*
X155023809Y-99454819D02*
X155119047Y-99502438D01*
X155119047Y-99502438D02*
X155166666Y-99550057D01*
X155166666Y-99550057D02*
X155214285Y-99645295D01*
X155214285Y-99645295D02*
X155261904Y-99835771D01*
X155261904Y-99835771D02*
X155261904Y-100073866D01*
X155261904Y-100073866D02*
X155214285Y-100264342D01*
X155214285Y-100264342D02*
X155166666Y-100359580D01*
X155166666Y-100359580D02*
X155119047Y-100407200D01*
X155119047Y-100407200D02*
X155023809Y-100454819D01*
X155023809Y-100454819D02*
X154928571Y-100454819D01*
X154928571Y-100454819D02*
X154833333Y-100407200D01*
X154833333Y-100407200D02*
X154785714Y-100359580D01*
X154785714Y-100359580D02*
X154738095Y-100264342D01*
X154738095Y-100264342D02*
X154690476Y-100073866D01*
X154690476Y-100073866D02*
X154690476Y-99835771D01*
X154690476Y-99835771D02*
X154738095Y-99645295D01*
X154738095Y-99645295D02*
X154785714Y-99550057D01*
X154785714Y-99550057D02*
X154833333Y-99502438D01*
X154833333Y-99502438D02*
X154928571Y-99454819D01*
X125966666Y-115804819D02*
X125966666Y-116519104D01*
X125966666Y-116519104D02*
X125919047Y-116661961D01*
X125919047Y-116661961D02*
X125823809Y-116757200D01*
X125823809Y-116757200D02*
X125680952Y-116804819D01*
X125680952Y-116804819D02*
X125585714Y-116804819D01*
X126871428Y-115804819D02*
X126680952Y-115804819D01*
X126680952Y-115804819D02*
X126585714Y-115852438D01*
X126585714Y-115852438D02*
X126538095Y-115900057D01*
X126538095Y-115900057D02*
X126442857Y-116042914D01*
X126442857Y-116042914D02*
X126395238Y-116233390D01*
X126395238Y-116233390D02*
X126395238Y-116614342D01*
X126395238Y-116614342D02*
X126442857Y-116709580D01*
X126442857Y-116709580D02*
X126490476Y-116757200D01*
X126490476Y-116757200D02*
X126585714Y-116804819D01*
X126585714Y-116804819D02*
X126776190Y-116804819D01*
X126776190Y-116804819D02*
X126871428Y-116757200D01*
X126871428Y-116757200D02*
X126919047Y-116709580D01*
X126919047Y-116709580D02*
X126966666Y-116614342D01*
X126966666Y-116614342D02*
X126966666Y-116376247D01*
X126966666Y-116376247D02*
X126919047Y-116281009D01*
X126919047Y-116281009D02*
X126871428Y-116233390D01*
X126871428Y-116233390D02*
X126776190Y-116185771D01*
X126776190Y-116185771D02*
X126585714Y-116185771D01*
X126585714Y-116185771D02*
X126490476Y-116233390D01*
X126490476Y-116233390D02*
X126442857Y-116281009D01*
X126442857Y-116281009D02*
X126395238Y-116376247D01*
X170833333Y-116454819D02*
X170357143Y-116454819D01*
X170357143Y-116454819D02*
X170357143Y-115454819D01*
X171119048Y-115550057D02*
X171166667Y-115502438D01*
X171166667Y-115502438D02*
X171261905Y-115454819D01*
X171261905Y-115454819D02*
X171500000Y-115454819D01*
X171500000Y-115454819D02*
X171595238Y-115502438D01*
X171595238Y-115502438D02*
X171642857Y-115550057D01*
X171642857Y-115550057D02*
X171690476Y-115645295D01*
X171690476Y-115645295D02*
X171690476Y-115740533D01*
X171690476Y-115740533D02*
X171642857Y-115883390D01*
X171642857Y-115883390D02*
X171071429Y-116454819D01*
X171071429Y-116454819D02*
X171690476Y-116454819D01*
X168983333Y-114659580D02*
X168935714Y-114707200D01*
X168935714Y-114707200D02*
X168792857Y-114754819D01*
X168792857Y-114754819D02*
X168697619Y-114754819D01*
X168697619Y-114754819D02*
X168554762Y-114707200D01*
X168554762Y-114707200D02*
X168459524Y-114611961D01*
X168459524Y-114611961D02*
X168411905Y-114516723D01*
X168411905Y-114516723D02*
X168364286Y-114326247D01*
X168364286Y-114326247D02*
X168364286Y-114183390D01*
X168364286Y-114183390D02*
X168411905Y-113992914D01*
X168411905Y-113992914D02*
X168459524Y-113897676D01*
X168459524Y-113897676D02*
X168554762Y-113802438D01*
X168554762Y-113802438D02*
X168697619Y-113754819D01*
X168697619Y-113754819D02*
X168792857Y-113754819D01*
X168792857Y-113754819D02*
X168935714Y-113802438D01*
X168935714Y-113802438D02*
X168983333Y-113850057D01*
X169364286Y-113850057D02*
X169411905Y-113802438D01*
X169411905Y-113802438D02*
X169507143Y-113754819D01*
X169507143Y-113754819D02*
X169745238Y-113754819D01*
X169745238Y-113754819D02*
X169840476Y-113802438D01*
X169840476Y-113802438D02*
X169888095Y-113850057D01*
X169888095Y-113850057D02*
X169935714Y-113945295D01*
X169935714Y-113945295D02*
X169935714Y-114040533D01*
X169935714Y-114040533D02*
X169888095Y-114183390D01*
X169888095Y-114183390D02*
X169316667Y-114754819D01*
X169316667Y-114754819D02*
X169935714Y-114754819D01*
X181533333Y-86059580D02*
X181485714Y-86107200D01*
X181485714Y-86107200D02*
X181342857Y-86154819D01*
X181342857Y-86154819D02*
X181247619Y-86154819D01*
X181247619Y-86154819D02*
X181104762Y-86107200D01*
X181104762Y-86107200D02*
X181009524Y-86011961D01*
X181009524Y-86011961D02*
X180961905Y-85916723D01*
X180961905Y-85916723D02*
X180914286Y-85726247D01*
X180914286Y-85726247D02*
X180914286Y-85583390D01*
X180914286Y-85583390D02*
X180961905Y-85392914D01*
X180961905Y-85392914D02*
X181009524Y-85297676D01*
X181009524Y-85297676D02*
X181104762Y-85202438D01*
X181104762Y-85202438D02*
X181247619Y-85154819D01*
X181247619Y-85154819D02*
X181342857Y-85154819D01*
X181342857Y-85154819D02*
X181485714Y-85202438D01*
X181485714Y-85202438D02*
X181533333Y-85250057D01*
X182485714Y-86154819D02*
X181914286Y-86154819D01*
X182200000Y-86154819D02*
X182200000Y-85154819D01*
X182200000Y-85154819D02*
X182104762Y-85297676D01*
X182104762Y-85297676D02*
X182009524Y-85392914D01*
X182009524Y-85392914D02*
X181914286Y-85440533D01*
X122398095Y-73804819D02*
X122398095Y-72804819D01*
X122398095Y-73281009D02*
X122969523Y-73281009D01*
X122969523Y-73804819D02*
X122969523Y-72804819D01*
X123969523Y-73804819D02*
X123398095Y-73804819D01*
X123683809Y-73804819D02*
X123683809Y-72804819D01*
X123683809Y-72804819D02*
X123588571Y-72947676D01*
X123588571Y-72947676D02*
X123493333Y-73042914D01*
X123493333Y-73042914D02*
X123398095Y-73090533D01*
X185833333Y-123359580D02*
X185785714Y-123407200D01*
X185785714Y-123407200D02*
X185642857Y-123454819D01*
X185642857Y-123454819D02*
X185547619Y-123454819D01*
X185547619Y-123454819D02*
X185404762Y-123407200D01*
X185404762Y-123407200D02*
X185309524Y-123311961D01*
X185309524Y-123311961D02*
X185261905Y-123216723D01*
X185261905Y-123216723D02*
X185214286Y-123026247D01*
X185214286Y-123026247D02*
X185214286Y-122883390D01*
X185214286Y-122883390D02*
X185261905Y-122692914D01*
X185261905Y-122692914D02*
X185309524Y-122597676D01*
X185309524Y-122597676D02*
X185404762Y-122502438D01*
X185404762Y-122502438D02*
X185547619Y-122454819D01*
X185547619Y-122454819D02*
X185642857Y-122454819D01*
X185642857Y-122454819D02*
X185785714Y-122502438D01*
X185785714Y-122502438D02*
X185833333Y-122550057D01*
X186404762Y-122883390D02*
X186309524Y-122835771D01*
X186309524Y-122835771D02*
X186261905Y-122788152D01*
X186261905Y-122788152D02*
X186214286Y-122692914D01*
X186214286Y-122692914D02*
X186214286Y-122645295D01*
X186214286Y-122645295D02*
X186261905Y-122550057D01*
X186261905Y-122550057D02*
X186309524Y-122502438D01*
X186309524Y-122502438D02*
X186404762Y-122454819D01*
X186404762Y-122454819D02*
X186595238Y-122454819D01*
X186595238Y-122454819D02*
X186690476Y-122502438D01*
X186690476Y-122502438D02*
X186738095Y-122550057D01*
X186738095Y-122550057D02*
X186785714Y-122645295D01*
X186785714Y-122645295D02*
X186785714Y-122692914D01*
X186785714Y-122692914D02*
X186738095Y-122788152D01*
X186738095Y-122788152D02*
X186690476Y-122835771D01*
X186690476Y-122835771D02*
X186595238Y-122883390D01*
X186595238Y-122883390D02*
X186404762Y-122883390D01*
X186404762Y-122883390D02*
X186309524Y-122931009D01*
X186309524Y-122931009D02*
X186261905Y-122978628D01*
X186261905Y-122978628D02*
X186214286Y-123073866D01*
X186214286Y-123073866D02*
X186214286Y-123264342D01*
X186214286Y-123264342D02*
X186261905Y-123359580D01*
X186261905Y-123359580D02*
X186309524Y-123407200D01*
X186309524Y-123407200D02*
X186404762Y-123454819D01*
X186404762Y-123454819D02*
X186595238Y-123454819D01*
X186595238Y-123454819D02*
X186690476Y-123407200D01*
X186690476Y-123407200D02*
X186738095Y-123359580D01*
X186738095Y-123359580D02*
X186785714Y-123264342D01*
X186785714Y-123264342D02*
X186785714Y-123073866D01*
X186785714Y-123073866D02*
X186738095Y-122978628D01*
X186738095Y-122978628D02*
X186690476Y-122931009D01*
X186690476Y-122931009D02*
X186595238Y-122883390D01*
X141707142Y-123859580D02*
X141659523Y-123907200D01*
X141659523Y-123907200D02*
X141516666Y-123954819D01*
X141516666Y-123954819D02*
X141421428Y-123954819D01*
X141421428Y-123954819D02*
X141278571Y-123907200D01*
X141278571Y-123907200D02*
X141183333Y-123811961D01*
X141183333Y-123811961D02*
X141135714Y-123716723D01*
X141135714Y-123716723D02*
X141088095Y-123526247D01*
X141088095Y-123526247D02*
X141088095Y-123383390D01*
X141088095Y-123383390D02*
X141135714Y-123192914D01*
X141135714Y-123192914D02*
X141183333Y-123097676D01*
X141183333Y-123097676D02*
X141278571Y-123002438D01*
X141278571Y-123002438D02*
X141421428Y-122954819D01*
X141421428Y-122954819D02*
X141516666Y-122954819D01*
X141516666Y-122954819D02*
X141659523Y-123002438D01*
X141659523Y-123002438D02*
X141707142Y-123050057D01*
X142659523Y-123954819D02*
X142088095Y-123954819D01*
X142373809Y-123954819D02*
X142373809Y-122954819D01*
X142373809Y-122954819D02*
X142278571Y-123097676D01*
X142278571Y-123097676D02*
X142183333Y-123192914D01*
X142183333Y-123192914D02*
X142088095Y-123240533D01*
X143564285Y-122954819D02*
X143088095Y-122954819D01*
X143088095Y-122954819D02*
X143040476Y-123431009D01*
X143040476Y-123431009D02*
X143088095Y-123383390D01*
X143088095Y-123383390D02*
X143183333Y-123335771D01*
X143183333Y-123335771D02*
X143421428Y-123335771D01*
X143421428Y-123335771D02*
X143516666Y-123383390D01*
X143516666Y-123383390D02*
X143564285Y-123431009D01*
X143564285Y-123431009D02*
X143611904Y-123526247D01*
X143611904Y-123526247D02*
X143611904Y-123764342D01*
X143611904Y-123764342D02*
X143564285Y-123859580D01*
X143564285Y-123859580D02*
X143516666Y-123907200D01*
X143516666Y-123907200D02*
X143421428Y-123954819D01*
X143421428Y-123954819D02*
X143183333Y-123954819D01*
X143183333Y-123954819D02*
X143088095Y-123907200D01*
X143088095Y-123907200D02*
X143040476Y-123859580D01*
X182833333Y-109359580D02*
X182785714Y-109407200D01*
X182785714Y-109407200D02*
X182642857Y-109454819D01*
X182642857Y-109454819D02*
X182547619Y-109454819D01*
X182547619Y-109454819D02*
X182404762Y-109407200D01*
X182404762Y-109407200D02*
X182309524Y-109311961D01*
X182309524Y-109311961D02*
X182261905Y-109216723D01*
X182261905Y-109216723D02*
X182214286Y-109026247D01*
X182214286Y-109026247D02*
X182214286Y-108883390D01*
X182214286Y-108883390D02*
X182261905Y-108692914D01*
X182261905Y-108692914D02*
X182309524Y-108597676D01*
X182309524Y-108597676D02*
X182404762Y-108502438D01*
X182404762Y-108502438D02*
X182547619Y-108454819D01*
X182547619Y-108454819D02*
X182642857Y-108454819D01*
X182642857Y-108454819D02*
X182785714Y-108502438D01*
X182785714Y-108502438D02*
X182833333Y-108550057D01*
X183166667Y-108454819D02*
X183833333Y-108454819D01*
X183833333Y-108454819D02*
X183404762Y-109454819D01*
X128106666Y-130094819D02*
X128106666Y-130809104D01*
X128106666Y-130809104D02*
X128059047Y-130951961D01*
X128059047Y-130951961D02*
X127963809Y-131047200D01*
X127963809Y-131047200D02*
X127820952Y-131094819D01*
X127820952Y-131094819D02*
X127725714Y-131094819D01*
X129106666Y-131094819D02*
X128535238Y-131094819D01*
X128820952Y-131094819D02*
X128820952Y-130094819D01*
X128820952Y-130094819D02*
X128725714Y-130237676D01*
X128725714Y-130237676D02*
X128630476Y-130332914D01*
X128630476Y-130332914D02*
X128535238Y-130380533D01*
X178166666Y-81454819D02*
X178166666Y-82169104D01*
X178166666Y-82169104D02*
X178119047Y-82311961D01*
X178119047Y-82311961D02*
X178023809Y-82407200D01*
X178023809Y-82407200D02*
X177880952Y-82454819D01*
X177880952Y-82454819D02*
X177785714Y-82454819D01*
X178547619Y-81454819D02*
X179166666Y-81454819D01*
X179166666Y-81454819D02*
X178833333Y-81835771D01*
X178833333Y-81835771D02*
X178976190Y-81835771D01*
X178976190Y-81835771D02*
X179071428Y-81883390D01*
X179071428Y-81883390D02*
X179119047Y-81931009D01*
X179119047Y-81931009D02*
X179166666Y-82026247D01*
X179166666Y-82026247D02*
X179166666Y-82264342D01*
X179166666Y-82264342D02*
X179119047Y-82359580D01*
X179119047Y-82359580D02*
X179071428Y-82407200D01*
X179071428Y-82407200D02*
X178976190Y-82454819D01*
X178976190Y-82454819D02*
X178690476Y-82454819D01*
X178690476Y-82454819D02*
X178595238Y-82407200D01*
X178595238Y-82407200D02*
X178547619Y-82359580D01*
X175519048Y-84723866D02*
X176280953Y-84723866D01*
X167358571Y-85624700D02*
X168501429Y-85624700D01*
X167930000Y-86196128D02*
X167930000Y-85053271D01*
X144974761Y-86110057D02*
X144879523Y-86062438D01*
X144879523Y-86062438D02*
X144784285Y-85967200D01*
X144784285Y-85967200D02*
X144641428Y-85824342D01*
X144641428Y-85824342D02*
X144546190Y-85776723D01*
X144546190Y-85776723D02*
X144450952Y-85776723D01*
X144498571Y-86014819D02*
X144403333Y-85967200D01*
X144403333Y-85967200D02*
X144308095Y-85871961D01*
X144308095Y-85871961D02*
X144260476Y-85681485D01*
X144260476Y-85681485D02*
X144260476Y-85348152D01*
X144260476Y-85348152D02*
X144308095Y-85157676D01*
X144308095Y-85157676D02*
X144403333Y-85062438D01*
X144403333Y-85062438D02*
X144498571Y-85014819D01*
X144498571Y-85014819D02*
X144689047Y-85014819D01*
X144689047Y-85014819D02*
X144784285Y-85062438D01*
X144784285Y-85062438D02*
X144879523Y-85157676D01*
X144879523Y-85157676D02*
X144927142Y-85348152D01*
X144927142Y-85348152D02*
X144927142Y-85681485D01*
X144927142Y-85681485D02*
X144879523Y-85871961D01*
X144879523Y-85871961D02*
X144784285Y-85967200D01*
X144784285Y-85967200D02*
X144689047Y-86014819D01*
X144689047Y-86014819D02*
X144498571Y-86014819D01*
X145308095Y-85110057D02*
X145355714Y-85062438D01*
X145355714Y-85062438D02*
X145450952Y-85014819D01*
X145450952Y-85014819D02*
X145689047Y-85014819D01*
X145689047Y-85014819D02*
X145784285Y-85062438D01*
X145784285Y-85062438D02*
X145831904Y-85110057D01*
X145831904Y-85110057D02*
X145879523Y-85205295D01*
X145879523Y-85205295D02*
X145879523Y-85300533D01*
X145879523Y-85300533D02*
X145831904Y-85443390D01*
X145831904Y-85443390D02*
X145260476Y-86014819D01*
X145260476Y-86014819D02*
X145879523Y-86014819D01*
X151333333Y-113954819D02*
X151000000Y-113478628D01*
X150761905Y-113954819D02*
X150761905Y-112954819D01*
X150761905Y-112954819D02*
X151142857Y-112954819D01*
X151142857Y-112954819D02*
X151238095Y-113002438D01*
X151238095Y-113002438D02*
X151285714Y-113050057D01*
X151285714Y-113050057D02*
X151333333Y-113145295D01*
X151333333Y-113145295D02*
X151333333Y-113288152D01*
X151333333Y-113288152D02*
X151285714Y-113383390D01*
X151285714Y-113383390D02*
X151238095Y-113431009D01*
X151238095Y-113431009D02*
X151142857Y-113478628D01*
X151142857Y-113478628D02*
X150761905Y-113478628D01*
X151666667Y-112954819D02*
X152285714Y-112954819D01*
X152285714Y-112954819D02*
X151952381Y-113335771D01*
X151952381Y-113335771D02*
X152095238Y-113335771D01*
X152095238Y-113335771D02*
X152190476Y-113383390D01*
X152190476Y-113383390D02*
X152238095Y-113431009D01*
X152238095Y-113431009D02*
X152285714Y-113526247D01*
X152285714Y-113526247D02*
X152285714Y-113764342D01*
X152285714Y-113764342D02*
X152238095Y-113859580D01*
X152238095Y-113859580D02*
X152190476Y-113907200D01*
X152190476Y-113907200D02*
X152095238Y-113954819D01*
X152095238Y-113954819D02*
X151809524Y-113954819D01*
X151809524Y-113954819D02*
X151714286Y-113907200D01*
X151714286Y-113907200D02*
X151666667Y-113859580D01*
X125758095Y-143194819D02*
X125758095Y-142194819D01*
X125758095Y-142671009D02*
X126329523Y-142671009D01*
X126329523Y-143194819D02*
X126329523Y-142194819D01*
X126710476Y-142194819D02*
X127329523Y-142194819D01*
X127329523Y-142194819D02*
X126996190Y-142575771D01*
X126996190Y-142575771D02*
X127139047Y-142575771D01*
X127139047Y-142575771D02*
X127234285Y-142623390D01*
X127234285Y-142623390D02*
X127281904Y-142671009D01*
X127281904Y-142671009D02*
X127329523Y-142766247D01*
X127329523Y-142766247D02*
X127329523Y-143004342D01*
X127329523Y-143004342D02*
X127281904Y-143099580D01*
X127281904Y-143099580D02*
X127234285Y-143147200D01*
X127234285Y-143147200D02*
X127139047Y-143194819D01*
X127139047Y-143194819D02*
X126853333Y-143194819D01*
X126853333Y-143194819D02*
X126758095Y-143147200D01*
X126758095Y-143147200D02*
X126710476Y-143099580D01*
X151166666Y-85164819D02*
X151166666Y-85879104D01*
X151166666Y-85879104D02*
X151119047Y-86021961D01*
X151119047Y-86021961D02*
X151023809Y-86117200D01*
X151023809Y-86117200D02*
X150880952Y-86164819D01*
X150880952Y-86164819D02*
X150785714Y-86164819D01*
X152071428Y-85498152D02*
X152071428Y-86164819D01*
X151833333Y-85117200D02*
X151595238Y-85831485D01*
X151595238Y-85831485D02*
X152214285Y-85831485D01*
X146028571Y-84764700D02*
X147171429Y-84764700D01*
X146600000Y-85336128D02*
X146600000Y-84193271D01*
X158519048Y-84723866D02*
X159280953Y-84723866D01*
X170333333Y-92454819D02*
X169857143Y-92454819D01*
X169857143Y-92454819D02*
X169857143Y-91454819D01*
X171190476Y-92454819D02*
X170619048Y-92454819D01*
X170904762Y-92454819D02*
X170904762Y-91454819D01*
X170904762Y-91454819D02*
X170809524Y-91597676D01*
X170809524Y-91597676D02*
X170714286Y-91692914D01*
X170714286Y-91692914D02*
X170619048Y-91740533D01*
X142857142Y-114359580D02*
X142809523Y-114407200D01*
X142809523Y-114407200D02*
X142666666Y-114454819D01*
X142666666Y-114454819D02*
X142571428Y-114454819D01*
X142571428Y-114454819D02*
X142428571Y-114407200D01*
X142428571Y-114407200D02*
X142333333Y-114311961D01*
X142333333Y-114311961D02*
X142285714Y-114216723D01*
X142285714Y-114216723D02*
X142238095Y-114026247D01*
X142238095Y-114026247D02*
X142238095Y-113883390D01*
X142238095Y-113883390D02*
X142285714Y-113692914D01*
X142285714Y-113692914D02*
X142333333Y-113597676D01*
X142333333Y-113597676D02*
X142428571Y-113502438D01*
X142428571Y-113502438D02*
X142571428Y-113454819D01*
X142571428Y-113454819D02*
X142666666Y-113454819D01*
X142666666Y-113454819D02*
X142809523Y-113502438D01*
X142809523Y-113502438D02*
X142857142Y-113550057D01*
X143809523Y-114454819D02*
X143238095Y-114454819D01*
X143523809Y-114454819D02*
X143523809Y-113454819D01*
X143523809Y-113454819D02*
X143428571Y-113597676D01*
X143428571Y-113597676D02*
X143333333Y-113692914D01*
X143333333Y-113692914D02*
X143238095Y-113740533D01*
X144761904Y-114454819D02*
X144190476Y-114454819D01*
X144476190Y-114454819D02*
X144476190Y-113454819D01*
X144476190Y-113454819D02*
X144380952Y-113597676D01*
X144380952Y-113597676D02*
X144285714Y-113692914D01*
X144285714Y-113692914D02*
X144190476Y-113740533D01*
X181738095Y-109954819D02*
X181738095Y-110764342D01*
X181738095Y-110764342D02*
X181785714Y-110859580D01*
X181785714Y-110859580D02*
X181833333Y-110907200D01*
X181833333Y-110907200D02*
X181928571Y-110954819D01*
X181928571Y-110954819D02*
X182119047Y-110954819D01*
X182119047Y-110954819D02*
X182214285Y-110907200D01*
X182214285Y-110907200D02*
X182261904Y-110859580D01*
X182261904Y-110859580D02*
X182309523Y-110764342D01*
X182309523Y-110764342D02*
X182309523Y-109954819D01*
X182690476Y-109954819D02*
X183309523Y-109954819D01*
X183309523Y-109954819D02*
X182976190Y-110335771D01*
X182976190Y-110335771D02*
X183119047Y-110335771D01*
X183119047Y-110335771D02*
X183214285Y-110383390D01*
X183214285Y-110383390D02*
X183261904Y-110431009D01*
X183261904Y-110431009D02*
X183309523Y-110526247D01*
X183309523Y-110526247D02*
X183309523Y-110764342D01*
X183309523Y-110764342D02*
X183261904Y-110859580D01*
X183261904Y-110859580D02*
X183214285Y-110907200D01*
X183214285Y-110907200D02*
X183119047Y-110954819D01*
X183119047Y-110954819D02*
X182833333Y-110954819D01*
X182833333Y-110954819D02*
X182738095Y-110907200D01*
X182738095Y-110907200D02*
X182690476Y-110859580D01*
X130954819Y-94333333D02*
X131669104Y-94333333D01*
X131669104Y-94333333D02*
X131811961Y-94380952D01*
X131811961Y-94380952D02*
X131907200Y-94476190D01*
X131907200Y-94476190D02*
X131954819Y-94619047D01*
X131954819Y-94619047D02*
X131954819Y-94714285D01*
X130954819Y-93380952D02*
X130954819Y-93857142D01*
X130954819Y-93857142D02*
X131431009Y-93904761D01*
X131431009Y-93904761D02*
X131383390Y-93857142D01*
X131383390Y-93857142D02*
X131335771Y-93761904D01*
X131335771Y-93761904D02*
X131335771Y-93523809D01*
X131335771Y-93523809D02*
X131383390Y-93428571D01*
X131383390Y-93428571D02*
X131431009Y-93380952D01*
X131431009Y-93380952D02*
X131526247Y-93333333D01*
X131526247Y-93333333D02*
X131764342Y-93333333D01*
X131764342Y-93333333D02*
X131859580Y-93380952D01*
X131859580Y-93380952D02*
X131907200Y-93428571D01*
X131907200Y-93428571D02*
X131954819Y-93523809D01*
X131954819Y-93523809D02*
X131954819Y-93761904D01*
X131954819Y-93761904D02*
X131907200Y-93857142D01*
X131907200Y-93857142D02*
X131859580Y-93904761D01*
X187333333Y-110454819D02*
X186857143Y-110454819D01*
X186857143Y-110454819D02*
X186857143Y-109454819D01*
X187571429Y-109454819D02*
X188190476Y-109454819D01*
X188190476Y-109454819D02*
X187857143Y-109835771D01*
X187857143Y-109835771D02*
X188000000Y-109835771D01*
X188000000Y-109835771D02*
X188095238Y-109883390D01*
X188095238Y-109883390D02*
X188142857Y-109931009D01*
X188142857Y-109931009D02*
X188190476Y-110026247D01*
X188190476Y-110026247D02*
X188190476Y-110264342D01*
X188190476Y-110264342D02*
X188142857Y-110359580D01*
X188142857Y-110359580D02*
X188095238Y-110407200D01*
X188095238Y-110407200D02*
X188000000Y-110454819D01*
X188000000Y-110454819D02*
X187714286Y-110454819D01*
X187714286Y-110454819D02*
X187619048Y-110407200D01*
X187619048Y-110407200D02*
X187571429Y-110359580D01*
X138657142Y-103759580D02*
X138609523Y-103807200D01*
X138609523Y-103807200D02*
X138466666Y-103854819D01*
X138466666Y-103854819D02*
X138371428Y-103854819D01*
X138371428Y-103854819D02*
X138228571Y-103807200D01*
X138228571Y-103807200D02*
X138133333Y-103711961D01*
X138133333Y-103711961D02*
X138085714Y-103616723D01*
X138085714Y-103616723D02*
X138038095Y-103426247D01*
X138038095Y-103426247D02*
X138038095Y-103283390D01*
X138038095Y-103283390D02*
X138085714Y-103092914D01*
X138085714Y-103092914D02*
X138133333Y-102997676D01*
X138133333Y-102997676D02*
X138228571Y-102902438D01*
X138228571Y-102902438D02*
X138371428Y-102854819D01*
X138371428Y-102854819D02*
X138466666Y-102854819D01*
X138466666Y-102854819D02*
X138609523Y-102902438D01*
X138609523Y-102902438D02*
X138657142Y-102950057D01*
X139609523Y-103854819D02*
X139038095Y-103854819D01*
X139323809Y-103854819D02*
X139323809Y-102854819D01*
X139323809Y-102854819D02*
X139228571Y-102997676D01*
X139228571Y-102997676D02*
X139133333Y-103092914D01*
X139133333Y-103092914D02*
X139038095Y-103140533D01*
X139990476Y-102950057D02*
X140038095Y-102902438D01*
X140038095Y-102902438D02*
X140133333Y-102854819D01*
X140133333Y-102854819D02*
X140371428Y-102854819D01*
X140371428Y-102854819D02*
X140466666Y-102902438D01*
X140466666Y-102902438D02*
X140514285Y-102950057D01*
X140514285Y-102950057D02*
X140561904Y-103045295D01*
X140561904Y-103045295D02*
X140561904Y-103140533D01*
X140561904Y-103140533D02*
X140514285Y-103283390D01*
X140514285Y-103283390D02*
X139942857Y-103854819D01*
X139942857Y-103854819D02*
X140561904Y-103854819D01*
X164811905Y-86064819D02*
X164811905Y-85064819D01*
X164811905Y-85064819D02*
X165050000Y-85064819D01*
X165050000Y-85064819D02*
X165192857Y-85112438D01*
X165192857Y-85112438D02*
X165288095Y-85207676D01*
X165288095Y-85207676D02*
X165335714Y-85302914D01*
X165335714Y-85302914D02*
X165383333Y-85493390D01*
X165383333Y-85493390D02*
X165383333Y-85636247D01*
X165383333Y-85636247D02*
X165335714Y-85826723D01*
X165335714Y-85826723D02*
X165288095Y-85921961D01*
X165288095Y-85921961D02*
X165192857Y-86017200D01*
X165192857Y-86017200D02*
X165050000Y-86064819D01*
X165050000Y-86064819D02*
X164811905Y-86064819D01*
X166335714Y-86064819D02*
X165764286Y-86064819D01*
X166050000Y-86064819D02*
X166050000Y-85064819D01*
X166050000Y-85064819D02*
X165954762Y-85207676D01*
X165954762Y-85207676D02*
X165859524Y-85302914D01*
X165859524Y-85302914D02*
X165764286Y-85350533D01*
X166638095Y-86104819D02*
X166638095Y-85104819D01*
X167209523Y-86104819D02*
X166780952Y-85533390D01*
X167209523Y-85104819D02*
X166638095Y-85676247D01*
X177045180Y-96238095D02*
X176235657Y-96238095D01*
X176235657Y-96238095D02*
X176140419Y-96285714D01*
X176140419Y-96285714D02*
X176092800Y-96333333D01*
X176092800Y-96333333D02*
X176045180Y-96428571D01*
X176045180Y-96428571D02*
X176045180Y-96619047D01*
X176045180Y-96619047D02*
X176092800Y-96714285D01*
X176092800Y-96714285D02*
X176140419Y-96761904D01*
X176140419Y-96761904D02*
X176235657Y-96809523D01*
X176235657Y-96809523D02*
X177045180Y-96809523D01*
X176045180Y-97809523D02*
X176045180Y-97238095D01*
X176045180Y-97523809D02*
X177045180Y-97523809D01*
X177045180Y-97523809D02*
X176902323Y-97428571D01*
X176902323Y-97428571D02*
X176807085Y-97333333D01*
X176807085Y-97333333D02*
X176759466Y-97238095D01*
X175545180Y-97615001D02*
X175307085Y-97615001D01*
X175402323Y-97376906D02*
X175307085Y-97615001D01*
X175307085Y-97615001D02*
X175402323Y-97853096D01*
X175116609Y-97472144D02*
X175307085Y-97615001D01*
X175307085Y-97615001D02*
X175116609Y-97757858D01*
X174454819Y-97615000D02*
X174692914Y-97615000D01*
X174597676Y-97853095D02*
X174692914Y-97615000D01*
X174692914Y-97615000D02*
X174597676Y-97376905D01*
X174883390Y-97757857D02*
X174692914Y-97615000D01*
X174692914Y-97615000D02*
X174883390Y-97472143D01*
X172541666Y-89931009D02*
X172208333Y-89931009D01*
X172208333Y-90454819D02*
X172208333Y-89454819D01*
X172208333Y-89454819D02*
X172684523Y-89454819D01*
X173589285Y-90454819D02*
X173017857Y-90454819D01*
X173303571Y-90454819D02*
X173303571Y-89454819D01*
X173303571Y-89454819D02*
X173208333Y-89597676D01*
X173208333Y-89597676D02*
X173113095Y-89692914D01*
X173113095Y-89692914D02*
X173017857Y-89740533D01*
X181706666Y-132939819D02*
X181706666Y-133654104D01*
X181706666Y-133654104D02*
X181659047Y-133796961D01*
X181659047Y-133796961D02*
X181563809Y-133892200D01*
X181563809Y-133892200D02*
X181420952Y-133939819D01*
X181420952Y-133939819D02*
X181325714Y-133939819D01*
X182087619Y-132939819D02*
X182754285Y-132939819D01*
X182754285Y-132939819D02*
X182325714Y-133939819D01*
X151333333Y-116454819D02*
X151000000Y-115978628D01*
X150761905Y-116454819D02*
X150761905Y-115454819D01*
X150761905Y-115454819D02*
X151142857Y-115454819D01*
X151142857Y-115454819D02*
X151238095Y-115502438D01*
X151238095Y-115502438D02*
X151285714Y-115550057D01*
X151285714Y-115550057D02*
X151333333Y-115645295D01*
X151333333Y-115645295D02*
X151333333Y-115788152D01*
X151333333Y-115788152D02*
X151285714Y-115883390D01*
X151285714Y-115883390D02*
X151238095Y-115931009D01*
X151238095Y-115931009D02*
X151142857Y-115978628D01*
X151142857Y-115978628D02*
X150761905Y-115978628D01*
X152190476Y-115788152D02*
X152190476Y-116454819D01*
X151952381Y-115407200D02*
X151714286Y-116121485D01*
X151714286Y-116121485D02*
X152333333Y-116121485D01*
X129333333Y-99554819D02*
X128857143Y-99554819D01*
X128857143Y-99554819D02*
X128857143Y-98554819D01*
X130095238Y-98888152D02*
X130095238Y-99554819D01*
X129857143Y-98507200D02*
X129619048Y-99221485D01*
X129619048Y-99221485D02*
X130238095Y-99221485D01*
X151166666Y-91931009D02*
X150833333Y-91931009D01*
X150833333Y-92454819D02*
X150833333Y-91454819D01*
X150833333Y-91454819D02*
X151309523Y-91454819D01*
X151595238Y-91454819D02*
X152214285Y-91454819D01*
X152214285Y-91454819D02*
X151880952Y-91835771D01*
X151880952Y-91835771D02*
X152023809Y-91835771D01*
X152023809Y-91835771D02*
X152119047Y-91883390D01*
X152119047Y-91883390D02*
X152166666Y-91931009D01*
X152166666Y-91931009D02*
X152214285Y-92026247D01*
X152214285Y-92026247D02*
X152214285Y-92264342D01*
X152214285Y-92264342D02*
X152166666Y-92359580D01*
X152166666Y-92359580D02*
X152119047Y-92407200D01*
X152119047Y-92407200D02*
X152023809Y-92454819D01*
X152023809Y-92454819D02*
X151738095Y-92454819D01*
X151738095Y-92454819D02*
X151642857Y-92407200D01*
X151642857Y-92407200D02*
X151595238Y-92359580D01*
X173333333Y-122359580D02*
X173285714Y-122407200D01*
X173285714Y-122407200D02*
X173142857Y-122454819D01*
X173142857Y-122454819D02*
X173047619Y-122454819D01*
X173047619Y-122454819D02*
X172904762Y-122407200D01*
X172904762Y-122407200D02*
X172809524Y-122311961D01*
X172809524Y-122311961D02*
X172761905Y-122216723D01*
X172761905Y-122216723D02*
X172714286Y-122026247D01*
X172714286Y-122026247D02*
X172714286Y-121883390D01*
X172714286Y-121883390D02*
X172761905Y-121692914D01*
X172761905Y-121692914D02*
X172809524Y-121597676D01*
X172809524Y-121597676D02*
X172904762Y-121502438D01*
X172904762Y-121502438D02*
X173047619Y-121454819D01*
X173047619Y-121454819D02*
X173142857Y-121454819D01*
X173142857Y-121454819D02*
X173285714Y-121502438D01*
X173285714Y-121502438D02*
X173333333Y-121550057D01*
X174190476Y-121788152D02*
X174190476Y-122454819D01*
X173952381Y-121407200D02*
X173714286Y-122121485D01*
X173714286Y-122121485D02*
X174333333Y-122121485D01*
X125666666Y-79954819D02*
X125666666Y-80669104D01*
X125666666Y-80669104D02*
X125619047Y-80811961D01*
X125619047Y-80811961D02*
X125523809Y-80907200D01*
X125523809Y-80907200D02*
X125380952Y-80954819D01*
X125380952Y-80954819D02*
X125285714Y-80954819D01*
X126095238Y-80050057D02*
X126142857Y-80002438D01*
X126142857Y-80002438D02*
X126238095Y-79954819D01*
X126238095Y-79954819D02*
X126476190Y-79954819D01*
X126476190Y-79954819D02*
X126571428Y-80002438D01*
X126571428Y-80002438D02*
X126619047Y-80050057D01*
X126619047Y-80050057D02*
X126666666Y-80145295D01*
X126666666Y-80145295D02*
X126666666Y-80240533D01*
X126666666Y-80240533D02*
X126619047Y-80383390D01*
X126619047Y-80383390D02*
X126047619Y-80954819D01*
X126047619Y-80954819D02*
X126666666Y-80954819D01*
X129028571Y-84764700D02*
X130171429Y-84764700D01*
X129600000Y-85336128D02*
X129600000Y-84193271D01*
X141519048Y-84723866D02*
X142280953Y-84723866D01*
X146357142Y-123859580D02*
X146309523Y-123907200D01*
X146309523Y-123907200D02*
X146166666Y-123954819D01*
X146166666Y-123954819D02*
X146071428Y-123954819D01*
X146071428Y-123954819D02*
X145928571Y-123907200D01*
X145928571Y-123907200D02*
X145833333Y-123811961D01*
X145833333Y-123811961D02*
X145785714Y-123716723D01*
X145785714Y-123716723D02*
X145738095Y-123526247D01*
X145738095Y-123526247D02*
X145738095Y-123383390D01*
X145738095Y-123383390D02*
X145785714Y-123192914D01*
X145785714Y-123192914D02*
X145833333Y-123097676D01*
X145833333Y-123097676D02*
X145928571Y-123002438D01*
X145928571Y-123002438D02*
X146071428Y-122954819D01*
X146071428Y-122954819D02*
X146166666Y-122954819D01*
X146166666Y-122954819D02*
X146309523Y-123002438D01*
X146309523Y-123002438D02*
X146357142Y-123050057D01*
X147309523Y-123954819D02*
X146738095Y-123954819D01*
X147023809Y-123954819D02*
X147023809Y-122954819D01*
X147023809Y-122954819D02*
X146928571Y-123097676D01*
X146928571Y-123097676D02*
X146833333Y-123192914D01*
X146833333Y-123192914D02*
X146738095Y-123240533D01*
X148166666Y-123288152D02*
X148166666Y-123954819D01*
X147928571Y-122907200D02*
X147690476Y-123621485D01*
X147690476Y-123621485D02*
X148309523Y-123621485D01*
X174738095Y-129454819D02*
X174738095Y-130264342D01*
X174738095Y-130264342D02*
X174785714Y-130359580D01*
X174785714Y-130359580D02*
X174833333Y-130407200D01*
X174833333Y-130407200D02*
X174928571Y-130454819D01*
X174928571Y-130454819D02*
X175119047Y-130454819D01*
X175119047Y-130454819D02*
X175214285Y-130407200D01*
X175214285Y-130407200D02*
X175261904Y-130359580D01*
X175261904Y-130359580D02*
X175309523Y-130264342D01*
X175309523Y-130264342D02*
X175309523Y-129454819D01*
X175738095Y-129550057D02*
X175785714Y-129502438D01*
X175785714Y-129502438D02*
X175880952Y-129454819D01*
X175880952Y-129454819D02*
X176119047Y-129454819D01*
X176119047Y-129454819D02*
X176214285Y-129502438D01*
X176214285Y-129502438D02*
X176261904Y-129550057D01*
X176261904Y-129550057D02*
X176309523Y-129645295D01*
X176309523Y-129645295D02*
X176309523Y-129740533D01*
X176309523Y-129740533D02*
X176261904Y-129883390D01*
X176261904Y-129883390D02*
X175690476Y-130454819D01*
X175690476Y-130454819D02*
X176309523Y-130454819D01*
X138333333Y-127954819D02*
X138000000Y-127478628D01*
X137761905Y-127954819D02*
X137761905Y-126954819D01*
X137761905Y-126954819D02*
X138142857Y-126954819D01*
X138142857Y-126954819D02*
X138238095Y-127002438D01*
X138238095Y-127002438D02*
X138285714Y-127050057D01*
X138285714Y-127050057D02*
X138333333Y-127145295D01*
X138333333Y-127145295D02*
X138333333Y-127288152D01*
X138333333Y-127288152D02*
X138285714Y-127383390D01*
X138285714Y-127383390D02*
X138238095Y-127431009D01*
X138238095Y-127431009D02*
X138142857Y-127478628D01*
X138142857Y-127478628D02*
X137761905Y-127478628D01*
X139285714Y-127954819D02*
X138714286Y-127954819D01*
X139000000Y-127954819D02*
X139000000Y-126954819D01*
X139000000Y-126954819D02*
X138904762Y-127097676D01*
X138904762Y-127097676D02*
X138809524Y-127192914D01*
X138809524Y-127192914D02*
X138714286Y-127240533D01*
X137857142Y-123922080D02*
X137809523Y-123969700D01*
X137809523Y-123969700D02*
X137666666Y-124017319D01*
X137666666Y-124017319D02*
X137571428Y-124017319D01*
X137571428Y-124017319D02*
X137428571Y-123969700D01*
X137428571Y-123969700D02*
X137333333Y-123874461D01*
X137333333Y-123874461D02*
X137285714Y-123779223D01*
X137285714Y-123779223D02*
X137238095Y-123588747D01*
X137238095Y-123588747D02*
X137238095Y-123445890D01*
X137238095Y-123445890D02*
X137285714Y-123255414D01*
X137285714Y-123255414D02*
X137333333Y-123160176D01*
X137333333Y-123160176D02*
X137428571Y-123064938D01*
X137428571Y-123064938D02*
X137571428Y-123017319D01*
X137571428Y-123017319D02*
X137666666Y-123017319D01*
X137666666Y-123017319D02*
X137809523Y-123064938D01*
X137809523Y-123064938D02*
X137857142Y-123112557D01*
X138809523Y-124017319D02*
X138238095Y-124017319D01*
X138523809Y-124017319D02*
X138523809Y-123017319D01*
X138523809Y-123017319D02*
X138428571Y-123160176D01*
X138428571Y-123160176D02*
X138333333Y-123255414D01*
X138333333Y-123255414D02*
X138238095Y-123303033D01*
X139666666Y-123017319D02*
X139476190Y-123017319D01*
X139476190Y-123017319D02*
X139380952Y-123064938D01*
X139380952Y-123064938D02*
X139333333Y-123112557D01*
X139333333Y-123112557D02*
X139238095Y-123255414D01*
X139238095Y-123255414D02*
X139190476Y-123445890D01*
X139190476Y-123445890D02*
X139190476Y-123826842D01*
X139190476Y-123826842D02*
X139238095Y-123922080D01*
X139238095Y-123922080D02*
X139285714Y-123969700D01*
X139285714Y-123969700D02*
X139380952Y-124017319D01*
X139380952Y-124017319D02*
X139571428Y-124017319D01*
X139571428Y-124017319D02*
X139666666Y-123969700D01*
X139666666Y-123969700D02*
X139714285Y-123922080D01*
X139714285Y-123922080D02*
X139761904Y-123826842D01*
X139761904Y-123826842D02*
X139761904Y-123588747D01*
X139761904Y-123588747D02*
X139714285Y-123493509D01*
X139714285Y-123493509D02*
X139666666Y-123445890D01*
X139666666Y-123445890D02*
X139571428Y-123398271D01*
X139571428Y-123398271D02*
X139380952Y-123398271D01*
X139380952Y-123398271D02*
X139285714Y-123445890D01*
X139285714Y-123445890D02*
X139238095Y-123493509D01*
X139238095Y-123493509D02*
X139190476Y-123588747D01*
X184098095Y-138154819D02*
X184098095Y-137154819D01*
X184098095Y-137631009D02*
X184669523Y-137631009D01*
X184669523Y-138154819D02*
X184669523Y-137154819D01*
X185574285Y-137488152D02*
X185574285Y-138154819D01*
X185336190Y-137107200D02*
X185098095Y-137821485D01*
X185098095Y-137821485D02*
X185717142Y-137821485D01*
X186333333Y-126359580D02*
X186285714Y-126407200D01*
X186285714Y-126407200D02*
X186142857Y-126454819D01*
X186142857Y-126454819D02*
X186047619Y-126454819D01*
X186047619Y-126454819D02*
X185904762Y-126407200D01*
X185904762Y-126407200D02*
X185809524Y-126311961D01*
X185809524Y-126311961D02*
X185761905Y-126216723D01*
X185761905Y-126216723D02*
X185714286Y-126026247D01*
X185714286Y-126026247D02*
X185714286Y-125883390D01*
X185714286Y-125883390D02*
X185761905Y-125692914D01*
X185761905Y-125692914D02*
X185809524Y-125597676D01*
X185809524Y-125597676D02*
X185904762Y-125502438D01*
X185904762Y-125502438D02*
X186047619Y-125454819D01*
X186047619Y-125454819D02*
X186142857Y-125454819D01*
X186142857Y-125454819D02*
X186285714Y-125502438D01*
X186285714Y-125502438D02*
X186333333Y-125550057D01*
X187238095Y-125454819D02*
X186761905Y-125454819D01*
X186761905Y-125454819D02*
X186714286Y-125931009D01*
X186714286Y-125931009D02*
X186761905Y-125883390D01*
X186761905Y-125883390D02*
X186857143Y-125835771D01*
X186857143Y-125835771D02*
X187095238Y-125835771D01*
X187095238Y-125835771D02*
X187190476Y-125883390D01*
X187190476Y-125883390D02*
X187238095Y-125931009D01*
X187238095Y-125931009D02*
X187285714Y-126026247D01*
X187285714Y-126026247D02*
X187285714Y-126264342D01*
X187285714Y-126264342D02*
X187238095Y-126359580D01*
X187238095Y-126359580D02*
X187190476Y-126407200D01*
X187190476Y-126407200D02*
X187095238Y-126454819D01*
X187095238Y-126454819D02*
X186857143Y-126454819D01*
X186857143Y-126454819D02*
X186761905Y-126407200D01*
X186761905Y-126407200D02*
X186714286Y-126359580D01*
X163333333Y-125159580D02*
X163285714Y-125207200D01*
X163285714Y-125207200D02*
X163142857Y-125254819D01*
X163142857Y-125254819D02*
X163047619Y-125254819D01*
X163047619Y-125254819D02*
X162904762Y-125207200D01*
X162904762Y-125207200D02*
X162809524Y-125111961D01*
X162809524Y-125111961D02*
X162761905Y-125016723D01*
X162761905Y-125016723D02*
X162714286Y-124826247D01*
X162714286Y-124826247D02*
X162714286Y-124683390D01*
X162714286Y-124683390D02*
X162761905Y-124492914D01*
X162761905Y-124492914D02*
X162809524Y-124397676D01*
X162809524Y-124397676D02*
X162904762Y-124302438D01*
X162904762Y-124302438D02*
X163047619Y-124254819D01*
X163047619Y-124254819D02*
X163142857Y-124254819D01*
X163142857Y-124254819D02*
X163285714Y-124302438D01*
X163285714Y-124302438D02*
X163333333Y-124350057D01*
X163666667Y-124254819D02*
X164285714Y-124254819D01*
X164285714Y-124254819D02*
X163952381Y-124635771D01*
X163952381Y-124635771D02*
X164095238Y-124635771D01*
X164095238Y-124635771D02*
X164190476Y-124683390D01*
X164190476Y-124683390D02*
X164238095Y-124731009D01*
X164238095Y-124731009D02*
X164285714Y-124826247D01*
X164285714Y-124826247D02*
X164285714Y-125064342D01*
X164285714Y-125064342D02*
X164238095Y-125159580D01*
X164238095Y-125159580D02*
X164190476Y-125207200D01*
X164190476Y-125207200D02*
X164095238Y-125254819D01*
X164095238Y-125254819D02*
X163809524Y-125254819D01*
X163809524Y-125254819D02*
X163714286Y-125207200D01*
X163714286Y-125207200D02*
X163666667Y-125159580D01*
X178833333Y-119859580D02*
X178785714Y-119907200D01*
X178785714Y-119907200D02*
X178642857Y-119954819D01*
X178642857Y-119954819D02*
X178547619Y-119954819D01*
X178547619Y-119954819D02*
X178404762Y-119907200D01*
X178404762Y-119907200D02*
X178309524Y-119811961D01*
X178309524Y-119811961D02*
X178261905Y-119716723D01*
X178261905Y-119716723D02*
X178214286Y-119526247D01*
X178214286Y-119526247D02*
X178214286Y-119383390D01*
X178214286Y-119383390D02*
X178261905Y-119192914D01*
X178261905Y-119192914D02*
X178309524Y-119097676D01*
X178309524Y-119097676D02*
X178404762Y-119002438D01*
X178404762Y-119002438D02*
X178547619Y-118954819D01*
X178547619Y-118954819D02*
X178642857Y-118954819D01*
X178642857Y-118954819D02*
X178785714Y-119002438D01*
X178785714Y-119002438D02*
X178833333Y-119050057D01*
X179690476Y-118954819D02*
X179500000Y-118954819D01*
X179500000Y-118954819D02*
X179404762Y-119002438D01*
X179404762Y-119002438D02*
X179357143Y-119050057D01*
X179357143Y-119050057D02*
X179261905Y-119192914D01*
X179261905Y-119192914D02*
X179214286Y-119383390D01*
X179214286Y-119383390D02*
X179214286Y-119764342D01*
X179214286Y-119764342D02*
X179261905Y-119859580D01*
X179261905Y-119859580D02*
X179309524Y-119907200D01*
X179309524Y-119907200D02*
X179404762Y-119954819D01*
X179404762Y-119954819D02*
X179595238Y-119954819D01*
X179595238Y-119954819D02*
X179690476Y-119907200D01*
X179690476Y-119907200D02*
X179738095Y-119859580D01*
X179738095Y-119859580D02*
X179785714Y-119764342D01*
X179785714Y-119764342D02*
X179785714Y-119526247D01*
X179785714Y-119526247D02*
X179738095Y-119431009D01*
X179738095Y-119431009D02*
X179690476Y-119383390D01*
X179690476Y-119383390D02*
X179595238Y-119335771D01*
X179595238Y-119335771D02*
X179404762Y-119335771D01*
X179404762Y-119335771D02*
X179309524Y-119383390D01*
X179309524Y-119383390D02*
X179261905Y-119431009D01*
X179261905Y-119431009D02*
X179214286Y-119526247D01*
X148038095Y-104854819D02*
X148038095Y-105664342D01*
X148038095Y-105664342D02*
X148085714Y-105759580D01*
X148085714Y-105759580D02*
X148133333Y-105807200D01*
X148133333Y-105807200D02*
X148228571Y-105854819D01*
X148228571Y-105854819D02*
X148419047Y-105854819D01*
X148419047Y-105854819D02*
X148514285Y-105807200D01*
X148514285Y-105807200D02*
X148561904Y-105759580D01*
X148561904Y-105759580D02*
X148609523Y-105664342D01*
X148609523Y-105664342D02*
X148609523Y-104854819D01*
X149514285Y-105188152D02*
X149514285Y-105854819D01*
X149276190Y-104807200D02*
X149038095Y-105521485D01*
X149038095Y-105521485D02*
X149657142Y-105521485D01*
X182888095Y-73814819D02*
X182888095Y-72814819D01*
X182888095Y-73291009D02*
X183459523Y-73291009D01*
X183459523Y-73814819D02*
X183459523Y-72814819D01*
X183888095Y-72910057D02*
X183935714Y-72862438D01*
X183935714Y-72862438D02*
X184030952Y-72814819D01*
X184030952Y-72814819D02*
X184269047Y-72814819D01*
X184269047Y-72814819D02*
X184364285Y-72862438D01*
X184364285Y-72862438D02*
X184411904Y-72910057D01*
X184411904Y-72910057D02*
X184459523Y-73005295D01*
X184459523Y-73005295D02*
X184459523Y-73100533D01*
X184459523Y-73100533D02*
X184411904Y-73243390D01*
X184411904Y-73243390D02*
X183840476Y-73814819D01*
X183840476Y-73814819D02*
X184459523Y-73814819D01*
X150357142Y-123859580D02*
X150309523Y-123907200D01*
X150309523Y-123907200D02*
X150166666Y-123954819D01*
X150166666Y-123954819D02*
X150071428Y-123954819D01*
X150071428Y-123954819D02*
X149928571Y-123907200D01*
X149928571Y-123907200D02*
X149833333Y-123811961D01*
X149833333Y-123811961D02*
X149785714Y-123716723D01*
X149785714Y-123716723D02*
X149738095Y-123526247D01*
X149738095Y-123526247D02*
X149738095Y-123383390D01*
X149738095Y-123383390D02*
X149785714Y-123192914D01*
X149785714Y-123192914D02*
X149833333Y-123097676D01*
X149833333Y-123097676D02*
X149928571Y-123002438D01*
X149928571Y-123002438D02*
X150071428Y-122954819D01*
X150071428Y-122954819D02*
X150166666Y-122954819D01*
X150166666Y-122954819D02*
X150309523Y-123002438D01*
X150309523Y-123002438D02*
X150357142Y-123050057D01*
X151309523Y-123954819D02*
X150738095Y-123954819D01*
X151023809Y-123954819D02*
X151023809Y-122954819D01*
X151023809Y-122954819D02*
X150928571Y-123097676D01*
X150928571Y-123097676D02*
X150833333Y-123192914D01*
X150833333Y-123192914D02*
X150738095Y-123240533D01*
X151642857Y-122954819D02*
X152261904Y-122954819D01*
X152261904Y-122954819D02*
X151928571Y-123335771D01*
X151928571Y-123335771D02*
X152071428Y-123335771D01*
X152071428Y-123335771D02*
X152166666Y-123383390D01*
X152166666Y-123383390D02*
X152214285Y-123431009D01*
X152214285Y-123431009D02*
X152261904Y-123526247D01*
X152261904Y-123526247D02*
X152261904Y-123764342D01*
X152261904Y-123764342D02*
X152214285Y-123859580D01*
X152214285Y-123859580D02*
X152166666Y-123907200D01*
X152166666Y-123907200D02*
X152071428Y-123954819D01*
X152071428Y-123954819D02*
X151785714Y-123954819D01*
X151785714Y-123954819D02*
X151690476Y-123907200D01*
X151690476Y-123907200D02*
X151642857Y-123859580D01*
D12*
%TO.C,R2*%
X135120000Y-136234879D02*
X135120000Y-136570121D01*
X135880000Y-136234879D02*
X135880000Y-136570121D01*
%TO.C,C9*%
X185090000Y-118288748D02*
X185090000Y-119711252D01*
X186910000Y-118288748D02*
X186910000Y-119711252D01*
%TO.C,C10*%
X153090000Y-103288748D02*
X153090000Y-104711252D01*
X154910000Y-103288748D02*
X154910000Y-104711252D01*
%TO.C,J6*%
X120470000Y-119065000D02*
X121470000Y-118065000D01*
X120470000Y-126935000D02*
X120470000Y-119065000D01*
X121470000Y-118065000D02*
X130590000Y-118065000D01*
X121470000Y-127935000D02*
X120470000Y-126935000D01*
X130590000Y-118065000D02*
X130590000Y-120848233D01*
X130590000Y-123490000D02*
X130590000Y-122151767D01*
X130590000Y-127935000D02*
X121470000Y-127935000D01*
X130590000Y-127935000D02*
X130590000Y-125510000D01*
%TO.C,L2*%
X172140000Y-116250000D02*
X172140000Y-110750000D01*
X172750000Y-110140000D02*
X173600000Y-110140000D01*
X173600000Y-116860000D02*
X172750000Y-116860000D01*
X177400000Y-110140000D02*
X178250000Y-110140000D01*
X178250000Y-116860000D02*
X177400000Y-116860000D01*
X178860000Y-110750000D02*
X178860000Y-116250000D01*
X172140000Y-110750000D02*
G75*
G02*
X172750000Y-110140000I610000J0D01*
G01*
X172750000Y-116860000D02*
G75*
G02*
X172140000Y-116250000I0J610000D01*
G01*
X178250000Y-110140000D02*
G75*
G02*
X178860000Y-110750000I0J-610000D01*
G01*
X178860000Y-116250000D02*
G75*
G02*
X178250000Y-116860000I-610000J0D01*
G01*
%TO.C,C2*%
X158240000Y-103240000D02*
X158240000Y-106990000D01*
X158240000Y-113760000D02*
X158240000Y-110010000D01*
X167695563Y-103240000D02*
X158240000Y-103240000D01*
X167695563Y-113760000D02*
X158240000Y-113760000D01*
X168760000Y-104304437D02*
X167695563Y-103240000D01*
X168760000Y-104304437D02*
X168760000Y-106990000D01*
X168760000Y-112695563D02*
X167695563Y-113760000D01*
X168760000Y-112695563D02*
X168760000Y-110010000D01*
X169625000Y-111885000D02*
X169625000Y-110635000D01*
X170250000Y-111260000D02*
X169000000Y-111260000D01*
%TO.C,C1*%
X176100000Y-88490000D02*
X177100000Y-88490000D01*
X176600000Y-87990000D02*
X176600000Y-88990000D01*
X177340000Y-87704437D02*
X177340000Y-89490000D01*
X177340000Y-87704437D02*
X178404437Y-86640000D01*
X177340000Y-94295563D02*
X177340000Y-92510000D01*
X177340000Y-94295563D02*
X178404437Y-95360000D01*
X178404437Y-86640000D02*
X186060000Y-86640000D01*
X178404437Y-95360000D02*
X186060000Y-95360000D01*
X186060000Y-86640000D02*
X186060000Y-89490000D01*
X186060000Y-95360000D02*
X186060000Y-92510000D01*
%TO.C,C8*%
X182090000Y-120788748D02*
X182090000Y-122211252D01*
X183910000Y-120788748D02*
X183910000Y-122211252D01*
%TO.C,C15*%
X141590000Y-118288748D02*
X141590000Y-119711252D01*
X143410000Y-118288748D02*
X143410000Y-119711252D01*
%TO.C,C7*%
X185115835Y-109640000D02*
X184884165Y-109640000D01*
X185115835Y-110360000D02*
X184884165Y-110360000D01*
%TO.C,J1*%
X121195000Y-128930000D02*
X122575000Y-128930000D01*
X121195000Y-130310000D02*
X121195000Y-128930000D01*
X121195000Y-131580000D02*
X121195000Y-136770000D01*
X121195000Y-131580000D02*
X123845000Y-131580000D01*
X121195000Y-136770000D02*
X126495000Y-136770000D01*
X123845000Y-128930000D02*
X126495000Y-128930000D01*
X123845000Y-131580000D02*
X123845000Y-128930000D01*
X126495000Y-128930000D02*
X126495000Y-136770000D01*
%TO.C,J3*%
X161640000Y-74390000D02*
X161640000Y-80000000D01*
X161640000Y-74390000D02*
X162490000Y-74390000D01*
X162490000Y-66690000D02*
X162490000Y-74390000D01*
X162490000Y-66690000D02*
X176510000Y-66690000D01*
X167050000Y-84110000D02*
X170790000Y-84110000D01*
X176510000Y-66690000D02*
X176510000Y-74390000D01*
X176510000Y-74390000D02*
X177360000Y-74390000D01*
X177360000Y-74390000D02*
X177360000Y-80000000D01*
X164510100Y-83958718D02*
G75*
G02*
X161640000Y-80000000I1239898J3918716D01*
G01*
X177360000Y-80000000D02*
G75*
G02*
X175366806Y-83522958I-4110000J0D01*
G01*
%TO.C,Q2*%
X143307500Y-86865000D02*
X143492500Y-86865000D01*
X143307500Y-90135000D02*
X143307500Y-86865000D01*
X143307500Y-90135000D02*
X143492500Y-90135000D01*
X146392500Y-86865000D02*
X146577500Y-86865000D01*
X146392500Y-90135000D02*
X146577500Y-90135000D01*
X146577500Y-90135000D02*
X146577500Y-86865000D01*
X143482500Y-90855000D02*
X143082500Y-90455000D01*
X143482500Y-90455000D01*
X143482500Y-90855000D01*
G36*
X143482500Y-90855000D02*
G01*
X143082500Y-90455000D01*
X143482500Y-90455000D01*
X143482500Y-90855000D01*
G37*
%TO.C,R3*%
X155022500Y-111342379D02*
X155022500Y-111677621D01*
X155782500Y-111342379D02*
X155782500Y-111677621D01*
%TO.C,J4*%
X144640000Y-74390000D02*
X144640000Y-80000000D01*
X144640000Y-74390000D02*
X145490000Y-74390000D01*
X145490000Y-66690000D02*
X145490000Y-74390000D01*
X145490000Y-66690000D02*
X159510000Y-66690000D01*
X150050000Y-84110000D02*
X153790000Y-84110000D01*
X159510000Y-66690000D02*
X159510000Y-74390000D01*
X159510000Y-74390000D02*
X160360000Y-74390000D01*
X160360000Y-74390000D02*
X160360000Y-80000000D01*
X147510100Y-83958718D02*
G75*
G02*
X144640000Y-80000000I1239898J3918716D01*
G01*
X160360000Y-80000000D02*
G75*
G02*
X158366806Y-83522958I-4110000J0D01*
G01*
%TO.C,L1*%
X156100000Y-90750000D02*
X156100000Y-93500000D01*
X156100000Y-99500000D02*
X156100000Y-102250000D01*
X156750000Y-90100000D02*
X168250000Y-90100000D01*
X168250000Y-102900000D02*
X156750000Y-102900000D01*
X168900000Y-90750000D02*
X168900000Y-93500000D01*
X168900000Y-99500000D02*
X168900000Y-102250000D01*
X156100000Y-90750000D02*
G75*
G02*
X156750000Y-90100000I650001J-1D01*
G01*
X156750000Y-102900000D02*
G75*
G02*
X156100000Y-102250000I1J650001D01*
G01*
X168250000Y-90100000D02*
G75*
G02*
X168900000Y-90750000I0J-650000D01*
G01*
X168900000Y-102250000D02*
G75*
G02*
X168250000Y-102900000I-650000J0D01*
G01*
%TO.C,C11*%
X142640000Y-110884165D02*
X142640000Y-111115835D01*
X143360000Y-110884165D02*
X143360000Y-111115835D01*
%TO.C,U3*%
X182000000Y-111440000D02*
X181200000Y-111440000D01*
X182000000Y-111440000D02*
X182800000Y-111440000D01*
X182000000Y-114560000D02*
X181200000Y-114560000D01*
X182000000Y-114560000D02*
X182800000Y-114560000D01*
X180700000Y-111490000D02*
X180460000Y-111160000D01*
X180940000Y-111160000D01*
X180700000Y-111490000D01*
G36*
X180700000Y-111490000D02*
G01*
X180460000Y-111160000D01*
X180940000Y-111160000D01*
X180700000Y-111490000D01*
G37*
%TO.C,J5*%
X119935000Y-86565000D02*
X120935000Y-85565000D01*
X119935000Y-94435000D02*
X119935000Y-86565000D01*
X120935000Y-85565000D02*
X130055000Y-85565000D01*
X120935000Y-95435000D02*
X119935000Y-94435000D01*
X130055000Y-85565000D02*
X130055000Y-88348233D01*
X130055000Y-90990000D02*
X130055000Y-89651767D01*
X130055000Y-95435000D02*
X120935000Y-95435000D01*
X130055000Y-95435000D02*
X130055000Y-93010000D01*
%TO.C,L3*%
X185390000Y-113238748D02*
X185390000Y-113761252D01*
X187610000Y-113238748D02*
X187610000Y-113761252D01*
%TO.C,C12*%
X142615835Y-101140000D02*
X142384165Y-101140000D01*
X142615835Y-101860000D02*
X142384165Y-101860000D01*
%TO.C,D1*%
X162450000Y-86500000D02*
X162450000Y-86830000D01*
X162450000Y-89440000D02*
X162450000Y-89110000D01*
X166870000Y-89440000D02*
X166870000Y-86500000D01*
X166990000Y-89440000D02*
X166990000Y-86500000D01*
X167110000Y-89440000D02*
X167110000Y-86500000D01*
X167890000Y-86500000D02*
X162450000Y-86500000D01*
X167890000Y-86830000D02*
X167890000Y-86500000D01*
X167890000Y-89110000D02*
X167890000Y-89440000D01*
X167890000Y-89440000D02*
X162450000Y-89440000D01*
D13*
%TO.C,U1*%
X177615200Y-98642799D02*
X175405400Y-98642799D01*
X177615200Y-99557199D02*
X175405400Y-99557199D01*
X177615200Y-100342798D02*
X175405400Y-100342798D01*
X177615200Y-101257198D02*
X175405400Y-101257198D01*
X177615200Y-102042800D02*
X175405400Y-102042800D01*
X177615200Y-102957200D02*
X175405400Y-102957200D01*
X177615200Y-103742799D02*
X175405400Y-103742799D01*
X177615200Y-104657199D02*
X175405400Y-104657199D01*
X177615200Y-105442798D02*
X175405400Y-105442798D01*
X177615200Y-106357198D02*
X175405400Y-106357198D01*
D12*
%TO.C,F1*%
X172897936Y-85590000D02*
X174102064Y-85590000D01*
X172897936Y-87410000D02*
X174102064Y-87410000D01*
%TO.C,J7*%
X169605000Y-133575000D02*
X172388233Y-133575000D01*
X169605000Y-142695000D02*
X169605000Y-133575000D01*
X170605000Y-143695000D02*
X169605000Y-142695000D01*
X175030000Y-133575000D02*
X173691767Y-133575000D01*
X178475000Y-143695000D02*
X170605000Y-143695000D01*
X179475000Y-133575000D02*
X177050000Y-133575000D01*
X179475000Y-133575000D02*
X179475000Y-142695000D01*
X179475000Y-142695000D02*
X178475000Y-143695000D01*
%TO.C,R4*%
X155022500Y-114832379D02*
X155022500Y-115167621D01*
X155782500Y-114832379D02*
X155782500Y-115167621D01*
%TO.C,L4*%
X123000000Y-100000000D02*
X136000000Y-100000000D01*
X123000000Y-103600000D02*
X123000000Y-100000000D01*
X123000000Y-109400000D02*
X123000000Y-113000000D01*
X123000000Y-113000000D02*
X136000000Y-113000000D01*
X136000000Y-100000000D02*
X136000000Y-103600000D01*
X136000000Y-113000000D02*
X136000000Y-109400000D01*
%TO.C,F3*%
X153552064Y-87290000D02*
X149447936Y-87290000D01*
X153552064Y-90710000D02*
X149447936Y-90710000D01*
%TO.C,C4*%
X177261252Y-121265000D02*
X176738748Y-121265000D01*
X177261252Y-122735000D02*
X176738748Y-122735000D01*
%TO.C,J2*%
X127640000Y-74390000D02*
X127640000Y-80000000D01*
X127640000Y-74390000D02*
X128490000Y-74390000D01*
X128490000Y-66690000D02*
X128490000Y-74390000D01*
X128490000Y-66690000D02*
X142510000Y-66690000D01*
X133050000Y-84110000D02*
X136790000Y-84110000D01*
X142510000Y-66690000D02*
X142510000Y-74390000D01*
X142510000Y-74390000D02*
X143360000Y-74390000D01*
X143360000Y-74390000D02*
X143360000Y-80000000D01*
X130510100Y-83958718D02*
G75*
G02*
X127640000Y-80000000I1239898J3918716D01*
G01*
X143360000Y-80000000D02*
G75*
G02*
X141366806Y-83522958I-4110000J0D01*
G01*
%TO.C,C14*%
X145590000Y-118288748D02*
X145590000Y-119711252D01*
X147410000Y-118288748D02*
X147410000Y-119711252D01*
%TO.C,U2*%
X174140000Y-124140000D02*
X176860000Y-124140000D01*
X174140000Y-125120000D02*
X174140000Y-124140000D01*
X174140000Y-127880000D02*
X174140000Y-128860000D01*
X176720000Y-128860000D02*
X174140000Y-128860000D01*
X176860000Y-128860000D02*
X174140000Y-128860000D01*
X177510000Y-129040000D02*
X177030000Y-129040000D01*
X177270000Y-128710000D01*
X177510000Y-129040000D01*
G36*
X177510000Y-129040000D02*
G01*
X177030000Y-129040000D01*
X177270000Y-128710000D01*
X177510000Y-129040000D01*
G37*
%TO.C,R1*%
X135120000Y-128832379D02*
X135120000Y-129167621D01*
X135880000Y-128832379D02*
X135880000Y-129167621D01*
%TO.C,C16*%
X137590000Y-118351248D02*
X137590000Y-119773752D01*
X139410000Y-118351248D02*
X139410000Y-119773752D01*
%TO.C,C5*%
X181788748Y-125590000D02*
X183211252Y-125590000D01*
X181788748Y-127410000D02*
X183211252Y-127410000D01*
%TO.C,C3*%
X159140000Y-115140000D02*
X159140000Y-117990000D01*
X159140000Y-123860000D02*
X159140000Y-121010000D01*
X166795563Y-115140000D02*
X159140000Y-115140000D01*
X166795563Y-123860000D02*
X159140000Y-123860000D01*
X167860000Y-116204437D02*
X166795563Y-115140000D01*
X167860000Y-116204437D02*
X167860000Y-117990000D01*
X167860000Y-122795563D02*
X166795563Y-123860000D01*
X167860000Y-122795563D02*
X167860000Y-121010000D01*
X168600000Y-122510000D02*
X168600000Y-121510000D01*
X169100000Y-122010000D02*
X168100000Y-122010000D01*
%TO.C,C6*%
X181738748Y-116765000D02*
X182261252Y-116765000D01*
X181738748Y-118235000D02*
X182261252Y-118235000D01*
D11*
%TO.C,U4*%
X146575000Y-106625000D02*
X150725000Y-106625000D01*
X146575000Y-111775000D02*
X150725000Y-111775000D01*
D12*
X145975000Y-106725000D02*
X145735000Y-106395000D01*
X146215000Y-106395000D01*
X145975000Y-106725000D01*
G36*
X145975000Y-106725000D02*
G01*
X145735000Y-106395000D01*
X146215000Y-106395000D01*
X145975000Y-106725000D01*
G37*
%TO.C,C13*%
X149590000Y-118288748D02*
X149590000Y-119711252D01*
X151410000Y-118288748D02*
X151410000Y-119711252D01*
%TD*%
M02*
