M48
; DRILL file {KiCad 9.0.3} date 2025-08-18T22:42:24-0400
; FORMAT={-:-/ absolute / metric / decimal}
; #@! TF.CreationDate,2025-08-18T22:42:24-04:00
; #@! TF.GenerationSoftware,Kicad,Pcbnew,9.0.3
; #@! TF.FileFunction,Plated,1,2,PTH
FMAT,2
METRIC
; #@! TA.AperFunction,Plated,PTH,ViaDrill
T1C0.300
; #@! TA.AperFunction,Plated,PTH,ComponentDrill
T2C0.330
; #@! TA.AperFunction,Plated,PTH,ComponentDrill
T3C0.600
; #@! TA.AperFunction,Plated,PTH,ComponentDrill
T4C0.900
; #@! TA.AperFunction,Plated,PTH,ComponentDrill
T5C1.000
; #@! TA.AperFunction,Plated,PTH,ComponentDrill
T6C1.020
; #@! TA.AperFunction,Plated,PTH,ComponentDrill
T7C2.200
; #@! TA.AperFunction,Plated,PTH,ComponentDrill
T8C2.700
%
G90
G05
T1
X120.65Y-82.55
X120.65Y-101.6
X120.65Y-114.3
X127.0Y-76.2
X128.0Y-140.0
X133.35Y-88.9
X133.5Y-92.5
X135.7Y-140.48
X139.0Y-130.5
X139.7Y-76.2
X139.7Y-88.9
X139.7Y-101.6
X139.7Y-114.3
X139.7Y-127.0
X139.7Y-139.7
X141.0Y-90.5
X141.0Y-99.0
X142.0Y-104.5
X142.0Y-108.5
X146.0Y-112.5
X146.05Y-95.25
X146.05Y-114.3
X147.5Y-93.0
X152.4Y-76.2
X152.4Y-88.9
X152.4Y-95.25
X152.4Y-127.0
X152.4Y-139.7
X153.5Y-117.5
X158.75Y-114.3
X165.1Y-76.2
X165.1Y-88.9
X165.1Y-95.25
X165.1Y-114.3
X165.1Y-127.0
X165.1Y-139.7
X168.64Y-140.61
X171.45Y-88.9
X176.0Y-119.0
X177.8Y-76.2
X180.5Y-110.5
X181.0Y-119.5
X185.0Y-116.0
T2
X148.0Y-107.9
X148.0Y-109.2
X148.0Y-110.5
X149.3Y-107.9
X149.3Y-109.2
X149.3Y-110.5
T4
X161.36Y-87.97
X168.98Y-87.97
T5
X122.575Y-130.31
X122.575Y-132.85
X122.575Y-135.39
X125.115Y-130.31
X125.115Y-132.85
X125.115Y-135.39
T6
X128.965Y-89.0
X128.965Y-92.0
X129.5Y-121.5
X129.5Y-124.5
X173.04Y-134.665
X176.04Y-134.665
T7
X122.86Y-68.85
X122.86Y-140.85
X184.86Y-68.85
X184.86Y-140.85
T8
X131.9Y-82.15
X139.1Y-82.15
X148.9Y-82.15
X156.1Y-82.15
X165.9Y-82.15
X173.1Y-82.15
T3
G00X128.75Y-75.6
M15
G01X128.75Y-76.7
M16
G05
G00X142.25Y-75.6
M15
G01X142.25Y-76.7
M16
G05
G00X145.75Y-75.6
M15
G01X145.75Y-76.7
M16
G05
G00X159.25Y-75.6
M15
G01X159.25Y-76.7
M16
G05
G00X162.75Y-75.6
M15
G01X162.75Y-76.7
M16
G05
G00X176.25Y-75.6
M15
G01X176.25Y-76.7
M16
G05
M30
