%TF.GenerationSoftware,KiCad,Pcbnew,9.0.3*%
%TF.CreationDate,2025-08-18T22:42:16-04:00*%
%TF.ProjectId,Distribution Board,44697374-7269-4627-9574-696f6e20426f,rev?*%
%TF.SameCoordinates,Original*%
%TF.FileFunction,Soldermask,Bot*%
%TF.FilePolarity,Negative*%
%FSLAX46Y46*%
G04 Gerber Fmt 4.6, Leading zero omitted, Abs format (unit mm)*
G04 Created by KiCad (PCBNEW 9.0.3) date 2025-08-18 22:42:16*
%MOMM*%
%LPD*%
G01*
G04 APERTURE LIST*
G04 Aperture macros list*
%AMRoundRect*
0 Rectangle with rounded corners*
0 $1 Rounding radius*
0 $2 $3 $4 $5 $6 $7 $8 $9 X,Y pos of 4 corners*
0 Add a 4 corners polygon primitive as box body*
4,1,4,$2,$3,$4,$5,$6,$7,$8,$9,$2,$3,0*
0 Add four circle primitives for the rounded corners*
1,1,$1+$1,$2,$3*
1,1,$1+$1,$4,$5*
1,1,$1+$1,$6,$7*
1,1,$1+$1,$8,$9*
0 Add four rect primitives between the rounded corners*
20,1,$1+$1,$2,$3,$4,$5,0*
20,1,$1+$1,$4,$5,$6,$7,0*
20,1,$1+$1,$6,$7,$8,$9,0*
20,1,$1+$1,$8,$9,$2,$3,0*%
G04 Aperture macros list end*
%ADD10C,3.000000*%
%ADD11RoundRect,0.250001X0.759999X-0.499999X0.759999X0.499999X-0.759999X0.499999X-0.759999X-0.499999X0*%
%ADD12O,2.020000X1.500000*%
%ADD13C,4.400000*%
%ADD14R,1.700000X1.700000*%
%ADD15C,1.700000*%
%ADD16R,0.900000X2.000000*%
%ADD17RoundRect,1.025000X-1.025000X-1.025000X1.025000X-1.025000X1.025000X1.025000X-1.025000X1.025000X0*%
%ADD18C,4.100000*%
%ADD19RoundRect,0.250000X0.650000X0.650000X-0.650000X0.650000X-0.650000X-0.650000X0.650000X-0.650000X0*%
%ADD20C,1.800000*%
%ADD21RoundRect,0.250001X0.499999X0.759999X-0.499999X0.759999X-0.499999X-0.759999X0.499999X-0.759999X0*%
%ADD22O,1.500000X2.020000*%
%ADD23C,0.770000*%
G04 APERTURE END LIST*
D10*
%TO.C,J6*%
X125180000Y-123000000D03*
D11*
X129500000Y-124500000D03*
D12*
X129500000Y-121500000D03*
%TD*%
D13*
%TO.C,H1*%
X122860000Y-68850000D03*
%TD*%
D14*
%TO.C,J1*%
X122575000Y-130310000D03*
D15*
X125115000Y-130310000D03*
X122575000Y-132850000D03*
X125115000Y-132850000D03*
X122575000Y-135390000D03*
X125115000Y-135390000D03*
%TD*%
D16*
%TO.C,J3*%
X162750000Y-76150000D03*
X176250000Y-76150000D03*
D17*
X173100000Y-82150000D03*
D18*
X165900000Y-82150000D03*
%TD*%
D13*
%TO.C,H3*%
X122860000Y-140850000D03*
%TD*%
D16*
%TO.C,J4*%
X145750000Y-76150000D03*
X159250000Y-76150000D03*
D17*
X156100000Y-82150000D03*
D18*
X148900000Y-82150000D03*
%TD*%
D10*
%TO.C,J5*%
X124645000Y-90500000D03*
D11*
X128965000Y-92000000D03*
D12*
X128965000Y-89000000D03*
%TD*%
D19*
%TO.C,D1*%
X168980000Y-87970000D03*
D20*
X161360000Y-87970000D03*
%TD*%
D10*
%TO.C,J7*%
X174540000Y-138985000D03*
D21*
X176040000Y-134665000D03*
D22*
X173040000Y-134665000D03*
%TD*%
D16*
%TO.C,J2*%
X128750000Y-76150000D03*
X142250000Y-76150000D03*
D17*
X139100000Y-82150000D03*
D18*
X131900000Y-82150000D03*
%TD*%
D13*
%TO.C,H4*%
X184860000Y-140850000D03*
%TD*%
D23*
%TO.C,U4*%
X148000000Y-107900000D03*
X148000000Y-109200000D03*
X148000000Y-110500000D03*
X149300000Y-107900000D03*
X149300000Y-109200000D03*
X149300000Y-110500000D03*
%TD*%
D13*
%TO.C,H2*%
X184860000Y-68850000D03*
%TD*%
M02*
