%TF.GenerationSoftware,KiCad,Pcbnew,9.0.3*%
%TF.CreationDate,2025-08-18T22:42:16-04:00*%
%TF.ProjectId,Distribution Board,44697374-7269-4627-9574-696f6e20426f,rev?*%
%TF.SameCoordinates,Original*%
%TF.FileFunction,Paste,Top*%
%TF.FilePolarity,Positive*%
%FSLAX46Y46*%
G04 Gerber Fmt 4.6, Leading zero omitted, Abs format (unit mm)*
G04 Created by KiCad (PCBNEW 9.0.3) date 2025-08-18 22:42:16*
%MOMM*%
%LPD*%
G01*
G04 APERTURE LIST*
G04 Aperture macros list*
%AMRoundRect*
0 Rectangle with rounded corners*
0 $1 Rounding radius*
0 $2 $3 $4 $5 $6 $7 $8 $9 X,Y pos of 4 corners*
0 Add a 4 corners polygon primitive as box body*
4,1,4,$2,$3,$4,$5,$6,$7,$8,$9,$2,$3,0*
0 Add four circle primitives for the rounded corners*
1,1,$1+$1,$2,$3*
1,1,$1+$1,$4,$5*
1,1,$1+$1,$6,$7*
1,1,$1+$1,$8,$9*
0 Add four rect primitives between the rounded corners*
20,1,$1+$1,$2,$3,$4,$5,0*
20,1,$1+$1,$4,$5,$6,$7,0*
20,1,$1+$1,$6,$7,$8,$9,0*
20,1,$1+$1,$8,$9,$2,$3,0*%
%AMFreePoly0*
4,1,21,1.372500,0.787500,0.862500,0.787500,0.862500,0.532500,1.372500,0.532500,1.372500,0.127500,0.862500,0.127500,0.862500,-0.127500,1.372500,-0.127500,1.372500,-0.532500,0.862500,-0.532500,0.862500,-0.787500,1.372500,-0.787500,1.372500,-1.195000,0.612500,-1.195000,0.612500,-1.117500,-0.862500,-1.117500,-0.862500,1.117500,0.612500,1.117500,0.612500,1.195000,1.372500,1.195000,
1.372500,0.787500,1.372500,0.787500,$1*%
%AMFreePoly1*
4,1,9,5.362500,-0.866500,1.237500,-0.866500,1.237500,-0.450000,-1.237500,-0.450000,-1.237500,0.450000,1.237500,0.450000,1.237500,0.866500,5.362500,0.866500,5.362500,-0.866500,5.362500,-0.866500,$1*%
G04 Aperture macros list end*
%ADD10RoundRect,0.160000X-0.160000X0.197500X-0.160000X-0.197500X0.160000X-0.197500X0.160000X0.197500X0*%
%ADD11RoundRect,0.250000X-0.650000X0.412500X-0.650000X-0.412500X0.650000X-0.412500X0.650000X0.412500X0*%
%ADD12R,3.400000X2.000000*%
%ADD13RoundRect,0.250000X1.750000X1.000000X-1.750000X1.000000X-1.750000X-1.000000X1.750000X-1.000000X0*%
%ADD14RoundRect,0.250000X-1.950000X-1.000000X1.950000X-1.000000X1.950000X1.000000X-1.950000X1.000000X0*%
%ADD15RoundRect,0.155000X0.212500X0.155000X-0.212500X0.155000X-0.212500X-0.155000X0.212500X-0.155000X0*%
%ADD16R,0.405000X0.990000*%
%ADD17FreePoly0,90.000000*%
%ADD18R,3.100000X5.000000*%
%ADD19RoundRect,0.155000X-0.155000X0.212500X-0.155000X-0.212500X0.155000X-0.212500X0.155000X0.212500X0*%
%ADD20RoundRect,0.150000X-0.512500X-0.150000X0.512500X-0.150000X0.512500X0.150000X-0.512500X0.150000X0*%
%ADD21RoundRect,0.250001X-0.849999X0.462499X-0.849999X-0.462499X0.849999X-0.462499X0.849999X0.462499X0*%
%ADD22R,3.200400X0.914400*%
%ADD23R,10.058400X10.668000*%
%ADD24RoundRect,0.250000X-0.375000X-0.625000X0.375000X-0.625000X0.375000X0.625000X-0.375000X0.625000X0*%
%ADD25R,4.500000X5.000000*%
%ADD26RoundRect,0.250000X0.425000X1.425000X-0.425000X1.425000X-0.425000X-1.425000X0.425000X-1.425000X0*%
%ADD27RoundRect,0.250000X0.337500X0.475000X-0.337500X0.475000X-0.337500X-0.475000X0.337500X-0.475000X0*%
%ADD28RoundRect,0.225000X0.925000X0.225000X-0.925000X0.225000X-0.925000X-0.225000X0.925000X-0.225000X0*%
%ADD29FreePoly1,180.000000*%
%ADD30RoundRect,0.250000X-0.412500X-0.650000X0.412500X-0.650000X0.412500X0.650000X-0.412500X0.650000X0*%
%ADD31RoundRect,0.250000X1.950000X1.000000X-1.950000X1.000000X-1.950000X-1.000000X1.950000X-1.000000X0*%
%ADD32RoundRect,0.250000X-0.337500X-0.475000X0.337500X-0.475000X0.337500X0.475000X-0.337500X0.475000X0*%
%ADD33R,2.400000X3.100000*%
%ADD34R,2.200000X0.500000*%
G04 APERTURE END LIST*
D10*
%TO.C,R2*%
X135500000Y-135805000D03*
X135500000Y-137000000D03*
%TD*%
D11*
%TO.C,C9*%
X186000000Y-117437500D03*
X186000000Y-120562500D03*
%TD*%
%TO.C,C10*%
X154000000Y-102437500D03*
X154000000Y-105562500D03*
%TD*%
D12*
%TO.C,L2*%
X175500000Y-116350000D03*
X175500000Y-110650000D03*
%TD*%
D13*
%TO.C,C2*%
X167500000Y-108500000D03*
X159500000Y-108500000D03*
%TD*%
D14*
%TO.C,C1*%
X178000000Y-91000000D03*
X185400000Y-91000000D03*
%TD*%
D11*
%TO.C,C8*%
X183000000Y-119937500D03*
X183000000Y-123062500D03*
%TD*%
%TO.C,C15*%
X142500000Y-117437500D03*
X142500000Y-120562500D03*
%TD*%
D15*
%TO.C,C7*%
X185567500Y-110000000D03*
X184432500Y-110000000D03*
%TD*%
D16*
%TO.C,Q2*%
X143952500Y-89935000D03*
X144612500Y-89935000D03*
X145272500Y-89935000D03*
X145932500Y-89935000D03*
D17*
X144942500Y-87942500D03*
%TD*%
D10*
%TO.C,R3*%
X155402500Y-110912500D03*
X155402500Y-112107500D03*
%TD*%
D18*
%TO.C,L1*%
X156950000Y-96500000D03*
X168050000Y-96500000D03*
%TD*%
D19*
%TO.C,C11*%
X143000000Y-110432500D03*
X143000000Y-111567500D03*
%TD*%
D20*
%TO.C,U3*%
X180862500Y-112050000D03*
X180862500Y-113000000D03*
X180862500Y-113950000D03*
X183137500Y-113950000D03*
X183137500Y-113000000D03*
X183137500Y-112050000D03*
%TD*%
D21*
%TO.C,L3*%
X186500000Y-112337500D03*
X186500000Y-114662500D03*
%TD*%
D15*
%TO.C,C12*%
X143067500Y-101500000D03*
X141932500Y-101500000D03*
%TD*%
D22*
%TO.C,U1*%
X173449600Y-99099999D03*
X173449600Y-100799998D03*
X173449600Y-102500000D03*
X173449600Y-104199999D03*
X173449600Y-105899998D03*
D23*
X183000000Y-102500000D03*
%TD*%
D24*
%TO.C,F1*%
X172100000Y-86500000D03*
X174900000Y-86500000D03*
%TD*%
D10*
%TO.C,R4*%
X155402500Y-114402500D03*
X155402500Y-115597500D03*
%TD*%
D25*
%TO.C,L4*%
X124250000Y-106500000D03*
X134750000Y-106500000D03*
%TD*%
D26*
%TO.C,F3*%
X154400000Y-89000000D03*
X148600000Y-89000000D03*
%TD*%
D27*
%TO.C,C4*%
X178037500Y-122000000D03*
X175962500Y-122000000D03*
%TD*%
D11*
%TO.C,C14*%
X146500000Y-117437500D03*
X146500000Y-120562500D03*
%TD*%
D28*
%TO.C,U2*%
X177950000Y-128000000D03*
D29*
X177862500Y-126500000D03*
D28*
X177950000Y-125000000D03*
%TD*%
D10*
%TO.C,R1*%
X135500000Y-128402500D03*
X135500000Y-129597500D03*
%TD*%
D11*
%TO.C,C16*%
X138500000Y-117500000D03*
X138500000Y-120625000D03*
%TD*%
D30*
%TO.C,C5*%
X180937500Y-126500000D03*
X184062500Y-126500000D03*
%TD*%
D31*
%TO.C,C3*%
X167200000Y-119500000D03*
X159800000Y-119500000D03*
%TD*%
D32*
%TO.C,C6*%
X180962500Y-117500000D03*
X183037500Y-117500000D03*
%TD*%
D33*
%TO.C,U4*%
X148650000Y-109200000D03*
D34*
X145775000Y-107295000D03*
X145775000Y-108565000D03*
X145775000Y-109835000D03*
X145775000Y-111105000D03*
X151525000Y-111105000D03*
X151525000Y-109835000D03*
X151525000Y-108565000D03*
X151525000Y-107295000D03*
%TD*%
D11*
%TO.C,C13*%
X150500000Y-117437500D03*
X150500000Y-120562500D03*
%TD*%
M02*
