%TF.GenerationSoftware,KiCad,Pcbnew,9.0.3*%
%TF.CreationDate,2025-08-18T22:42:16-04:00*%
%TF.ProjectId,Distribution Board,44697374-7269-4627-9574-696f6e20426f,rev?*%
%TF.SameCoordinates,Original*%
%TF.FileFunction,Copper,L2,Bot*%
%TF.FilePolarity,Positive*%
%FSLAX46Y46*%
G04 Gerber Fmt 4.6, Leading zero omitted, Abs format (unit mm)*
G04 Created by KiCad (PCBNEW 9.0.3) date 2025-08-18 22:42:16*
%MOMM*%
%LPD*%
G01*
G04 APERTURE LIST*
G04 Aperture macros list*
%AMRoundRect*
0 Rectangle with rounded corners*
0 $1 Rounding radius*
0 $2 $3 $4 $5 $6 $7 $8 $9 X,Y pos of 4 corners*
0 Add a 4 corners polygon primitive as box body*
4,1,4,$2,$3,$4,$5,$6,$7,$8,$9,$2,$3,0*
0 Add four circle primitives for the rounded corners*
1,1,$1+$1,$2,$3*
1,1,$1+$1,$4,$5*
1,1,$1+$1,$6,$7*
1,1,$1+$1,$8,$9*
0 Add four rect primitives between the rounded corners*
20,1,$1+$1,$2,$3,$4,$5,0*
20,1,$1+$1,$4,$5,$6,$7,0*
20,1,$1+$1,$6,$7,$8,$9,0*
20,1,$1+$1,$8,$9,$2,$3,0*%
G04 Aperture macros list end*
%TA.AperFunction,ComponentPad*%
%ADD10RoundRect,0.250001X0.759999X-0.499999X0.759999X0.499999X-0.759999X0.499999X-0.759999X-0.499999X0*%
%TD*%
%TA.AperFunction,ComponentPad*%
%ADD11O,2.020000X1.500000*%
%TD*%
%TA.AperFunction,ComponentPad*%
%ADD12C,4.400000*%
%TD*%
%TA.AperFunction,ComponentPad*%
%ADD13R,1.700000X1.700000*%
%TD*%
%TA.AperFunction,ComponentPad*%
%ADD14C,1.700000*%
%TD*%
%TA.AperFunction,ComponentPad*%
%ADD15R,0.900000X2.000000*%
%TD*%
%TA.AperFunction,ComponentPad*%
%ADD16RoundRect,1.025000X-1.025000X-1.025000X1.025000X-1.025000X1.025000X1.025000X-1.025000X1.025000X0*%
%TD*%
%TA.AperFunction,ComponentPad*%
%ADD17C,4.100000*%
%TD*%
%TA.AperFunction,ComponentPad*%
%ADD18RoundRect,0.250000X0.650000X0.650000X-0.650000X0.650000X-0.650000X-0.650000X0.650000X-0.650000X0*%
%TD*%
%TA.AperFunction,ComponentPad*%
%ADD19C,1.800000*%
%TD*%
%TA.AperFunction,ComponentPad*%
%ADD20RoundRect,0.250001X0.499999X0.759999X-0.499999X0.759999X-0.499999X-0.759999X0.499999X-0.759999X0*%
%TD*%
%TA.AperFunction,ComponentPad*%
%ADD21O,1.500000X2.020000*%
%TD*%
%TA.AperFunction,ComponentPad*%
%ADD22C,0.630000*%
%TD*%
%TA.AperFunction,SMDPad,CuDef*%
%ADD23R,2.600000X3.300000*%
%TD*%
%TA.AperFunction,ViaPad*%
%ADD24C,0.600000*%
%TD*%
%TA.AperFunction,Conductor*%
%ADD25C,0.200000*%
%TD*%
%TA.AperFunction,Conductor*%
%ADD26C,2.000000*%
%TD*%
G04 APERTURE END LIST*
D10*
%TO.P,J6,1,Pin_1*%
%TO.N,5Vb*%
X129500000Y-124500000D03*
D11*
%TO.P,J6,2,Pin_2*%
%TO.N,GND*%
X129500000Y-121500000D03*
%TD*%
D12*
%TO.P,H1,1,1*%
%TO.N,GND*%
X122860000Y-68850000D03*
%TD*%
D13*
%TO.P,J1,1,Pin_1*%
%TO.N,CANL*%
X122575000Y-130310000D03*
D14*
%TO.P,J1,2,Pin_2*%
%TO.N,CANH*%
X125115000Y-130310000D03*
%TO.P,J1,3,Pin_3*%
%TO.N,5Vb*%
X122575000Y-132850000D03*
%TO.P,J1,4,Pin_4*%
%TO.N,3V3*%
X125115000Y-132850000D03*
%TO.P,J1,5,Pin_5*%
%TO.N,12Vb*%
X122575000Y-135390000D03*
%TO.P,J1,6,Pin_6*%
%TO.N,GND*%
X125115000Y-135390000D03*
%TD*%
D15*
%TO.P,J3,*%
%TO.N,*%
X162750000Y-76150000D03*
X176250000Y-76150000D03*
D16*
%TO.P,J3,1,Pin_1*%
%TO.N,GND*%
X173100000Y-82150000D03*
D17*
%TO.P,J3,2,Pin_2*%
%TO.N,42V*%
X165900000Y-82150000D03*
%TD*%
D12*
%TO.P,H3,1,1*%
%TO.N,GND*%
X122860000Y-140850000D03*
%TD*%
D15*
%TO.P,J4,*%
%TO.N,*%
X145750000Y-76150000D03*
X159250000Y-76150000D03*
D16*
%TO.P,J4,1,Pin_1*%
%TO.N,GND*%
X156100000Y-82150000D03*
D17*
%TO.P,J4,2,Pin_2*%
%TO.N,Net-(J4-Pin_2)*%
X148900000Y-82150000D03*
%TD*%
D10*
%TO.P,J5,1,Pin_1*%
%TO.N,12Vb*%
X128965000Y-92000000D03*
D11*
%TO.P,J5,2,Pin_2*%
%TO.N,GND*%
X128965000Y-89000000D03*
%TD*%
D18*
%TO.P,D1,1,K*%
%TO.N,Net-(D1-K)*%
X168980000Y-87970000D03*
D19*
%TO.P,D1,2,A*%
%TO.N,GND*%
X161360000Y-87970000D03*
%TD*%
D20*
%TO.P,J7,1,Pin_1*%
%TO.N,3V3*%
X176040000Y-134665000D03*
D21*
%TO.P,J7,2,Pin_2*%
%TO.N,GND*%
X173040000Y-134665000D03*
%TD*%
D15*
%TO.P,J2,*%
%TO.N,*%
X128750000Y-76150000D03*
X142250000Y-76150000D03*
D16*
%TO.P,J2,1,Pin_1*%
%TO.N,GND*%
X139100000Y-82150000D03*
D17*
%TO.P,J2,2,Pin_2*%
%TO.N,12Vb*%
X131900000Y-82150000D03*
%TD*%
D12*
%TO.P,H4,1,1*%
%TO.N,GND*%
X184860000Y-140850000D03*
%TD*%
D22*
%TO.P,U4,9,GND*%
%TO.N,GND*%
X148000000Y-107900000D03*
X148000000Y-109200000D03*
X148000000Y-110500000D03*
D23*
X148650000Y-109200000D03*
D22*
X149300000Y-107900000D03*
X149300000Y-109200000D03*
X149300000Y-110500000D03*
%TD*%
D12*
%TO.P,H2,1,1*%
%TO.N,GND*%
X184860000Y-68850000D03*
%TD*%
D24*
%TO.N,GND*%
X165100000Y-127000000D03*
X139700000Y-127000000D03*
X152400000Y-95250000D03*
X139700000Y-76200000D03*
X171450000Y-88900000D03*
X152400000Y-76200000D03*
X165100000Y-114300000D03*
X158750000Y-114300000D03*
X146050000Y-95250000D03*
X177800000Y-76200000D03*
X139700000Y-114300000D03*
X139700000Y-101600000D03*
X165100000Y-76200000D03*
X139700000Y-88900000D03*
X146050000Y-114300000D03*
X127000000Y-76200000D03*
X120650000Y-114300000D03*
X139700000Y-139700000D03*
X120650000Y-101600000D03*
X152400000Y-127000000D03*
X152400000Y-88900000D03*
X165100000Y-139700000D03*
X133350000Y-88900000D03*
X165100000Y-88900000D03*
X120650000Y-82550000D03*
X165100000Y-95250000D03*
X152400000Y-139700000D03*
%TO.N,12Va*%
X181000000Y-119500000D03*
X176000000Y-119000000D03*
%TO.N,5Va*%
X185000000Y-116000000D03*
X180500000Y-110500000D03*
%TO.N,3V3*%
X168640000Y-140610000D03*
X135700000Y-140480000D03*
%TO.N,12Vb*%
X133500000Y-92500000D03*
X128000000Y-140000000D03*
%TO.N,Net-(U4-BOOT)*%
X142000000Y-108500000D03*
X142000000Y-104500000D03*
%TO.N,Net-(Q2-D)*%
X141000000Y-99000000D03*
X141000000Y-90500000D03*
%TO.N,Net-(U4-FB)*%
X153500000Y-117500000D03*
X139000000Y-130500000D03*
%TO.N,Net-(Q2-G)*%
X147500000Y-93000000D03*
X146000000Y-112500000D03*
%TD*%
D25*
%TO.N,12Va*%
X176500000Y-119500000D02*
X181000000Y-119500000D01*
X176000000Y-119000000D02*
X176500000Y-119500000D01*
%TO.N,5Va*%
X184500000Y-114500000D02*
X180500000Y-110500000D01*
X185000000Y-116000000D02*
X184500000Y-115500000D01*
X184500000Y-115500000D02*
X184500000Y-114500000D01*
%TO.N,3V3*%
X135700000Y-140480000D02*
X168510000Y-140480000D01*
X168510000Y-140480000D02*
X168640000Y-140610000D01*
D26*
%TO.N,12Vb*%
X130000000Y-140000000D02*
X133500000Y-136500000D01*
X133500000Y-136500000D02*
X133500000Y-92500000D01*
X128000000Y-140000000D02*
X130000000Y-140000000D01*
D25*
%TO.N,Net-(U4-BOOT)*%
X142000000Y-104500000D02*
X142000000Y-108500000D01*
D26*
%TO.N,Net-(Q2-D)*%
X141000000Y-97000000D02*
X141000000Y-99000000D01*
X141000000Y-90500000D02*
X141000000Y-97000000D01*
D25*
%TO.N,Net-(U4-FB)*%
X153500000Y-117500000D02*
X140500000Y-130500000D01*
X140500000Y-130500000D02*
X139000000Y-130500000D01*
%TO.N,Net-(Q2-G)*%
X145000000Y-94000000D02*
X145000000Y-111500000D01*
X146000000Y-93000000D02*
X145000000Y-94000000D01*
X147500000Y-93000000D02*
X146000000Y-93000000D01*
X145000000Y-111500000D02*
X146000000Y-112500000D01*
%TD*%
%TA.AperFunction,Conductor*%
%TO.N,GND*%
G36*
X123916444Y-133503999D02*
G01*
X123955486Y-133549056D01*
X123959951Y-133557820D01*
X124084890Y-133729786D01*
X124235213Y-133880109D01*
X124407179Y-134005048D01*
X124407181Y-134005049D01*
X124407184Y-134005051D01*
X124416493Y-134009794D01*
X124467290Y-134057766D01*
X124484087Y-134125587D01*
X124461552Y-134191722D01*
X124416505Y-134230760D01*
X124407446Y-134235376D01*
X124407440Y-134235380D01*
X124353282Y-134274727D01*
X124353282Y-134274728D01*
X124985591Y-134907037D01*
X124922007Y-134924075D01*
X124807993Y-134989901D01*
X124714901Y-135082993D01*
X124649075Y-135197007D01*
X124632037Y-135260591D01*
X123999728Y-134628282D01*
X123999727Y-134628282D01*
X123960380Y-134682440D01*
X123960376Y-134682446D01*
X123955760Y-134691505D01*
X123907781Y-134742297D01*
X123839959Y-134759087D01*
X123773826Y-134736543D01*
X123734794Y-134691493D01*
X123730051Y-134682184D01*
X123730049Y-134682181D01*
X123730048Y-134682179D01*
X123605109Y-134510213D01*
X123454786Y-134359890D01*
X123282820Y-134234951D01*
X123274600Y-134230763D01*
X123274054Y-134230485D01*
X123223259Y-134182512D01*
X123206463Y-134114692D01*
X123228999Y-134048556D01*
X123274054Y-134009515D01*
X123282816Y-134005051D01*
X123392775Y-133925162D01*
X123454786Y-133880109D01*
X123454788Y-133880106D01*
X123454792Y-133880104D01*
X123605104Y-133729792D01*
X123605106Y-133729788D01*
X123605109Y-133729786D01*
X123730048Y-133557820D01*
X123730047Y-133557820D01*
X123730051Y-133557816D01*
X123734514Y-133549054D01*
X123782488Y-133498259D01*
X123850308Y-133481463D01*
X123916444Y-133503999D01*
G37*
%TD.AperFunction*%
%TA.AperFunction,Conductor*%
G36*
X188292539Y-65370185D02*
G01*
X188338294Y-65422989D01*
X188349500Y-65474500D01*
X188349500Y-144225500D01*
X188329815Y-144292539D01*
X188277011Y-144338294D01*
X188225500Y-144349500D01*
X119474500Y-144349500D01*
X119407461Y-144329815D01*
X119361706Y-144277011D01*
X119350500Y-144225500D01*
X119350500Y-139881902D01*
X126499500Y-139881902D01*
X126499500Y-140118097D01*
X126536446Y-140351368D01*
X126609433Y-140575996D01*
X126675443Y-140705546D01*
X126716657Y-140786433D01*
X126855483Y-140977510D01*
X127022490Y-141144517D01*
X127213567Y-141283343D01*
X127284321Y-141319394D01*
X127424003Y-141390566D01*
X127424005Y-141390566D01*
X127424008Y-141390568D01*
X127544412Y-141429689D01*
X127648631Y-141463553D01*
X127881903Y-141500500D01*
X127881908Y-141500500D01*
X130118097Y-141500500D01*
X130351368Y-141463553D01*
X130575992Y-141390568D01*
X130786434Y-141283343D01*
X130977510Y-141144517D01*
X131720874Y-140401153D01*
X134899500Y-140401153D01*
X134899500Y-140558846D01*
X134930261Y-140713489D01*
X134930264Y-140713501D01*
X134990602Y-140859172D01*
X134990609Y-140859185D01*
X135078210Y-140990288D01*
X135078213Y-140990292D01*
X135189707Y-141101786D01*
X135189711Y-141101789D01*
X135320814Y-141189390D01*
X135320827Y-141189397D01*
X135423165Y-141231786D01*
X135466503Y-141249737D01*
X135621153Y-141280499D01*
X135621156Y-141280500D01*
X135621158Y-141280500D01*
X135778844Y-141280500D01*
X135778845Y-141280499D01*
X135933497Y-141249737D01*
X135954964Y-141240843D01*
X135960120Y-141238842D01*
X136376357Y-141087926D01*
X136418624Y-141080500D01*
X167869309Y-141080500D01*
X167936348Y-141100185D01*
X167940567Y-141103019D01*
X168173065Y-141266275D01*
X168177805Y-141269563D01*
X168178002Y-141269698D01*
X168228227Y-141299991D01*
X168228234Y-141299995D01*
X168232194Y-141301870D01*
X168248013Y-141310836D01*
X168260821Y-141319394D01*
X168260823Y-141319395D01*
X168260825Y-141319396D01*
X168406498Y-141379735D01*
X168406503Y-141379737D01*
X168561153Y-141410499D01*
X168561156Y-141410500D01*
X168561158Y-141410500D01*
X168718844Y-141410500D01*
X168718845Y-141410499D01*
X168873497Y-141379737D01*
X169019179Y-141319394D01*
X169150289Y-141231789D01*
X169261789Y-141120289D01*
X169349394Y-140989179D01*
X169409737Y-140843497D01*
X169440500Y-140688842D01*
X169440500Y-140531158D01*
X169440500Y-140531155D01*
X169440499Y-140531153D01*
X169409737Y-140376503D01*
X169355888Y-140246498D01*
X169349397Y-140230827D01*
X169349390Y-140230814D01*
X169261789Y-140099711D01*
X169261786Y-140099707D01*
X169150292Y-139988213D01*
X169150288Y-139988210D01*
X169019185Y-139900609D01*
X169019172Y-139900602D01*
X168873501Y-139840264D01*
X168873489Y-139840261D01*
X168718845Y-139809500D01*
X168718842Y-139809500D01*
X168561158Y-139809500D01*
X168561151Y-139809500D01*
X168541422Y-139813424D01*
X168515195Y-139815789D01*
X168507044Y-139815654D01*
X168507033Y-139815655D01*
X168021955Y-139877223D01*
X168019325Y-139877616D01*
X168015821Y-139878139D01*
X167997506Y-139879500D01*
X136418625Y-139879500D01*
X136376358Y-139872074D01*
X135961490Y-139721652D01*
X135961456Y-139721640D01*
X135957516Y-139720212D01*
X135933497Y-139710263D01*
X135919991Y-139707576D01*
X135908178Y-139703779D01*
X135906520Y-139703312D01*
X135809793Y-139685377D01*
X135805598Y-139684822D01*
X135801292Y-139683965D01*
X135778842Y-139679500D01*
X135621158Y-139679500D01*
X135621155Y-139679500D01*
X135466510Y-139710261D01*
X135466498Y-139710264D01*
X135320827Y-139770602D01*
X135320814Y-139770609D01*
X135189711Y-139858210D01*
X135189707Y-139858213D01*
X135078213Y-139969707D01*
X135078210Y-139969711D01*
X134990609Y-140100814D01*
X134990602Y-140100827D01*
X134930264Y-140246498D01*
X134930261Y-140246510D01*
X134899500Y-140401153D01*
X131720874Y-140401153D01*
X133251769Y-138870258D01*
X172789500Y-138870258D01*
X172789500Y-139099741D01*
X172814446Y-139289215D01*
X172819452Y-139327238D01*
X172819453Y-139327240D01*
X172878842Y-139548887D01*
X172966650Y-139760876D01*
X172966657Y-139760890D01*
X173081392Y-139959617D01*
X173221081Y-140141661D01*
X173221089Y-140141670D01*
X173383330Y-140303911D01*
X173383338Y-140303918D01*
X173565382Y-140443607D01*
X173565385Y-140443608D01*
X173565388Y-140443611D01*
X173764112Y-140558344D01*
X173764117Y-140558346D01*
X173764123Y-140558349D01*
X173855480Y-140596190D01*
X173976113Y-140646158D01*
X174197762Y-140705548D01*
X174425266Y-140735500D01*
X174425273Y-140735500D01*
X174654727Y-140735500D01*
X174654734Y-140735500D01*
X174882238Y-140705548D01*
X175103887Y-140646158D01*
X175315888Y-140558344D01*
X175514612Y-140443611D01*
X175696661Y-140303919D01*
X175696665Y-140303914D01*
X175696670Y-140303911D01*
X175858911Y-140141670D01*
X175858914Y-140141665D01*
X175858919Y-140141661D01*
X175998611Y-139959612D01*
X176113344Y-139760888D01*
X176201158Y-139548887D01*
X176260548Y-139327238D01*
X176290500Y-139099734D01*
X176290500Y-138870266D01*
X176260548Y-138642762D01*
X176201158Y-138421113D01*
X176113344Y-138209112D01*
X175998611Y-138010388D01*
X175998608Y-138010385D01*
X175998607Y-138010382D01*
X175858918Y-137828338D01*
X175858911Y-137828330D01*
X175696670Y-137666089D01*
X175696661Y-137666081D01*
X175514617Y-137526392D01*
X175315890Y-137411657D01*
X175315876Y-137411650D01*
X175103887Y-137323842D01*
X174882238Y-137264452D01*
X174844215Y-137259446D01*
X174654741Y-137234500D01*
X174654734Y-137234500D01*
X174425266Y-137234500D01*
X174425258Y-137234500D01*
X174208715Y-137263009D01*
X174197762Y-137264452D01*
X174115723Y-137286434D01*
X173976112Y-137323842D01*
X173764123Y-137411650D01*
X173764109Y-137411657D01*
X173565382Y-137526392D01*
X173383338Y-137666081D01*
X173221081Y-137828338D01*
X173081392Y-138010382D01*
X172966657Y-138209109D01*
X172966650Y-138209123D01*
X172878842Y-138421112D01*
X172847939Y-138536446D01*
X172828383Y-138609433D01*
X172819453Y-138642759D01*
X172819451Y-138642770D01*
X172789500Y-138870258D01*
X133251769Y-138870258D01*
X134644517Y-137477510D01*
X134783343Y-137286434D01*
X134890568Y-137075993D01*
X134914282Y-137003008D01*
X134963553Y-136851368D01*
X134996784Y-136641557D01*
X135000500Y-136618097D01*
X135000500Y-134306617D01*
X171790000Y-134306617D01*
X171790000Y-134415000D01*
X172595440Y-134415000D01*
X172564755Y-134468147D01*
X172530000Y-134597857D01*
X172530000Y-134732143D01*
X172564755Y-134861853D01*
X172595440Y-134915000D01*
X171790000Y-134915000D01*
X171790000Y-135023382D01*
X171820778Y-135217705D01*
X171881581Y-135404835D01*
X171970904Y-135580143D01*
X172086555Y-135739321D01*
X172225678Y-135878444D01*
X172384856Y-135994095D01*
X172560162Y-136083418D01*
X172747283Y-136144218D01*
X172790000Y-136150984D01*
X172790000Y-135109560D01*
X172843147Y-135140245D01*
X172972857Y-135175000D01*
X173107143Y-135175000D01*
X173236853Y-135140245D01*
X173290000Y-135109560D01*
X173290000Y-136150983D01*
X173332716Y-136144218D01*
X173519837Y-136083418D01*
X173695143Y-135994095D01*
X173854321Y-135878444D01*
X173993444Y-135739321D01*
X174109095Y-135580143D01*
X174198418Y-135404835D01*
X174259221Y-135217705D01*
X174290000Y-135023382D01*
X174290000Y-134915000D01*
X173484560Y-134915000D01*
X173515245Y-134861853D01*
X173550000Y-134732143D01*
X173550000Y-134597857D01*
X173515245Y-134468147D01*
X173484560Y-134415000D01*
X174290000Y-134415000D01*
X174290000Y-134306617D01*
X174259221Y-134112294D01*
X174198418Y-133925162D01*
X174189740Y-133908131D01*
X174189739Y-133908129D01*
X174162661Y-133854984D01*
X174789500Y-133854984D01*
X174789500Y-135475015D01*
X174800000Y-135577795D01*
X174800001Y-135577797D01*
X174801723Y-135582993D01*
X174855186Y-135744335D01*
X174855187Y-135744337D01*
X174947286Y-135893651D01*
X174947289Y-135893655D01*
X175071344Y-136017710D01*
X175071348Y-136017713D01*
X175220662Y-136109812D01*
X175220664Y-136109813D01*
X175220666Y-136109814D01*
X175387203Y-136164999D01*
X175489992Y-136175500D01*
X175489997Y-136175500D01*
X176590003Y-136175500D01*
X176590008Y-136175500D01*
X176692797Y-136164999D01*
X176859334Y-136109814D01*
X177008655Y-136017711D01*
X177132711Y-135893655D01*
X177224814Y-135744334D01*
X177279999Y-135577797D01*
X177290500Y-135475008D01*
X177290500Y-133854992D01*
X177279999Y-133752203D01*
X177224814Y-133585666D01*
X177207638Y-133557820D01*
X177132713Y-133436348D01*
X177132710Y-133436344D01*
X177008655Y-133312289D01*
X177008651Y-133312286D01*
X176859337Y-133220187D01*
X176859335Y-133220186D01*
X176776065Y-133192593D01*
X176692797Y-133165001D01*
X176692795Y-133165000D01*
X176590015Y-133154500D01*
X176590008Y-133154500D01*
X175489992Y-133154500D01*
X175489984Y-133154500D01*
X175387204Y-133165000D01*
X175387203Y-133165001D01*
X175220664Y-133220186D01*
X175220662Y-133220187D01*
X175071348Y-133312286D01*
X175071344Y-133312289D01*
X174947289Y-133436344D01*
X174947286Y-133436348D01*
X174855187Y-133585662D01*
X174855186Y-133585664D01*
X174800001Y-133752203D01*
X174800000Y-133752204D01*
X174789500Y-133854984D01*
X174162661Y-133854984D01*
X174109097Y-133749858D01*
X173993444Y-133590678D01*
X173854321Y-133451555D01*
X173695143Y-133335904D01*
X173519835Y-133246581D01*
X173332705Y-133185778D01*
X173290000Y-133179014D01*
X173290000Y-134220439D01*
X173236853Y-134189755D01*
X173107143Y-134155000D01*
X172972857Y-134155000D01*
X172843147Y-134189755D01*
X172790000Y-134220439D01*
X172790000Y-133179014D01*
X172789999Y-133179014D01*
X172747294Y-133185778D01*
X172560164Y-133246581D01*
X172384856Y-133335904D01*
X172225678Y-133451555D01*
X172086555Y-133590678D01*
X171970904Y-133749856D01*
X171881581Y-133925164D01*
X171820778Y-134112294D01*
X171790000Y-134306617D01*
X135000500Y-134306617D01*
X135000500Y-130421153D01*
X138199500Y-130421153D01*
X138199500Y-130578846D01*
X138230261Y-130733489D01*
X138230264Y-130733501D01*
X138290602Y-130879172D01*
X138290609Y-130879185D01*
X138378210Y-131010288D01*
X138378213Y-131010292D01*
X138489707Y-131121786D01*
X138489711Y-131121789D01*
X138620814Y-131209390D01*
X138620827Y-131209397D01*
X138740185Y-131258836D01*
X138766503Y-131269737D01*
X138921153Y-131300499D01*
X138921156Y-131300500D01*
X138921158Y-131300500D01*
X139078844Y-131300500D01*
X139078845Y-131300499D01*
X139233497Y-131269737D01*
X139254964Y-131260843D01*
X139260120Y-131258842D01*
X139676357Y-131107926D01*
X139718624Y-131100500D01*
X140413331Y-131100500D01*
X140413347Y-131100501D01*
X140420943Y-131100501D01*
X140579054Y-131100501D01*
X140579057Y-131100501D01*
X140731785Y-131059577D01*
X140788940Y-131026578D01*
X140868716Y-130980520D01*
X140980520Y-130868716D01*
X140980520Y-130868714D01*
X140990724Y-130858511D01*
X140990728Y-130858506D01*
X152928080Y-118921153D01*
X175199500Y-118921153D01*
X175199500Y-119078846D01*
X175230261Y-119233489D01*
X175230264Y-119233501D01*
X175290602Y-119379172D01*
X175290609Y-119379185D01*
X175378210Y-119510288D01*
X175378213Y-119510292D01*
X175489710Y-119621789D01*
X175577315Y-119680324D01*
X175620821Y-119709394D01*
X175642288Y-119718285D01*
X175647363Y-119720521D01*
X175675108Y-119733501D01*
X176048386Y-119908123D01*
X176083524Y-119932760D01*
X176131284Y-119980520D01*
X176131286Y-119980521D01*
X176131290Y-119980524D01*
X176268209Y-120059573D01*
X176268216Y-120059577D01*
X176420943Y-120100501D01*
X176420945Y-120100501D01*
X176586654Y-120100501D01*
X176586670Y-120100500D01*
X180281375Y-120100500D01*
X180323642Y-120107926D01*
X180603503Y-120209397D01*
X180742494Y-120259792D01*
X180766503Y-120269737D01*
X180780018Y-120272425D01*
X180791881Y-120276238D01*
X180793549Y-120276707D01*
X180883720Y-120293419D01*
X180883724Y-120293418D01*
X180890243Y-120294627D01*
X180894374Y-120295172D01*
X180921158Y-120300500D01*
X180921162Y-120300500D01*
X181078844Y-120300500D01*
X181078845Y-120300499D01*
X181233497Y-120269737D01*
X181379179Y-120209394D01*
X181510289Y-120121789D01*
X181621789Y-120010289D01*
X181709394Y-119879179D01*
X181769737Y-119733497D01*
X181800500Y-119578842D01*
X181800500Y-119421158D01*
X181800500Y-119421155D01*
X181800499Y-119421153D01*
X181769738Y-119266510D01*
X181769737Y-119266503D01*
X181756062Y-119233489D01*
X181709397Y-119120827D01*
X181709390Y-119120814D01*
X181621789Y-118989711D01*
X181621786Y-118989707D01*
X181510292Y-118878213D01*
X181510288Y-118878210D01*
X181379185Y-118790609D01*
X181379172Y-118790602D01*
X181233501Y-118730264D01*
X181233489Y-118730261D01*
X181078845Y-118699500D01*
X181078842Y-118699500D01*
X180921158Y-118699500D01*
X180921156Y-118699500D01*
X180766504Y-118730262D01*
X180766499Y-118730264D01*
X180745058Y-118739144D01*
X180739879Y-118741154D01*
X180323640Y-118892074D01*
X180281373Y-118899500D01*
X176917363Y-118899500D01*
X176900793Y-118894634D01*
X176883521Y-118894793D01*
X176867961Y-118884994D01*
X176850324Y-118879815D01*
X176838780Y-118866616D01*
X176824399Y-118857559D01*
X176805046Y-118828044D01*
X176720515Y-118647349D01*
X176718301Y-118642328D01*
X176709394Y-118620821D01*
X176705610Y-118615159D01*
X176698435Y-118602967D01*
X176695821Y-118597882D01*
X176694972Y-118596372D01*
X176643308Y-118521258D01*
X176643307Y-118521257D01*
X176639569Y-118515822D01*
X176636970Y-118512431D01*
X176621786Y-118489707D01*
X176510292Y-118378213D01*
X176510288Y-118378210D01*
X176379185Y-118290609D01*
X176379172Y-118290602D01*
X176233501Y-118230264D01*
X176233489Y-118230261D01*
X176078845Y-118199500D01*
X176078842Y-118199500D01*
X175921158Y-118199500D01*
X175921155Y-118199500D01*
X175766510Y-118230261D01*
X175766498Y-118230264D01*
X175620827Y-118290602D01*
X175620814Y-118290609D01*
X175489711Y-118378210D01*
X175489707Y-118378213D01*
X175378213Y-118489707D01*
X175378210Y-118489711D01*
X175290609Y-118620814D01*
X175290602Y-118620827D01*
X175230264Y-118766498D01*
X175230261Y-118766510D01*
X175199500Y-118921153D01*
X152928080Y-118921153D01*
X153416476Y-118432757D01*
X153451608Y-118408125D01*
X153855129Y-118219355D01*
X153879179Y-118209394D01*
X153890734Y-118201673D01*
X153902117Y-118195821D01*
X153903627Y-118194972D01*
X153978741Y-118143308D01*
X153978741Y-118143306D01*
X153984210Y-118139546D01*
X153987577Y-118136963D01*
X154010289Y-118121789D01*
X154121789Y-118010289D01*
X154209394Y-117879179D01*
X154269737Y-117733497D01*
X154300500Y-117578842D01*
X154300500Y-117421158D01*
X154300500Y-117421155D01*
X154300499Y-117421153D01*
X154269738Y-117266510D01*
X154269737Y-117266503D01*
X154269735Y-117266498D01*
X154209397Y-117120827D01*
X154209390Y-117120814D01*
X154121789Y-116989711D01*
X154121786Y-116989707D01*
X154010292Y-116878213D01*
X154010288Y-116878210D01*
X153879185Y-116790609D01*
X153879172Y-116790602D01*
X153733501Y-116730264D01*
X153733489Y-116730261D01*
X153578845Y-116699500D01*
X153578842Y-116699500D01*
X153421158Y-116699500D01*
X153421155Y-116699500D01*
X153266510Y-116730261D01*
X153266498Y-116730264D01*
X153120827Y-116790602D01*
X153120814Y-116790609D01*
X152989711Y-116878210D01*
X152989707Y-116878213D01*
X152878213Y-116989707D01*
X152878207Y-116989715D01*
X152790607Y-117120818D01*
X152790606Y-117120819D01*
X152781726Y-117142257D01*
X152779485Y-117147342D01*
X152591872Y-117548390D01*
X152567235Y-117583528D01*
X140287584Y-129863181D01*
X140226261Y-129896666D01*
X140199903Y-129899500D01*
X139718625Y-129899500D01*
X139676358Y-129892074D01*
X139261490Y-129741652D01*
X139261456Y-129741640D01*
X139257516Y-129740212D01*
X139233497Y-129730263D01*
X139219991Y-129727576D01*
X139208178Y-129723779D01*
X139206520Y-129723312D01*
X139109793Y-129705377D01*
X139105598Y-129704822D01*
X139101292Y-129703965D01*
X139078842Y-129699500D01*
X138921158Y-129699500D01*
X138921155Y-129699500D01*
X138766510Y-129730261D01*
X138766498Y-129730264D01*
X138620827Y-129790602D01*
X138620814Y-129790609D01*
X138489711Y-129878210D01*
X138489707Y-129878213D01*
X138378213Y-129989707D01*
X138378210Y-129989711D01*
X138290609Y-130120814D01*
X138290602Y-130120827D01*
X138230264Y-130266498D01*
X138230261Y-130266510D01*
X138199500Y-130421153D01*
X135000500Y-130421153D01*
X135000500Y-111579054D01*
X144399498Y-111579054D01*
X144399499Y-111579057D01*
X144440423Y-111731785D01*
X144467963Y-111779485D01*
X144469358Y-111781900D01*
X144469359Y-111781904D01*
X144469360Y-111781904D01*
X144519479Y-111868714D01*
X144519481Y-111868717D01*
X144638349Y-111987585D01*
X144638355Y-111987590D01*
X145067235Y-112416471D01*
X145091872Y-112451609D01*
X145278868Y-112851339D01*
X145278883Y-112851370D01*
X145280655Y-112855157D01*
X145290606Y-112879179D01*
X145298321Y-112890726D01*
X145301915Y-112897716D01*
X145301932Y-112897750D01*
X145304175Y-112902111D01*
X145305028Y-112903630D01*
X145360434Y-112984183D01*
X145363029Y-112987569D01*
X145378208Y-113010286D01*
X145378215Y-113010294D01*
X145489707Y-113121786D01*
X145489711Y-113121789D01*
X145620814Y-113209390D01*
X145620827Y-113209397D01*
X145766498Y-113269735D01*
X145766503Y-113269737D01*
X145921153Y-113300499D01*
X145921156Y-113300500D01*
X145921158Y-113300500D01*
X146078844Y-113300500D01*
X146078845Y-113300499D01*
X146233497Y-113269737D01*
X146379179Y-113209394D01*
X146510289Y-113121789D01*
X146621789Y-113010289D01*
X146709394Y-112879179D01*
X146769737Y-112733497D01*
X146800500Y-112578842D01*
X146800500Y-112421158D01*
X146800500Y-112421155D01*
X146800499Y-112421153D01*
X146769738Y-112266510D01*
X146769737Y-112266503D01*
X146769735Y-112266498D01*
X146709397Y-112120827D01*
X146709390Y-112120814D01*
X146621789Y-111989711D01*
X146621786Y-111989707D01*
X146510292Y-111878213D01*
X146510284Y-111878207D01*
X146379181Y-111790607D01*
X146379182Y-111790607D01*
X146364211Y-111784406D01*
X146357740Y-111781725D01*
X146352657Y-111779485D01*
X145951609Y-111591873D01*
X145916471Y-111567236D01*
X145636819Y-111287583D01*
X145603334Y-111226260D01*
X145600500Y-111199902D01*
X145600500Y-110897844D01*
X146850000Y-110897844D01*
X146856401Y-110957372D01*
X146856403Y-110957379D01*
X146906645Y-111092086D01*
X146906649Y-111092093D01*
X146992809Y-111207187D01*
X146992812Y-111207190D01*
X147107906Y-111293350D01*
X147107913Y-111293354D01*
X147242620Y-111343596D01*
X147242627Y-111343598D01*
X147302155Y-111349999D01*
X147302172Y-111350000D01*
X148400000Y-111350000D01*
X148400000Y-111253554D01*
X148399999Y-111253553D01*
X148900000Y-111253553D01*
X148900000Y-111350000D01*
X149997828Y-111350000D01*
X149997844Y-111349999D01*
X150057372Y-111343598D01*
X150057379Y-111343596D01*
X150192086Y-111293354D01*
X150192093Y-111293350D01*
X150307187Y-111207190D01*
X150307190Y-111207187D01*
X150393350Y-111092093D01*
X150393354Y-111092086D01*
X150443596Y-110957379D01*
X150443598Y-110957372D01*
X150449999Y-110897844D01*
X150450000Y-110897827D01*
X150450000Y-110421153D01*
X179699500Y-110421153D01*
X179699500Y-110578846D01*
X179730261Y-110733489D01*
X179730264Y-110733501D01*
X179790602Y-110879172D01*
X179790609Y-110879185D01*
X179878210Y-111010288D01*
X179878213Y-111010292D01*
X179989710Y-111121789D01*
X180077315Y-111180324D01*
X180120821Y-111209394D01*
X180142288Y-111218285D01*
X180147363Y-111220521D01*
X180548388Y-111408123D01*
X180583525Y-111432760D01*
X183863181Y-114712416D01*
X183896666Y-114773739D01*
X183899500Y-114800097D01*
X183899500Y-115413330D01*
X183899499Y-115413348D01*
X183899499Y-115579054D01*
X183899498Y-115579054D01*
X183899499Y-115579057D01*
X183940423Y-115731785D01*
X183941966Y-115734456D01*
X183941971Y-115734477D01*
X183941976Y-115734475D01*
X184019475Y-115868709D01*
X184019481Y-115868717D01*
X184067236Y-115916472D01*
X184091873Y-115951610D01*
X184278868Y-116351339D01*
X184278883Y-116351370D01*
X184280655Y-116355157D01*
X184290606Y-116379179D01*
X184298321Y-116390726D01*
X184301915Y-116397716D01*
X184301932Y-116397750D01*
X184304175Y-116402111D01*
X184305028Y-116403630D01*
X184360434Y-116484183D01*
X184363029Y-116487569D01*
X184378208Y-116510286D01*
X184378215Y-116510294D01*
X184489707Y-116621786D01*
X184489711Y-116621789D01*
X184620814Y-116709390D01*
X184620827Y-116709397D01*
X184766498Y-116769735D01*
X184766503Y-116769737D01*
X184921153Y-116800499D01*
X184921156Y-116800500D01*
X184921158Y-116800500D01*
X185078844Y-116800500D01*
X185078845Y-116800499D01*
X185233497Y-116769737D01*
X185379179Y-116709394D01*
X185510289Y-116621789D01*
X185621789Y-116510289D01*
X185709394Y-116379179D01*
X185769737Y-116233497D01*
X185800500Y-116078842D01*
X185800500Y-115921158D01*
X185800500Y-115921155D01*
X185800499Y-115921153D01*
X185790069Y-115868717D01*
X185769737Y-115766503D01*
X185769735Y-115766498D01*
X185709397Y-115620827D01*
X185709390Y-115620814D01*
X185621789Y-115489711D01*
X185621786Y-115489707D01*
X185510292Y-115378213D01*
X185510284Y-115378207D01*
X185379181Y-115290607D01*
X185379182Y-115290607D01*
X185357744Y-115281727D01*
X185352657Y-115279485D01*
X185171957Y-115194952D01*
X185119575Y-115148715D01*
X185100500Y-115082634D01*
X185100500Y-114420945D01*
X185100500Y-114420943D01*
X185059577Y-114268216D01*
X185059577Y-114268215D01*
X185059577Y-114268214D01*
X185030639Y-114218095D01*
X185030637Y-114218092D01*
X184980520Y-114131284D01*
X184868716Y-114019480D01*
X184868715Y-114019479D01*
X184864385Y-114015149D01*
X184864374Y-114015139D01*
X181432761Y-110583526D01*
X181408124Y-110548388D01*
X181370134Y-110467179D01*
X181219351Y-110144861D01*
X181209394Y-110120821D01*
X181201675Y-110109269D01*
X181195821Y-110097882D01*
X181194972Y-110096372D01*
X181143308Y-110021258D01*
X181143307Y-110021257D01*
X181139569Y-110015822D01*
X181136970Y-110012431D01*
X181121786Y-109989707D01*
X181010292Y-109878213D01*
X181010288Y-109878210D01*
X180879185Y-109790609D01*
X180879172Y-109790602D01*
X180733501Y-109730264D01*
X180733489Y-109730261D01*
X180578845Y-109699500D01*
X180578842Y-109699500D01*
X180421158Y-109699500D01*
X180421155Y-109699500D01*
X180266510Y-109730261D01*
X180266498Y-109730264D01*
X180120827Y-109790602D01*
X180120814Y-109790609D01*
X179989711Y-109878210D01*
X179989707Y-109878213D01*
X179878213Y-109989707D01*
X179878210Y-109989711D01*
X179790609Y-110120814D01*
X179790602Y-110120827D01*
X179730264Y-110266498D01*
X179730261Y-110266510D01*
X179699500Y-110421153D01*
X150450000Y-110421153D01*
X150450000Y-109450000D01*
X149903553Y-109450000D01*
X150057311Y-109603758D01*
X150090796Y-109665081D01*
X150085812Y-109734773D01*
X150057312Y-109779120D01*
X149986432Y-109850000D01*
X150057312Y-109920880D01*
X150090797Y-109982203D01*
X150085813Y-110051895D01*
X150057312Y-110096242D01*
X148900000Y-111253553D01*
X148399999Y-111253553D01*
X147613625Y-110467179D01*
X147835000Y-110467179D01*
X147835000Y-110532821D01*
X147860119Y-110593465D01*
X147906535Y-110639881D01*
X147967179Y-110665000D01*
X148032821Y-110665000D01*
X148093465Y-110639881D01*
X148139881Y-110593465D01*
X148165000Y-110532821D01*
X148165000Y-110500000D01*
X148353554Y-110500000D01*
X148400000Y-110546445D01*
X148400000Y-110546444D01*
X148900000Y-110546444D01*
X148946445Y-110500000D01*
X148913624Y-110467179D01*
X149135000Y-110467179D01*
X149135000Y-110532821D01*
X149160119Y-110593465D01*
X149206535Y-110639881D01*
X149267179Y-110665000D01*
X149332821Y-110665000D01*
X149393465Y-110639881D01*
X149439881Y-110593465D01*
X149465000Y-110532821D01*
X149465000Y-110467179D01*
X149439881Y-110406535D01*
X149393465Y-110360119D01*
X149332821Y-110335000D01*
X149267179Y-110335000D01*
X149206535Y-110360119D01*
X149160119Y-110406535D01*
X149135000Y-110467179D01*
X148913624Y-110467179D01*
X148900000Y-110453555D01*
X148900000Y-110546444D01*
X148400000Y-110546444D01*
X148400000Y-110453554D01*
X148353554Y-110500000D01*
X148165000Y-110500000D01*
X148165000Y-110467179D01*
X148139881Y-110406535D01*
X148093465Y-110360119D01*
X148032821Y-110335000D01*
X147967179Y-110335000D01*
X147906535Y-110360119D01*
X147860119Y-110406535D01*
X147835000Y-110467179D01*
X147613625Y-110467179D01*
X147242688Y-110096242D01*
X147209203Y-110034919D01*
X147214187Y-109965227D01*
X147219935Y-109952167D01*
X147272107Y-109850000D01*
X147703554Y-109850000D01*
X148000000Y-110146446D01*
X148296446Y-109850000D01*
X149003554Y-109850000D01*
X149300000Y-110146446D01*
X149596446Y-109850000D01*
X149300000Y-109553554D01*
X149003554Y-109850000D01*
X148296446Y-109850000D01*
X148000000Y-109553554D01*
X147703554Y-109850000D01*
X147272107Y-109850000D01*
X147286122Y-109822554D01*
X147242688Y-109779120D01*
X147209203Y-109717797D01*
X147214187Y-109648105D01*
X147242688Y-109603758D01*
X147396446Y-109450000D01*
X146850000Y-109450000D01*
X146850000Y-110897844D01*
X145600500Y-110897844D01*
X145600500Y-109167179D01*
X147835000Y-109167179D01*
X147835000Y-109232821D01*
X147860119Y-109293465D01*
X147906535Y-109339881D01*
X147967179Y-109365000D01*
X148032821Y-109365000D01*
X148093465Y-109339881D01*
X148139881Y-109293465D01*
X148165000Y-109232821D01*
X148165000Y-109167179D01*
X149135000Y-109167179D01*
X149135000Y-109232821D01*
X149160119Y-109293465D01*
X149206535Y-109339881D01*
X149267179Y-109365000D01*
X149332821Y-109365000D01*
X149393465Y-109339881D01*
X149439881Y-109293465D01*
X149465000Y-109232821D01*
X149465000Y-109167179D01*
X149439881Y-109106535D01*
X149393465Y-109060119D01*
X149332821Y-109035000D01*
X149267179Y-109035000D01*
X149206535Y-109060119D01*
X149160119Y-109106535D01*
X149135000Y-109167179D01*
X148165000Y-109167179D01*
X148139881Y-109106535D01*
X148093465Y-109060119D01*
X148032821Y-109035000D01*
X147967179Y-109035000D01*
X147906535Y-109060119D01*
X147860119Y-109106535D01*
X147835000Y-109167179D01*
X145600500Y-109167179D01*
X145600500Y-107502155D01*
X146850000Y-107502155D01*
X146850000Y-108950000D01*
X147396446Y-108950000D01*
X147396446Y-108949999D01*
X147242688Y-108796241D01*
X147209203Y-108734918D01*
X147214187Y-108665226D01*
X147219935Y-108652166D01*
X147272107Y-108550000D01*
X147703554Y-108550000D01*
X148000000Y-108846446D01*
X148296446Y-108550000D01*
X149003554Y-108550000D01*
X149300000Y-108846446D01*
X149596446Y-108550000D01*
X149300000Y-108253554D01*
X149003554Y-108550000D01*
X148296446Y-108550000D01*
X148000000Y-108253554D01*
X147703554Y-108550000D01*
X147272107Y-108550000D01*
X147286122Y-108522554D01*
X147242688Y-108479120D01*
X147209203Y-108417797D01*
X147214187Y-108348105D01*
X147242688Y-108303758D01*
X147679267Y-107867179D01*
X147835000Y-107867179D01*
X147835000Y-107932821D01*
X147860119Y-107993465D01*
X147906535Y-108039881D01*
X147967179Y-108065000D01*
X148032821Y-108065000D01*
X148093465Y-108039881D01*
X148139881Y-107993465D01*
X148165000Y-107932821D01*
X148165000Y-107900000D01*
X148353554Y-107900000D01*
X148400000Y-107946445D01*
X148400000Y-107946444D01*
X148900000Y-107946444D01*
X148946445Y-107900000D01*
X148913624Y-107867179D01*
X149135000Y-107867179D01*
X149135000Y-107932821D01*
X149160119Y-107993465D01*
X149206535Y-108039881D01*
X149267179Y-108065000D01*
X149332821Y-108065000D01*
X149393465Y-108039881D01*
X149439881Y-107993465D01*
X149465000Y-107932821D01*
X149465000Y-107867179D01*
X149439881Y-107806535D01*
X149393465Y-107760119D01*
X149332821Y-107735000D01*
X149267179Y-107735000D01*
X149206535Y-107760119D01*
X149160119Y-107806535D01*
X149135000Y-107867179D01*
X148913624Y-107867179D01*
X148900000Y-107853555D01*
X148900000Y-107946444D01*
X148400000Y-107946444D01*
X148400000Y-107853554D01*
X148353554Y-107900000D01*
X148165000Y-107900000D01*
X148165000Y-107867179D01*
X148139881Y-107806535D01*
X148093465Y-107760119D01*
X148032821Y-107735000D01*
X147967179Y-107735000D01*
X147906535Y-107760119D01*
X147860119Y-107806535D01*
X147835000Y-107867179D01*
X147679267Y-107867179D01*
X147785489Y-107760957D01*
X148399999Y-107146446D01*
X148900000Y-107146446D01*
X150057312Y-108303758D01*
X150090797Y-108365081D01*
X150085813Y-108434773D01*
X150057312Y-108479120D01*
X149986432Y-108550000D01*
X150057311Y-108620879D01*
X150090796Y-108682202D01*
X150085812Y-108751894D01*
X150057311Y-108796241D01*
X149903553Y-108949998D01*
X149903554Y-108950000D01*
X150450000Y-108950000D01*
X150450000Y-107502172D01*
X150449999Y-107502155D01*
X150443598Y-107442627D01*
X150443596Y-107442620D01*
X150393354Y-107307913D01*
X150393350Y-107307906D01*
X150307190Y-107192812D01*
X150307187Y-107192809D01*
X150192093Y-107106649D01*
X150192086Y-107106645D01*
X150057379Y-107056403D01*
X150057372Y-107056401D01*
X149997844Y-107050000D01*
X148900000Y-107050000D01*
X148900000Y-107146446D01*
X148399999Y-107146446D01*
X148400000Y-107146445D01*
X148400000Y-107050000D01*
X147302155Y-107050000D01*
X147242627Y-107056401D01*
X147242620Y-107056403D01*
X147107913Y-107106645D01*
X147107906Y-107106649D01*
X146992812Y-107192809D01*
X146992809Y-107192812D01*
X146906649Y-107307906D01*
X146906645Y-107307913D01*
X146856403Y-107442620D01*
X146856401Y-107442627D01*
X146850000Y-107502155D01*
X145600500Y-107502155D01*
X145600500Y-94300097D01*
X145620185Y-94233058D01*
X145636819Y-94212416D01*
X146212417Y-93636819D01*
X146273740Y-93603334D01*
X146300098Y-93600500D01*
X146781375Y-93600500D01*
X146823642Y-93607926D01*
X147103503Y-93709397D01*
X147242494Y-93759792D01*
X147266503Y-93769737D01*
X147280018Y-93772425D01*
X147291881Y-93776238D01*
X147293549Y-93776707D01*
X147383720Y-93793419D01*
X147383724Y-93793418D01*
X147390243Y-93794627D01*
X147394374Y-93795172D01*
X147421158Y-93800500D01*
X147421162Y-93800500D01*
X147578844Y-93800500D01*
X147578845Y-93800499D01*
X147733497Y-93769737D01*
X147879179Y-93709394D01*
X148010289Y-93621789D01*
X148121789Y-93510289D01*
X148209394Y-93379179D01*
X148269737Y-93233497D01*
X148300500Y-93078842D01*
X148300500Y-92921158D01*
X148300500Y-92921155D01*
X148300499Y-92921153D01*
X148269738Y-92766510D01*
X148269737Y-92766503D01*
X148222639Y-92652797D01*
X148209397Y-92620827D01*
X148209390Y-92620814D01*
X148121789Y-92489711D01*
X148121786Y-92489707D01*
X148010292Y-92378213D01*
X148010288Y-92378210D01*
X147879185Y-92290609D01*
X147879172Y-92290602D01*
X147733501Y-92230264D01*
X147733489Y-92230261D01*
X147578845Y-92199500D01*
X147578842Y-92199500D01*
X147421158Y-92199500D01*
X147421156Y-92199500D01*
X147266504Y-92230262D01*
X147266499Y-92230264D01*
X147245058Y-92239144D01*
X147239879Y-92241154D01*
X146823640Y-92392074D01*
X146781373Y-92399500D01*
X146086670Y-92399500D01*
X146086654Y-92399499D01*
X146079058Y-92399499D01*
X145920943Y-92399499D01*
X145844579Y-92419961D01*
X145768214Y-92440423D01*
X145768209Y-92440426D01*
X145631290Y-92519475D01*
X145631282Y-92519481D01*
X144519481Y-93631282D01*
X144519479Y-93631285D01*
X144474385Y-93709392D01*
X144474384Y-93709393D01*
X144440423Y-93768214D01*
X144440423Y-93768215D01*
X144399499Y-93920943D01*
X144399499Y-94079057D01*
X144399499Y-94079059D01*
X144399500Y-94089053D01*
X144399500Y-111413330D01*
X144399499Y-111413348D01*
X144399499Y-111579054D01*
X144399498Y-111579054D01*
X135000500Y-111579054D01*
X135000500Y-104421153D01*
X141199500Y-104421153D01*
X141199500Y-104578846D01*
X141230261Y-104733489D01*
X141230263Y-104733497D01*
X141239144Y-104754938D01*
X141241156Y-104760122D01*
X141241655Y-104761497D01*
X141392073Y-105176355D01*
X141392074Y-105176356D01*
X141399500Y-105218623D01*
X141399500Y-107781372D01*
X141392074Y-107823640D01*
X141241634Y-108238550D01*
X141241615Y-108238604D01*
X141240196Y-108242520D01*
X141230263Y-108266503D01*
X141227565Y-108280062D01*
X141225154Y-108287572D01*
X141225140Y-108287614D01*
X141223688Y-108292138D01*
X141223222Y-108293798D01*
X141205367Y-108390266D01*
X141204822Y-108394398D01*
X141199500Y-108421156D01*
X141199500Y-108578846D01*
X141230261Y-108733489D01*
X141230264Y-108733501D01*
X141290602Y-108879172D01*
X141290609Y-108879185D01*
X141378210Y-109010288D01*
X141378213Y-109010292D01*
X141489707Y-109121786D01*
X141489711Y-109121789D01*
X141620814Y-109209390D01*
X141620827Y-109209397D01*
X141766498Y-109269735D01*
X141766503Y-109269737D01*
X141885791Y-109293465D01*
X141921153Y-109300499D01*
X141921156Y-109300500D01*
X141921158Y-109300500D01*
X142078844Y-109300500D01*
X142078845Y-109300499D01*
X142233497Y-109269737D01*
X142379179Y-109209394D01*
X142510289Y-109121789D01*
X142621789Y-109010289D01*
X142709394Y-108879179D01*
X142769737Y-108733497D01*
X142800500Y-108578842D01*
X142800500Y-108421158D01*
X142800500Y-108421156D01*
X142800500Y-108421155D01*
X142800499Y-108421153D01*
X142793053Y-108383720D01*
X142769737Y-108266503D01*
X142760854Y-108245057D01*
X142758843Y-108239877D01*
X142607926Y-107823642D01*
X142600500Y-107781375D01*
X142600500Y-105218622D01*
X142607926Y-105176355D01*
X142759786Y-104757518D01*
X142769737Y-104733497D01*
X142772426Y-104719977D01*
X142776238Y-104708118D01*
X142776707Y-104706450D01*
X142793419Y-104616279D01*
X142793418Y-104616275D01*
X142794630Y-104609741D01*
X142795175Y-104605608D01*
X142798400Y-104589395D01*
X142800500Y-104578844D01*
X142800500Y-104421155D01*
X142800499Y-104421153D01*
X142769738Y-104266510D01*
X142769737Y-104266503D01*
X142769735Y-104266498D01*
X142709397Y-104120827D01*
X142709390Y-104120814D01*
X142621789Y-103989711D01*
X142621786Y-103989707D01*
X142510292Y-103878213D01*
X142510288Y-103878210D01*
X142379185Y-103790609D01*
X142379172Y-103790602D01*
X142233501Y-103730264D01*
X142233489Y-103730261D01*
X142078845Y-103699500D01*
X142078842Y-103699500D01*
X141921158Y-103699500D01*
X141921155Y-103699500D01*
X141766510Y-103730261D01*
X141766498Y-103730264D01*
X141620827Y-103790602D01*
X141620814Y-103790609D01*
X141489711Y-103878210D01*
X141489707Y-103878213D01*
X141378213Y-103989707D01*
X141378210Y-103989711D01*
X141290609Y-104120814D01*
X141290602Y-104120827D01*
X141230264Y-104266498D01*
X141230261Y-104266510D01*
X141199500Y-104421153D01*
X135000500Y-104421153D01*
X135000500Y-92381902D01*
X134963553Y-92148631D01*
X134890566Y-91924003D01*
X134783342Y-91713566D01*
X134644517Y-91522490D01*
X134477510Y-91355483D01*
X134286433Y-91216657D01*
X134215789Y-91180662D01*
X134075996Y-91109433D01*
X133851368Y-91036446D01*
X133618097Y-90999500D01*
X133618092Y-90999500D01*
X133381908Y-90999500D01*
X133381903Y-90999500D01*
X133148631Y-91036446D01*
X132924003Y-91109433D01*
X132713566Y-91216657D01*
X132632059Y-91275876D01*
X132522490Y-91355483D01*
X132522488Y-91355485D01*
X132522487Y-91355485D01*
X132355485Y-91522487D01*
X132355485Y-91522488D01*
X132355483Y-91522490D01*
X132295862Y-91604550D01*
X132216657Y-91713566D01*
X132109433Y-91924003D01*
X132036446Y-92148631D01*
X131999500Y-92381902D01*
X131999500Y-135827111D01*
X131979815Y-135894150D01*
X131963181Y-135914792D01*
X129414792Y-138463181D01*
X129353469Y-138496666D01*
X129327111Y-138499500D01*
X127881903Y-138499500D01*
X127648631Y-138536446D01*
X127424003Y-138609433D01*
X127213566Y-138716657D01*
X127128412Y-138778526D01*
X127022490Y-138855483D01*
X127022488Y-138855485D01*
X127022487Y-138855485D01*
X126855485Y-139022487D01*
X126855485Y-139022488D01*
X126855483Y-139022490D01*
X126799367Y-139099727D01*
X126716657Y-139213566D01*
X126609433Y-139424003D01*
X126536446Y-139648631D01*
X126499500Y-139881902D01*
X119350500Y-139881902D01*
X119350500Y-129412135D01*
X121224500Y-129412135D01*
X121224500Y-131207870D01*
X121224501Y-131207876D01*
X121230908Y-131267483D01*
X121281202Y-131402328D01*
X121281206Y-131402335D01*
X121367452Y-131517544D01*
X121367455Y-131517547D01*
X121482664Y-131603793D01*
X121482671Y-131603797D01*
X121614082Y-131652810D01*
X121670016Y-131694681D01*
X121694433Y-131760145D01*
X121679582Y-131828418D01*
X121658431Y-131856673D01*
X121544889Y-131970215D01*
X121419951Y-132142179D01*
X121323444Y-132331585D01*
X121257753Y-132533760D01*
X121224500Y-132743713D01*
X121224500Y-132956287D01*
X121257754Y-133166243D01*
X121312880Y-133335904D01*
X121323444Y-133368414D01*
X121419951Y-133557820D01*
X121544890Y-133729786D01*
X121695213Y-133880109D01*
X121867182Y-134005050D01*
X121875946Y-134009516D01*
X121926742Y-134057491D01*
X121943536Y-134125312D01*
X121920998Y-134191447D01*
X121875946Y-134230484D01*
X121867182Y-134234949D01*
X121695213Y-134359890D01*
X121544890Y-134510213D01*
X121419951Y-134682179D01*
X121323444Y-134871585D01*
X121257753Y-135073760D01*
X121224500Y-135283713D01*
X121224500Y-135496286D01*
X121257735Y-135706127D01*
X121257754Y-135706243D01*
X121313715Y-135878473D01*
X121323444Y-135908414D01*
X121419951Y-136097820D01*
X121544890Y-136269786D01*
X121695213Y-136420109D01*
X121867179Y-136545048D01*
X121867181Y-136545049D01*
X121867184Y-136545051D01*
X122056588Y-136641557D01*
X122258757Y-136707246D01*
X122468713Y-136740500D01*
X122468714Y-136740500D01*
X122681286Y-136740500D01*
X122681287Y-136740500D01*
X122891243Y-136707246D01*
X123093412Y-136641557D01*
X123282816Y-136545051D01*
X123337572Y-136505269D01*
X123454786Y-136420109D01*
X123454788Y-136420106D01*
X123454792Y-136420104D01*
X123605104Y-136269792D01*
X123605106Y-136269788D01*
X123605109Y-136269786D01*
X123690890Y-136151717D01*
X123730051Y-136097816D01*
X123734793Y-136088508D01*
X123782763Y-136037711D01*
X123850583Y-136020911D01*
X123916719Y-136043445D01*
X123955763Y-136088500D01*
X123960373Y-136097547D01*
X123999728Y-136151716D01*
X124632037Y-135519408D01*
X124649075Y-135582993D01*
X124714901Y-135697007D01*
X124807993Y-135790099D01*
X124922007Y-135855925D01*
X124985590Y-135872962D01*
X124353282Y-136505269D01*
X124353282Y-136505270D01*
X124407449Y-136544624D01*
X124596782Y-136641095D01*
X124798870Y-136706757D01*
X125008754Y-136740000D01*
X125221246Y-136740000D01*
X125431127Y-136706757D01*
X125431130Y-136706757D01*
X125633217Y-136641095D01*
X125822554Y-136544622D01*
X125876716Y-136505270D01*
X125876717Y-136505270D01*
X125244408Y-135872962D01*
X125307993Y-135855925D01*
X125422007Y-135790099D01*
X125515099Y-135697007D01*
X125580925Y-135582993D01*
X125597962Y-135519408D01*
X126230270Y-136151717D01*
X126230270Y-136151716D01*
X126269622Y-136097554D01*
X126366095Y-135908217D01*
X126431757Y-135706130D01*
X126431757Y-135706127D01*
X126465000Y-135496246D01*
X126465000Y-135283753D01*
X126431757Y-135073872D01*
X126431757Y-135073869D01*
X126366095Y-134871782D01*
X126269624Y-134682449D01*
X126230270Y-134628282D01*
X126230269Y-134628282D01*
X125597962Y-135260590D01*
X125580925Y-135197007D01*
X125515099Y-135082993D01*
X125422007Y-134989901D01*
X125307993Y-134924075D01*
X125244409Y-134907037D01*
X125876716Y-134274728D01*
X125822547Y-134235373D01*
X125822547Y-134235372D01*
X125813500Y-134230763D01*
X125762706Y-134182788D01*
X125745912Y-134114966D01*
X125768451Y-134048832D01*
X125813508Y-134009793D01*
X125822816Y-134005051D01*
X125956219Y-133908129D01*
X125994786Y-133880109D01*
X125994788Y-133880106D01*
X125994792Y-133880104D01*
X126145104Y-133729792D01*
X126145106Y-133729788D01*
X126145109Y-133729786D01*
X126270048Y-133557820D01*
X126270047Y-133557820D01*
X126270051Y-133557816D01*
X126366557Y-133368412D01*
X126432246Y-133166243D01*
X126465500Y-132956287D01*
X126465500Y-132743713D01*
X126432246Y-132533757D01*
X126366557Y-132331588D01*
X126270051Y-132142184D01*
X126270049Y-132142181D01*
X126270048Y-132142179D01*
X126145109Y-131970213D01*
X125994786Y-131819890D01*
X125822820Y-131694951D01*
X125822115Y-131694591D01*
X125814054Y-131690485D01*
X125763259Y-131642512D01*
X125746463Y-131574692D01*
X125768999Y-131508556D01*
X125814054Y-131469515D01*
X125822816Y-131465051D01*
X125909138Y-131402335D01*
X125994786Y-131340109D01*
X125994788Y-131340106D01*
X125994792Y-131340104D01*
X126145104Y-131189792D01*
X126145106Y-131189788D01*
X126145109Y-131189786D01*
X126263685Y-131026578D01*
X126270051Y-131017816D01*
X126366557Y-130828412D01*
X126432246Y-130626243D01*
X126465500Y-130416287D01*
X126465500Y-130203713D01*
X126432246Y-129993757D01*
X126366557Y-129791588D01*
X126270051Y-129602184D01*
X126270049Y-129602181D01*
X126270048Y-129602179D01*
X126145109Y-129430213D01*
X125994786Y-129279890D01*
X125822820Y-129154951D01*
X125633414Y-129058444D01*
X125633413Y-129058443D01*
X125633412Y-129058443D01*
X125431243Y-128992754D01*
X125431241Y-128992753D01*
X125431240Y-128992753D01*
X125269957Y-128967208D01*
X125221287Y-128959500D01*
X125008713Y-128959500D01*
X124960042Y-128967208D01*
X124798760Y-128992753D01*
X124596585Y-129058444D01*
X124407179Y-129154951D01*
X124235215Y-129279889D01*
X124121673Y-129393431D01*
X124060350Y-129426915D01*
X123990658Y-129421931D01*
X123934725Y-129380059D01*
X123917810Y-129349082D01*
X123868797Y-129217671D01*
X123868793Y-129217664D01*
X123782547Y-129102455D01*
X123782544Y-129102452D01*
X123667335Y-129016206D01*
X123667328Y-129016202D01*
X123532482Y-128965908D01*
X123532483Y-128965908D01*
X123472883Y-128959501D01*
X123472881Y-128959500D01*
X123472873Y-128959500D01*
X123472864Y-128959500D01*
X121677129Y-128959500D01*
X121677123Y-128959501D01*
X121617516Y-128965908D01*
X121482671Y-129016202D01*
X121482664Y-129016206D01*
X121367455Y-129102452D01*
X121367452Y-129102455D01*
X121281206Y-129217664D01*
X121281202Y-129217671D01*
X121230908Y-129352517D01*
X121224501Y-129412116D01*
X121224500Y-129412135D01*
X119350500Y-129412135D01*
X119350500Y-122885258D01*
X123429500Y-122885258D01*
X123429500Y-123114741D01*
X123448625Y-123260000D01*
X123459452Y-123342238D01*
X123510123Y-123531348D01*
X123518842Y-123563887D01*
X123606650Y-123775876D01*
X123606657Y-123775890D01*
X123721392Y-123974617D01*
X123861081Y-124156661D01*
X123861089Y-124156670D01*
X124023330Y-124318911D01*
X124023338Y-124318918D01*
X124205382Y-124458607D01*
X124205385Y-124458608D01*
X124205388Y-124458611D01*
X124404112Y-124573344D01*
X124404117Y-124573346D01*
X124404123Y-124573349D01*
X124495480Y-124611190D01*
X124616113Y-124661158D01*
X124837762Y-124720548D01*
X125065266Y-124750500D01*
X125065273Y-124750500D01*
X125294727Y-124750500D01*
X125294734Y-124750500D01*
X125522238Y-124720548D01*
X125743887Y-124661158D01*
X125955888Y-124573344D01*
X126154612Y-124458611D01*
X126336661Y-124318919D01*
X126336665Y-124318914D01*
X126336670Y-124318911D01*
X126498911Y-124156670D01*
X126498914Y-124156665D01*
X126498919Y-124156661D01*
X126638611Y-123974612D01*
X126652830Y-123949984D01*
X127989500Y-123949984D01*
X127989500Y-125050015D01*
X128000000Y-125152795D01*
X128000001Y-125152796D01*
X128055186Y-125319335D01*
X128055187Y-125319337D01*
X128147286Y-125468651D01*
X128147289Y-125468655D01*
X128271344Y-125592710D01*
X128271348Y-125592713D01*
X128420662Y-125684812D01*
X128420664Y-125684813D01*
X128420666Y-125684814D01*
X128587203Y-125739999D01*
X128689992Y-125750500D01*
X128689997Y-125750500D01*
X130310003Y-125750500D01*
X130310008Y-125750500D01*
X130412797Y-125739999D01*
X130579334Y-125684814D01*
X130728655Y-125592711D01*
X130852711Y-125468655D01*
X130944814Y-125319334D01*
X130999999Y-125152797D01*
X131010500Y-125050008D01*
X131010500Y-123949992D01*
X130999999Y-123847203D01*
X130944814Y-123680666D01*
X130872783Y-123563887D01*
X130852713Y-123531348D01*
X130852710Y-123531344D01*
X130728655Y-123407289D01*
X130728651Y-123407286D01*
X130579337Y-123315187D01*
X130579335Y-123315186D01*
X130496065Y-123287593D01*
X130412797Y-123260001D01*
X130412795Y-123260000D01*
X130310015Y-123249500D01*
X130310008Y-123249500D01*
X128689992Y-123249500D01*
X128689984Y-123249500D01*
X128587204Y-123260000D01*
X128587203Y-123260001D01*
X128420664Y-123315186D01*
X128420662Y-123315187D01*
X128271348Y-123407286D01*
X128271344Y-123407289D01*
X128147289Y-123531344D01*
X128147286Y-123531348D01*
X128055187Y-123680662D01*
X128055186Y-123680664D01*
X128000001Y-123847203D01*
X128000000Y-123847204D01*
X127989500Y-123949984D01*
X126652830Y-123949984D01*
X126753344Y-123775888D01*
X126841158Y-123563887D01*
X126900548Y-123342238D01*
X126930500Y-123114734D01*
X126930500Y-122885266D01*
X126900548Y-122657762D01*
X126841158Y-122436113D01*
X126753344Y-122224112D01*
X126638611Y-122025388D01*
X126638608Y-122025385D01*
X126638607Y-122025382D01*
X126498918Y-121843338D01*
X126498911Y-121843330D01*
X126336670Y-121681089D01*
X126336661Y-121681081D01*
X126154617Y-121541392D01*
X125955890Y-121426657D01*
X125955876Y-121426650D01*
X125895459Y-121401625D01*
X125743887Y-121338842D01*
X125522238Y-121279452D01*
X125484215Y-121274446D01*
X125298539Y-121250000D01*
X128014016Y-121250000D01*
X129055440Y-121250000D01*
X129024755Y-121303147D01*
X128990000Y-121432857D01*
X128990000Y-121567143D01*
X129024755Y-121696853D01*
X129055440Y-121750000D01*
X128014016Y-121750000D01*
X128020781Y-121792716D01*
X128081581Y-121979837D01*
X128170904Y-122155143D01*
X128286555Y-122314321D01*
X128425678Y-122453444D01*
X128584856Y-122569095D01*
X128760164Y-122658418D01*
X128947294Y-122719221D01*
X129141618Y-122750000D01*
X129250000Y-122750000D01*
X129250000Y-121944560D01*
X129303147Y-121975245D01*
X129432857Y-122010000D01*
X129567143Y-122010000D01*
X129696853Y-121975245D01*
X129750000Y-121944560D01*
X129750000Y-122750000D01*
X129858382Y-122750000D01*
X130052705Y-122719221D01*
X130239835Y-122658418D01*
X130415143Y-122569095D01*
X130574321Y-122453444D01*
X130713444Y-122314321D01*
X130829095Y-122155143D01*
X130918418Y-121979837D01*
X130979218Y-121792716D01*
X130985984Y-121750000D01*
X129944560Y-121750000D01*
X129975245Y-121696853D01*
X130010000Y-121567143D01*
X130010000Y-121432857D01*
X129975245Y-121303147D01*
X129944560Y-121250000D01*
X130985984Y-121250000D01*
X130979218Y-121207283D01*
X130918418Y-121020162D01*
X130829095Y-120844856D01*
X130713444Y-120685678D01*
X130574321Y-120546555D01*
X130415143Y-120430904D01*
X130239835Y-120341581D01*
X130052705Y-120280778D01*
X129858382Y-120250000D01*
X129750000Y-120250000D01*
X129750000Y-121055439D01*
X129696853Y-121024755D01*
X129567143Y-120990000D01*
X129432857Y-120990000D01*
X129303147Y-121024755D01*
X129250000Y-121055439D01*
X129250000Y-120250000D01*
X129141618Y-120250000D01*
X128947294Y-120280778D01*
X128760164Y-120341581D01*
X128584856Y-120430904D01*
X128425678Y-120546555D01*
X128286555Y-120685678D01*
X128170904Y-120844856D01*
X128081581Y-121020162D01*
X128020781Y-121207283D01*
X128014016Y-121250000D01*
X125298539Y-121250000D01*
X125294741Y-121249500D01*
X125294734Y-121249500D01*
X125065266Y-121249500D01*
X125065258Y-121249500D01*
X124848715Y-121278009D01*
X124837762Y-121279452D01*
X124749330Y-121303147D01*
X124616112Y-121338842D01*
X124404123Y-121426650D01*
X124404109Y-121426657D01*
X124205382Y-121541392D01*
X124023338Y-121681081D01*
X123861081Y-121843338D01*
X123721392Y-122025382D01*
X123606657Y-122224109D01*
X123606650Y-122224123D01*
X123518842Y-122436112D01*
X123459453Y-122657759D01*
X123459451Y-122657770D01*
X123429500Y-122885258D01*
X119350500Y-122885258D01*
X119350500Y-90385258D01*
X122894500Y-90385258D01*
X122894500Y-90614741D01*
X122913625Y-90760000D01*
X122924452Y-90842238D01*
X122975123Y-91031348D01*
X122983842Y-91063887D01*
X123071650Y-91275876D01*
X123071657Y-91275890D01*
X123186392Y-91474617D01*
X123326081Y-91656661D01*
X123326089Y-91656670D01*
X123488330Y-91818911D01*
X123488338Y-91818918D01*
X123670382Y-91958607D01*
X123670385Y-91958608D01*
X123670388Y-91958611D01*
X123869112Y-92073344D01*
X123869117Y-92073346D01*
X123869123Y-92073349D01*
X123960480Y-92111190D01*
X124081113Y-92161158D01*
X124302762Y-92220548D01*
X124530266Y-92250500D01*
X124530273Y-92250500D01*
X124759727Y-92250500D01*
X124759734Y-92250500D01*
X124987238Y-92220548D01*
X125208887Y-92161158D01*
X125420888Y-92073344D01*
X125619612Y-91958611D01*
X125801661Y-91818919D01*
X125801665Y-91818914D01*
X125801670Y-91818911D01*
X125963911Y-91656670D01*
X125963914Y-91656665D01*
X125963919Y-91656661D01*
X126103611Y-91474612D01*
X126117830Y-91449984D01*
X127454500Y-91449984D01*
X127454500Y-92550015D01*
X127465000Y-92652795D01*
X127465001Y-92652796D01*
X127520186Y-92819335D01*
X127520187Y-92819337D01*
X127612286Y-92968651D01*
X127612289Y-92968655D01*
X127736344Y-93092710D01*
X127736348Y-93092713D01*
X127885662Y-93184812D01*
X127885664Y-93184813D01*
X127885666Y-93184814D01*
X128052203Y-93239999D01*
X128154992Y-93250500D01*
X128154997Y-93250500D01*
X129775003Y-93250500D01*
X129775008Y-93250500D01*
X129877797Y-93239999D01*
X130044334Y-93184814D01*
X130193655Y-93092711D01*
X130317711Y-92968655D01*
X130409814Y-92819334D01*
X130464999Y-92652797D01*
X130475500Y-92550008D01*
X130475500Y-91449992D01*
X130464999Y-91347203D01*
X130409814Y-91180666D01*
X130337783Y-91063887D01*
X130317713Y-91031348D01*
X130317710Y-91031344D01*
X130193655Y-90907289D01*
X130193651Y-90907286D01*
X130044337Y-90815187D01*
X130044335Y-90815186D01*
X129961065Y-90787593D01*
X129877797Y-90760001D01*
X129877795Y-90760000D01*
X129775015Y-90749500D01*
X129775008Y-90749500D01*
X128154992Y-90749500D01*
X128154984Y-90749500D01*
X128052204Y-90760000D01*
X128052203Y-90760001D01*
X127885664Y-90815186D01*
X127885662Y-90815187D01*
X127736348Y-90907286D01*
X127736344Y-90907289D01*
X127612289Y-91031344D01*
X127612286Y-91031348D01*
X127520187Y-91180662D01*
X127520186Y-91180664D01*
X127465001Y-91347203D01*
X127465000Y-91347204D01*
X127454500Y-91449984D01*
X126117830Y-91449984D01*
X126218344Y-91275888D01*
X126306158Y-91063887D01*
X126365548Y-90842238D01*
X126395500Y-90614734D01*
X126395500Y-90385266D01*
X126395057Y-90381902D01*
X139499500Y-90381902D01*
X139499500Y-99118097D01*
X139536446Y-99351368D01*
X139609433Y-99575996D01*
X139716657Y-99786433D01*
X139855483Y-99977510D01*
X140022490Y-100144517D01*
X140213567Y-100283343D01*
X140312991Y-100334002D01*
X140424003Y-100390566D01*
X140424005Y-100390566D01*
X140424008Y-100390568D01*
X140544412Y-100429689D01*
X140648631Y-100463553D01*
X140881903Y-100500500D01*
X140881908Y-100500500D01*
X141118097Y-100500500D01*
X141351368Y-100463553D01*
X141575992Y-100390568D01*
X141786433Y-100283343D01*
X141977510Y-100144517D01*
X142144517Y-99977510D01*
X142283343Y-99786433D01*
X142390568Y-99575992D01*
X142463553Y-99351368D01*
X142500500Y-99118097D01*
X142500500Y-90381902D01*
X142463553Y-90148631D01*
X142390566Y-89924003D01*
X142334002Y-89812991D01*
X142283343Y-89713567D01*
X142144517Y-89522490D01*
X141977510Y-89355483D01*
X141786433Y-89216657D01*
X141689737Y-89167388D01*
X141575996Y-89109433D01*
X141351368Y-89036446D01*
X141118097Y-88999500D01*
X141118092Y-88999500D01*
X140881908Y-88999500D01*
X140881903Y-88999500D01*
X140648631Y-89036446D01*
X140424003Y-89109433D01*
X140213566Y-89216657D01*
X140167674Y-89250000D01*
X140022490Y-89355483D01*
X140022488Y-89355485D01*
X140022487Y-89355485D01*
X139855485Y-89522487D01*
X139855485Y-89522488D01*
X139855483Y-89522490D01*
X139795862Y-89604550D01*
X139716657Y-89713566D01*
X139609433Y-89924003D01*
X139536446Y-90148631D01*
X139499500Y-90381902D01*
X126395057Y-90381902D01*
X126365548Y-90157762D01*
X126306158Y-89936113D01*
X126218344Y-89724112D01*
X126103611Y-89525388D01*
X126103608Y-89525385D01*
X126103607Y-89525382D01*
X126002764Y-89393962D01*
X125963919Y-89343339D01*
X125963918Y-89343338D01*
X125963911Y-89343330D01*
X125801670Y-89181089D01*
X125801661Y-89181081D01*
X125619617Y-89041392D01*
X125420890Y-88926657D01*
X125420876Y-88926650D01*
X125360459Y-88901625D01*
X125208887Y-88838842D01*
X124987238Y-88779452D01*
X124949215Y-88774446D01*
X124763539Y-88750000D01*
X127479016Y-88750000D01*
X128520440Y-88750000D01*
X128489755Y-88803147D01*
X128455000Y-88932857D01*
X128455000Y-89067143D01*
X128489755Y-89196853D01*
X128520440Y-89250000D01*
X127479016Y-89250000D01*
X127485781Y-89292716D01*
X127546581Y-89479835D01*
X127635904Y-89655143D01*
X127751555Y-89814321D01*
X127890678Y-89953444D01*
X128049856Y-90069095D01*
X128225164Y-90158418D01*
X128412294Y-90219221D01*
X128606618Y-90250000D01*
X128715000Y-90250000D01*
X128715000Y-89444560D01*
X128768147Y-89475245D01*
X128897857Y-89510000D01*
X129032143Y-89510000D01*
X129161853Y-89475245D01*
X129215000Y-89444560D01*
X129215000Y-90250000D01*
X129323382Y-90250000D01*
X129517705Y-90219221D01*
X129704835Y-90158418D01*
X129880143Y-90069095D01*
X130039321Y-89953444D01*
X130178444Y-89814321D01*
X130294095Y-89655143D01*
X130383419Y-89479835D01*
X130444218Y-89292716D01*
X130450984Y-89250000D01*
X129409560Y-89250000D01*
X129440245Y-89196853D01*
X129475000Y-89067143D01*
X129475000Y-88932857D01*
X129440245Y-88803147D01*
X129409560Y-88750000D01*
X130450984Y-88750000D01*
X130444218Y-88707283D01*
X130383418Y-88520162D01*
X130294095Y-88344856D01*
X130178444Y-88185678D01*
X130039321Y-88046555D01*
X129913671Y-87955264D01*
X129880143Y-87930904D01*
X129740627Y-87859818D01*
X159960000Y-87859818D01*
X159960000Y-88080181D01*
X159994473Y-88297835D01*
X160062567Y-88507410D01*
X160162611Y-88703756D01*
X160208932Y-88767513D01*
X160917861Y-88058584D01*
X160940667Y-88143694D01*
X160999910Y-88246306D01*
X161083694Y-88330090D01*
X161186306Y-88389333D01*
X161271414Y-88412137D01*
X160562485Y-89121065D01*
X160562485Y-89121066D01*
X160626243Y-89167388D01*
X160822589Y-89267432D01*
X161032164Y-89335526D01*
X161249819Y-89370000D01*
X161470181Y-89370000D01*
X161687835Y-89335526D01*
X161897410Y-89267432D01*
X162093760Y-89167386D01*
X162157513Y-89121066D01*
X162157514Y-89121066D01*
X161448585Y-88412138D01*
X161533694Y-88389333D01*
X161636306Y-88330090D01*
X161720090Y-88246306D01*
X161779333Y-88143694D01*
X161802138Y-88058585D01*
X162511066Y-88767514D01*
X162511066Y-88767513D01*
X162557386Y-88703760D01*
X162657432Y-88507410D01*
X162725526Y-88297835D01*
X162760000Y-88080181D01*
X162760000Y-87859818D01*
X162725526Y-87642164D01*
X162657432Y-87432589D01*
X162601659Y-87323129D01*
X162574580Y-87269983D01*
X167579500Y-87269983D01*
X167579500Y-88670001D01*
X167579501Y-88670018D01*
X167590000Y-88772796D01*
X167590001Y-88772799D01*
X167611886Y-88838842D01*
X167645186Y-88939334D01*
X167737288Y-89088656D01*
X167861344Y-89212712D01*
X168010666Y-89304814D01*
X168177203Y-89359999D01*
X168279991Y-89370500D01*
X169680008Y-89370499D01*
X169782797Y-89359999D01*
X169949334Y-89304814D01*
X170098656Y-89212712D01*
X170222712Y-89088656D01*
X170314814Y-88939334D01*
X170369999Y-88772797D01*
X170380500Y-88670009D01*
X170380499Y-87269992D01*
X170377050Y-87236233D01*
X170369999Y-87167203D01*
X170369998Y-87167200D01*
X170314814Y-87000666D01*
X170222712Y-86851344D01*
X170098656Y-86727288D01*
X169949334Y-86635186D01*
X169782797Y-86580001D01*
X169782795Y-86580000D01*
X169680010Y-86569500D01*
X168279998Y-86569500D01*
X168279981Y-86569501D01*
X168177203Y-86580000D01*
X168177200Y-86580001D01*
X168010668Y-86635185D01*
X168010663Y-86635187D01*
X167861342Y-86727289D01*
X167737289Y-86851342D01*
X167645187Y-87000663D01*
X167645186Y-87000666D01*
X167590001Y-87167203D01*
X167590001Y-87167204D01*
X167590000Y-87167204D01*
X167579500Y-87269983D01*
X162574580Y-87269983D01*
X162557388Y-87236243D01*
X162511066Y-87172485D01*
X162511065Y-87172485D01*
X161802137Y-87881413D01*
X161779333Y-87796306D01*
X161720090Y-87693694D01*
X161636306Y-87609910D01*
X161533694Y-87550667D01*
X161448583Y-87527861D01*
X162157513Y-86818932D01*
X162093756Y-86772611D01*
X161897410Y-86672567D01*
X161687835Y-86604473D01*
X161470181Y-86570000D01*
X161249819Y-86570000D01*
X161032164Y-86604473D01*
X160822589Y-86672567D01*
X160626233Y-86772616D01*
X160562485Y-86818931D01*
X160562485Y-86818932D01*
X161271414Y-87527861D01*
X161186306Y-87550667D01*
X161083694Y-87609910D01*
X160999910Y-87693694D01*
X160940667Y-87796306D01*
X160917861Y-87881414D01*
X160208932Y-87172485D01*
X160208931Y-87172485D01*
X160162616Y-87236233D01*
X160062567Y-87432589D01*
X159994473Y-87642164D01*
X159960000Y-87859818D01*
X129740627Y-87859818D01*
X129704835Y-87841581D01*
X129517705Y-87780778D01*
X129323382Y-87750000D01*
X129215000Y-87750000D01*
X129215000Y-88555439D01*
X129161853Y-88524755D01*
X129032143Y-88490000D01*
X128897857Y-88490000D01*
X128768147Y-88524755D01*
X128715000Y-88555439D01*
X128715000Y-87750000D01*
X128606618Y-87750000D01*
X128412294Y-87780778D01*
X128225164Y-87841581D01*
X128049856Y-87930904D01*
X127890678Y-88046555D01*
X127751555Y-88185678D01*
X127635904Y-88344856D01*
X127546581Y-88520162D01*
X127485781Y-88707283D01*
X127479016Y-88750000D01*
X124763539Y-88750000D01*
X124759741Y-88749500D01*
X124759734Y-88749500D01*
X124530266Y-88749500D01*
X124530258Y-88749500D01*
X124313715Y-88778009D01*
X124302762Y-88779452D01*
X124214330Y-88803147D01*
X124081112Y-88838842D01*
X123869123Y-88926650D01*
X123869109Y-88926657D01*
X123670382Y-89041392D01*
X123488338Y-89181081D01*
X123326081Y-89343338D01*
X123186392Y-89525382D01*
X123071657Y-89724109D01*
X123071650Y-89724123D01*
X122988858Y-89924003D01*
X122983842Y-89936113D01*
X122926899Y-90148632D01*
X122924453Y-90157759D01*
X122924451Y-90157770D01*
X122894500Y-90385258D01*
X119350500Y-90385258D01*
X119350500Y-82006762D01*
X129349500Y-82006762D01*
X129349500Y-82293237D01*
X129381572Y-82577891D01*
X129445317Y-82857181D01*
X129445321Y-82857193D01*
X129539929Y-83127565D01*
X129539935Y-83127579D01*
X129664223Y-83385666D01*
X129664225Y-83385669D01*
X129816634Y-83628227D01*
X129995243Y-83852195D01*
X130197805Y-84054757D01*
X130421773Y-84233366D01*
X130664331Y-84385775D01*
X130922428Y-84510068D01*
X130922434Y-84510070D01*
X131192806Y-84604678D01*
X131192818Y-84604682D01*
X131472102Y-84668426D01*
X131472105Y-84668426D01*
X131472108Y-84668427D01*
X131472107Y-84668427D01*
X131614434Y-84684463D01*
X131756763Y-84700499D01*
X131756764Y-84700500D01*
X131756767Y-84700500D01*
X132043236Y-84700500D01*
X132043236Y-84700499D01*
X132248815Y-84677336D01*
X132327891Y-84668427D01*
X132327892Y-84668426D01*
X132327898Y-84668426D01*
X132607182Y-84604682D01*
X132877572Y-84510068D01*
X133135669Y-84385775D01*
X133378227Y-84233366D01*
X133602195Y-84054757D01*
X133804757Y-83852195D01*
X133983366Y-83628227D01*
X134135775Y-83385669D01*
X134260068Y-83127572D01*
X134354682Y-82857182D01*
X134418426Y-82577898D01*
X134431020Y-82466126D01*
X134445822Y-82334755D01*
X134445822Y-82334754D01*
X134447426Y-82320508D01*
X134450500Y-82293233D01*
X134450500Y-82006767D01*
X134418426Y-81722102D01*
X134354682Y-81442818D01*
X134260068Y-81172428D01*
X134203388Y-81054731D01*
X136550000Y-81054731D01*
X136550000Y-81900000D01*
X137772769Y-81900000D01*
X137750000Y-82043753D01*
X137750000Y-82256247D01*
X137772769Y-82400000D01*
X136550000Y-82400000D01*
X136550000Y-83245268D01*
X136560215Y-83389958D01*
X136560217Y-83389968D01*
X136614313Y-83630165D01*
X136614315Y-83630172D01*
X136706244Y-83858585D01*
X136833620Y-84069289D01*
X136833627Y-84069299D01*
X136993153Y-84256846D01*
X137180700Y-84416372D01*
X137180710Y-84416379D01*
X137391414Y-84543755D01*
X137619827Y-84635684D01*
X137619834Y-84635686D01*
X137860031Y-84689782D01*
X137860041Y-84689784D01*
X138004731Y-84699999D01*
X138004734Y-84700000D01*
X138850000Y-84700000D01*
X138850000Y-83477231D01*
X138993753Y-83500000D01*
X139206247Y-83500000D01*
X139350000Y-83477231D01*
X139350000Y-84700000D01*
X140195266Y-84700000D01*
X140195268Y-84699999D01*
X140339958Y-84689784D01*
X140339968Y-84689782D01*
X140580165Y-84635686D01*
X140580172Y-84635684D01*
X140808585Y-84543755D01*
X141019289Y-84416379D01*
X141019299Y-84416372D01*
X141206846Y-84256846D01*
X141366372Y-84069299D01*
X141366379Y-84069289D01*
X141493755Y-83858585D01*
X141585684Y-83630172D01*
X141585686Y-83630165D01*
X141639782Y-83389968D01*
X141639784Y-83389958D01*
X141649999Y-83245268D01*
X141650000Y-83245266D01*
X141650000Y-82400000D01*
X140427231Y-82400000D01*
X140450000Y-82256247D01*
X140450000Y-82043753D01*
X140444141Y-82006762D01*
X146349500Y-82006762D01*
X146349500Y-82293237D01*
X146381572Y-82577891D01*
X146445317Y-82857181D01*
X146445321Y-82857193D01*
X146539929Y-83127565D01*
X146539935Y-83127579D01*
X146664223Y-83385666D01*
X146664225Y-83385669D01*
X146816634Y-83628227D01*
X146995243Y-83852195D01*
X147197805Y-84054757D01*
X147421773Y-84233366D01*
X147664331Y-84385775D01*
X147922428Y-84510068D01*
X147922434Y-84510070D01*
X148192806Y-84604678D01*
X148192818Y-84604682D01*
X148472102Y-84668426D01*
X148472105Y-84668426D01*
X148472108Y-84668427D01*
X148472107Y-84668427D01*
X148614434Y-84684463D01*
X148756763Y-84700499D01*
X148756764Y-84700500D01*
X148756767Y-84700500D01*
X149043236Y-84700500D01*
X149043236Y-84700499D01*
X149248815Y-84677336D01*
X149327891Y-84668427D01*
X149327892Y-84668426D01*
X149327898Y-84668426D01*
X149607182Y-84604682D01*
X149877572Y-84510068D01*
X150135669Y-84385775D01*
X150378227Y-84233366D01*
X150602195Y-84054757D01*
X150804757Y-83852195D01*
X150983366Y-83628227D01*
X151135775Y-83385669D01*
X151260068Y-83127572D01*
X151354682Y-82857182D01*
X151418426Y-82577898D01*
X151431020Y-82466126D01*
X151445822Y-82334755D01*
X151445822Y-82334754D01*
X151447426Y-82320508D01*
X151450500Y-82293233D01*
X151450500Y-82006767D01*
X151418426Y-81722102D01*
X151354682Y-81442818D01*
X151260068Y-81172428D01*
X151203388Y-81054731D01*
X153550000Y-81054731D01*
X153550000Y-81900000D01*
X154772769Y-81900000D01*
X154750000Y-82043753D01*
X154750000Y-82256247D01*
X154772769Y-82400000D01*
X153550000Y-82400000D01*
X153550000Y-83245268D01*
X153560215Y-83389958D01*
X153560217Y-83389968D01*
X153614313Y-83630165D01*
X153614315Y-83630172D01*
X153706244Y-83858585D01*
X153833620Y-84069289D01*
X153833627Y-84069299D01*
X153993153Y-84256846D01*
X154180700Y-84416372D01*
X154180710Y-84416379D01*
X154391414Y-84543755D01*
X154619827Y-84635684D01*
X154619834Y-84635686D01*
X154860031Y-84689782D01*
X154860041Y-84689784D01*
X155004731Y-84699999D01*
X155004734Y-84700000D01*
X155850000Y-84700000D01*
X155850000Y-83477231D01*
X155993753Y-83500000D01*
X156206247Y-83500000D01*
X156350000Y-83477231D01*
X156350000Y-84700000D01*
X157195266Y-84700000D01*
X157195268Y-84699999D01*
X157339958Y-84689784D01*
X157339968Y-84689782D01*
X157580165Y-84635686D01*
X157580172Y-84635684D01*
X157808585Y-84543755D01*
X158019289Y-84416379D01*
X158019299Y-84416372D01*
X158206846Y-84256846D01*
X158366372Y-84069299D01*
X158366379Y-84069289D01*
X158493755Y-83858585D01*
X158585684Y-83630172D01*
X158585686Y-83630165D01*
X158639782Y-83389968D01*
X158639784Y-83389958D01*
X158649999Y-83245268D01*
X158650000Y-83245266D01*
X158650000Y-82400000D01*
X157427231Y-82400000D01*
X157450000Y-82256247D01*
X157450000Y-82043753D01*
X157444141Y-82006762D01*
X163349500Y-82006762D01*
X163349500Y-82293237D01*
X163381572Y-82577891D01*
X163445317Y-82857181D01*
X163445321Y-82857193D01*
X163539929Y-83127565D01*
X163539935Y-83127579D01*
X163664223Y-83385666D01*
X163664225Y-83385669D01*
X163816634Y-83628227D01*
X163995243Y-83852195D01*
X164197805Y-84054757D01*
X164421773Y-84233366D01*
X164664331Y-84385775D01*
X164922428Y-84510068D01*
X164922434Y-84510070D01*
X165192806Y-84604678D01*
X165192818Y-84604682D01*
X165472102Y-84668426D01*
X165472105Y-84668426D01*
X165472108Y-84668427D01*
X165472107Y-84668427D01*
X165614434Y-84684463D01*
X165756763Y-84700499D01*
X165756764Y-84700500D01*
X165756767Y-84700500D01*
X166043236Y-84700500D01*
X166043236Y-84700499D01*
X166248815Y-84677336D01*
X166327891Y-84668427D01*
X166327892Y-84668426D01*
X166327898Y-84668426D01*
X166607182Y-84604682D01*
X166877572Y-84510068D01*
X167135669Y-84385775D01*
X167378227Y-84233366D01*
X167602195Y-84054757D01*
X167804757Y-83852195D01*
X167983366Y-83628227D01*
X168135775Y-83385669D01*
X168260068Y-83127572D01*
X168354682Y-82857182D01*
X168418426Y-82577898D01*
X168431020Y-82466126D01*
X168445822Y-82334755D01*
X168445822Y-82334754D01*
X168447426Y-82320508D01*
X168450500Y-82293233D01*
X168450500Y-82006767D01*
X168418426Y-81722102D01*
X168354682Y-81442818D01*
X168260068Y-81172428D01*
X168203388Y-81054731D01*
X170550000Y-81054731D01*
X170550000Y-81900000D01*
X171772769Y-81900000D01*
X171750000Y-82043753D01*
X171750000Y-82256247D01*
X171772769Y-82400000D01*
X170550000Y-82400000D01*
X170550000Y-83245268D01*
X170560215Y-83389958D01*
X170560217Y-83389968D01*
X170614313Y-83630165D01*
X170614315Y-83630172D01*
X170706244Y-83858585D01*
X170833620Y-84069289D01*
X170833627Y-84069299D01*
X170993153Y-84256846D01*
X171180700Y-84416372D01*
X171180710Y-84416379D01*
X171391414Y-84543755D01*
X171619827Y-84635684D01*
X171619834Y-84635686D01*
X171860031Y-84689782D01*
X171860041Y-84689784D01*
X172004731Y-84699999D01*
X172004734Y-84700000D01*
X172850000Y-84700000D01*
X172850000Y-83477231D01*
X172993753Y-83500000D01*
X173206247Y-83500000D01*
X173350000Y-83477231D01*
X173350000Y-84700000D01*
X174195266Y-84700000D01*
X174195268Y-84699999D01*
X174339958Y-84689784D01*
X174339968Y-84689782D01*
X174580165Y-84635686D01*
X174580172Y-84635684D01*
X174808585Y-84543755D01*
X175019289Y-84416379D01*
X175019299Y-84416372D01*
X175206846Y-84256846D01*
X175366372Y-84069299D01*
X175366379Y-84069289D01*
X175493755Y-83858585D01*
X175585684Y-83630172D01*
X175585686Y-83630165D01*
X175639782Y-83389968D01*
X175639784Y-83389958D01*
X175649999Y-83245268D01*
X175650000Y-83245266D01*
X175650000Y-82400000D01*
X174427231Y-82400000D01*
X174450000Y-82256247D01*
X174450000Y-82043753D01*
X174427231Y-81900000D01*
X175650000Y-81900000D01*
X175650000Y-81054734D01*
X175649999Y-81054731D01*
X175639784Y-80910041D01*
X175639782Y-80910031D01*
X175585686Y-80669834D01*
X175585684Y-80669827D01*
X175493755Y-80441414D01*
X175366379Y-80230710D01*
X175366372Y-80230700D01*
X175206846Y-80043153D01*
X175019299Y-79883627D01*
X175019289Y-79883620D01*
X174808585Y-79756244D01*
X174580172Y-79664315D01*
X174580165Y-79664313D01*
X174339968Y-79610217D01*
X174339958Y-79610215D01*
X174195268Y-79600000D01*
X173350000Y-79600000D01*
X173350000Y-80822768D01*
X173206247Y-80800000D01*
X172993753Y-80800000D01*
X172850000Y-80822768D01*
X172850000Y-79600000D01*
X172004731Y-79600000D01*
X171860041Y-79610215D01*
X171860031Y-79610217D01*
X171619834Y-79664313D01*
X171619827Y-79664315D01*
X171391414Y-79756244D01*
X171180710Y-79883620D01*
X171180700Y-79883627D01*
X170993153Y-80043153D01*
X170833627Y-80230700D01*
X170833620Y-80230710D01*
X170706244Y-80441414D01*
X170614315Y-80669827D01*
X170614313Y-80669834D01*
X170560217Y-80910031D01*
X170560215Y-80910041D01*
X170550000Y-81054731D01*
X168203388Y-81054731D01*
X168174805Y-80995377D01*
X168135778Y-80914336D01*
X168126083Y-80898906D01*
X167983366Y-80671773D01*
X167804757Y-80447805D01*
X167602195Y-80245243D01*
X167378227Y-80066634D01*
X167135669Y-79914225D01*
X167135666Y-79914223D01*
X166877579Y-79789935D01*
X166877565Y-79789929D01*
X166607193Y-79695321D01*
X166607181Y-79695317D01*
X166327891Y-79631572D01*
X166327892Y-79631572D01*
X166043237Y-79599500D01*
X166043233Y-79599500D01*
X165756767Y-79599500D01*
X165756762Y-79599500D01*
X165472108Y-79631572D01*
X165192818Y-79695317D01*
X165192806Y-79695321D01*
X164922434Y-79789929D01*
X164922420Y-79789935D01*
X164664333Y-79914223D01*
X164421774Y-80066633D01*
X164197805Y-80245242D01*
X163995242Y-80447805D01*
X163816633Y-80671774D01*
X163664223Y-80914333D01*
X163539935Y-81172420D01*
X163539929Y-81172434D01*
X163445321Y-81442806D01*
X163445317Y-81442818D01*
X163381572Y-81722108D01*
X163349500Y-82006762D01*
X157444141Y-82006762D01*
X157427231Y-81900000D01*
X158650000Y-81900000D01*
X158650000Y-81054734D01*
X158649999Y-81054731D01*
X158639784Y-80910041D01*
X158639782Y-80910031D01*
X158585686Y-80669834D01*
X158585684Y-80669827D01*
X158493755Y-80441414D01*
X158366379Y-80230710D01*
X158366372Y-80230700D01*
X158206846Y-80043153D01*
X158019299Y-79883627D01*
X158019289Y-79883620D01*
X157808585Y-79756244D01*
X157580172Y-79664315D01*
X157580165Y-79664313D01*
X157339968Y-79610217D01*
X157339958Y-79610215D01*
X157195268Y-79600000D01*
X156350000Y-79600000D01*
X156350000Y-80822768D01*
X156206247Y-80800000D01*
X155993753Y-80800000D01*
X155850000Y-80822768D01*
X155850000Y-79600000D01*
X155004731Y-79600000D01*
X154860041Y-79610215D01*
X154860031Y-79610217D01*
X154619834Y-79664313D01*
X154619827Y-79664315D01*
X154391414Y-79756244D01*
X154180710Y-79883620D01*
X154180700Y-79883627D01*
X153993153Y-80043153D01*
X153833627Y-80230700D01*
X153833620Y-80230710D01*
X153706244Y-80441414D01*
X153614315Y-80669827D01*
X153614313Y-80669834D01*
X153560217Y-80910031D01*
X153560215Y-80910041D01*
X153550000Y-81054731D01*
X151203388Y-81054731D01*
X151174805Y-80995377D01*
X151135778Y-80914336D01*
X151126083Y-80898906D01*
X150983366Y-80671773D01*
X150804757Y-80447805D01*
X150602195Y-80245243D01*
X150378227Y-80066634D01*
X150135669Y-79914225D01*
X150135666Y-79914223D01*
X149877579Y-79789935D01*
X149877565Y-79789929D01*
X149607193Y-79695321D01*
X149607181Y-79695317D01*
X149327891Y-79631572D01*
X149327892Y-79631572D01*
X149043237Y-79599500D01*
X149043233Y-79599500D01*
X148756767Y-79599500D01*
X148756762Y-79599500D01*
X148472108Y-79631572D01*
X148192818Y-79695317D01*
X148192806Y-79695321D01*
X147922434Y-79789929D01*
X147922420Y-79789935D01*
X147664333Y-79914223D01*
X147421774Y-80066633D01*
X147197805Y-80245242D01*
X146995242Y-80447805D01*
X146816633Y-80671774D01*
X146664223Y-80914333D01*
X146539935Y-81172420D01*
X146539929Y-81172434D01*
X146445321Y-81442806D01*
X146445317Y-81442818D01*
X146381572Y-81722108D01*
X146349500Y-82006762D01*
X140444141Y-82006762D01*
X140427231Y-81900000D01*
X141650000Y-81900000D01*
X141650000Y-81054734D01*
X141649999Y-81054731D01*
X141639784Y-80910041D01*
X141639782Y-80910031D01*
X141585686Y-80669834D01*
X141585684Y-80669827D01*
X141493755Y-80441414D01*
X141366379Y-80230710D01*
X141366372Y-80230700D01*
X141206846Y-80043153D01*
X141019299Y-79883627D01*
X141019289Y-79883620D01*
X140808585Y-79756244D01*
X140580172Y-79664315D01*
X140580165Y-79664313D01*
X140339968Y-79610217D01*
X140339958Y-79610215D01*
X140195268Y-79600000D01*
X139350000Y-79600000D01*
X139350000Y-80822768D01*
X139206247Y-80800000D01*
X138993753Y-80800000D01*
X138850000Y-80822768D01*
X138850000Y-79600000D01*
X138004731Y-79600000D01*
X137860041Y-79610215D01*
X137860031Y-79610217D01*
X137619834Y-79664313D01*
X137619827Y-79664315D01*
X137391414Y-79756244D01*
X137180710Y-79883620D01*
X137180700Y-79883627D01*
X136993153Y-80043153D01*
X136833627Y-80230700D01*
X136833620Y-80230710D01*
X136706244Y-80441414D01*
X136614315Y-80669827D01*
X136614313Y-80669834D01*
X136560217Y-80910031D01*
X136560215Y-80910041D01*
X136550000Y-81054731D01*
X134203388Y-81054731D01*
X134174805Y-80995377D01*
X134135778Y-80914336D01*
X134126083Y-80898906D01*
X133983366Y-80671773D01*
X133804757Y-80447805D01*
X133602195Y-80245243D01*
X133378227Y-80066634D01*
X133135669Y-79914225D01*
X133135666Y-79914223D01*
X132877579Y-79789935D01*
X132877565Y-79789929D01*
X132607193Y-79695321D01*
X132607181Y-79695317D01*
X132327891Y-79631572D01*
X132327892Y-79631572D01*
X132043237Y-79599500D01*
X132043233Y-79599500D01*
X131756767Y-79599500D01*
X131756762Y-79599500D01*
X131472108Y-79631572D01*
X131192818Y-79695317D01*
X131192806Y-79695321D01*
X130922434Y-79789929D01*
X130922420Y-79789935D01*
X130664333Y-79914223D01*
X130421774Y-80066633D01*
X130197805Y-80245242D01*
X129995242Y-80447805D01*
X129816633Y-80671774D01*
X129664223Y-80914333D01*
X129539935Y-81172420D01*
X129539929Y-81172434D01*
X129445321Y-81442806D01*
X129445317Y-81442818D01*
X129381572Y-81722108D01*
X129349500Y-82006762D01*
X119350500Y-82006762D01*
X119350500Y-75102135D01*
X127799500Y-75102135D01*
X127799500Y-77197870D01*
X127799501Y-77197876D01*
X127805908Y-77257483D01*
X127856202Y-77392328D01*
X127856206Y-77392335D01*
X127942452Y-77507544D01*
X127942455Y-77507547D01*
X128057664Y-77593793D01*
X128057671Y-77593797D01*
X128192517Y-77644091D01*
X128192516Y-77644091D01*
X128199444Y-77644835D01*
X128252127Y-77650500D01*
X129247872Y-77650499D01*
X129307483Y-77644091D01*
X129442331Y-77593796D01*
X129557546Y-77507546D01*
X129643796Y-77392331D01*
X129694091Y-77257483D01*
X129700500Y-77197873D01*
X129700499Y-75102135D01*
X141299500Y-75102135D01*
X141299500Y-77197870D01*
X141299501Y-77197876D01*
X141305908Y-77257483D01*
X141356202Y-77392328D01*
X141356206Y-77392335D01*
X141442452Y-77507544D01*
X141442455Y-77507547D01*
X141557664Y-77593793D01*
X141557671Y-77593797D01*
X141692517Y-77644091D01*
X141692516Y-77644091D01*
X141699444Y-77644835D01*
X141752127Y-77650500D01*
X142747872Y-77650499D01*
X142807483Y-77644091D01*
X142942331Y-77593796D01*
X143057546Y-77507546D01*
X143143796Y-77392331D01*
X143194091Y-77257483D01*
X143200500Y-77197873D01*
X143200499Y-75102135D01*
X144799500Y-75102135D01*
X144799500Y-77197870D01*
X144799501Y-77197876D01*
X144805908Y-77257483D01*
X144856202Y-77392328D01*
X144856206Y-77392335D01*
X144942452Y-77507544D01*
X144942455Y-77507547D01*
X145057664Y-77593793D01*
X145057671Y-77593797D01*
X145192517Y-77644091D01*
X145192516Y-77644091D01*
X145199444Y-77644835D01*
X145252127Y-77650500D01*
X146247872Y-77650499D01*
X146307483Y-77644091D01*
X146442331Y-77593796D01*
X146557546Y-77507546D01*
X146643796Y-77392331D01*
X146694091Y-77257483D01*
X146700500Y-77197873D01*
X146700499Y-75102135D01*
X158299500Y-75102135D01*
X158299500Y-77197870D01*
X158299501Y-77197876D01*
X158305908Y-77257483D01*
X158356202Y-77392328D01*
X158356206Y-77392335D01*
X158442452Y-77507544D01*
X158442455Y-77507547D01*
X158557664Y-77593793D01*
X158557671Y-77593797D01*
X158692517Y-77644091D01*
X158692516Y-77644091D01*
X158699444Y-77644835D01*
X158752127Y-77650500D01*
X159747872Y-77650499D01*
X159807483Y-77644091D01*
X159942331Y-77593796D01*
X160057546Y-77507546D01*
X160143796Y-77392331D01*
X160194091Y-77257483D01*
X160200500Y-77197873D01*
X160200499Y-75102135D01*
X161799500Y-75102135D01*
X161799500Y-77197870D01*
X161799501Y-77197876D01*
X161805908Y-77257483D01*
X161856202Y-77392328D01*
X161856206Y-77392335D01*
X161942452Y-77507544D01*
X161942455Y-77507547D01*
X162057664Y-77593793D01*
X162057671Y-77593797D01*
X162192517Y-77644091D01*
X162192516Y-77644091D01*
X162199444Y-77644835D01*
X162252127Y-77650500D01*
X163247872Y-77650499D01*
X163307483Y-77644091D01*
X163442331Y-77593796D01*
X163557546Y-77507546D01*
X163643796Y-77392331D01*
X163694091Y-77257483D01*
X163700500Y-77197873D01*
X163700499Y-75102135D01*
X175299500Y-75102135D01*
X175299500Y-77197870D01*
X175299501Y-77197876D01*
X175305908Y-77257483D01*
X175356202Y-77392328D01*
X175356206Y-77392335D01*
X175442452Y-77507544D01*
X175442455Y-77507547D01*
X175557664Y-77593793D01*
X175557671Y-77593797D01*
X175692517Y-77644091D01*
X175692516Y-77644091D01*
X175699444Y-77644835D01*
X175752127Y-77650500D01*
X176747872Y-77650499D01*
X176807483Y-77644091D01*
X176942331Y-77593796D01*
X177057546Y-77507546D01*
X177143796Y-77392331D01*
X177194091Y-77257483D01*
X177200500Y-77197873D01*
X177200499Y-75102128D01*
X177194091Y-75042517D01*
X177143796Y-74907669D01*
X177143795Y-74907668D01*
X177143793Y-74907664D01*
X177057547Y-74792455D01*
X177057544Y-74792452D01*
X176942335Y-74706206D01*
X176942328Y-74706202D01*
X176807482Y-74655908D01*
X176807483Y-74655908D01*
X176747883Y-74649501D01*
X176747881Y-74649500D01*
X176747873Y-74649500D01*
X176747864Y-74649500D01*
X175752129Y-74649500D01*
X175752123Y-74649501D01*
X175692516Y-74655908D01*
X175557671Y-74706202D01*
X175557664Y-74706206D01*
X175442455Y-74792452D01*
X175442452Y-74792455D01*
X175356206Y-74907664D01*
X175356202Y-74907671D01*
X175305908Y-75042517D01*
X175299501Y-75102116D01*
X175299501Y-75102123D01*
X175299500Y-75102135D01*
X163700499Y-75102135D01*
X163700499Y-75102128D01*
X163694091Y-75042517D01*
X163643796Y-74907669D01*
X163643795Y-74907668D01*
X163643793Y-74907664D01*
X163557547Y-74792455D01*
X163557544Y-74792452D01*
X163442335Y-74706206D01*
X163442328Y-74706202D01*
X163307482Y-74655908D01*
X163307483Y-74655908D01*
X163247883Y-74649501D01*
X163247881Y-74649500D01*
X163247873Y-74649500D01*
X163247864Y-74649500D01*
X162252129Y-74649500D01*
X162252123Y-74649501D01*
X162192516Y-74655908D01*
X162057671Y-74706202D01*
X162057664Y-74706206D01*
X161942455Y-74792452D01*
X161942452Y-74792455D01*
X161856206Y-74907664D01*
X161856202Y-74907671D01*
X161805908Y-75042517D01*
X161799501Y-75102116D01*
X161799501Y-75102123D01*
X161799500Y-75102135D01*
X160200499Y-75102135D01*
X160200499Y-75102128D01*
X160194091Y-75042517D01*
X160143796Y-74907669D01*
X160143795Y-74907668D01*
X160143793Y-74907664D01*
X160057547Y-74792455D01*
X160057544Y-74792452D01*
X159942335Y-74706206D01*
X159942328Y-74706202D01*
X159807482Y-74655908D01*
X159807483Y-74655908D01*
X159747883Y-74649501D01*
X159747881Y-74649500D01*
X159747873Y-74649500D01*
X159747864Y-74649500D01*
X158752129Y-74649500D01*
X158752123Y-74649501D01*
X158692516Y-74655908D01*
X158557671Y-74706202D01*
X158557664Y-74706206D01*
X158442455Y-74792452D01*
X158442452Y-74792455D01*
X158356206Y-74907664D01*
X158356202Y-74907671D01*
X158305908Y-75042517D01*
X158299501Y-75102116D01*
X158299501Y-75102123D01*
X158299500Y-75102135D01*
X146700499Y-75102135D01*
X146700499Y-75102128D01*
X146694091Y-75042517D01*
X146643796Y-74907669D01*
X146643795Y-74907668D01*
X146643793Y-74907664D01*
X146557547Y-74792455D01*
X146557544Y-74792452D01*
X146442335Y-74706206D01*
X146442328Y-74706202D01*
X146307482Y-74655908D01*
X146307483Y-74655908D01*
X146247883Y-74649501D01*
X146247881Y-74649500D01*
X146247873Y-74649500D01*
X146247864Y-74649500D01*
X145252129Y-74649500D01*
X145252123Y-74649501D01*
X145192516Y-74655908D01*
X145057671Y-74706202D01*
X145057664Y-74706206D01*
X144942455Y-74792452D01*
X144942452Y-74792455D01*
X144856206Y-74907664D01*
X144856202Y-74907671D01*
X144805908Y-75042517D01*
X144799501Y-75102116D01*
X144799501Y-75102123D01*
X144799500Y-75102135D01*
X143200499Y-75102135D01*
X143200499Y-75102128D01*
X143194091Y-75042517D01*
X143143796Y-74907669D01*
X143143795Y-74907668D01*
X143143793Y-74907664D01*
X143057547Y-74792455D01*
X143057544Y-74792452D01*
X142942335Y-74706206D01*
X142942328Y-74706202D01*
X142807482Y-74655908D01*
X142807483Y-74655908D01*
X142747883Y-74649501D01*
X142747881Y-74649500D01*
X142747873Y-74649500D01*
X142747864Y-74649500D01*
X141752129Y-74649500D01*
X141752123Y-74649501D01*
X141692516Y-74655908D01*
X141557671Y-74706202D01*
X141557664Y-74706206D01*
X141442455Y-74792452D01*
X141442452Y-74792455D01*
X141356206Y-74907664D01*
X141356202Y-74907671D01*
X141305908Y-75042517D01*
X141299501Y-75102116D01*
X141299501Y-75102123D01*
X141299500Y-75102135D01*
X129700499Y-75102135D01*
X129700499Y-75102128D01*
X129694091Y-75042517D01*
X129643796Y-74907669D01*
X129643795Y-74907668D01*
X129643793Y-74907664D01*
X129557547Y-74792455D01*
X129557544Y-74792452D01*
X129442335Y-74706206D01*
X129442328Y-74706202D01*
X129307482Y-74655908D01*
X129307483Y-74655908D01*
X129247883Y-74649501D01*
X129247881Y-74649500D01*
X129247873Y-74649500D01*
X129247864Y-74649500D01*
X128252129Y-74649500D01*
X128252123Y-74649501D01*
X128192516Y-74655908D01*
X128057671Y-74706202D01*
X128057664Y-74706206D01*
X127942455Y-74792452D01*
X127942452Y-74792455D01*
X127856206Y-74907664D01*
X127856202Y-74907671D01*
X127805908Y-75042517D01*
X127799501Y-75102116D01*
X127799501Y-75102123D01*
X127799500Y-75102135D01*
X119350500Y-75102135D01*
X119350500Y-65474500D01*
X119370185Y-65407461D01*
X119422989Y-65361706D01*
X119474500Y-65350500D01*
X188225500Y-65350500D01*
X188292539Y-65370185D01*
G37*
%TD.AperFunction*%
%TD*%
%TA.AperFunction,Conductor*%
%TO.N,12Va*%
G36*
X180937655Y-119210792D02*
G01*
X180943696Y-119217402D01*
X180944165Y-119219070D01*
X181000530Y-119497680D01*
X181000530Y-119502320D01*
X180944165Y-119780929D01*
X180939165Y-119788358D01*
X180930377Y-119790077D01*
X180928709Y-119789608D01*
X180413476Y-119602796D01*
X180406866Y-119596755D01*
X180405764Y-119591797D01*
X180405764Y-119408202D01*
X180409191Y-119399929D01*
X180413473Y-119397204D01*
X180928711Y-119210391D01*
X180937655Y-119210792D01*
G37*
%TD.AperFunction*%
%TD*%
%TA.AperFunction,Conductor*%
%TO.N,12Va*%
G36*
X176254344Y-118844116D02*
G01*
X176255193Y-118845626D01*
X176327080Y-118999293D01*
X176446791Y-119255193D01*
X176487422Y-119342046D01*
X176487823Y-119350992D01*
X176485097Y-119355277D01*
X176355277Y-119485097D01*
X176347004Y-119488524D01*
X176342047Y-119487422D01*
X176191428Y-119416961D01*
X175845626Y-119255193D01*
X175839585Y-119248583D01*
X175839986Y-119239637D01*
X175840835Y-119238127D01*
X175997985Y-119001263D01*
X176001263Y-118997985D01*
X176238127Y-118840834D01*
X176246915Y-118839116D01*
X176254344Y-118844116D01*
G37*
%TD.AperFunction*%
%TD*%
%TA.AperFunction,Conductor*%
%TO.N,5Va*%
G36*
X180754344Y-110344116D02*
G01*
X180755193Y-110345626D01*
X180827080Y-110499293D01*
X180946791Y-110755193D01*
X180987422Y-110842046D01*
X180987823Y-110850992D01*
X180985097Y-110855277D01*
X180855277Y-110985097D01*
X180847004Y-110988524D01*
X180842047Y-110987422D01*
X180691428Y-110916961D01*
X180345626Y-110755193D01*
X180339585Y-110748583D01*
X180339986Y-110739637D01*
X180340835Y-110738127D01*
X180497985Y-110501263D01*
X180501263Y-110497985D01*
X180738127Y-110340834D01*
X180746915Y-110339116D01*
X180754344Y-110344116D01*
G37*
%TD.AperFunction*%
%TD*%
%TA.AperFunction,Conductor*%
%TO.N,5Va*%
G36*
X184657949Y-115512576D02*
G01*
X184968713Y-115657953D01*
X185154373Y-115744806D01*
X185160414Y-115751416D01*
X185160013Y-115760362D01*
X185159164Y-115761872D01*
X185002015Y-115998734D01*
X184998734Y-116002015D01*
X184761872Y-116159164D01*
X184753084Y-116160883D01*
X184745655Y-116155883D01*
X184744806Y-116154373D01*
X184671997Y-115998734D01*
X184512576Y-115657951D01*
X184512176Y-115649007D01*
X184514900Y-115644724D01*
X184644723Y-115514901D01*
X184652995Y-115511475D01*
X184657949Y-115512576D01*
G37*
%TD.AperFunction*%
%TD*%
%TA.AperFunction,Conductor*%
%TO.N,3V3*%
G36*
X135771282Y-140190389D02*
G01*
X136286525Y-140377204D01*
X136293134Y-140383244D01*
X136294236Y-140388202D01*
X136294236Y-140571797D01*
X136290809Y-140580070D01*
X136286524Y-140582796D01*
X135771290Y-140769608D01*
X135762344Y-140769207D01*
X135756303Y-140762597D01*
X135755837Y-140760939D01*
X135699469Y-140482318D01*
X135699469Y-140477680D01*
X135755835Y-140199067D01*
X135760834Y-140191641D01*
X135769622Y-140189922D01*
X135771282Y-140190389D01*
G37*
%TD.AperFunction*%
%TD*%
%TA.AperFunction,Conductor*%
%TO.N,3V3*%
G36*
X168579326Y-140319490D02*
G01*
X168583628Y-140326419D01*
X168640030Y-140605210D01*
X168638311Y-140613998D01*
X168638272Y-140614057D01*
X168479990Y-140849530D01*
X168472531Y-140854484D01*
X168463753Y-140852713D01*
X168463556Y-140852578D01*
X168080345Y-140583494D01*
X168075544Y-140575935D01*
X168075369Y-140573919D01*
X168075369Y-140390308D01*
X168078796Y-140382035D01*
X168085593Y-140378702D01*
X168570689Y-140317132D01*
X168579326Y-140319490D01*
G37*
%TD.AperFunction*%
%TD*%
%TA.AperFunction,Conductor*%
%TO.N,Net-(U4-BOOT)*%
G36*
X142100070Y-107909191D02*
G01*
X142102796Y-107913476D01*
X142289608Y-108428709D01*
X142289207Y-108437655D01*
X142282597Y-108443696D01*
X142280929Y-108444165D01*
X142002320Y-108500530D01*
X141997680Y-108500530D01*
X141719070Y-108444165D01*
X141711641Y-108439165D01*
X141709922Y-108430377D01*
X141710387Y-108428720D01*
X141897204Y-107913476D01*
X141903245Y-107906866D01*
X141908203Y-107905764D01*
X142091797Y-107905764D01*
X142100070Y-107909191D01*
G37*
%TD.AperFunction*%
%TD*%
%TA.AperFunction,Conductor*%
%TO.N,Net-(U4-BOOT)*%
G36*
X142280930Y-104555835D02*
G01*
X142288358Y-104560834D01*
X142290077Y-104569622D01*
X142289608Y-104571290D01*
X142102796Y-105086524D01*
X142096755Y-105093134D01*
X142091797Y-105094236D01*
X141908203Y-105094236D01*
X141899930Y-105090809D01*
X141897204Y-105086524D01*
X141849544Y-104955078D01*
X141710391Y-104571288D01*
X141710792Y-104562344D01*
X141717402Y-104556303D01*
X141719056Y-104555837D01*
X141997682Y-104499469D01*
X142002318Y-104499469D01*
X142280930Y-104555835D01*
G37*
%TD.AperFunction*%
%TD*%
%TA.AperFunction,Conductor*%
%TO.N,Net-(U4-FB)*%
G36*
X153260362Y-117339986D02*
G01*
X153261872Y-117340835D01*
X153498734Y-117497984D01*
X153502015Y-117501265D01*
X153659164Y-117738127D01*
X153660883Y-117746915D01*
X153655883Y-117754344D01*
X153654373Y-117755193D01*
X153157953Y-117987422D01*
X153149007Y-117987823D01*
X153144722Y-117985097D01*
X153014902Y-117855277D01*
X153011475Y-117847004D01*
X153012575Y-117842051D01*
X153244806Y-117345625D01*
X153251416Y-117339585D01*
X153260362Y-117339986D01*
G37*
%TD.AperFunction*%
%TD*%
%TA.AperFunction,Conductor*%
%TO.N,Net-(U4-FB)*%
G36*
X139071282Y-130210389D02*
G01*
X139586525Y-130397204D01*
X139593134Y-130403244D01*
X139594236Y-130408202D01*
X139594236Y-130591797D01*
X139590809Y-130600070D01*
X139586524Y-130602796D01*
X139071290Y-130789608D01*
X139062344Y-130789207D01*
X139056303Y-130782597D01*
X139055837Y-130780939D01*
X138999469Y-130502318D01*
X138999469Y-130497680D01*
X139055835Y-130219067D01*
X139060834Y-130211641D01*
X139069622Y-130209922D01*
X139071282Y-130210389D01*
G37*
%TD.AperFunction*%
%TD*%
%TA.AperFunction,Conductor*%
%TO.N,Net-(Q2-G)*%
G36*
X147437655Y-92710792D02*
G01*
X147443696Y-92717402D01*
X147444165Y-92719070D01*
X147500530Y-92997680D01*
X147500530Y-93002320D01*
X147444165Y-93280929D01*
X147439165Y-93288358D01*
X147430377Y-93290077D01*
X147428709Y-93289608D01*
X146913476Y-93102796D01*
X146906866Y-93096755D01*
X146905764Y-93091797D01*
X146905764Y-92908202D01*
X146909191Y-92899929D01*
X146913473Y-92897204D01*
X147428711Y-92710391D01*
X147437655Y-92710792D01*
G37*
%TD.AperFunction*%
%TD*%
%TA.AperFunction,Conductor*%
%TO.N,Net-(Q2-G)*%
G36*
X145657949Y-112012576D02*
G01*
X145968713Y-112157953D01*
X146154373Y-112244806D01*
X146160414Y-112251416D01*
X146160013Y-112260362D01*
X146159164Y-112261872D01*
X146002015Y-112498734D01*
X145998734Y-112502015D01*
X145761872Y-112659164D01*
X145753084Y-112660883D01*
X145745655Y-112655883D01*
X145744806Y-112654373D01*
X145671997Y-112498734D01*
X145512576Y-112157951D01*
X145512176Y-112149007D01*
X145514900Y-112144724D01*
X145644723Y-112014901D01*
X145652995Y-112011475D01*
X145657949Y-112012576D01*
G37*
%TD.AperFunction*%
%TD*%
M02*
