%TF.GenerationSoftware,KiCad,Pcbnew,9.0.3*%
%TF.CreationDate,2025-08-18T22:44:32-04:00*%
%TF.ProjectId,main,6d61696e-2e6b-4696-9361-645f70636258,rev?*%
%TF.SameCoordinates,Original*%
%TF.FileFunction,Paste,Bot*%
%TF.FilePolarity,Positive*%
%FSLAX46Y46*%
G04 Gerber Fmt 4.6, Leading zero omitted, Abs format (unit mm)*
G04 Created by KiCad (PCBNEW 9.0.3) date 2025-08-18 22:44:32*
%MOMM*%
%LPD*%
G01*
G04 APERTURE LIST*
G04 Aperture macros list*
%AMRoundRect*
0 Rectangle with rounded corners*
0 $1 Rounding radius*
0 $2 $3 $4 $5 $6 $7 $8 $9 X,Y pos of 4 corners*
0 Add a 4 corners polygon primitive as box body*
4,1,4,$2,$3,$4,$5,$6,$7,$8,$9,$2,$3,0*
0 Add four circle primitives for the rounded corners*
1,1,$1+$1,$2,$3*
1,1,$1+$1,$4,$5*
1,1,$1+$1,$6,$7*
1,1,$1+$1,$8,$9*
0 Add four rect primitives between the rounded corners*
20,1,$1+$1,$2,$3,$4,$5,0*
20,1,$1+$1,$4,$5,$6,$7,0*
20,1,$1+$1,$6,$7,$8,$9,0*
20,1,$1+$1,$8,$9,$2,$3,0*%
G04 Aperture macros list end*
%ADD10RoundRect,0.250000X-0.475000X0.337500X-0.475000X-0.337500X0.475000X-0.337500X0.475000X0.337500X0*%
%ADD11RoundRect,0.100000X0.637500X0.100000X-0.637500X0.100000X-0.637500X-0.100000X0.637500X-0.100000X0*%
%ADD12RoundRect,0.160000X-0.197500X-0.160000X0.197500X-0.160000X0.197500X0.160000X-0.197500X0.160000X0*%
%ADD13RoundRect,0.237500X0.237500X-0.300000X0.237500X0.300000X-0.237500X0.300000X-0.237500X-0.300000X0*%
%ADD14R,1.100000X0.250000*%
%ADD15RoundRect,0.100000X0.100000X-0.637500X0.100000X0.637500X-0.100000X0.637500X-0.100000X-0.637500X0*%
%ADD16RoundRect,0.250000X-0.650000X0.800000X-0.650000X-0.800000X0.650000X-0.800000X0.650000X0.800000X0*%
%ADD17RoundRect,0.237500X0.237500X-0.250000X0.237500X0.250000X-0.237500X0.250000X-0.237500X-0.250000X0*%
%ADD18RoundRect,0.237500X-0.237500X0.250000X-0.237500X-0.250000X0.237500X-0.250000X0.237500X0.250000X0*%
%ADD19RoundRect,0.237500X-0.300000X-0.237500X0.300000X-0.237500X0.300000X0.237500X-0.300000X0.237500X0*%
%ADD20R,1.300000X0.300000*%
%ADD21R,2.200000X1.800000*%
%ADD22RoundRect,0.237500X-0.237500X0.300000X-0.237500X-0.300000X0.237500X-0.300000X0.237500X0.300000X0*%
%ADD23RoundRect,0.150000X-0.150000X0.825000X-0.150000X-0.825000X0.150000X-0.825000X0.150000X0.825000X0*%
%ADD24RoundRect,0.155000X0.155000X-0.212500X0.155000X0.212500X-0.155000X0.212500X-0.155000X-0.212500X0*%
G04 APERTURE END LIST*
D10*
%TO.C,C4*%
X157695000Y-78040000D03*
X157695000Y-80115000D03*
%TD*%
D11*
%TO.C,U6*%
X153342500Y-55217500D03*
X153342500Y-55867500D03*
X153342500Y-56517500D03*
X153342500Y-57167500D03*
X153342500Y-57817500D03*
X153342500Y-58467500D03*
X153342500Y-59117500D03*
X153342500Y-59767500D03*
X153342500Y-60417500D03*
X153342500Y-61067500D03*
X147617500Y-61067500D03*
X147617500Y-60417500D03*
X147617500Y-59767500D03*
X147617500Y-59117500D03*
X147617500Y-58467500D03*
X147617500Y-57817500D03*
X147617500Y-57167500D03*
X147617500Y-56517500D03*
X147617500Y-55867500D03*
X147617500Y-55217500D03*
%TD*%
D12*
%TO.C,R7*%
X162142500Y-85500000D03*
X163337500Y-85500000D03*
%TD*%
D13*
%TO.C,C9*%
X163080000Y-59212500D03*
X163080000Y-57487500D03*
%TD*%
D14*
%TO.C,U4*%
X162180000Y-87250000D03*
X162180000Y-87750000D03*
X162180000Y-88250000D03*
X162180000Y-88750000D03*
X162180000Y-89250000D03*
X157880000Y-89250000D03*
X157880000Y-88750000D03*
X157880000Y-88250000D03*
X157880000Y-87750000D03*
X157880000Y-87250000D03*
%TD*%
D15*
%TO.C,U5*%
X155050000Y-83760000D03*
X154400000Y-83760000D03*
X153750000Y-83760000D03*
X153100000Y-83760000D03*
X152450000Y-83760000D03*
X151800000Y-83760000D03*
X151150000Y-83760000D03*
X150500000Y-83760000D03*
X149850000Y-83760000D03*
X149200000Y-83760000D03*
X148550000Y-83760000D03*
X147900000Y-83760000D03*
X147250000Y-83760000D03*
X146600000Y-83760000D03*
X146600000Y-78035000D03*
X147250000Y-78035000D03*
X147900000Y-78035000D03*
X148550000Y-78035000D03*
X149200000Y-78035000D03*
X149850000Y-78035000D03*
X150500000Y-78035000D03*
X151150000Y-78035000D03*
X151800000Y-78035000D03*
X152450000Y-78035000D03*
X153100000Y-78035000D03*
X153750000Y-78035000D03*
X154400000Y-78035000D03*
X155050000Y-78035000D03*
%TD*%
D16*
%TO.C,Y1*%
X160270000Y-57500000D03*
X160270000Y-60400000D03*
X157970000Y-60400000D03*
X157970000Y-57500000D03*
%TD*%
D14*
%TO.C,U3*%
X170990000Y-87227500D03*
X170990000Y-87727500D03*
X170990000Y-88227500D03*
X170990000Y-88727500D03*
X170990000Y-89227500D03*
X166690000Y-89227500D03*
X166690000Y-88727500D03*
X166690000Y-88227500D03*
X166690000Y-87727500D03*
X166690000Y-87227500D03*
%TD*%
D17*
%TO.C,R5*%
X152480000Y-72250000D03*
X152480000Y-70425000D03*
%TD*%
D18*
%TO.C,R4*%
X148690000Y-70407500D03*
X148690000Y-72232500D03*
%TD*%
D19*
%TO.C,C10*%
X157967500Y-63230000D03*
X159692500Y-63230000D03*
%TD*%
D20*
%TO.C,J4*%
X202420000Y-83640000D03*
X202420000Y-84140000D03*
X202420000Y-84640000D03*
X202420000Y-85140000D03*
X202420000Y-85640000D03*
X202420000Y-86140000D03*
X202420000Y-86640000D03*
X202420000Y-87140000D03*
X202420000Y-87640000D03*
X202420000Y-88140000D03*
X202420000Y-88640000D03*
X202420000Y-89140000D03*
X202420000Y-89640000D03*
X202420000Y-90140000D03*
X202420000Y-90640000D03*
X202420000Y-91140000D03*
X202420000Y-91640000D03*
X202420000Y-92140000D03*
X202420000Y-92640000D03*
X202420000Y-93140000D03*
X202420000Y-93640000D03*
X202420000Y-94140000D03*
D21*
X205670000Y-81740000D03*
X205670000Y-96040000D03*
%TD*%
D22*
%TO.C,C8*%
X150600000Y-72292500D03*
X150600000Y-74017500D03*
%TD*%
D23*
%TO.C,U7*%
X148562500Y-63287500D03*
X149832500Y-63287500D03*
X151102500Y-63287500D03*
X152372500Y-63287500D03*
X152372500Y-68237500D03*
X151102500Y-68237500D03*
X149832500Y-68237500D03*
X148562500Y-68237500D03*
%TD*%
D24*
%TO.C,C2*%
X165110000Y-88245000D03*
X165110000Y-87110000D03*
%TD*%
%TO.C,C3*%
X156370000Y-88257500D03*
X156370000Y-87122500D03*
%TD*%
D12*
%TO.C,R6*%
X170932500Y-85517500D03*
X172127500Y-85517500D03*
%TD*%
D20*
%TO.C,J3*%
X202420000Y-63240000D03*
X202420000Y-63740000D03*
X202420000Y-64240000D03*
X202420000Y-64740000D03*
X202420000Y-65240000D03*
X202420000Y-65740000D03*
X202420000Y-66240000D03*
X202420000Y-66740000D03*
X202420000Y-67240000D03*
X202420000Y-67740000D03*
X202420000Y-68240000D03*
X202420000Y-68740000D03*
X202420000Y-69240000D03*
X202420000Y-69740000D03*
X202420000Y-70240000D03*
X202420000Y-70740000D03*
X202420000Y-71240000D03*
X202420000Y-71740000D03*
X202420000Y-72240000D03*
X202420000Y-72740000D03*
X202420000Y-73240000D03*
X202420000Y-73740000D03*
D21*
X205670000Y-61340000D03*
X205670000Y-75640000D03*
%TD*%
M02*
