%TF.GenerationSoftware,KiCad,Pcbnew,9.0.3*%
%TF.CreationDate,2025-08-18T22:44:32-04:00*%
%TF.ProjectId,main,6d61696e-2e6b-4696-9361-645f70636258,rev?*%
%TF.SameCoordinates,Original*%
%TF.FileFunction,Legend,Bot*%
%TF.FilePolarity,Positive*%
%FSLAX46Y46*%
G04 Gerber Fmt 4.6, Leading zero omitted, Abs format (unit mm)*
G04 Created by KiCad (PCBNEW 9.0.3) date 2025-08-18 22:44:32*
%MOMM*%
%LPD*%
G01*
G04 APERTURE LIST*
%ADD10C,0.100000*%
%ADD11C,0.300000*%
%ADD12C,0.150000*%
%ADD13C,0.508000*%
%ADD14C,0.120000*%
G04 APERTURE END LIST*
D10*
X141520000Y-83830000D02*
X143780000Y-81050000D01*
D11*
X174165489Y-46495282D02*
X174665489Y-46495282D01*
X174665489Y-47280996D02*
X174665489Y-45780996D01*
X174665489Y-45780996D02*
X173951203Y-45780996D01*
X172594060Y-47280996D02*
X173451203Y-47280996D01*
X173022632Y-47280996D02*
X173022632Y-45780996D01*
X173022632Y-45780996D02*
X173165489Y-45995282D01*
X173165489Y-45995282D02*
X173308346Y-46138139D01*
X173308346Y-46138139D02*
X173451203Y-46209568D01*
X171094061Y-47138139D02*
X171165489Y-47209568D01*
X171165489Y-47209568D02*
X171379775Y-47280996D01*
X171379775Y-47280996D02*
X171522632Y-47280996D01*
X171522632Y-47280996D02*
X171736918Y-47209568D01*
X171736918Y-47209568D02*
X171879775Y-47066710D01*
X171879775Y-47066710D02*
X171951204Y-46923853D01*
X171951204Y-46923853D02*
X172022632Y-46638139D01*
X172022632Y-46638139D02*
X172022632Y-46423853D01*
X172022632Y-46423853D02*
X171951204Y-46138139D01*
X171951204Y-46138139D02*
X171879775Y-45995282D01*
X171879775Y-45995282D02*
X171736918Y-45852425D01*
X171736918Y-45852425D02*
X171522632Y-45780996D01*
X171522632Y-45780996D02*
X171379775Y-45780996D01*
X171379775Y-45780996D02*
X171165489Y-45852425D01*
X171165489Y-45852425D02*
X171094061Y-45923853D01*
X169808347Y-47280996D02*
X169808347Y-46495282D01*
X169808347Y-46495282D02*
X169879775Y-46352425D01*
X169879775Y-46352425D02*
X170022632Y-46280996D01*
X170022632Y-46280996D02*
X170308347Y-46280996D01*
X170308347Y-46280996D02*
X170451204Y-46352425D01*
X169808347Y-47209568D02*
X169951204Y-47280996D01*
X169951204Y-47280996D02*
X170308347Y-47280996D01*
X170308347Y-47280996D02*
X170451204Y-47209568D01*
X170451204Y-47209568D02*
X170522632Y-47066710D01*
X170522632Y-47066710D02*
X170522632Y-46923853D01*
X170522632Y-46923853D02*
X170451204Y-46780996D01*
X170451204Y-46780996D02*
X170308347Y-46709568D01*
X170308347Y-46709568D02*
X169951204Y-46709568D01*
X169951204Y-46709568D02*
X169808347Y-46638139D01*
X169094061Y-47280996D02*
X169094061Y-46280996D01*
X169094061Y-46566710D02*
X169022632Y-46423853D01*
X169022632Y-46423853D02*
X168951204Y-46352425D01*
X168951204Y-46352425D02*
X168808346Y-46280996D01*
X168808346Y-46280996D02*
X168665489Y-46280996D01*
X167022633Y-46709568D02*
X165879776Y-46709568D01*
X164022633Y-47280996D02*
X164022633Y-45780996D01*
X164022633Y-45780996D02*
X163522633Y-46852425D01*
X163522633Y-46852425D02*
X163022633Y-45780996D01*
X163022633Y-45780996D02*
X163022633Y-47280996D01*
X161665490Y-47280996D02*
X161665490Y-46495282D01*
X161665490Y-46495282D02*
X161736918Y-46352425D01*
X161736918Y-46352425D02*
X161879775Y-46280996D01*
X161879775Y-46280996D02*
X162165490Y-46280996D01*
X162165490Y-46280996D02*
X162308347Y-46352425D01*
X161665490Y-47209568D02*
X161808347Y-47280996D01*
X161808347Y-47280996D02*
X162165490Y-47280996D01*
X162165490Y-47280996D02*
X162308347Y-47209568D01*
X162308347Y-47209568D02*
X162379775Y-47066710D01*
X162379775Y-47066710D02*
X162379775Y-46923853D01*
X162379775Y-46923853D02*
X162308347Y-46780996D01*
X162308347Y-46780996D02*
X162165490Y-46709568D01*
X162165490Y-46709568D02*
X161808347Y-46709568D01*
X161808347Y-46709568D02*
X161665490Y-46638139D01*
X160951204Y-47280996D02*
X160951204Y-46280996D01*
X160951204Y-45780996D02*
X161022632Y-45852425D01*
X161022632Y-45852425D02*
X160951204Y-45923853D01*
X160951204Y-45923853D02*
X160879775Y-45852425D01*
X160879775Y-45852425D02*
X160951204Y-45780996D01*
X160951204Y-45780996D02*
X160951204Y-45923853D01*
X160236918Y-46280996D02*
X160236918Y-47280996D01*
X160236918Y-46423853D02*
X160165489Y-46352425D01*
X160165489Y-46352425D02*
X160022632Y-46280996D01*
X160022632Y-46280996D02*
X159808346Y-46280996D01*
X159808346Y-46280996D02*
X159665489Y-46352425D01*
X159665489Y-46352425D02*
X159594061Y-46495282D01*
X159594061Y-46495282D02*
X159594061Y-47280996D01*
X156879775Y-47138139D02*
X156951203Y-47209568D01*
X156951203Y-47209568D02*
X157165489Y-47280996D01*
X157165489Y-47280996D02*
X157308346Y-47280996D01*
X157308346Y-47280996D02*
X157522632Y-47209568D01*
X157522632Y-47209568D02*
X157665489Y-47066710D01*
X157665489Y-47066710D02*
X157736918Y-46923853D01*
X157736918Y-46923853D02*
X157808346Y-46638139D01*
X157808346Y-46638139D02*
X157808346Y-46423853D01*
X157808346Y-46423853D02*
X157736918Y-46138139D01*
X157736918Y-46138139D02*
X157665489Y-45995282D01*
X157665489Y-45995282D02*
X157522632Y-45852425D01*
X157522632Y-45852425D02*
X157308346Y-45780996D01*
X157308346Y-45780996D02*
X157165489Y-45780996D01*
X157165489Y-45780996D02*
X156951203Y-45852425D01*
X156951203Y-45852425D02*
X156879775Y-45923853D01*
X156022632Y-47280996D02*
X156165489Y-47209568D01*
X156165489Y-47209568D02*
X156236918Y-47138139D01*
X156236918Y-47138139D02*
X156308346Y-46995282D01*
X156308346Y-46995282D02*
X156308346Y-46566710D01*
X156308346Y-46566710D02*
X156236918Y-46423853D01*
X156236918Y-46423853D02*
X156165489Y-46352425D01*
X156165489Y-46352425D02*
X156022632Y-46280996D01*
X156022632Y-46280996D02*
X155808346Y-46280996D01*
X155808346Y-46280996D02*
X155665489Y-46352425D01*
X155665489Y-46352425D02*
X155594061Y-46423853D01*
X155594061Y-46423853D02*
X155522632Y-46566710D01*
X155522632Y-46566710D02*
X155522632Y-46995282D01*
X155522632Y-46995282D02*
X155594061Y-47138139D01*
X155594061Y-47138139D02*
X155665489Y-47209568D01*
X155665489Y-47209568D02*
X155808346Y-47280996D01*
X155808346Y-47280996D02*
X156022632Y-47280996D01*
X154879775Y-46280996D02*
X154879775Y-47280996D01*
X154879775Y-46423853D02*
X154808346Y-46352425D01*
X154808346Y-46352425D02*
X154665489Y-46280996D01*
X154665489Y-46280996D02*
X154451203Y-46280996D01*
X154451203Y-46280996D02*
X154308346Y-46352425D01*
X154308346Y-46352425D02*
X154236918Y-46495282D01*
X154236918Y-46495282D02*
X154236918Y-47280996D01*
X153736917Y-46280996D02*
X153165489Y-46280996D01*
X153522632Y-45780996D02*
X153522632Y-47066710D01*
X153522632Y-47066710D02*
X153451203Y-47209568D01*
X153451203Y-47209568D02*
X153308346Y-47280996D01*
X153308346Y-47280996D02*
X153165489Y-47280996D01*
X152665489Y-47280996D02*
X152665489Y-46280996D01*
X152665489Y-46566710D02*
X152594060Y-46423853D01*
X152594060Y-46423853D02*
X152522632Y-46352425D01*
X152522632Y-46352425D02*
X152379774Y-46280996D01*
X152379774Y-46280996D02*
X152236917Y-46280996D01*
X151522632Y-47280996D02*
X151665489Y-47209568D01*
X151665489Y-47209568D02*
X151736918Y-47138139D01*
X151736918Y-47138139D02*
X151808346Y-46995282D01*
X151808346Y-46995282D02*
X151808346Y-46566710D01*
X151808346Y-46566710D02*
X151736918Y-46423853D01*
X151736918Y-46423853D02*
X151665489Y-46352425D01*
X151665489Y-46352425D02*
X151522632Y-46280996D01*
X151522632Y-46280996D02*
X151308346Y-46280996D01*
X151308346Y-46280996D02*
X151165489Y-46352425D01*
X151165489Y-46352425D02*
X151094061Y-46423853D01*
X151094061Y-46423853D02*
X151022632Y-46566710D01*
X151022632Y-46566710D02*
X151022632Y-46995282D01*
X151022632Y-46995282D02*
X151094061Y-47138139D01*
X151094061Y-47138139D02*
X151165489Y-47209568D01*
X151165489Y-47209568D02*
X151308346Y-47280996D01*
X151308346Y-47280996D02*
X151522632Y-47280996D01*
X150165489Y-47280996D02*
X150308346Y-47209568D01*
X150308346Y-47209568D02*
X150379775Y-47066710D01*
X150379775Y-47066710D02*
X150379775Y-45780996D01*
X149379775Y-47280996D02*
X149522632Y-47209568D01*
X149522632Y-47209568D02*
X149594061Y-47066710D01*
X149594061Y-47066710D02*
X149594061Y-45780996D01*
X148236918Y-47209568D02*
X148379775Y-47280996D01*
X148379775Y-47280996D02*
X148665490Y-47280996D01*
X148665490Y-47280996D02*
X148808347Y-47209568D01*
X148808347Y-47209568D02*
X148879775Y-47066710D01*
X148879775Y-47066710D02*
X148879775Y-46495282D01*
X148879775Y-46495282D02*
X148808347Y-46352425D01*
X148808347Y-46352425D02*
X148665490Y-46280996D01*
X148665490Y-46280996D02*
X148379775Y-46280996D01*
X148379775Y-46280996D02*
X148236918Y-46352425D01*
X148236918Y-46352425D02*
X148165490Y-46495282D01*
X148165490Y-46495282D02*
X148165490Y-46638139D01*
X148165490Y-46638139D02*
X148879775Y-46780996D01*
X147522633Y-47280996D02*
X147522633Y-46280996D01*
X147522633Y-46566710D02*
X147451204Y-46423853D01*
X147451204Y-46423853D02*
X147379776Y-46352425D01*
X147379776Y-46352425D02*
X147236918Y-46280996D01*
X147236918Y-46280996D02*
X147094061Y-46280996D01*
X173808346Y-49695912D02*
X174308346Y-48981626D01*
X174665489Y-49695912D02*
X174665489Y-48195912D01*
X174665489Y-48195912D02*
X174094060Y-48195912D01*
X174094060Y-48195912D02*
X173951203Y-48267341D01*
X173951203Y-48267341D02*
X173879774Y-48338769D01*
X173879774Y-48338769D02*
X173808346Y-48481626D01*
X173808346Y-48481626D02*
X173808346Y-48695912D01*
X173808346Y-48695912D02*
X173879774Y-48838769D01*
X173879774Y-48838769D02*
X173951203Y-48910198D01*
X173951203Y-48910198D02*
X174094060Y-48981626D01*
X174094060Y-48981626D02*
X174665489Y-48981626D01*
X172594060Y-49624484D02*
X172736917Y-49695912D01*
X172736917Y-49695912D02*
X173022632Y-49695912D01*
X173022632Y-49695912D02*
X173165489Y-49624484D01*
X173165489Y-49624484D02*
X173236917Y-49481626D01*
X173236917Y-49481626D02*
X173236917Y-48910198D01*
X173236917Y-48910198D02*
X173165489Y-48767341D01*
X173165489Y-48767341D02*
X173022632Y-48695912D01*
X173022632Y-48695912D02*
X172736917Y-48695912D01*
X172736917Y-48695912D02*
X172594060Y-48767341D01*
X172594060Y-48767341D02*
X172522632Y-48910198D01*
X172522632Y-48910198D02*
X172522632Y-49053055D01*
X172522632Y-49053055D02*
X173236917Y-49195912D01*
X172022632Y-48695912D02*
X171665489Y-49695912D01*
X171665489Y-49695912D02*
X171308346Y-48695912D01*
X169665489Y-49267341D02*
X168951204Y-49267341D01*
X169808346Y-49695912D02*
X169308346Y-48195912D01*
X169308346Y-48195912D02*
X168808346Y-49695912D01*
X174236917Y-50610828D02*
X174236917Y-51682257D01*
X174236917Y-51682257D02*
X174308346Y-51896542D01*
X174308346Y-51896542D02*
X174451203Y-52039400D01*
X174451203Y-52039400D02*
X174665489Y-52110828D01*
X174665489Y-52110828D02*
X174808346Y-52110828D01*
X172879775Y-52110828D02*
X172879775Y-51325114D01*
X172879775Y-51325114D02*
X172951203Y-51182257D01*
X172951203Y-51182257D02*
X173094060Y-51110828D01*
X173094060Y-51110828D02*
X173379775Y-51110828D01*
X173379775Y-51110828D02*
X173522632Y-51182257D01*
X172879775Y-52039400D02*
X173022632Y-52110828D01*
X173022632Y-52110828D02*
X173379775Y-52110828D01*
X173379775Y-52110828D02*
X173522632Y-52039400D01*
X173522632Y-52039400D02*
X173594060Y-51896542D01*
X173594060Y-51896542D02*
X173594060Y-51753685D01*
X173594060Y-51753685D02*
X173522632Y-51610828D01*
X173522632Y-51610828D02*
X173379775Y-51539400D01*
X173379775Y-51539400D02*
X173022632Y-51539400D01*
X173022632Y-51539400D02*
X172879775Y-51467971D01*
X172308346Y-51110828D02*
X171951203Y-52110828D01*
X171594060Y-51110828D02*
X171951203Y-52110828D01*
X171951203Y-52110828D02*
X172094060Y-52467971D01*
X172094060Y-52467971D02*
X172165489Y-52539400D01*
X172165489Y-52539400D02*
X172308346Y-52610828D01*
X170808346Y-52110828D02*
X170951203Y-52039400D01*
X170951203Y-52039400D02*
X171022632Y-51896542D01*
X171022632Y-51896542D02*
X171022632Y-50610828D01*
X169665489Y-52039400D02*
X169808346Y-52110828D01*
X169808346Y-52110828D02*
X170094061Y-52110828D01*
X170094061Y-52110828D02*
X170236918Y-52039400D01*
X170236918Y-52039400D02*
X170308346Y-51896542D01*
X170308346Y-51896542D02*
X170308346Y-51325114D01*
X170308346Y-51325114D02*
X170236918Y-51182257D01*
X170236918Y-51182257D02*
X170094061Y-51110828D01*
X170094061Y-51110828D02*
X169808346Y-51110828D01*
X169808346Y-51110828D02*
X169665489Y-51182257D01*
X169665489Y-51182257D02*
X169594061Y-51325114D01*
X169594061Y-51325114D02*
X169594061Y-51467971D01*
X169594061Y-51467971D02*
X170308346Y-51610828D01*
X168951204Y-51110828D02*
X168951204Y-52110828D01*
X168951204Y-51253685D02*
X168879775Y-51182257D01*
X168879775Y-51182257D02*
X168736918Y-51110828D01*
X168736918Y-51110828D02*
X168522632Y-51110828D01*
X168522632Y-51110828D02*
X168379775Y-51182257D01*
X168379775Y-51182257D02*
X168308347Y-51325114D01*
X168308347Y-51325114D02*
X168308347Y-52110828D01*
D12*
X156358094Y-109946819D02*
X155786666Y-109946819D01*
X156072380Y-110946819D02*
X156072380Y-109946819D01*
X155453332Y-110946819D02*
X155453332Y-109946819D01*
X155453332Y-109946819D02*
X155072380Y-109946819D01*
X155072380Y-109946819D02*
X154977142Y-109994438D01*
X154977142Y-109994438D02*
X154929523Y-110042057D01*
X154929523Y-110042057D02*
X154881904Y-110137295D01*
X154881904Y-110137295D02*
X154881904Y-110280152D01*
X154881904Y-110280152D02*
X154929523Y-110375390D01*
X154929523Y-110375390D02*
X154977142Y-110423009D01*
X154977142Y-110423009D02*
X155072380Y-110470628D01*
X155072380Y-110470628D02*
X155453332Y-110470628D01*
X153929523Y-110946819D02*
X154500951Y-110946819D01*
X154215237Y-110946819D02*
X154215237Y-109946819D01*
X154215237Y-109946819D02*
X154310475Y-110089676D01*
X154310475Y-110089676D02*
X154405713Y-110184914D01*
X154405713Y-110184914D02*
X154500951Y-110232533D01*
X153596189Y-109946819D02*
X152977142Y-109946819D01*
X152977142Y-109946819D02*
X153310475Y-110327771D01*
X153310475Y-110327771D02*
X153167618Y-110327771D01*
X153167618Y-110327771D02*
X153072380Y-110375390D01*
X153072380Y-110375390D02*
X153024761Y-110423009D01*
X153024761Y-110423009D02*
X152977142Y-110518247D01*
X152977142Y-110518247D02*
X152977142Y-110756342D01*
X152977142Y-110756342D02*
X153024761Y-110851580D01*
X153024761Y-110851580D02*
X153072380Y-110899200D01*
X153072380Y-110899200D02*
X153167618Y-110946819D01*
X153167618Y-110946819D02*
X153453332Y-110946819D01*
X153453332Y-110946819D02*
X153548570Y-110899200D01*
X153548570Y-110899200D02*
X153596189Y-110851580D01*
X160684580Y-77958333D02*
X160732200Y-77910714D01*
X160732200Y-77910714D02*
X160779819Y-77767857D01*
X160779819Y-77767857D02*
X160779819Y-77672619D01*
X160779819Y-77672619D02*
X160732200Y-77529762D01*
X160732200Y-77529762D02*
X160636961Y-77434524D01*
X160636961Y-77434524D02*
X160541723Y-77386905D01*
X160541723Y-77386905D02*
X160351247Y-77339286D01*
X160351247Y-77339286D02*
X160208390Y-77339286D01*
X160208390Y-77339286D02*
X160017914Y-77386905D01*
X160017914Y-77386905D02*
X159922676Y-77434524D01*
X159922676Y-77434524D02*
X159827438Y-77529762D01*
X159827438Y-77529762D02*
X159779819Y-77672619D01*
X159779819Y-77672619D02*
X159779819Y-77767857D01*
X159779819Y-77767857D02*
X159827438Y-77910714D01*
X159827438Y-77910714D02*
X159875057Y-77958333D01*
X160113152Y-78815476D02*
X160779819Y-78815476D01*
X159732200Y-78577381D02*
X160446485Y-78339286D01*
X160446485Y-78339286D02*
X160446485Y-78958333D01*
X146368094Y-96474819D02*
X145796666Y-96474819D01*
X146082380Y-97474819D02*
X146082380Y-96474819D01*
X145463332Y-97474819D02*
X145463332Y-96474819D01*
X145463332Y-96474819D02*
X145082380Y-96474819D01*
X145082380Y-96474819D02*
X144987142Y-96522438D01*
X144987142Y-96522438D02*
X144939523Y-96570057D01*
X144939523Y-96570057D02*
X144891904Y-96665295D01*
X144891904Y-96665295D02*
X144891904Y-96808152D01*
X144891904Y-96808152D02*
X144939523Y-96903390D01*
X144939523Y-96903390D02*
X144987142Y-96951009D01*
X144987142Y-96951009D02*
X145082380Y-96998628D01*
X145082380Y-96998628D02*
X145463332Y-96998628D01*
X143939523Y-97474819D02*
X144510951Y-97474819D01*
X144225237Y-97474819D02*
X144225237Y-96474819D01*
X144225237Y-96474819D02*
X144320475Y-96617676D01*
X144320475Y-96617676D02*
X144415713Y-96712914D01*
X144415713Y-96712914D02*
X144510951Y-96760533D01*
X143606189Y-96474819D02*
X142939523Y-96474819D01*
X142939523Y-96474819D02*
X143368094Y-97474819D01*
X151241904Y-53397319D02*
X151241904Y-54206842D01*
X151241904Y-54206842D02*
X151194285Y-54302080D01*
X151194285Y-54302080D02*
X151146666Y-54349700D01*
X151146666Y-54349700D02*
X151051428Y-54397319D01*
X151051428Y-54397319D02*
X150860952Y-54397319D01*
X150860952Y-54397319D02*
X150765714Y-54349700D01*
X150765714Y-54349700D02*
X150718095Y-54302080D01*
X150718095Y-54302080D02*
X150670476Y-54206842D01*
X150670476Y-54206842D02*
X150670476Y-53397319D01*
X149765714Y-53397319D02*
X149956190Y-53397319D01*
X149956190Y-53397319D02*
X150051428Y-53444938D01*
X150051428Y-53444938D02*
X150099047Y-53492557D01*
X150099047Y-53492557D02*
X150194285Y-53635414D01*
X150194285Y-53635414D02*
X150241904Y-53825890D01*
X150241904Y-53825890D02*
X150241904Y-54206842D01*
X150241904Y-54206842D02*
X150194285Y-54302080D01*
X150194285Y-54302080D02*
X150146666Y-54349700D01*
X150146666Y-54349700D02*
X150051428Y-54397319D01*
X150051428Y-54397319D02*
X149860952Y-54397319D01*
X149860952Y-54397319D02*
X149765714Y-54349700D01*
X149765714Y-54349700D02*
X149718095Y-54302080D01*
X149718095Y-54302080D02*
X149670476Y-54206842D01*
X149670476Y-54206842D02*
X149670476Y-53968747D01*
X149670476Y-53968747D02*
X149718095Y-53873509D01*
X149718095Y-53873509D02*
X149765714Y-53825890D01*
X149765714Y-53825890D02*
X149860952Y-53778271D01*
X149860952Y-53778271D02*
X150051428Y-53778271D01*
X150051428Y-53778271D02*
X150146666Y-53825890D01*
X150146666Y-53825890D02*
X150194285Y-53873509D01*
X150194285Y-53873509D02*
X150241904Y-53968747D01*
X156716819Y-91491905D02*
X156716819Y-92063333D01*
X157716819Y-91777619D02*
X156716819Y-91777619D01*
X157716819Y-92396667D02*
X156716819Y-92396667D01*
X156716819Y-92396667D02*
X156716819Y-92777619D01*
X156716819Y-92777619D02*
X156764438Y-92872857D01*
X156764438Y-92872857D02*
X156812057Y-92920476D01*
X156812057Y-92920476D02*
X156907295Y-92968095D01*
X156907295Y-92968095D02*
X157050152Y-92968095D01*
X157050152Y-92968095D02*
X157145390Y-92920476D01*
X157145390Y-92920476D02*
X157193009Y-92872857D01*
X157193009Y-92872857D02*
X157240628Y-92777619D01*
X157240628Y-92777619D02*
X157240628Y-92396667D01*
X157716819Y-93920476D02*
X157716819Y-93349048D01*
X157716819Y-93634762D02*
X156716819Y-93634762D01*
X156716819Y-93634762D02*
X156859676Y-93539524D01*
X156859676Y-93539524D02*
X156954914Y-93444286D01*
X156954914Y-93444286D02*
X157002533Y-93349048D01*
X157716819Y-94396667D02*
X157716819Y-94587143D01*
X157716819Y-94587143D02*
X157669200Y-94682381D01*
X157669200Y-94682381D02*
X157621580Y-94730000D01*
X157621580Y-94730000D02*
X157478723Y-94825238D01*
X157478723Y-94825238D02*
X157288247Y-94872857D01*
X157288247Y-94872857D02*
X156907295Y-94872857D01*
X156907295Y-94872857D02*
X156812057Y-94825238D01*
X156812057Y-94825238D02*
X156764438Y-94777619D01*
X156764438Y-94777619D02*
X156716819Y-94682381D01*
X156716819Y-94682381D02*
X156716819Y-94491905D01*
X156716819Y-94491905D02*
X156764438Y-94396667D01*
X156764438Y-94396667D02*
X156812057Y-94349048D01*
X156812057Y-94349048D02*
X156907295Y-94301429D01*
X156907295Y-94301429D02*
X157145390Y-94301429D01*
X157145390Y-94301429D02*
X157240628Y-94349048D01*
X157240628Y-94349048D02*
X157288247Y-94396667D01*
X157288247Y-94396667D02*
X157335866Y-94491905D01*
X157335866Y-94491905D02*
X157335866Y-94682381D01*
X157335866Y-94682381D02*
X157288247Y-94777619D01*
X157288247Y-94777619D02*
X157240628Y-94825238D01*
X157240628Y-94825238D02*
X157145390Y-94872857D01*
X150318094Y-101466819D02*
X149746666Y-101466819D01*
X150032380Y-102466819D02*
X150032380Y-101466819D01*
X149413332Y-102466819D02*
X149413332Y-101466819D01*
X149413332Y-101466819D02*
X149032380Y-101466819D01*
X149032380Y-101466819D02*
X148937142Y-101514438D01*
X148937142Y-101514438D02*
X148889523Y-101562057D01*
X148889523Y-101562057D02*
X148841904Y-101657295D01*
X148841904Y-101657295D02*
X148841904Y-101800152D01*
X148841904Y-101800152D02*
X148889523Y-101895390D01*
X148889523Y-101895390D02*
X148937142Y-101943009D01*
X148937142Y-101943009D02*
X149032380Y-101990628D01*
X149032380Y-101990628D02*
X149413332Y-101990628D01*
X147889523Y-102466819D02*
X148460951Y-102466819D01*
X148175237Y-102466819D02*
X148175237Y-101466819D01*
X148175237Y-101466819D02*
X148270475Y-101609676D01*
X148270475Y-101609676D02*
X148365713Y-101704914D01*
X148365713Y-101704914D02*
X148460951Y-101752533D01*
X146984761Y-101466819D02*
X147460951Y-101466819D01*
X147460951Y-101466819D02*
X147508570Y-101943009D01*
X147508570Y-101943009D02*
X147460951Y-101895390D01*
X147460951Y-101895390D02*
X147365713Y-101847771D01*
X147365713Y-101847771D02*
X147127618Y-101847771D01*
X147127618Y-101847771D02*
X147032380Y-101895390D01*
X147032380Y-101895390D02*
X146984761Y-101943009D01*
X146984761Y-101943009D02*
X146937142Y-102038247D01*
X146937142Y-102038247D02*
X146937142Y-102276342D01*
X146937142Y-102276342D02*
X146984761Y-102371580D01*
X146984761Y-102371580D02*
X147032380Y-102419200D01*
X147032380Y-102419200D02*
X147127618Y-102466819D01*
X147127618Y-102466819D02*
X147365713Y-102466819D01*
X147365713Y-102466819D02*
X147460951Y-102419200D01*
X147460951Y-102419200D02*
X147508570Y-102371580D01*
X163066666Y-84224819D02*
X163399999Y-83748628D01*
X163638094Y-84224819D02*
X163638094Y-83224819D01*
X163638094Y-83224819D02*
X163257142Y-83224819D01*
X163257142Y-83224819D02*
X163161904Y-83272438D01*
X163161904Y-83272438D02*
X163114285Y-83320057D01*
X163114285Y-83320057D02*
X163066666Y-83415295D01*
X163066666Y-83415295D02*
X163066666Y-83558152D01*
X163066666Y-83558152D02*
X163114285Y-83653390D01*
X163114285Y-83653390D02*
X163161904Y-83701009D01*
X163161904Y-83701009D02*
X163257142Y-83748628D01*
X163257142Y-83748628D02*
X163638094Y-83748628D01*
X162733332Y-83224819D02*
X162066666Y-83224819D01*
X162066666Y-83224819D02*
X162495237Y-84224819D01*
X160266819Y-91491905D02*
X160266819Y-92063333D01*
X161266819Y-91777619D02*
X160266819Y-91777619D01*
X161266819Y-92396667D02*
X160266819Y-92396667D01*
X160266819Y-92396667D02*
X160266819Y-92777619D01*
X160266819Y-92777619D02*
X160314438Y-92872857D01*
X160314438Y-92872857D02*
X160362057Y-92920476D01*
X160362057Y-92920476D02*
X160457295Y-92968095D01*
X160457295Y-92968095D02*
X160600152Y-92968095D01*
X160600152Y-92968095D02*
X160695390Y-92920476D01*
X160695390Y-92920476D02*
X160743009Y-92872857D01*
X160743009Y-92872857D02*
X160790628Y-92777619D01*
X160790628Y-92777619D02*
X160790628Y-92396667D01*
X160362057Y-93349048D02*
X160314438Y-93396667D01*
X160314438Y-93396667D02*
X160266819Y-93491905D01*
X160266819Y-93491905D02*
X160266819Y-93730000D01*
X160266819Y-93730000D02*
X160314438Y-93825238D01*
X160314438Y-93825238D02*
X160362057Y-93872857D01*
X160362057Y-93872857D02*
X160457295Y-93920476D01*
X160457295Y-93920476D02*
X160552533Y-93920476D01*
X160552533Y-93920476D02*
X160695390Y-93872857D01*
X160695390Y-93872857D02*
X161266819Y-93301429D01*
X161266819Y-93301429D02*
X161266819Y-93920476D01*
X160266819Y-94539524D02*
X160266819Y-94634762D01*
X160266819Y-94634762D02*
X160314438Y-94730000D01*
X160314438Y-94730000D02*
X160362057Y-94777619D01*
X160362057Y-94777619D02*
X160457295Y-94825238D01*
X160457295Y-94825238D02*
X160647771Y-94872857D01*
X160647771Y-94872857D02*
X160885866Y-94872857D01*
X160885866Y-94872857D02*
X161076342Y-94825238D01*
X161076342Y-94825238D02*
X161171580Y-94777619D01*
X161171580Y-94777619D02*
X161219200Y-94730000D01*
X161219200Y-94730000D02*
X161266819Y-94634762D01*
X161266819Y-94634762D02*
X161266819Y-94539524D01*
X161266819Y-94539524D02*
X161219200Y-94444286D01*
X161219200Y-94444286D02*
X161171580Y-94396667D01*
X161171580Y-94396667D02*
X161076342Y-94349048D01*
X161076342Y-94349048D02*
X160885866Y-94301429D01*
X160885866Y-94301429D02*
X160647771Y-94301429D01*
X160647771Y-94301429D02*
X160457295Y-94349048D01*
X160457295Y-94349048D02*
X160362057Y-94396667D01*
X160362057Y-94396667D02*
X160314438Y-94444286D01*
X160314438Y-94444286D02*
X160266819Y-94539524D01*
X164869580Y-58183333D02*
X164917200Y-58135714D01*
X164917200Y-58135714D02*
X164964819Y-57992857D01*
X164964819Y-57992857D02*
X164964819Y-57897619D01*
X164964819Y-57897619D02*
X164917200Y-57754762D01*
X164917200Y-57754762D02*
X164821961Y-57659524D01*
X164821961Y-57659524D02*
X164726723Y-57611905D01*
X164726723Y-57611905D02*
X164536247Y-57564286D01*
X164536247Y-57564286D02*
X164393390Y-57564286D01*
X164393390Y-57564286D02*
X164202914Y-57611905D01*
X164202914Y-57611905D02*
X164107676Y-57659524D01*
X164107676Y-57659524D02*
X164012438Y-57754762D01*
X164012438Y-57754762D02*
X163964819Y-57897619D01*
X163964819Y-57897619D02*
X163964819Y-57992857D01*
X163964819Y-57992857D02*
X164012438Y-58135714D01*
X164012438Y-58135714D02*
X164060057Y-58183333D01*
X164964819Y-58659524D02*
X164964819Y-58850000D01*
X164964819Y-58850000D02*
X164917200Y-58945238D01*
X164917200Y-58945238D02*
X164869580Y-58992857D01*
X164869580Y-58992857D02*
X164726723Y-59088095D01*
X164726723Y-59088095D02*
X164536247Y-59135714D01*
X164536247Y-59135714D02*
X164155295Y-59135714D01*
X164155295Y-59135714D02*
X164060057Y-59088095D01*
X164060057Y-59088095D02*
X164012438Y-59040476D01*
X164012438Y-59040476D02*
X163964819Y-58945238D01*
X163964819Y-58945238D02*
X163964819Y-58754762D01*
X163964819Y-58754762D02*
X164012438Y-58659524D01*
X164012438Y-58659524D02*
X164060057Y-58611905D01*
X164060057Y-58611905D02*
X164155295Y-58564286D01*
X164155295Y-58564286D02*
X164393390Y-58564286D01*
X164393390Y-58564286D02*
X164488628Y-58611905D01*
X164488628Y-58611905D02*
X164536247Y-58659524D01*
X164536247Y-58659524D02*
X164583866Y-58754762D01*
X164583866Y-58754762D02*
X164583866Y-58945238D01*
X164583866Y-58945238D02*
X164536247Y-59040476D01*
X164536247Y-59040476D02*
X164488628Y-59088095D01*
X164488628Y-59088095D02*
X164393390Y-59135714D01*
X145508094Y-67074819D02*
X144936666Y-67074819D01*
X145222380Y-68074819D02*
X145222380Y-67074819D01*
X144603332Y-68074819D02*
X144603332Y-67074819D01*
X144603332Y-67074819D02*
X144222380Y-67074819D01*
X144222380Y-67074819D02*
X144127142Y-67122438D01*
X144127142Y-67122438D02*
X144079523Y-67170057D01*
X144079523Y-67170057D02*
X144031904Y-67265295D01*
X144031904Y-67265295D02*
X144031904Y-67408152D01*
X144031904Y-67408152D02*
X144079523Y-67503390D01*
X144079523Y-67503390D02*
X144127142Y-67551009D01*
X144127142Y-67551009D02*
X144222380Y-67598628D01*
X144222380Y-67598628D02*
X144603332Y-67598628D01*
X143079523Y-68074819D02*
X143650951Y-68074819D01*
X143365237Y-68074819D02*
X143365237Y-67074819D01*
X143365237Y-67074819D02*
X143460475Y-67217676D01*
X143460475Y-67217676D02*
X143555713Y-67312914D01*
X143555713Y-67312914D02*
X143650951Y-67360533D01*
X142698570Y-67170057D02*
X142650951Y-67122438D01*
X142650951Y-67122438D02*
X142555713Y-67074819D01*
X142555713Y-67074819D02*
X142317618Y-67074819D01*
X142317618Y-67074819D02*
X142222380Y-67122438D01*
X142222380Y-67122438D02*
X142174761Y-67170057D01*
X142174761Y-67170057D02*
X142127142Y-67265295D01*
X142127142Y-67265295D02*
X142127142Y-67360533D01*
X142127142Y-67360533D02*
X142174761Y-67503390D01*
X142174761Y-67503390D02*
X142746189Y-68074819D01*
X142746189Y-68074819D02*
X142127142Y-68074819D01*
X160111904Y-84994819D02*
X160111904Y-85804342D01*
X160111904Y-85804342D02*
X160064285Y-85899580D01*
X160064285Y-85899580D02*
X160016666Y-85947200D01*
X160016666Y-85947200D02*
X159921428Y-85994819D01*
X159921428Y-85994819D02*
X159730952Y-85994819D01*
X159730952Y-85994819D02*
X159635714Y-85947200D01*
X159635714Y-85947200D02*
X159588095Y-85899580D01*
X159588095Y-85899580D02*
X159540476Y-85804342D01*
X159540476Y-85804342D02*
X159540476Y-84994819D01*
X158635714Y-85328152D02*
X158635714Y-85994819D01*
X158873809Y-84947200D02*
X159111904Y-85661485D01*
X159111904Y-85661485D02*
X158492857Y-85661485D01*
X156504819Y-81088095D02*
X157314342Y-81088095D01*
X157314342Y-81088095D02*
X157409580Y-81135714D01*
X157409580Y-81135714D02*
X157457200Y-81183333D01*
X157457200Y-81183333D02*
X157504819Y-81278571D01*
X157504819Y-81278571D02*
X157504819Y-81469047D01*
X157504819Y-81469047D02*
X157457200Y-81564285D01*
X157457200Y-81564285D02*
X157409580Y-81611904D01*
X157409580Y-81611904D02*
X157314342Y-81659523D01*
X157314342Y-81659523D02*
X156504819Y-81659523D01*
X156504819Y-82611904D02*
X156504819Y-82135714D01*
X156504819Y-82135714D02*
X156981009Y-82088095D01*
X156981009Y-82088095D02*
X156933390Y-82135714D01*
X156933390Y-82135714D02*
X156885771Y-82230952D01*
X156885771Y-82230952D02*
X156885771Y-82469047D01*
X156885771Y-82469047D02*
X156933390Y-82564285D01*
X156933390Y-82564285D02*
X156981009Y-82611904D01*
X156981009Y-82611904D02*
X157076247Y-82659523D01*
X157076247Y-82659523D02*
X157314342Y-82659523D01*
X157314342Y-82659523D02*
X157409580Y-82611904D01*
X157409580Y-82611904D02*
X157457200Y-82564285D01*
X157457200Y-82564285D02*
X157504819Y-82469047D01*
X157504819Y-82469047D02*
X157504819Y-82230952D01*
X157504819Y-82230952D02*
X157457200Y-82135714D01*
X157457200Y-82135714D02*
X157409580Y-82088095D01*
X146121904Y-84034819D02*
X145550476Y-84034819D01*
X145836190Y-85034819D02*
X145836190Y-84034819D01*
X145217142Y-85034819D02*
X145217142Y-84034819D01*
X145217142Y-84034819D02*
X144836190Y-84034819D01*
X144836190Y-84034819D02*
X144740952Y-84082438D01*
X144740952Y-84082438D02*
X144693333Y-84130057D01*
X144693333Y-84130057D02*
X144645714Y-84225295D01*
X144645714Y-84225295D02*
X144645714Y-84368152D01*
X144645714Y-84368152D02*
X144693333Y-84463390D01*
X144693333Y-84463390D02*
X144740952Y-84511009D01*
X144740952Y-84511009D02*
X144836190Y-84558628D01*
X144836190Y-84558628D02*
X145217142Y-84558628D01*
X143788571Y-84368152D02*
X143788571Y-85034819D01*
X144026666Y-83987200D02*
X144264761Y-84701485D01*
X144264761Y-84701485D02*
X143645714Y-84701485D01*
X156048628Y-58473809D02*
X156524819Y-58473809D01*
X155524819Y-58140476D02*
X156048628Y-58473809D01*
X156048628Y-58473809D02*
X155524819Y-58807142D01*
X156524819Y-59664285D02*
X156524819Y-59092857D01*
X156524819Y-59378571D02*
X155524819Y-59378571D01*
X155524819Y-59378571D02*
X155667676Y-59283333D01*
X155667676Y-59283333D02*
X155762914Y-59188095D01*
X155762914Y-59188095D02*
X155810533Y-59092857D01*
X143128094Y-69184819D02*
X142556666Y-69184819D01*
X142842380Y-70184819D02*
X142842380Y-69184819D01*
X142223332Y-70184819D02*
X142223332Y-69184819D01*
X142223332Y-69184819D02*
X141842380Y-69184819D01*
X141842380Y-69184819D02*
X141747142Y-69232438D01*
X141747142Y-69232438D02*
X141699523Y-69280057D01*
X141699523Y-69280057D02*
X141651904Y-69375295D01*
X141651904Y-69375295D02*
X141651904Y-69518152D01*
X141651904Y-69518152D02*
X141699523Y-69613390D01*
X141699523Y-69613390D02*
X141747142Y-69661009D01*
X141747142Y-69661009D02*
X141842380Y-69708628D01*
X141842380Y-69708628D02*
X142223332Y-69708628D01*
X140699523Y-70184819D02*
X141270951Y-70184819D01*
X140985237Y-70184819D02*
X140985237Y-69184819D01*
X140985237Y-69184819D02*
X141080475Y-69327676D01*
X141080475Y-69327676D02*
X141175713Y-69422914D01*
X141175713Y-69422914D02*
X141270951Y-69470533D01*
X139747142Y-70184819D02*
X140318570Y-70184819D01*
X140032856Y-70184819D02*
X140032856Y-69184819D01*
X140032856Y-69184819D02*
X140128094Y-69327676D01*
X140128094Y-69327676D02*
X140223332Y-69422914D01*
X140223332Y-69422914D02*
X140318570Y-69470533D01*
X157038094Y-39206819D02*
X156466666Y-39206819D01*
X156752380Y-40206819D02*
X156752380Y-39206819D01*
X156133332Y-40206819D02*
X156133332Y-39206819D01*
X156133332Y-39206819D02*
X155752380Y-39206819D01*
X155752380Y-39206819D02*
X155657142Y-39254438D01*
X155657142Y-39254438D02*
X155609523Y-39302057D01*
X155609523Y-39302057D02*
X155561904Y-39397295D01*
X155561904Y-39397295D02*
X155561904Y-39540152D01*
X155561904Y-39540152D02*
X155609523Y-39635390D01*
X155609523Y-39635390D02*
X155657142Y-39683009D01*
X155657142Y-39683009D02*
X155752380Y-39730628D01*
X155752380Y-39730628D02*
X156133332Y-39730628D01*
X154609523Y-40206819D02*
X155180951Y-40206819D01*
X154895237Y-40206819D02*
X154895237Y-39206819D01*
X154895237Y-39206819D02*
X154990475Y-39349676D01*
X154990475Y-39349676D02*
X155085713Y-39444914D01*
X155085713Y-39444914D02*
X155180951Y-39492533D01*
X153752380Y-39206819D02*
X153942856Y-39206819D01*
X153942856Y-39206819D02*
X154038094Y-39254438D01*
X154038094Y-39254438D02*
X154085713Y-39302057D01*
X154085713Y-39302057D02*
X154180951Y-39444914D01*
X154180951Y-39444914D02*
X154228570Y-39635390D01*
X154228570Y-39635390D02*
X154228570Y-40016342D01*
X154228570Y-40016342D02*
X154180951Y-40111580D01*
X154180951Y-40111580D02*
X154133332Y-40159200D01*
X154133332Y-40159200D02*
X154038094Y-40206819D01*
X154038094Y-40206819D02*
X153847618Y-40206819D01*
X153847618Y-40206819D02*
X153752380Y-40159200D01*
X153752380Y-40159200D02*
X153704761Y-40111580D01*
X153704761Y-40111580D02*
X153657142Y-40016342D01*
X153657142Y-40016342D02*
X153657142Y-39778247D01*
X153657142Y-39778247D02*
X153704761Y-39683009D01*
X153704761Y-39683009D02*
X153752380Y-39635390D01*
X153752380Y-39635390D02*
X153847618Y-39587771D01*
X153847618Y-39587771D02*
X154038094Y-39587771D01*
X154038094Y-39587771D02*
X154133332Y-39635390D01*
X154133332Y-39635390D02*
X154180951Y-39683009D01*
X154180951Y-39683009D02*
X154228570Y-39778247D01*
X169311904Y-85229819D02*
X169311904Y-86039342D01*
X169311904Y-86039342D02*
X169264285Y-86134580D01*
X169264285Y-86134580D02*
X169216666Y-86182200D01*
X169216666Y-86182200D02*
X169121428Y-86229819D01*
X169121428Y-86229819D02*
X168930952Y-86229819D01*
X168930952Y-86229819D02*
X168835714Y-86182200D01*
X168835714Y-86182200D02*
X168788095Y-86134580D01*
X168788095Y-86134580D02*
X168740476Y-86039342D01*
X168740476Y-86039342D02*
X168740476Y-85229819D01*
X168359523Y-85229819D02*
X167740476Y-85229819D01*
X167740476Y-85229819D02*
X168073809Y-85610771D01*
X168073809Y-85610771D02*
X167930952Y-85610771D01*
X167930952Y-85610771D02*
X167835714Y-85658390D01*
X167835714Y-85658390D02*
X167788095Y-85706009D01*
X167788095Y-85706009D02*
X167740476Y-85801247D01*
X167740476Y-85801247D02*
X167740476Y-86039342D01*
X167740476Y-86039342D02*
X167788095Y-86134580D01*
X167788095Y-86134580D02*
X167835714Y-86182200D01*
X167835714Y-86182200D02*
X167930952Y-86229819D01*
X167930952Y-86229819D02*
X168216666Y-86229819D01*
X168216666Y-86229819D02*
X168311904Y-86182200D01*
X168311904Y-86182200D02*
X168359523Y-86134580D01*
X142681904Y-73584819D02*
X142110476Y-73584819D01*
X142396190Y-74584819D02*
X142396190Y-73584819D01*
X141777142Y-74584819D02*
X141777142Y-73584819D01*
X141777142Y-73584819D02*
X141396190Y-73584819D01*
X141396190Y-73584819D02*
X141300952Y-73632438D01*
X141300952Y-73632438D02*
X141253333Y-73680057D01*
X141253333Y-73680057D02*
X141205714Y-73775295D01*
X141205714Y-73775295D02*
X141205714Y-73918152D01*
X141205714Y-73918152D02*
X141253333Y-74013390D01*
X141253333Y-74013390D02*
X141300952Y-74061009D01*
X141300952Y-74061009D02*
X141396190Y-74108628D01*
X141396190Y-74108628D02*
X141777142Y-74108628D01*
X140729523Y-74584819D02*
X140539047Y-74584819D01*
X140539047Y-74584819D02*
X140443809Y-74537200D01*
X140443809Y-74537200D02*
X140396190Y-74489580D01*
X140396190Y-74489580D02*
X140300952Y-74346723D01*
X140300952Y-74346723D02*
X140253333Y-74156247D01*
X140253333Y-74156247D02*
X140253333Y-73775295D01*
X140253333Y-73775295D02*
X140300952Y-73680057D01*
X140300952Y-73680057D02*
X140348571Y-73632438D01*
X140348571Y-73632438D02*
X140443809Y-73584819D01*
X140443809Y-73584819D02*
X140634285Y-73584819D01*
X140634285Y-73584819D02*
X140729523Y-73632438D01*
X140729523Y-73632438D02*
X140777142Y-73680057D01*
X140777142Y-73680057D02*
X140824761Y-73775295D01*
X140824761Y-73775295D02*
X140824761Y-74013390D01*
X140824761Y-74013390D02*
X140777142Y-74108628D01*
X140777142Y-74108628D02*
X140729523Y-74156247D01*
X140729523Y-74156247D02*
X140634285Y-74203866D01*
X140634285Y-74203866D02*
X140443809Y-74203866D01*
X140443809Y-74203866D02*
X140348571Y-74156247D01*
X140348571Y-74156247D02*
X140300952Y-74108628D01*
X140300952Y-74108628D02*
X140253333Y-74013390D01*
X144068094Y-92544819D02*
X143496666Y-92544819D01*
X143782380Y-93544819D02*
X143782380Y-92544819D01*
X143163332Y-93544819D02*
X143163332Y-92544819D01*
X143163332Y-92544819D02*
X142782380Y-92544819D01*
X142782380Y-92544819D02*
X142687142Y-92592438D01*
X142687142Y-92592438D02*
X142639523Y-92640057D01*
X142639523Y-92640057D02*
X142591904Y-92735295D01*
X142591904Y-92735295D02*
X142591904Y-92878152D01*
X142591904Y-92878152D02*
X142639523Y-92973390D01*
X142639523Y-92973390D02*
X142687142Y-93021009D01*
X142687142Y-93021009D02*
X142782380Y-93068628D01*
X142782380Y-93068628D02*
X143163332Y-93068628D01*
X141639523Y-93544819D02*
X142210951Y-93544819D01*
X141925237Y-93544819D02*
X141925237Y-92544819D01*
X141925237Y-92544819D02*
X142020475Y-92687676D01*
X142020475Y-92687676D02*
X142115713Y-92782914D01*
X142115713Y-92782914D02*
X142210951Y-92830533D01*
X141068094Y-92973390D02*
X141163332Y-92925771D01*
X141163332Y-92925771D02*
X141210951Y-92878152D01*
X141210951Y-92878152D02*
X141258570Y-92782914D01*
X141258570Y-92782914D02*
X141258570Y-92735295D01*
X141258570Y-92735295D02*
X141210951Y-92640057D01*
X141210951Y-92640057D02*
X141163332Y-92592438D01*
X141163332Y-92592438D02*
X141068094Y-92544819D01*
X141068094Y-92544819D02*
X140877618Y-92544819D01*
X140877618Y-92544819D02*
X140782380Y-92592438D01*
X140782380Y-92592438D02*
X140734761Y-92640057D01*
X140734761Y-92640057D02*
X140687142Y-92735295D01*
X140687142Y-92735295D02*
X140687142Y-92782914D01*
X140687142Y-92782914D02*
X140734761Y-92878152D01*
X140734761Y-92878152D02*
X140782380Y-92925771D01*
X140782380Y-92925771D02*
X140877618Y-92973390D01*
X140877618Y-92973390D02*
X141068094Y-92973390D01*
X141068094Y-92973390D02*
X141163332Y-93021009D01*
X141163332Y-93021009D02*
X141210951Y-93068628D01*
X141210951Y-93068628D02*
X141258570Y-93163866D01*
X141258570Y-93163866D02*
X141258570Y-93354342D01*
X141258570Y-93354342D02*
X141210951Y-93449580D01*
X141210951Y-93449580D02*
X141163332Y-93497200D01*
X141163332Y-93497200D02*
X141068094Y-93544819D01*
X141068094Y-93544819D02*
X140877618Y-93544819D01*
X140877618Y-93544819D02*
X140782380Y-93497200D01*
X140782380Y-93497200D02*
X140734761Y-93449580D01*
X140734761Y-93449580D02*
X140687142Y-93354342D01*
X140687142Y-93354342D02*
X140687142Y-93163866D01*
X140687142Y-93163866D02*
X140734761Y-93068628D01*
X140734761Y-93068628D02*
X140782380Y-93021009D01*
X140782380Y-93021009D02*
X140877618Y-92973390D01*
X154364819Y-71170833D02*
X153888628Y-70837500D01*
X154364819Y-70599405D02*
X153364819Y-70599405D01*
X153364819Y-70599405D02*
X153364819Y-70980357D01*
X153364819Y-70980357D02*
X153412438Y-71075595D01*
X153412438Y-71075595D02*
X153460057Y-71123214D01*
X153460057Y-71123214D02*
X153555295Y-71170833D01*
X153555295Y-71170833D02*
X153698152Y-71170833D01*
X153698152Y-71170833D02*
X153793390Y-71123214D01*
X153793390Y-71123214D02*
X153841009Y-71075595D01*
X153841009Y-71075595D02*
X153888628Y-70980357D01*
X153888628Y-70980357D02*
X153888628Y-70599405D01*
X153364819Y-72075595D02*
X153364819Y-71599405D01*
X153364819Y-71599405D02*
X153841009Y-71551786D01*
X153841009Y-71551786D02*
X153793390Y-71599405D01*
X153793390Y-71599405D02*
X153745771Y-71694643D01*
X153745771Y-71694643D02*
X153745771Y-71932738D01*
X153745771Y-71932738D02*
X153793390Y-72027976D01*
X153793390Y-72027976D02*
X153841009Y-72075595D01*
X153841009Y-72075595D02*
X153936247Y-72123214D01*
X153936247Y-72123214D02*
X154174342Y-72123214D01*
X154174342Y-72123214D02*
X154269580Y-72075595D01*
X154269580Y-72075595D02*
X154317200Y-72027976D01*
X154317200Y-72027976D02*
X154364819Y-71932738D01*
X154364819Y-71932738D02*
X154364819Y-71694643D01*
X154364819Y-71694643D02*
X154317200Y-71599405D01*
X154317200Y-71599405D02*
X154269580Y-71551786D01*
X147714819Y-70243333D02*
X147238628Y-69910000D01*
X147714819Y-69671905D02*
X146714819Y-69671905D01*
X146714819Y-69671905D02*
X146714819Y-70052857D01*
X146714819Y-70052857D02*
X146762438Y-70148095D01*
X146762438Y-70148095D02*
X146810057Y-70195714D01*
X146810057Y-70195714D02*
X146905295Y-70243333D01*
X146905295Y-70243333D02*
X147048152Y-70243333D01*
X147048152Y-70243333D02*
X147143390Y-70195714D01*
X147143390Y-70195714D02*
X147191009Y-70148095D01*
X147191009Y-70148095D02*
X147238628Y-70052857D01*
X147238628Y-70052857D02*
X147238628Y-69671905D01*
X147048152Y-71100476D02*
X147714819Y-71100476D01*
X146667200Y-70862381D02*
X147381485Y-70624286D01*
X147381485Y-70624286D02*
X147381485Y-71243333D01*
X159472857Y-65019580D02*
X159520476Y-65067200D01*
X159520476Y-65067200D02*
X159663333Y-65114819D01*
X159663333Y-65114819D02*
X159758571Y-65114819D01*
X159758571Y-65114819D02*
X159901428Y-65067200D01*
X159901428Y-65067200D02*
X159996666Y-64971961D01*
X159996666Y-64971961D02*
X160044285Y-64876723D01*
X160044285Y-64876723D02*
X160091904Y-64686247D01*
X160091904Y-64686247D02*
X160091904Y-64543390D01*
X160091904Y-64543390D02*
X160044285Y-64352914D01*
X160044285Y-64352914D02*
X159996666Y-64257676D01*
X159996666Y-64257676D02*
X159901428Y-64162438D01*
X159901428Y-64162438D02*
X159758571Y-64114819D01*
X159758571Y-64114819D02*
X159663333Y-64114819D01*
X159663333Y-64114819D02*
X159520476Y-64162438D01*
X159520476Y-64162438D02*
X159472857Y-64210057D01*
X158520476Y-65114819D02*
X159091904Y-65114819D01*
X158806190Y-65114819D02*
X158806190Y-64114819D01*
X158806190Y-64114819D02*
X158901428Y-64257676D01*
X158901428Y-64257676D02*
X158996666Y-64352914D01*
X158996666Y-64352914D02*
X159091904Y-64400533D01*
X157901428Y-64114819D02*
X157806190Y-64114819D01*
X157806190Y-64114819D02*
X157710952Y-64162438D01*
X157710952Y-64162438D02*
X157663333Y-64210057D01*
X157663333Y-64210057D02*
X157615714Y-64305295D01*
X157615714Y-64305295D02*
X157568095Y-64495771D01*
X157568095Y-64495771D02*
X157568095Y-64733866D01*
X157568095Y-64733866D02*
X157615714Y-64924342D01*
X157615714Y-64924342D02*
X157663333Y-65019580D01*
X157663333Y-65019580D02*
X157710952Y-65067200D01*
X157710952Y-65067200D02*
X157806190Y-65114819D01*
X157806190Y-65114819D02*
X157901428Y-65114819D01*
X157901428Y-65114819D02*
X157996666Y-65067200D01*
X157996666Y-65067200D02*
X158044285Y-65019580D01*
X158044285Y-65019580D02*
X158091904Y-64924342D01*
X158091904Y-64924342D02*
X158139523Y-64733866D01*
X158139523Y-64733866D02*
X158139523Y-64495771D01*
X158139523Y-64495771D02*
X158091904Y-64305295D01*
X158091904Y-64305295D02*
X158044285Y-64210057D01*
X158044285Y-64210057D02*
X157996666Y-64162438D01*
X157996666Y-64162438D02*
X157901428Y-64114819D01*
X200024819Y-88556666D02*
X200739104Y-88556666D01*
X200739104Y-88556666D02*
X200881961Y-88509047D01*
X200881961Y-88509047D02*
X200977200Y-88413809D01*
X200977200Y-88413809D02*
X201024819Y-88270952D01*
X201024819Y-88270952D02*
X201024819Y-88175714D01*
X200358152Y-89461428D02*
X201024819Y-89461428D01*
X199977200Y-89223333D02*
X200691485Y-88985238D01*
X200691485Y-88985238D02*
X200691485Y-89604285D01*
X151129580Y-75633333D02*
X151177200Y-75585714D01*
X151177200Y-75585714D02*
X151224819Y-75442857D01*
X151224819Y-75442857D02*
X151224819Y-75347619D01*
X151224819Y-75347619D02*
X151177200Y-75204762D01*
X151177200Y-75204762D02*
X151081961Y-75109524D01*
X151081961Y-75109524D02*
X150986723Y-75061905D01*
X150986723Y-75061905D02*
X150796247Y-75014286D01*
X150796247Y-75014286D02*
X150653390Y-75014286D01*
X150653390Y-75014286D02*
X150462914Y-75061905D01*
X150462914Y-75061905D02*
X150367676Y-75109524D01*
X150367676Y-75109524D02*
X150272438Y-75204762D01*
X150272438Y-75204762D02*
X150224819Y-75347619D01*
X150224819Y-75347619D02*
X150224819Y-75442857D01*
X150224819Y-75442857D02*
X150272438Y-75585714D01*
X150272438Y-75585714D02*
X150320057Y-75633333D01*
X150653390Y-76204762D02*
X150605771Y-76109524D01*
X150605771Y-76109524D02*
X150558152Y-76061905D01*
X150558152Y-76061905D02*
X150462914Y-76014286D01*
X150462914Y-76014286D02*
X150415295Y-76014286D01*
X150415295Y-76014286D02*
X150320057Y-76061905D01*
X150320057Y-76061905D02*
X150272438Y-76109524D01*
X150272438Y-76109524D02*
X150224819Y-76204762D01*
X150224819Y-76204762D02*
X150224819Y-76395238D01*
X150224819Y-76395238D02*
X150272438Y-76490476D01*
X150272438Y-76490476D02*
X150320057Y-76538095D01*
X150320057Y-76538095D02*
X150415295Y-76585714D01*
X150415295Y-76585714D02*
X150462914Y-76585714D01*
X150462914Y-76585714D02*
X150558152Y-76538095D01*
X150558152Y-76538095D02*
X150605771Y-76490476D01*
X150605771Y-76490476D02*
X150653390Y-76395238D01*
X150653390Y-76395238D02*
X150653390Y-76204762D01*
X150653390Y-76204762D02*
X150701009Y-76109524D01*
X150701009Y-76109524D02*
X150748628Y-76061905D01*
X150748628Y-76061905D02*
X150843866Y-76014286D01*
X150843866Y-76014286D02*
X151034342Y-76014286D01*
X151034342Y-76014286D02*
X151129580Y-76061905D01*
X151129580Y-76061905D02*
X151177200Y-76109524D01*
X151177200Y-76109524D02*
X151224819Y-76204762D01*
X151224819Y-76204762D02*
X151224819Y-76395238D01*
X151224819Y-76395238D02*
X151177200Y-76490476D01*
X151177200Y-76490476D02*
X151129580Y-76538095D01*
X151129580Y-76538095D02*
X151034342Y-76585714D01*
X151034342Y-76585714D02*
X150843866Y-76585714D01*
X150843866Y-76585714D02*
X150748628Y-76538095D01*
X150748628Y-76538095D02*
X150701009Y-76490476D01*
X150701009Y-76490476D02*
X150653390Y-76395238D01*
X148471904Y-75854819D02*
X147900476Y-75854819D01*
X148186190Y-76854819D02*
X148186190Y-75854819D01*
X147567142Y-76854819D02*
X147567142Y-75854819D01*
X147567142Y-75854819D02*
X147186190Y-75854819D01*
X147186190Y-75854819D02*
X147090952Y-75902438D01*
X147090952Y-75902438D02*
X147043333Y-75950057D01*
X147043333Y-75950057D02*
X146995714Y-76045295D01*
X146995714Y-76045295D02*
X146995714Y-76188152D01*
X146995714Y-76188152D02*
X147043333Y-76283390D01*
X147043333Y-76283390D02*
X147090952Y-76331009D01*
X147090952Y-76331009D02*
X147186190Y-76378628D01*
X147186190Y-76378628D02*
X147567142Y-76378628D01*
X146424285Y-76283390D02*
X146519523Y-76235771D01*
X146519523Y-76235771D02*
X146567142Y-76188152D01*
X146567142Y-76188152D02*
X146614761Y-76092914D01*
X146614761Y-76092914D02*
X146614761Y-76045295D01*
X146614761Y-76045295D02*
X146567142Y-75950057D01*
X146567142Y-75950057D02*
X146519523Y-75902438D01*
X146519523Y-75902438D02*
X146424285Y-75854819D01*
X146424285Y-75854819D02*
X146233809Y-75854819D01*
X146233809Y-75854819D02*
X146138571Y-75902438D01*
X146138571Y-75902438D02*
X146090952Y-75950057D01*
X146090952Y-75950057D02*
X146043333Y-76045295D01*
X146043333Y-76045295D02*
X146043333Y-76092914D01*
X146043333Y-76092914D02*
X146090952Y-76188152D01*
X146090952Y-76188152D02*
X146138571Y-76235771D01*
X146138571Y-76235771D02*
X146233809Y-76283390D01*
X146233809Y-76283390D02*
X146424285Y-76283390D01*
X146424285Y-76283390D02*
X146519523Y-76331009D01*
X146519523Y-76331009D02*
X146567142Y-76378628D01*
X146567142Y-76378628D02*
X146614761Y-76473866D01*
X146614761Y-76473866D02*
X146614761Y-76664342D01*
X146614761Y-76664342D02*
X146567142Y-76759580D01*
X146567142Y-76759580D02*
X146519523Y-76807200D01*
X146519523Y-76807200D02*
X146424285Y-76854819D01*
X146424285Y-76854819D02*
X146233809Y-76854819D01*
X146233809Y-76854819D02*
X146138571Y-76807200D01*
X146138571Y-76807200D02*
X146090952Y-76759580D01*
X146090952Y-76759580D02*
X146043333Y-76664342D01*
X146043333Y-76664342D02*
X146043333Y-76473866D01*
X146043333Y-76473866D02*
X146090952Y-76378628D01*
X146090952Y-76378628D02*
X146138571Y-76331009D01*
X146138571Y-76331009D02*
X146233809Y-76283390D01*
X146522319Y-65000595D02*
X147331842Y-65000595D01*
X147331842Y-65000595D02*
X147427080Y-65048214D01*
X147427080Y-65048214D02*
X147474700Y-65095833D01*
X147474700Y-65095833D02*
X147522319Y-65191071D01*
X147522319Y-65191071D02*
X147522319Y-65381547D01*
X147522319Y-65381547D02*
X147474700Y-65476785D01*
X147474700Y-65476785D02*
X147427080Y-65524404D01*
X147427080Y-65524404D02*
X147331842Y-65572023D01*
X147331842Y-65572023D02*
X146522319Y-65572023D01*
X146522319Y-65952976D02*
X146522319Y-66619642D01*
X146522319Y-66619642D02*
X147522319Y-66191071D01*
X165609580Y-85233333D02*
X165657200Y-85185714D01*
X165657200Y-85185714D02*
X165704819Y-85042857D01*
X165704819Y-85042857D02*
X165704819Y-84947619D01*
X165704819Y-84947619D02*
X165657200Y-84804762D01*
X165657200Y-84804762D02*
X165561961Y-84709524D01*
X165561961Y-84709524D02*
X165466723Y-84661905D01*
X165466723Y-84661905D02*
X165276247Y-84614286D01*
X165276247Y-84614286D02*
X165133390Y-84614286D01*
X165133390Y-84614286D02*
X164942914Y-84661905D01*
X164942914Y-84661905D02*
X164847676Y-84709524D01*
X164847676Y-84709524D02*
X164752438Y-84804762D01*
X164752438Y-84804762D02*
X164704819Y-84947619D01*
X164704819Y-84947619D02*
X164704819Y-85042857D01*
X164704819Y-85042857D02*
X164752438Y-85185714D01*
X164752438Y-85185714D02*
X164800057Y-85233333D01*
X164800057Y-85614286D02*
X164752438Y-85661905D01*
X164752438Y-85661905D02*
X164704819Y-85757143D01*
X164704819Y-85757143D02*
X164704819Y-85995238D01*
X164704819Y-85995238D02*
X164752438Y-86090476D01*
X164752438Y-86090476D02*
X164800057Y-86138095D01*
X164800057Y-86138095D02*
X164895295Y-86185714D01*
X164895295Y-86185714D02*
X164990533Y-86185714D01*
X164990533Y-86185714D02*
X165133390Y-86138095D01*
X165133390Y-86138095D02*
X165704819Y-85566667D01*
X165704819Y-85566667D02*
X165704819Y-86185714D01*
X150531904Y-91444819D02*
X149960476Y-91444819D01*
X150246190Y-92444819D02*
X150246190Y-91444819D01*
X149627142Y-92444819D02*
X149627142Y-91444819D01*
X149627142Y-91444819D02*
X149246190Y-91444819D01*
X149246190Y-91444819D02*
X149150952Y-91492438D01*
X149150952Y-91492438D02*
X149103333Y-91540057D01*
X149103333Y-91540057D02*
X149055714Y-91635295D01*
X149055714Y-91635295D02*
X149055714Y-91778152D01*
X149055714Y-91778152D02*
X149103333Y-91873390D01*
X149103333Y-91873390D02*
X149150952Y-91921009D01*
X149150952Y-91921009D02*
X149246190Y-91968628D01*
X149246190Y-91968628D02*
X149627142Y-91968628D01*
X148722380Y-91444819D02*
X148103333Y-91444819D01*
X148103333Y-91444819D02*
X148436666Y-91825771D01*
X148436666Y-91825771D02*
X148293809Y-91825771D01*
X148293809Y-91825771D02*
X148198571Y-91873390D01*
X148198571Y-91873390D02*
X148150952Y-91921009D01*
X148150952Y-91921009D02*
X148103333Y-92016247D01*
X148103333Y-92016247D02*
X148103333Y-92254342D01*
X148103333Y-92254342D02*
X148150952Y-92349580D01*
X148150952Y-92349580D02*
X148198571Y-92397200D01*
X148198571Y-92397200D02*
X148293809Y-92444819D01*
X148293809Y-92444819D02*
X148579523Y-92444819D01*
X148579523Y-92444819D02*
X148674761Y-92397200D01*
X148674761Y-92397200D02*
X148722380Y-92349580D01*
X139794819Y-80248095D02*
X139794819Y-80819523D01*
X140794819Y-80533809D02*
X139794819Y-80533809D01*
X140794819Y-81152857D02*
X139794819Y-81152857D01*
X139794819Y-81152857D02*
X139794819Y-81533809D01*
X139794819Y-81533809D02*
X139842438Y-81629047D01*
X139842438Y-81629047D02*
X139890057Y-81676666D01*
X139890057Y-81676666D02*
X139985295Y-81724285D01*
X139985295Y-81724285D02*
X140128152Y-81724285D01*
X140128152Y-81724285D02*
X140223390Y-81676666D01*
X140223390Y-81676666D02*
X140271009Y-81629047D01*
X140271009Y-81629047D02*
X140318628Y-81533809D01*
X140318628Y-81533809D02*
X140318628Y-81152857D01*
X139794819Y-82057619D02*
X139794819Y-82724285D01*
X139794819Y-82724285D02*
X140794819Y-82295714D01*
X148988094Y-74164819D02*
X148416666Y-74164819D01*
X148702380Y-75164819D02*
X148702380Y-74164819D01*
X148083332Y-75164819D02*
X148083332Y-74164819D01*
X148083332Y-74164819D02*
X147702380Y-74164819D01*
X147702380Y-74164819D02*
X147607142Y-74212438D01*
X147607142Y-74212438D02*
X147559523Y-74260057D01*
X147559523Y-74260057D02*
X147511904Y-74355295D01*
X147511904Y-74355295D02*
X147511904Y-74498152D01*
X147511904Y-74498152D02*
X147559523Y-74593390D01*
X147559523Y-74593390D02*
X147607142Y-74641009D01*
X147607142Y-74641009D02*
X147702380Y-74688628D01*
X147702380Y-74688628D02*
X148083332Y-74688628D01*
X146559523Y-75164819D02*
X147130951Y-75164819D01*
X146845237Y-75164819D02*
X146845237Y-74164819D01*
X146845237Y-74164819D02*
X146940475Y-74307676D01*
X146940475Y-74307676D02*
X147035713Y-74402914D01*
X147035713Y-74402914D02*
X147130951Y-74450533D01*
X145940475Y-74164819D02*
X145845237Y-74164819D01*
X145845237Y-74164819D02*
X145749999Y-74212438D01*
X145749999Y-74212438D02*
X145702380Y-74260057D01*
X145702380Y-74260057D02*
X145654761Y-74355295D01*
X145654761Y-74355295D02*
X145607142Y-74545771D01*
X145607142Y-74545771D02*
X145607142Y-74783866D01*
X145607142Y-74783866D02*
X145654761Y-74974342D01*
X145654761Y-74974342D02*
X145702380Y-75069580D01*
X145702380Y-75069580D02*
X145749999Y-75117200D01*
X145749999Y-75117200D02*
X145845237Y-75164819D01*
X145845237Y-75164819D02*
X145940475Y-75164819D01*
X145940475Y-75164819D02*
X146035713Y-75117200D01*
X146035713Y-75117200D02*
X146083332Y-75069580D01*
X146083332Y-75069580D02*
X146130951Y-74974342D01*
X146130951Y-74974342D02*
X146178570Y-74783866D01*
X146178570Y-74783866D02*
X146178570Y-74545771D01*
X146178570Y-74545771D02*
X146130951Y-74355295D01*
X146130951Y-74355295D02*
X146083332Y-74260057D01*
X146083332Y-74260057D02*
X146035713Y-74212438D01*
X146035713Y-74212438D02*
X145940475Y-74164819D01*
X139854819Y-77258095D02*
X139854819Y-77829523D01*
X140854819Y-77543809D02*
X139854819Y-77543809D01*
X140854819Y-78162857D02*
X139854819Y-78162857D01*
X139854819Y-78162857D02*
X139854819Y-78543809D01*
X139854819Y-78543809D02*
X139902438Y-78639047D01*
X139902438Y-78639047D02*
X139950057Y-78686666D01*
X139950057Y-78686666D02*
X140045295Y-78734285D01*
X140045295Y-78734285D02*
X140188152Y-78734285D01*
X140188152Y-78734285D02*
X140283390Y-78686666D01*
X140283390Y-78686666D02*
X140331009Y-78639047D01*
X140331009Y-78639047D02*
X140378628Y-78543809D01*
X140378628Y-78543809D02*
X140378628Y-78162857D01*
X139854819Y-79639047D02*
X139854819Y-79162857D01*
X139854819Y-79162857D02*
X140331009Y-79115238D01*
X140331009Y-79115238D02*
X140283390Y-79162857D01*
X140283390Y-79162857D02*
X140235771Y-79258095D01*
X140235771Y-79258095D02*
X140235771Y-79496190D01*
X140235771Y-79496190D02*
X140283390Y-79591428D01*
X140283390Y-79591428D02*
X140331009Y-79639047D01*
X140331009Y-79639047D02*
X140426247Y-79686666D01*
X140426247Y-79686666D02*
X140664342Y-79686666D01*
X140664342Y-79686666D02*
X140759580Y-79639047D01*
X140759580Y-79639047D02*
X140807200Y-79591428D01*
X140807200Y-79591428D02*
X140854819Y-79496190D01*
X140854819Y-79496190D02*
X140854819Y-79258095D01*
X140854819Y-79258095D02*
X140807200Y-79162857D01*
X140807200Y-79162857D02*
X140759580Y-79115238D01*
X155334580Y-86508333D02*
X155382200Y-86460714D01*
X155382200Y-86460714D02*
X155429819Y-86317857D01*
X155429819Y-86317857D02*
X155429819Y-86222619D01*
X155429819Y-86222619D02*
X155382200Y-86079762D01*
X155382200Y-86079762D02*
X155286961Y-85984524D01*
X155286961Y-85984524D02*
X155191723Y-85936905D01*
X155191723Y-85936905D02*
X155001247Y-85889286D01*
X155001247Y-85889286D02*
X154858390Y-85889286D01*
X154858390Y-85889286D02*
X154667914Y-85936905D01*
X154667914Y-85936905D02*
X154572676Y-85984524D01*
X154572676Y-85984524D02*
X154477438Y-86079762D01*
X154477438Y-86079762D02*
X154429819Y-86222619D01*
X154429819Y-86222619D02*
X154429819Y-86317857D01*
X154429819Y-86317857D02*
X154477438Y-86460714D01*
X154477438Y-86460714D02*
X154525057Y-86508333D01*
X154429819Y-86841667D02*
X154429819Y-87460714D01*
X154429819Y-87460714D02*
X154810771Y-87127381D01*
X154810771Y-87127381D02*
X154810771Y-87270238D01*
X154810771Y-87270238D02*
X154858390Y-87365476D01*
X154858390Y-87365476D02*
X154906009Y-87413095D01*
X154906009Y-87413095D02*
X155001247Y-87460714D01*
X155001247Y-87460714D02*
X155239342Y-87460714D01*
X155239342Y-87460714D02*
X155334580Y-87413095D01*
X155334580Y-87413095D02*
X155382200Y-87365476D01*
X155382200Y-87365476D02*
X155429819Y-87270238D01*
X155429819Y-87270238D02*
X155429819Y-86984524D01*
X155429819Y-86984524D02*
X155382200Y-86889286D01*
X155382200Y-86889286D02*
X155334580Y-86841667D01*
X149728094Y-111574819D02*
X149156666Y-111574819D01*
X149442380Y-112574819D02*
X149442380Y-111574819D01*
X148823332Y-112574819D02*
X148823332Y-111574819D01*
X148823332Y-111574819D02*
X148442380Y-111574819D01*
X148442380Y-111574819D02*
X148347142Y-111622438D01*
X148347142Y-111622438D02*
X148299523Y-111670057D01*
X148299523Y-111670057D02*
X148251904Y-111765295D01*
X148251904Y-111765295D02*
X148251904Y-111908152D01*
X148251904Y-111908152D02*
X148299523Y-112003390D01*
X148299523Y-112003390D02*
X148347142Y-112051009D01*
X148347142Y-112051009D02*
X148442380Y-112098628D01*
X148442380Y-112098628D02*
X148823332Y-112098628D01*
X147299523Y-112574819D02*
X147870951Y-112574819D01*
X147585237Y-112574819D02*
X147585237Y-111574819D01*
X147585237Y-111574819D02*
X147680475Y-111717676D01*
X147680475Y-111717676D02*
X147775713Y-111812914D01*
X147775713Y-111812914D02*
X147870951Y-111860533D01*
X146442380Y-111908152D02*
X146442380Y-112574819D01*
X146680475Y-111527200D02*
X146918570Y-112241485D01*
X146918570Y-112241485D02*
X146299523Y-112241485D01*
X142361904Y-84004819D02*
X141790476Y-84004819D01*
X142076190Y-85004819D02*
X142076190Y-84004819D01*
X141457142Y-85004819D02*
X141457142Y-84004819D01*
X141457142Y-84004819D02*
X141076190Y-84004819D01*
X141076190Y-84004819D02*
X140980952Y-84052438D01*
X140980952Y-84052438D02*
X140933333Y-84100057D01*
X140933333Y-84100057D02*
X140885714Y-84195295D01*
X140885714Y-84195295D02*
X140885714Y-84338152D01*
X140885714Y-84338152D02*
X140933333Y-84433390D01*
X140933333Y-84433390D02*
X140980952Y-84481009D01*
X140980952Y-84481009D02*
X141076190Y-84528628D01*
X141076190Y-84528628D02*
X141457142Y-84528628D01*
X140028571Y-84004819D02*
X140219047Y-84004819D01*
X140219047Y-84004819D02*
X140314285Y-84052438D01*
X140314285Y-84052438D02*
X140361904Y-84100057D01*
X140361904Y-84100057D02*
X140457142Y-84242914D01*
X140457142Y-84242914D02*
X140504761Y-84433390D01*
X140504761Y-84433390D02*
X140504761Y-84814342D01*
X140504761Y-84814342D02*
X140457142Y-84909580D01*
X140457142Y-84909580D02*
X140409523Y-84957200D01*
X140409523Y-84957200D02*
X140314285Y-85004819D01*
X140314285Y-85004819D02*
X140123809Y-85004819D01*
X140123809Y-85004819D02*
X140028571Y-84957200D01*
X140028571Y-84957200D02*
X139980952Y-84909580D01*
X139980952Y-84909580D02*
X139933333Y-84814342D01*
X139933333Y-84814342D02*
X139933333Y-84576247D01*
X139933333Y-84576247D02*
X139980952Y-84481009D01*
X139980952Y-84481009D02*
X140028571Y-84433390D01*
X140028571Y-84433390D02*
X140123809Y-84385771D01*
X140123809Y-84385771D02*
X140314285Y-84385771D01*
X140314285Y-84385771D02*
X140409523Y-84433390D01*
X140409523Y-84433390D02*
X140457142Y-84481009D01*
X140457142Y-84481009D02*
X140504761Y-84576247D01*
X153021904Y-85474819D02*
X152450476Y-85474819D01*
X152736190Y-86474819D02*
X152736190Y-85474819D01*
X152117142Y-86474819D02*
X152117142Y-85474819D01*
X152117142Y-85474819D02*
X151736190Y-85474819D01*
X151736190Y-85474819D02*
X151640952Y-85522438D01*
X151640952Y-85522438D02*
X151593333Y-85570057D01*
X151593333Y-85570057D02*
X151545714Y-85665295D01*
X151545714Y-85665295D02*
X151545714Y-85808152D01*
X151545714Y-85808152D02*
X151593333Y-85903390D01*
X151593333Y-85903390D02*
X151640952Y-85951009D01*
X151640952Y-85951009D02*
X151736190Y-85998628D01*
X151736190Y-85998628D02*
X152117142Y-85998628D01*
X151164761Y-85570057D02*
X151117142Y-85522438D01*
X151117142Y-85522438D02*
X151021904Y-85474819D01*
X151021904Y-85474819D02*
X150783809Y-85474819D01*
X150783809Y-85474819D02*
X150688571Y-85522438D01*
X150688571Y-85522438D02*
X150640952Y-85570057D01*
X150640952Y-85570057D02*
X150593333Y-85665295D01*
X150593333Y-85665295D02*
X150593333Y-85760533D01*
X150593333Y-85760533D02*
X150640952Y-85903390D01*
X150640952Y-85903390D02*
X151212380Y-86474819D01*
X151212380Y-86474819D02*
X150593333Y-86474819D01*
X171826666Y-84382319D02*
X172159999Y-83906128D01*
X172398094Y-84382319D02*
X172398094Y-83382319D01*
X172398094Y-83382319D02*
X172017142Y-83382319D01*
X172017142Y-83382319D02*
X171921904Y-83429938D01*
X171921904Y-83429938D02*
X171874285Y-83477557D01*
X171874285Y-83477557D02*
X171826666Y-83572795D01*
X171826666Y-83572795D02*
X171826666Y-83715652D01*
X171826666Y-83715652D02*
X171874285Y-83810890D01*
X171874285Y-83810890D02*
X171921904Y-83858509D01*
X171921904Y-83858509D02*
X172017142Y-83906128D01*
X172017142Y-83906128D02*
X172398094Y-83906128D01*
X170969523Y-83382319D02*
X171159999Y-83382319D01*
X171159999Y-83382319D02*
X171255237Y-83429938D01*
X171255237Y-83429938D02*
X171302856Y-83477557D01*
X171302856Y-83477557D02*
X171398094Y-83620414D01*
X171398094Y-83620414D02*
X171445713Y-83810890D01*
X171445713Y-83810890D02*
X171445713Y-84191842D01*
X171445713Y-84191842D02*
X171398094Y-84287080D01*
X171398094Y-84287080D02*
X171350475Y-84334700D01*
X171350475Y-84334700D02*
X171255237Y-84382319D01*
X171255237Y-84382319D02*
X171064761Y-84382319D01*
X171064761Y-84382319D02*
X170969523Y-84334700D01*
X170969523Y-84334700D02*
X170921904Y-84287080D01*
X170921904Y-84287080D02*
X170874285Y-84191842D01*
X170874285Y-84191842D02*
X170874285Y-83953747D01*
X170874285Y-83953747D02*
X170921904Y-83858509D01*
X170921904Y-83858509D02*
X170969523Y-83810890D01*
X170969523Y-83810890D02*
X171064761Y-83763271D01*
X171064761Y-83763271D02*
X171255237Y-83763271D01*
X171255237Y-83763271D02*
X171350475Y-83810890D01*
X171350475Y-83810890D02*
X171398094Y-83858509D01*
X171398094Y-83858509D02*
X171445713Y-83953747D01*
X200024819Y-68156666D02*
X200739104Y-68156666D01*
X200739104Y-68156666D02*
X200881961Y-68109047D01*
X200881961Y-68109047D02*
X200977200Y-68013809D01*
X200977200Y-68013809D02*
X201024819Y-67870952D01*
X201024819Y-67870952D02*
X201024819Y-67775714D01*
X200024819Y-68537619D02*
X200024819Y-69156666D01*
X200024819Y-69156666D02*
X200405771Y-68823333D01*
X200405771Y-68823333D02*
X200405771Y-68966190D01*
X200405771Y-68966190D02*
X200453390Y-69061428D01*
X200453390Y-69061428D02*
X200501009Y-69109047D01*
X200501009Y-69109047D02*
X200596247Y-69156666D01*
X200596247Y-69156666D02*
X200834342Y-69156666D01*
X200834342Y-69156666D02*
X200929580Y-69109047D01*
X200929580Y-69109047D02*
X200977200Y-69061428D01*
X200977200Y-69061428D02*
X201024819Y-68966190D01*
X201024819Y-68966190D02*
X201024819Y-68680476D01*
X201024819Y-68680476D02*
X200977200Y-68585238D01*
X200977200Y-68585238D02*
X200929580Y-68537619D01*
D13*
%TO.C,J1*%
X196161001Y-109154500D02*
G75*
G02*
X195399001Y-109154500I-381000J0D01*
G01*
X195399001Y-109154500D02*
G75*
G02*
X196161001Y-109154500I381000J0D01*
G01*
D14*
%TO.C,TP13*%
X155570000Y-112140000D02*
G75*
G02*
X153670000Y-112140000I-950000J0D01*
G01*
X153670000Y-112140000D02*
G75*
G02*
X155570000Y-112140000I950000J0D01*
G01*
%TO.C,C4*%
X156960000Y-78816248D02*
X156960000Y-79338752D01*
X158430000Y-78816248D02*
X158430000Y-79338752D01*
%TO.C,TP17*%
X142660000Y-98260000D02*
G75*
G02*
X140760000Y-98260000I-950000J0D01*
G01*
X140760000Y-98260000D02*
G75*
G02*
X142660000Y-98260000I950000J0D01*
G01*
%TO.C,U6*%
X150480000Y-54757500D02*
X148280000Y-54757500D01*
X150480000Y-54757500D02*
X152680000Y-54757500D01*
X150480000Y-61527500D02*
X148280000Y-61527500D01*
X150480000Y-61527500D02*
X152680000Y-61527500D01*
X154670000Y-55457500D02*
X154340000Y-55217500D01*
X154670000Y-54977500D01*
X154670000Y-55457500D01*
G36*
X154670000Y-55457500D02*
G01*
X154340000Y-55217500D01*
X154670000Y-54977500D01*
X154670000Y-55457500D01*
G37*
%TO.C,TP19*%
X159860000Y-93230000D02*
G75*
G02*
X157960000Y-93230000I-950000J0D01*
G01*
X157960000Y-93230000D02*
G75*
G02*
X159860000Y-93230000I950000J0D01*
G01*
%TO.C,TP15*%
X149530000Y-103660000D02*
G75*
G02*
X147630000Y-103660000I-950000J0D01*
G01*
X147630000Y-103660000D02*
G75*
G02*
X149530000Y-103660000I950000J0D01*
G01*
%TO.C,R7*%
X162572379Y-85120000D02*
X162907621Y-85120000D01*
X162572379Y-85880000D02*
X162907621Y-85880000D01*
%TO.C,TP20*%
X163410000Y-93230000D02*
G75*
G02*
X161510000Y-93230000I-950000J0D01*
G01*
X161510000Y-93230000D02*
G75*
G02*
X163410000Y-93230000I950000J0D01*
G01*
%TO.C,C9*%
X162570000Y-58496267D02*
X162570000Y-58203733D01*
X163590000Y-58496267D02*
X163590000Y-58203733D01*
%TO.C,TP12*%
X145190000Y-69800000D02*
G75*
G02*
X143290000Y-69800000I-950000J0D01*
G01*
X143290000Y-69800000D02*
G75*
G02*
X145190000Y-69800000I950000J0D01*
G01*
D12*
%TO.C,U4*%
X158405000Y-86625000D02*
X158405000Y-86850000D01*
X158405000Y-89875000D02*
X158405000Y-89650000D01*
X161655000Y-86625000D02*
X158405000Y-86625000D01*
X161655000Y-86625000D02*
X161655000Y-86850000D01*
X161655000Y-89875000D02*
X158405000Y-89875000D01*
X161655000Y-89875000D02*
X161655000Y-89650000D01*
D14*
X162130000Y-86850000D02*
X161890000Y-86520000D01*
X162370000Y-86520000D01*
X162130000Y-86850000D01*
G36*
X162130000Y-86850000D02*
G01*
X161890000Y-86520000D01*
X162370000Y-86520000D01*
X162130000Y-86850000D01*
G37*
%TO.C,U5*%
X145865000Y-78587500D02*
X146140000Y-78587500D01*
X145865000Y-80897500D02*
X145865000Y-78587500D01*
X145865000Y-80897500D02*
X145865000Y-83207500D01*
X145865000Y-83207500D02*
X146140000Y-83207500D01*
X155785000Y-78587500D02*
X155510000Y-78587500D01*
X155785000Y-80897500D02*
X155785000Y-78587500D01*
X155785000Y-80897500D02*
X155785000Y-83207500D01*
X155785000Y-83207500D02*
X155510000Y-83207500D01*
X155840000Y-84037500D02*
X155510000Y-83797500D01*
X155840000Y-83557500D01*
X155840000Y-84037500D01*
G36*
X155840000Y-84037500D02*
G01*
X155510000Y-83797500D01*
X155840000Y-83557500D01*
X155840000Y-84037500D01*
G37*
%TO.C,TP4*%
X145370000Y-82580000D02*
G75*
G02*
X143470000Y-82580000I-950000J0D01*
G01*
X143470000Y-82580000D02*
G75*
G02*
X145370000Y-82580000I950000J0D01*
G01*
%TO.C,Y1*%
X156810000Y-56190000D02*
X161430000Y-56190000D01*
X161430000Y-56190000D02*
X161430000Y-61710000D01*
%TO.C,TP11*%
X143840000Y-72100000D02*
G75*
G02*
X141940000Y-72100000I-950000J0D01*
G01*
X141940000Y-72100000D02*
G75*
G02*
X143840000Y-72100000I950000J0D01*
G01*
%TO.C,TP16*%
X156250000Y-41400000D02*
G75*
G02*
X154350000Y-41400000I-950000J0D01*
G01*
X154350000Y-41400000D02*
G75*
G02*
X156250000Y-41400000I950000J0D01*
G01*
D12*
%TO.C,U3*%
X167215000Y-86602500D02*
X167215000Y-86827500D01*
X167215000Y-89852500D02*
X167215000Y-89627500D01*
X170465000Y-86602500D02*
X167215000Y-86602500D01*
X170465000Y-86602500D02*
X170465000Y-86827500D01*
X170465000Y-89852500D02*
X167215000Y-89852500D01*
X170465000Y-89852500D02*
X170465000Y-89627500D01*
D14*
X170940000Y-86827500D02*
X170700000Y-86497500D01*
X171180000Y-86497500D01*
X170940000Y-86827500D01*
G36*
X170940000Y-86827500D02*
G01*
X170700000Y-86497500D01*
X171180000Y-86497500D01*
X170940000Y-86827500D01*
G37*
%TO.C,TP9*%
X143070000Y-75940000D02*
G75*
G02*
X141170000Y-75940000I-950000J0D01*
G01*
X141170000Y-75940000D02*
G75*
G02*
X143070000Y-75940000I950000J0D01*
G01*
%TO.C,TP18*%
X142650000Y-95150000D02*
G75*
G02*
X140750000Y-95150000I-950000J0D01*
G01*
X140750000Y-95150000D02*
G75*
G02*
X142650000Y-95150000I950000J0D01*
G01*
%TO.C,R5*%
X151957500Y-71592224D02*
X151957500Y-71082776D01*
X153002500Y-71592224D02*
X153002500Y-71082776D01*
%TO.C,R4*%
X148167500Y-71065276D02*
X148167500Y-71574724D01*
X149212500Y-71065276D02*
X149212500Y-71574724D01*
%TO.C,C10*%
X158683733Y-62720000D02*
X158976267Y-62720000D01*
X158683733Y-63740000D02*
X158976267Y-63740000D01*
%TO.C,J4*%
X202970000Y-81740000D02*
X204310000Y-81740000D01*
X202970000Y-83230000D02*
X201770000Y-83230000D01*
X202970000Y-83230000D02*
X202970000Y-81740000D01*
X202970000Y-94550000D02*
X202970000Y-96040000D01*
X202970000Y-96040000D02*
X204310000Y-96040000D01*
X207030000Y-81740000D02*
X208770000Y-81740000D01*
X208770000Y-81740000D02*
X208770000Y-96040000D01*
X208770000Y-96040000D02*
X207030000Y-96040000D01*
%TO.C,C8*%
X150090000Y-73008733D02*
X150090000Y-73301267D01*
X151110000Y-73008733D02*
X151110000Y-73301267D01*
%TO.C,TP8*%
X145460000Y-77420000D02*
G75*
G02*
X143560000Y-77420000I-950000J0D01*
G01*
X143560000Y-77420000D02*
G75*
G02*
X145460000Y-77420000I950000J0D01*
G01*
%TO.C,U7*%
X147907500Y-65762500D02*
X147907500Y-63812500D01*
X147907500Y-65762500D02*
X147907500Y-67712500D01*
X153027500Y-65762500D02*
X153027500Y-63812500D01*
X153027500Y-65762500D02*
X153027500Y-67712500D01*
X148002500Y-63062500D02*
X147672500Y-63302500D01*
X147672500Y-62822500D01*
X148002500Y-63062500D01*
G36*
X148002500Y-63062500D02*
G01*
X147672500Y-63302500D01*
X147672500Y-62822500D01*
X148002500Y-63062500D01*
G37*
%TO.C,C2*%
X164750000Y-87793335D02*
X164750000Y-87561665D01*
X165470000Y-87793335D02*
X165470000Y-87561665D01*
%TO.C,TP3*%
X150210000Y-89750000D02*
G75*
G02*
X148310000Y-89750000I-950000J0D01*
G01*
X148310000Y-89750000D02*
G75*
G02*
X150210000Y-89750000I950000J0D01*
G01*
%TO.C,TP7*%
X143050000Y-81310000D02*
G75*
G02*
X141150000Y-81310000I-950000J0D01*
G01*
X141150000Y-81310000D02*
G75*
G02*
X143050000Y-81310000I950000J0D01*
G01*
%TO.C,TP10*%
X145080000Y-74380000D02*
G75*
G02*
X143180000Y-74380000I-950000J0D01*
G01*
X143180000Y-74380000D02*
G75*
G02*
X145080000Y-74380000I950000J0D01*
G01*
%TO.C,TP5*%
X143000000Y-78630000D02*
G75*
G02*
X141100000Y-78630000I-950000J0D01*
G01*
X141100000Y-78630000D02*
G75*
G02*
X143000000Y-78630000I950000J0D01*
G01*
%TO.C,C3*%
X156010000Y-87805835D02*
X156010000Y-87574165D01*
X156730000Y-87805835D02*
X156730000Y-87574165D01*
%TO.C,TP14*%
X147510000Y-114140000D02*
G75*
G02*
X145610000Y-114140000I-950000J0D01*
G01*
X145610000Y-114140000D02*
G75*
G02*
X147510000Y-114140000I950000J0D01*
G01*
%TO.C,TP6*%
X145310000Y-80000000D02*
G75*
G02*
X143410000Y-80000000I-950000J0D01*
G01*
X143410000Y-80000000D02*
G75*
G02*
X145310000Y-80000000I950000J0D01*
G01*
%TO.C,TP2*%
X150220000Y-87090000D02*
G75*
G02*
X148320000Y-87090000I-950000J0D01*
G01*
X148320000Y-87090000D02*
G75*
G02*
X150220000Y-87090000I950000J0D01*
G01*
%TO.C,R6*%
X171362379Y-85137500D02*
X171697621Y-85137500D01*
X171362379Y-85897500D02*
X171697621Y-85897500D01*
%TO.C,J3*%
X202970000Y-61340000D02*
X204310000Y-61340000D01*
X202970000Y-62830000D02*
X201770000Y-62830000D01*
X202970000Y-62830000D02*
X202970000Y-61340000D01*
X202970000Y-74150000D02*
X202970000Y-75640000D01*
X202970000Y-75640000D02*
X204310000Y-75640000D01*
X207030000Y-61340000D02*
X208770000Y-61340000D01*
X208770000Y-61340000D02*
X208770000Y-75640000D01*
X208770000Y-75640000D02*
X207030000Y-75640000D01*
%TD*%
M02*
