M48
; DRILL file {KiCad 9.0.3} date 2025-08-18T22:44:35-0400
; FORMAT={-:-/ absolute / metric / decimal}
; #@! TF.CreationDate,2025-08-18T22:44:35-04:00
; #@! TF.GenerationSoftware,Kicad,Pcbnew,9.0.3
; #@! TF.FileFunction,Plated,1,4,PTH
FMAT,2
METRIC
; #@! TA.AperFunction,Plated,PTH,ViaDrill
T1C0.300
; #@! TA.AperFunction,Plated,PTH,ComponentDrill
T2C0.800
; #@! TA.AperFunction,Plated,PTH,ComponentDrill
T3C1.000
; #@! TA.AperFunction,Plated,PTH,ComponentDrill
T4C1.020
; #@! TA.AperFunction,Plated,PTH,ComponentDrill
T5C2.200
; #@! TA.AperFunction,Plated,PTH,ComponentDrill
T6C2.700
%
G90
G05
T1
X140.491Y-74.039
X141.525Y-54.8
X142.21Y-64.54
X142.31Y-66.12
X143.216Y-55.892
X143.76Y-98.85
X143.995Y-56.075
X145.12Y-99.75
X145.65Y-68.85
X145.688Y-70.862
X145.911Y-64.539
X146.02Y-76.45
X146.125Y-65.425
X146.32Y-71.7
X146.32Y-73.54
X146.52Y-63.28
X146.56Y-114.14
X146.975Y-67.561
X146.975Y-68.45
X147.325Y-65.263
X148.361Y-81.261
X149.12Y-54.09
X150.2Y-58.0
X150.75Y-70.38
X151.91Y-65.26
X152.4Y-38.1
X152.4Y-44.45
X152.5Y-74.375
X152.909Y-87.08
X152.909Y-88.249
X152.909Y-89.48
X152.909Y-90.77
X152.98Y-107.63
X154.53Y-90.84
X155.22Y-88.51
X155.29Y-71.37
X155.7Y-64.55
X155.84Y-72.13
X156.3Y-69.5
X156.42Y-90.86
X156.42Y-94.0
X156.53Y-92.41
X157.06Y-73.53
X157.88Y-84.54
X158.75Y-38.1
X158.75Y-44.45
X158.75Y-114.3
X159.51Y-84.88
X160.02Y-79.85
X160.39Y-66.32
X160.475Y-88.475
X160.62Y-67.39
X160.875Y-82.075
X162.21Y-90.86
X163.33Y-88.75
X163.8Y-86.925
X164.835Y-70.555
X165.01Y-89.6
X165.1Y-38.1
X165.1Y-44.45
X165.1Y-57.15
X165.1Y-76.2
X165.1Y-114.3
X165.25Y-85.3
X166.33Y-69.98
X166.93Y-91.45
X167.42Y-80.71
X168.109Y-85.669
X169.225Y-88.025
X169.97Y-101.49
X171.45Y-44.45
X171.45Y-63.5
X171.45Y-69.85
X171.45Y-107.95
X171.45Y-114.3
X171.89Y-95.64
X172.194Y-80.734
X173.07Y-84.3
X173.725Y-57.925
X173.82Y-60.15
X173.82Y-61.347
X173.82Y-62.545
X173.82Y-63.742
X173.82Y-64.94
X175.79Y-81.94
X176.47Y-64.75
X176.63Y-75.18
X176.71Y-59.75
X176.71Y-60.95
X176.71Y-62.16
X176.71Y-63.361
X177.2Y-83.6
X177.8Y-44.45
X177.8Y-114.3
X178.27Y-100.0
X180.94Y-63.34
X180.94Y-64.57
X180.95Y-61.88
X181.04Y-65.52
X182.21Y-62.59
X182.22Y-63.98
X184.15Y-44.45
X184.15Y-57.15
X184.15Y-69.85
X184.15Y-82.55
X185.85Y-114.96
X186.58Y-97.61
X187.13Y-72.74
X187.61Y-104.32
X187.98Y-107.97
X188.36Y-101.02
X188.68Y-73.34
X188.87Y-96.67
X189.1Y-112.45
X190.25Y-74.69
X190.5Y-44.45
X190.5Y-57.15
X190.5Y-69.85
X190.61Y-101.91
X190.7Y-90.0
X191.9Y-99.0
X193.24Y-96.74
X193.836Y-95.606
X196.7Y-69.87
X196.85Y-44.45
X196.85Y-57.15
X196.85Y-74.85
X198.21Y-100.48
X199.875Y-95.25
X200.47Y-74.39
X202.6Y-115.2
X203.2Y-95.25
X203.2Y-101.6
X204.45Y-43.9
X205.3Y-89.91
X206.6Y-66.5
T2
X182.1Y-44.11
X182.1Y-46.65
X182.1Y-49.19
X182.1Y-51.73
X182.1Y-54.27
X182.1Y-56.81
X202.42Y-44.11
X202.42Y-46.65
X202.42Y-49.19
X202.42Y-51.73
X202.42Y-54.27
X202.42Y-56.81
T3
X143.02Y-101.82
X143.02Y-104.36
X143.02Y-106.9
X145.56Y-101.82
X145.56Y-104.36
X145.56Y-106.9
X195.84Y-112.95
X198.38Y-112.95
X200.92Y-112.95
T4
X151.42Y-105.99
X151.42Y-108.99
X151.42Y-111.99
X158.44Y-106.0
X158.44Y-109.0
X158.44Y-112.0
X165.907Y-106.0
X165.907Y-109.0
X165.907Y-112.0
X173.373Y-106.0
X173.373Y-109.0
X173.373Y-112.0
X180.84Y-106.0
X180.84Y-109.0
X180.84Y-112.0
T5
X143.29Y-112.37
X205.29Y-40.37
X205.29Y-112.37
T6
X143.18Y-40.24
X143.18Y-88.24
X176.18Y-40.24
X176.18Y-88.24
M30
