%TF.GenerationSoftware,KiCad,Pcbnew,9.0.3*%
%TF.CreationDate,2025-08-18T22:44:32-04:00*%
%TF.ProjectId,main,6d61696e-2e6b-4696-9361-645f70636258,rev?*%
%TF.SameCoordinates,Original*%
%TF.FileFunction,Paste,Top*%
%TF.FilePolarity,Positive*%
%FSLAX46Y46*%
G04 Gerber Fmt 4.6, Leading zero omitted, Abs format (unit mm)*
G04 Created by KiCad (PCBNEW 9.0.3) date 2025-08-18 22:44:32*
%MOMM*%
%LPD*%
G01*
G04 APERTURE LIST*
G04 Aperture macros list*
%AMRoundRect*
0 Rectangle with rounded corners*
0 $1 Rounding radius*
0 $2 $3 $4 $5 $6 $7 $8 $9 X,Y pos of 4 corners*
0 Add a 4 corners polygon primitive as box body*
4,1,4,$2,$3,$4,$5,$6,$7,$8,$9,$2,$3,0*
0 Add four circle primitives for the rounded corners*
1,1,$1+$1,$2,$3*
1,1,$1+$1,$4,$5*
1,1,$1+$1,$6,$7*
1,1,$1+$1,$8,$9*
0 Add four rect primitives between the rounded corners*
20,1,$1+$1,$2,$3,$4,$5,0*
20,1,$1+$1,$4,$5,$6,$7,0*
20,1,$1+$1,$6,$7,$8,$9,0*
20,1,$1+$1,$8,$9,$2,$3,0*%
G04 Aperture macros list end*
%ADD10RoundRect,0.250000X0.337500X0.475000X-0.337500X0.475000X-0.337500X-0.475000X0.337500X-0.475000X0*%
%ADD11RoundRect,0.150000X-0.150000X-0.700000X0.150000X-0.700000X0.150000X0.700000X-0.150000X0.700000X0*%
%ADD12RoundRect,0.250000X-0.250000X-1.150000X0.250000X-1.150000X0.250000X1.150000X-0.250000X1.150000X0*%
%ADD13R,0.700000X0.200000*%
%ADD14RoundRect,0.250000X-0.325000X-0.450000X0.325000X-0.450000X0.325000X0.450000X-0.325000X0.450000X0*%
%ADD15R,1.092200X0.711200*%
%ADD16R,0.939800X0.889000*%
%ADD17R,0.787400X1.041400*%
%ADD18R,3.327400X0.711200*%
%ADD19R,1.828800X1.143000*%
%ADD20R,2.794000X0.863600*%
%ADD21RoundRect,0.237500X0.300000X0.237500X-0.300000X0.237500X-0.300000X-0.237500X0.300000X-0.237500X0*%
%ADD22RoundRect,0.155000X0.212500X0.155000X-0.212500X0.155000X-0.212500X-0.155000X0.212500X-0.155000X0*%
%ADD23RoundRect,0.250000X0.350000X0.450000X-0.350000X0.450000X-0.350000X-0.450000X0.350000X-0.450000X0*%
%ADD24RoundRect,0.150000X0.700000X-0.150000X0.700000X0.150000X-0.700000X0.150000X-0.700000X-0.150000X0*%
%ADD25RoundRect,0.250000X1.150000X-0.250000X1.150000X0.250000X-1.150000X0.250000X-1.150000X-0.250000X0*%
%ADD26R,1.117600X2.235200*%
G04 APERTURE END LIST*
D10*
%TO.C,C1*%
X200907500Y-109450000D03*
X198832500Y-109450000D03*
%TD*%
D11*
%TO.C,J5*%
X187740000Y-98150000D03*
X188990000Y-98150000D03*
X190240000Y-98150000D03*
D12*
X185890000Y-94800000D03*
X192090000Y-94800000D03*
%TD*%
D13*
%TO.C,U1*%
X141140000Y-56940000D03*
X144220000Y-56940000D03*
X141140000Y-57340000D03*
X144220000Y-57340000D03*
X141140000Y-57740000D03*
X144220000Y-57740000D03*
X141140000Y-58140000D03*
X144220000Y-58140000D03*
X141140000Y-58540000D03*
X144220000Y-58540000D03*
X141140000Y-58940000D03*
X144220000Y-58940000D03*
X141140000Y-59340000D03*
X144220000Y-59340000D03*
X141140000Y-59740000D03*
X144220000Y-59740000D03*
X141140000Y-60140000D03*
X144220000Y-60140000D03*
X141140000Y-60540000D03*
X144220000Y-60540000D03*
X141140000Y-60940000D03*
X144220000Y-60940000D03*
X141140000Y-61340000D03*
X144220000Y-61340000D03*
X141140000Y-61740000D03*
X144220000Y-61740000D03*
X141140000Y-62140000D03*
X144220000Y-62140000D03*
X141140000Y-62540000D03*
X144220000Y-62540000D03*
X141140000Y-62940000D03*
X144220000Y-62940000D03*
X141140000Y-63340000D03*
X144220000Y-63340000D03*
X141140000Y-63740000D03*
X144220000Y-63740000D03*
X141140000Y-64140000D03*
X144220000Y-64140000D03*
X141140000Y-64540000D03*
X144220000Y-64540000D03*
X141140000Y-64940000D03*
X144220000Y-64940000D03*
X141140000Y-65340000D03*
X144220000Y-65340000D03*
X141140000Y-65740000D03*
X144220000Y-65740000D03*
X141140000Y-66140000D03*
X144220000Y-66140000D03*
X141140000Y-66540000D03*
X144220000Y-66540000D03*
X141140000Y-66940000D03*
X144220000Y-66940000D03*
X141140000Y-67340000D03*
X144220000Y-67340000D03*
X141140000Y-67740000D03*
X144220000Y-67740000D03*
X141140000Y-68140000D03*
X144220000Y-68140000D03*
X141140000Y-68540000D03*
X144220000Y-68540000D03*
X141140000Y-68940000D03*
X144220000Y-68940000D03*
X141140000Y-69340000D03*
X144220000Y-69340000D03*
X141140000Y-69740000D03*
X144220000Y-69740000D03*
X141140000Y-70140000D03*
X144220000Y-70140000D03*
X141140000Y-70540000D03*
X144220000Y-70540000D03*
X141140000Y-70940000D03*
X144220000Y-70940000D03*
X141140000Y-71340000D03*
X144220000Y-71340000D03*
X141140000Y-71740000D03*
X144220000Y-71740000D03*
X141140000Y-72140000D03*
X144220000Y-72140000D03*
X141140000Y-72540000D03*
X144220000Y-72540000D03*
X141140000Y-72940000D03*
X144220000Y-72940000D03*
X141140000Y-73340000D03*
X144220000Y-73340000D03*
X141140000Y-73740000D03*
X144220000Y-73740000D03*
X141140000Y-74140000D03*
X144220000Y-74140000D03*
X141140000Y-74540000D03*
X144220000Y-74540000D03*
X141140000Y-74940000D03*
X144220000Y-74940000D03*
X141140000Y-75340000D03*
X144220000Y-75340000D03*
X141140000Y-75740000D03*
X144220000Y-75740000D03*
X141140000Y-76140000D03*
X144220000Y-76140000D03*
X141140000Y-76540000D03*
X144220000Y-76540000D03*
X175140000Y-56940000D03*
X178220000Y-56940000D03*
X175140000Y-57340000D03*
X178220000Y-57340000D03*
X175140000Y-57740000D03*
X178220000Y-57740000D03*
X175140000Y-58140000D03*
X178220000Y-58140000D03*
X175140000Y-58540000D03*
X178220000Y-58540000D03*
X175140000Y-58940000D03*
X178220000Y-58940000D03*
X175140000Y-59340000D03*
X178220000Y-59340000D03*
X175140000Y-59740000D03*
X178220000Y-59740000D03*
X175140000Y-60140000D03*
X178220000Y-60140000D03*
X175140000Y-60540000D03*
X178220000Y-60540000D03*
X175140000Y-60940000D03*
X178220000Y-60940000D03*
X175140000Y-61340000D03*
X178220000Y-61340000D03*
X175140000Y-61740000D03*
X178220000Y-61740000D03*
X175140000Y-62140000D03*
X178220000Y-62140000D03*
X175140000Y-62540000D03*
X178220000Y-62540000D03*
X175140000Y-62940000D03*
X178220000Y-62940000D03*
X175140000Y-63340000D03*
X178220000Y-63340000D03*
X175140000Y-63740000D03*
X178220000Y-63740000D03*
X175140000Y-64140000D03*
X178220000Y-64140000D03*
X175140000Y-64540000D03*
X178220000Y-64540000D03*
X175140000Y-64940000D03*
X178220000Y-64940000D03*
X175140000Y-65340000D03*
X178220000Y-65340000D03*
X175140000Y-65740000D03*
X178220000Y-65740000D03*
X175140000Y-66140000D03*
X178220000Y-66140000D03*
X175140000Y-66540000D03*
X178220000Y-66540000D03*
X175140000Y-66940000D03*
X178220000Y-66940000D03*
X175140000Y-67340000D03*
X178220000Y-67340000D03*
X175140000Y-67740000D03*
X178220000Y-67740000D03*
X175140000Y-68140000D03*
X178220000Y-68140000D03*
X175140000Y-68540000D03*
X178220000Y-68540000D03*
X175140000Y-68940000D03*
X178220000Y-68940000D03*
X175140000Y-69340000D03*
X178220000Y-69340000D03*
X175140000Y-69740000D03*
X178220000Y-69740000D03*
X175140000Y-70140000D03*
X178220000Y-70140000D03*
X175140000Y-70540000D03*
X178220000Y-70540000D03*
X175140000Y-70940000D03*
X178220000Y-70940000D03*
X175140000Y-71340000D03*
X178220000Y-71340000D03*
X175140000Y-71740000D03*
X178220000Y-71740000D03*
X175140000Y-72140000D03*
X178220000Y-72140000D03*
X175140000Y-72540000D03*
X178220000Y-72540000D03*
X175140000Y-72940000D03*
X178220000Y-72940000D03*
X175140000Y-73340000D03*
X178220000Y-73340000D03*
X175140000Y-73740000D03*
X178220000Y-73740000D03*
X175140000Y-74140000D03*
X178220000Y-74140000D03*
X175140000Y-74540000D03*
X178220000Y-74540000D03*
X175140000Y-74940000D03*
X178220000Y-74940000D03*
X175140000Y-75340000D03*
X178220000Y-75340000D03*
X175140000Y-75740000D03*
X178220000Y-75740000D03*
X175140000Y-76140000D03*
X178220000Y-76140000D03*
X175140000Y-76540000D03*
X178220000Y-76540000D03*
%TD*%
D14*
%TO.C,D1*%
X205935000Y-55770000D03*
X207985000Y-55770000D03*
%TD*%
D11*
%TO.C,J8*%
X172050000Y-99850000D03*
X173300000Y-99850000D03*
X174550000Y-99850000D03*
D12*
X170200000Y-96500000D03*
X176400000Y-96500000D03*
%TD*%
D15*
%TO.C,J1*%
X195780001Y-103076300D03*
X195780001Y-101976300D03*
X195780001Y-100876300D03*
X195780001Y-99776299D03*
X195780001Y-98676299D03*
X195780001Y-97576299D03*
X195780001Y-96476298D03*
X195780001Y-95376300D03*
D16*
X208245000Y-104866300D03*
D17*
X208320000Y-100601300D03*
D18*
X207045000Y-107176300D03*
D19*
X195795000Y-106956300D03*
D20*
X196280000Y-94296300D03*
D18*
X207045000Y-94216300D03*
%TD*%
D21*
%TO.C,C5*%
X187130000Y-77910000D03*
X185405000Y-77910000D03*
%TD*%
D11*
%TO.C,J16*%
X154515000Y-99840000D03*
X155765000Y-99840000D03*
D12*
X152665000Y-96490000D03*
X157615000Y-96490000D03*
%TD*%
D22*
%TO.C,C6*%
X187137500Y-76020000D03*
X186002500Y-76020000D03*
%TD*%
D14*
%TO.C,D2*%
X205887500Y-47900000D03*
X207937500Y-47900000D03*
%TD*%
D23*
%TO.C,R2*%
X207997500Y-51870000D03*
X205997500Y-51870000D03*
%TD*%
D24*
%TO.C,J18*%
X207480000Y-90010000D03*
X207480000Y-88760000D03*
X207480000Y-87510000D03*
X207480000Y-86260000D03*
X207480000Y-85010000D03*
D25*
X204130000Y-91860000D03*
X204130000Y-83160000D03*
%TD*%
D23*
%TO.C,R3*%
X207950000Y-44000000D03*
X205950000Y-44000000D03*
%TD*%
D11*
%TO.C,J13*%
X145365000Y-98180000D03*
X146615000Y-98180000D03*
D12*
X143515000Y-94830000D03*
X148465000Y-94830000D03*
%TD*%
D11*
%TO.C,J6*%
X187760000Y-106260000D03*
X189010000Y-106260000D03*
X190260000Y-106260000D03*
D12*
X185910000Y-102910000D03*
X192110000Y-102910000D03*
%TD*%
D11*
%TO.C,J17*%
X163365000Y-99850000D03*
X164615000Y-99850000D03*
D12*
X161515000Y-96500000D03*
X166465000Y-96500000D03*
%TD*%
D23*
%TO.C,R1*%
X150500000Y-100610000D03*
X148500000Y-100610000D03*
%TD*%
D26*
%TO.C,U2*%
X199700000Y-66722000D03*
X197160000Y-66722000D03*
X194620000Y-66722000D03*
X192080000Y-66722000D03*
X192080000Y-82978000D03*
X194620000Y-82978000D03*
X197160000Y-82978000D03*
X199700000Y-82978000D03*
%TD*%
D11*
%TO.C,J7*%
X187750000Y-114180000D03*
X189000000Y-114180000D03*
X190250000Y-114180000D03*
D12*
X185900000Y-110830000D03*
X192100000Y-110830000D03*
%TD*%
D21*
%TO.C,C7*%
X187150000Y-80100000D03*
X185425000Y-80100000D03*
%TD*%
M02*
