%TF.GenerationSoftware,KiCad,Pcbnew,9.0.3*%
%TF.CreationDate,2025-08-18T22:44:32-04:00*%
%TF.ProjectId,main,6d61696e-2e6b-4696-9361-645f70636258,rev?*%
%TF.SameCoordinates,Original*%
%TF.FileFunction,Legend,Top*%
%TF.FilePolarity,Positive*%
%FSLAX46Y46*%
G04 Gerber Fmt 4.6, Leading zero omitted, Abs format (unit mm)*
G04 Created by KiCad (PCBNEW 9.0.3) date 2025-08-18 22:44:32*
%MOMM*%
%LPD*%
G01*
G04 APERTURE LIST*
%ADD10C,0.150000*%
%ADD11C,0.120000*%
%ADD12C,0.127000*%
%ADD13C,0.200000*%
%ADD14C,0.152400*%
%ADD15C,0.508000*%
G04 APERTURE END LIST*
D10*
X202673333Y-109889580D02*
X202625714Y-109937200D01*
X202625714Y-109937200D02*
X202482857Y-109984819D01*
X202482857Y-109984819D02*
X202387619Y-109984819D01*
X202387619Y-109984819D02*
X202244762Y-109937200D01*
X202244762Y-109937200D02*
X202149524Y-109841961D01*
X202149524Y-109841961D02*
X202101905Y-109746723D01*
X202101905Y-109746723D02*
X202054286Y-109556247D01*
X202054286Y-109556247D02*
X202054286Y-109413390D01*
X202054286Y-109413390D02*
X202101905Y-109222914D01*
X202101905Y-109222914D02*
X202149524Y-109127676D01*
X202149524Y-109127676D02*
X202244762Y-109032438D01*
X202244762Y-109032438D02*
X202387619Y-108984819D01*
X202387619Y-108984819D02*
X202482857Y-108984819D01*
X202482857Y-108984819D02*
X202625714Y-109032438D01*
X202625714Y-109032438D02*
X202673333Y-109080057D01*
X203625714Y-109984819D02*
X203054286Y-109984819D01*
X203340000Y-109984819D02*
X203340000Y-108984819D01*
X203340000Y-108984819D02*
X203244762Y-109127676D01*
X203244762Y-109127676D02*
X203149524Y-109222914D01*
X203149524Y-109222914D02*
X203054286Y-109270533D01*
X188656666Y-91654819D02*
X188656666Y-92369104D01*
X188656666Y-92369104D02*
X188609047Y-92511961D01*
X188609047Y-92511961D02*
X188513809Y-92607200D01*
X188513809Y-92607200D02*
X188370952Y-92654819D01*
X188370952Y-92654819D02*
X188275714Y-92654819D01*
X189609047Y-91654819D02*
X189132857Y-91654819D01*
X189132857Y-91654819D02*
X189085238Y-92131009D01*
X189085238Y-92131009D02*
X189132857Y-92083390D01*
X189132857Y-92083390D02*
X189228095Y-92035771D01*
X189228095Y-92035771D02*
X189466190Y-92035771D01*
X189466190Y-92035771D02*
X189561428Y-92083390D01*
X189561428Y-92083390D02*
X189609047Y-92131009D01*
X189609047Y-92131009D02*
X189656666Y-92226247D01*
X189656666Y-92226247D02*
X189656666Y-92464342D01*
X189656666Y-92464342D02*
X189609047Y-92559580D01*
X189609047Y-92559580D02*
X189561428Y-92607200D01*
X189561428Y-92607200D02*
X189466190Y-92654819D01*
X189466190Y-92654819D02*
X189228095Y-92654819D01*
X189228095Y-92654819D02*
X189132857Y-92607200D01*
X189132857Y-92607200D02*
X189085238Y-92559580D01*
X162598095Y-62124819D02*
X162598095Y-62934342D01*
X162598095Y-62934342D02*
X162645714Y-63029580D01*
X162645714Y-63029580D02*
X162693333Y-63077200D01*
X162693333Y-63077200D02*
X162788571Y-63124819D01*
X162788571Y-63124819D02*
X162979047Y-63124819D01*
X162979047Y-63124819D02*
X163074285Y-63077200D01*
X163074285Y-63077200D02*
X163121904Y-63029580D01*
X163121904Y-63029580D02*
X163169523Y-62934342D01*
X163169523Y-62934342D02*
X163169523Y-62124819D01*
X164169523Y-63124819D02*
X163598095Y-63124819D01*
X163883809Y-63124819D02*
X163883809Y-62124819D01*
X163883809Y-62124819D02*
X163788571Y-62267676D01*
X163788571Y-62267676D02*
X163693333Y-62362914D01*
X163693333Y-62362914D02*
X163598095Y-62410533D01*
X206221905Y-54574819D02*
X206221905Y-53574819D01*
X206221905Y-53574819D02*
X206460000Y-53574819D01*
X206460000Y-53574819D02*
X206602857Y-53622438D01*
X206602857Y-53622438D02*
X206698095Y-53717676D01*
X206698095Y-53717676D02*
X206745714Y-53812914D01*
X206745714Y-53812914D02*
X206793333Y-54003390D01*
X206793333Y-54003390D02*
X206793333Y-54146247D01*
X206793333Y-54146247D02*
X206745714Y-54336723D01*
X206745714Y-54336723D02*
X206698095Y-54431961D01*
X206698095Y-54431961D02*
X206602857Y-54527200D01*
X206602857Y-54527200D02*
X206460000Y-54574819D01*
X206460000Y-54574819D02*
X206221905Y-54574819D01*
X207745714Y-54574819D02*
X207174286Y-54574819D01*
X207460000Y-54574819D02*
X207460000Y-53574819D01*
X207460000Y-53574819D02*
X207364762Y-53717676D01*
X207364762Y-53717676D02*
X207269524Y-53812914D01*
X207269524Y-53812914D02*
X207174286Y-53860533D01*
X172966666Y-93354819D02*
X172966666Y-94069104D01*
X172966666Y-94069104D02*
X172919047Y-94211961D01*
X172919047Y-94211961D02*
X172823809Y-94307200D01*
X172823809Y-94307200D02*
X172680952Y-94354819D01*
X172680952Y-94354819D02*
X172585714Y-94354819D01*
X173585714Y-93783390D02*
X173490476Y-93735771D01*
X173490476Y-93735771D02*
X173442857Y-93688152D01*
X173442857Y-93688152D02*
X173395238Y-93592914D01*
X173395238Y-93592914D02*
X173395238Y-93545295D01*
X173395238Y-93545295D02*
X173442857Y-93450057D01*
X173442857Y-93450057D02*
X173490476Y-93402438D01*
X173490476Y-93402438D02*
X173585714Y-93354819D01*
X173585714Y-93354819D02*
X173776190Y-93354819D01*
X173776190Y-93354819D02*
X173871428Y-93402438D01*
X173871428Y-93402438D02*
X173919047Y-93450057D01*
X173919047Y-93450057D02*
X173966666Y-93545295D01*
X173966666Y-93545295D02*
X173966666Y-93592914D01*
X173966666Y-93592914D02*
X173919047Y-93688152D01*
X173919047Y-93688152D02*
X173871428Y-93735771D01*
X173871428Y-93735771D02*
X173776190Y-93783390D01*
X173776190Y-93783390D02*
X173585714Y-93783390D01*
X173585714Y-93783390D02*
X173490476Y-93831009D01*
X173490476Y-93831009D02*
X173442857Y-93878628D01*
X173442857Y-93878628D02*
X173395238Y-93973866D01*
X173395238Y-93973866D02*
X173395238Y-94164342D01*
X173395238Y-94164342D02*
X173442857Y-94259580D01*
X173442857Y-94259580D02*
X173490476Y-94307200D01*
X173490476Y-94307200D02*
X173585714Y-94354819D01*
X173585714Y-94354819D02*
X173776190Y-94354819D01*
X173776190Y-94354819D02*
X173871428Y-94307200D01*
X173871428Y-94307200D02*
X173919047Y-94259580D01*
X173919047Y-94259580D02*
X173966666Y-94164342D01*
X173966666Y-94164342D02*
X173966666Y-93973866D01*
X173966666Y-93973866D02*
X173919047Y-93878628D01*
X173919047Y-93878628D02*
X173871428Y-93831009D01*
X173871428Y-93831009D02*
X173776190Y-93783390D01*
X169031486Y-109809523D02*
X169745771Y-109809523D01*
X169745771Y-109809523D02*
X169888628Y-109857142D01*
X169888628Y-109857142D02*
X169983867Y-109952380D01*
X169983867Y-109952380D02*
X170031486Y-110095237D01*
X170031486Y-110095237D02*
X170031486Y-110190475D01*
X170031486Y-108809523D02*
X170031486Y-109380951D01*
X170031486Y-109095237D02*
X169031486Y-109095237D01*
X169031486Y-109095237D02*
X169174343Y-109190475D01*
X169174343Y-109190475D02*
X169269581Y-109285713D01*
X169269581Y-109285713D02*
X169317200Y-109380951D01*
X170031486Y-107857142D02*
X170031486Y-108428570D01*
X170031486Y-108142856D02*
X169031486Y-108142856D01*
X169031486Y-108142856D02*
X169174343Y-108238094D01*
X169174343Y-108238094D02*
X169269581Y-108333332D01*
X169269581Y-108333332D02*
X169317200Y-108428570D01*
X197464559Y-92693333D02*
X198178844Y-92693333D01*
X198178844Y-92693333D02*
X198321701Y-92740952D01*
X198321701Y-92740952D02*
X198416940Y-92836190D01*
X198416940Y-92836190D02*
X198464559Y-92979047D01*
X198464559Y-92979047D02*
X198464559Y-93074285D01*
X198464559Y-91693333D02*
X198464559Y-92264761D01*
X198464559Y-91979047D02*
X197464559Y-91979047D01*
X197464559Y-91979047D02*
X197607416Y-92074285D01*
X197607416Y-92074285D02*
X197702654Y-92169523D01*
X197702654Y-92169523D02*
X197750273Y-92264761D01*
X183313333Y-78259580D02*
X183265714Y-78307200D01*
X183265714Y-78307200D02*
X183122857Y-78354819D01*
X183122857Y-78354819D02*
X183027619Y-78354819D01*
X183027619Y-78354819D02*
X182884762Y-78307200D01*
X182884762Y-78307200D02*
X182789524Y-78211961D01*
X182789524Y-78211961D02*
X182741905Y-78116723D01*
X182741905Y-78116723D02*
X182694286Y-77926247D01*
X182694286Y-77926247D02*
X182694286Y-77783390D01*
X182694286Y-77783390D02*
X182741905Y-77592914D01*
X182741905Y-77592914D02*
X182789524Y-77497676D01*
X182789524Y-77497676D02*
X182884762Y-77402438D01*
X182884762Y-77402438D02*
X183027619Y-77354819D01*
X183027619Y-77354819D02*
X183122857Y-77354819D01*
X183122857Y-77354819D02*
X183265714Y-77402438D01*
X183265714Y-77402438D02*
X183313333Y-77450057D01*
X184218095Y-77354819D02*
X183741905Y-77354819D01*
X183741905Y-77354819D02*
X183694286Y-77831009D01*
X183694286Y-77831009D02*
X183741905Y-77783390D01*
X183741905Y-77783390D02*
X183837143Y-77735771D01*
X183837143Y-77735771D02*
X184075238Y-77735771D01*
X184075238Y-77735771D02*
X184170476Y-77783390D01*
X184170476Y-77783390D02*
X184218095Y-77831009D01*
X184218095Y-77831009D02*
X184265714Y-77926247D01*
X184265714Y-77926247D02*
X184265714Y-78164342D01*
X184265714Y-78164342D02*
X184218095Y-78259580D01*
X184218095Y-78259580D02*
X184170476Y-78307200D01*
X184170476Y-78307200D02*
X184075238Y-78354819D01*
X184075238Y-78354819D02*
X183837143Y-78354819D01*
X183837143Y-78354819D02*
X183741905Y-78307200D01*
X183741905Y-78307200D02*
X183694286Y-78259580D01*
X154330476Y-93344819D02*
X154330476Y-94059104D01*
X154330476Y-94059104D02*
X154282857Y-94201961D01*
X154282857Y-94201961D02*
X154187619Y-94297200D01*
X154187619Y-94297200D02*
X154044762Y-94344819D01*
X154044762Y-94344819D02*
X153949524Y-94344819D01*
X155330476Y-94344819D02*
X154759048Y-94344819D01*
X155044762Y-94344819D02*
X155044762Y-93344819D01*
X155044762Y-93344819D02*
X154949524Y-93487676D01*
X154949524Y-93487676D02*
X154854286Y-93582914D01*
X154854286Y-93582914D02*
X154759048Y-93630533D01*
X156187619Y-93344819D02*
X155997143Y-93344819D01*
X155997143Y-93344819D02*
X155901905Y-93392438D01*
X155901905Y-93392438D02*
X155854286Y-93440057D01*
X155854286Y-93440057D02*
X155759048Y-93582914D01*
X155759048Y-93582914D02*
X155711429Y-93773390D01*
X155711429Y-93773390D02*
X155711429Y-94154342D01*
X155711429Y-94154342D02*
X155759048Y-94249580D01*
X155759048Y-94249580D02*
X155806667Y-94297200D01*
X155806667Y-94297200D02*
X155901905Y-94344819D01*
X155901905Y-94344819D02*
X156092381Y-94344819D01*
X156092381Y-94344819D02*
X156187619Y-94297200D01*
X156187619Y-94297200D02*
X156235238Y-94249580D01*
X156235238Y-94249580D02*
X156282857Y-94154342D01*
X156282857Y-94154342D02*
X156282857Y-93916247D01*
X156282857Y-93916247D02*
X156235238Y-93821009D01*
X156235238Y-93821009D02*
X156187619Y-93773390D01*
X156187619Y-93773390D02*
X156092381Y-93725771D01*
X156092381Y-93725771D02*
X155901905Y-93725771D01*
X155901905Y-93725771D02*
X155806667Y-93773390D01*
X155806667Y-93773390D02*
X155759048Y-93821009D01*
X155759048Y-93821009D02*
X155711429Y-93916247D01*
X161564819Y-109809523D02*
X162279104Y-109809523D01*
X162279104Y-109809523D02*
X162421961Y-109857142D01*
X162421961Y-109857142D02*
X162517200Y-109952380D01*
X162517200Y-109952380D02*
X162564819Y-110095237D01*
X162564819Y-110095237D02*
X162564819Y-110190475D01*
X162564819Y-108809523D02*
X162564819Y-109380951D01*
X162564819Y-109095237D02*
X161564819Y-109095237D01*
X161564819Y-109095237D02*
X161707676Y-109190475D01*
X161707676Y-109190475D02*
X161802914Y-109285713D01*
X161802914Y-109285713D02*
X161850533Y-109380951D01*
X161660057Y-108428570D02*
X161612438Y-108380951D01*
X161612438Y-108380951D02*
X161564819Y-108285713D01*
X161564819Y-108285713D02*
X161564819Y-108047618D01*
X161564819Y-108047618D02*
X161612438Y-107952380D01*
X161612438Y-107952380D02*
X161660057Y-107904761D01*
X161660057Y-107904761D02*
X161755295Y-107857142D01*
X161755295Y-107857142D02*
X161850533Y-107857142D01*
X161850533Y-107857142D02*
X161993390Y-107904761D01*
X161993390Y-107904761D02*
X162564819Y-108476189D01*
X162564819Y-108476189D02*
X162564819Y-107857142D01*
X183964819Y-109333333D02*
X184679104Y-109333333D01*
X184679104Y-109333333D02*
X184821961Y-109380952D01*
X184821961Y-109380952D02*
X184917200Y-109476190D01*
X184917200Y-109476190D02*
X184964819Y-109619047D01*
X184964819Y-109619047D02*
X184964819Y-109714285D01*
X184964819Y-108809523D02*
X184964819Y-108619047D01*
X184964819Y-108619047D02*
X184917200Y-108523809D01*
X184917200Y-108523809D02*
X184869580Y-108476190D01*
X184869580Y-108476190D02*
X184726723Y-108380952D01*
X184726723Y-108380952D02*
X184536247Y-108333333D01*
X184536247Y-108333333D02*
X184155295Y-108333333D01*
X184155295Y-108333333D02*
X184060057Y-108380952D01*
X184060057Y-108380952D02*
X184012438Y-108428571D01*
X184012438Y-108428571D02*
X183964819Y-108523809D01*
X183964819Y-108523809D02*
X183964819Y-108714285D01*
X183964819Y-108714285D02*
X184012438Y-108809523D01*
X184012438Y-108809523D02*
X184060057Y-108857142D01*
X184060057Y-108857142D02*
X184155295Y-108904761D01*
X184155295Y-108904761D02*
X184393390Y-108904761D01*
X184393390Y-108904761D02*
X184488628Y-108857142D01*
X184488628Y-108857142D02*
X184536247Y-108809523D01*
X184536247Y-108809523D02*
X184583866Y-108714285D01*
X184583866Y-108714285D02*
X184583866Y-108523809D01*
X184583866Y-108523809D02*
X184536247Y-108428571D01*
X184536247Y-108428571D02*
X184488628Y-108380952D01*
X184488628Y-108380952D02*
X184393390Y-108333333D01*
X191535476Y-37854819D02*
X191535476Y-38569104D01*
X191535476Y-38569104D02*
X191487857Y-38711961D01*
X191487857Y-38711961D02*
X191392619Y-38807200D01*
X191392619Y-38807200D02*
X191249762Y-38854819D01*
X191249762Y-38854819D02*
X191154524Y-38854819D01*
X192535476Y-38854819D02*
X191964048Y-38854819D01*
X192249762Y-38854819D02*
X192249762Y-37854819D01*
X192249762Y-37854819D02*
X192154524Y-37997676D01*
X192154524Y-37997676D02*
X192059286Y-38092914D01*
X192059286Y-38092914D02*
X191964048Y-38140533D01*
X193440238Y-37854819D02*
X192964048Y-37854819D01*
X192964048Y-37854819D02*
X192916429Y-38331009D01*
X192916429Y-38331009D02*
X192964048Y-38283390D01*
X192964048Y-38283390D02*
X193059286Y-38235771D01*
X193059286Y-38235771D02*
X193297381Y-38235771D01*
X193297381Y-38235771D02*
X193392619Y-38283390D01*
X193392619Y-38283390D02*
X193440238Y-38331009D01*
X193440238Y-38331009D02*
X193487857Y-38426247D01*
X193487857Y-38426247D02*
X193487857Y-38664342D01*
X193487857Y-38664342D02*
X193440238Y-38759580D01*
X193440238Y-38759580D02*
X193392619Y-38807200D01*
X193392619Y-38807200D02*
X193297381Y-38854819D01*
X193297381Y-38854819D02*
X193059286Y-38854819D01*
X193059286Y-38854819D02*
X192964048Y-38807200D01*
X192964048Y-38807200D02*
X192916429Y-38759580D01*
X176498152Y-109809523D02*
X177212437Y-109809523D01*
X177212437Y-109809523D02*
X177355294Y-109857142D01*
X177355294Y-109857142D02*
X177450533Y-109952380D01*
X177450533Y-109952380D02*
X177498152Y-110095237D01*
X177498152Y-110095237D02*
X177498152Y-110190475D01*
X177498152Y-108809523D02*
X177498152Y-109380951D01*
X177498152Y-109095237D02*
X176498152Y-109095237D01*
X176498152Y-109095237D02*
X176641009Y-109190475D01*
X176641009Y-109190475D02*
X176736247Y-109285713D01*
X176736247Y-109285713D02*
X176783866Y-109380951D01*
X176498152Y-108190475D02*
X176498152Y-108095237D01*
X176498152Y-108095237D02*
X176545771Y-107999999D01*
X176545771Y-107999999D02*
X176593390Y-107952380D01*
X176593390Y-107952380D02*
X176688628Y-107904761D01*
X176688628Y-107904761D02*
X176879104Y-107857142D01*
X176879104Y-107857142D02*
X177117199Y-107857142D01*
X177117199Y-107857142D02*
X177307675Y-107904761D01*
X177307675Y-107904761D02*
X177402913Y-107952380D01*
X177402913Y-107952380D02*
X177450533Y-107999999D01*
X177450533Y-107999999D02*
X177498152Y-108095237D01*
X177498152Y-108095237D02*
X177498152Y-108190475D01*
X177498152Y-108190475D02*
X177450533Y-108285713D01*
X177450533Y-108285713D02*
X177402913Y-108333332D01*
X177402913Y-108333332D02*
X177307675Y-108380951D01*
X177307675Y-108380951D02*
X177117199Y-108428570D01*
X177117199Y-108428570D02*
X176879104Y-108428570D01*
X176879104Y-108428570D02*
X176688628Y-108380951D01*
X176688628Y-108380951D02*
X176593390Y-108333332D01*
X176593390Y-108333332D02*
X176545771Y-108285713D01*
X176545771Y-108285713D02*
X176498152Y-108190475D01*
X194760476Y-109934819D02*
X194760476Y-110649104D01*
X194760476Y-110649104D02*
X194712857Y-110791961D01*
X194712857Y-110791961D02*
X194617619Y-110887200D01*
X194617619Y-110887200D02*
X194474762Y-110934819D01*
X194474762Y-110934819D02*
X194379524Y-110934819D01*
X195760476Y-110934819D02*
X195189048Y-110934819D01*
X195474762Y-110934819D02*
X195474762Y-109934819D01*
X195474762Y-109934819D02*
X195379524Y-110077676D01*
X195379524Y-110077676D02*
X195284286Y-110172914D01*
X195284286Y-110172914D02*
X195189048Y-110220533D01*
X196617619Y-110268152D02*
X196617619Y-110934819D01*
X196379524Y-109887200D02*
X196141429Y-110601485D01*
X196141429Y-110601485D02*
X196760476Y-110601485D01*
X184243333Y-76259580D02*
X184195714Y-76307200D01*
X184195714Y-76307200D02*
X184052857Y-76354819D01*
X184052857Y-76354819D02*
X183957619Y-76354819D01*
X183957619Y-76354819D02*
X183814762Y-76307200D01*
X183814762Y-76307200D02*
X183719524Y-76211961D01*
X183719524Y-76211961D02*
X183671905Y-76116723D01*
X183671905Y-76116723D02*
X183624286Y-75926247D01*
X183624286Y-75926247D02*
X183624286Y-75783390D01*
X183624286Y-75783390D02*
X183671905Y-75592914D01*
X183671905Y-75592914D02*
X183719524Y-75497676D01*
X183719524Y-75497676D02*
X183814762Y-75402438D01*
X183814762Y-75402438D02*
X183957619Y-75354819D01*
X183957619Y-75354819D02*
X184052857Y-75354819D01*
X184052857Y-75354819D02*
X184195714Y-75402438D01*
X184195714Y-75402438D02*
X184243333Y-75450057D01*
X185100476Y-75354819D02*
X184910000Y-75354819D01*
X184910000Y-75354819D02*
X184814762Y-75402438D01*
X184814762Y-75402438D02*
X184767143Y-75450057D01*
X184767143Y-75450057D02*
X184671905Y-75592914D01*
X184671905Y-75592914D02*
X184624286Y-75783390D01*
X184624286Y-75783390D02*
X184624286Y-76164342D01*
X184624286Y-76164342D02*
X184671905Y-76259580D01*
X184671905Y-76259580D02*
X184719524Y-76307200D01*
X184719524Y-76307200D02*
X184814762Y-76354819D01*
X184814762Y-76354819D02*
X185005238Y-76354819D01*
X185005238Y-76354819D02*
X185100476Y-76307200D01*
X185100476Y-76307200D02*
X185148095Y-76259580D01*
X185148095Y-76259580D02*
X185195714Y-76164342D01*
X185195714Y-76164342D02*
X185195714Y-75926247D01*
X185195714Y-75926247D02*
X185148095Y-75831009D01*
X185148095Y-75831009D02*
X185100476Y-75783390D01*
X185100476Y-75783390D02*
X185005238Y-75735771D01*
X185005238Y-75735771D02*
X184814762Y-75735771D01*
X184814762Y-75735771D02*
X184719524Y-75783390D01*
X184719524Y-75783390D02*
X184671905Y-75831009D01*
X184671905Y-75831009D02*
X184624286Y-75926247D01*
X207001905Y-46614819D02*
X207001905Y-45614819D01*
X207001905Y-45614819D02*
X207240000Y-45614819D01*
X207240000Y-45614819D02*
X207382857Y-45662438D01*
X207382857Y-45662438D02*
X207478095Y-45757676D01*
X207478095Y-45757676D02*
X207525714Y-45852914D01*
X207525714Y-45852914D02*
X207573333Y-46043390D01*
X207573333Y-46043390D02*
X207573333Y-46186247D01*
X207573333Y-46186247D02*
X207525714Y-46376723D01*
X207525714Y-46376723D02*
X207478095Y-46471961D01*
X207478095Y-46471961D02*
X207382857Y-46567200D01*
X207382857Y-46567200D02*
X207240000Y-46614819D01*
X207240000Y-46614819D02*
X207001905Y-46614819D01*
X207954286Y-45710057D02*
X208001905Y-45662438D01*
X208001905Y-45662438D02*
X208097143Y-45614819D01*
X208097143Y-45614819D02*
X208335238Y-45614819D01*
X208335238Y-45614819D02*
X208430476Y-45662438D01*
X208430476Y-45662438D02*
X208478095Y-45710057D01*
X208478095Y-45710057D02*
X208525714Y-45805295D01*
X208525714Y-45805295D02*
X208525714Y-45900533D01*
X208525714Y-45900533D02*
X208478095Y-46043390D01*
X208478095Y-46043390D02*
X207906667Y-46614819D01*
X207906667Y-46614819D02*
X208525714Y-46614819D01*
X206833333Y-50714819D02*
X206500000Y-50238628D01*
X206261905Y-50714819D02*
X206261905Y-49714819D01*
X206261905Y-49714819D02*
X206642857Y-49714819D01*
X206642857Y-49714819D02*
X206738095Y-49762438D01*
X206738095Y-49762438D02*
X206785714Y-49810057D01*
X206785714Y-49810057D02*
X206833333Y-49905295D01*
X206833333Y-49905295D02*
X206833333Y-50048152D01*
X206833333Y-50048152D02*
X206785714Y-50143390D01*
X206785714Y-50143390D02*
X206738095Y-50191009D01*
X206738095Y-50191009D02*
X206642857Y-50238628D01*
X206642857Y-50238628D02*
X206261905Y-50238628D01*
X207214286Y-49810057D02*
X207261905Y-49762438D01*
X207261905Y-49762438D02*
X207357143Y-49714819D01*
X207357143Y-49714819D02*
X207595238Y-49714819D01*
X207595238Y-49714819D02*
X207690476Y-49762438D01*
X207690476Y-49762438D02*
X207738095Y-49810057D01*
X207738095Y-49810057D02*
X207785714Y-49905295D01*
X207785714Y-49905295D02*
X207785714Y-50000533D01*
X207785714Y-50000533D02*
X207738095Y-50143390D01*
X207738095Y-50143390D02*
X207166667Y-50714819D01*
X207166667Y-50714819D02*
X207785714Y-50714819D01*
X200984819Y-88319523D02*
X201699104Y-88319523D01*
X201699104Y-88319523D02*
X201841961Y-88367142D01*
X201841961Y-88367142D02*
X201937200Y-88462380D01*
X201937200Y-88462380D02*
X201984819Y-88605237D01*
X201984819Y-88605237D02*
X201984819Y-88700475D01*
X201984819Y-87319523D02*
X201984819Y-87890951D01*
X201984819Y-87605237D02*
X200984819Y-87605237D01*
X200984819Y-87605237D02*
X201127676Y-87700475D01*
X201127676Y-87700475D02*
X201222914Y-87795713D01*
X201222914Y-87795713D02*
X201270533Y-87890951D01*
X201413390Y-86748094D02*
X201365771Y-86843332D01*
X201365771Y-86843332D02*
X201318152Y-86890951D01*
X201318152Y-86890951D02*
X201222914Y-86938570D01*
X201222914Y-86938570D02*
X201175295Y-86938570D01*
X201175295Y-86938570D02*
X201080057Y-86890951D01*
X201080057Y-86890951D02*
X201032438Y-86843332D01*
X201032438Y-86843332D02*
X200984819Y-86748094D01*
X200984819Y-86748094D02*
X200984819Y-86557618D01*
X200984819Y-86557618D02*
X201032438Y-86462380D01*
X201032438Y-86462380D02*
X201080057Y-86414761D01*
X201080057Y-86414761D02*
X201175295Y-86367142D01*
X201175295Y-86367142D02*
X201222914Y-86367142D01*
X201222914Y-86367142D02*
X201318152Y-86414761D01*
X201318152Y-86414761D02*
X201365771Y-86462380D01*
X201365771Y-86462380D02*
X201413390Y-86557618D01*
X201413390Y-86557618D02*
X201413390Y-86748094D01*
X201413390Y-86748094D02*
X201461009Y-86843332D01*
X201461009Y-86843332D02*
X201508628Y-86890951D01*
X201508628Y-86890951D02*
X201603866Y-86938570D01*
X201603866Y-86938570D02*
X201794342Y-86938570D01*
X201794342Y-86938570D02*
X201889580Y-86890951D01*
X201889580Y-86890951D02*
X201937200Y-86843332D01*
X201937200Y-86843332D02*
X201984819Y-86748094D01*
X201984819Y-86748094D02*
X201984819Y-86557618D01*
X201984819Y-86557618D02*
X201937200Y-86462380D01*
X201937200Y-86462380D02*
X201889580Y-86414761D01*
X201889580Y-86414761D02*
X201794342Y-86367142D01*
X201794342Y-86367142D02*
X201603866Y-86367142D01*
X201603866Y-86367142D02*
X201508628Y-86414761D01*
X201508628Y-86414761D02*
X201461009Y-86462380D01*
X201461009Y-86462380D02*
X201413390Y-86557618D01*
X205433333Y-46234819D02*
X205100000Y-45758628D01*
X204861905Y-46234819D02*
X204861905Y-45234819D01*
X204861905Y-45234819D02*
X205242857Y-45234819D01*
X205242857Y-45234819D02*
X205338095Y-45282438D01*
X205338095Y-45282438D02*
X205385714Y-45330057D01*
X205385714Y-45330057D02*
X205433333Y-45425295D01*
X205433333Y-45425295D02*
X205433333Y-45568152D01*
X205433333Y-45568152D02*
X205385714Y-45663390D01*
X205385714Y-45663390D02*
X205338095Y-45711009D01*
X205338095Y-45711009D02*
X205242857Y-45758628D01*
X205242857Y-45758628D02*
X204861905Y-45758628D01*
X205766667Y-45234819D02*
X206385714Y-45234819D01*
X206385714Y-45234819D02*
X206052381Y-45615771D01*
X206052381Y-45615771D02*
X206195238Y-45615771D01*
X206195238Y-45615771D02*
X206290476Y-45663390D01*
X206290476Y-45663390D02*
X206338095Y-45711009D01*
X206338095Y-45711009D02*
X206385714Y-45806247D01*
X206385714Y-45806247D02*
X206385714Y-46044342D01*
X206385714Y-46044342D02*
X206338095Y-46139580D01*
X206338095Y-46139580D02*
X206290476Y-46187200D01*
X206290476Y-46187200D02*
X206195238Y-46234819D01*
X206195238Y-46234819D02*
X205909524Y-46234819D01*
X205909524Y-46234819D02*
X205814286Y-46187200D01*
X205814286Y-46187200D02*
X205766667Y-46139580D01*
X140190476Y-94294819D02*
X140190476Y-95009104D01*
X140190476Y-95009104D02*
X140142857Y-95151961D01*
X140142857Y-95151961D02*
X140047619Y-95247200D01*
X140047619Y-95247200D02*
X139904762Y-95294819D01*
X139904762Y-95294819D02*
X139809524Y-95294819D01*
X141190476Y-95294819D02*
X140619048Y-95294819D01*
X140904762Y-95294819D02*
X140904762Y-94294819D01*
X140904762Y-94294819D02*
X140809524Y-94437676D01*
X140809524Y-94437676D02*
X140714286Y-94532914D01*
X140714286Y-94532914D02*
X140619048Y-94580533D01*
X141523810Y-94294819D02*
X142142857Y-94294819D01*
X142142857Y-94294819D02*
X141809524Y-94675771D01*
X141809524Y-94675771D02*
X141952381Y-94675771D01*
X141952381Y-94675771D02*
X142047619Y-94723390D01*
X142047619Y-94723390D02*
X142095238Y-94771009D01*
X142095238Y-94771009D02*
X142142857Y-94866247D01*
X142142857Y-94866247D02*
X142142857Y-95104342D01*
X142142857Y-95104342D02*
X142095238Y-95199580D01*
X142095238Y-95199580D02*
X142047619Y-95247200D01*
X142047619Y-95247200D02*
X141952381Y-95294819D01*
X141952381Y-95294819D02*
X141666667Y-95294819D01*
X141666667Y-95294819D02*
X141571429Y-95247200D01*
X141571429Y-95247200D02*
X141523810Y-95199580D01*
X188676666Y-99764819D02*
X188676666Y-100479104D01*
X188676666Y-100479104D02*
X188629047Y-100621961D01*
X188629047Y-100621961D02*
X188533809Y-100717200D01*
X188533809Y-100717200D02*
X188390952Y-100764819D01*
X188390952Y-100764819D02*
X188295714Y-100764819D01*
X189581428Y-99764819D02*
X189390952Y-99764819D01*
X189390952Y-99764819D02*
X189295714Y-99812438D01*
X189295714Y-99812438D02*
X189248095Y-99860057D01*
X189248095Y-99860057D02*
X189152857Y-100002914D01*
X189152857Y-100002914D02*
X189105238Y-100193390D01*
X189105238Y-100193390D02*
X189105238Y-100574342D01*
X189105238Y-100574342D02*
X189152857Y-100669580D01*
X189152857Y-100669580D02*
X189200476Y-100717200D01*
X189200476Y-100717200D02*
X189295714Y-100764819D01*
X189295714Y-100764819D02*
X189486190Y-100764819D01*
X189486190Y-100764819D02*
X189581428Y-100717200D01*
X189581428Y-100717200D02*
X189629047Y-100669580D01*
X189629047Y-100669580D02*
X189676666Y-100574342D01*
X189676666Y-100574342D02*
X189676666Y-100336247D01*
X189676666Y-100336247D02*
X189629047Y-100241009D01*
X189629047Y-100241009D02*
X189581428Y-100193390D01*
X189581428Y-100193390D02*
X189486190Y-100145771D01*
X189486190Y-100145771D02*
X189295714Y-100145771D01*
X189295714Y-100145771D02*
X189200476Y-100193390D01*
X189200476Y-100193390D02*
X189152857Y-100241009D01*
X189152857Y-100241009D02*
X189105238Y-100336247D01*
X163180476Y-93354819D02*
X163180476Y-94069104D01*
X163180476Y-94069104D02*
X163132857Y-94211961D01*
X163132857Y-94211961D02*
X163037619Y-94307200D01*
X163037619Y-94307200D02*
X162894762Y-94354819D01*
X162894762Y-94354819D02*
X162799524Y-94354819D01*
X164180476Y-94354819D02*
X163609048Y-94354819D01*
X163894762Y-94354819D02*
X163894762Y-93354819D01*
X163894762Y-93354819D02*
X163799524Y-93497676D01*
X163799524Y-93497676D02*
X163704286Y-93592914D01*
X163704286Y-93592914D02*
X163609048Y-93640533D01*
X164513810Y-93354819D02*
X165180476Y-93354819D01*
X165180476Y-93354819D02*
X164751905Y-94354819D01*
X149573333Y-99494819D02*
X149240000Y-99018628D01*
X149001905Y-99494819D02*
X149001905Y-98494819D01*
X149001905Y-98494819D02*
X149382857Y-98494819D01*
X149382857Y-98494819D02*
X149478095Y-98542438D01*
X149478095Y-98542438D02*
X149525714Y-98590057D01*
X149525714Y-98590057D02*
X149573333Y-98685295D01*
X149573333Y-98685295D02*
X149573333Y-98828152D01*
X149573333Y-98828152D02*
X149525714Y-98923390D01*
X149525714Y-98923390D02*
X149478095Y-98971009D01*
X149478095Y-98971009D02*
X149382857Y-99018628D01*
X149382857Y-99018628D02*
X149001905Y-99018628D01*
X150525714Y-99494819D02*
X149954286Y-99494819D01*
X150240000Y-99494819D02*
X150240000Y-98494819D01*
X150240000Y-98494819D02*
X150144762Y-98637676D01*
X150144762Y-98637676D02*
X150049524Y-98732914D01*
X150049524Y-98732914D02*
X149954286Y-98780533D01*
X154544819Y-109799523D02*
X155259104Y-109799523D01*
X155259104Y-109799523D02*
X155401961Y-109847142D01*
X155401961Y-109847142D02*
X155497200Y-109942380D01*
X155497200Y-109942380D02*
X155544819Y-110085237D01*
X155544819Y-110085237D02*
X155544819Y-110180475D01*
X155544819Y-108799523D02*
X155544819Y-109370951D01*
X155544819Y-109085237D02*
X154544819Y-109085237D01*
X154544819Y-109085237D02*
X154687676Y-109180475D01*
X154687676Y-109180475D02*
X154782914Y-109275713D01*
X154782914Y-109275713D02*
X154830533Y-109370951D01*
X155544819Y-108323332D02*
X155544819Y-108132856D01*
X155544819Y-108132856D02*
X155497200Y-108037618D01*
X155497200Y-108037618D02*
X155449580Y-107989999D01*
X155449580Y-107989999D02*
X155306723Y-107894761D01*
X155306723Y-107894761D02*
X155116247Y-107847142D01*
X155116247Y-107847142D02*
X154735295Y-107847142D01*
X154735295Y-107847142D02*
X154640057Y-107894761D01*
X154640057Y-107894761D02*
X154592438Y-107942380D01*
X154592438Y-107942380D02*
X154544819Y-108037618D01*
X154544819Y-108037618D02*
X154544819Y-108228094D01*
X154544819Y-108228094D02*
X154592438Y-108323332D01*
X154592438Y-108323332D02*
X154640057Y-108370951D01*
X154640057Y-108370951D02*
X154735295Y-108418570D01*
X154735295Y-108418570D02*
X154973390Y-108418570D01*
X154973390Y-108418570D02*
X155068628Y-108370951D01*
X155068628Y-108370951D02*
X155116247Y-108323332D01*
X155116247Y-108323332D02*
X155163866Y-108228094D01*
X155163866Y-108228094D02*
X155163866Y-108037618D01*
X155163866Y-108037618D02*
X155116247Y-107942380D01*
X155116247Y-107942380D02*
X155068628Y-107894761D01*
X155068628Y-107894761D02*
X154973390Y-107847142D01*
X146556666Y-109084819D02*
X146556666Y-109799104D01*
X146556666Y-109799104D02*
X146509047Y-109941961D01*
X146509047Y-109941961D02*
X146413809Y-110037200D01*
X146413809Y-110037200D02*
X146270952Y-110084819D01*
X146270952Y-110084819D02*
X146175714Y-110084819D01*
X146985238Y-109180057D02*
X147032857Y-109132438D01*
X147032857Y-109132438D02*
X147128095Y-109084819D01*
X147128095Y-109084819D02*
X147366190Y-109084819D01*
X147366190Y-109084819D02*
X147461428Y-109132438D01*
X147461428Y-109132438D02*
X147509047Y-109180057D01*
X147509047Y-109180057D02*
X147556666Y-109275295D01*
X147556666Y-109275295D02*
X147556666Y-109370533D01*
X147556666Y-109370533D02*
X147509047Y-109513390D01*
X147509047Y-109513390D02*
X146937619Y-110084819D01*
X146937619Y-110084819D02*
X147556666Y-110084819D01*
X189105180Y-81378095D02*
X188295657Y-81378095D01*
X188295657Y-81378095D02*
X188200419Y-81425714D01*
X188200419Y-81425714D02*
X188152800Y-81473333D01*
X188152800Y-81473333D02*
X188105180Y-81568571D01*
X188105180Y-81568571D02*
X188105180Y-81759047D01*
X188105180Y-81759047D02*
X188152800Y-81854285D01*
X188152800Y-81854285D02*
X188200419Y-81901904D01*
X188200419Y-81901904D02*
X188295657Y-81949523D01*
X188295657Y-81949523D02*
X189105180Y-81949523D01*
X189009942Y-82378095D02*
X189057561Y-82425714D01*
X189057561Y-82425714D02*
X189105180Y-82520952D01*
X189105180Y-82520952D02*
X189105180Y-82759047D01*
X189105180Y-82759047D02*
X189057561Y-82854285D01*
X189057561Y-82854285D02*
X189009942Y-82901904D01*
X189009942Y-82901904D02*
X188914704Y-82949523D01*
X188914704Y-82949523D02*
X188819466Y-82949523D01*
X188819466Y-82949523D02*
X188676609Y-82901904D01*
X188676609Y-82901904D02*
X188105180Y-82330476D01*
X188105180Y-82330476D02*
X188105180Y-82949523D01*
X190355180Y-67740000D02*
X190117085Y-67740000D01*
X190212323Y-67501905D02*
X190117085Y-67740000D01*
X190117085Y-67740000D02*
X190212323Y-67978095D01*
X189926609Y-67597143D02*
X190117085Y-67740000D01*
X190117085Y-67740000D02*
X189926609Y-67882857D01*
X201774819Y-67484999D02*
X202012914Y-67484999D01*
X201917676Y-67723094D02*
X202012914Y-67484999D01*
X202012914Y-67484999D02*
X201917676Y-67246904D01*
X202203390Y-67627856D02*
X202012914Y-67484999D01*
X202012914Y-67484999D02*
X202203390Y-67342142D01*
X188666666Y-107684819D02*
X188666666Y-108399104D01*
X188666666Y-108399104D02*
X188619047Y-108541961D01*
X188619047Y-108541961D02*
X188523809Y-108637200D01*
X188523809Y-108637200D02*
X188380952Y-108684819D01*
X188380952Y-108684819D02*
X188285714Y-108684819D01*
X189047619Y-107684819D02*
X189714285Y-107684819D01*
X189714285Y-107684819D02*
X189285714Y-108684819D01*
X183293333Y-80359580D02*
X183245714Y-80407200D01*
X183245714Y-80407200D02*
X183102857Y-80454819D01*
X183102857Y-80454819D02*
X183007619Y-80454819D01*
X183007619Y-80454819D02*
X182864762Y-80407200D01*
X182864762Y-80407200D02*
X182769524Y-80311961D01*
X182769524Y-80311961D02*
X182721905Y-80216723D01*
X182721905Y-80216723D02*
X182674286Y-80026247D01*
X182674286Y-80026247D02*
X182674286Y-79883390D01*
X182674286Y-79883390D02*
X182721905Y-79692914D01*
X182721905Y-79692914D02*
X182769524Y-79597676D01*
X182769524Y-79597676D02*
X182864762Y-79502438D01*
X182864762Y-79502438D02*
X183007619Y-79454819D01*
X183007619Y-79454819D02*
X183102857Y-79454819D01*
X183102857Y-79454819D02*
X183245714Y-79502438D01*
X183245714Y-79502438D02*
X183293333Y-79550057D01*
X183626667Y-79454819D02*
X184293333Y-79454819D01*
X184293333Y-79454819D02*
X183864762Y-80454819D01*
D11*
%TO.C,C1*%
X200131252Y-108715000D02*
X199608748Y-108715000D01*
X200131252Y-110185000D02*
X199608748Y-110185000D01*
%TO.C,J5*%
X185380000Y-96460000D02*
X185380000Y-98060000D01*
X185380000Y-98060000D02*
X187180000Y-98060000D01*
X186650000Y-93590000D02*
X191330000Y-93590000D01*
X187180000Y-98060000D02*
X187180000Y-99000000D01*
X192600000Y-96460000D02*
X192600000Y-98060000D01*
X192600000Y-98060000D02*
X190800000Y-98060000D01*
D12*
%TO.C,U1*%
X139680000Y-39740000D02*
X139680000Y-88740000D01*
X141240000Y-55440000D02*
X144120000Y-55440000D01*
X141240000Y-56520000D02*
X141240000Y-55440000D01*
X141240000Y-76960000D02*
X141240000Y-78040000D01*
X141240000Y-78040000D02*
X144120000Y-78040000D01*
X142680000Y-91740000D02*
X176680000Y-91740000D01*
X144120000Y-55440000D02*
X144120000Y-56520000D01*
X144120000Y-78040000D02*
X144120000Y-76960000D01*
X175240000Y-55440000D02*
X178120000Y-55440000D01*
X175240000Y-56520000D02*
X175240000Y-55440000D01*
X175240000Y-76960000D02*
X175240000Y-78040000D01*
X175240000Y-78040000D02*
X178120000Y-78040000D01*
X176680000Y-36740000D02*
X142680000Y-36740000D01*
X178120000Y-55440000D02*
X178120000Y-56520000D01*
X178120000Y-78040000D02*
X178120000Y-76960000D01*
X179680000Y-88740000D02*
X179680000Y-39740000D01*
X139680000Y-39740000D02*
G75*
G02*
X142680000Y-36740000I3000000J0D01*
G01*
X142680000Y-91740000D02*
G75*
G02*
X139680000Y-88740000I1J3000001D01*
G01*
X176680000Y-36740000D02*
G75*
G02*
X179680000Y-39740000I0J-3000000D01*
G01*
X179680000Y-88740000D02*
G75*
G02*
X176680000Y-91740000I-3000001J1D01*
G01*
D13*
X139030000Y-56940000D02*
G75*
G02*
X138830000Y-56940000I-100000J0D01*
G01*
X138830000Y-56940000D02*
G75*
G02*
X139030000Y-56940000I100000J0D01*
G01*
D11*
%TO.C,D1*%
X205100000Y-54810000D02*
X205100000Y-56730000D01*
X205100000Y-56730000D02*
X207960000Y-56730000D01*
X207960000Y-54810000D02*
X205100000Y-54810000D01*
%TO.C,J8*%
X169690000Y-98160000D02*
X169690000Y-99760000D01*
X169690000Y-99760000D02*
X171490000Y-99760000D01*
X170960000Y-95290000D02*
X175640000Y-95290000D01*
X171490000Y-99760000D02*
X171490000Y-100700000D01*
X176910000Y-98160000D02*
X176910000Y-99760000D01*
X176910000Y-99760000D02*
X175110000Y-99760000D01*
%TO.C,J11*%
X163896667Y-102565000D02*
X163896667Y-115435000D01*
X163896667Y-115435000D02*
X166971667Y-115435000D01*
X166971667Y-102565000D02*
X163896667Y-102565000D01*
X167986667Y-103985000D02*
X167986667Y-114015000D01*
X167986667Y-114015000D02*
X168486667Y-114015000D01*
X168486667Y-103985000D02*
X167986667Y-103985000D01*
X168486667Y-104005000D02*
X168486667Y-103985000D01*
X168486667Y-114015000D02*
X168486667Y-113995000D01*
D14*
%TO.C,J1*%
X194253001Y-94016100D02*
X194253001Y-107376500D01*
X194253001Y-107376500D02*
X194547860Y-107376500D01*
X194550260Y-94016100D02*
X194253001Y-94016100D01*
X197042140Y-107376500D02*
X205048560Y-107376500D01*
X205048560Y-94016100D02*
X198009740Y-94016100D01*
X208553201Y-99747860D02*
X208553201Y-94904640D01*
X208553201Y-104089060D02*
X208553201Y-101454740D01*
X208553201Y-106487960D02*
X208553201Y-105643540D01*
D15*
X196161001Y-109154500D02*
G75*
G02*
X195399001Y-109154500I-381000J0D01*
G01*
X195399001Y-109154500D02*
G75*
G02*
X196161001Y-109154500I381000J0D01*
G01*
D11*
%TO.C,C5*%
X186413767Y-77400000D02*
X186121233Y-77400000D01*
X186413767Y-78420000D02*
X186121233Y-78420000D01*
%TO.C,J16*%
X152155000Y-98150000D02*
X152155000Y-99750000D01*
X152155000Y-99750000D02*
X153955000Y-99750000D01*
X153425000Y-95280000D02*
X156855000Y-95280000D01*
X153955000Y-99750000D02*
X153955000Y-100690000D01*
X158125000Y-98150000D02*
X158125000Y-99750000D01*
X158125000Y-99750000D02*
X156325000Y-99750000D01*
%TO.C,J12*%
X156430000Y-102565000D02*
X156430000Y-115435000D01*
X156430000Y-115435000D02*
X159505000Y-115435000D01*
X159505000Y-102565000D02*
X156430000Y-102565000D01*
X160520000Y-103985000D02*
X160520000Y-114015000D01*
X160520000Y-114015000D02*
X161020000Y-114015000D01*
X161020000Y-103985000D02*
X160520000Y-103985000D01*
X161020000Y-104005000D02*
X161020000Y-103985000D01*
X161020000Y-114015000D02*
X161020000Y-113995000D01*
%TO.C,J9*%
X178830000Y-102565000D02*
X178830000Y-115435000D01*
X178830000Y-115435000D02*
X181905000Y-115435000D01*
X181905000Y-102565000D02*
X178830000Y-102565000D01*
X182920000Y-103985000D02*
X182920000Y-114015000D01*
X182920000Y-114015000D02*
X183420000Y-114015000D01*
X183420000Y-103985000D02*
X182920000Y-103985000D01*
X183420000Y-104005000D02*
X183420000Y-103985000D01*
X183420000Y-114015000D02*
X183420000Y-113995000D01*
%TO.C,J15*%
X180100000Y-36510000D02*
X180100000Y-64410000D01*
X180100000Y-64410000D02*
X204420000Y-64410000D01*
X188206667Y-36510000D02*
X180100000Y-36510000D01*
X188206667Y-36870000D02*
X188206667Y-36510000D01*
X196313333Y-36510000D02*
X196313333Y-36870000D01*
X196313333Y-36870000D02*
X188206667Y-36870000D01*
X204420000Y-36510000D02*
X196313333Y-36510000D01*
X204420000Y-64410000D02*
X204420000Y-36510000D01*
%TO.C,J10*%
X171363333Y-102565000D02*
X171363333Y-115435000D01*
X171363333Y-115435000D02*
X174438333Y-115435000D01*
X174438333Y-102565000D02*
X171363333Y-102565000D01*
X175453333Y-103985000D02*
X175453333Y-114015000D01*
X175453333Y-114015000D02*
X175953333Y-114015000D01*
X175953333Y-103985000D02*
X175453333Y-103985000D01*
X175953333Y-104005000D02*
X175953333Y-103985000D01*
X175953333Y-114015000D02*
X175953333Y-113995000D01*
%TO.C,J14*%
X194460000Y-114330000D02*
X194460000Y-112950000D01*
X195840000Y-114330000D02*
X194460000Y-114330000D01*
X197110000Y-111570000D02*
X202300000Y-111570000D01*
X197110000Y-114330000D02*
X197110000Y-111570000D01*
X197110000Y-114330000D02*
X202300000Y-114330000D01*
X202300000Y-114330000D02*
X202300000Y-111570000D01*
%TO.C,C6*%
X186685835Y-75660000D02*
X186454165Y-75660000D01*
X186685835Y-76380000D02*
X186454165Y-76380000D01*
%TO.C,D2*%
X205052500Y-46940000D02*
X205052500Y-48860000D01*
X205052500Y-48860000D02*
X207912500Y-48860000D01*
X207912500Y-46940000D02*
X205052500Y-46940000D01*
%TO.C,R2*%
X207224564Y-51135000D02*
X206770436Y-51135000D01*
X207224564Y-52605000D02*
X206770436Y-52605000D01*
%TO.C,J18*%
X202920000Y-91100000D02*
X202920000Y-83920000D01*
X205790000Y-82650000D02*
X207390000Y-82650000D01*
X205790000Y-92370000D02*
X207390000Y-92370000D01*
X207390000Y-82650000D02*
X207390000Y-84450000D01*
X207390000Y-90570000D02*
X208330000Y-90570000D01*
X207390000Y-92370000D02*
X207390000Y-90570000D01*
%TO.C,R3*%
X207177064Y-43265000D02*
X206722936Y-43265000D01*
X207177064Y-44735000D02*
X206722936Y-44735000D01*
%TO.C,J13*%
X143005000Y-96490000D02*
X143005000Y-98090000D01*
X143005000Y-98090000D02*
X144805000Y-98090000D01*
X144275000Y-93620000D02*
X147705000Y-93620000D01*
X144805000Y-98090000D02*
X144805000Y-99030000D01*
X148975000Y-96490000D02*
X148975000Y-98090000D01*
X148975000Y-98090000D02*
X147175000Y-98090000D01*
%TO.C,J6*%
X185400000Y-104570000D02*
X185400000Y-106170000D01*
X185400000Y-106170000D02*
X187200000Y-106170000D01*
X186670000Y-101700000D02*
X191350000Y-101700000D01*
X187200000Y-106170000D02*
X187200000Y-107110000D01*
X192620000Y-104570000D02*
X192620000Y-106170000D01*
X192620000Y-106170000D02*
X190820000Y-106170000D01*
%TO.C,J17*%
X161005000Y-98160000D02*
X161005000Y-99760000D01*
X161005000Y-99760000D02*
X162805000Y-99760000D01*
X162275000Y-95290000D02*
X165705000Y-95290000D01*
X162805000Y-99760000D02*
X162805000Y-100700000D01*
X166975000Y-98160000D02*
X166975000Y-99760000D01*
X166975000Y-99760000D02*
X165175000Y-99760000D01*
%TO.C,R1*%
X149727064Y-99875000D02*
X149272936Y-99875000D01*
X149727064Y-101345000D02*
X149272936Y-101345000D01*
%TO.C,J19*%
X149410000Y-102555000D02*
X149410000Y-115425000D01*
X149410000Y-115425000D02*
X152485000Y-115425000D01*
X152485000Y-102555000D02*
X149410000Y-102555000D01*
X153500000Y-103975000D02*
X153500000Y-114005000D01*
X153500000Y-114005000D02*
X154000000Y-114005000D01*
X154000000Y-103975000D02*
X153500000Y-103975000D01*
X154000000Y-103995000D02*
X154000000Y-103975000D01*
X154000000Y-114005000D02*
X154000000Y-113985000D01*
%TO.C,J2*%
X141640000Y-100440000D02*
X143020000Y-100440000D01*
X141640000Y-101820000D02*
X141640000Y-100440000D01*
X141640000Y-103090000D02*
X141640000Y-108280000D01*
X141640000Y-103090000D02*
X144290000Y-103090000D01*
X141640000Y-108280000D02*
X146940000Y-108280000D01*
X144290000Y-100440000D02*
X146940000Y-100440000D01*
X144290000Y-103090000D02*
X144290000Y-100440000D01*
X146940000Y-100440000D02*
X146940000Y-108280000D01*
D14*
%TO.C,U2*%
X189603500Y-68563500D02*
X189603500Y-81136500D01*
X189603500Y-81136500D02*
X202176500Y-81136500D01*
X202176500Y-68563500D02*
X189603500Y-68563500D01*
X202176500Y-70913000D02*
X202176500Y-68563500D01*
X202176500Y-74469000D02*
X208780500Y-74469000D01*
X202176500Y-75231000D02*
X202176500Y-74469000D01*
X202176500Y-78787000D02*
X208780500Y-78787000D01*
X202176500Y-81136500D02*
X202176500Y-78787000D01*
X208780500Y-70913000D02*
X202176500Y-70913000D01*
X208780500Y-74469000D02*
X208780500Y-70913000D01*
X208780500Y-75231000D02*
X202176500Y-75231000D01*
X208780500Y-78787000D02*
X208780500Y-75231000D01*
D11*
%TO.C,J7*%
X185390000Y-112490000D02*
X185390000Y-114090000D01*
X185390000Y-114090000D02*
X187190000Y-114090000D01*
X186660000Y-109620000D02*
X191340000Y-109620000D01*
X187190000Y-114090000D02*
X187190000Y-115030000D01*
X192610000Y-112490000D02*
X192610000Y-114090000D01*
X192610000Y-114090000D02*
X190810000Y-114090000D01*
%TO.C,C7*%
X186433767Y-79590000D02*
X186141233Y-79590000D01*
X186433767Y-80610000D02*
X186141233Y-80610000D01*
%TD*%
M02*
